<?xml version="1.0" encoding="utf-8"?>
<!-- Generator: Adobe Illustrator 19.1.0, SVG Export Plug-In . SVG Version: 6.00 Build 0)  -->
<svg version="1.1" id="Layer_1" xmlns="http://www.w3.org/2000/svg" xmlns:xlink="http://www.w3.org/1999/xlink" x="0px" y="0px"
	 viewBox="-575 297 128 128" style="enable-background:new -575 297 128 128;" xml:space="preserve">
<style type="text/css">
	.st0{fill:#FF002D;}
	.st1{fill:#FFFFFF;}
	.st2{fill:#2B2B2B;}
	.st3{fill:#E4E4E4;}
	.st4{fill:#FFFFFF;stroke:#2B2B2B;stroke-width:0.2346;stroke-miterlimit:10;}
</style>
<circle class="st0" cx="-511" cy="361" r="63"/>
<rect x="-544.7" y="316" class="st1" width="67.4" height="90.1"/>
<rect x="-544.7" y="325.4" class="st2" width="67.4" height="8.3"/>
<rect x="-544.7" y="401.1" class="st2" width="67.4" height="4.9"/>
<rect x="-544.7" y="333.7" class="st3" width="67.4" height="17.6"/>
<circle class="st4" cx="-511" cy="329.6" r="7.1"/>
<rect x="-541.9" y="356.4" class="st3" width="41.8" height="1.4"/>
<rect x="-541.9" y="360.3" class="st3" width="41.8" height="1.4"/>
<rect x="-541.9" y="364.1" class="st3" width="41.8" height="1.4"/>
<rect x="-541.9" y="368" class="st3" width="41.8" height="1.4"/>
<rect x="-541.9" y="371.8" class="st3" width="41.8" height="1.4"/>
<rect x="-541.9" y="375.7" class="st3" width="41.8" height="1.4"/>
<rect x="-541.9" y="379.5" class="st3" width="41.8" height="1.4"/>
<rect x="-541.9" y="383.4" class="st3" width="41.8" height="1.4"/>
<rect x="-541.9" y="387.2" class="st3" width="41.8" height="1.4"/>
<rect x="-541.9" y="391.1" class="st3" width="41.8" height="1.4"/>
<rect x="-541.9" y="394.9" class="st3" width="41.8" height="1.4"/>
<rect x="-497.1" y="356.4" class="st3" width="17.7" height="40"/>
<g>
	<rect x="-495.4" y="359.1" class="st1" width="14.2" height="2.6"/>
	<rect x="-495.4" y="364.4" class="st1" width="14.2" height="2.6"/>
	<rect x="-495.4" y="369.7" class="st1" width="14.2" height="2.6"/>
	<rect x="-495.4" y="375.1" class="st1" width="14.2" height="2.6"/>
	<rect x="-495.4" y="380.4" class="st1" width="14.2" height="2.6"/>
	<rect x="-495.4" y="385.8" class="st1" width="14.2" height="2.6"/>
	<rect x="-495.4" y="391.1" class="st1" width="14.2" height="2.6"/>
</g>
<rect x="-526" y="340" class="st2" width="30.1" height="5"/>
</svg>
