<?xml version="1.0" encoding="utf-8"?>
<!-- Generator: Adobe Illustrator 19.1.0, SVG Export Plug-In . SVG Version: 6.00 Build 0)  -->
<svg version="1.1" id="Layer_1" xmlns="http://www.w3.org/2000/svg" xmlns:xlink="http://www.w3.org/1999/xlink" x="0px" y="0px"
	 viewBox="-442.4 250.5 59.9 60" style="enable-background:new -442.4 250.5 59.9 60;" xml:space="preserve">
<style type="text/css">
	.st0{fill:#FFFFFF;}
</style>
<path class="st0" d="M-425,281.1c-0.1,0,0.6,1.4,0.6,1.4c1.4,2.5,4.1,4.1,8.7,4.5c-0.7,0.5-1.4,1.4-1.5,2.5
	c-0.8,0.5-2.5,0.7-3.8,0.3c-1.8-0.6-2.5-4.1-5.2-3.6c-0.6,0.1-0.5,0.5,0,0.8c0.8,0.5,1.6,1.2,2.2,2.6c0.5,1.1,1.4,3,4.5,3
	c1.2,0,2.1-0.1,2.1-0.1s0,2.7,0,3.8c0,1.2-1.7,1.6-1.7,2.2c0,0.2,0.6,0.3,1,0.3c0.9,0,2.7-0.7,2.7-2c0-1,0-4.4,0-5
	c0-1.3,0.7-1.7,0.7-1.7s0.1,6.9-0.2,7.9c-0.3,1.1-0.8,0.9-0.8,1.4c0,0.7,2.2,0.2,2.9-1.4c0.6-1.2,0.3-8,0.3-8h0.6c0,0,0,3.1,0,4.5
	c0,1.5-0.1,3.3,0.8,4.2c0.6,0.6,2.5,1.6,2.5,0.7c0-0.5-1-1-1-2.4v-6.7c0.8,0,0.7,2.2,0.7,2.2l0.1,4.1c0,0-0.2,1.5,1.6,2.1
	c0.6,0.2,2,0.3,2.1-0.1s-1.7-0.9-1.7-2.1c0-0.7,0-1.1,0-4.2s-0.4-4.2-1.9-5.1c4.5-0.5,7.3-1.6,8.7-4.5c0.1,0,0.6-1.4,0.5-1.4
	c0.3-1.1,0.5-2.4,0.5-4c0-4.2-2.1-5.7-2.5-6.4c0.6-3.2-0.1-4.6-0.4-5.1c-1.2-0.4-4,1-5.6,2.1c-2.6-0.7-8-0.7-10,0.2
	c-3.8-2.6-5.7-2.2-5.7-2.2s-1.3,2.3-0.3,5.6c-1.2,1.5-2.2,2.6-2.2,5.5C-425.6,278.3-425.4,279.8-425,281.1z M-412.5,310.5
	c-16.6,0-30-13.4-30-30s13.4-30,30-30s30,13.4,30,30S-395.9,310.5-412.5,310.5z"/>
</svg>
