<?xml version="1.0" encoding="utf-8"?>
<!-- Generator: Adobe Illustrator 19.2.0, SVG Export Plug-In . SVG Version: 6.00 Build 0)  -->
<svg version="1.1" id="Layer_1" xmlns="http://www.w3.org/2000/svg" xmlns:xlink="http://www.w3.org/1999/xlink" x="0px" y="0px"
	 viewBox="0 0 59.9 60" style="enable-background:new 0 0 59.9 60;" xml:space="preserve">
<style type="text/css">
	.st0{fill:#FF002D;}
</style>
<path class="st0" d="M17.5,30.6c-0.1,0,0.6,1.4,0.6,1.4c1.4,2.5,4.1,4.1,8.7,4.5c-0.7,0.5-1.4,1.4-1.5,2.5c-0.8,0.5-2.5,0.7-3.8,0.3
	c-1.8-0.6-2.5-4.1-5.2-3.6c-0.6,0.1-0.5,0.5,0,0.8c0.8,0.5,1.6,1.2,2.2,2.6c0.5,1.1,1.4,3,4.5,3c1.2,0,2.1-0.1,2.1-0.1s0,2.7,0,3.8
	c0,1.2-1.7,1.6-1.7,2.2c0,0.2,0.6,0.3,1,0.3c0.9,0,2.7-0.7,2.7-2c0-1,0-4.4,0-5c0-1.3,0.7-1.7,0.7-1.7s0.1,6.9-0.2,7.9
	c-0.3,1.1-0.8,0.9-0.8,1.4c0,0.7,2.2,0.2,2.9-1.4c0.6-1.2,0.3-8,0.3-8h0.6c0,0,0,3.1,0,4.5c0,1.5-0.1,3.3,0.8,4.2
	c0.6,0.6,2.5,1.6,2.5,0.7c0-0.5-1-1-1-2.4v-6.7c0.8,0,0.7,2.2,0.7,2.2l0.1,4.1c0,0-0.2,1.5,1.6,2.1c0.6,0.2,2,0.3,2.1-0.1
	s-1.7-0.9-1.7-2.1c0-0.7,0-1.1,0-4.2s-0.4-4.2-1.9-5.1c4.5-0.5,7.3-1.6,8.7-4.5c0.1,0,0.6-1.4,0.5-1.4c0.3-1.1,0.5-2.4,0.5-4
	c0-4.2-2.1-5.7-2.5-6.4c0.6-3.2-0.1-4.6-0.4-5.1c-1.2-0.4-4,1-5.6,2.1c-2.6-0.7-8-0.7-10,0.2c-3.8-2.6-5.7-2.2-5.7-2.2
	S18,17.7,19,21c-1.2,1.5-2.2,2.6-2.2,5.5C16.8,27.8,17.1,29.3,17.5,30.6z M30,60C13.3,60,0,46.6,0,30S13.3,0,30,0s30,13.4,30,30
	S46.6,60,30,60z"/>
</svg>
