<?xml version="1.0" encoding="utf-8"?>
<!-- Generator: Adobe Illustrator 19.2.0, SVG Export Plug-In . SVG Version: 6.00 Build 0)  -->
<svg version="1.1" id="Layer_1" xmlns="http://www.w3.org/2000/svg" xmlns:xlink="http://www.w3.org/1999/xlink" x="0px" y="0px"
	 viewBox="0 0 32 32" style="enable-background:new 0 0 32 32;" xml:space="preserve">
<style type="text/css">
	.st0{fill:#FF002D;}
</style>
<g>
	<path class="st0" d="M12.8,16c0-1.7,1.4-3.1,3.2-3.1c1.8,0,3.2,1.4,3.2,3.1s-1.5,3.1-3.2,3.1C14.2,19.1,12.8,17.7,12.8,16z"/>
	<path class="st0" d="M22.1,10.5v2c0,0.3-0.2,0.5-0.5,0.5h-2c-0.3,0-0.5-0.2-0.5-0.5v-2c0-0.3,0.2-0.5,0.5-0.5h2
		C21.8,10,22.1,10.2,22.1,10.5z"/>
	<path class="st0" d="M20.8,14.8l1.2-0.3v7.1c0,0.3-0.2,0.5-0.5,0.5H10.4c-0.4,0-0.5-0.2-0.5-0.5v-7.1l1.3,0.3
		c-0.1,0.4-0.2,0.9-0.2,1.4c0,2.7,2.2,4.9,5,4.9s5-2.2,5-4.9C21,15.7,21,15.2,20.8,14.8z"/>
	<path class="st0" d="M16,0C7.2,0,0,7.2,0,16s7.2,16,16,16s16-7.2,16-16S24.8,0,16,0z M24.1,22.1c0,1.1-0.9,2-2,2H10
		c-1.1,0-2-0.9-2-2V10c0-1.1,0.9-2,2-2h12.1c1.1,0,2,0.9,2,2V22.1z"/>
</g>
</svg>
