<?xml version="1.0" encoding="utf-8"?>
<!-- Generator: Adobe Illustrator 19.1.0, SVG Export Plug-In . SVG Version: 6.00 Build 0)  -->
<svg version="1.1" id="Layer_1" xmlns="http://www.w3.org/2000/svg" xmlns:xlink="http://www.w3.org/1999/xlink" x="0px" y="0px"
	 viewBox="-442.5 250.5 60 60" style="enable-background:new -442.5 250.5 60 60;" xml:space="preserve">
<style type="text/css">
	.st0{fill:#FFFFFF;}
</style>
<path class="st0" d="M-395.7,294.6v-11.7c0-6.3-3.3-9.2-7.8-9.2c-3.6,0-5.2,2-6.1,3.4v-2.9h-6.8c0.1,1.9,0,20.4,0,20.4h6.8v-11.4
	c0-0.6,0-1.2,0.2-1.7c0.5-1.2,1.6-2.5,3.5-2.5c2.5,0,3.4,1.9,3.4,4.6v10.9L-395.7,294.6L-395.7,294.6z M-423.5,271.4
	c2.4,0,3.8-1.6,3.8-3.5c0-2-1.5-3.5-3.8-3.5s-3.8,1.5-3.8,3.5S-425.9,271.4-423.5,271.4L-423.5,271.4z M-412.5,310.5
	c-16.6,0-30-13.4-30-30s13.4-30,30-30s30,13.4,30,30S-395.9,310.5-412.5,310.5z M-420.1,294.6v-20.4h-6.8v20.4H-420.1z"/>
</svg>
