<?xml version="1.0" encoding="utf-8"?>
<!-- Generator: Adobe Illustrator 19.1.0, SVG Export Plug-In . SVG Version: 6.00 Build 0)  -->
<svg version="1.1" id="Layer_1" xmlns="http://www.w3.org/2000/svg" xmlns:xlink="http://www.w3.org/1999/xlink" x="0px" y="0px"
	 viewBox="-575 297 128 128" style="enable-background:new -575 297 128 128;" xml:space="preserve">
<style type="text/css">
	.st0{fill:#FF002D;}
	.st1{fill:#374A5E;}
	.st2{fill:#3C94D1;}
	.st3{fill:#FFFFFF;}
	.st4{fill:#E57D25;}
	.st5{fill:#4EB36C;}
	.st6{fill:#945BA5;}
	.st7{fill:#DD493B;}
	.st8{fill:#3E8C52;}
	.st9{fill:#A0332D;}
	.st10{fill:#633F70;}
	.st11{fill:#AF5C1E;}
</style>
<circle class="st0" cx="-511" cy="361" r="63"/>
<g>
	<g>
		<path class="st1" d="M-508.5,397.2c0,0.7-0.6,1.3-1.3,1.3h-2.6c-0.7,0-1.3-0.6-1.3-1.3v-77.5c0-0.7,0.6-1.3,1.3-1.3h2.6
			c0.7,0,1.3,0.6,1.3,1.3V397.2z"/>
	</g>
	<g>
		<path class="st1" d="M-486.4,400.4c0.3,0.6,0.1,1.4-0.5,1.7l-2.2,1.3c-0.6,0.3-1.4,0.1-1.7-0.5l-38.7-67.1
			c-0.3-0.6-0.1-1.4,0.5-1.7l2.2-1.3c0.6-0.3,1.4-0.1,1.7,0.5L-486.4,400.4z"/>
	</g>
	<g>
		<path class="st1" d="M-535.6,400.4c-0.3,0.6-0.1,1.4,0.5,1.7l2.2,1.3c0.6,0.3,1.4,0.1,1.7-0.5l38.7-67.1c0.3-0.6,0.1-1.4-0.5-1.7
			l-2.2-1.3c-0.6-0.3-1.4-0.1-1.7,0.5L-535.6,400.4z"/>
	</g>
	<g>
		<path class="st2" d="M-474.2,330.4c0,1.2-1,2.2-2.2,2.2h-69c-1.2,0-2.2-1-2.2-2.2V328c0-1.2,1-2.2,2.2-2.2h69c1.2,0,2.2,1,2.2,2.2
			V330.4z"/>
	</g>
	<g>
		<g>
			<path class="st3" d="M-478.7,379.8c0,1.2-1,2.2-2.2,2.2H-541c-1.2,0-2.2-1-2.2-2.2v-47.2h64.6V379.8z"/>
			<path class="st2" d="M-481,383.1H-541c-1.8,0-3.2-1.5-3.2-3.2v-48.2h66.6v48.2C-477.7,381.6-479.2,383.1-481,383.1z
				 M-542.3,333.6v46.2c0,0.7,0.6,1.2,1.2,1.2h60.1c0.7,0,1.2-0.6,1.2-1.2v-46.2H-542.3z"/>
		</g>
		<g>
			<g>
				<path class="st4" d="M-523.6,373.3h-3.8c-0.7,0-1.3-0.6-1.3-1.3V351c0-0.7,0.6-1.3,1.3-1.3h3.8c0.7,0,1.3,0.6,1.3,1.3v21.1
					C-522.3,372.8-522.9,373.3-523.6,373.3z"/>
			</g>
			<g>
				<path class="st5" d="M-494.7,373.3h-3.8c-0.7,0-1.3-0.6-1.3-1.3v-29.4c0-0.7,0.6-1.3,1.3-1.3h3.8c0.7,0,1.3,0.6,1.3,1.3v29.4
					C-493.4,372.8-494,373.3-494.7,373.3z"/>
			</g>
			<g>
				<path class="st6" d="M-513.9,373.3h-3.8c-0.7,0-1.3-0.6-1.3-1.3v-22.9c0-0.7,0.6-1.3,1.3-1.3h3.8c0.7,0,1.3,0.6,1.3,1.3v22.9
					C-512.7,372.8-513.2,373.3-513.9,373.3z"/>
			</g>
			<g>
				<path class="st7" d="M-504.3,373.3h-3.8c-0.7,0-1.3-0.6-1.3-1.3v-14.3c0-0.7,0.6-1.3,1.3-1.3h3.8c0.7,0,1.3,0.6,1.3,1.3v14.3
					C-503,372.8-503.6,373.3-504.3,373.3z"/>
			</g>
		</g>
		<g>
			<ellipse class="st8" cx="-496.6" cy="342.3" rx="3.1" ry="1.5"/>
		</g>
		<g>
			<ellipse class="st9" cx="-506.2" cy="357.4" rx="3.1" ry="1.5"/>
		</g>
		<g>
			<ellipse class="st10" cx="-515.8" cy="348.9" rx="3.1" ry="1.5"/>
		</g>
		<g>
			<ellipse class="st11" cx="-525.4" cy="350.7" rx="3.1" ry="1.5"/>
		</g>
		<g>
			<ellipse class="st4" cx="-525.4" cy="372.2" rx="3.1" ry="1.5"/>
		</g>
		<g>
			<ellipse class="st6" cx="-515.8" cy="372.2" rx="3.1" ry="1.5"/>
		</g>
		<g>
			<ellipse class="st7" cx="-506.2" cy="372.2" rx="3.1" ry="1.5"/>
		</g>
		<g>
			<ellipse class="st5" cx="-496.6" cy="372.2" rx="3.1" ry="1.5"/>
		</g>
	</g>
</g>
</svg>
