<?xml version="1.0" encoding="utf-8"?>
<!-- Generator: Adobe Illustrator 19.1.0, SVG Export Plug-In . SVG Version: 6.00 Build 0)  -->
<svg version="1.1" id="Layer_1" xmlns="http://www.w3.org/2000/svg" xmlns:xlink="http://www.w3.org/1999/xlink" x="0px" y="0px"
	 viewBox="0 0 646.6 128.8" style="enable-background:new 0 0 646.6 128.8;" xml:space="preserve">
<style type="text/css">
	.st0{fill:#FF002D;stroke:#000000;stroke-width:1.3396;stroke-miterlimit:10;}
	.st1{fill:#FF002D;stroke:#000000;stroke-width:1.8838;stroke-miterlimit:10;}
</style>
<g>
	<rect x="0" y="36.5" class="st0" width="321.7" height="55.8"/>
	<g>
		<path d="M2.2,57.1V37.5h2.8l6.3,9.9c1.4,2.3,2.6,4.3,3.5,6.3l0.1,0c-0.2-2.6-0.3-5-0.3-8v-8.2h2.4v19.5h-2.5l-6.2-9.9
			c-1.4-2.2-2.7-4.4-3.6-6.5l-0.1,0c0.1,2.5,0.2,4.8,0.2,8v8.3H2.2z"/>
		<path d="M33.8,49.9c0,5.2-3.6,7.4-7,7.4c-3.8,0-6.7-2.8-6.7-7.2c0-4.7,3.1-7.4,6.9-7.4C31.1,42.7,33.8,45.7,33.8,49.9z M22.7,50.1
			c0,3.1,1.8,5.4,4.3,5.4c2.4,0,4.3-2.3,4.3-5.4c0-2.4-1.2-5.4-4.2-5.4C24,44.6,22.7,47.4,22.7,50.1z"/>
		<path d="M43.2,47.6c0-1.8-0.1-3.2-0.1-4.6h2.3l0.1,2.4h0.1c1-1.7,2.7-2.7,5-2.7c3.4,0,5.9,2.9,5.9,7.1c0,5-3.1,7.5-6.4,7.5
			c-1.9,0-3.5-0.8-4.3-2.2h-0.1v7.6h-2.5V47.6z M45.7,51.4c0,0.4,0.1,0.7,0.1,1c0.5,1.8,2,3,3.8,3c2.7,0,4.3-2.2,4.3-5.4
			c0-2.8-1.5-5.2-4.2-5.2c-1.7,0-3.4,1.2-3.8,3.2c-0.1,0.3-0.2,0.7-0.2,1V51.4z"/>
		<path d="M67.4,57.1l-0.2-1.8h-0.1c-0.8,1.1-2.3,2.1-4.3,2.1c-2.8,0-4.3-2-4.3-4c0-3.4,3-5.2,8.4-5.2v-0.3c0-1.2-0.3-3.2-3.2-3.2
			c-1.3,0-2.7,0.4-3.6,1L59.6,44c1.2-0.8,2.8-1.2,4.6-1.2c4.3,0,5.3,2.9,5.3,5.7v5.2c0,1.2,0.1,2.4,0.2,3.4H67.4z M67,49.9
			c-2.8-0.1-5.9,0.4-5.9,3.2c0,1.6,1.1,2.4,2.4,2.4c1.8,0,3-1.2,3.4-2.3c0.1-0.3,0.1-0.6,0.1-0.8V49.9z"/>
		<path d="M85.7,36.5v16.9c0,1.2,0,2.7,0.1,3.6h-2.3l-0.1-2.4h-0.1c-0.8,1.6-2.5,2.8-4.8,2.8c-3.4,0-6-2.9-6-7.1
			c0-4.7,2.9-7.5,6.3-7.5c2.1,0,3.6,1,4.2,2.1h0.1v-8.4H85.7z M83.2,48.7c0-0.3,0-0.8-0.1-1.1c-0.4-1.6-1.8-3-3.7-3
			c-2.6,0-4.2,2.3-4.2,5.4c0,2.8,1.4,5.2,4.1,5.2c1.7,0,3.3-1.1,3.7-3c0.1-0.3,0.1-0.7,0.1-1.1V48.7z"/>
		<path d="M102.1,36.5v16.9c0,1.2,0,2.7,0.1,3.6h-2.3l-0.1-2.4h-0.1c-0.8,1.6-2.5,2.8-4.8,2.8c-3.4,0-6-2.9-6-7.1
			c0-4.7,2.9-7.5,6.3-7.5c2.1,0,3.6,1,4.2,2.1h0.1v-8.4H102.1z M99.5,48.7c0-0.3,0-0.8-0.1-1.1c-0.4-1.6-1.8-3-3.7-3
			c-2.6,0-4.2,2.3-4.2,5.4c0,2.8,1.4,5.2,4.1,5.2c1.7,0,3.3-1.1,3.7-3c0.1-0.3,0.1-0.7,0.1-1.1V48.7z"/>
		<path d="M109.1,39.1c0,0.9-0.6,1.6-1.6,1.6c-0.9,0-1.5-0.7-1.5-1.6c0-0.9,0.7-1.6,1.6-1.6C108.5,37.5,109.1,38.2,109.1,39.1z
			 M106.3,57.1V43h2.5v14H106.3z"/>
		<path d="M113.1,46.8c0-1.4,0-2.6-0.1-3.8h2.3l0.1,2.3h0.1c0.7-1.3,2.3-2.6,4.6-2.6c1.9,0,4.9,1.2,4.9,6v8.4h-2.5V49
			c0-2.3-0.8-4.1-3.2-4.1c-1.7,0-3,1.2-3.4,2.6c-0.1,0.3-0.2,0.8-0.2,1.2v8.4h-2.5V46.8z"/>
		<path d="M141.2,43c-0.1,1-0.1,2.1-0.1,3.8V55c0,3.2-0.6,5.2-2,6.4c-1.4,1.3-3.3,1.7-5.1,1.7c-1.7,0-3.5-0.4-4.7-1.2L130,60
			c0.9,0.6,2.4,1.1,4.1,1.1c2.6,0,4.5-1.4,4.5-4.9v-1.6h-0.1c-0.8,1.3-2.3,2.3-4.5,2.3c-3.5,0-6-3-6-6.8c0-4.7,3.1-7.4,6.3-7.4
			c2.4,0,3.8,1.3,4.4,2.4h0.1L139,43H141.2z M138.6,48.6c0-0.4,0-0.8-0.1-1.2c-0.5-1.5-1.7-2.7-3.6-2.7c-2.4,0-4.2,2.1-4.2,5.3
			c0,2.8,1.4,5,4.1,5c1.6,0,3-1,3.5-2.6c0.1-0.4,0.2-0.9,0.2-1.4V48.6z"/>
		<path d="M159.2,57.1l-0.2-1.8h-0.1c-0.8,1.1-2.3,2.1-4.3,2.1c-2.8,0-4.3-2-4.3-4c0-3.4,3-5.2,8.4-5.2v-0.3c0-1.2-0.3-3.2-3.2-3.2
			c-1.3,0-2.7,0.4-3.6,1l-0.6-1.7c1.2-0.8,2.8-1.2,4.6-1.2c4.3,0,5.3,2.9,5.3,5.7v5.2c0,1.2,0.1,2.4,0.2,3.4H159.2z M158.8,49.9
			c-2.8-0.1-5.9,0.4-5.9,3.2c0,1.6,1.1,2.4,2.4,2.4c1.8,0,3-1.2,3.4-2.3c0.1-0.3,0.1-0.6,0.1-0.8V49.9z"/>
		<path d="M165.4,47.6c0-1.8-0.1-3.2-0.1-4.6h2.3l0.1,2.4h0.1c1-1.7,2.7-2.7,5-2.7c3.4,0,5.9,2.9,5.9,7.1c0,5-3.1,7.5-6.4,7.5
			c-1.9,0-3.5-0.8-4.3-2.2h-0.1v7.6h-2.5V47.6z M167.9,51.4c0,0.4,0.1,0.7,0.1,1c0.5,1.8,2,3,3.8,3c2.7,0,4.3-2.2,4.3-5.4
			c0-2.8-1.5-5.2-4.2-5.2c-1.7,0-3.4,1.2-3.8,3.2c-0.1,0.3-0.2,0.7-0.2,1V51.4z"/>
		<path d="M181.9,47.6c0-1.8-0.1-3.2-0.1-4.6h2.3l0.1,2.4h0.1c1-1.7,2.7-2.7,5-2.7c3.4,0,5.9,2.9,5.9,7.1c0,5-3.1,7.5-6.4,7.5
			c-1.9,0-3.5-0.8-4.3-2.2h-0.1v7.6h-2.5V47.6z M184.4,51.4c0,0.4,0.1,0.7,0.1,1c0.5,1.8,2,3,3.8,3c2.7,0,4.3-2.2,4.3-5.4
			c0-2.8-1.5-5.2-4.2-5.2c-1.7,0-3.4,1.2-3.8,3.2c-0.1,0.3-0.2,0.7-0.2,1V51.4z"/>
		<path d="M198.3,36.5h2.5v20.6h-2.5V36.5z"/>
		<path d="M208,39.1c0,0.9-0.6,1.6-1.6,1.6c-0.9,0-1.5-0.7-1.5-1.6c0-0.9,0.7-1.6,1.6-1.6C207.4,37.5,208,38.2,208,39.1z
			 M205.2,57.1V43h2.5v14H205.2z"/>
		<path d="M213.4,50.5c0.1,3.4,2.3,4.9,4.8,4.9c1.8,0,2.9-0.3,3.9-0.7l0.4,1.8c-0.9,0.4-2.4,0.9-4.7,0.9c-4.3,0-6.9-2.8-6.9-7.1
			c0-4.2,2.5-7.6,6.6-7.6c4.6,0,5.8,4,5.8,6.6c0,0.5-0.1,0.9-0.1,1.2H213.4z M220.8,48.7c0-1.6-0.7-4.1-3.5-4.1
			c-2.6,0-3.7,2.4-3.9,4.1H220.8z"/>
		<path d="M238.6,36.5v16.9c0,1.2,0,2.7,0.1,3.6h-2.3l-0.1-2.4h-0.1c-0.8,1.6-2.5,2.8-4.8,2.8c-3.4,0-6-2.9-6-7.1
			c0-4.7,2.9-7.5,6.3-7.5c2.1,0,3.6,1,4.2,2.1h0.1v-8.4H238.6z M236,48.7c0-0.3,0-0.8-0.1-1.1c-0.4-1.6-1.8-3-3.7-3
			c-2.6,0-4.2,2.3-4.2,5.4c0,2.8,1.4,5.2,4.1,5.2c1.7,0,3.3-1.1,3.7-3c0.1-0.3,0.1-0.7,0.1-1.1V48.7z"/>
		<path d="M252,39v4h3.6V45H252v7.6c0,1.7,0.5,2.7,1.9,2.7c0.7,0,1.2-0.1,1.5-0.2l0.1,1.9c-0.5,0.2-1.3,0.3-2.3,0.3
			c-1.2,0-2.1-0.4-2.7-1.1c-0.7-0.8-1-2-1-3.6V45h-2.2V43h2.2v-3.4L252,39z"/>
		<path d="M271,49.9c0,5.2-3.6,7.4-7,7.4c-3.8,0-6.7-2.8-6.7-7.2c0-4.7,3.1-7.4,6.9-7.4C268.3,42.7,271,45.7,271,49.9z M259.9,50.1
			c0,3.1,1.8,5.4,4.3,5.4c2.4,0,4.3-2.3,4.3-5.4c0-2.4-1.2-5.4-4.2-5.4C261.2,44.6,259.9,47.4,259.9,50.1z"/>
		<path d="M283.4,39v4h3.6V45h-3.6v7.6c0,1.7,0.5,2.7,1.9,2.7c0.7,0,1.2-0.1,1.5-0.2l0.1,1.9c-0.5,0.2-1.3,0.3-2.3,0.3
			c-1.2,0-2.1-0.4-2.7-1.1c-0.7-0.8-1-2-1-3.6V45h-2.2V43h2.2v-3.4L283.4,39z"/>
		<path d="M289.9,36.5h2.5v8.7h0.1c0.4-0.7,1-1.4,1.8-1.8c0.8-0.4,1.6-0.7,2.6-0.7c1.9,0,4.9,1.2,4.9,6v8.3h-2.5v-8
			c0-2.3-0.8-4.2-3.2-4.2c-1.6,0-3,1.2-3.4,2.5c-0.1,0.3-0.2,0.7-0.2,1.2v8.5h-2.5V36.5z"/>
		<path d="M307.4,50.5c0.1,3.4,2.3,4.9,4.8,4.9c1.8,0,2.9-0.3,3.9-0.7l0.4,1.8c-0.9,0.4-2.4,0.9-4.7,0.9c-4.3,0-6.9-2.8-6.9-7.1
			c0-4.2,2.5-7.6,6.6-7.6c4.6,0,5.8,4,5.8,6.6c0,0.5-0.1,0.9-0.1,1.2H307.4z M314.9,48.7c0-1.6-0.7-4.1-3.5-4.1
			c-2.6,0-3.7,2.4-3.9,4.1H314.9z"/>
		<path d="M12.1,91.3c-0.7,0.3-2.1,0.8-4,0.8c-4.2,0-7-2.9-7-7.1c0-4.3,3-7.4,7.5-7.4c1.5,0,2.8,0.4,3.5,0.7l-0.6,2
			c-0.6-0.3-1.6-0.7-3-0.7c-3.2,0-4.9,2.4-4.9,5.3c0,3.2,2.1,5.2,4.9,5.2c1.4,0,2.4-0.4,3.1-0.7L12.1,91.3z"/>
		<path d="M27.6,84.7c0,5.2-3.6,7.4-7,7.4c-3.8,0-6.7-2.8-6.7-7.2c0-4.7,3.1-7.4,6.9-7.4C24.9,77.5,27.6,80.4,27.6,84.7z M16.5,84.8
			c0,3.1,1.8,5.4,4.3,5.4c2.4,0,4.3-2.3,4.3-5.4c0-2.4-1.2-5.4-4.2-5.4C17.8,79.4,16.5,82.2,16.5,84.8z"/>
		<path d="M30.8,81.6c0-1.4,0-2.6-0.1-3.8h2.3l0.1,2.3h0.1c0.7-1.3,2.3-2.6,4.6-2.6c1.9,0,4.9,1.2,4.9,6v8.4h-2.5v-8.1
			c0-2.3-0.8-4.1-3.2-4.1c-1.7,0-3,1.2-3.4,2.6c-0.1,0.3-0.2,0.8-0.2,1.2v8.4h-2.5V81.6z"/>
		<path d="M49.8,73.8v4h3.6v1.9h-3.6v7.6c0,1.7,0.5,2.7,1.9,2.7c0.7,0,1.2-0.1,1.5-0.2l0.1,1.9c-0.5,0.2-1.3,0.3-2.3,0.3
			c-1.2,0-2.1-0.4-2.7-1.1c-0.7-0.8-1-2-1-3.6v-7.6h-2.2v-1.9h2.2v-3.4L49.8,73.8z"/>
		<path d="M57.6,85.3c0.1,3.4,2.3,4.9,4.8,4.9c1.8,0,2.9-0.3,3.9-0.7l0.4,1.8c-0.9,0.4-2.4,0.9-4.7,0.9c-4.3,0-6.9-2.8-6.9-7.1
			c0-4.2,2.5-7.6,6.6-7.6c4.6,0,5.8,4,5.8,6.6c0,0.5-0.1,0.9-0.1,1.2H57.6z M65.1,83.4c0-1.6-0.7-4.1-3.5-4.1
			c-2.6,0-3.7,2.4-3.9,4.1H65.1z"/>
		<path d="M70.7,81.6c0-1.4,0-2.6-0.1-3.8h2.3l0.1,2.3H73c0.7-1.3,2.3-2.6,4.6-2.6c1.9,0,4.9,1.2,4.9,6v8.4H80v-8.1
			c0-2.3-0.8-4.1-3.2-4.1c-1.7,0-3,1.2-3.4,2.6c-0.1,0.3-0.2,0.8-0.2,1.2v8.4h-2.5V81.6z"/>
		<path d="M89.7,73.8v4h3.6v1.9h-3.6v7.6c0,1.7,0.5,2.7,1.9,2.7c0.7,0,1.2-0.1,1.5-0.2l0.1,1.9c-0.5,0.2-1.3,0.3-2.3,0.3
			c-1.2,0-2.1-0.4-2.7-1.1c-0.7-0.8-1-2-1-3.6v-7.6H85v-1.9h2.2v-3.4L89.7,73.8z"/>
		<path d="M95.9,89.2c0.8,0.5,2.1,1,3.4,1c1.9,0,2.7-0.9,2.7-2.1c0-1.2-0.7-1.9-2.6-2.6c-2.5-0.9-3.7-2.3-3.7-4
			c0-2.3,1.8-4.1,4.8-4.1c1.4,0,2.7,0.4,3.4,0.9l-0.6,1.9c-0.5-0.3-1.6-0.8-2.9-0.8c-1.5,0-2.3,0.9-2.3,1.9c0,1.2,0.8,1.7,2.7,2.4
			c2.4,0.9,3.7,2.1,3.7,4.2c0,2.5-1.9,4.2-5.2,4.2c-1.5,0-3-0.4-3.9-1L95.9,89.2z"/>
		<path d="M126.5,84.7c0,5.2-3.6,7.4-7,7.4c-3.8,0-6.7-2.8-6.7-7.2c0-4.7,3.1-7.4,6.9-7.4C123.8,77.5,126.5,80.4,126.5,84.7z
			 M115.4,84.8c0,3.1,1.8,5.4,4.3,5.4c2.4,0,4.3-2.3,4.3-5.4c0-2.4-1.2-5.4-4.2-5.4C116.7,79.4,115.4,82.2,115.4,84.8z"/>
		<path d="M130,91.8V79.7h-2v-1.9h2v-0.7c0-2,0.4-3.8,1.6-4.9c1-0.9,2.2-1.3,3.4-1.3c0.9,0,1.7,0.2,2.2,0.4l-0.3,2
			c-0.4-0.2-0.9-0.3-1.6-0.3c-2.2,0-2.7,1.9-2.7,4.1v0.8h3.4v1.9h-3.4v12.1H130z"/>
		<path d="M147.4,73.8v4h3.6v1.9h-3.6v7.6c0,1.7,0.5,2.7,1.9,2.7c0.7,0,1.2-0.1,1.5-0.2l0.1,1.9c-0.5,0.2-1.3,0.3-2.3,0.3
			c-1.2,0-2.1-0.4-2.7-1.1c-0.7-0.8-1-2-1-3.6v-7.6h-2.2v-1.9h2.2v-3.4L147.4,73.8z"/>
		<path d="M153.9,71.2h2.5V80h0.1c0.4-0.7,1-1.4,1.8-1.8c0.8-0.4,1.6-0.7,2.6-0.7c1.9,0,4.9,1.2,4.9,6v8.3h-2.5v-8
			c0-2.3-0.8-4.2-3.2-4.2c-1.6,0-3,1.2-3.4,2.5c-0.1,0.3-0.2,0.7-0.2,1.2v8.5h-2.5V71.2z"/>
		<path d="M171.4,85.3c0.1,3.4,2.3,4.9,4.8,4.9c1.8,0,2.9-0.3,3.9-0.7l0.4,1.8c-0.9,0.4-2.4,0.9-4.7,0.9c-4.3,0-6.9-2.8-6.9-7.1
			c0-4.2,2.5-7.6,6.6-7.6c4.6,0,5.8,4,5.8,6.6c0,0.5-0.1,0.9-0.1,1.2H171.4z M178.8,83.4c0-1.6-0.7-4.1-3.5-4.1
			c-2.6,0-3.7,2.4-3.9,4.1H178.8z"/>
		<path d="M190.5,91.8c0.1-1,0.1-2.4,0.1-3.6V71.2h2.5V80h0.1c0.9-1.6,2.5-2.6,4.8-2.6c3.5,0,5.9,2.9,5.9,7.1c0,5-3.2,7.5-6.3,7.5
			c-2,0-3.6-0.8-4.7-2.6h-0.1l-0.1,2.3H190.5z M193.1,86.2c0,0.3,0.1,0.6,0.1,0.9c0.5,1.8,2,3,3.8,3c2.7,0,4.3-2.2,4.3-5.4
			c0-2.8-1.4-5.2-4.2-5.2c-1.7,0-3.4,1.2-3.9,3.1c-0.1,0.3-0.1,0.6-0.1,1V86.2z"/>
		<path d="M219.7,84.7c0,5.2-3.6,7.4-7,7.4c-3.8,0-6.7-2.8-6.7-7.2c0-4.7,3.1-7.4,6.9-7.4C217,77.5,219.7,80.4,219.7,84.7z
			 M208.6,84.8c0,3.1,1.8,5.4,4.3,5.4c2.4,0,4.3-2.3,4.3-5.4c0-2.4-1.2-5.4-4.2-5.4C209.9,79.4,208.6,82.2,208.6,84.8z"/>
		<path d="M223.7,77.8l2,3c0.5,0.8,1,1.5,1.4,2.3h0.1c0.5-0.8,0.9-1.6,1.4-2.3l2-3h2.7l-4.8,6.8l4.9,7.2h-2.9l-2.1-3.2
			c-0.6-0.8-1-1.6-1.5-2.4H227c-0.5,0.8-1,1.6-1.5,2.4l-2,3.2h-2.8l5-7.1l-4.7-6.9H223.7z"/>
		<path d="M235.3,90.3c0-1.1,0.7-1.8,1.7-1.8c1,0,1.7,0.8,1.7,1.8c0,1-0.7,1.8-1.7,1.8C236,92.1,235.3,91.3,235.3,90.3z"/>
	</g>
</g>
<g>
	<rect x="371" class="st1" width="275.6" height="128.8"/>
	<g>
		<path d="M392.9,23.1L392.9,23.1l-3.4,1.8l-0.5-2l4.1-2.2h2.2v19h-2.5V23.1z"/>
		<path d="M413.6,22.9h-7.2l-0.7,4.9c0.4-0.1,0.8-0.1,1.5-0.1c1.5,0,2.9,0.3,4.1,1c1.5,0.8,2.7,2.5,2.7,4.9c0,3.7-2.9,6.5-7.1,6.5
			c-2.1,0-3.8-0.6-4.7-1.2l0.6-2c0.8,0.5,2.3,1,4.1,1c2.4,0,4.5-1.6,4.5-4.1c0-2.4-1.7-4.2-5.5-4.2c-1.1,0-1.9,0.1-2.6,0.2l1.2-9.1
			h9.1V22.9z"/>
		<path d="M424.2,30.2c0-1.8-0.1-3.3-0.1-4.6h2.3l0.1,2.4h0.1c1-1.7,2.7-2.7,5-2.7c3.4,0,6,2.9,6,7.2c0,5.1-3.1,7.6-6.4,7.6
			c-1.9,0-3.5-0.8-4.3-2.2h-0.1v7.7h-2.5V30.2z M426.8,34c0,0.4,0.1,0.7,0.1,1c0.5,1.8,2,3,3.8,3c2.7,0,4.3-2.2,4.3-5.5
			c0-2.8-1.5-5.2-4.2-5.2c-1.8,0-3.4,1.3-3.9,3.2c-0.1,0.3-0.2,0.7-0.2,1V34z"/>
		<path d="M443.7,21.6c0,0.9-0.6,1.6-1.6,1.6c-0.9,0-1.5-0.7-1.5-1.6c0-0.9,0.7-1.6,1.6-1.6C443.1,20,443.7,20.7,443.7,21.6z
			 M440.8,39.7V25.6h2.6v14.1H440.8z"/>
		<path d="M448.9,25.6l2,3c0.5,0.8,1,1.5,1.4,2.3h0.1c0.5-0.8,0.9-1.6,1.4-2.3l2-3h2.8l-4.8,6.8l5,7.3h-2.9l-2.1-3.2
			c-0.6-0.8-1-1.6-1.5-2.4h-0.1c-0.5,0.8-1,1.6-1.5,2.4l-2,3.2h-2.8l5-7.2l-4.8-6.9H448.9z"/>
		<path d="M462.2,33.1c0.1,3.5,2.3,4.9,4.8,4.9c1.8,0,2.9-0.3,3.9-0.7l0.4,1.8c-0.9,0.4-2.5,0.9-4.7,0.9c-4.3,0-6.9-2.9-6.9-7.1
			c0-4.3,2.5-7.6,6.6-7.6c4.6,0,5.8,4.1,5.8,6.6c0,0.5-0.1,0.9-0.1,1.2H462.2z M469.7,31.3c0-1.6-0.7-4.2-3.6-4.2
			c-2.6,0-3.7,2.4-3.9,4.2H469.7z"/>
		<path d="M475.3,19h2.6v20.7h-2.6V19z"/>
		<path d="M481.9,37.1c0.8,0.5,2.1,1,3.4,1c1.9,0,2.7-0.9,2.7-2.1c0-1.2-0.7-1.9-2.6-2.6c-2.5-0.9-3.7-2.3-3.7-4
			c0-2.3,1.8-4.1,4.9-4.1c1.4,0,2.7,0.4,3.5,0.9l-0.6,1.9c-0.6-0.3-1.6-0.8-2.9-0.8c-1.5,0-2.4,0.9-2.4,1.9c0,1.2,0.8,1.7,2.7,2.4
			c2.4,0.9,3.7,2.2,3.7,4.3c0,2.5-1.9,4.2-5.3,4.2c-1.5,0-3-0.4-4-1L481.9,37.1z"/>
		<path d="M512.7,32.5c0,5.2-3.6,7.5-7,7.5c-3.8,0-6.8-2.8-6.8-7.3c0-4.7,3.1-7.5,7-7.5C510,25.3,512.7,28.2,512.7,32.5z
			 M501.5,32.7c0,3.1,1.8,5.4,4.3,5.4c2.5,0,4.3-2.3,4.3-5.5c0-2.4-1.2-5.4-4.2-5.4C502.8,27.2,501.5,30,501.5,32.7z"/>
		<path d="M516.2,39.7V27.6h-2v-2h2v-0.7c0-2,0.4-3.8,1.6-4.9c1-0.9,2.2-1.3,3.4-1.3c0.9,0,1.7,0.2,2.2,0.4l-0.3,2
			c-0.4-0.2-0.9-0.3-1.6-0.3c-2.2,0-2.7,1.9-2.7,4.1v0.8h3.4v2h-3.4v12.2H516.2z"/>
		<path d="M530.6,30.2c0-1.8-0.1-3.3-0.1-4.6h2.3L533,28h0.1c1-1.7,2.7-2.7,5-2.7c3.4,0,6,2.9,6,7.2c0,5.1-3.1,7.6-6.4,7.6
			c-1.9,0-3.5-0.8-4.3-2.2h-0.1v7.7h-2.5V30.2z M533.2,34c0,0.4,0.1,0.7,0.1,1c0.5,1.8,2,3,3.8,3c2.7,0,4.3-2.2,4.3-5.5
			c0-2.8-1.5-5.2-4.2-5.2c-1.8,0-3.4,1.3-3.9,3.2c-0.1,0.3-0.2,0.7-0.2,1V34z"/>
		<path d="M555.1,39.7l-0.2-1.8h-0.1c-0.8,1.1-2.3,2.1-4.3,2.1c-2.9,0-4.3-2-4.3-4.1c0-3.4,3-5.3,8.5-5.2v-0.3
			c0-1.2-0.3-3.3-3.2-3.3c-1.3,0-2.7,0.4-3.7,1l-0.6-1.7c1.2-0.8,2.9-1.3,4.6-1.3c4.3,0,5.4,2.9,5.4,5.8v5.3c0,1.2,0.1,2.4,0.2,3.4
			H555.1z M554.7,32.5c-2.8-0.1-6,0.4-6,3.2c0,1.7,1.1,2.5,2.4,2.5c1.8,0,3-1.2,3.4-2.4c0.1-0.3,0.1-0.6,0.1-0.8V32.5z"/>
		<path d="M573.5,19v17.1c0,1.3,0,2.7,0.1,3.6h-2.3l-0.1-2.4h-0.1c-0.8,1.6-2.5,2.8-4.8,2.8c-3.4,0-6-2.9-6-7.2
			c0-4.7,2.9-7.6,6.3-7.6c2.2,0,3.6,1,4.3,2.2h0.1V19H573.5z M570.9,31.3c0-0.3,0-0.8-0.1-1.1c-0.4-1.6-1.8-3-3.7-3
			c-2.7,0-4.2,2.3-4.2,5.5c0,2.9,1.4,5.2,4.2,5.2c1.7,0,3.3-1.1,3.8-3.1c0.1-0.3,0.1-0.7,0.1-1.1V31.3z"/>
		<path d="M589.9,19v17.1c0,1.3,0,2.7,0.1,3.6h-2.3l-0.1-2.4h-0.1c-0.8,1.6-2.5,2.8-4.8,2.8c-3.4,0-6-2.9-6-7.2
			c0-4.7,2.9-7.6,6.3-7.6c2.2,0,3.6,1,4.3,2.2h0.1V19H589.9z M587.4,31.3c0-0.3,0-0.8-0.1-1.1c-0.4-1.6-1.8-3-3.7-3
			c-2.7,0-4.2,2.3-4.2,5.5c0,2.9,1.4,5.2,4.2,5.2c1.7,0,3.3-1.1,3.8-3.1c0.1-0.3,0.1-0.7,0.1-1.1V31.3z"/>
		<path d="M597,21.6c0,0.9-0.6,1.6-1.6,1.6c-0.9,0-1.5-0.7-1.5-1.6c0-0.9,0.7-1.6,1.6-1.6C596.4,20,597,20.7,597,21.6z M594.2,39.7
			V25.6h2.6v14.1H594.2z"/>
		<path d="M601,29.4c0-1.5,0-2.7-0.1-3.8h2.3l0.1,2.3h0.1c0.7-1.3,2.3-2.7,4.7-2.7c2,0,5,1.2,5,6v8.4h-2.6v-8.1
			c0-2.3-0.8-4.2-3.3-4.2c-1.7,0-3,1.2-3.4,2.6c-0.1,0.3-0.2,0.8-0.2,1.2v8.5H601V29.4z"/>
		<path d="M629.4,25.6c-0.1,1-0.1,2.2-0.1,3.9v8.2c0,3.2-0.6,5.2-2,6.4c-1.4,1.3-3.4,1.7-5.1,1.7c-1.7,0-3.6-0.4-4.7-1.2l0.6-2
			c0.9,0.6,2.4,1.1,4.1,1.1c2.6,0,4.5-1.4,4.5-4.9v-1.6h-0.1c-0.8,1.3-2.3,2.4-4.5,2.4c-3.5,0-6-3-6-6.9c0-4.8,3.1-7.5,6.4-7.5
			c2.4,0,3.8,1.3,4.4,2.4h0.1l0.1-2.1H629.4z M626.7,31.2c0-0.4,0-0.8-0.1-1.2c-0.5-1.5-1.7-2.7-3.6-2.7c-2.4,0-4.2,2.1-4.2,5.3
			c0,2.8,1.4,5.1,4.2,5.1c1.6,0,3-1,3.6-2.6c0.1-0.4,0.2-0.9,0.2-1.4V31.2z"/>
		<path d="M396,74.7l-0.2-1.8h-0.1c-0.8,1.1-2.3,2.1-4.3,2.1c-2.9,0-4.3-2-4.3-4.1c0-3.4,3-5.3,8.5-5.2v-0.3c0-1.2-0.3-3.3-3.2-3.3
			c-1.3,0-2.7,0.4-3.7,1l-0.6-1.7c1.2-0.8,2.9-1.3,4.6-1.3c4.3,0,5.4,2.9,5.4,5.8v5.3c0,1.2,0.1,2.4,0.2,3.4H396z M395.6,67.5
			c-2.8-0.1-6,0.4-6,3.2c0,1.7,1.1,2.5,2.4,2.5c1.8,0,3-1.2,3.4-2.4c0.1-0.3,0.1-0.6,0.1-0.8V67.5z"/>
		<path d="M402.2,65.2c0-1.8-0.1-3.3-0.1-4.6h2.3l0.1,2.4h0.1c1-1.7,2.7-2.7,5-2.7c3.4,0,6,2.9,6,7.2c0,5.1-3.1,7.6-6.4,7.6
			c-1.9,0-3.5-0.8-4.3-2.2h-0.1v7.7h-2.5V65.2z M404.7,69c0,0.4,0.1,0.7,0.1,1c0.5,1.8,2,3,3.8,3c2.7,0,4.3-2.2,4.3-5.5
			c0-2.8-1.5-5.2-4.2-5.2c-1.8,0-3.4,1.3-3.9,3.2c-0.1,0.3-0.2,0.7-0.2,1V69z"/>
		<path d="M418.8,65.2c0-1.8-0.1-3.3-0.1-4.6h2.3l0.1,2.4h0.1c1-1.7,2.7-2.7,5-2.7c3.4,0,6,2.9,6,7.2c0,5.1-3.1,7.6-6.4,7.6
			c-1.9,0-3.5-0.8-4.3-2.2h-0.1v7.7h-2.5V65.2z M421.3,69c0,0.4,0.1,0.7,0.1,1c0.5,1.8,2,3,3.8,3c2.7,0,4.3-2.2,4.3-5.5
			c0-2.8-1.5-5.2-4.2-5.2c-1.8,0-3.4,1.3-3.9,3.2c-0.1,0.3-0.2,0.7-0.2,1V69z"/>
		<path d="M435.4,54h2.6v20.7h-2.6V54z"/>
		<path d="M445.1,56.6c0,0.9-0.6,1.6-1.6,1.6c-0.9,0-1.5-0.7-1.5-1.6c0-0.9,0.7-1.6,1.6-1.6C444.5,55,445.1,55.7,445.1,56.6z
			 M442.3,74.7V60.6h2.6v14.1H442.3z"/>
		<path d="M450.5,68.1c0.1,3.5,2.3,4.9,4.8,4.9c1.8,0,2.9-0.3,3.9-0.7l0.4,1.8c-0.9,0.4-2.5,0.9-4.7,0.9c-4.3,0-6.9-2.9-6.9-7.1
			c0-4.3,2.5-7.6,6.6-7.6c4.6,0,5.8,4.1,5.8,6.6c0,0.5-0.1,0.9-0.1,1.2H450.5z M458,66.3c0-1.6-0.7-4.2-3.6-4.2
			c-2.6,0-3.7,2.4-3.9,4.2H458z"/>
		<path d="M475.9,54v17.1c0,1.3,0,2.7,0.1,3.6h-2.3l-0.1-2.4h-0.1c-0.8,1.6-2.5,2.8-4.8,2.8c-3.4,0-6-2.9-6-7.2
			c0-4.7,2.9-7.6,6.3-7.6c2.2,0,3.6,1,4.3,2.2h0.1V54H475.9z M473.3,66.3c0-0.3,0-0.8-0.1-1.1c-0.4-1.6-1.8-3-3.7-3
			c-2.7,0-4.2,2.3-4.2,5.5c0,2.9,1.4,5.2,4.2,5.2c1.7,0,3.3-1.1,3.8-3.1c0.1-0.3,0.1-0.7,0.1-1.1V66.3z"/>
		<path d="M494.1,74.7l-0.2-1.8h-0.1c-0.8,1.1-2.3,2.1-4.3,2.1c-2.9,0-4.3-2-4.3-4.1c0-3.4,3-5.3,8.5-5.2v-0.3
			c0-1.2-0.3-3.3-3.2-3.3c-1.3,0-2.7,0.4-3.7,1l-0.6-1.7c1.2-0.8,2.9-1.3,4.6-1.3c4.3,0,5.4,2.9,5.4,5.8v5.3c0,1.2,0.1,2.4,0.2,3.4
			H494.1z M493.8,67.5c-2.8-0.1-6,0.4-6,3.2c0,1.7,1.1,2.5,2.4,2.5c1.8,0,3-1.2,3.4-2.4c0.1-0.3,0.1-0.6,0.1-0.8V67.5z"/>
		<path d="M500.4,65c0-1.7,0-3.1-0.1-4.4h2.2l0.1,2.8h0.1c0.6-1.9,2.2-3.1,3.9-3.1c0.3,0,0.5,0,0.7,0.1v2.4
			c-0.3-0.1-0.5-0.1-0.9-0.1c-1.8,0-3.1,1.4-3.4,3.3c-0.1,0.3-0.1,0.8-0.1,1.2v7.5h-2.5V65z"/>
		<path d="M522.4,67.5c0,5.2-3.6,7.5-7,7.5c-3.8,0-6.8-2.8-6.8-7.3c0-4.7,3.1-7.5,7-7.5C519.7,60.3,522.4,63.2,522.4,67.5z
			 M511.2,67.7c0,3.1,1.8,5.4,4.3,5.4c2.5,0,4.3-2.3,4.3-5.5c0-2.4-1.2-5.4-4.2-5.4C512.5,62.2,511.2,65,511.2,67.7z"/>
		<path d="M537.4,70.9c0,1.5,0,2.7,0.1,3.8h-2.3l-0.1-2.3h-0.1c-0.7,1.1-2.2,2.6-4.7,2.6c-2.2,0-4.9-1.2-4.9-6.2v-8.3h2.6v7.8
			c0,2.7,0.8,4.5,3.1,4.5c1.7,0,2.9-1.2,3.4-2.3c0.1-0.4,0.2-0.8,0.2-1.3v-8.7h2.6V70.9z"/>
		<path d="M541.7,64.4c0-1.5,0-2.7-0.1-3.8h2.3l0.1,2.3h0.1c0.7-1.3,2.3-2.7,4.7-2.7c2,0,5,1.2,5,6v8.4h-2.6v-8.1
			c0-2.3-0.8-4.2-3.3-4.2c-1.7,0-3,1.2-3.4,2.6c-0.1,0.3-0.2,0.8-0.2,1.2v8.5h-2.6V64.4z"/>
		<path d="M570.1,54v17.1c0,1.3,0,2.7,0.1,3.6h-2.3l-0.1-2.4h-0.1c-0.8,1.6-2.5,2.8-4.8,2.8c-3.4,0-6-2.9-6-7.2
			c0-4.7,2.9-7.6,6.3-7.6c2.2,0,3.6,1,4.3,2.2h0.1V54H570.1z M567.5,66.3c0-0.3,0-0.8-0.1-1.1c-0.4-1.6-1.8-3-3.7-3
			c-2.7,0-4.2,2.3-4.2,5.5c0,2.9,1.4,5.2,4.2,5.2c1.7,0,3.3-1.1,3.8-3.1c0.1-0.3,0.1-0.7,0.1-1.1V66.3z"/>
		<path d="M583.6,56.5v4.1h3.7v2h-3.7v7.6c0,1.7,0.5,2.7,1.9,2.7c0.7,0,1.2-0.1,1.5-0.2l0.1,1.9c-0.5,0.2-1.3,0.4-2.3,0.4
			c-1.2,0-2.2-0.4-2.8-1.1c-0.7-0.8-1-2-1-3.7v-7.7h-2.2v-2h2.2v-3.4L583.6,56.5z"/>
		<path d="M590.2,54h2.6v8.8h0.1c0.4-0.7,1-1.4,1.8-1.8c0.8-0.4,1.7-0.7,2.6-0.7c1.9,0,4.9,1.2,4.9,6v8.4h-2.6v-8.1
			c0-2.3-0.8-4.2-3.3-4.2c-1.7,0-3,1.2-3.4,2.6c-0.1,0.3-0.2,0.7-0.2,1.2v8.5h-2.6V54z"/>
		<path d="M607.8,68.1c0.1,3.5,2.3,4.9,4.8,4.9c1.8,0,2.9-0.3,3.9-0.7l0.4,1.8c-0.9,0.4-2.5,0.9-4.7,0.9c-4.3,0-6.9-2.9-6.9-7.1
			c0-4.3,2.5-7.6,6.6-7.6c4.6,0,5.8,4.1,5.8,6.6c0,0.5-0.1,0.9-0.1,1.2H607.8z M615.3,66.3c0-1.6-0.7-4.2-3.6-4.2
			c-2.6,0-3.7,2.4-3.9,4.2H615.3z"/>
		<path d="M398.2,109.2c-0.7,0.3-2.2,0.8-4.1,0.8c-4.3,0-7-2.9-7-7.2c0-4.3,3-7.5,7.6-7.5c1.5,0,2.9,0.4,3.6,0.7l-0.6,2
			c-0.6-0.3-1.6-0.7-3-0.7c-3.2,0-5,2.4-5,5.3c0,3.3,2.1,5.3,4.9,5.3c1.5,0,2.4-0.4,3.1-0.7L398.2,109.2z"/>
		<path d="M413.8,102.5c0,5.2-3.6,7.5-7,7.5c-3.8,0-6.8-2.8-6.8-7.3c0-4.7,3.1-7.5,7-7.5C411.1,95.3,413.8,98.2,413.8,102.5z
			 M402.6,102.7c0,3.1,1.8,5.4,4.3,5.4c2.5,0,4.3-2.3,4.3-5.5c0-2.4-1.2-5.4-4.2-5.4C403.9,97.2,402.6,100,402.6,102.7z"/>
		<path d="M417,99.4c0-1.5,0-2.7-0.1-3.8h2.3l0.1,2.3h0.1c0.7-1.3,2.3-2.7,4.7-2.7c2,0,5,1.2,5,6v8.4h-2.6v-8.1
			c0-2.3-0.8-4.2-3.3-4.2c-1.7,0-3,1.2-3.4,2.6c-0.1,0.3-0.2,0.8-0.2,1.2v8.5H417V99.4z"/>
		<path d="M436.2,91.5v4.1h3.7v2h-3.7v7.6c0,1.7,0.5,2.7,1.9,2.7c0.7,0,1.2-0.1,1.5-0.2l0.1,1.9c-0.5,0.2-1.3,0.4-2.3,0.4
			c-1.2,0-2.2-0.4-2.8-1.1c-0.7-0.8-1-2-1-3.7v-7.7h-2.2v-2h2.2v-3.4L436.2,91.5z"/>
		<path d="M444,103.1c0.1,3.5,2.3,4.9,4.8,4.9c1.8,0,2.9-0.3,3.9-0.7l0.4,1.8c-0.9,0.4-2.5,0.9-4.7,0.9c-4.3,0-6.9-2.9-6.9-7.1
			c0-4.3,2.5-7.6,6.6-7.6c4.6,0,5.8,4.1,5.8,6.6c0,0.5-0.1,0.9-0.1,1.2H444z M451.5,101.3c0-1.6-0.7-4.2-3.6-4.2
			c-2.6,0-3.7,2.4-3.9,4.2H451.5z"/>
		<path d="M457.2,99.4c0-1.5,0-2.7-0.1-3.8h2.3l0.1,2.3h0.1c0.7-1.3,2.3-2.7,4.7-2.7c2,0,5,1.2,5,6v8.4h-2.6v-8.1
			c0-2.3-0.8-4.2-3.3-4.2c-1.7,0-3,1.2-3.4,2.6c-0.1,0.3-0.2,0.8-0.2,1.2v8.5h-2.6V99.4z"/>
		<path d="M476.4,91.5v4.1h3.7v2h-3.7v7.6c0,1.7,0.5,2.7,1.9,2.7c0.7,0,1.2-0.1,1.5-0.2l0.1,1.9c-0.5,0.2-1.3,0.4-2.3,0.4
			c-1.2,0-2.2-0.4-2.8-1.1c-0.7-0.8-1-2-1-3.7v-7.7h-2.2v-2h2.2v-3.4L476.4,91.5z"/>
		<path d="M482.6,107.1c0.8,0.5,2.1,1,3.4,1c1.9,0,2.7-0.9,2.7-2.1c0-1.2-0.7-1.9-2.6-2.6c-2.5-0.9-3.7-2.3-3.7-4
			c0-2.3,1.8-4.1,4.9-4.1c1.4,0,2.7,0.4,3.5,0.9L490,98c-0.6-0.3-1.6-0.8-2.9-0.8c-1.5,0-2.4,0.9-2.4,1.9c0,1.2,0.8,1.7,2.7,2.4
			c2.4,0.9,3.7,2.2,3.7,4.3c0,2.5-1.9,4.2-5.3,4.2c-1.5,0-3-0.4-4-1L482.6,107.1z"/>
		<path d="M513.4,102.5c0,5.2-3.6,7.5-7,7.5c-3.8,0-6.8-2.8-6.8-7.3c0-4.7,3.1-7.5,7-7.5C510.7,95.3,513.4,98.2,513.4,102.5z
			 M502.2,102.7c0,3.1,1.8,5.4,4.3,5.4c2.5,0,4.3-2.3,4.3-5.5c0-2.4-1.2-5.4-4.2-5.4C503.5,97.2,502.2,100,502.2,102.7z"/>
		<path d="M516.9,109.7V97.5h-2v-2h2v-0.7c0-2,0.4-3.8,1.6-4.9c1-0.9,2.2-1.3,3.4-1.3c0.9,0,1.7,0.2,2.2,0.4l-0.3,2
			c-0.4-0.2-0.9-0.3-1.6-0.3c-2.2,0-2.7,1.9-2.7,4.1v0.8h3.4v2h-3.4v12.2H516.9z"/>
		<path d="M534.4,91.5v4.1h3.7v2h-3.7v7.6c0,1.7,0.5,2.7,1.9,2.7c0.7,0,1.2-0.1,1.5-0.2l0.1,1.9c-0.5,0.2-1.3,0.4-2.3,0.4
			c-1.2,0-2.2-0.4-2.8-1.1c-0.7-0.8-1-2-1-3.7v-7.7h-2.2v-2h2.2v-3.4L534.4,91.5z"/>
		<path d="M541,89h2.6v8.8h0.1c0.4-0.7,1-1.4,1.8-1.8c0.8-0.4,1.7-0.7,2.6-0.7c1.9,0,4.9,1.2,4.9,6v8.4h-2.6v-8.1
			c0-2.3-0.8-4.2-3.3-4.2c-1.7,0-3,1.2-3.4,2.6c-0.1,0.3-0.2,0.7-0.2,1.2v8.5H541V89z"/>
		<path d="M558.6,103.1c0.1,3.5,2.3,4.9,4.8,4.9c1.8,0,2.9-0.3,3.9-0.7l0.4,1.8c-0.9,0.4-2.5,0.9-4.7,0.9c-4.3,0-6.9-2.9-6.9-7.1
			c0-4.3,2.5-7.6,6.6-7.6c4.6,0,5.8,4.1,5.8,6.6c0,0.5-0.1,0.9-0.1,1.2H558.6z M566.1,101.3c0-1.6-0.7-4.2-3.6-4.2
			c-2.6,0-3.7,2.4-3.9,4.2H566.1z"/>
		<path d="M577.9,109.7c0.1-1,0.1-2.4,0.1-3.6V89h2.5v8.9h0.1c0.9-1.6,2.5-2.6,4.8-2.6c3.5,0,6,2.9,5.9,7.2c0,5-3.2,7.6-6.3,7.6
			c-2,0-3.7-0.8-4.7-2.7h-0.1l-0.1,2.3H577.9z M580.5,104c0,0.3,0.1,0.6,0.1,0.9c0.5,1.8,2,3,3.8,3c2.7,0,4.3-2.2,4.3-5.4
			c0-2.8-1.5-5.2-4.2-5.2c-1.8,0-3.4,1.2-3.9,3.1c-0.1,0.3-0.1,0.6-0.1,1V104z"/>
		<path d="M607.3,102.5c0,5.2-3.6,7.5-7,7.5c-3.8,0-6.8-2.8-6.8-7.3c0-4.7,3.1-7.5,7-7.5C604.6,95.3,607.3,98.2,607.3,102.5z
			 M596.1,102.7c0,3.1,1.8,5.4,4.3,5.4c2.5,0,4.3-2.3,4.3-5.5c0-2.4-1.2-5.4-4.2-5.4C597.5,97.2,596.1,100,596.1,102.7z"/>
		<path d="M611.4,95.6l2,3c0.5,0.8,1,1.5,1.4,2.3h0.1c0.5-0.8,0.9-1.6,1.4-2.3l2-3h2.8l-4.8,6.8l5,7.3h-2.9l-2.1-3.2
			c-0.6-0.8-1-1.6-1.5-2.4h-0.1c-0.5,0.8-1,1.6-1.5,2.4l-2,3.2h-2.8l5-7.2l-4.8-6.9H611.4z"/>
		<path d="M623.1,108.2c0-1.1,0.7-1.8,1.7-1.8s1.7,0.8,1.7,1.8c0,1-0.7,1.8-1.8,1.8C623.8,110,623.1,109.2,623.1,108.2z"/>
	</g>
</g>
</svg>
