<?xml version="1.0" encoding="utf-8"?>
<!-- Generator: Adobe Illustrator 19.1.0, SVG Export Plug-In . SVG Version: 6.00 Build 0)  -->
<svg version="1.1" id="Layer_1" xmlns="http://www.w3.org/2000/svg" xmlns:xlink="http://www.w3.org/1999/xlink" x="0px" y="0px"
	 viewBox="-575 297 128 128" style="enable-background:new -575 297 128 128;" xml:space="preserve">
<style type="text/css">
	.st0{fill:#FF002D;}
	.st1{fill:#656D78;}
	.st2{fill:#848A93;}
	.st3{fill:#FFFFFF;}
	.st4{fill:#DFC97A;}
	.st5{fill:#F2955C;}
	.st6{fill:#7DBEBD;}
</style>
<circle class="st0" cx="-511" cy="361" r="63"/>
<g id="_x33_6">
	<path class="st1" d="M-543.6,340.4c-1.5,0-2.8,1.2-2.8,2.8v31.7h-6.6c-1.3,0-2.3-1-2.3-2.3v-29.9c0-1.3,1-2.3,2.3-2.3H-543.6z"/>
	<rect x="-493.4" y="346.4" class="st1" width="8.9" height="20.8"/>
	<polygon class="st1" points="-483.7,345.5 -483.7,346.4 -483.7,367.2 -483.7,368.1 -471.8,373.1 -471.2,373.3 -471.2,340.2 
		-471.8,340.5 	"/>
	<polygon class="st1" points="-470.2,340 -470.2,340.5 -470.2,373.1 -470.2,373.6 -466.8,373.6 -466.8,340 	"/>
	<g>
		<path class="st1" d="M-494.5,343.1v3.3v20.8v12.1c0,1.5-1.2,2.8-2.8,2.8h-44.9c-1.5,0-2.8-1.2-2.8-2.8v-4.5v-31.7
			c0-1.5,1.2-2.8,2.8-2.8h27.7h17.2C-495.7,340.4-494.5,341.6-494.5,343.1z"/>
		<path class="st2" d="M-508.2,358.2c0-0.8-0.7-1.5-1.5-1.5h-2.4h-28.1c-0.8,0-1.5,0.7-1.5,1.5v16.6v3.1c0,0.8,0.7,1.5,1.5,1.5h30.5
			c0.8,0,1.5-0.7,1.5-1.5V358.2L-508.2,358.2z"/>
		<polygon class="st2" points="-500.6,352.8 -509.3,344.1 -512.1,344.1 -541.7,344.1 -541.7,352.8 -512.1,352.8 		"/>
	</g>
	<path class="st3" d="M-514.4,360.2h-21.3c-0.6,0-1,0.3-1,0.7v8.9c0,0.4,0.5,0.7,1,0.7h21.3c0.6,0,1.1-0.3,1.1-0.7v-8.9
		C-513.3,360.5-513.8,360.2-514.4,360.2z"/>
	<g>
		<path class="st4" d="M-503.2,377c-1.1,0-2-0.9-2-2.1c0-1.1,0.9-2,2-2c1.1,0,2.1,0.9,2.1,2C-501.2,376.1-502.1,377-503.2,377z"/>
		<path class="st5" d="M-503.2,369.2c-1.1,0-2-0.9-2-2.1c0-1.1,0.9-2,2-2c1.1,0,2.1,0.9,2.1,2C-501.2,368.3-502.1,369.2-503.2,369.2
			z"/>
		<path class="st6" d="M-503.2,361.5c-1.1,0-2-0.9-2-2.1c0-1.1,0.9-2,2-2c1.1,0,2.1,0.9,2.1,2C-501.2,360.6-502.1,361.5-503.2,361.5
			z"/>
	</g>
</g>
</svg>
