<svg id="Layer_1" data-name="Layer 1" xmlns="http://www.w3.org/2000/svg" viewBox="0 0 126 126"><defs><style>.cls-1{fill:#ff002d;}.cls-2,.cls-4{fill:#fff;stroke:#000;}.cls-2{stroke-width:0.33px;}.cls-3{fill:#d40000;}.cls-4{stroke-width:0.33px;}.cls-5{stroke:#fff;stroke-miterlimit:10;stroke-width:0.25px;}</style></defs><title>war</title><circle class="cls-1" cx="63" cy="63" r="63"/><g id="g6708"><rect id="rect6367-6" class="cls-2" x="29.1" y="15.91" width="58.01" height="81.14" rx="2.77" ry="2.77" transform="translate(-12.57 14.12) rotate(-13.49)"/><path id="path6399-9" class="cls-3" d="M29,40.46a14.68,14.68,0,0,0-2.45-2.1,14.68,14.68,0,0,0,1.23-3,14.68,14.68,0,0,0,2.45,2.1A14.68,14.68,0,0,0,29,40.46Z" transform="translate(-1 -1)"/><path id="path6403-1" class="cls-3" d="M88.4,77.56a14.68,14.68,0,0,0-2.45-2.1,14.68,14.68,0,0,0,1.23-3,14.68,14.68,0,0,0,2.45,2.1A14.68,14.68,0,0,0,88.4,77.56Z" transform="translate(-1 -1)"/><path id="path6413-1" class="cls-3" d="M59.57,62.55a35.23,35.23,0,0,0-5.87-5,35.23,35.23,0,0,0,3-7.13,35.23,35.23,0,0,0,5.87,5A35,35,0,0,0,59.57,62.55Z" transform="translate(-1 -1)"/><path id="path41-87-9-4-8" class="cls-3" d="M25.08,35.22l-0.17-.71,0.68-.16-0.38-8,0.82-.2,3.42,7.26L30,33.28,30.18,34l-1.87.45-0.17-.71,0.5-.12-0.47-1.12-1.9.46,0.15,1.2,0.5-.12,0.17,0.71Zm2.72-3.53L26,27.8l0.21,4.27,1.59-.38h0Z" transform="translate(-1 -1)"/><path id="path41-8-5-6-1" class="cls-3" d="M86,79l0.18,0.73,0.68-.16,3.28,7.27L91,86.6l-0.25-8,0.55-.13-0.17-.71-1.87.45,0.18,0.73,0.5-.12L90,80l-1.9.46-0.4-1.14,0.5-.12L88,78.49Zm4,1.91,0.16,4.28-1.76-3.9L90,80.88h0Z" transform="translate(-1 -1)"/></g><g id="g8409-3-3"><rect id="rect6355-6-85-62-9-7" class="cls-4" x="44.09" y="30.95" width="58.01" height="81.14" rx="2.77" ry="2.77" transform="translate(-15.67 18.03) rotate(-13.49)"/><path id="path153-0-1-2-5-5-5-3-4" d="M42.81,50.44c-0.76,1.65-1.73,2.73-1.49,3.81a1.08,1.08,0,0,0,1.12.85A0.93,0.93,0,0,0,43.29,54c0-.13.12-0.16,0.16,0a3.4,3.4,0,0,1-.12,1.67l1.43-.34a3.4,3.4,0,0,1-.87-1.44c0-.17.11-0.21,0.14-0.09a0.93,0.93,0,0,0,1.14.66l0.11,0a1.08,1.08,0,0,0,.62-1.27C45.59,52.08,44.23,51.57,42.81,50.44Z" transform="translate(-1 -1)"/><path id="path153-0-1-2-5-6-5-9-1-9" d="M103.38,92.6c-1.42-1.13-2.78-1.64-3.06-2.72a1.08,1.08,0,0,1,.62-1.27,0.93,0.93,0,0,1,1.21.51l0,0.11c0,0.13.18,0.09,0.14-.09a3.4,3.4,0,0,0-.87-1.44l1.43-.34a3.4,3.4,0,0,0-.12,1.67c0,0.17.19,0.14,0.16,0a0.93,0.93,0,0,1,.71-1.1l0.11,0a1.08,1.08,0,0,1,1.12.85c0.24,1.09-.73,2.17-1.49,3.81h0Z" transform="translate(-1 -1)"/><path id="path153-6-3-1-6-92-7-2-9-8" d="M71.64,65.45c-1.53,3.89-3.57,6.4-3,9a2.56,2.56,0,0,0,2.47,2.09,2.06,2.06,0,0,0,1.72-2.62c-0.08-.32.25-0.37,0.35,0A8.88,8.88,0,0,1,73,78l3.05-.73a8.88,8.88,0,0,1-2-3.47c-0.1-.42.22-0.5,0.29-0.2a2.06,2.06,0,0,0,2.72,1.56,2.55,2.55,0,0,0,1.25-3C77.72,69.54,74.77,68.22,71.64,65.45Z" transform="translate(-1 -1)"/><path id="path41-4-9-2" d="M40.07,50.26l-0.17-.71,0.68-.16-0.38-8L41,41.2l3.42,7.26L45,48.32,45.16,49l-1.87.45-0.17-.71,0.5-.12-0.47-1.13-1.9.46,0.15,1.2,0.5-.12,0.17,0.71Zm2.72-3.53L41,42.84l0.21,4.27,1.59-.38h0Z" transform="translate(-1 -1)"/><path id="path41-4-2-4-0" d="M101,94l0.18,0.73,0.68-.16,3.28,7.27,0.82-.2-0.25-8,0.55-.13-0.17-.71-1.87.45L104.41,94l0.5-.12L105,95.06l-1.9.46-0.4-1.14,0.5-.12L103,93.53Zm4,1.91,0.16,4.28-1.76-3.9,1.59-.38h0Z" transform="translate(-1 -1)"/></g><path class="cls-5" d="M7.33,45.51q3.52,0.26,7,.49c3.39,0.23,4.11,1.95,4.11,3.11a2.34,2.34,0,0,1-1.59,2.22,2.86,2.86,0,0,1,2.23,2.83c0,2.25-2.23,3.55-4.5,3.71q-3.65.23-7.29,0.5V45.51Zm4,5.07,2.09,0c0.83,0,1.35-.2,1.35-1,0-.6-0.54-0.83-1.35-0.86l-2.09-.07v1.86Zm0,4.58,2.32-.08c0.83,0,1.55-.27,1.55-1.17,0-.69-0.45-1.07-1.39-1.06l-2.49,0v2.29Z" transform="translate(-1 -1)"/><path class="cls-5" d="M20.69,46.38l4,0.21v8l5.7-.13V57q-4.83.21-9.66,0.48V46.38Z" transform="translate(-1 -1)"/><path class="cls-5" d="M32,46.93l4,0.15v9.71l-4,.15v-10Z" transform="translate(-1 -1)"/><path class="cls-5" d="M41.07,49.65l-3.61-.06q0-1.23,0-2.46,5.59,0.19,11.19.3v2.31l-3.61,0v6.81l-4,.11v-7Z" transform="translate(-1 -1)"/><path class="cls-5" d="M49.52,54.26c2-1.52,4-3,6-4.46l-5.65,0V47.46q5.44,0.1,10.88.12v2c-2,1.5-4,3-6,4.55l6.33,0q0,1.12,0,2.23-5.76,0-11.51.13V54.26Z" transform="translate(-1 -1)"/><path class="cls-5" d="M62.59,47.59h4v3h0l3.54-3L75,47.51Q72.69,49.28,70.35,51c1.81,1.77,3.62,3.56,5.43,5.39l-4.95-.06L67.67,52.9l-1.1.82v2.57h-4v-8.7Z" transform="translate(-1 -1)"/><path class="cls-5" d="M76.53,47.49q3.78-.06,7.56-0.16c2.26-.06,4.2.79,4.2,2.58a2.44,2.44,0,0,1-1.93,2.37,2.62,2.62,0,0,1,1.89,2.36,4.83,4.83,0,0,0,.43,2l-4-.12a5.08,5.08,0,0,1-.32-1.43c-0.11-.88-0.22-1.8-1.79-1.81H80.5v3.15l-4-.07v-8.9Zm4,3.88h2.07c0.74,0,1.75-.1,1.75-0.92,0-.58-0.45-0.91-2-0.89l-1.86,0v1.8Z" transform="translate(-1 -1)"/><path class="cls-5" d="M89.91,47.16l4-.14q0,4.92,0,9.85l-4-.14V47.16Z" transform="translate(-1 -1)"/><path class="cls-5" d="M95.92,46.93q5.33-.22,10.66-0.51v2.83l-6.69.17v1.29l6.08-.07v2.61l-6.08-.07v1.29l6.89,0.17v2.84q-5.43-.3-10.85-0.53Q95.92,51.94,95.92,46.93Z" transform="translate(-1 -1)"/><path class="cls-5" d="M118,56.9a4.23,4.23,0,0,1-3.66,1.31c-3.8-.3-6.14-3-6.14-6.17,0-4.23,3.44-6.17,6.34-6.4,3.28-.25,5.35,1.34,5.93,4.37l-3.8.08a1.77,1.77,0,0,0-1.87-1.46c-2.72.11-2.63,2.7-2.63,3.5a2.89,2.89,0,0,0,2.9,3.12A1.87,1.87,0,0,0,117.16,54l-1.75,0v-2.6l5.26,0q0,3.54,0,7.08l-2.5-.18Z" transform="translate(-1 -1)"/><path class="cls-1" d="M41.39,82.39H38.07l-5-18.2a1.07,1.07,0,0,0-.7-1,0.84,0.84,0,0,1-.67-0.84c0-.92,1.15-0.92,1.79-0.92H40c0.61,0,1.59-.08,1.59.81S40.33,63,40.33,64a2.21,2.21,0,0,0,.14.7L43.24,75Zm6.46-20.91,3.66,13.95-1.76,7H46.43L42.79,68.91l1.9-7.44h3.16ZM51.29,70l1.06-4.36a5.18,5.18,0,0,0,.2-1.15c0-1.45-1.76-1.23-1.76-2.26a0.87,0.87,0,0,1,1.09-.75h3.61c0.53,0,1.15.06,1.15,0.78A0.71,0.71,0,0,1,56,63c-1.4.61-1.76,1.59-2.12,3L52.13,73l-0.06,0Z" transform="translate(-1 -1)"/><path class="cls-1" d="M62,68.55l-2.63,9.56c-0.45,1.71-.06,2.18.89,2.6a1,1,0,0,1,.84.92c0,0.78-.89.75-1.45,0.75H56.44c-0.56,0-1.57,0-1.57-.84s0.48-.64,1.09-1,1.34-1,1.87-2.94l3.35-12.27h0.08ZM65,77H60.91l0.39-1.62h3.41L61.89,63l0.36-1.51h6.18l4.19,17.67c0.17,0.78.2,1.31,1,1.65a0.9,0.9,0,0,1,.7.87c0,0.75-1,.73-1.54.73h-7c-0.56,0-1.37-.06-1.37-0.78A0.76,0.76,0,0,1,65,80.82c0.73-.42.84-0.62,0.59-1.71Z" transform="translate(-1 -1)"/><path class="cls-1" d="M77.49,64.61c0-1,0-1.2-1-1.51a0.78,0.78,0,0,1-.62-0.75,1,1,0,0,1,1-.87h7.38V79.26c0,1,0,1.2,1,1.51a0.77,0.77,0,0,1,.61.75,1,1,0,0,1-1,.87H77a1,1,0,0,1-1-.87,0.78,0.78,0,0,1,.62-0.75c1-.31,1-0.48,1-1.51V64.61Zm8.11-3.13h0.14a12.18,12.18,0,0,1,5.39.75A4.83,4.83,0,0,1,94,66.82C94,70,91.92,71.43,89.07,72.1v0.06c2.49,0.36,4.86,1.09,4.92,4.05v2.46c0,0.25-.08.81,0.28,0.81s0.53-.81,1.2-0.81a0.92,0.92,0,0,1,.81.81,3.83,3.83,0,0,1-1.54,2.32,4.61,4.61,0,0,1-3.16,1,4.25,4.25,0,0,1-3.16-1.17,4.69,4.69,0,0,1-1.12-3.55v-1.9c0-1.29,0-2.85-1.71-3V71.51c1.51-.14,1.71-1.06,1.71-2.43V65.7c0-1.4-.31-2.07-1.71-2.57V61.48Z" transform="translate(-1 -1)"/></svg>