<?xml version="1.0" encoding="utf-8"?>
<!-- Generator: Adobe Illustrator 19.1.0, SVG Export Plug-In . SVG Version: 6.00 Build 0)  -->
<svg version="1.1" id="Layer_1" xmlns="http://www.w3.org/2000/svg" xmlns:xlink="http://www.w3.org/1999/xlink" x="0px" y="0px"
	 viewBox="-575 297 128 128" style="enable-background:new -575 297 128 128;" xml:space="preserve">
<style type="text/css">
	.st0{fill:#FF002D;}
	.st1{fill:#FFFFFF;}
	.st2{fill:#E1E3E9;}
	.st3{fill:#F24B45;}
	.st4{fill:#FFB202;}
	.st5{fill:#4CBB41;}
	.st6{fill:#53899F;}
</style>
<g>
	<circle class="st0" cx="-511" cy="361" r="63"/>
	<g>
		<g>
			<path class="st1" d="M-470.8,393.4h-80.5c-2.2,0-4-1.8-4-4v-56.9c0-2.2,1.8-4,4-4h80.5c2.2,0,4,1.8,4,4v56.9
				C-466.8,391.6-468.5,393.4-470.8,393.4z"/>
			<path class="st2" d="M-466.8,339.4h-88.5v-6.9c0-2.2,1.8-4,4-4h80.5c2.2,0,4,1.8,4,4V339.4z"/>
			<g>
				<circle class="st3" cx="-549.4" cy="334" r="3"/>
				<circle class="st4" cx="-540.5" cy="334" r="3"/>
				<circle class="st5" cx="-531.7" cy="334" r="3"/>
			</g>
		</g>
		<g>
			<path class="st6" d="M-543.6,363.8l22.3-10.3v4.9l-16.8,7.4v0.1l16.8,7.4v4.9l-22.3-10.3V363.8z"/>
			<path class="st6" d="M-517.9,381.9l9.9-33.6h4.7l-9.9,33.6H-517.9z"/>
			<path class="st6" d="M-478.4,367.9l-22.3,10.2v-4.9l17.2-7.4v-0.1l-17.2-7.4v-4.9l22.3,10.2L-478.4,367.9L-478.4,367.9z"/>
		</g>
	</g>
</g>
</svg>
