<svg id="Layer_1" data-name="Layer 1" xmlns="http://www.w3.org/2000/svg" viewBox="0 0 178.79 249.65"><defs><style>.cls-1{fill:#fff;stroke:#000;stroke-width:1px;}.cls-2{fill:#d40000;}</style></defs><title>10_H</title><g id="g11103-4-9"><g id="g10276-9-9"><rect id="rect10278-0-6" class="cls-1" x="0.5" y="0.5" width="177.79" height="248.65" rx="8.5" ry="8.5"/></g><path id="path10308-5-1" class="cls-2" d="M48.46,117.89s-3.72-6.1-8.73-13.28c-3.35-4.8-6-10-6.28-14.48-0.29-5.12,2.42-10.25,7.32-10.5s6.88,3.95,7.69,7.4c0.81-3.46,2.8-7.65,7.69-7.4s7.61,5.38,7.32,10.5c-0.25,4.48-2.93,9.68-6.28,14.48C52.18,111.79,48.46,117.89,48.46,117.89Z" transform="translate(-0.29 -0.3)"/><path id="path10310-7-8" class="cls-2" d="M14.51,56.6s-1.77-2.54-4.16-5.53c-1.6-2-2.88-4.17-3-6-0.14-2.13,1.15-4.27,3.49-4.38s3.28,1.64,3.67,3.08c0.39-1.44,1.33-3.19,3.67-3.08S21.8,42.9,21.67,45c-0.12,1.87-1.4,4-3,6C16.28,54.05,14.51,56.6,14.51,56.6Z" transform="translate(-0.29 -0.3)"/><path id="path10312-3-5" class="cls-2" d="M164.87,193.65s-1.77,2.54-4.16,5.53c-1.6,2-2.88,4.17-3,6-0.14,2.13,1.15,4.27,3.49,4.38s3.28-1.64,3.67-3.08c0.39,1.44,1.33,3.19,3.67,3.08s3.63-2.24,3.49-4.38c-0.12-1.87-1.4-4-3-6C166.64,196.19,164.87,193.65,164.87,193.65Z" transform="translate(-0.29 -0.3)"/><path id="path10314-8-8" class="cls-2" d="M89.69,99.15S86,93,81,85.87c-3.35-4.8-6-10-6.28-14.48-0.29-5.12,2.42-10.25,7.32-10.5s6.88,3.95,7.69,7.4c0.81-3.46,2.8-7.65,7.69-7.4s7.61,5.38,7.32,10.5c-0.25,4.48-2.93,9.68-6.28,14.48C93.4,93,89.69,99.15,89.69,99.15Z" transform="translate(-0.29 -0.3)"/><path id="path10318-3-7" class="cls-2" d="M48.46,65.15S44.74,59,39.73,51.86c-3.35-4.8-6-10-6.28-14.48-0.29-5.12,2.42-10.25,7.32-10.5s6.88,3.95,7.69,7.4c0.81-3.46,2.8-7.65,7.69-7.4s7.61,5.38,7.32,10.5c-0.25,4.48-2.93,9.68-6.28,14.48C52.18,59,48.46,65.15,48.46,65.15Z" transform="translate(-0.29 -0.3)"/><path id="path10322-4-6" class="cls-2" d="M130.92,117.89s-3.72-6.1-8.73-13.28c-3.35-4.8-6-10-6.28-14.48-0.29-5.12,2.42-10.25,7.32-10.5s6.88,3.95,7.69,7.4c0.81-3.46,2.8-7.65,7.69-7.4s7.61,5.38,7.32,10.5c-0.25,4.48-2.93,9.68-6.28,14.48C134.63,111.79,130.92,117.89,130.92,117.89Z" transform="translate(-0.29 -0.3)"/><path id="path10324-9-8" class="cls-2" d="M130.92,65.15s-3.72-6.1-8.73-13.28c-3.35-4.8-6-10-6.28-14.48-0.29-5.12,2.42-10.25,7.32-10.5s6.88,3.95,7.69,7.4c0.81-3.46,2.8-7.65,7.69-7.4s7.61,5.38,7.32,10.5c-0.25,4.48-2.93,9.68-6.28,14.48C134.63,59,130.92,65.15,130.92,65.15Z" transform="translate(-0.29 -0.3)"/><path id="path10332-8-6" class="cls-2" d="M89.69,151.1S86,157.2,81,164.38c-3.35,4.8-6,10-6.28,14.48-0.29,5.12,2.42,10.25,7.32,10.5s6.88-3.95,7.69-7.4c0.81,3.46,2.8,7.65,7.69,7.4s7.61-5.38,7.32-10.5c-0.25-4.48-2.93-9.68-6.28-14.48C93.4,157.2,89.69,151.1,89.69,151.1Z" transform="translate(-0.29 -0.3)"/><path id="path10334-5-0" class="cls-2" d="M130.92,132.36s-3.72,6.1-8.73,13.28c-3.35,4.8-6,10-6.28,14.48-0.29,5.12,2.42,10.25,7.32,10.5s6.88-3.95,7.69-7.4c0.81,3.46,2.8,7.65,7.69,7.4s7.61-5.38,7.32-10.5c-0.25-4.48-2.93-9.68-6.28-14.48C134.63,138.46,130.92,132.36,130.92,132.36Z" transform="translate(-0.29 -0.3)"/><path id="path10336-3-5" class="cls-2" d="M48.46,132.36s-3.72,6.1-8.73,13.28c-3.35,4.8-6,10-6.28,14.48-0.29,5.12,2.42,10.25,7.32,10.5s6.88-3.95,7.69-7.4c0.81,3.46,2.8,7.65,7.69,7.4s7.61-5.38,7.32-10.5c-0.25-4.48-2.93-9.68-6.28-14.48C52.18,138.46,48.46,132.36,48.46,132.36Z" transform="translate(-0.29 -0.3)"/><path id="path10338-2-9" class="cls-2" d="M130.92,185.1s-3.72,6.1-8.73,13.28c-3.35,4.8-6,10-6.28,14.48-0.29,5.12,2.42,10.25,7.32,10.5s6.88-3.95,7.69-7.4c0.81,3.46,2.8,7.65,7.69,7.4s7.61-5.38,7.32-10.5c-0.25-4.48-2.93-9.68-6.28-14.48C134.63,191.2,130.92,185.1,130.92,185.1Z" transform="translate(-0.29 -0.3)"/><path id="path10340-9-7" class="cls-2" d="M48.46,185.1s-3.72,6.1-8.73,13.28c-3.35,4.8-6,10-6.28,14.48-0.29,5.12,2.42,10.25,7.32,10.5s6.88-3.95,7.69-7.4c0.81,3.46,2.8,7.65,7.69,7.4s7.61-5.38,7.32-10.5c-0.25-4.48-2.93-9.68-6.28-14.48C52.18,191.2,48.46,185.1,48.46,185.1Z" transform="translate(-0.29 -0.3)"/><g id="g7724-24-8-9-7"><g id="g8345-9-7-5-1"><path id="path31-8-2-9-8" class="cls-2" d="M6.53,38.15V11.83H9.07V38.15H6.53Z" transform="translate(-0.29 -0.3)"/><path id="path33-2-3-1-6" class="cls-2" d="M16.63,11.83c-2.45,0-4.42,2.24-4.42,5V33.12c0,2.79,2,5,4.42,5h1.43c2.45,0,4.43-2.24,4.43-5V16.86c0-2.79-2-5-4.43-5H16.63Zm0.74,2.49A2.55,2.55,0,0,1,20,16.82V33.3a2.62,2.62,0,0,1-5.23,0V16.82a2.55,2.55,0,0,1,2.62-2.5h0Z" transform="translate(-0.29 -0.3)"/></g></g><g id="g7724-2-5-0-2-7"><g id="g8345-5-0-9-6-9"><g id="g10963-5-1"><path id="path31-1-3-2-1-5" class="cls-2" d="M172.85,212.1v26.32H170.3V212.1h2.55Z" transform="translate(-0.29 -0.3)"/><path id="path33-5-5-3-3-1" class="cls-2" d="M162.75,238.41c2.45,0,4.42-2.24,4.42-5V217.13c0-2.79-2-5-4.42-5h-1.43c-2.45,0-4.43,2.24-4.43,5v16.26c0,2.79,2,5,4.43,5h1.43ZM162,235.93a2.55,2.55,0,0,1-2.61-2.5V216.95a2.62,2.62,0,0,1,5.23,0v16.47a2.55,2.55,0,0,1-2.62,2.5h0Z" transform="translate(-0.29 -0.3)"/></g></g></g></g></svg>