<svg id="Layer_1" data-name="Layer 1" xmlns="http://www.w3.org/2000/svg" viewBox="0 0 178.79 249.65"><defs><style>.cls-1{fill:#fff;stroke:#000;stroke-width:1px;}</style></defs><title>10_S</title><g id="g8542-3-6"><g id="g8587-4-9"><rect id="rect7263-6-4" class="cls-1" x="0.5" y="0.5" width="177.79" height="248.65" rx="8.5" ry="8.5"/><path id="path7293-3-2" d="M48.06,26.47C40.71,37,32.85,43,32.72,51.19c0,2.65,1.39,7.16,5.87,8,2.91,0.56,6.91-1.8,7-6.59,0-1,1-.93,1,0.38a27.2,27.2,0,0,1-3.34,11.75h9.63A27.2,27.2,0,0,1,49.54,53c0-1.31,1-1.33,1-.38,0.08,4.79,4.09,7.15,7,6.59,4.48-.86,5.91-5.37,5.87-8C63.27,43,55.41,37,48.06,26.47Z" transform="translate(0.1 0.1)"/><path id="path7295-4-8" d="M14.11,40.25C10.68,44.62,7,47.14,6.94,50.55a3.31,3.31,0,0,0,2.74,3.34A2.85,2.85,0,0,0,13,51.14c0-.4.47-0.39,0.47,0.16a10.42,10.42,0,0,1-1.56,4.9h4.5a10.42,10.42,0,0,1-1.56-4.9c0-.54.47-0.55,0.47-0.16a2.85,2.85,0,0,0,3.27,2.75,3.31,3.31,0,0,0,2.74-3.34c-0.06-3.41-3.73-5.93-7.17-10.3h0Z" transform="translate(0.1 0.1)"/><path id="path7297-5-1" d="M48.06,170.24c-7.35-10.49-15.21-16.53-15.34-24.72,0-2.65,1.39-7.16,5.87-8,2.91-.56,6.91,1.8,7,6.59,0,1,1,.93,1-0.38A27.2,27.2,0,0,0,43.25,132h9.63a27.2,27.2,0,0,0-3.34,11.75c0,1.31,1,1.33,1,.38,0.08-4.79,4.09-7.15,7-6.59,4.48,0.86,5.91,5.37,5.87,8C63.27,153.71,55.41,159.74,48.06,170.24Z" transform="translate(0.1 0.1)"/><path id="path7299-3-5" d="M164.47,209.2c-3.43-4.37-7.11-6.89-7.17-10.3a3.31,3.31,0,0,1,2.74-3.34,2.85,2.85,0,0,1,3.27,2.75c0,0.4.47,0.39,0.47-.16a10.42,10.42,0,0,0-1.56-4.9h4.5a10.42,10.42,0,0,0-1.56,4.9c0,0.54.47,0.55,0.47,0.16a2.85,2.85,0,0,1,3.27-2.75,3.31,3.31,0,0,1,2.74,3.34c-0.06,3.41-3.73,5.93-7.17,10.3h0Z" transform="translate(0.1 0.1)"/><path id="path7301-4-0" d="M130.52,26.47C123.17,37,115.31,43,115.18,51.19c0,2.65,1.39,7.16,5.87,8,2.91,0.56,6.91-1.8,7-6.59,0-1,1-.93,1,0.38a27.2,27.2,0,0,1-3.34,11.75h9.63A27.2,27.2,0,0,1,132,53c0-1.31,1-1.33,1-.38,0.08,4.79,4.09,7.15,7,6.59,4.48-.86,5.91-5.37,5.87-8C145.73,43,137.87,37,130.52,26.47Z" transform="translate(0.1 0.1)"/><path id="path7303-7-8" d="M48.06,79.21c-7.35,10.49-15.21,16.53-15.34,24.72,0,2.65,1.39,7.16,5.87,8,2.91,0.56,6.91-1.8,7-6.59,0-1,1-.93,1,0.38a27.2,27.2,0,0,1-3.34,11.75h9.63a27.2,27.2,0,0,1-3.34-11.75c0-1.31,1-1.33,1-.38,0.08,4.79,4.09,7.15,7,6.59,4.48-.86,5.91-5.37,5.87-8C63.27,95.74,55.41,89.71,48.06,79.21Z" transform="translate(0.1 0.1)"/><path id="path7305-6-7" d="M89.29,60.47C81.94,71,74.08,77,73.95,85.19c0,2.65,1.39,7.16,5.87,8,2.91,0.56,6.91-1.8,7-6.59,0-1,1-.93,1,0.38a27.2,27.2,0,0,1-3.34,11.75H94.1A27.2,27.2,0,0,1,90.76,87c0-1.31,1-1.33,1-.38,0.08,4.79,4.09,7.15,7,6.59,4.48-.86,5.91-5.37,5.87-8C104.5,77,96.64,71,89.29,60.47Z" transform="translate(0.1 0.1)"/><path id="path7309-8-5" d="M130.52,79.21c-7.35,10.49-15.21,16.53-15.34,24.72,0,2.65,1.39,7.16,5.87,8,2.91,0.56,6.91-1.8,7-6.59,0-1,1-.93,1,0.38a27.2,27.2,0,0,1-3.34,11.75h9.63A27.2,27.2,0,0,1,132,105.74c0-1.31,1-1.33,1-.38,0.08,4.79,4.09,7.15,7,6.59,4.48-.86,5.91-5.37,5.87-8C145.73,95.74,137.87,89.71,130.52,79.21Z" transform="translate(0.1 0.1)"/><path id="path7313-6-8" d="M48.06,223c-7.35-10.49-15.21-16.53-15.34-24.72,0-2.65,1.39-7.16,5.87-8,2.91-.56,6.91,1.8,7,6.59,0,1,1,.93,1-0.38a27.2,27.2,0,0,0-3.34-11.75h9.63a27.2,27.2,0,0,0-3.34,11.75c0,1.31,1,1.33,1,.38,0.08-4.79,4.09-7.15,7-6.59,4.48,0.86,5.91,5.37,5.87,8-0.13,8.19-8,14.22-15.34,24.72h0Z" transform="translate(0.1 0.1)"/><path id="path7315-7-3" d="M130.52,223c-7.35-10.49-15.21-16.53-15.34-24.72,0-2.65,1.39-7.16,5.87-8,2.91-.56,6.91,1.8,7,6.59,0,1,1,.93,1-0.38a27.2,27.2,0,0,0-3.34-11.75h9.63A27.2,27.2,0,0,0,132,196.46c0,1.31,1,1.33,1,.38,0.08-4.79,4.09-7.15,7-6.59,4.48,0.86,5.91,5.37,5.87,8-0.13,8.19-8,14.22-15.34,24.72h0Z" transform="translate(0.1 0.1)"/><path id="path7317-0-2" d="M89.29,189c-7.35-10.49-15.21-16.53-15.34-24.72,0-2.65,1.39-7.16,5.87-8,2.91-.56,6.91,1.8,7,6.59,0,1,1,.93,1-0.38a27.2,27.2,0,0,0-3.34-11.75H94.1a27.2,27.2,0,0,0-3.34,11.75c0,1.31,1,1.33,1,.38,0.08-4.79,4.09-7.15,7-6.59,4.48,0.86,5.91,5.37,5.87,8C104.5,172.45,96.64,178.48,89.29,189Z" transform="translate(0.1 0.1)"/><path id="path7319-5-6" d="M130.52,170.24c-7.35-10.49-15.21-16.53-15.34-24.72,0-2.65,1.39-7.16,5.87-8,2.91-.56,6.91,1.8,7,6.59,0,1,1,.93,1-0.38A27.2,27.2,0,0,0,125.71,132h9.63A27.2,27.2,0,0,0,132,143.71c0,1.31,1,1.33,1,.38,0.08-4.79,4.09-7.15,7-6.59,4.48,0.86,5.91,5.37,5.87,8C145.73,153.71,137.87,159.74,130.52,170.24Z" transform="translate(0.1 0.1)"/><path id="path31-5-4-7" d="M6.13,37.75V11.43H8.68V37.75H6.13Z" transform="translate(0.1 0.1)"/><path id="path33-4-6-8" d="M16.23,11.43c-2.45,0-4.42,2.24-4.42,5V32.72c0,2.79,2,5,4.42,5h1.43c2.45,0,4.43-2.24,4.43-5V16.46c0-2.79-2-5-4.43-5H16.23ZM17,13.92a2.55,2.55,0,0,1,2.61,2.5V32.9a2.62,2.62,0,0,1-5.23,0V16.43A2.55,2.55,0,0,1,17,13.92h0Z" transform="translate(0.1 0.1)"/><g id="g8583-6-9"><path id="path31-5-5-6-7" d="M172.45,211.7V238H169.9V211.7h2.55Z" transform="translate(0.1 0.1)"/><path id="path33-4-3-7-9" d="M162.35,238c2.45,0,4.42-2.24,4.42-5V216.73c0-2.79-2-5-4.42-5h-1.43c-2.45,0-4.43,2.24-4.43,5V233c0,2.79,2,5,4.43,5h1.43Zm-0.74-2.49A2.55,2.55,0,0,1,159,233V216.55a2.62,2.62,0,0,1,5.23,0V233a2.55,2.55,0,0,1-2.62,2.5h0Z" transform="translate(0.1 0.1)"/></g></g></g></svg>