<?xml version="1.0" encoding="utf-8"?>
<!-- Generator: Adobe Illustrator 19.2.0, SVG Export Plug-In . SVG Version: 6.00 Build 0)  -->
<svg version="1.1" id="Layer_1" xmlns="http://www.w3.org/2000/svg" xmlns:xlink="http://www.w3.org/1999/xlink" x="0px" y="0px"
	 viewBox="0 0 178.8 249.6" style="enable-background:new 0 0 178.8 249.6;" xml:space="preserve">
<style type="text/css">
	.st0{fill:#FFFFFF;stroke:#000000;}
	.st1{fill:#E2CF00;}
	.st2{fill:#131F67;}
	.st3{fill:#D40000;}
</style>
<title>11_C</title>
<g id="g5584">
	<g id="g11322-4-2">
		<path id="rect6355-6-85-3-39-1-8" class="st0" d="M9,0.5h160.8c4.7,0,8.5,3.8,8.5,8.5v231.6c0,4.7-3.8,8.5-8.5,8.5H9
			c-4.7,0-8.5-3.8-8.5-8.5V9C0.5,4.3,4.3,0.5,9,0.5z"/>
		<path id="path147-6-9-8-7-0-5-6-79-2-4" d="M164.6,209.3c3.1-0.1,4.5-3.7,2.2-6.6c-0.3-0.4-0.4-0.6,0.2-0.2
			c1.6,1.1,4.6,0.4,4.7-2.9c0.2-4.1-5.3-5.3-6.3-0.9c-0.1,0.5-0.4,0.4-0.3-0.2c0.1-1.7,0.6-3.4,1.4-5h-3.7c0.8,1.6,1.2,3.3,1.4,5
			c0.1,0.6-0.3,0.7-0.3,0.2c-1-4.4-6.5-3.2-6.3,0.9c0.1,3.3,3.1,4,4.7,2.9c0.6-0.4,0.6-0.2,0.2,0.2
			C160,205.6,161.4,209.2,164.6,209.3L164.6,209.3L164.6,209.3z"/>
		<path id="path147-6-9-8-7-4-5-62-3-3-7" d="M14.2,40.3c-3.1,0.1-4.5,3.7-2.2,6.6c0.3,0.4,0.4,0.7-0.2,0.2
			c-1.6-1.1-4.6-0.4-4.7,2.9c-0.2,4.1,5.3,5.3,6.3,0.9c0.1-0.5,0.4-0.5,0.3,0.2c-0.1,1.7-0.6,3.4-1.4,5h3.7c-0.8-1.6-1.2-3.3-1.3-5
			c-0.1-0.7,0.3-0.7,0.3-0.2c1,4.3,6.5,3.2,6.3-0.9c-0.1-3.3-3.1-4-4.7-3c-0.6,0.4-0.6,0.2-0.2-0.2C18.8,44,17.4,40.4,14.2,40.3
			L14.2,40.3L14.2,40.3z"/>
		<path id="path35-5-6-2" d="M14.1,11.5v2.8h2.7c0,0,0.1,2.7,0.1,8.3c0,5.5,0.1,8.2-0.2,9.7c-0.9,3.6-6.1,3.6-7.2,1
			C9.1,32,8.9,30.5,9,29.1H6.2c0,0,0,0.8,0,1.7c0,4,1.4,6,4.5,6.7s7-0.5,8.3-3.2c0.8-1.6,0.7-1.7,0.7-11.1c0-6.3,0.1-8.9,0.1-8.9
			h2.5v-2.7H14.1z"/>
		<path id="path35-6-4-1-2" d="M164.7,238.1v-2.8H162c0,0-0.1-2.7-0.1-8.3c0-5.5-0.1-8.2,0.2-9.7c0.9-3.6,6.1-3.6,7.2-1
			c0.4,1.3,0.6,2.8,0.5,4.2h2.9c0,0,0-0.8,0-1.7c0-4-1.4-6-4.5-6.7s-7,0.5-8.3,3.2c-0.8,1.6-0.7,1.7-0.7,11.1c0,6.3-0.1,8.9-0.1,8.9
			h-2.5v2.7H164.7L164.7,238.1z"/>
	</g>
	<g id="g5275-8-4-5">
		<g id="layer1-1-8-4-5">
			<g id="g3799-8-1-3">
				<path id="path3306-4-9-5" class="st1" d="M129.2,24.4c0.7-1,3.6,5.8,5.5,11c0.9,2.5,2.2,4.6,1.7,5.3c-1.4,1.4-4.8,0.1-7.4-1.8
					c-1.8-1.5-3.4-3.2-4.6-5.2L129.2,24.4z M153,29.4l0.1,4c-3.1,2.7-5.9,5.6-8.6,8.7h9c-0.1,49.2,0.1,147.9,0.1,147.9
					s-10.1-10.2-9.8-10.3c0,0-0.3-59.6-0.3-99.7c-0.1-0.2,5.3-0.2,5.6-2.8c0.2-1.7-5.6-1.5-5.7-1.6c0-18-0.1-30.8-0.1-30.8l-5.4-0.2
					L153,29.4z M121.5,48c0.8,1.6,2,7.5,3,7.4c4.4-1.5,5.8,5,1.2,5.3c-1.7,0.1-3.6-2.1-4.7-4.9C120.6,54.4,121.1,47.4,121.5,48
					L121.5,48L121.5,48z M120.5,57c1.3,2.1,2.5,9.8,4.8,9.4c1.5-0.3,2.9,0.6,3.2,2c0.1,0.3,0.1,0.6,0,1c-1.1,4.6-8.9,0.2-11-0.8
					C119.1,64.8,120,60.9,120.5,57L120.5,57z M137,78.7c-1.8,4.1-1.3,7.4,0.2,11.5c-4.6,2-9.2,4.4-13.8,6.8c0,0-0.2-16,1.3-23.4
					c0.5-1.1,2.4-0.2,3.5,0.3C131.3,75.3,134.2,76.9,137,78.7L137,78.7L137,78.7z M54.6,152.3c1,7.6,0.3,19.4-1.1,24
					c-0.5,1.6-11.3-5.5-12.1-6c2.1-3.9-0.8-13.1-0.5-11.5C41.7,158.3,54.3,151.5,54.6,152.3L54.6,152.3z M59.2,183.7
					c-0.2,0.5-1,6.2-1.3,6.2c-0.8,0.1-2-5.6-4.1-7.4c-3.9,0.5-4.4-2.2-3.6-3.5c-0.2-0.6,1.3-1.8,2.6-1.7
					C56.3,178.6,60.8,179.8,59.2,183.7L59.2,183.7z M104.3,193.4c0,0-3,16.7-3,16.6c-7.3,1.1-14.3,2.3-20.9,1.5
					c1.3-17.3,3.3-32.3,8.9-34.9l-11.5-9.3c0,0-12.8,8-12,7.9c0.3-0.1,0.6-6.8,0.8-17.7c-0.3-28.3-16.6-57-17.2-56.7
					c-0.3-0.2,13.8-1.3,24,3.1l0.5-37.5c0,0-5.1-2.5-6-3.7C66,56.2,71,54.5,74,56.1c1.4-5,3.6-17.2,3.6-17.2
					c6.9-1.3,13.8-1.8,20.8-1.6c-1.2,5.3-1.9,10.6-2.3,16c-0.8,8.6-2.6,16.8-7.1,18.8c0.8-0.3,11.3,8.9,11.3,8.9l12.8-7.9
					c-4.1,27,2.9,53.2,15.1,74.4c-6.2,0.7-13.1,0.4-24-2.9c0,0,0.6,37.6,0.6,37.4C116.9,186.8,110.4,196,104.3,193.4L104.3,193.4
					L104.3,193.4z M57.6,196.8c0,0.4-0.2,4.6-0.2,4.6c-1.7-2-3.1-7.9-3.4-7.8c0,0-2.2,0.3-2.9-0.4c-2.2-2.4,0-5.2,2.2-4.6
					S57.9,192.9,57.6,196.8L57.6,196.8L57.6,196.8z M35,69.3c0,0,0.5,66.7,0.5,100.1c-8.4-0.1-6.8,4.6,0.1,4.1v30.8l4.5,0.2
					c0,0-8.6,9-14,14.7l-0.1-2.9l8.3-9h-8.5V59.4L35,69.3z M49.3,224.2c-2.1,0.4-4.2-9.1-7.8-15c4.1-2.5,10.5,2.2,12,6
					C52.5,218.3,49.2,224.1,49.3,224.2z"/>
				<path id="path3304-4-6-6" class="st2" d="M154.7,230.1V19.6H24.1v210.5H154.7z M111.5,185.8c-0.2-0.3-0.5-0.8-0.5-0.8
					c0.2-0.1,0.4-0.1,0.5-0.2c15.1-5.6,31.3-18.2,31.6-18.5V180l10,10.6v37.6h-39.4l-11.5-19.4c0.7-5.1,2.5-14.9,2.5-14.9
					c1.1,0.3,4.6,0.6,6.6-2.2C112.2,190.4,112.7,188.6,111.5,185.8L111.5,185.8L111.5,185.8z M37.7,142.4l-1.5,1.9l2.6-0.1l-1.8,2
					l2.9,0.1l-2.3,1.9h3.1l-2.3,1.9l3.4-0.1l-2.5,2.1h3.3l-2.5,2.1h3.2l-2.1,1.9h2.8l-3.2,2.3c-1.6-0.6-3.3-1-5-1v-15.2L37.7,142.4z
					 M35.4,168.9c-7.5,0-9.1,4,0,4.6c-0.2,10.1,0.4,30.4,0.4,30.4l4.9,0.1c0,0-13.3,14.4-14.6,15.5C25,171.3,25.1,59.3,25.1,59.3
					l10.1,10.2l0.1,31.7c3.4,3.4,5.3,8.5,7.3,11.7l5.5,2.7l-1.3,4.5l0.6,1.3l1.7-6.3l-6-2.9l-0.7-1.3l1-6l-5.7-2l-1-1.4l0.4-5.8
					l-1.2-0.4v-1.1l1.2,0.1l0.4-6.5l-1.6-0.5v-1.4c0,0,1,0,1.4,0c0.6,0.5,1.2,1.1,1.7,1.7l-0.5,7.3l7.2,1.5l0.5,0.8l-1.3,7.2
					l7.5,2.4c-0.8-1.9-1.8-3.7-2.7-5.7c1-0.3,2.1-0.4,3.2-0.6c0.3-9.8,0-20,0.3-29.2c6.1-0.4,3.2,0.1,5.9,0.1c1,0,1.9-0.9,1.9-1.9
					c0-0.6-0.3-1.2-0.9-1.6l1.1-0.4l1.8,2.1l-3.8,3.7v1.1l4.8-4.8L62,67l1.2-0.6l1.9,2c0,0,4.1-4.2,3.8-4.3
					c-0.2-0.1-0.4-0.2-0.5-0.4c-2.9-6.3,1.1-9.3,5.8-7.6c1.2-5.8,2.4-11,3.3-17c3.6-1.4,20.4-2.1,20.6-1.8c0.2,0.2,0.3,0.4,0.4,0.6
					c0.2-0.1,0.4-0.3,0.5-0.6c0-0.4,14.7,0.4,21.9,1.8c0.1,0.5,0.1,1.1,0.1,1.6c-0.1,1.8,0,1.8-1.7,1.6c-3.4-0.2-6.1,1-7.1,4
					c-0.6,1.7-0.3,3.2,0.6,7.7s0.9,3.9,0.8,4.5c-0.4,1-1.1,1.8-1.9,2.3c-0.8,0.7-0.9,1.9-0.2,1.2c0.5-0.6,1.2-1.1,1.9-1.3
					c1.7-0.9,1.6-1.7,0.6-5.3c-0.5-1.7-0.9-3.5-1-3.7c0-0.7,0.2-0.4,1.2,0.3c0.6,0.4,1.3,0.9,2,1.2c2,1.1,1.1-0.1-0.8-1.4
					c-1.5-1.1-1.8-1.6-0.5-1.1c1.6,0.5,3.3,0.4,4.8-0.3c0.3-0.2,0.5-0.2,0.6,0.1c0.1,0.4-0.2,1.5-0.3,3.9
					c-0.3,6.2-1.7,12.8-5.8,16.6c-5.9,5.5-15.5,1.8-20.9-3.3l-0.6,0.9c3.6,3,9.8,6.8,15.9,6.1c-2.5,2.1-8.1,5.7-8.1,5.7
					c-3.8-2.8-6.7-5.6-10.9-8.6l-0.7,0.5l11.6,9.2l12.5-8.3c0,0-0.5,7.9-0.7,10.8l5.4-4.8l-4.1-6.2l4.4-4.6c0,0-0.8,0.1,0.1-1.3
					c1.2-2.5,2-6.6,2.6-10.8c-0.1-3.1,0.7-6.5,0.9-9.3c0.3,2.1,1,4.2,1.8,6.2c0.9,2.2,1.2,2.2,2.2,1.9c5.3-0.5,2.9,9.8-3.4,3.1
					c-0.2-0.2-0.5-0.4-0.8-0.6c0.5,2.4,1.3,4.8,2.3,7.1c0.7,1.3,0.7,1.5,1.8,1.4c2-0.2,2.7,0.5,2.9,2.7c-0.3,4.1-4.7,2.3-7.5,1.1
					c-0.2-0.2,1.3,1.4,1.9,2c0.4,0.3,0.7,0.8,0.9,1.3l-0.2,2.2l-4.3,3.9l3.5,5.2l-0.2,1.9l-3.8,4.6l4,4.4l0.1,1.6l-3.3,4.4l4.4,3.5
					l0.2,1.4c0,0-2.8,5.2-2.7,5.4s4.7,3.4,4.7,3.4l0.5,2.2l-2,5.6l4.9,2.8l0.9,2.5l-1.4,5.2l5,2.3l1.4,2.9l-0.9,5.4l5.6,1.7l1.5,2.4
					l-0.2,4.8l1.4,0.1v1.2h-1.5c0.1,0.8,0.1,1.7-0.1,2.5c-0.3,4-0.3,3.9,0.6,4c2,0.4,1.6,1.6-0.5,1.4c-0.3,0-0.6-0.1-0.8-0.1
					c-0.4-0.1-0.8-0.4-1-0.8l0.4-7.4l-7.2-1.2l-0.7-0.9l1.2-6.9l-6.8-2l-0.9-1.7l1.9-7.1l-6.8-3l-0.4-1.3l2.9-6.3l-6.3-3.1l-0.4-1.5
					l3.5-6.5l-7.2-5.3c0,0,0.2,0.5,0.5,1.4l5.8,4.1l-2.8,5.6c-0.1-0.2-0.3-0.3-0.5-0.3c0.2,0.9,0.3,1.9,0.3,2.8l3,7.8l-9.6,6.5
					c4.1,2.5,9.3,2.4,14.1,3.3c0.1,0.4,0.3,0.9,0.6,1.3c1.4,2.2,2.6,5.1,4.2,8c-0.9,0.4-1.9,0.6-2.9,0.7c-1.7,9.6-3.4,20.6-6.1,28.9
					c-1.2,0-2.1,1-2.1,2.1c0,0.6,0.3,1.2,0.7,1.6l-0.8,0.2c-0.4,0-2-1.7-2-1.7l4-4v-1.3c-1.6,1.7-5.2,5.3-5.2,5.3l2.1,2.3l-1.1,0.5
					l-1.6-1.9l-3.9,4l-1-0.7c1.3-1.5,2.7-3,4.1-4.3c-1-1.2-5-5.1-5-5.1v1.3l3.9,3.8l-3.8,3.8l-0.2,0.2c0,0-3-1.3-3.2-1.3
					c1.3,1.1,3.6,2,4.8,2.9c5.7,3.4,0.3,10.3-4.9,8.6c-0.2-0.6-2.9,14.7-2.6,15.5c-0.3,2.4-0.3,2,0.5,3.4c2.4,5.6,9.5,16.3,9.5,16.3
					L47.8,229c0.7-1.2,1.4-2.6,1.9-3.9c-2.3-2.5-3.9-5.5-4.9-8.7c-0.6-2.7-1.8-5.1-3.6-7.2c0-0.1,0.1-0.2,0.2-0.2
					c5-1.8,10.8,2.5,12.6,7.5l2.9-4.8c-1.3-0.1,19.3,2.4,24.3,1.7c-0.4-0.1-1-0.5-0.7-1.9c0.5-2.5,1.4-11.3,1.4-11.3
					c1-8.6,1.8-19.5,7.5-23.1c-0.5-0.5-1-1-1.6-1.4c0,0,0.7,0.7,0.7,0.8c0,0.2-0.1,0.4-0.3,0.5c-1,0.9-1.9,1.9-2.6,3
					c-4.7-4.1-12-7.6-16.4-6.1c-1.7,0.4-2.5,2.1-3.4,0.7c1-7.3,1.2-14.7,0.7-22c-0.7-14.3-3.9-22.5-7-32.7c1.6-0.6,9.8-6.1,9.8-6.1
					c0.1-0.7-9.9-3-13.8-2.6c-0.2-0.3-0.5-0.5-0.8-0.6l0.1,0.2c-0.9,0.5-1.3,1.7-0.8,2.6c0.4,0.8,1.4,1.2,2.2,0.9
					c0.5,1.2,0.9,2.3,0.9,2.3l-5.5-2.5l1.8-6.1l-0.6-1.3l-2.2,7.9l7.1,3L58,119l-2.9,6l6.3,3.8l0.3,1.2l-3.4,6.5l6.1,4.7l-4.5,5.8
					l5.5,4.6l-0.1,0.8l-4.6,5.3l4.7,4.9l0.1,2l-5.1,4.6l4.4,6.5c-1.6,1.2-2.9,2.5-4.1,4.1l-1.1-0.5l3.9-3l-4.2-6.1l-4.5,4l2.4,4
					l-1.5-0.7l-1.3-2.1l0.2-2.2l4.4-4l-3.8-5.5v-1c0,0,2.3-2.7,4.1-4.7l-4.8-5.3l3.9-5l-4.9-4.2l0.1,1.3l3.6,3.1l-2.8,3.4
					c-0.2,2,0.2,5.6-0.8,7.1c1.7,1.6,0.8,5.6,0,6.9c1.6,1.9,0.7,6.1-0.3,6.3c1.2,1.6,0.7,4.7-0.3,5.7c-0.3,0.2,4.4,1.9,7.3,3.9
					c-2.5,4.6-1.9,9-2.7,10.5c-1-3-2.2-5.9-3.6-8.8c-0.2-0.2-0.5-0.3-0.8-0.2c-4.9-0.4-4.4-4.5-0.8-5.6c0,0-7.5-5.6-11.3-6.2
					c0-0.2,0-0.4,0.1-0.5c0.6-1.5,0.9-3.1,0.9-4.8c0-2.2-0.3-4.3-0.9-6.4l1.5-1c0.3-1.3,2-1.4,2.2-2.3c-0.4-4.1-8.3-19.8-10-21.6
					C34.7,145.5,35.9,157.6,35.4,168.9L35.4,168.9L35.4,168.9z M37.2,140.3l-1.3,1.1v-1.7L37.2,140.3z M35.9,137.8l0.7,0.5l-0.7,0.7
					V137.8z M115.9,117.7c-0.1-0.8-0.3-1.5-0.4-2.3c1.1-0.3,1.9-1.4,1.6-2.6c-0.2-1-1.1-1.7-2.1-1.6c-0.2,0-0.3,0-0.5,0.1
					c-0.3-1.2-0.7-2.2-0.9-2.9l-0.4-0.3c1.2,4.1-1.1,6.3,2.2,9.7C115.4,117.9,115.6,117.8,115.9,117.7L115.9,117.7L115.9,117.7z
					 M46.9,228.4l-20.8-0.1v-7.7l16-17.1l-6.2-0.1l0.1-29.4c1.7-0.8,3.4-1.7,4.9-2.8l9.8,5.4l0.7,0.4c-0.3,0.1-0.6,0.3-0.8,0.4
					c-1.1,0.9-1.5,2.5-1,3.9c0.8,2.2,2.5,1.8,3.9,1.8c1.2,0.9,2.2,3.9,3,6c0.3,0.7,0.6,1.4,0.8,2.1c0.1,0.3,0.1,0.6,0.1,0.9
					c-0.2-0.1-0.4-0.4-0.5-0.6c-1.5-3.3-5.2-4.9-7.1-1.8c-1,1.9-0.3,4.1,1.3,4.7c0.7,0.1,1.5,0.1,2.2,0c0.1-0.1,1.2,1.6,2.8,7.1
					c0.7,2.3,0.8,7.2,0.2,7.9c-1.1,1.3-1.3,3.1-2.2,4.4c-0.4,0.8-0.4,0.3-1-0.6c-2.2-3.1-6-5.6-9.6-5.4c-2.5,0.1-3.3,1-2.7,1.7
					c1.3,1.5,2.3,3.2,2.7,5.1c1,4,2.2,7.6,5,10.8L46.9,228.4z M57.5,209.3c-0.3-0.2-0.1-0.6,0-1.3c0.1-1.8,0.2-1.8,1.2-1.3
					c2.3,0.8,4.8,0.1,6.3-1.7c2.1-2.3,2.2-4.6,0.8-9.2c-1.5-5.2-1.4-5.9,0.3-6.9c1.1-0.9,2.2-2.8,1.8-2.8c-0.1,0.1-0.2,0.1-0.3,0.3
					c-0.6,0.5-1.2,1-1.8,1.4c-2.1,1.4-2.7,2.1-1.8,4.8s1.7,5.1,1.3,5.3c-0.5-0.3-0.9-0.6-1.3-1c-1-0.6-2-1.1-3-1.5
					c-0.3,0,0,0.2,1,0.9c2.5,1.6,3.5,3.1,1.1,2.2c-1.1-0.4-2.3-0.4-3.4,0c-0.9,0.3-1.4,0.6-1.5,0.2c-0.1-1.6-0.1-3.2,0.1-4.9
					c0-0.1,0.2-1.2,0.3-2.4c0.5-4.7,1.2-8.6,3.3-11.1c6.8-8.5,14.6-6,23.3,0.8c-3.3,9.1-3,16.1-3.8,19c-0.8,0.1-1.6-0.1-2.2-0.5
					c-1.2-0.7-2.6-1.1-4-1.2c-1.2-0.1-1.4,0.1-1.3-0.3s2.1-0.9,3.3-1.1c2.2-0.5,2.1-1,0.2-0.8c-2.1,0.3-4.1,1.1-5.9,2.3
					c-1.4,0.9-1.4,0.9-1.1,2.1c0.2,0.3,0.2,0.7-0.1,0.9c-0.1,0.1-0.2,0.1-0.3,0.1c-0.7,0.3-0.6,0.5-0.2,0.9c0.1,0.1,0.3,0.1,0.4,0.2
					c0.1,0.2,0.1,0.4,0,0.6c2.5,2.2,7,2.2,10.7,0c0.3,0.1,0.4,0.5,0.2,0.7c0,0,0,0,0,0c-0.4,0.9-4.3,1.9-7.2,1.9
					c-1.3,0-1.5-0.1-3.5-0.7c-0.4-0.2-0.9-0.3-1.3-0.2c-0.1,0.6,0.2,1.2,0.7,1.5c2.1,1.5,5.1,1.4,9.2-0.3c2.2-0.9,2-1.2,1.3,3.2
					c-0.2,1.2-0.4,2.1-0.4,2.1S60.6,210.6,57.5,209.3z M60.5,205.2c-0.9,0.1-1.8-0.2-2.5-0.8c-0.8-0.9,0-1.1,1.3-0.7
					c1.6,0.6,3.4,0.3,4.8-0.6c0.9-0.6,1.1-0.3,0.3,0.6C63.4,204.7,61.9,205.2,60.5,205.2z M75.1,203.7c-1.8,0-3.4-0.3-4.1-1.1
					s0-0.8,1.5-0.2c2.4,0.8,5.1,0.6,7.3-0.6c1.2-0.6,1.6-0.7,1.4,0C80.5,202.9,77.6,203.6,75.1,203.7L75.1,203.7z M60.9,203.1
					c-1.7,0-3.1-0.4-2.8-1.3c0.1-0.3,0.2-0.1,1.4,0.2c1.4,0.3,2.9,0.3,4.3-0.2c1.4-0.4,1.7-0.5,1.1,0.1
					C63.7,202.8,62.3,203.2,60.9,203.1z M57.5,202.2c-1.7-2.6-2-6.5-3.8-8.6c-3.4,0.6-5-2.6-2.1-4.7c1.4-0.8,3.2-0.2,4.5,1.9
					c1,1.3,1.5,2.9,1.6,4.5C57.5,198.1,57.6,199.5,57.5,202.2z M77.1,201l-0.7-0.1c-0.5-1.8-1.8-2-2.5,0l-0.6-0.1
					C74.2,198.5,76.3,198.4,77.1,201L77.1,201z M78.3,201c-0.4-0.1-0.7-0.4-0.7-0.7c-0.3-1,0-0.9,0.7-0.4s1.2,0.7,0.8,0.9
					C78.8,200.8,78.6,200.9,78.3,201L78.3,201z M71.9,200.4c-0.3-0.3-0.3-0.6,0-0.8c0.3-0.2,0.6-0.3,0.9-0.4c0.3-0.1,0.5,0,0.4,0.4
					c-0.1,0.4-0.3,0.8-0.5,1.1C72.4,200.7,72.1,200.6,71.9,200.4L71.9,200.4z M62.9,200.6h-0.6c-0.6-1.7-2.1-1.6-2.6-0.2h-0.6
					C60.1,197.8,62.1,198.2,62.9,200.6L62.9,200.6z M64,200.4c-0.5,0-0.9-0.5-0.9-1c0-0.1,0-0.2,0.1-0.2c0.7-0.2,1.4,0,1.8,0.6
					C64.8,200.2,64.4,200.5,64,200.4L64,200.4z M58.5,200.2c-0.2,0-0.3-0.2-0.3-0.3c-0.1-0.3,0.1-0.6,0.4-0.7c0.2-0.1,0.3,0,0.5,0.1
					C59,199.6,58.8,200,58.5,200.2z M71.5,192.8c1.3-0.4,2.1-1.6,1.9-2.9c0-1-0.6-1.8-1.4-2.1c-1.7-0.4-2.8,0.8-4.5,1.2
					c-0.7,0.2-0.6,1.1-0.1,1.5s1.5,0.2,2.8-0.8c2.4-1.9,3,1.7,0.8,2.4C70.6,192.2,70.7,193,71.5,192.8L71.5,192.8z M142.9,110.4
					l-0.9-0.3l0.9-1.1C142.9,109.1,142.9,110.1,142.9,110.4L142.9,110.4z M140.3,106.6l1.9-2.2l-2.6,0.2l1.8-1.9l-2.7-0.1l2-2.1
					l-2.7,0.1l2-2l-2.5-0.1l1.7-1.8l-2.8,0.2l2-2.2l-3,0.1l2.3-2.1h-3l0.9-1l-0.8-0.4c-0.8,0.4-5.5,1.8-5.6,2.9c1,0.3,4.1-1.3,4.3-1
					c1.2,5.4,6.5,17.4,10,20.9l0.2-33.8c0.5-0.5,1.4-0.2,1.9-0.5c1.8,0.1,4.7-2.9,3.2-3.4c-0.8-0.2-5.2-0.9-5.3-1.2
					c-0.6-9.8,0.3-19.7-0.1-30.1c-1.2-0.2-5.3-0.4-5.3-0.4S153,29,153.3,29.3c-0.4,16.8-0.2,49.6,0.1,49.7c-0.1,1-0.2,2-0.3,3.1
					l0.3,104.3c0.1,0.3,0.1,0.5,0.3,0.8c0.3,0.5,0.3,0.6,0.4,2.2c0.1,0.4,0.1,0.8,0,1.2l0,0l-10.2-10.8v-30.4c0,0-9.6-14.3-11.9-21
					c-4.9-9.9-4.4-24.2-7.3-29.7h-0.2c0-0.4,0-0.9-0.2-1.2c-0.2-1.8-0.5-4.2-0.5-4.2l1.1-1.7l-1.2-1.5v-4.1l1.6-1.6l-1.4-1.8
					l0.4-3.8l1.1-1l-0.6-0.9c-0.1-1,0-2,0.2-3c0.2-1.1,1.2-0.9,3.4,0.2c3.1,1.3,6,3,8.7,4.9c-0.1,2-2.6,6.5,0.8,11.5
					c1.3,1,4.9,0.6,5.2,0.7v15.4 M143,108.2l-1.6,0.3l1.7-1.7L143,108.2z M64.4,185.2c0.2-0.1,0.4-0.2,0.5-0.4
					c0.2-0.3,0.6-0.2,1.5-0.1c0.6,0.1,1.3,0,1.9-0.2c0.4-0.3,0.9-0.3,1.3-0.1c0.6,0.3,1.4,0.4,2.1,0.2c0.7-0.3,1.4-0.2,2.1,0.1
					c0.6,0.3,0.8,0.2,0.9-0.3c0.2-0.5,0.4-0.9,0.7-1.4c0.6-0.9,0.5-1.1-0.8-0.7c-1.2,0.4-2.5,0.3-3.7-0.1c-1.1-0.4-2.3-0.2-3.3,0.3
					c-1.1,0.6-2.4,0.5-3.4-0.3c-0.6-0.5-0.6-0.1-0.4,1s0.2,2,0.6,1.9L64.4,185.2z M107.7,181.2c1.2,0,2.1-1,2.1-2.1
					c0-1.2-1-2.1-2.1-2.1c-0.7,0.5-1,4.3-0.1,4.4L107.7,181.2z M66.5,181.2c1.6-0.7,3.4-0.8,5.1-0.4c1.6,0.5,1.2-0.7-0.5-0.9
					c-1.2-0.1-1.1-0.1-0.2-1s-0.2-0.7-0.7-0.2s-2.3,0.4-3.3,0c-0.4-0.2-0.5,0.6,0,0.8c1.3,0.4,1,0.5-0.4,0.9
					C65.9,180.6,65.9,181.4,66.5,181.2L66.5,181.2L66.5,181.2z M107.7,180.5c-0.7-0.2-0.2-2.7,0-2.9c0.8,0,1.4,0.7,1.4,1.5
					c0,0.8-0.7,1.4-1.5,1.4L107.7,180.5z M119,180.4c-0.5,0.2-0.9-0.7-0.9-1.3c0-0.8,0.6-1.4,1.4-1.4c0,0,0,0,0,0c1,0.9,1.1,2,0,2.6
					L119,180.4L119,180.4L119,180.4z M113.4,178.3l4.6-4.6l-4.5-4.6l-4.5,4.6L113.4,178.3z M59.5,176.5c-0.7,0-1.2-0.5-1.2-1.2
					c0-0.7,0.5-1.2,1.2-1.2s1.2,0.5,1.2,1.2c0,0,0,0,0,0C60.7,176,60.2,176.5,59.5,176.5c0,0-0.1,0-0.1,0L59.5,176.5z M113.5,175
					c-0.7,0-1.2-0.5-1.2-1.2s0.5-1.2,1.2-1.2s1.2,0.5,1.2,1.2c0,0,0,0,0,0C114.7,174.4,114.2,175,113.5,175c0,0.1-0.1,0.1-0.1,0.1
					L113.5,175z M65.1,173.8l-3.3-4.4l4-3.6l-0.4,2.3c-1,0.2-1.7,1.2-1.5,2.2c0.1,0.7,0.6,1.2,1.2,1.5L65.1,173.8z M119.4,173.6
					v-1.2l-4.1-4.1l4.1-4.2v-1.2l-5.1,5.4L119.4,173.6z M107.8,173.6l5-5.2l-5-5.3l-0.1,1.4l3.8,4l-3.9,3.9L107.8,173.6z
					 M35.3,172.7c-0.9,0.1-1.7-0.3-2.2-1c-0.1-0.3-0.3-0.6-0.6-0.9c-0.5-0.2-1-0.2-1.5,0.1c0.4,0,0.8,0.1,1.1,0.3
					c0.8,0.7,0.7,1.2-0.5,1.1c-0.4,0-1.4,0-1.4-0.4c-0.2-1.4,1.6-2.4,4-2.2c1.7,0.3,1.7-0.4,1.8-1.3c0.1-0.4,0.3-0.8,0.5-1.1
					c0.6-1.1,0.8-0.9,0.4-1.3c-0.5-0.5-0.8-1.1-0.9-1.8v-5.6c0,0,3.5,0,4.7,0.9c1.3,2.3,2.2,7.4,0.3,10.2c-0.8,0.8-1.7,1.5-2.7,2.1
					c-0.9,0.7-2.1,1.1-3.2,1L35.3,172.7z M55.1,172.1l0.1-1.6c1-0.2,1.7-1.2,1.5-2.2c-0.1-0.7-0.6-1.2-1.2-1.4l0.1-1.4l2.6,3.8
					L55.1,172.1z M65.2,171.1c-0.6-0.3-0.8-1.1-0.5-1.7c0.2-0.3,0.4-0.5,0.7-0.6L65.2,171.1z M119.5,170.5c1.8-0.9,1.2-4.6,0-4.3
					c-1.2,0.1-2,1.2-1.9,2.4C117.8,169.6,118.5,170.4,119.5,170.5L119.5,170.5z M107.8,170.5c1.2,0,2.1-1,2.1-2.1
					c0-1.2-1-2.1-2.1-2.1l0,0C106.2,166.6,107.1,170.3,107.8,170.5L107.8,170.5z M55.2,169.9l0.2-2.3c0.6,0.4,0.8,1.1,0.5,1.7
					C55.7,169.6,55.4,169.8,55.2,169.9L55.2,169.9z M119.5,169.8c-0.8-0.1-1.4-0.8-1.3-1.5c0.1-0.7,0.6-1.2,1.3-1.3
					C120,166.8,120.3,169.5,119.5,169.8L119.5,169.8z M107.7,169.8c-0.9-0.1-0.2-2.5,0-2.9c0.8,0,1.4,0.6,1.4,1.4
					C109.2,169.1,108.5,169.7,107.7,169.8L107.7,169.8z M60,168.4l4.7-4.7l-4.6-5.1l-3.9,4.7L60,168.4z M113.4,167.5l4.5-4.7
					l-4.3-4.4l-4.5,4.8L113.4,167.5z M143.1,164.9l-1.6-1.8h1.7L143.1,164.9L143.1,164.9z M60.3,164.8c-0.7,0-1.2-0.5-1.2-1.2
					c0-0.7,0.5-1.2,1.2-1.2s1.2,0.5,1.2,1.2c0,0,0,0,0,0C61.5,164.2,61,164.7,60.3,164.8L60.3,164.8z M113.5,164.1
					c-0.7,0-1.2-0.5-1.2-1.2s0.5-1.2,1.2-1.2s1.2,0.5,1.2,1.2c0,0,0,0,0,0C114.6,163.6,114.1,164.1,113.5,164.1z M107.6,162.7l5-5.2
					l-4.8-5.1l-0.1,1.2l3.9,3.9l-3.9,4L107.6,162.7z M119.3,162.7l-0.1-1.3l-4-4l4.2-4.3l-0.2-1.1l-5.2,5.4L119.3,162.7z
					 M65.6,161.3l-3.6-3.6l3.6-4v2.1c-1,0.3-1.5,1.4-1.2,2.4c0.2,0.5,0.6,1,1.2,1.2L65.6,161.3L65.6,161.3z M55.6,161.1v-1.5
					c1-0.3,1.6-1.3,1.4-2.3c-0.2-0.7-0.7-1.2-1.5-1.4v-1.2l2.8,3.2L55.6,161.1z M139,160.4c0,0-1.2-1.3-1.6-1.8
					c0.8-0.9,0.6-2.3-0.3-3c-0.4-0.3-0.9-0.5-1.4-0.5c-0.3,0-0.6,0.1-0.9,0.2c-0.2-0.3-1.2-1.7-1.2-1.7l5.7,0.9L139,160.4z
					 M107.7,159.6c1.2,0,2.1-1,2.1-2.1c0-1.2-1-2.1-2.1-2.1C105.5,155.7,105.9,159.5,107.7,159.6L107.7,159.6z M119.5,159.5
					c3-0.3,2.2-4.2,0-4.3c-1.2,0.1-2,1.2-1.9,2.3C117.7,158.6,118.5,159.4,119.5,159.5L119.5,159.5z M55.5,159l-0.1-2.4
					c0.7,0.2,1,0.9,0.8,1.6C56.1,158.5,55.9,158.8,55.5,159L55.5,159L55.5,159z M107.6,158.9c-1.4-0.5-1-2.9,0-2.9
					c0.8,0.1,1.3,0.9,1.2,1.6C108.7,158.3,108.2,158.7,107.6,158.9L107.6,158.9z M119.5,158.8c-0.8-0.1-1.4-0.8-1.3-1.5
					c0.1-0.7,0.6-1.2,1.3-1.3c0.8,0.1,1.3,0.8,1.2,1.6C120.6,158.2,120.2,158.6,119.5,158.8L119.5,158.8z M65.5,158.6
					c-0.6-0.3-0.8-1.1-0.5-1.7c0.1-0.2,0.3-0.4,0.5-0.5V158.6z M136.8,158l-1.7-2.1c0.2-0.1,0.3-0.1,0.5-0.1c0.8,0,1.4,0.7,1.4,1.4
					C137.1,157.5,137,157.8,136.8,158L136.8,158z M60.1,157l3.9-4.7l-4.7-4.2l-3.4,4.2L60.1,157z M113.3,156.5l4.8-4.9l-3.3-3.5
					l1.9,0.2l2.7,2.8l0.1-1l-1.5-1.7l1.6,0.1c0.6-0.9-3-0.9-5-1.2c-2.5-0.4-8.1-2.5-6.8-1l1.4,0.4l-1.3,1.6v1.2l2.3-2.4l0.8,0.2
					l-3.2,3.3l0.2,1l4-4.1l1.2,0.3l-4,4.1L113.3,156.5z M59.9,153.7c-0.7,0-1.2-0.5-1.2-1.2c0-0.7,0.5-1.2,1.2-1.2s1.2,0.5,1.2,1.2
					c0,0,0,0,0,0C61.1,153.1,60.6,153.6,59.9,153.7L59.9,153.7z M113.5,153c-0.7,0-1.2-0.5-1.2-1.2s0.5-1.2,1.2-1.2s1.2,0.5,1.2,1.2
					c0,0,0,0,0,0C114.7,152.5,114.2,153,113.5,153L113.5,153z M140.3,152.7c0,0,0.3-3.9,0.5-5.8l-6.2-1.7l-0.8,6.2L140.3,152.7z
					 M143,152.4h-0.9l0.1-3.6l0.8,0.9L143,152.4z M131.5,150.8c0,0-0.6-1-1.3-2.1c0.8-0.9,0.8-2.2-0.1-3c-0.4-0.4-0.9-0.6-1.4-0.6
					c-0.2,0-0.4,0-0.6,0.1c-0.3-0.5-0.8-1.4-0.8-1.4l5.3,1.6L131.5,150.8z M65.3,150.4l-4.2-3.4l3.2-4l0.2,1.7
					c-1,0.4-1.5,1.4-1.1,2.4c0.2,0.7,0.9,1.2,1.6,1.3L65.3,150.4z M137.1,150.4c-0.7,0-1.2-0.5-1.2-1.2s0.5-1.2,1.2-1.2
					s1.2,0.5,1.2,1.2c0,0,0,0,0,0C138.3,149.8,137.8,150.3,137.1,150.4L137.1,150.4z M54.1,150c1,0,1.9-0.9,1.9-1.9
					c0-1-0.9-1.9-1.9-1.9C53.8,145.9,53.7,149.5,54.1,150L54.1,150z M54.1,149.4c-0.1-0.6-0.2-2.7,0-2.5c0.7,0,1.3,0.5,1.3,1.2
					C55.5,148.8,54.9,149.3,54.1,149.4L54.1,149.4z M129.9,148.1c-0.5-0.8-1-1.6-1.4-2.3h0.3c0.8,0,1.4,0.7,1.4,1.5
					C130.2,147.6,130.1,147.9,129.9,148.1z M65,147.8c-0.7-0.1-1.1-0.8-1-1.5c0.1-0.4,0.3-0.7,0.7-0.9L65,147.8z M59.4,146.7
					l3.5-4.7l-5.3-4.2l-3,5.2L59.4,146.7z M139.5,144.7l-4-1.2l0.8-4.1c0.2,0.4,0.3,0.8,0.6,1.2c-0.6,1-0.2,2.3,0.8,2.9
					c0.3,0.2,0.7,0.3,1,0.3h0.2L139.5,144.7z M133.6,143.7l1.3-6.5l-6-2.4l-1.5,6.9L133.6,143.7z M58.7,143.7
					c-0.7,0-1.2-0.5-1.2-1.2c0-0.7,0.5-1.2,1.2-1.2s1.2,0.5,1.2,1.2c0,0,0,0,0,0C59.9,143.1,59.4,143.7,58.7,143.7
					C58.7,143.7,58.7,143.7,58.7,143.7L58.7,143.7z M138.4,143.1c-0.6-0.2-1.1-0.7-1.1-1.4c0-0.1,0-0.2,0-0.3
					C137.7,142,138.1,142.6,138.4,143.1L138.4,143.1z M53.7,142.9l3.2-6.1l-5.4-3.8l0.4,1.3l3.9,2.9l-2.3,4.2L53.7,142.9z
					 M131,140.7c-0.7,0-1.2-0.5-1.2-1.2s0.5-1.2,1.2-1.2s1.2,0.5,1.2,1.2c0,0,0,0,0,0C132.2,140.2,131.6,140.7,131,140.7
					C131,140.7,131,140.7,131,140.7L131,140.7z M125.4,140.1l-1.3-2.2c0.9-0.7,1.1-2,0.4-3c-0.4-0.5-1-0.9-1.7-0.9
					c-0.2,0-0.3,0-0.5,0.1l-0.9-2l5.5,2.4L125.4,140.1z M52.5,140.1c0.5,0.1,1-0.1,1.3-0.5c0.8-0.7,0.8-1.9,0.1-2.7
					c-0.4-0.4-0.9-0.6-1.4-0.6C51,136.6,51.8,139.9,52.5,140.1z M63.9,139.6l-4.5-3.2l2.6-5.1c0,0,0.3,1,0.6,2.4
					c-0.9,0.4-1.4,1.6-0.9,2.5c0.3,0.7,1,1.1,1.7,1.1l0,0C63.6,138.1,63.8,138.9,63.9,139.6L63.9,139.6z M52.5,139.5
					c-0.8-0.2-0.5-2.4,0-2.5c0.7,0,1.2,0.5,1.3,1.1c0,0,0,0.1,0,0.1C53.7,138.9,53.2,139.5,52.5,139.5
					C52.5,139.5,52.5,139.5,52.5,139.5z M123.8,137.2l-1.2-2.5h0.2c0.8,0,1.4,0.7,1.3,1.5C124.2,136.6,124,137,123.8,137.2
					L123.8,137.2z M63.3,136.6c-0.7-0.1-1.2-0.7-1.1-1.4c0-0.4,0.3-0.7,0.6-1C63,135,63.2,135.8,63.3,136.6L63.3,136.6z M57.4,136
					l3.1-6.1l-5.7-3.5l-2.6,5.9L57.4,136z M133.7,134.8l-3.5-1.6l1-3.6l0.4,0.9c-0.6,1-0.3,2.3,0.7,3c0.3,0.2,0.6,0.3,0.9,0.3
					L133.7,134.8z M128.1,133.1l1.7-6.1l-5.5-2.9l-2.5,6.2L128.1,133.1z M132.8,132.9c-0.5-0.2-0.8-0.7-0.8-1.3c0-0.1,0-0.2,0-0.3
					L132.8,132.9z M56.3,132.4c-0.7,0-1.2-0.5-1.2-1.2c0-0.7,0.5-1.2,1.2-1.2s1.2,0.5,1.2,1.2c0,0,0,0,0,0
					C57.5,131.8,57,132.3,56.3,132.4L56.3,132.4z M51.1,132l2.6-6.4l-6-3.3l0.5,1.2l4.4,2.6l-1.9,4.6L51.1,132z M125.9,129.9
					c-0.7,0-1.2-0.5-1.2-1.2s0.5-1.2,1.2-1.2s1.2,0.5,1.2,1.2c0,0,0,0,0,0C127.1,129.4,126.6,129.9,125.9,129.9L125.9,129.9z
					 M49.3,128.9c1,0,1.9-0.9,1.9-1.9c0-1-0.8-1.9-1.8-1.9c0,0,0,0-0.1,0C47.4,125.2,48.3,128.9,49.3,128.9L49.3,128.9z
					 M120.1,128.7c-0.3-0.6-0.6-1.3-0.9-2c1-0.7,1.2-2,0.6-3c-0.4-0.6-1-0.9-1.6-0.9h-0.2l-0.3-1.3l4.7,2.5
					C121.7,125.6,120.9,127.2,120.1,128.7L120.1,128.7z M49.3,128.3c-0.5-0.2-0.7-2.5,0-2.5c0.7,0,1.3,0.6,1.3,1.3
					C50.5,127.7,50,128.3,49.3,128.3L49.3,128.3z M60.9,127.5l-4.6-2.7l2.3-5l0.7,2.2c-0.9,0.6-1.1,1.8-0.5,2.6
					c0.3,0.5,0.9,0.8,1.5,0.8L60.9,127.5z M119,125.9l-0.7-2.5c0.7,0,1.3,0.7,1.2,1.4c0,0,0,0,0,0
					C119.4,125.3,119.3,125.7,119,125.9L119,125.9z M60.1,124.9c-0.7-0.1-1.1-0.8-1-1.5c0-0.3,0.2-0.5,0.4-0.7L60.1,124.9z
					 M129.2,124.8l-3.6-2.1l1.6-4.2l0.5,1.5c-0.8,0.9-0.7,2.2,0.2,3c0.2,0.2,0.5,0.4,0.9,0.5L129.2,124.8z M54.5,124.7l2.2-5.8
					l-6.3-3.3l-1.6,6L54.5,124.7z M128.6,122.6c-0.5-0.4-0.7-1.1-0.5-1.7L128.6,122.6z M123.9,122.3l2.6-5.9l-5.3-3.5l-2.8,6.2
					L123.9,122.3z M52.5,121.3c-0.7,0-1.2-0.5-1.2-1.2c0-0.7,0.5-1.2,1.2-1.2c0.7,0,1.2,0.5,1.2,1.2
					C53.7,120.8,53.1,121.3,52.5,121.3C52.5,121.3,52.5,121.3,52.5,121.3z M46.2,118.7c0.5-0.4,0.9-1,0.8-1.7c0-1-0.8-1.9-1.9-1.9
					c0,0,0,0,0,0c-0.2,0-0.4,0-0.6,0.1C44,115.9,44.8,118.7,46.2,118.7L46.2,118.7z M122.2,118.9c-0.7,0-1.2-0.5-1.2-1.2
					c0-0.7,0.5-1.2,1.2-1.2s1.2,0.5,1.2,1.2c0,0,0,0,0,0C123.4,118.3,122.9,118.9,122.2,118.9C122.3,118.9,122.2,118.9,122.2,118.9
					L122.2,118.9z M44.9,115.8c0.1,0,0.2-0.1,0.3-0.1c0.7,0,1.2,0.6,1.2,1.3c0,0.4-0.2,0.8-0.5,1C44.9,118.8,44.7,115.6,44.9,115.8
					L44.9,115.8z M115.3,114.8c-0.2-1-0.5-1.9-0.7-2.8c0.1,0,0.2,0,0.3,0c0.8,0.1,1.4,0.8,1.3,1.6
					C116.1,114.1,115.8,114.6,115.3,114.8L115.3,114.8z M49.5,114.1l1.6-6.6l-6.3-2.3l-1.2,6.2L49.5,114.1z M126.1,114l-3.3-2.3
					c0.6-1.4,1.2-2.7,2-4l0.3,1.2c-1,0.7-1.2,2-0.5,3c0.3,0.4,0.8,0.8,1.3,0.9L126.1,114z M55.5,113.7c-0.7,0-1.3-0.6-1.3-1.2
					c0,0,0,0,0,0c0-0.4,0.2-0.7,0.5-0.9c0.3,0.6,0.7,1.2,1,2.1C55.7,113.7,55.6,113.7,55.5,113.7L55.5,113.7z M125.6,112
					c-0.7-0.3-1-1.2-0.7-1.9c0.1-0.1,0.1-0.3,0.2-0.4L125.6,112z M120.6,111l3-5.3l-4.4-3.4l-3.5,5.3L120.6,111z M47.3,110.8
					c-0.7,0-1.2-0.5-1.3-1.1s0.5-1.2,1.1-1.3s1.2,0.5,1.3,1.1c0,0,0,0.1,0,0.1C48.5,110.3,48,110.8,47.3,110.8L47.3,110.8z
					 M41.9,109.1l-0.8-1.2c0.6-0.8,0.5-2-0.4-2.7c-0.4-0.3-1-0.5-1.5-0.3l-0.6-1l3.9,1.5L41.9,109.1z M119.7,107.7
					c-0.7,0-1.2-0.5-1.2-1.2c0-0.7,0.5-1.2,1.2-1.2s1.2,0.5,1.2,1.2c0,0,0,0,0,0C120.9,107.2,120.4,107.7,119.7,107.7
					C119.8,107.8,119.7,107.8,119.7,107.7L119.7,107.7z M40.7,107.4l-1.2-1.8l0,0c0.7-0.1,1.3,0.4,1.3,1.1
					C40.9,106.9,40.9,107.1,40.7,107.4L40.7,107.4z M114.1,107.3l4.3-5.7l-5.7-4.2l0.1,1.3l4.2,3l-3.2,4.2L114.1,107.3z M51.5,105.4
					l-5.7-1.8l1.2-5.7l1.3,2.2c-0.8,0.7-0.8,1.9-0.1,2.7c0.5,0.6,1.3,0.8,2,0.5L51.5,105.4z M113.1,104.4c1.2-0.1,2-1.2,1.9-2.3
					c-0.1-1.1-1-1.9-2.1-1.9c-0.2,0-0.4,0.1-0.4,0.3c0,0.2,0.1,0.4,0.3,0.4c0.1,0,0.1,0,0.2,0c0.8,0,1.4,0.6,1.5,1.4
					c0,0.8-0.6,1.4-1.4,1.5L113.1,104.4L113.1,104.4L113.1,104.4z M43.8,103.8l1-6.5l-6.4-1.4l-0.5,5.9L43.8,103.8z M124,103.6
					l-3-2.2l2.3-3.2l0,1c-1,0.7-1.2,2-0.5,3c0.3,0.4,0.6,0.6,1,0.8L124,103.6z M49.6,102.8c-0.7,0-1.3-0.5-1.3-1.2
					c0-0.3,0.1-0.6,0.3-0.9l1.2,2C49.8,102.8,49.7,102.8,49.6,102.8L49.6,102.8z M69.9,101.9c-0.2,0-0.4-0.1-0.4-0.2
					s1.1-1.2,1.1-1.2l-0.1-1l-1.8,2.1l-0.7-0.3l2.6-2.6l0.1-1l-3.4,3.4l-1.4-0.4l4-3.9l-4.6-4.6l-4.6,4.7l3.2,3.6l-1.6-0.2
					c-0.7-1.1-1.6-2-2.7-2.7l0.1,0.9c0.1,0,1.5,1.4,1.3,1.6l-1.3-0.1c-1.5,0.4,1.8,1,5,1.5C66.2,101.5,71.1,103.6,69.9,101.9l-0.2,0
					l0,0L69.9,101.9z M123.7,101.9c-0.6-0.5-0.7-1.4-0.3-2L123.7,101.9z M41.4,100.8c-0.7,0-1.2-0.5-1.2-1.2c0-0.7,0.5-1.2,1.2-1.2
					s1.2,0.5,1.2,1.2c0,0,0,0,0,0C42.6,100.2,42.1,100.8,41.4,100.8C41.5,100.8,41.4,100.8,41.4,100.8L41.4,100.8z M119,100.6
					l3.7-4.7l-4.2-4l-4.3,5L119,100.6z M36.2,99.5l-0.3-0.1v-3.2l0.5,0.1L36.2,99.5z M65,98c-0.7,0-1.2-0.5-1.2-1.2
					c0-0.7,0.5-1.2,1.2-1.2s1.2,0.5,1.2,1.2c0,0,0,0,0,0C66.2,97.5,65.6,98,65,98C65,98,65,98,65,98z M118.4,97.7
					c-0.7,0-1.2-0.5-1.2-1.2c0-0.7,0.5-1.2,1.2-1.2s1.2,0.5,1.2,1.2c0,0,0,0,0,0C119.6,97.1,119.1,97.7,118.4,97.7z M112.7,96.7
					l4.7-5.7l-5.1-5.3v1.2l4,4.2l-3.7,4.4L112.7,96.7z M59.5,96.2l4.9-5l-4.9-5.1l-0.1,1.2l3.8,3.8l-3.5,3.7L59.5,96.2z M70.2,95.7
					v-1.4l-3.1-3.1l3.2-3.2v-1.4l-4.5,4.6L70.2,95.7z M45.1,95.1L39.4,94l0.3-5.5l1.4,1.7c-0.6,0.9-0.4,2,0.4,2.6
					c0.3,0.2,0.7,0.3,1.1,0.4c0.3,0,0.6,0,0.9-0.1L45.1,95.1z M122.9,94.1l-2.8-3l2.7-3.1v1.1c-1.1,0.5-1.6,1.7-1.2,2.8
					c0.2,0.6,0.7,1,1.2,1.2L122.9,94.1z M112.4,93.3c1.2-0.3,1.9-1.4,1.6-2.6c-0.2-0.8-0.8-1.4-1.6-1.6v0.8c0.7,0.3,1.1,1.1,0.9,1.8
					c-0.1,0.4-0.5,0.7-0.9,0.9V93.3z M70.5,93.1c0.9-0.6,0.5-3.8,0-3.8c-1.1,0-1.9,0.9-1.9,1.9S69.5,93.2,70.5,93.1L70.5,93.1z
					 M59.4,92.8c1,0,1.9-0.9,1.9-1.9S60.4,89,59.4,89C58.5,89.3,58.9,92.7,59.4,92.8L59.4,92.8z M42.6,92.6c-0.7,0-1.3-0.6-1.3-1.3
					l0,0c0-0.2,0.1-0.4,0.2-0.6l1.5,1.8C42.9,92.6,42.8,92.6,42.6,92.6L42.6,92.6z M70.5,92.5c-0.7,0-1.3-0.6-1.3-1.3
					s0.6-1.3,1.3-1.3C70.5,90.4,70.8,92.6,70.5,92.5L70.5,92.5z M122.9,92.2c-0.4-0.3-0.6-0.7-0.6-1.2c0-0.5,0.2-0.9,0.6-1.2
					L122.9,92.2z M59.4,92.2c-0.2-0.5-0.3-2.6,0-2.5c0.7,0,1.3,0.5,1.3,1.3C60.7,91.7,60.1,92.3,59.4,92.2
					C59.4,92.3,59.4,92.3,59.4,92.2z M65.1,90.4l4.6-4.6L65,81l-4.4,4.8L65.1,90.4z M118.2,90.1l4.1-4.5l-4-5.2l-4.6,4.7L118.2,90.1
					z M140.5,90c-1.3,0-2.4-0.2-2.9-1.1c-1.9-2.6-1.4-8,0-9.8c3-2.8,4.7-3.5,8.1-2.8c-0.4,1.6,1.2,2.4,1.5,2c0,0,0.2-0.3,0-0.3
					c-0.6-0.1-1.1-0.7-1-1.3c0-0.1,0-0.2,0.1-0.2c1.3,0,2.1,0,2.3,0.6c0,0.6-0.3,1.2-0.9,1.5c-0.9,0.7-5,0.7-5,0.7
					c0,0.6-0.1,1.3-0.4,1.8c-0.4,0.6-0.9,1.2-0.5,1.5c0.6,0.3,1,1,1.1,1.7c0.2,1.6-0.1,5.5,0,5.5C142,89.9,141.2,90,140.5,90z
					 M65.1,87c-0.7,0-1.2-0.5-1.2-1.2c0-0.7,0.5-1.2,1.2-1.2s1.2,0.5,1.2,1.2c0,0,0,0,0,0C66.3,86.4,65.7,87,65.1,87L65.1,87z
					 M118.1,86.5c-0.7,0-1.2-0.5-1.2-1.2c0-0.7,0.5-1.2,1.2-1.2s1.2,0.5,1.2,1.2c0,0,0,0,0,0C119.3,86,118.8,86.5,118.1,86.5
					L118.1,86.5z M59.5,85.4l4.8-4.9l-5.1-5.4l0.2,1.4l3.7,3.8l-3.6,3.8L59.5,85.4z M70.3,85.3l0.1-1.4L67,80.3l3.1-3.2v-1.6
					l-4.6,4.8L70.3,85.3z M123,83.5l-2.7-3.8l3.2-2.9v1.1c-1.2,0.3-1.9,1.5-1.6,2.6c0.2,0.7,0.6,1.2,1.3,1.5L123,83.5z M112.8,82.7
					c0.1-0.8,0.1-1.4,0.2-2c1.1-0.3,1.8-1.5,1.4-2.7c-0.2-0.6-0.6-1.1-1.1-1.3c0.1-0.6,0.1-1.3,0.2-2.2l3.2,4.8L112.8,82.7z
					 M35.9,82.5l-0.1-13.4L26.1,59V21.2h39.8l10.2,17.3c0.2,0.3,0.5,0.2,0.7,0.5l-3,16.3c-4.8-2.2-8.8,3.5-6.2,8.1
					C52.9,68.9,35.9,82.5,35.9,82.5L35.9,82.5L35.9,82.5z M59.5,82.4c1,0,1.9-0.9,1.9-1.9s-0.9-1.9-1.9-1.9
					C58.1,79.2,58.8,82.4,59.5,82.4z M70.5,82.3c0.5-0.6,0.8-3.8,0-3.8c-1,0-1.9,0.9-1.9,1.9C68.6,81.4,69.4,82.3,70.5,82.3
					C70.5,82.3,70.5,82.3,70.5,82.3z M59.5,81.8c-1-0.7-0.1-2.4,0-2.5c0.7,0,1.3,0.6,1.3,1.3S60.2,81.8,59.5,81.8z M70.5,81.7
					c-0.7,0-1.3-0.6-1.3-1.3s0.6-1.3,1.3-1.3C70.4,79.3,70.8,81.6,70.5,81.7L70.5,81.7z M123.2,81.1c-0.7-0.4-0.9-1.3-0.4-2
					c0.2-0.2,0.4-0.4,0.6-0.5L123.2,81.1z M113,79.8c0.1-0.9,0.1-1.7,0.2-2.4c0.7,0.4,0.8,1.3,0.4,2C113.4,79.6,113.2,79.8,113,79.8
					L113,79.8z M65.1,79.4l4.5-4.5L65,70l-4.4,4.7L65.1,79.4z M118.5,78.3l4.7-3.8l-3-4.7l-1.1-0.6l-4.3,3.7L118.5,78.3z M137.3,78
					L126.3,72c0,0,2.9-1.2,2.8-3.1c-0.1-2.2-1.4-3.9-4-3.2c-0.6,0.1-0.8-0.2-1.4-1.5c-1.1-2.5-2.1-5.3-1.7-5.2
					c0.8,0.8,1.7,1.4,2.8,1.9c1.6,0.6,3.4-0.3,4-1.9c0.3-0.8,0.2-1.6-0.1-2.3c-0.9-2.1-2.3-2.2-3.8-2c-0.2-0.1-0.4-0.3-0.5-0.6
					c-0.8-1.7-1.4-3.4-1.7-5.2c-0.8-4-1-9-0.4-10.3c0.9-1.7,2-4.1,2-4.1c2.3,4.4,7.3,8.3,13,6.9c0.2-0.3,0.2-0.8,0-1.1
					c-1.8-2.4-2.1-4.6-2.8-7c-1.7-6.1-5.1-9.6-5-9l1.8-3.2c0,0,15.4-0.1,21.6,0v7.4l-16.5,17l6.5,0.3L142.5,75
					C140.2,75.4,137.4,77.9,137.3,78L137.3,78z M65.1,76.1c-0.7,0-1.2-0.5-1.2-1.2c0-0.7,0.5-1.2,1.2-1.2s1.2,0.5,1.2,1.2
					c0,0,0,0,0,0C66.3,75.6,65.7,76.1,65.1,76.1C65.1,76.1,65.1,76.1,65.1,76.1z M119,74.9c-0.7,0-1.2-0.5-1.2-1.2
					c0-0.7,0.5-1.2,1.2-1.2s1.2,0.5,1.2,1.2c0,0,0,0,0,0C120.2,74.4,119.6,74.9,119,74.9L119,74.9z M70.3,73.8l-0.1-1.2L67,69.2
					l3-3.1c0.4-0.6,1.6-0.5,1.9-0.5c-0.2-0.8-0.9-0.7-1.6-0.9L66,69.2L70.3,73.8z M70.3,71.1c0.8-0.2,0.7-3.6,0-3.8
					c-1,0-1.9,0.9-1.9,1.9S69.3,71.1,70.3,71.1z M59.2,70.6c-0.1-0.8-0.1-1.7,0-2.5c0.8,0,1.5,0.4,1.5,1.3c0,0.8-0.7,1.5-1.5,1.5
					C59.2,70.8,59.2,70.8,59.2,70.6L59.2,70.6z M70.3,70.5c-0.7,0-1.3-0.6-1.3-1.3s0.6-1.3,1.3-1.3C70.5,68.3,70.7,70.5,70.3,70.5
					L70.3,70.5z M109.2,69.8c0.2,0,0.4,0,0.7,0c0.7,0,1.5,0.5,1.7,0.4c0.2-0.2,0.2-0.5,0.1-0.7c-0.2-0.2-0.5-0.3-0.7-0.4
					c-0.3-0.2-0.2-0.3,0.1-0.4c0.3,0,0.6-0.2,0.8-0.4c0.1-0.2,0.1-0.5-0.1-0.5c-1.3,0-3,0.6-4.5,0c-0.5-0.3-1.1-0.4-1.6-0.4
					c-0.3,0.3,0.8,1.3,1.8,1.4s1.4,0.1,1,0.4c-0.1,0.1-0.3,0.1-0.4,0.2c0,0.3,0.2,0.6,0.5,0.7C108.7,70.2,108.9,70.1,109.2,69.8
					L109.2,69.8L109.2,69.8z M103.6,66.7c0.2,0,0.3-0.1,0.5-0.2c0.6-0.4,1.5-0.9,3.8-0.3c1.1,0.3,2.3,0.2,3.4-0.2
					c0.7-0.3,1.5-0.3,2.3,0c0.7,0.3,1.5,0.9,1.3,0.3c-0.1-0.5-0.1-0.9-0.1-1.4c0-1.1-0.1-2-0.9-1.2c-0.3,0.4-0.8,0.4-1.5,0.1
					c-0.4-0.3-0.9-0.3-1.4-0.1c-0.7,0.4-1.5,0.5-2.2,0.1c-0.6-0.2-1.2-0.1-1.8,0.2c-0.7,0.5-1.6,0.3-2.1-0.3
					c-0.1-0.1-0.1-0.2-0.2-0.3c-0.3-0.6-0.5,0.2-1.1,1.9C103.3,66.1,103.2,66.7,103.6,66.7L103.6,66.7z M108.9,60.6
					c0.6-0.3,1.4-0.5,2.1-0.8c1.3-0.9,0.1-1.7-0.8-1.5c-0.5,0.1-0.9,0.3-1.3,0.6c-1.6,1.1-2.5,0.9-2.7-0.4s2-2,1.8-2.7
					c-0.3-0.4-1.3,0.2-2,1C104.1,59.5,106.2,62.1,108.9,60.6L108.9,60.6z M100.5,53.2c2.6-0.3,5-1.2,7.2-2.6c1.3-1,1.7-1.3,1.1-1.7
					s-0.9-0.4-0.2-1.1c0.3-0.3,0.5-0.6,0.7-0.9c0-0.5-3.1-2-4.9-2.3c-1.6-0.2-3.2,0-4.8,0.5c-1.6,0.6-1.6,1.1-0.1,0.6
					c1.3-0.4,2.6-0.6,4-0.5c1.1,0.1,2.2,0.4,3.2,0.8c1.9,0.7,1.6,1.5-0.3,0.8c-2.5-1-5.2-0.9-7.6,0.2c-1,0.5-1.3,0.8-1.5,0.7
					c-0.1-0.1-0.1-0.2-0.2-0.4c-0.1,0.5-0.2,0.9-0.2,1.4c-0.1,0.8-0.2,1.9-0.2,1.9c0.1-0.2,0.1-0.4,0.2-0.7c0-1.4,0.7-1.4,2.6-0.3
					c2.2,1.2,3.3,1.1,5.4,1.1c0.9,0,1,0.3-0.3,0.7c-0.6,0.2-1.6,0.5-3,1C100.2,52.8,99.9,53.2,100.5,53.2z M117.3,50.4
					c-0.8,0-1.5-0.7-1.7-2l0.8,0.1c0.3,2,1.7,1.5,2.3,0.4h0.7C119,49.6,118.3,50.2,117.3,50.4L117.3,50.4z M115.3,50.2
					c-0.7-0.2-1.4-0.5-1.9-0.9c-0.1-0.2,0.5-0.5,1-0.7s0.5-0.2,0.7,0.2S115.7,50.2,115.3,50.2L115.3,50.2z M119.2,50.1
					c0.1-0.5,0.4-0.9,0.8-1.1c0.2-0.1,0.4,0.1,0.5,0.3c0,0.1,0,0.3-0.1,0.4C120,49.8,119.2,50.4,119.2,50.1L119.2,50.1L119.2,50.1z
					 M103.5,50c-1.1-0.1-2-1.1-2-2.2h0.5c0.5,2.6,2.4,2,2.9,0.2l0.6,0.1C104.9,49.4,104.2,50,103.5,50L103.5,50L103.5,50z
					 M105.5,49.8c-0.3,0-0.2-0.2,0.1-0.9c0.1-0.3,0.3-0.5,0.6-0.5c0.3,0,0.6,0.2,0.8,0.5c0.1,0.3-0.2,0.5-0.8,0.7
					C105.9,49.8,105.7,49.8,105.5,49.8L105.5,49.8z M101.2,49.7c-0.3-0.1-0.7-0.2-1-0.3c-1.3-0.6-1.5-0.8-0.8-1.2
					c0.2-0.1,0.5-0.2,0.8-0.3c0.6-0.2,0.6,0.1,0.8,0.6c0.1,0.2,0.2,0.5,0.3,0.7S101.5,49.7,101.2,49.7L101.2,49.7z M120.5,47.5
					c-0.6-0.2-1.1-0.4-1.7-0.6c-1.5-0.4-3.1-0.3-4.6,0.3c-0.8,0.2-1,0.4-0.7,0c0.7-0.6,1.6-1,2.6-1.2c2-0.5,4.5,0.4,4.5,1.4
					C120.6,47.5,120.6,47.5,120.5,47.5L120.5,47.5L120.5,47.5z M114,45.8c-0.2,0,0-0.3,0.4-0.8c0.7-0.7,1.6-1.2,2.6-1.4
					c2.1-0.4,3.8,0.2,3.9,1.4c0,0.8-0.1,0.9-1.2,0.3c-1.4-0.5-3-0.5-4.4,0c-0.4,0.1-0.8,0.3-1.2,0.5L114,45.8L114,45.8L114,45.8z
					 M97.9,44.7c1.6-0.4,3.3-0.8,4.8-1.2c1.8-0.3,3.6-0.1,5.3,0.6c0.9,0.5,1.3,0.2,0.8-0.7c-0.3-0.8-1-1.4-1.9-1.6
					c-1.7-0.6-5.8,0.4-8.8,2C96.4,44.6,96.8,45.1,97.9,44.7L97.9,44.7L97.9,44.7z M124.1,32.7l-2.7,4.7c-18.4-3.6-38.3-1-44.4-0.1
					c0,0-6.7-11.1-9.1-15c-0.2-0.4-0.8-1.8-0.8-1.8l62.9,0c-0.9,1.8-1.7,4.1-1.7,4.1c1.9,0.8,3.4,3.7,4.3,6.1
					c0.8,2.1,2.2,7.4,4.1,9.9C133.4,42.3,125.3,38.2,124.1,32.7L124.1,32.7z"/>
				<path id="path3302-0-9-2" class="st3" d="M67.6,20.9h62.3l-8.1,16.3c-14.9-2.2-30-2.1-44.8,0.3L67.6,20.9L67.6,20.9z
					 M152.8,34.1l0.1,7.8l-8.1-0.2L152.8,34.1z M84.7,86.7l-0.1,23.7c-3.1-2.3-6.4-4.4-9.7-6.4l0.1-24.6L84.7,86.7z M111.8,91.9
					c0.6,13.4,2.5,18.7,3.8,25.5l-11.6,7.5V97.3L111.8,91.9z M143.4,115.4l-0.1,33.1c-10.6-15.4-17.3-31-19.2-52
					c2.9-1.2,5.7-2.5,8.7-3.5C135.6,100.8,139.2,108.3,143.4,115.4L143.4,115.4z M35.9,101.8c9.8,12.5,15.7,29.2,18.8,49.8l-9,4.4
					c-3-7.3-6-15-9.8-21L35.9,101.8L35.9,101.8z M74.2,124v27.6l-7.7,5c-0.4-8.6-1.7-17.2-3.8-25.5L74.2,124z M94.4,138.5
					c2.8,2.2,5.8,4.1,9.1,5.6l-0.5,24.5l-8.7-6.7L94.4,138.5z M33.5,207.6c0,0-5.4,5.5-7.4,7.3v-7.5L33.5,207.6z M101.5,211.2
					l10.1,17.3L48.5,229l8.1-17.4C73.3,214.7,87.6,213.3,101.5,211.2L101.5,211.2z"/>
				<path id="path3300-3-9-0" d="M72.6,55.8c-1.3,0.8-2.4,1.9-3.2,3.3c-1.1,2.2-0.1,4.3-0.4,4.3c-2-0.6-1.4-4.5-0.7-5.7
					c0.6-1,1.7-1.7,2.9-1.9C72.4,55.6,72.6,55.9,72.6,55.8L72.6,55.8L72.6,55.8z M69.3,64.3c0.3,0,0.6,0.1,0.8,0.3
					c0.3,0.3,0.6,0.5,1.1,0.6c0.3,0,0.5,0,0.5,0.2s-0.1,0.2-0.7,0.1c-0.4,0.1-0.7,0.2-1,0.5v36.5c-3.4-1.2-6.8-1.9-10.4-2.3
					l-0.2-32.5c0,0-4.8,2.5-6.5,3.5l-0.1,29.1l-3.4,0.4l5.4,11c0.8-0.6,11.3,0.4,14,2.1l-9.7,6.1c1,3,1.9,5.9,2.7,8.9
					c0,0.1,0.2,0.1,0.2,0.2c0.2,0.7,0.3,1.1,0.5,1.8c0,0.1,0,0.4,0,0.5c2.2,8.3,3.5,16.8,3.8,25.3c-0.1,0-0.2,0-0.3,0l0.1,5.2
					l0.3-0.2v2.4l-0.3,0.4c0,0.5,0,1.3,0,1.3l0.4,0.3l-0.2,4l-0.5,0.1l-0.3,6.2l12.2-8c0,0,8,5.8,11.5,8.7c-3.8,2.6-4.9,7.8-5.8,12
					c-0.8,3.7-1.3,7.4-1.6,11.2c-0.3,3.8-0.8,7.5-1.4,11.3c-0.3,1.5-0.3,1.6,0.1,1.7c0.2,0,0,0.1-0.3,0.1
					c-7.8,0.3-16.3-0.9-23.7-1.8c0,0-1.8,3.5-2.5,4.7c-0.2-0.7-0.5-1.3-0.8-2c-1.2-1.9-2.8-3.5-4.8-4.6c-1.2-0.6-2.5-1.1-3.9-1.3
					c-1-0.1-2,0.1-2.9,0.5c-0.3,0.1-0.5,0.2-0.6,0.5c0.1,0.3,0.3,0.5,0.6,0.6c0.3,0.3,0.6,0.7,0.8,1.1c0.8,1.5,1.4,3.1,1.8,4.7
					c1.3,3.5,2.3,7.6,5.3,9.5l-2.1,4.2h65.1l-10.1-17.1c0,0-0.3-0.5-0.4-0.7c-0.3-0.5-0.4-0.5-0.4-0.5c0.6-5.9,1.6-11.8,2.8-17.6
					c0,0,0.1,0.5,2,0.4c5.6-0.1,7.6-6.3,2.9-9.1c-0.4-0.3-1.2-0.8-1.9-1.2c-0.2-0.1-2.9-1.7-2.9-1.7l3.2,1.4l0.2-37.5
					c0,0,6.7,2,11.1,2.2v32.5l6.2-3.4l0.3-29.1l3.4-0.2c0,0-1.3-2.7-1.6-3.3c-0.6-1.1-2-3.7-3-5.3c-0.3-0.6-1.2-1.9-1.2-1.9
					c-4.6,0-9.1-0.9-13.3-2.7l9.7-6.4c-4.1-11.5-9.1-28.3-6.3-55.4l-0.7,0.4l-0.1,2.9l-12.1,8.4L85.5,72.8h1.3
					c3.8,0.1,6.5-3.8,7.4-7c1.6-5.8,1.8-7.2,2.6-16.3c0.4-3.5,0.9-7.1,1.7-10.5c0.2-0.6,0.3-1.3,0.3-1.9c-7.2-0.2-14.3,0.4-21.3,1.9
					c0,0-2.5,12-3.4,17c-0.7-0.4-1.5-0.7-2.3-0.7C65.8,55.9,66.3,64,69.3,64.3L69.3,64.3L69.3,64.3z M95.5,228.2l-3.1-10.9l7.5-0.7
					l6.3,11.5L95.5,228.2z M49.1,228.4l7.8-16.5c16.3,2.3,25.7,2.5,44.5-0.2l9.8,16.4h-2.6l-7.4-13.2l-11,1.1l3,12l-2.9,0.1l-3-11.8
					l-17,0.1c-0.6,4-1.6,11.7-1.6,11.7h-3.1l2.1-12l-10-1.3l-5.8,13.4L49.1,228.4z M70.9,228.2l1-10.1L86,218l2.2,10.2H70.9
					L70.9,228.2z M53.9,228.4l4.8-11.9l7,0.9l-1.9,10.8L53.9,228.4z M45.3,216.7c-0.3-1-0.6-2-0.7-2.2c-1.1-3.1-1.6-4.1-2.3-5.1
					c-0.1-0.2-0.2-0.1,0-0.3c3.4-1.7,9.6,2.5,11.1,6.2c-0.2,0.4-1,1.9-1,1.9c-0.4-0.9-0.1-1.7-0.4-2.4c-0.1-0.3-0.8,2.2-0.8,2.2
					c-0.5-1-0.8-2.1-0.8-3.3c0-0.3-0.9,1.4-0.9,1.4c-0.7-1.2-1-2.6-1-4.1c-1.2,1.5-0.5,2.4-2.4-1.5c-0.2,0.4-0.1,0.8-0.4,0.7
					c-0.8-0.4-1.6-0.7-2.5-0.8c0.6,0.7,1.7,1.1,2,2c-0.3,0-0.6,0-0.9,0c1,0.4,1.9,1.1,2.7,2c-0.2,0.1-1.1-0.1-1.1,0
					c1.3,1.2,3.3,2.2,0.4,1.9c1.9,1.3,4,2.2,0.7,2.1c2.3,1.1,2.9,1.8,2.5,2c-0.7-0.1-1.3-0.1-2,0c1.9,0.8,2.6,1.1,2.7,1.4
					s-0.8,0.5-1.4,1.1c0.4-0.1,0.8,0,1.1,0.2c0,0-0.4,1.1-0.6,1.7c-2.4-2.2-3.3-5.2-3.9-7.2l0,0L45.3,216.7z M25.3,220.9l15.7-17
					l-5.1-0.1l-0.2-30.7c-1.8-0.2-4.8,0-6-1.2c-0.7-1.1,2.1-3.2,3.6-2.7c0.8,0.2,1.6,0.2,2.3,0.1l-0.1-34.1c3.3,6.2,5.9,10.2,9.6,21
					c-1.1,0.8-2.2,1.3-2.4,1.5c1.4,3.4,2.4,8.9,0.4,13.6l-1.4-0.8c1.2-3.6,1.1-7.5-0.3-11.1l-0.4,0.4c0.3,0.5,0.5,1.1,0.7,1.7
					c0.3,0.9,0.5,1.8,0.6,2.8c0.1,1.6,0,3.3-0.4,4.9c-0.2,0.5-0.4,1.2-0.5,1.4c-0.1,0.2-0.2,0.3-0.2,0.5c4,1.6,6.9,4,10.4,5.8
					l0.3,0.2c0.4,0.2,0.3,0.3-0.4,0.6c-1.5,0.6-2,1.3-2,2.7c0,2,1.1,2.8,3.5,2.7c0.8,0,0.9,0,1.1,0.3c0.3,0.7,1.6,3.4,1.6,3.5
					c0.2,0.5,0.4,0.9,0.6,1.4c0.5,1.1,1,2.2,1.3,3.4c0.1,0.6,0.4,0.8,0.5,0.2c0.3-3.2,1.1-6.3,2.3-9.3c0.2-0.5,0.4-1,0.6-1.4
					c-0.1-0.1-2-1-2.8-1.3c-3.4-1.4-5-2.3-4.4-2.5c0.4-0.2,0.7-0.7,0.6-1.1c0.2-1.9,0.2-2.9-0.1-3.5s-0.3-0.7,0.2-1s0.4-0.3,0.5-1.9
					c0.1-1,0.1-2.1,0-3.1l-0.8-1.1l0.9-1.1l0.2-5l-1.2-0.9l1.1-1.1l-0.4-4.5c0.1-0.2,0.2-0.4,0.3-0.5c-1.8-19.1-9-38.4-19.6-51.5
					l-0.1-31.4L24.9,58.7L25.3,220.9z M26.1,218.9v-2.5l8.9-9.6l-8.9-0.2v-2.1h13.6L26.1,218.9z M26.2,214.7v-6.9h6.6L26.2,214.7z
					 M87.1,211.2l-1.4,0.1c0.1-1.4,0.6-7.8,1.3-13.5c0.7-6.4,2.3-11.9,2.6-11.9l1.3,0.8C88.7,194,88.1,203.4,87.1,211.2L87.1,211.2
					L87.1,211.2z M80.8,211.4c0.2-3.9,1-6.7,1.3-11.4c0.3-5.7,1.3-12.8,3.8-18.6c0.9-2.1,2.5-3.8,4.7-4.7c3.9-1.5,7.2,3.3,4.6,6.9
					c-2.1,2.8-5.3,2.8-6.3-0.1c-0.8-2.4,1.8-5.3,3.9-4.4c1.5,0.6,1.1,3.3-0.6,3.9c-0.7,0.3-1.2-0.6-0.9-1.4c0.3-0.6,0.3-1-0.1-0.7
					c-1.5,1-0.4,3.6,1.5,2.6c2.4-1.2,2-4.9-0.4-5.1c-3.1-0.3-5.5,3.6-7.1,10.9c-1.7,8.2-1.3,15.6-2.9,22L80.8,211.4z M84.8,211.3
					h-1.6c0.1-0.6,0.2-1.3,0.3-2c0.7-4.3,1-10.6,1.7-15.6c0.9-7,2.6-11.2,2.7-10.7c0.2,0.8,0.6,1.5,1.1,2.2
					c-1.5,4.2-2.4,8.5-2.8,12.9C85.7,202.7,85.5,207,84.8,211.3L84.8,211.3z M91.8,210.9l-1.4,0.1c0.4-7.1,1.3-14.2,2.7-21.2
					c0.2-1.1,0.3-1.6,0.5-1.6s0.6,0.3,1.5,0.8C93.8,188.7,92.7,204.6,91.8,210.9L91.8,210.9z M89.6,211l-1.6,0.1
					c0.2-3.3,0.8-8.6,1.4-13.3c0.8-5.7,1.8-10.8,2.3-10.7l1.3,0.4C92.2,187.3,90,204.4,89.6,211L89.6,211z M92.6,210.8
					c1-7,1.1-15.2,3.2-21.7l1.5,0.7c-0.4-0.1-1.4,4.2-1.8,9.2c-0.3,4.3-1.1,9-1.3,11.6L92.6,210.8z M95,210.6c0.6-2.5,0.6-6.1,1-9.1
					c0.5-3.8,1.1-11.4,2-11.2l1.5,0.8c-0.8-0.2-2.2,14.2-3,19.4L95,210.6z M98.9,210l-1.5,0.2c0.7-5.6,2.1-18.8,2.8-18.9l1.4,0.8
					C100.5,198,99.6,203.9,98.9,210L98.9,210z M99.9,209.8c0.6-6.2,1.2-12.5,2.5-17.3l1.6,0.7c0,0-1.1,5.3-1.6,9s-0.6,4.2-0.7,5.2
					c-0.1,0.7-0.2,1.5-0.4,2.2L99.9,209.8z M33.1,203.4l0.2-29.8l1.7,0.1L35,203.4L33.1,203.4z M29.1,203.1c-0.7,0-1.2-0.5-1.2-1.2
					c0-0.7,0.5-1.2,1.2-1.2c0.7,0,1.2,0.5,1.2,1.2c0,0,0,0,0,0C30.3,202.6,29.8,203.1,29.1,203.1C29.1,203.1,29.1,203.1,29.1,203.1z
					 M56.9,192.2c-1.2-2.2-2.2-3.1-3.2-3.5c-1.5-0.5-3.2,0.3-3.7,1.8c-0.2,0.7-0.2,1.4,0,2c0.5,1.4,1.8,1.6,3.5,1.3
					c0,0,0.7,0.5,1.5,3.1c0.7,2.1,1.6,4.1,2.5,6.1C57.7,199.2,58.6,195.3,56.9,192.2L56.9,192.2z M27.3,200.3
					c-0.7,0-1.2-0.5-1.2-1.2c0-0.7,0.5-1.2,1.2-1.2c0.7,0,1.2,0.5,1.2,1.2c0,0,0,0,0,0C28.5,199.8,28,200.4,27.3,200.3
					C27.4,200.4,27.4,200.4,27.3,200.3L27.3,200.3z M30.6,200.3c-0.7,0-1.2-0.5-1.2-1.2c0-0.7,0.5-1.2,1.2-1.2
					c0.6,0,1.2,0.5,1.2,1.1C31.8,199.8,31.3,200.3,30.6,200.3C30.6,200.3,30.6,200.3,30.6,200.3L30.6,200.3z M57,200.6
					c-1.1-2.3-1.3-4-2.4-6.1c-0.5-0.9-0.9-1.7-0.9-1.7c-3.5,1.6-4.8-2.5-2-3.8s5.9,3.6,5.6,9C57.3,198.9,57.2,199.8,57,200.6
					L57,200.6L57,200.6z M29,197.5c-0.7,0-1.2-0.5-1.2-1.2c0-0.7,0.5-1.2,1.2-1.2c0.7,0,1.2,0.5,1.2,1.2c0,0,0,0,0,0
					C30.2,197,29.7,197.5,29,197.5C29.1,197.5,29,197.5,29,197.5L29,197.5z M25.9,195.3v-2.5l6.2-6v2.5L25.9,195.3z M107,193.3
					c-1.2,0-1.7-0.4-1-0.7c2.6-1,3.7-2.7,3.9-5.6c0-1.5-0.2-1.6,0.7-0.8C112.9,189.5,109.7,193.4,107,193.3L107,193.3z M104.9,192.3
					c-0.3,0-0.6,0-0.9-0.1c-0.7-0.2-0.4-0.2,0.7-1c2.2-1.5,2.9-2.9,3-5.9c0-0.4-0.1-0.8,0-1s0.2-0.1,0.3-0.1
					c0.4,0.1,0.7,0.5,0.8,0.9C110.3,187.9,107.7,192.2,104.9,192.3L104.9,192.3L104.9,192.3z M102.5,191.3c-0.2,0-0.3,0-0.5-0.1
					c-0.6-0.3-0.3-0.3,0.7-1c1.7-1.2,2.7-3.1,2.9-5.2c0.1-1.3-0.9-2.9,0.9-1.6c1.3,1.1,1,3.8-0.3,5.7
					C105.2,190.3,103.9,191.1,102.5,191.3L102.5,191.3L102.5,191.3z M25.9,191.9V189l6.2-5.9v3L25.9,191.9z M100.5,190.4
					c-0.7,0-1-0.5-0.2-1c2-1.4,3.2-3.7,3.1-6.2c-0.1-1.5-0.2-1.8,0.8-0.8c1.6,1.6,0.5,6-2.6,7.6
					C101.2,190.3,100.9,190.4,100.5,190.4z M98.5,189.6c-1.2,0-1.3-0.6-0.3-1.3c2-1.4,3.2-3.6,3.2-6c0-1,0.1-1.1,0.5-0.8
					c2.3,1.7-0.2,7.8-3.2,8.1H98.5z M57.9,189.4c-0.3,0-0.8-1-1.6-3.1c-0.6-1.6-1.3-3.2-2.2-4.7c-0.3,0-0.5,0.1-0.8,0.3
					c-2.6,1.4-4.4-2.5-1.9-4c1.8-1,3.5,0.1,5.1,3.3c1.9,3.8,2.4,6.6,1.5,8.1C58,189.3,57.9,189.3,57.9,189.4L57.9,189.4L57.9,189.4z
					 M96.4,188.4c-0.3,0-0.6-0.1-0.9-0.3c-0.7-0.4-0.6-0.6,0.5-1.2c0.9-0.4,1.6-1.1,2.1-1.9c0.8-1.1,1.2-2.5,1.1-3.8
					c0-1.5,0.4-1.6,1.3-0.2C102,183.2,98.9,188.2,96.4,188.4L96.4,188.4L96.4,188.4z M93.8,187c-1,0-1.7-0.4-0.7-0.9
					c3.1-1.6,4.4-4,3.8-6.9c-0.2-0.9,0.8-0.1,1.5,1.1c0.9,1.8-0.8,5.3-3.1,6.4C94.8,186.9,94.3,187,93.8,187
					C93.8,187,93.8,187,93.8,187z M58.8,184.3c-0.2,0-0.4-0.5-0.9-1.8c-0.3-0.8-0.8-1.8-1-2.2c-0.2-0.2-0.3-0.5-0.3-0.8
					c0.2-0.3,1.6,0.2,2.1,0.7c0.8,1,1,2.4,0.5,3.6C59.1,184,59,184.2,58.8,184.3L58.8,184.3L58.8,184.3z M29.1,182.1
					c-0.7,0-1.2-0.5-1.2-1.2c0-0.7,0.5-1.2,1.2-1.2c0.7,0,1.2,0.5,1.2,1.2c0,0,0,0,0,0C30.3,181.6,29.8,182.1,29.1,182.1
					C29.1,182.1,29.1,182.1,29.1,182.1z M150.2,180.2c-0.7,0-1.2-0.5-1.2-1.2s0.5-1.2,1.2-1.2s1.2,0.5,1.2,1.2c0,0,0,0,0,0
					C151.4,179.6,150.9,180.2,150.2,180.2C150.2,180.2,150.2,180.2,150.2,180.2L150.2,180.2z M101.4,179.8c-1.3,0-1.7-0.6-1.9-2.5
					c-0.2-1.4-0.4-1.5-2.6-1.1s-3-0.2-3.1-2.6c-0.1-1.8-0.1-1.8-2.7-1.9s-2.8-0.3-3.1-2.9c-0.2-1.9-0.1-1.9-2.6-1.8
					c-2.7,0-3-0.2-3.2-2.6c-0.2-2-0.3-2.1-2-1.9c-1.8,0.1-3.6,0.1-5.4,0c-1.4-0.3-1.5-0.3-1.8,1.7c-0.4,2.6-0.9,2.9-4.1,2.6
					c-1.6-0.2-1.7-0.1-2,1.2c-0.3,1.8-0.7,2.4-0.7,0.8c0-4,0.3-4.2,2.9-3.5c2,0.5,2,0.1,2.2-1.8c0.2-1.7,0.5-2.4,1.1-2.7
					c0.9-0.1,1.9-0.1,2.8,0.2c1.2,0.1,2.4,0.1,3.6,0.1c4.4,0,4.5-0.1,4.5,3.1c0,1.3,0.3,1.6,2.6,1.5c2.9-0.1,2.8-0.2,3.2,3.4
					c0.2,1.2,0.3,1.3,2.7,1.2c2.6,0,3.2-0.1,3.1,2.1c-0.1,2,0.3,2.6,2.5,2s2.8,0.4,3,2.3s0.3,1.3,1.5,1.3s1.1,1.5-0.2,1.6
					C101.7,179.7,101.5,179.7,101.4,179.8L101.4,179.8L101.4,179.8z M27.3,179.2c-0.7,0-1.2-0.5-1.2-1.2s0.5-1.2,1.2-1.2
					s1.2,0.5,1.2,1.2c0,0,0,0,0,0C28.5,178.7,27.9,179.2,27.3,179.2C27.3,179.2,27.3,179.2,27.3,179.2L27.3,179.2z M30.6,179.1
					c-0.7,0-1.2-0.5-1.2-1.2c0-0.7,0.5-1.2,1.2-1.2c0.7,0,1.2,0.5,1.2,1.2c0,0,0,0,0,0C31.8,178.6,31.2,179.1,30.6,179.1
					C30.6,179.2,30.6,179.2,30.6,179.1L30.6,179.1z M148.4,177.1c-0.7,0-1.2-0.5-1.2-1.2s0.5-1.2,1.2-1.2s1.2,0.5,1.2,1.2
					c0,0,0,0,0,0C149.6,176.6,149.1,177.2,148.4,177.1C148.5,177.2,148.5,177.2,148.4,177.1L148.4,177.1z M151.8,177.1
					c-0.7,0-1.2-0.5-1.2-1.2s0.5-1.2,1.2-1.2s1.2,0.5,1.2,1.2c0,0,0,0,0,0C152.9,176.6,152.4,177.1,151.8,177.1
					C151.8,177.2,151.8,177.2,151.8,177.1L151.8,177.1z M90,176.1l-12.3-9.2l-11.6,7.8l0.1-2.9l11.5-7.7l14.6,11.3L90,176.1z
					 M28.9,176c-0.7,0-1.2-0.5-1.2-1.2c0-0.7,0.5-1.2,1.2-1.2c0.7,0,1.2,0.5,1.2,1.2c0,0,0,0,0,0C30.1,175.5,29.6,176,28.9,176
					L28.9,176z M49,174.4l-2.9-4.8l2.9-2.1l-2.7-3.4l2.8-2.9l-3.1-2l2.9-4.1l4.1-1.8l-4.1,5.4l3.4,2.3l-3.2,3.4l2.9,3.8l-3,2.3
					l3.2,5.3l-0.2,0.2L49,174.4z M102.9,175.5l-21.6-16.2c0,0-2-1.5-2.6-1.9c-1.2-0.8-1.4-0.5-2.7,0.4c-2.7,1.6-9.3,6.1-9.3,6.1
					l0.1-2.3c0,0,6.6-5,10.3-7.1c0.5-0.2,1.1-0.1,1.5,0.3c8,6.4,16.2,12.6,24.3,18.8L102.9,175.5z M53.3,175.2
					c-0.1-0.2-0.4-0.2-0.5-0.4c-1-1.5-2.7-4.1-2.7-4.1l3-2.4l-2.8-3.7l3.5-3.6l-3.6-2.4c1.1-1.8,2.4-3.5,3.9-5v2.6l-1.3,1.8l1.6,1.1
					v3.6l-1.7,1.8l1.5,1.6l-0.3,4l-1.5,1.2l1.2,1.6L53.3,175.2z M150.2,174.4c-0.7,0-1.2-0.5-1.2-1.2s0.5-1.2,1.2-1.2
					s1.2,0.5,1.2,1.2c0,0,0,0,0,0C151.4,173.9,150.8,174.4,150.2,174.4C150.2,174.4,150.2,174.4,150.2,174.4L150.2,174.4z
					 M26.1,170.1l6-5.6v2.6l-6,5.9V170.1z M146.7,172.8v-3.1l6.4-6v3L146.7,172.8z M26.1,169.3v-3l6-5.7v3L26.1,169.3z M33.2,168.8
					l-0.1-98.6l-7-7.4v-2.5l8.8,9.2l0.2,99.2L33.2,168.8z M146.7,169.1v-3.4l6.4-5.9v3.3L146.7,169.1z M102.9,168.5l-8.4-6.6v-23.1
					c2.7,2.1,5.7,3.9,8.8,5.5L102.9,168.5z M28.9,161c-0.7,0-1.2-0.5-1.2-1.2c0-0.7,0.5-1.2,1.2-1.2c0.7,0,1.2,0.5,1.2,1.2
					c0,0,0,0,0,0C30.1,160.5,29.6,161,28.9,161C28.9,161,28.9,161,28.9,161L28.9,161z M91.8,159.9v-23.6l1.6,1.6l0.1,23.4
					L91.8,159.9z M149.7,159.6c-0.7,0-1.2-0.5-1.2-1.2s0.5-1.2,1.2-1.2s1.2,0.5,1.2,1.2c0,0,0,0,0,0
					C150.9,159.1,150.4,159.6,149.7,159.6C149.8,159.7,149.8,159.7,149.7,159.6L149.7,159.6z M27.3,158c-0.7,0-1.2-0.5-1.2-1.2
					c0-0.7,0.5-1.2,1.2-1.2c0.7,0,1.2,0.5,1.2,1.2c0,0,0,0,0,0C28.5,157.4,28,158,27.3,158C27.4,158,27.4,158,27.3,158L27.3,158z
					 M30.7,157.8c-0.7,0-1.2-0.5-1.2-1.2c0-0.7,0.5-1.2,1.2-1.2c0.7,0,1.2,0.5,1.2,1.2c0,0,0,0,0,0
					C31.9,157.3,31.4,157.8,30.7,157.8C30.7,157.8,30.7,157.8,30.7,157.8L30.7,157.8z M90.9,157.9l-5.1-4.8l5.3-5.1v2.3l-3,2.9
					l3,3.1L90.9,157.9z M88.9,157.5l-4.3-3.2l0.7-0.8L88.9,157.5z M147.9,156.8c-0.7,0-1.2-0.5-1.2-1.2s0.5-1.2,1.2-1.2
					s1.2,0.5,1.2,1.2c0,0,0,0,0,0C149.2,156.2,148.7,156.8,147.9,156.8L147.9,156.8z M151.4,156.7c-0.7,0-1.2-0.5-1.2-1.2
					s0.5-1.2,1.2-1.2s1.2,0.5,1.2,1.2c0,0,0,0,0,0C152.6,156.2,152.1,156.7,151.4,156.7L151.4,156.7z M66.7,156.3
					c-0.8-9.4-1.4-16-3.8-24.9l11.2-7.2l-0.1,27.4L66.7,156.3z M36,134.7v-32.4c10.5,15.1,16.2,32.7,18,49.3c0,0-5.7,2.6-8.4,4.2
					C42.8,149,44,149,36,134.7z M28.8,154.9c-0.7,0-1.2-0.5-1.2-1.2c0-0.7,0.5-1.2,1.2-1.2c0.7,0,1.2,0.5,1.2,1.2c0,0,0,0,0,0
					C30,154.4,29.4,154.9,28.8,154.9L28.8,154.9z M149.7,153.7c-0.7,0-1.2-0.5-1.2-1.2s0.5-1.2,1.2-1.2s1.2,0.5,1.2,1.2c0,0,0,0,0,0
					C150.9,153.1,150.4,153.7,149.7,153.7C149.7,153.7,149.7,153.7,149.7,153.7L149.7,153.7z M83.9,153.8l-4.1-3.1v-2.4l4.9,4.7
					L83.9,153.8z M85.3,152.5l-5.1-5.1l5.4-5.4l5.3,5L85.3,152.5z M46.7,152.3l4.9-2c-1.9-17.2-6.8-30.1-13.4-40.6l-0.2,24.1
					C41.5,139.3,44.1,145.9,46.7,152.3L46.7,152.3L46.7,152.3z M26,152v-2.7l6.1-5.7v2.7L26,152z M85.3,150.5l3.3-3.2l-3.3-3.2
					l-3.2,3.2L85.3,150.5z M146.7,150.8V148l6.1-5.9v3.1L146.7,150.8z M78,149.2v-27.5l1.4-0.7l-0.1,28.8L78,149.2z M85.4,148.8
					l-1.5-1.5l1.6-1.5l1.5,1.5L85.4,148.8z M26,148.5v-3.1l6.2-5.8l0.1,3L26,148.5z M94,136.8c-6.3-5.5-11.2-13.9-16.6-18.6
					c-3.1-2.4-6.6-4.4-10.3-5.7c-2.9-1-5.9-1.5-9-1.5c-2.6,0-2.6-0.1-2.6-0.1l-1.1-1.9h1.8l0.1-6.9c-1.9-0.1-3.8,0-5.6,0.2l-0.7-1.3
					c12.1-1.4,24.2,2,33.7,9.6c3.5,2.9,6.4,6.5,9.9,11.6c6.7,10.5,18.5,15.6,29.5,15.7l0.9,1.4l-1.8-0.1c-0.1,1.2-0.2,2.4-0.2,3.6
					c0,2.5,0,3,0.2,3c1.7,0.2,3.5,0.1,5.2-0.1l0.8,1.5C115.1,148.7,102.2,144.1,94,136.8L94,136.8L94,136.8z M146.7,147.2v-2.8
					l6.1-5.8v2.8L146.7,147.2z M79.7,146.9l0.2-2.5l2.9-2.9l-3.1-3l0.1-2.1l5.5,5.1L79.7,146.9z M119.5,146c0.2,0,0.3,0,0.5-0.1
					c0.1-0.1,0-1.2,0.3-5.1c0.1-1.4,0.2-1.4-1-1.6c-1,0-3.3-0.6-4.8-0.8c-1.3-0.2-1,0.2-1.3,1.2s-0.6,2.1-1.1,3.7s-0.2,1.5,2.6,2
					C116.3,145.7,117.9,146,119.5,146L119.5,146z M91.1,146.3l-4.9-5l4.9-5l0.1,2.4c-1,0.9-2,1.8-2.9,2.7l2.9,2.9V146.3L91.1,146.3z
					 M115.9,144.7l-0.5-0.9l-1.3-0.2l0.2-0.9l-0.7-0.9l0.8-0.6v-1.1h1l0.9-0.6l0.7,0.9h1l-0.1,1.2l0.7,0.6l-0.8,0.7l0.1,1.1
					l-1.2-0.2L115.9,144.7z M123.9,143.2l-0.8-0.5l0.8-0.6v-0.9l0.5-0.4l1.8,3.5l-1.2-0.5l-0.9,0.6L123.9,143.2z M109.5,144
					c0.6,0,0.7-1.2,1.4-3.4c0.9-3.1,1-2.8-0.8-3.4c-0.8-0.3-2.4-0.8-3.2-1.2c-2-0.9-2-0.9-2.8,0.3c-0.3,0.6-1,2-1.4,2.7
					c-1.1,1.8-1.1,1.7,0.9,2.7c1.2,0.6,1.9,0.8,4.4,1.8C108.5,143.8,109,143.9,109.5,144L109.5,144L109.5,144z M107.5,142l-0.9-0.6
					l-1,0.4l-0.2-1.1l-1.1-0.4l0.3-1l-0.5-0.8l0.9-0.2l0.7-1.4l1,0.7l1.1-0.4l0.3,0.8l1.1,0.5l-0.4,0.9l0.5,1.2l-1.2,0.1L107.5,142z
					 M85.6,140.9l-5.4-5.4l5-5l5.4,5.4L85.6,140.9z M28.8,139.9c-0.7,0-1.2-0.5-1.2-1.2c0-0.7,0.5-1.2,1.2-1.2
					c0.7,0,1.2,0.5,1.2,1.2c0,0,0,0,0,0C29.9,139.4,29.4,139.9,28.8,139.9L28.8,139.9z M100.2,139.7c0.4-0.1,0.7-0.5,0.8-0.9
					c0.1-0.2,0.8-1.5,1.4-2.5c1.4-2.2,1.4-2.1,0-3c-1.1-0.8-2.1-1.6-3.1-2.6c-1.1-1-1-0.8-3.3,1.6c-1.5,1.5-2.5,2-1.9,2.8
					c1.4,1.2,2.6,2.2,4.2,3.4C98.8,139,99.5,139.4,100.2,139.7L100.2,139.7L100.2,139.7z M85.5,139.1l3.2-3.2l-3.6-3.3l-3,3.1
					L85.5,139.1z M140.5,140.1v-24.8c-3.5-6.1-7.2-12.2-9.1-19.1l-5.2,2.6C128.7,119.1,134.5,130.3,140.5,140.1z M149.7,138.5
					c-0.7,0-1.2-0.5-1.2-1.2s0.5-1.2,1.2-1.2s1.2,0.5,1.2,1.2c0,0,0,0,0,0C150.9,138,150.4,138.6,149.7,138.5
					C149.7,138.6,149.7,138.6,149.7,138.5L149.7,138.5z M85.3,137.2l-1.6-1.4l1.4-1.6l1.6,1.6L85.3,137.2z M27.3,137
					c-0.7,0-1.2-0.5-1.2-1.2c0-0.7,0.5-1.2,1.2-1.2c0.7,0,1.2,0.5,1.2,1.2c0,0,0,0,0,0C28.5,136.5,28,137,27.3,137
					C27.4,137,27.4,137,27.3,137L27.3,137z M30.5,136.9c-0.7,0-1.2-0.5-1.2-1.2c0-0.7,0.5-1.2,1.2-1.2c0.7,0,1.2,0.5,1.2,1.2
					c0,0,0,0,0,0C31.7,136.3,31.2,136.9,30.5,136.9C30.5,136.9,30.5,136.9,30.5,136.9L30.5,136.9z M99.5,137l-0.9-0.7l-1.1,0.4
					l-0.1-1.2l-1-0.5l0.6-0.9l-0.4-1.2h1l0.8-1.1l0.7,0.7l1.4-0.1l0.2,1.2l0.6,0.5L101,135l0.5,1.1l-1.2,0.1L99.5,137z M151.5,135.6
					c-0.7,0-1.2-0.5-1.2-1.2s0.5-1.2,1.2-1.2s1.2,0.5,1.2,1.2c0,0,0,0,0,0C152.7,135.1,152.2,135.6,151.5,135.6
					C151.5,135.7,151.5,135.7,151.5,135.6L151.5,135.6z M148.1,135.6c-0.7,0-1.2-0.5-1.2-1.2s0.5-1.2,1.2-1.2s1.2,0.5,1.2,1.2
					c0,0,0,0,0,0C149.3,135.1,148.7,135.6,148.1,135.6C148.1,135.6,148.1,135.6,148.1,135.6L148.1,135.6z M79.8,132.8l2.8-2.7
					l-2.8-2.9l0.1-2.2l4.9,4.9l-5,4.9L79.8,132.8z M107.6,133.4l10.6-7l0.6,1.8l-9.4,6.2L107.6,133.4z M29,133.9
					c-0.7,0-1.2-0.5-1.2-1.2c0-0.7,0.5-1.2,1.2-1.2c0.7,0,1.2,0.5,1.2,1.2c0,0,0,0,0,0C30.2,133.4,29.6,133.9,29,133.9
					C29,133.9,29,133.9,29,133.9L29,133.9z M92.3,133.2c0.5,0,1-0.6,1.9-1.6s2-2.2,2.3-2.3c0.7-0.5,0.7-0.6-0.6-2.1
					c-0.4-0.4-1.1-1.3-1.6-2s-1.3-1.5-1.5-1.7c-0.5-0.6-0.8-0.4-3.2,1.3c-2.9,2.1-2.9,1.8-0.2,5.2C90.9,132,91.7,133.3,92.3,133.2
					L92.3,133.2z M149.8,132.5c-0.7,0-1.2-0.5-1.2-1.2s0.5-1.2,1.2-1.2s1.2,0.5,1.2,1.2c0,0,0,0,0,0
					C151,132,150.5,132.5,149.8,132.5C149.8,132.5,149.8,132.5,149.8,132.5L149.8,132.5z M87.8,132.1l-1.9-2.1l0.2-0.2L87.8,132.1z
					 M26.1,131.6V128l5.9-5.5v3.3L26.1,131.6z M92,130.6l-0.7-1l-1.2,0.1l0.2-1.2l-0.6-0.5l0.6-0.9l0.1-1.1l1,0.2l0.8-1l0.8,1l1-0.1
					v1.2l1,0.6l-0.7,0.8v1.3l-1.4,0.1L92,130.6z M62.9,130.5l-0.6-1.8l14.7-9.6l1.3,1.5L62.9,130.5z M101.3,129.3l-1.2-0.9l15.4-10
					l0.5,1.3L101.3,129.3z M146.5,129.7v-3l6.5-6.3v3.1L146.5,129.7z M85.3,128.9l-0.2,0.2l-5-4.9l1-1L85.3,128.9z M99.3,127.5
					l-0.1-28.8l1.3,0.9l-0.1,27.3L99.3,127.5z M98.5,126.9l-1.1-1l1-1L98.5,126.9z M26.1,127.1v-2.9l5.9-5.6v3.1L26.1,127.1z
					 M146.5,125.7V123l6.5-6.3v2.8L146.5,125.7z M85.8,125.3c0.2,0,0.5-0.1,0.6-0.3c0.2-0.2,0.8-0.6,1.3-0.9
					c1.2-0.7,2.3-1.5,3.3-2.4c0.1-0.3-1.6-2.7-4.1-5.5c-1-1.1-0.9-1.3-1.9-0.3c-0.8,0.9-3.6,3.3-3.5,3.9s1.1,1.6,3.6,4.9
					C85.2,125,85.5,125.2,85.8,125.3L85.8,125.3z M96.7,125l-3.9-5.6l0.5-0.5l4.8,4.7L96.7,125z M104.3,124.4V97.5l7.3-5.2
					c-0.1-0.1,0.9,16.1,3.7,24.8L104.3,124.4z M86.2,123.4l-0.7-1.3l-1.1,0.2l0.1-1.2l-0.9-0.7l1-1.2l-0.1-0.9l1,0.2l1-1l0.7,1.3
					h1.4l-0.2,1.2l1,0.8l-1.1,0.6l-0.2,1.1l-0.9-0.1L86.2,123.4z M79.9,123.2l-0.1-1.1l0.7,0.6L79.9,123.2z M98.5,121.3v1.6
					l-4.6-4.5l4.7-4.5v2.1l-2.7,2.6L98.5,121.3z M60.2,122.1l-0.7-2l9.5-5.9l1.9,1L60.2,122.1z M28.9,118.8c-0.7,0-1.2-0.5-1.2-1.2
					c0-0.7,0.5-1.2,1.2-1.2c0.7,0,1.2,0.5,1.2,1.2c0,0,0,0,0,0C30.1,118.3,29.5,118.8,28.9,118.8C28.9,118.8,28.9,118.8,28.9,118.8
					L28.9,118.8z M89.5,115l3.3,3.4l-0.4,0.5L89.5,115z M80.8,118c1.1-1,3.6-3.8,3.6-4.2s-3.3-3.4-5.4-4.7c-0.6-0.4-0.9-0.4-1.1-0.1
					c-3.5,5.2-3.6,5-2.2,6.1c1.3,1.2,2.7,2.3,4.2,3.2C80.3,118.5,80.4,118.4,80.8,118L80.8,118L80.8,118z M93.4,117.7l-5.5-5.3
					l5.1-5l5.3,5.7L93.4,117.7z M149.7,117.3c-0.7,0-1.2-0.5-1.2-1.2c0-0.7,0.5-1.2,1.2-1.2c0.7,0,1.2,0.5,1.2,1.2c0,0,0,0,0,0
					C150.9,116.8,150.3,117.3,149.7,117.3C149.7,117.3,149.6,117.3,149.7,117.3L149.7,117.3z M80,116.2l-0.9-0.8l-1.1,0.3l-0.2-1.1
					l-1.1-0.4l0.6-1.1l-0.1-1.4l1.1,0.2l0.8-1.2l1.1,1.1l1.2-0.1l-0.1,1.2l1.1,0.5l-0.7,0.8l0.4,1.1l-1.3-0.2L80,116.2z M27.3,115.8
					c-0.7,0-1.2-0.5-1.2-1.1c0-0.7,0.5-1.2,1.1-1.2c0.7,0,1.2,0.5,1.2,1.1c0,0,0,0,0,0.1C28.5,115.2,27.9,115.8,27.3,115.8
					C27.3,115.8,27.3,115.8,27.3,115.8L27.3,115.8z M96.3,112.9l-3.3-3.4l-3,2.9l3.2,3.4L96.3,112.9z M30.6,115.7
					c-0.7,0-1.2-0.5-1.2-1.2c0-0.7,0.5-1.2,1.2-1.2c0.7,0,1.2,0.5,1.2,1.2c0,0,0,0,0,0C31.8,115.2,31.3,115.7,30.6,115.7
					C30.6,115.7,30.6,115.7,30.6,115.7L30.6,115.7z M151.3,114.5c-0.7,0-1.2-0.5-1.2-1.1c0-0.7,0.5-1.2,1.1-1.2s1.2,0.5,1.2,1.1
					c0,0,0,0.1,0,0.1C152.5,114,151.9,114.5,151.3,114.5C151.3,114.5,151.3,114.5,151.3,114.5L151.3,114.5z M147.9,114.5
					c-0.7,0-1.2-0.5-1.2-1.2c0-0.7,0.5-1.2,1.2-1.2c0.7,0,1.2,0.5,1.2,1.2c0,0,0,0,0,0C149.1,113.9,148.5,114.5,147.9,114.5
					C147.8,114.5,147.8,114.5,147.9,114.5L147.9,114.5z M93.2,114.2l-1.5-1.5l1.4-1.5l1.5,1.6L93.2,114.2z M73,113.1
					c0.8-0.6,2.8-4.5,3.2-5.3c-0.6-0.6-1.4-1.1-2.2-1.4c-1.1-0.5-4.5-1.9-4.8-2c-0.7-0.2-0.8,0.1-0.9,0.6c-0.1,0.2-0.3,1.2-0.6,2.2
					c-1.1,3.5-1.4,3.3,0.2,3.8c0.6,0.2,2.3,0.8,3.3,1.3C71.7,112.6,72.3,112.9,73,113.1L73,113.1z M29,112.5c-0.7,0-1.2-0.5-1.2-1.2
					c0-0.7,0.5-1.2,1.2-1.2c0.7,0,1.2,0.5,1.2,1.2c0,0,0,0,0,0C30.2,112,29.7,112.5,29,112.5C29,112.5,29,112.5,29,112.5L29,112.5z
					 M85.4,110.9l-0.3-23.3L87,89v23.4L85.4,110.9z M93.5,106.9l5-5.1v2.6l-2.8,2.6l2.9,3l-0.1,2C96.8,110.4,95.1,108.7,93.5,106.9
					L93.5,106.9z M149.8,111.4c-0.7,0-1.2-0.5-1.2-1.2c0-0.7,0.5-1.2,1.2-1.2c0.7,0,1.2,0.5,1.2,1.2c0,0,0,0,0,0
					C151,110.8,150.5,111.4,149.8,111.4C149.8,111.4,149.7,111.4,149.8,111.4L149.8,111.4z M72.4,111.4l-1-0.8l-0.8,0.5l-0.5-0.9
					l-1.3-0.1l0.6-1.3l-0.7-1l1.2-0.2l0.3-1.4l1.2,0.7l0.9-0.4l0.6,1.2l1.4,0.1l-0.8,1.3l0.7,1l-1,0.1L72.4,111.4z M87.8,111.3v-2.1
					l2.1-2.2l-2.2-2.4v-2.4l4.5,4.6L87.8,111.3z M64.5,110c0.5,0,0.5-0.5,0.8-2.1c0.1-0.3,0.3-1.3,0.5-2c0.7-2.4,0.7-2.4-1.3-2.8
					c-1.2-0.2-6.3-1.4-6.4-0.6c-0.1,1.4-0.2,4.7-0.2,5.8c-0.1,0.3,0,0.6,0.3,0.7c0,0,0,0,0.1,0C60.6,109.4,63.2,110,64.5,110
					L64.5,110L64.5,110z M84.4,109.9c-2.9-2.1-5.9-4.1-9-5.8l-0.1-24l9.2,6.8L84.4,109.9z M26.1,109.8v-2.9l6.1-5.9v2.8L26.1,109.8z
					 M61.9,108.8l-0.5-1.1l-1.1,0.4v-1.4l-1-0.6l1.2-0.6l0.1-1.7l1.2,0.4l1-0.6l0.9,0.9h1.1l-0.4,1.5l0.7,0.7l-1,0.5l-0.1,1.3
					l-1.1-0.7L61.9,108.8z M146.3,109.1v-2.8l6.6-6.1v2.5L146.3,109.1z M53.6,107.3l-1.5-2.5l0.5-1l1,0.5l1.1-0.4l-0.2,1.3l0.8,0.7
					l-0.9,0.8v1L53.6,107.3z M92.9,106.4l-5.1-5.3l5.2-5.4l5.1,5.4L92.9,106.4z M26.1,103.1l6.1-5.7v2.8l-6.1,5.8
					C26.1,106,26.1,103.1,26.1,103.1z M146.3,105.4v-2.8l6.6-6.3v2.6L146.3,105.4z M92.9,104.4l3.3-3.3l-3.3-3.3l-3.3,3.3
					L92.9,104.4z M92.9,102.5l-1.5-1.4l1.3-1.4l1.5,1.4L92.9,102.5z M98.5,100.5l-5.1-5.2l0.6-0.7l4.4,3.5L98.5,100.5L98.5,100.5z
					 M87.7,100.1l-0.1-2.3l2.8-2.4l-2.5-2.7l-0.1-2.4l4.8,5L87.7,100.1z M28.8,97.7c-0.7,0-1.2-0.5-1.2-1.2c0-0.7,0.5-1.2,1.2-1.2
					c0.7,0,1.2,0.5,1.2,1.2c0,0,0,0,0,0C30,97.2,29.5,97.7,28.8,97.7C28.9,97.7,28.9,97.7,28.8,97.7z M149.5,96.3
					c-0.7,0-1.2-0.6-1.1-1.2s0.6-1.2,1.2-1.1c0.6,0,1.2,0.6,1.1,1.2C150.7,95.8,150.2,96.3,149.5,96.3
					C149.5,96.3,149.5,96.3,149.5,96.3z M125.3,95.5l3.7-5.6l-2.9-2l2.8-3.8l-2.9-3.5l2.9-2.5l-3-5.1c1.3,0.4,2.5,0.9,3.6,1.6
					l2.2,4.3l-2.6,2.2l2.6,3l-2.7,3.2l2.7,1.9l-3,4.6L125.3,95.5z M27.5,94.8c-0.7,0-1.2-0.5-1.2-1.2c0-0.7,0.5-1.2,1.2-1.2
					c0.7,0,1.2,0.5,1.2,1.2c0,0,0,0,0,0C28.6,94.3,28.1,94.8,27.5,94.8C27.5,94.8,27.5,94.8,27.5,94.8z M100.7,94.9L75,75l0.1-2.6
					l25.7,19.9l10.9-7.8l-0.1,2.8L100.7,94.9z M30.6,94.6c-0.7,0-1.2-0.5-1.2-1.2c0-0.7,0.5-1.2,1.2-1.2c0.7,0,1.2,0.5,1.2,1.2
					c0,0,0,0,0,0C31.8,94.1,31.3,94.6,30.6,94.6C30.6,94.6,30.6,94.6,30.6,94.6L30.6,94.6z M90.5,92.1l0.3-0.1l2.7,2.1l-0.6,0.7
					C92.8,94.8,91,92.8,90.5,92.1z M147.8,93.2c-0.7,0-1.2-0.5-1.2-1.1c0-0.7,0.5-1.2,1.1-1.2s1.2,0.5,1.2,1.1c0,0,0,0.1,0,0.1
					C148.9,92.7,148.4,93.2,147.8,93.2L147.8,93.2z M151,93.2c-0.7,0-1.2-0.5-1.2-1.2c0-0.7,0.5-1.2,1.2-1.2c0.7,0,1.2,0.5,1.2,1.2
					c0,0,0,0,0,0C152.1,92.7,151.6,93.2,151,93.2C150.9,93.2,150.9,93.2,151,93.2L151,93.2z M28.9,91.7c-0.7,0-1.2-0.5-1.2-1.2
					c0-0.7,0.5-1.2,1.2-1.2c0.7,0,1.2,0.5,1.2,1.2c0,0,0,0,0,0C30,91.1,29.5,91.7,28.9,91.7z M149.5,90.3c-0.7,0-1.2-0.5-1.2-1.2
					c0-0.7,0.5-1.2,1.2-1.2c0.7,0,1.2,0.5,1.2,1.2c0,0,0,0,0,0C150.7,89.8,150.2,90.3,149.5,90.3z M26.1,88.1v-2.6l5.8-5.6v2.5
					L26.1,88.1z M103.9,87.3c-0.9,0-2,0-3.6-0.1c-1.3,0-2.8-0.1-3.2-0.1c-1.8,0-2.4-0.6-2.5-2.6c0-1.8,0-1.8-2.3-1.9
					c-2.8-0.1-3.5-0.8-3.6-3.5c0-1-0.8-1.4-2.5-1.2c-2.6,0.4-3,0-3.3-2.4c-0.2-2-0.1-1.9-2.4-1.9c-2.5,0-3.1-0.4-3.1-2.3
					c0-1.1-0.3-1.5-1.3-1.6s-1.5-0.6-1-1.2c0.4-0.2,0.9-0.2,1.3-0.2c1.6,0,2.1,0.5,2.4,2.3c0.2,1.3,0.3,1.3,2.5,1.3
					c2.7-0.1,2.9,0.1,3.2,2.5c0.2,2,0.6,2.2,2.9,1.8c1.7-0.3,2.6,0.4,2.8,2.3c0.2,2.2,0.3,2.2,2.8,2.3s3.1,0.5,3.1,2
					c0,2.3,0.3,2.5,3.3,2.4c1.3,0,2.5,0,3.8,0.1c1.8,0.2,1.8,0.2,2-1.5c0.3-2.6,0.7-2.8,4.1-2.6c1.4,0.1,1.5,0,1.6-1.1
					c0.1-1.4,0.6-2.2,1-1.7c0.2,0.3,0.2,0.3,0,2.3c-0.2,2.2-0.2,2.2-3.2,2c-2-0.2-1.9-0.2-2.1,1.6C106.5,86.8,106.5,87.3,103.9,87.3
					L103.9,87.3L103.9,87.3z M146.2,87.5v-2.8l6.7-6.3v2.8L146.2,87.5z M125.3,84.1l-1.5-2l0.5-3.7l1.2-0.9l-0.9-1.8l0.3-2.2
					l0.3-0.2l2.4,4.8l-2.9,2.6l3,3.6l-2.8,3.8l2.9,2l-3.5,5.2c-0.6,0.7-0.6-2.2-0.6-2.2l1.4-2.2l-1.6-1.4l0,0V86L125.3,84.1z
					 M123.5,85.9l-0.2,4.7l1.3,1l-1,1.6l0.1,4.2l0.3,0.2c2.4,29.8,16.9,47.4,19.2,51.3c0.4,0.4,0.5,0.9,0.4,1.4c0,0.4-0.1,3.1,0,5.8
					c0.1,14.1,0,23.8,0,23.8l10.6,11.4l-0.1-4.2l-0.5-0.4v-19h0.4c0,0,0.1-5.1,0.1-8.6l-0.7-0.1V146l0.5-0.1v-8.5h-0.5
					c0,0-0.1-8.9,0.1-13.2h0.4v-8.4h-0.5v-12l0.6-0.1l-0.2-7.9h-0.5c-0.2-4.9-0.1-13.4-0.1-13.4h0.6l-0.1-7.9h-0.4l0.1-13.9h0.4
					l-0.1-8.2h-0.4l0.1-6.8h0.3l0.1-2.5l-0.3-0.7v-9.1l0.2-0.1l0.1-4.5l-16.5,16.8l6.1,0.2v5.4c0,9-0.1,16.2,0.1,24.9
					c0.4,0.1,0.9,0.2,1.3,0.2c3.1,0.2,4,0.4,4,1.2c0,0.9-1.4,2.1-2.6,2.1c-0.3,0-0.5,0.1-0.7,0.3l0.4,99.4l7.4,7.8v2.5l-9.1-9.7
					l-0.3-99.4l-0.4,0.2V114c-4.7-7-7.3-14-9.9-20.9l-1,0.3l0.3,0.1c2.3,7.8,5.8,15.3,10.4,22.1l-0.1,32.3
					c-11.1-15.8-16.5-30-18.8-50.5l5.6-2.8l0.6-0.7l4.3-2.1l0.2,0.4l2.6-1.8c-2-3.5-1.9-8.5-0.3-11.2l-0.7-0.4
					c-1.6,3.6-1.5,7.7,0.3,11.2l-1.9,1.2c-2.8-5.8-1.5-12-0.2-13.6c0,0-2-1.3-3.4-2.1c-1.5-0.9-3.2-1.7-4.9-2.3
					c-0.6-0.3-1.3-0.3-1.9,0.1l-0.6,3.2l0.9,1.2l-1,0.8l-0.6,5l1.1,1.1L123.5,85.9z M26.1,84.5v-3.2l5.8-5.5V79L26.1,84.5z
					 M146.3,81.1l6.7-6.2v2.6l-6.7,6.4C146.3,83.9,146.3,81.2,146.3,81.1z M28.5,76.9c-0.7,0-1.2-0.5-1.2-1.2c0-0.7,0.5-1.2,1.2-1.2
					c0.7,0,1.2,0.5,1.2,1.2c0,0,0,0,0,0C29.6,76.4,29.1,76.9,28.5,76.9z M143.6,75V45.7h1.8l-0.1,29.7L143.6,75z M149.5,75.3
					c-0.7,0-1.2-0.6-1.1-1.2s0.6-1.2,1.2-1.1c0.6,0,1.2,0.6,1.1,1.2C150.7,74.8,150.2,75.3,149.5,75.3
					C149.5,75.3,149.5,75.3,149.5,75.3z M30.1,74.1c-0.7,0-1.2-0.5-1.2-1.2c0-0.7,0.5-1.2,1.2-1.2c0.7,0,1.2,0.5,1.2,1.2
					c0,0,0,0,0,0C31.3,73.6,30.8,74.1,30.1,74.1C30.1,74.1,30.1,74.1,30.1,74.1z M26.9,74.1c-0.7,0-1.2-0.5-1.2-1.2
					c0-0.7,0.5-1.2,1.2-1.2c0.7,0,1.2,0.5,1.2,1.2c0,0,0,0,0,0C28.1,73.6,27.6,74.1,26.9,74.1C26.9,74.1,26.9,74.1,26.9,74.1z
					 M147.7,72.3c-0.7,0-1.2-0.5-1.2-1.2s0.5-1.2,1.2-1.2c0.7,0,1.2,0.5,1.2,1.2C148.8,71.8,148.3,72.3,147.7,72.3
					C147.7,72.3,147.7,72.3,147.7,72.3z M86.8,72.3c-6.2-0.8-4.5-7.3-1.9-8.6c3.5-1.7,6.4,1.7,4.1,5.1c-1.7,2.5-4.8,0.8-3.6-1.9
					c0.7-1.5,2.1-1.3,2.1,0.2c-0.5,1.5,0,0.9,0.3,0.4c1.2-1.6-1.3-3.4-2.6-1.8c-0.7,0.9-1,2-0.7,3.1c0.5,1.6,2.3,2.5,4.4,1.1
					c2.5-3,3.8-6.9,4.5-11.2c1.6-9.2,1.6-18.9,3-21.4H98c-2.1,10.5-2.1,19.6-4.4,27.9C92.5,69.3,89.6,72.3,86.8,72.3L86.8,72.3z
					 M150.9,72.2c-0.7,0-1.2-0.5-1.2-1.2c0-0.7,0.5-1.2,1.2-1.2c0.7,0,1.2,0.5,1.2,1.2c0,0,0,0,0,0C152,71.7,151.5,72.2,150.9,72.2
					L150.9,72.2z M125.8,72.1c1.7,0,3.1-1.4,3.1-3.1c-0.1-2.1-1.4-3-3.4-2.8c-1.1,0.1-1.1,0.1-1.8-1.2c-1-2.3-1.8-4.6-2.4-7
					c0.8,1.1,2.8,3.2,4.6,3.1c1.8-0.1,3.6-2,2.1-4.6c-0.8-1.2-2.3-1.7-3.6-1.1c-2.1-3.3-2.5-6.6-3.2-10.4c0,0-0.8,8.2-1.1,11.4
					c-0.5,5-1.2,8.2-3.1,12.2c1.6,0.9,3.3,1.7,5,2.3c0.7,0.2,1.4,0.4,2.1,0.7C124.7,72,125.3,72.1,125.8,72.1L125.8,72.1z
					 M28.2,71.4c-0.7,0-1.2-0.6-1.1-1.2c0-0.7,0.6-1.2,1.2-1.1c0.6,0,1.1,0.5,1.1,1.2C29.5,70.8,28.9,71.4,28.2,71.4L28.2,71.4z
					 M122.5,68.8c-1.3-2-2.1-4.3-2.4-6.7c0-1.3,0.2-2.7,0.4-4c0.1-0.7,0.3,0,0.8,1.5c1.9,6.1,2.4,7.2,3.8,6.9
					c0.7-0.2,1.4-0.2,2.1,0.1c1.7,0.9,1.8,4.1-0.6,4.7C124.6,71.7,123.3,69.9,122.5,68.8L122.5,68.8L122.5,68.8z M122.5,70.3
					c-2.4-1-4-2.4-3.6-4.8c0.2-0.9,0.3-1.6,0.6-1.5c0.2,0.1,0.7,1.2,1.4,3c0.3,0.6,2,3.3,1.7,3.3L122.5,70.3z M81.9,70.2
					c-0.2-0.1-0.4-0.2-0.5-0.4c-1.9-1.9-0.9-6.2,1.7-7.5c1.1-0.7,3-0.6,3,0.1c0,0.3-0.1,0.3-0.3,0.3c-2.2,0-4.5,3-3.8,6.2
					C82.1,69.4,82.2,69.8,81.9,70.2L81.9,70.2L81.9,70.2z M149.5,69.1c-0.7,0-1.2-0.5-1.2-1.2c0-0.7,0.5-1.2,1.2-1.2
					c0.7,0,1.2,0.5,1.2,1.2c0,0,0,0,0,0C150.6,68.6,150.1,69.1,149.5,69.1C149.5,69.1,149.5,69.1,149.5,69.1z M80,68.7
					c-0.4-0.1-0.7-0.3-0.9-0.6c-1.8-2.2-0.3-6,2.5-7.2c1.1-0.6,2-0.2,1.8,0.4c-2.3,1-3.8,3.3-3.6,5.8C79.9,68.2,80.2,68.7,80,68.7
					L80,68.7z M118.6,68.3L118,68l0.3-0.6C118.3,67.8,118.5,68.1,118.6,68.3L118.6,68.3z M78,68.1c-0.3,0-0.6-0.1-0.8-0.2
					c-1.2-1.2-1.4-4.4-0.2-6c0.7-0.9,1.6-1.7,2.7-2.2c0.7-0.1,1.3,0,1.9,0.3c0.3,0-0.1,0.3-0.7,0.7c-2.1,1.2-3.6,3.5-3.2,5.5
					C77.8,67.4,78.2,68.1,78,68.1z M75.8,67.1c-0.6-0.1-1-0.5-1.3-1c-1.4-2-0.2-6.3,2.6-7.2c1.9-0.6,2.6,0,1.1,0.9
					c-2.2,1.3-3.4,3.9-2.8,5.9C75.8,66.7,76.1,67.1,75.8,67.1L75.8,67.1L75.8,67.1z M73.5,65.6c-0.6-0.1-1.2-0.5-1.4-1.1
					c-0.6-1.5-0.4-3.1,0.3-4.4c0.7-1.4,2.1-2.3,3.6-2.5c0.3,0,0.7,0,1,0.2c0.7,0.3,0.4,0.3-0.8,1c-2.1,1.1-3.2,3.4-2.9,5.7
					C73.4,65.4,73.8,65.6,73.5,65.6z M146.2,66v-3.1l6.6-6.2v3.1L146.2,66z M90.5,65.6c-0.4-0.7-0.7-1.5-1-2.3
					c1.5-2.2,2-5.9,2.2-8.6c0.9-7.8,1.8-17.3,2.2-17.4h1.7c-0.7-0.4-1.5,13-2.8,21.5C92.7,59.5,91.3,66.1,90.5,65.6L90.5,65.6
					L90.5,65.6z M70.7,64.2c-2.2-1.5-1-6.3,2.1-7.5c1.1-0.4,1.6-0.5,2.1,0c0.3,0.3,0.6,0.4-0.2,0.7c-2.4,0.6-3.9,2.9-3.6,5.3
					C71.1,63.4,71.7,65,70.7,64.2L70.7,64.2z M88.9,62.9l-1-0.7c1-3.6,1.7-7.3,2-11c0.6-4.6,1-9.3,1.7-13.8l1.6-0.1
					c-0.8,2.8-1.2,10.5-2,17C90.7,57.7,90.2,62.2,88.9,62.9L88.9,62.9L88.9,62.9z M87.1,61.8l-1.3-0.8c0.5-1.9,1-3.9,1.3-5.8
					c0.6-4.3,0.8-9.5,2.2-17.6l1.4-0.1c-0.4,2.6-1,8.3-1.6,13.6C88.5,57.3,87.5,62,87.1,61.8L87.1,61.8z M146.2,62.1V59l6.6-6.1v2.8
					L146.2,62.1z M84.9,60.9l-1.3-0.7c0.7-3.2,1.3-6.4,1.7-9.6c0.6-4.2,1-8.2,1.8-12.8l1.5-0.1c-0.8,3.5-1.6,11.7-2.3,17.5
					C85.9,58.6,85.1,60.9,84.9,60.9z M121,54c0-2,0.2-4,0.5-5.9c0.2-0.1,0.8,5.3,3,7.7c1.2-0.7,2.7-0.3,3.4,0.9
					c0.5,0.9,0.4,2.1-0.3,2.9C124.1,62.5,121,56,121,54z M82.9,60l-1.8-0.9c0.2,0,0.7-1.2,1.1-3.2c1.3-6,2.6-17.9,2.8-17.9l1.4-0.1
					c-0.5,3.2-1.1,8.2-1.7,12.7C83.9,55.6,83.2,59.9,82.9,60L82.9,60L82.9,60z M80.4,58.8L79,58c0.4-0.8,0.7-1.6,0.9-2.5
					c1.2-6,1.8-11.3,2.6-17.1l1.5-0.2c0.1-0.2-1.3,11.5-2.5,17.4C81.4,56.7,81,57.8,80.4,58.8C80.4,58.8,80.4,58.8,80.4,58.8z
					 M78.2,57.8l-1.5-0.7c1.6-4.6,1.8-9,3.3-18.3l1.6-0.3c-0.6,6.1-1.6,12.1-2.8,18.1C78.7,57,78.5,57.4,78.2,57.8L78.2,57.8z
					 M76.1,56.7L74.5,56L78,39l1.4-0.2c-0.9,4.9-1.3,10.6-2.5,15C76.7,54.7,76.4,55.7,76.1,56.7L76.1,56.7L76.1,56.7z M149.2,54
					c-0.7,0-1.2-0.5-1.2-1.2s0.5-1.2,1.2-1.2s1.2,0.5,1.2,1.2c0,0,0,0,0,0C150.3,53.5,149.8,54,149.2,54L149.2,54z M147.7,51.2
					c-0.7,0-1.2-0.5-1.2-1.2s0.5-1.2,1.2-1.2s1.2,0.5,1.2,1.2c0,0,0,0,0,0C148.8,50.7,148.3,51.2,147.7,51.2L147.7,51.2z
					 M150.7,51.2c-0.7,0-1.2-0.5-1.2-1.2s0.5-1.2,1.2-1.2s1.2,0.5,1.2,1.2c0,0,0,0,0,0C151.9,50.6,151.4,51.1,150.7,51.2L150.7,51.2
					z M149.3,48.4c-0.7,0-1.2-0.5-1.2-1.2s0.5-1.2,1.2-1.2c0.6,0,1.1,0.5,1.2,1.1C150.5,47.8,149.9,48.4,149.3,48.4
					C149.3,48.4,149.3,48.4,149.3,48.4L149.3,48.4z M138.6,44.4L152.7,30v2.9l-9.7,9.6l9.8,0.2v2L138.6,44.4z M145.1,41.7l7.6-7.3
					l0.1,7.4L145.1,41.7z M137,41.1c-0.1-0.6-0.3-1.1-0.7-1.5c-2.1-3.6-2.6-7-4.4-10.8c-0.8-1.7-2-3.2-3.5-4.4l2.3-4.2l-64.3,0.1
					l10.3,18.1c14.8-2.8,30-2.8,44.8-0.1c0.9-1.6,1.7-3.2,2.5-4.8C126.1,39.1,132.7,42.7,137,41.1z M134.6,40.6
					c-3.4,0-6.2-1.6-8.8-5c-0.8-1.1-1.1-1.6-1.1-2c0.3-0.8,0.7-1.5,1.1-2.2c0.3,0.8,0.6,1.7,0.8,2.5c0.9-3.4,1.3,0.5,1.6,1.6
					c1.1-3.3,1.7,1.2,1.7,2.4c1.5-2.1,1.4,1.3,2.2,2c0-1.8,1.1-0.6,2.5-0.2c-0.7-1-2.1-1.7-0.3-1.9c-1.8-1.2-2.7-1-0.9-1.7
					c-1.3-0.7-3.5-1.6-1.1-2.1c-1.5-0.9-3.9-1.3-1.3-2.2c-1.9-1.2-4.5-1.1-0.9-2.1c-1.3-0.8-3.6-1.1-1-1.7c-0.4-0.2-0.7-0.4-1.1-0.6
					l1.1-1.8c0.3,0,0.5,0.1,0.7,0.3c1.2,1.2,2.4,3.5,3.4,6.8c0.7,2.4,1.6,4.7,2.7,7C136.3,40.6,136.2,40.7,134.6,40.6L134.6,40.6
					L134.6,40.6z M77.2,36.6l-8.9-15.3h2.1l7.9,13.1l10.6-1.2l-3.5-11.7l3.1-0.1l3.1,11.5c5.5-0.3,11-0.3,16.5,0.1l1.7-11.7l3,0.1
					l-1.9,11.6l9.9,1.3l5.4-13l3.1-0.1c-2,3.4-7,14.4-7.9,15.4C99.7,33.1,88.5,35,77.2,36.6L77.2,36.6z M79.3,33l-6.7-11.8h10.8
					L87,32.1L79.3,33z M119.7,32.7c-2.2-0.6-4.5-0.8-6.7-0.8l2-10.5h9.6L119.7,32.7z M92.7,31.4l-2.5-10.2l18-0.1l-1.5,10.2
					C102,31,97.4,31.3,92.7,31.4L92.7,31.4z"/>
			</g>
		</g>
	</g>
	<path id="path147-0-8-1-3-6-4-3-4" d="M130.6,223.1c7.8-0.2,11.3-9,5.5-15.8c-0.8-1-0.9-1.6,0.6-0.6c3.9,2.6,11.4,0.9,11.8-7.1
		c0.5-9.8-13.2-12.6-15.8-2.2c-0.1,1.1-1,1.1-0.8-0.5c0.3-4.2,1.5-8.3,3.4-12.1h-9.3c1.9,3.8,3,7.9,3.4,12.1
		c0.2,1.6-0.7,1.6-0.8,0.5c-2.6-10.4-16.3-7.6-15.8,2.2c0.4,8,7.9,9.7,11.8,7.1c1.5-1,1.4-0.4,0.6,0.6
		C119.3,214.1,122.8,222.9,130.6,223.1L130.6,223.1L130.6,223.1z"/>
	<path id="path147-0-8-1-0-3-83-9-4-0" d="M48.2,26.6c7.8,0.2,11.3,9,5.5,15.8c-0.8,1-0.9,1.6,0.6,0.6c3.9-2.6,11.4-0.9,11.8,7.1
		c0.5,9.8-13.2,12.7-15.8,2.2c-0.1-1.1-1-1.1-0.8,0.5c0.3,4.2,1.5,8.3,3.4,12.1h-9.3c1.9-3.8,3-7.9,3.4-12.1
		c0.2-1.6-0.7-1.6-0.8-0.5c-2.6,10.4-16.3,7.6-15.8-2.2c0.4-8,7.9-9.7,11.8-7.1c1.5,1,1.5,0.4,0.6-0.6
		C36.8,35.6,40.3,26.8,48.2,26.6L48.2,26.6L48.2,26.6z"/>
</g>
</svg>
