<svg id="Layer_1" data-name="Layer 1" xmlns="http://www.w3.org/2000/svg" viewBox="0 0 178.79 249.65"><defs><style>.cls-1{fill:#fff;stroke:#000;stroke-width:1px;}.cls-2{fill:#d40000;}.cls-3{fill:#131f67;}.cls-4{fill:#e2cf00;}</style></defs><title>11_D</title><g id="g7094"><rect id="rect7098-3" class="cls-1" x="0.5" y="0.5" width="177.79" height="248.65" rx="8.5" ry="8.5"/><path id="path7130-4" class="cls-2" d="M14.45,56.2a45,45,0,0,0-5.79-8,45,45,0,0,0,5.79-8,45,45,0,0,0,5.79,8A45,45,0,0,0,14.45,56.2Z" transform="translate(0.1 0.1)"/><path id="path7134-0" class="cls-2" d="M164.14,209.2a45,45,0,0,0-5.79-8,45,45,0,0,0,5.79-8,45,45,0,0,0,5.79,8A45,45,0,0,0,164.14,209.2Z" transform="translate(0.1 0.1)"/><path id="path7136-1" class="cls-2" d="M48.25,64.75c-4.13-6.83-8.48-13.47-13.91-19.14,5.43-5.67,9.78-12.31,13.91-19.14,4.13,6.83,8.48,13.47,13.91,19.14C56.72,51.28,52.38,57.92,48.25,64.75Z" transform="translate(0.1 0.1)"/><path id="path7154-5" class="cls-2" d="M130.33,223c-4.13-6.83-8.48-13.47-13.91-19.14,5.43-5.67,9.78-12.31,13.91-19.14,4.13,6.83,8.48,13.47,13.91,19.14C138.81,209.52,134.46,216.16,130.33,223Z" transform="translate(0.1 0.1)"/><path id="path6263-5" class="cls-3" d="M24.27,229.65V19.8h130V229.65h-130Zm46.81-175c-4.65-1.27-4.54,3.36-1.13,3.53,3.81,0.33,5.45-6.18,3.63-8.75C73.58,49.47,72,54.38,71.09,54.69ZM40.91,80.85l-5.58,2.5,0,4.18a22.89,22.89,0,0,0,5.61-6.67h0ZM79,206.35c-1.1-.56-2.42-1.75-2.22-2a2.27,2.27,0,0,1,1.24.33c4.36,1.84,7.75,1.72,13-.17a0.81,0.81,0,0,1,.76,1c-2.3,3.41-9.76,2.2-12.73.78h0Zm-2.3-5.12c-1-1.51.33-.37,0.77,0.06,3.23,3,7.6,4,11.36,1.19A0.49,0.49,0,0,0,89,202c-0.11-.28-0.11,0-1.71.58-3.6,1.35-6.64.24-9.6-2-1.22-.94-1.79-1.41-1.79-1.65s0.23-.37.64-0.3c0.25,0,1,.19,1.48.23a2.31,2.31,0,0,0,1.76-.39,9.35,9.35,0,0,1,5.86-.88,11.37,11.37,0,0,0,1.16.22c0.46-.15-0.22-0.76-2-2.15a4.61,4.61,0,0,1-.91-0.74c-0.22-.37,0-0.47.27-0.46,0.72,0,4,2.72,5.06,4.32a1.61,1.61,0,0,1,.57,1,2,2,0,0,0,.42,1.77A7.42,7.42,0,0,1,91,203s-0.08.31-.46,0.07a1,1,0,0,0-.57-0.17,5.65,5.65,0,0,0-1.2.48c-4.53,2.92-8.7,1.49-12.09-2.11h0Zm9.92-.2a4.9,4.9,0,0,0-.77-2.16,2,2,0,0,0-3.1-.15,9.22,9.22,0,0,0-1,2.13,6.5,6.5,0,0,0,.93.21,2.53,2.53,0,0,1,.75-1.91,1.41,1.41,0,0,1,1.42,0,2.56,2.56,0,0,1,.85,1.92,2,2,0,0,0,.9,0h0Zm-5.47-2.42a3.51,3.51,0,0,0-1.66.91c-0.25.56,0.64,0.74,1.1,0.93,0.64,0.31.65,0.2,0.86-.3,0.13-.31.3-0.71,0.46-1.08,0.48-.92,0-0.8-0.76-0.46h0Zm6.91,1.61a0.64,0.64,0,0,0,.11-1,2.55,2.55,0,0,0-1-.54c-0.59-.2-0.85-0.44-0.48.36l0.53,1.15c0.27,0.55.51,0.4,0.87,0.06h0ZM27.67,161A24.78,24.78,0,0,0,30.92,160c0.79-.3.88-0.29,0.57-0.73a1.94,1.94,0,0,1-.15-1.13l0.06-.7a4.83,4.83,0,0,0-4.13,1.44c-0.5.61-.45,2,0.41,2.2h0Zm-0.28,3.43c0.42,0.42.53,0.43,1.78,0a5,5,0,0,1,2-.7c1.51-.4,1.51-0.24,1.08-1.21a2.1,2.1,0,0,1-.2-1.23c0.07-.49.13-0.55-0.14-0.64-0.72-.23-4.08,1-4.68,2a1.32,1.32,0,0,0,.16,1.8h0Zm78.08,33.16c0.06,0.77.08,2,.08,2.62,0,1.26.47,1.55,1,.86,0.53-1.64.74-4.23,2-5.55,0.94-.27,2.09.21,2.75-0.44a1.85,1.85,0,0,0-1.08-3.3c-2.88-.06-5,3.46-4.77,5.81h0Zm7-4a2.4,2.4,0,0,1-3.1,2.31c-0.65-.16-0.85,0-1.29.92a33.56,33.56,0,0,0-1.58,6.81c-0.11,1.51-.66,5.45-0.26,6.7C110.87,216,115.7,222,121,227.82h31.58V190.66L143.53,182l0-13.74c-9.79,4.62-19.55,9.31-29.32,14,2.13,6.84-5.09,8.28-6.67,3.69-1.37,1.26-2.49,8.05-2,8.39,0,0,.18.25,0.49-0.3a5.42,5.42,0,0,1,1.85-2C109.94,190.77,112.36,191.39,112.5,193.61Zm-25.06-.69a2.13,2.13,0,0,1,.57-3.67,4.32,4.32,0,0,1,3,.17,4.29,4.29,0,0,0,2.77.28c0.72-.08.58,1.43-0.17,1.81-0.53.27-1.74,0.14-3.21-.7-2.54-1.45-3.66.43-2.08,2.13,0.87,0.94-.62.19-0.85,0h0Zm-52.34-22.5a1.42,1.42,0,0,0-.47-2.68,1.45,1.45,0,0,0-.92,2.67c0,0.24-.61,0-0.93-0.2-0.51-.38,0-1.87-0.52-1.93a30.6,30.6,0,0,0-4.26,1.5c-1.58.9-.1,2.93,0.82,2.7,1.91-.48,4.5-0.91,6.28-2.06h0Zm-7.87-2.9c0,0.9.29,1.31,0.88,1.31a26.21,26.21,0,0,0,3.55-1.18c0.9-.3,1.27-0.63.58-1.2a1.38,1.38,0,0,1-.29-1.23c0.24-.75.06-0.78-0.26-0.82a11.86,11.86,0,0,0-2.88,1,1.89,1.89,0,0,0-1.41,1.07,3.14,3.14,0,0,0-.17,1.07h0Zm10.27,11.67a7.38,7.38,0,0,0,.69-2.22c-0.1-.65-0.58-0.8-1-0.38s-0.38,1.17-.69,1.71a1.09,1.09,0,0,0-.19.55,0.73,0.73,0,0,0,1.19.34h0Zm4-8.58C57.31,153.77,67.09,130.46,50,98.33c-1-1-2.51,2.31-2.69,2.43l-2.19,1.91c11.58,20,9.57,43-4.59,59.37l0,1c0,2.28.69,2.19,1.65,1.12s0.34-.2-0.08.24-0.93,1.14-1.08,1.33c0.19,1.37,1,3.93.51,4.84h0Zm-1-5.06a13.28,13.28,0,0,1-.42-2.29c-0.05-.52-0.08-1-0.1-1.52a18.63,18.63,0,0,0-.91-3.85,2.94,2.94,0,0,0-2.23-1c-0.84-.05-0.91,0-1.09.24-0.31.47-.1,2.85,0.22,3.72a3.64,3.64,0,0,1-.14,2.59c-0.1.37-.14,0.39,0,0.42,0.79-.06,1-1,1.36-0.73a4,4,0,0,1-.54,1.7,4.72,4.72,0,0,0,0,3.45,1.94,1.94,0,0,1,0,1.54,9.52,9.52,0,0,0-.29,2.3,2.63,2.63,0,0,1,0,2.2,5.61,5.61,0,0,0-.58,3.27c0.11,0.35.4,0.05,0.61-.55,0.33-1.19.72-1.45,1.69-1.45,0.71,0,.78.25,1-0.07a14.2,14.2,0,0,0,1.85-4,8.84,8.84,0,0,0-.4-6h0ZM48,177.47a2.48,2.48,0,0,0,1.09-1.39c0-.35-2.65-2.92-3.75-3.63-0.5-.32-0.74-0.09-1.62,1.1s-0.89,1.07-.74,1.27a35.92,35.92,0,0,0,3.77,2.5,1.61,1.61,0,0,0,1.25.15h0Zm5-4.59c-0.39-.3-3.56-3.82-4.5-4a3.12,3.12,0,0,0-1.5,1.54,25.36,25.36,0,0,0,3.38,3.45,2.83,2.83,0,0,0,1,.64A4.07,4.07,0,0,0,53,172.88Zm3.36-3.32a3.91,3.91,0,0,0-1.2-1.48C53,165.94,51.77,165,51.39,165a3.51,3.51,0,0,0-1.21,1.85c0.14,0.26,3.77,3.57,4.24,3.89,0.58,0.56,1.85-.75,1.93-1.15h0Zm3.41-3.41a1.08,1.08,0,0,0-.55-1l-2.57-2.52c-2.28-2.26-2.29-2.26-3-1.2s-0.75,1.09,1.48,3.27,2.93,2.79,3.3,2.79A2.44,2.44,0,0,0,59.76,166.15Zm-25.46-2a1.13,1.13,0,0,0-1.08.2c-1.68,1.43.7,3.28,1.69,2.13a1.37,1.37,0,0,0-.61-2.33h0Zm29-1.5c0-.24-0.49-0.78-2.19-2.4-4.2-4-4-3.86-4.48-3.62a3.13,3.13,0,0,0-.85,1.64c0,0.3.4,0.72,3.52,3.63,1.83,1.71,2.37,2.14,2.68,2.14a2.17,2.17,0,0,0,1.32-1.39h0Zm-28.85.15a1.23,1.23,0,1,0-1.65-1.08,1.22,1.22,0,0,0,1.65,1.08h0Zm32.3-3.52c0-.48-7.19-7.22-7.7-7.22-0.35,0-.6.28-0.92,1a1.1,1.1,0,0,0,.1,1.4c0.52,0.5,1.91,1.78,3.22,3,0.78,0.71,1.68,1.55,2,1.88a4.59,4.59,0,0,0,1.87,1.35,3.15,3.15,0,0,0,1.44-1.43h0ZM34,158.37a1,1,0,0,0-.26-0.75,1,1,0,0,0-1.64.45A1,1,0,1,0,34,158.37Zm5.33-52.45,1.41-4.31,4.3-.11,0.6-4.28,4.42-.64,0.07-4.43,4.23-.58-0.26-4.74L58,85.91l-0.19-4.39,3.57-1.1L61.28,76.6l0.61-.48-1.54-1.57L59,75l0,3.93-3.56,1.15,0.38,4.34-3.6.82,0,4.72L48,90.41l-0.3,4.17-4,.8-0.6,4.08-3.91.27L38,103.31l-2.59,0v2.4ZM86.11,183c-0.13-.32.22-0.28,0.83,0.11a4.83,4.83,0,0,0,2.24.75,16.15,16.15,0,0,0,2.2-.39,5.5,5.5,0,0,1,3.27-.18c0.86,0.12,1.73.21,1.93,0.21a2.53,2.53,0,0,0,1.81-1.08c0.71-1.22.54,1,.54,1.24,0,1.13.15,2.43-.65,1.83a2,2,0,0,0-2,0,1.63,1.63,0,0,1-2,.07,1.15,1.15,0,0,0-1.47.14c-0.54.5-1.84,0.32-2.54,0.09-1.2-.2-1.87-0.37-2.68.26-0.43.25-.54,0.06-0.86-0.89s-0.58-2-.63-2.14h0Zm3.06-.8a2.24,2.24,0,0,1,1-1,8.16,8.16,0,0,1,5.64,0c0.95,0.35,1.09,1,.17.82-1.92-.4-4.32-0.73-6.17.15a1,1,0,0,1-.64,0h0Zm1.62-3a3.67,3.67,0,0,1-2-1.17c0-.18.28-0.15,1.31,0.14a6.79,6.79,0,0,0,4.45.31c1-.37,1.49-0.6,1.49-0.38a2,2,0,0,1-1.1,1.2,6.37,6.37,0,0,1-4.2-.09h0Zm28.46-3.65,1-.13-0.34-4.07,3.58-1.07-0.25-4,3.82-1.32-0.23-4.55,4-.78,0.52-4,3.75-.27,0.78-4.34,4-.14,0.83-3.6,2.68,0v-2h-4.17l-0.88,3.9-3.94.11-0.84,4.28-4.13,0-0.53,4.62-3.88.64v5l-3.75,1,0.29,4.25-3.74,1.37,0.42,4.06Zm25-95.46a1.68,1.68,0,0,0-.57,1.76,1.39,1.39,0,0,0,2.6-.06,1.12,1.12,0,0,0-.69-1.25,1,1,0,0,1-.57-0.17,1,1,0,0,1,1.06-.36,1.71,1.71,0,0,1,1,1.52,1.89,1.89,0,0,0,0,.72A13.63,13.63,0,0,0,150,81.5c1.63-.45,2.21-1.39,1.85-2.48-0.3-.91-1.23-1.27-2.46-0.81-1.68.63-3.65,0.94-5.12,1.91h0ZM74.84,180c5.51-3.88,8.75-6.09,15.82-6.48-2.52-1-2.93-2.4-3.64-3.71A35.77,35.77,0,0,0,69.45,176,14.65,14.65,0,0,1,74.84,180h0Zm30.7-5.38a28.35,28.35,0,0,0-9.15-3.92l-2.53,2.62a52.13,52.13,0,0,1,11.67,1.29h0Zm25.64-24.89C114,123.21,125.53,99.87,137.5,85c0.38-.49.48-0.51,0.39-0.9a28.74,28.74,0,0,1-.17-4.58c-22.14,22-22.71,50.63-8.82,73.36,1-.89,3-2.07,2.27-3.15h0Zm2.58-2.27c-2.83-4.72-17.89-30.26,5.12-58.76a12.65,12.65,0,0,0-.25-2,3,3,0,0,0-.79-1.37c-9.66,14.53-23.7,32.71-6.17,64.29ZM120.59,99.38a3.38,3.38,0,0,0,.84-1.73c0-.38-0.27-0.69-2.87-3.33-3.46-3.52-4.06-4.05-4.5-4.05a2.62,2.62,0,0,0-1.51,1.44c0,0.19,1,1.29,3.42,3.69,4.46,4.46,4.25,4.28,4.61,4h0Zm3.19-6.48a3.56,3.56,0,0,0-1.08-1.41,43.27,43.27,0,0,0-5.1-4.68A2.83,2.83,0,0,0,116.18,88a0.51,0.51,0,0,0,0,.68c0.35,0.55,4.82,4.8,6.08,5.86,0.76,0.7,1.45-1.07,1.49-1.6h0Zm1.72-2.63a3.08,3.08,0,0,0,.94-1.77,26.77,26.77,0,0,0-2.52-2.71c-2.66-2.65-2.82-2.75-3.48-2.16a2.12,2.12,0,0,0-.9,1.29,66.86,66.86,0,0,0,4.89,5C125.08,90.43,125.16,90.45,125.5,90.27Zm20.31-.2a1.13,1.13,0,0,0-1.2-1.91,1.21,1.21,0,0,0-.56,1.26A1.28,1.28,0,0,0,145.82,90.07Zm2.48-.31c2.12-.56,3.13-0.93,3.57-1.59a1.24,1.24,0,0,0,0-1.49c-0.32-.69-0.69-0.9-2-0.17-0.91.5-2.94,0.74-3.65,1.16-0.28.24-.15,0.24,0.08,0.39a1,1,0,0,1,.7,1c-0.12.94,0,1.08,1.31,0.72h0Zm-2.24-3.33c1-.53.82-1.8-0.33-2.3a1.33,1.33,0,0,0-1.25,2.32A2,2,0,0,0,146.05,86.44Zm3.42-.52c1.49-.51,2.06-0.91,2.49-1.73a2.26,2.26,0,0,0,.15-1.57c-0.07-1-.55-0.85-1.93-0.35-0.68.26-3.91,1.17-4,1.51,1.56,0.89,1.16,1.37,1.18,2.51,0.08,0.26.81,0.07,2.08-.36h0ZM129.2,84.4c0-.43-4.15-4.51-4.59-4.51a1.86,1.86,0,0,0-1.52,1.65A47.54,47.54,0,0,0,127.54,86C128.22,86.43,129.16,85.05,129.2,84.4Zm2.39-2.54A4.52,4.52,0,0,0,132.3,81c0.45-.65.42-1-0.12-1.36-0.2-.13-1.07-0.92-1.94-1.75a16.85,16.85,0,0,0-1.83-1.62c-0.72-.1-2,1.05-1.88,1.64a31.34,31.34,0,0,0,4,3.92A0.74,0.74,0,0,0,131.59,81.86Zm5.62-6.07a7.1,7.1,0,0,0-1.88-1.21c-3.54-1.93-3.6-1.94-4.7-1a2.12,2.12,0,0,0-.69.78,11.24,11.24,0,0,0,1.74,1.87c2,1.92,2.53,2.34,2.81,2.34C135.08,78.1,137.13,76.32,137.22,75.79Zm5-1.81a4.35,4.35,0,0,0,.69-2.71,0.87,0.87,0,0,0-1,.06,7.83,7.83,0,0,0-.84,2.8c0.11,0.28.8,0.15,1.18-.15h0Zm-38.64,77.3a5.36,5.36,0,0,0,1.94-1.28c1-.88,4.25-2.83,4.6-3.61a0.88,0.88,0,0,0-.29-1.13c-0.26,0-.31.16-2.46,1.71-1.45,1-4,2.91-4.37,3.31A0.8,0.8,0,0,0,103.52,151.28Zm-0.3,12.49c2.21-1.54,4-3.13,6.88-4.91a1.17,1.17,0,0,0,.12-1.09c-0.17-.44-0.4-0.27-1.27.34-2.12,1.43-4.31,3.12-6.14,4.37-0.59.4-1.08,0.62-1,.84a2.58,2.58,0,0,0,1.36.44h0Zm2.15,0.94c1.45-1.19,3.19-2.33,4.74-3.48a1.26,1.26,0,0,0,.05-1.25c-0.18-.24,0-0.19-0.46.05-0.63.36-4.39,2.92-5.09,3.51a1.17,1.17,0,0,0-.65.63,3.56,3.56,0,0,0,1.4.55h0Zm1.83,0.92c0.3-.2,2.88-1.86,3.09-2.08a1.59,1.59,0,0,0-.06-1.47c-0.65.52-4.1,2.62-4.1,3a1.94,1.94,0,0,0,1.08.58h0Zm2.76,0.23a0.92,0.92,0,0,0,.48-0.83c0-.74-0.17-0.71-1.22,0-0.73.48-1.18,0.81-1.05,1.1,0.52,0.82,1.26.17,1.79-.31h0Zm0.28,1.51c0.21-.08.21-0.18,0.18-0.44s-0.07-.28-0.39-0.28C109.2,166.69,110,167.45,110.24,167.37Zm-10.06-4.14A7.77,7.77,0,0,1,102,160c3.48-3.09,2.41-6.88.22-10,2.84-4,5.67-8.2,8.11-12.07v-6.28l0.33,0c-0.11,13.71.51,36.2,0.51,36.2l2.82,2.16-0.38.19c0.46-.07-8.22-5.52-13.39-7.07h0Zm2.55-1.57c2.4-1.82,4.74-3.25,7.12-5.18a0.69,0.69,0,0,0,.41-0.7c0-.91-0.17-0.91-1.06-0.28-0.39.28-1.84,1.3-3.21,2.22a31.45,31.45,0,0,0-3,2.14c-1.34,1.56-1.84,2.29-1.7,2.51s0.42,0,1.46-.72h0Zm2.62-4.4c1.23-.81,4.19-2.87,4.46-3.12,0.47-.44.55-1.14,0.13-1.22a28.85,28.85,0,0,0-4.43,3c-0.94.71-1.15,0.88-1.15,1.55C104.37,157.83,104.61,157.76,105.36,157.26Zm1.23-3.2c3.79-2.7,3.69-2.47,3.61-3.47,0-.34-0.1-0.49-0.25-0.52a8.15,8.15,0,0,0-1.54,1c-0.75.53-1.65,1.24-2.1,1.56-1.32.91-1.75,1.16-1.75,1.69s0.14,0.84.37,0.84A12.4,12.4,0,0,0,106.59,154.06ZM106,152a44.21,44.21,0,0,0,3.93-3c0.32-.4.26-1.28-0.14-1.28-1.75,1.17-3.86,2.71-5.34,3.93a1.6,1.6,0,0,0-.51.55,0.85,0.85,0,0,0,.49.67A4.26,4.26,0,0,0,106,152h0Zm-1.14-4.18c1.33-.9,2.54-2,3.87-2.89,1-.68,1.27-0.89,1.22-1.75,0-.49-0.47-0.21-2.15.91a9.18,9.18,0,0,0-2.24,1.71c-0.31.71-1.32,1.38-1.37,2.19,0,0.3.2,0.16,0.68-.18h0Zm4.09-5.43c1-.68,1.12-0.69,1-1.6-0.14-1.13-.25-1.06-1.23.43-0.64,1-.86,1.27-0.77,1.45s0.35,0.13,1-.29h0Zm-3.73-8.3c-0.11-.5-0.26-0.39-0.78.06-0.95.83-1.1,1.44-.51,1.75a0.46,0.46,0,0,0,.74-0.26A4.72,4.72,0,0,0,105.27,134.06ZM100,142a2.6,2.6,0,0,0-1.11-1.3c-0.42-.22-0.68-0.18-1.08.34s-0.2.75,0.36,1.46a1.18,1.18,0,0,0,.9.68A1.4,1.4,0,0,0,100,142h0ZM79.43,161.74a1.63,1.63,0,0,0-1.11-1,1,1,0,0,0-.55.75,1.09,1.09,0,0,0,.88.87C79.28,162.29,79.66,162.18,79.43,161.74Zm2.5-.8a15.35,15.35,0,0,0-1.79-1.83,1.6,1.6,0,0,0-.93,1,4.27,4.27,0,0,0,1.3,1.81C81.34,161.81,82.84,161.9,81.93,160.94ZM85,161.1a25.12,25.12,0,0,0-3.33-3.52,1.38,1.38,0,0,0-.86.93A10.49,10.49,0,0,0,82.73,161a0.88,0.88,0,0,0,1,.45c0.6-.09,1.39,0,1.25-0.34h0Zm5.38-.72c0-.65-0.34-1-1.72-2.5-0.5-.54-1.34-1.48-1.87-2.09-1-1.18-1.47-1.54-1.88-1.54a1.1,1.1,0,0,0-.82.86,61.63,61.63,0,0,0,4.82,5.59c0.51,0.55.74,0.71,1.22,0.45a0.81,0.81,0,0,0,.24-0.77h0Zm-4-7.79a1.33,1.33,0,0,0-.71.88c0,0.43,4.36,5.24,4.75,5.24,0.23,0,.19,0,0.33-0.55,0.27-1.57-.16-2-1.29-3.06-0.76-.69-2.29-3.08-3.09-2.51h0Zm7.7-3.22c-1.22-1.46-1.89-2.13-2.14-2.13a1.19,1.19,0,0,0-.7.47c-0.46.43-.41,0.42-0.12,0.93a7.44,7.44,0,0,0,.93,1.17c0.67,0.69,1,.92,1.34.58s1-.64.69-1h0Zm-0.64-3.64a1.13,1.13,0,0,0-.8.83,7.62,7.62,0,0,0,1.68,2.11c0.56,0.5.82,0.64,1.21,0.31a1,1,0,0,0,0-1.13c-0.49-.56-1.57-2.08-2.13-2.11h0Zm3.43,0.36a5.51,5.51,0,0,0-1.65-2.21,1.69,1.69,0,0,0-1,1.12,2.77,2.77,0,0,0,.72,1.14c0.89,1,1.12,1.26,1.31,1.1A1.68,1.68,0,0,0,96.94,146.08Zm1.41-1.83a1.79,1.79,0,0,0-.64-1.35c-0.62-.78-0.93-0.84-1.52-0.23a1,1,0,0,0-.32.53,5.62,5.62,0,0,0,1.55,2,1.17,1.17,0,0,0,.92-0.91h0ZM96,148.37a1.47,1.47,0,0,1-.86,1.14c-4,2.88-3.86,7.57-4.71,11.91C84,161.35,73.8,164,73.86,164.15l34.34-34.71s0.43,0.11.17,0.41c-2.78,2-2.61,5.89-4.43,7.84-3.05,3.7-5.89,6.9-7.88,10.68h0ZM77.41,162.55c0.06-.39-0.3-0.5-0.62-0.18s-0.19.55,0.25,0.5a0.35,0.35,0,0,0,.37-0.32h0ZM88,161.09c0.13-.33-0.17-0.64-2-2.68s-2.29-2.56-2.61-2.56a1.61,1.61,0,0,0-.94,1,2.77,2.77,0,0,0,.65.93c0.36,0.39,1,1.14,1.51,1.68A11.86,11.86,0,0,0,86.1,161a1.51,1.51,0,0,0,1,.2C87.79,161.22,87.93,161.24,88,161.09Zm3.18-6.51a7.89,7.89,0,0,0,.31-0.92,17.49,17.49,0,0,0-2.75-2.94c-0.48-.31-1.37.7-1.15,1.29a15,15,0,0,0,1.55,1.83,6.07,6.07,0,0,0,1.68,1.56,1.12,1.12,0,0,0,.36-0.81h0Zm1-2.52a1.79,1.79,0,0,0,.31-0.74,4.32,4.32,0,0,0-1-1.29c-1-1.18-1.32-1.32-1.89-.77s-0.38.8,0.63,1.94c1.26,1.43,1.4,1.6,1.91.85h0Zm9-11.28a0.7,0.7,0,0,0,0-1.12l-0.49-.59c-0.32-.39-0.75-0.32-1.19.18a1.43,1.43,0,0,0-.35.56,2.63,2.63,0,0,0,.5.74c0.62,0.73,1,.8,1.49.23h0Zm1.38-1.78a1,1,0,0,0-.35-1.31c-0.47-.43-0.71-0.45-1-0.08s-0.37.66,0.1,1.19,1,0.69,1.28.21h0Zm1.1-1.48a0.89,0.89,0,0,0-.92-1.43c-0.57.3-.51,0.82,0.05,1.41,0.34,0.36.5,0.39,0.87,0h0Zm-26.27,74c7,0.79,14.59,1.34,27.9-.73l0.07-4.53c-4.15,3.25-9.61,1-9.92-2.72a38.78,38.78,0,0,1,1.6-9.91c0.56-2,.72-2.82.19-3.22-1.15-.65-3.19-0.73-3.71-2.08-0.25-.71-0.27-1.48.09-0.93a6.74,6.74,0,0,0,2.53,1.1c1.8,0.4,2.09.54,2.3,1.28a9.92,9.92,0,0,1-.64,3.55,19.66,19.66,0,0,0-.74,3c0,0.35.28,0.41,0.59,0.31a13.25,13.25,0,0,0,1.17-1c1.73-1.55,2.24-1.5.76,0-0.59.6-1.4,1.43-1.4,1.5,0,0.32.3,0.28,1,0a7.62,7.62,0,0,1,4.5.21c1.33,0.67,1.38.64,1.35-1.39a46.49,46.49,0,0,0-2.09-11.77C101,178.95,97.09,174,91.32,174.22c-7,.37-11.27,3.17-16,6.53,2.89,6.42-1.29,11.33-2.8,12-0.15.06,1.89,6.52,2.76,9.81,0.79,3,2.12,9,2.12,9h0ZM107.27,56.73c-0.16-.42-4.07-13.19-5.17-18.52-10.57-.62-18.38-1.5-27.69,1.15,0,0-.2,3.6-0.1,3.77a0.41,0.41,0,0,0,.68.29c4.3-2.37,9-1.3,9.28,4.54,0.12,2.23-.62,3.8-0.76,5.91-0.12,1.85-1.57,4.31-.69,5.71a5.25,5.25,0,0,0,1.58.88c1.58,0.68,2.2,1.3,2.31,2.33,0.17,0.71-.26,1.19-0.39.46-0.08-.47-0.16-0.87-2.11-1.54s-2.41-1.41-2.6-1.8a2.24,2.24,0,0,1,0-1.81,20.71,20.71,0,0,0,1-4.65c0-.32-0.37-0.17-0.83.22a24.05,24.05,0,0,1-3.12,2.06,5.19,5.19,0,0,1,1.1-1.35,13.28,13.28,0,0,0,1.89-2c0-.32-0.12-0.1-0.94.15a6.63,6.63,0,0,1-4.16-.15C75.62,52,75,51.74,74.83,52c-0.35,5.68.5,11.54,2.88,16.12,2.13,4.15,6.56,9.35,13.23,8.19,6.89-1.21,13.59-6.76,13.34-6.76-2.57-5.83.36-10.17,3-12.77h0ZM52.69,211.92c-3.05-3.06-10.74-6.39-16-7.92-0.42-.09-0.84-0.29-0.84.21l-0.06,10.51-9.51,8.87v4.23H46.52l13.3-19.54a2,2,0,0,0,.71-0.23,93,93,0,0,0-8.46-22.82,4.45,4.45,0,0,1-6.35-.61c-1.68-1.88-.65-5.19.94-6.4a24,24,0,0,0-5.95-3.3c-0.38-.09-0.94.68-1.13,1.37-0.33,1.13-.89,2.14-1.26,3.28-0.41,1-.8,1.1-1.41.83-1-.28-1.2-0.38-1.2-0.38l0,12.35a26,26,0,0,1,16.93,19.56h0ZM83,79.91l2.16-2.35A60.46,60.46,0,0,1,74,75.21,36.88,36.88,0,0,0,83,79.91ZM71.12,73.3c3.81,1.27,8.63,4.24,14.65,3.12-5.49-2.18-9.65-7.28-11.43-17.65-0.39,2-1.19,6.2-2.45,6.65-1.78-6.89-8.91-2.88-6.05,2.73C58.6,73.14,49.9,76,42,79.79c0,0-1.19,3.65-7.1,8.66-1.12-5.87.21-14.57-.48-20.46l-9.27-8.77a33,33,0,0,1,0,4.66,3,3,0,0,0,1,.73c0.6,33.79-.21,67.19-0.2,97.88-0.09,18.81.4,38.41,0.13,56.16l-0.35.64v4.24l9.46-9a80.81,80.81,0,0,1,.06-11.3c6,1.2,11.54,4,16.53,7.1,0.63,0.17-3.06-12.3-16.49-17.84,0,0,0-3.9,0-12.36,0-8.17-.13-9-0.31-9.17-0.54.59-7.42,2.91-7.76,2.52,0.18,0.06-1.94-14.46-.1-16.67l6.57,0.14c1.88,1.52,1.12-.33,2.22-0.64,0.65-.18,3.7,1,3.7,1,12.53-14.82,11.28-39.19,2.29-52.9-2.3,1.87-4.75,4.41-7.06,5.5,0-.08,0-7.56,0-7.56,12-7.7,25-30,24.16-30.08A59.19,59.19,0,0,1,64.07,78L52.25,95.1c2.71,5.46,5.44,10.41,7.22,15.21,0.24,0.65,1,.63,1.17,1.31s-0.55,1.4-.45,2c2.49,9.56,3.06,19.7.6,28.88-0.52,2.07.43,3.74,1.7,5.3,0.1,0.14-1.18-1.12-1.3-1.19-0.44-.27-1.18.67-1.33,1.84a2.52,2.52,0,0,0,1,1.43c0.91,0.76,4.54,4.33,6.13,6,1.42,1.45,1.78,1.52,2.74.49,0.27-.25.55-0.6,0.81-0.81a1.28,1.28,0,0,0,.52-0.41l21.34-20.87c2.48-2.42-21.31,21.9-21.31,21.9s-11.54,11.35-14.37,14.14-3.32,3.52-3.43,3.74c-0.21.38,0.94,0.37,1.47,0.29a4.11,4.11,0,0,1-.93.11c-3-.41-4,2.65-5.92,3.32-5,3.56-1.64,9.29,3.15,7.4l1.17-.56a107.87,107.87,0,0,1,9.05,23.78l-0.79.37-12.62,19h71.59c-5.14-5.13-9.52-11.43-14-16.14-7.14,2.14-28.73,1.7-28.39.77,0,0-3.27-13.26-5.12-19.77,5.87-5,5.27-13-3.25-16.55a31.93,31.93,0,0,1,18.53-7c2,5,6.62,5.35,8.81.74,0-.05,8.23,2.53,11.26,5.33-4.49-.47-8.93-1.36-13.42-1.58a16.57,16.57,0,0,1,9.28,10.33c0.63,1.67,1.6,7.18,1.85,7.2,0,0,1.5-6.37,2.66-6,3,6.2,8.08,1.54,5.92-3.4,7.55-3.61,16-7.64,23-11,2-3.06,7-8.88,7.34-8.91,0,0,9.17-52.63,9.17-70.22-0.3-21.15.37-44.7-.54-64.48V21.5H133.26L119.43,41.82a2.22,2.22,0,0,0-.1.46,97.48,97.48,0,0,0,8.11,22.81c5.24-4,9.66,2.57,5.73,6.36-0.74.71-.54,0.89,0.2,1.39s5.7,3,5.93,3c0.9-1.34,1.16-3.32,1.77-4.83,0.15-.58.59-0.65,1.45-0.54,1.11,0.13,1.11.6,1.07-6.51l0-6.1c-6.72-3.1-15.62-11-16-19.19,3.89,2.83,12.81,7,15.2,7.32,1,0.29.89-1.54,0.92-2.27,0.28,0.19.39,3,.39,3-3.94-1.19-6-1-15.86-6.67,1.69,8.07,9.75,14.43,15.6,17.33,0,0,.24,3.83.23,8.12,0,13.09.09,13.66,0.09,13.66a38.59,38.59,0,0,0,4.11-1.27c1.59-1.28,4.15-.3,4.5.64,0.52,4.94,0,9.52-.09,14.24-2.72.19-4.22,0.77-5.56,0.82a2.62,2.62,0,0,1-1.85-.62c-1.3-2.82-1.22-1-1.37,1.08-0.12.63-3.38-.46-3.7-0.65-14.07,16.22-12.87,34.9-3.31,52.2a59.8,59.8,0,0,1,7-4.44c0.07,2.2.1,6.73,0.1,6.73-11,8.1-24.2,29.54-23.75,29.6l-4.47-5.35s2.82-4.49,3.81-5.67a8,8,0,0,0,.19-1.53l6.84-9.91c-2.92-6.61-6.92-11.69-7.95-18.15-4.56-20.65.38-30.92,0-31.7a1.3,1.3,0,0,0-.16-0.49c-0.15-.12,0-0.24.21-0.54a3.94,3.94,0,0,0,.67-2.09c-0.13-.26-3.83-4-7-7-1.67-1.61-1.6-1.79-2.46-.91-0.32.33-1.11,1.25-1.11,1.25C97.3,106,88.2,115.71,76.71,127l-0.55-.5c16.73-16.66,33.61-33.15,50.17-50l-2.91,0a0.75,0.75,0,0,1,.37-0.47A9.13,9.13,0,0,0,128.11,75c2.36-1.76,5.75-4.11,6-6.43-0.17-4.46-3.93-5.11-6.64-2.93a83.45,83.45,0,0,1-8.36-22.58c-0.08-.38-0.61-1-0.69-1.46,0.81-2.53,13.62-20,13.62-20H60.13L73.82,37.9c0-.65,19.51-3,28.45-0.23L107.71,57c-4.94,4.79-6.4,12.66,2.69,16.76,0.18,0.38-.86,1-0.86,1a0.9,0.9,0,0,0,.29-0.7,20.08,20.08,0,0,1-5.07-3.79C99.28,74.61,94.17,77,89.16,77.21c0,0,2.64,1.8,3.16,3.77A0.66,0.66,0,0,1,92,80.87c-0.54-.66-1.79-2.82-2.84-3.45a4.59,4.59,0,0,0-4.24.86L83,80.12c-4.37-1.33-9.22-3.51-11.9-6.82h0Zm-0.73,47.41,2-2a10.17,10.17,0,0,1,2.31-5.35c1.87-2.25,3.94-4.36,5.46-6.36,1.83-2.4,2.82-4.58,2.34-5.59,2.72-.49,5.23-2.9,5.3-7.27A18.27,18.27,0,0,1,89,88.56s19-.65,32.09-13.14c0,0,.92.2,0.7,0.37a45.48,45.48,0,0,1-16.46,11L71,121.14Zm3.8-3.95c0.51-.51.63-0.68,0.34-0.92-0.44-.37-1.3.39-1.3,1.16,0,0.49.38,0.34,1-.23h0ZM76,115a0.6,0.6,0,0,0,.06-1c-0.46-.47-1.14-0.18-1.37.57s0.67,1.06,1.31.44h0Zm1.57-1.59a2,2,0,0,0,.38-0.55A1.48,1.48,0,0,0,77,112a1.41,1.41,0,0,0-1,1,1.43,1.43,0,0,0,1,.89A1.26,1.26,0,0,0,77.54,113.42Zm1.48-3a0.72,0.72,0,0,0-1.16,0,0.87,0.87,0,0,0,.13,1.41c0.41,0.42.58,0.38,1.13,0A0.84,0.84,0,0,0,79,110.47Zm1.73-.26c0.51-.43.43-0.78-0.12-1.33s-1-.59-1.44,0a1.06,1.06,0,0,0-.18.53,2.67,2.67,0,0,0,1.21,1.08,1.07,1.07,0,0,0,.53-0.31h0Zm1.67-1.65c0.43-.45.37-0.77-0.24-1.41s-0.88-.58-1.34-0.15-0.37.9,0.16,1.43S81.94,109.06,82.41,108.55Zm1.89-1.91c0.32-.33.23-0.31,0-0.67a4.34,4.34,0,0,0-1.64-1.49,1.07,1.07,0,0,0-.67,1.15c0,0.57.28,0.8,1,1.36,0.48,0.38.33,0.41,0.7,0.19a2.47,2.47,0,0,0,.61-0.55h0Zm1.5-1.37c0.68-.77.55-0.92-1.08-2.64C84.16,102,84,102,83.65,102s-0.4.12-.59,0.52c-0.36.73-.09,1.1,0.93,2.2S85.2,105.95,85.8,105.27Zm1.67-1.8a1.14,1.14,0,0,0,.44-0.67,6.59,6.59,0,0,0-1.79-2,0.93,0.93,0,0,0-1.12.29,0.39,0.39,0,0,0-.19.53,7.55,7.55,0,0,0,2.08,2.2A1.09,1.09,0,0,0,87.47,103.47Zm1.66-1.61a1.73,1.73,0,0,0,.5-0.79,7.07,7.07,0,0,0-1.86-2.21c-0.37-.2-0.59-0.11-1,0.41s-0.26.87,0.59,1.85a3.86,3.86,0,0,0,1.21,1.21A2.32,2.32,0,0,0,89.13,101.86Zm1.57-1.69a1,1,0,0,0,.64-1.06,29.48,29.48,0,0,0-3-3.18c-0.53-.28-0.51.12-0.51,1.44v0.68L89,99.18c1.67,1.64,1.3,1.24,1.69,1h0Zm2-1.86a1.41,1.41,0,0,0,.38-0.66c-1-1.26-4-5.26-4.59-5.11a0.14,0.14,0,0,0-.12.13,5,5,0,0,0-.1,1.9c1,0.91,3.19,3.89,3.7,4.08,0.3,0.12.44-.06,0.72-0.34h0Zm1.62-1.7a1.09,1.09,0,0,0,.35-0.55,3.8,3.8,0,0,0-.69-1c-0.36-.42-1.05-1.27-1.55-1.89-2.84-3.54-3-3.81-3.47-3.45a1.59,1.59,0,0,0-.21,1.38,49.94,49.94,0,0,0,4.34,5.25C93.74,97,93.87,97.06,94.34,96.6ZM96,95a1.37,1.37,0,0,0,.44-0.67,5.58,5.58,0,0,0-.94-1.28c-0.48-.56-1.28-1.52-1.77-2.14-1.27-1.57-1.28-1.62-2.23-1.72-1.44-.15-1.25.17,0.38,2.08,0.39,0.46,1.14,1.37,1.66,2,1.21,1.53,1.74,2.09,2,2.09A1.17,1.17,0,0,0,96,95h0Zm1.66-1.63c0.74-.62.59-0.83-1.81-3.31C95,89.28,95,89.16,94.38,89.16s-0.81.13-.81,0.43a38.92,38.92,0,0,0,3.35,4c0.31,0.12.34,0.15,0.72-.17h0Zm1.75-1.79A1.31,1.31,0,0,0,99.74,91a4.57,4.57,0,0,0-1.31-1.69,1.89,1.89,0,0,0-.91-0.53,2,2,0,0,0-1.23.43A9.29,9.29,0,0,0,98,91.45c0.6,0.64.84,0.69,1.34,0.16h0Zm1.53-1.53a0.82,0.82,0,0,0,0-1.26,0.87,0.87,0,0,0-1-.41c-1.12,0-1.15.29-.28,1.21C100.3,90.31,100.48,90.53,100.92,90.09Zm1.64-1.62c0.43-.55.06-0.86-0.65-0.53a0.67,0.67,0,0,0-.29.37C101.4,88.88,102.14,89,102.56,88.47ZM75.13,93.14c-1.59,1-4.25,2.91-6.06,4.18a5.74,5.74,0,0,0,0,1.51c1-.7,4.33-2.81,5.83-4,0.08-.45.19-1.23,0.23-1.68h0ZM78,88.53c-0.05-.27-0.23-0.1-0.7.3s-5.83,4.39-7.22,5.37A6.14,6.14,0,0,0,69,95a2.88,2.88,0,0,0,.1,1.44c1.13-.86,6.49-4.47,6.57-4.59,0.55-.89,1.79-2.43,2.33-3.33h0Zm-0.6,11.67S71,107.9,69,111.74c0,0,0,4.39-.07,6.92l-0.35.1s0-6.78-.12-14.13c-0.22-18.38-.4-22.84-0.4-22.84L66,80.26l-0.09-.72S75.11,86,79.61,87c-3.29,5.16-6.33,7.15-2.16,13.16h0Zm-7.59,9.22c0.13-.31,0-0.29-0.22-0.28a0.36,0.36,0,0,0-.31.38c0,0.22,0,.28.18,0.24A0.63,0.63,0,0,0,69.85,109.41Zm1.54-2.28c0.92-1.14,1.68-1.87,1.82-2.71a18.51,18.51,0,0,0-4,2.73c0,1.26-.25,1.41.78,0.86,0.45-.25.82-0.55,1.44-0.88h0Zm0.29-2.81c1-.82,4.6-2.77,5-3.73a0.7,0.7,0,0,0-.44-0.81c0.07,0.06-5.17,3.2-7.07,4.85a0.94,0.94,0,0,0,0,.87c0.21,0.55.63,0.1,2.51-1.18h0Zm-1.2-1.52c1.08-.72,3.62-2.48,4.25-2.92,1.08-.75,1.29-1,0.9-1.56a0.52,0.52,0,0,0-.72-0.2c-3.12,2.17-3.38,2.54-5.75,4.06a1.39,1.39,0,0,0,.13,1.29,3.47,3.47,0,0,0,1.19-.68h0Zm0-2.35a50.43,50.43,0,0,0,4.47-3.32,2,2,0,0,0,0-1.33c-1.06.81-3.88,2.54-5.81,4.1a2.28,2.28,0,0,0,0,1.2c0.39,0.16.51-.05,1.33-0.65h0ZM70.13,93c2.07-1.54,4-2.87,6.13-4.31,1.82-1.21,2.13-1.48,1.43-1.84a1.61,1.61,0,0,0-1-.22c-2.42,2-5.11,3.83-7.68,5.74a8.41,8.41,0,0,0,0,1.09c0,0.39.49,0.06,1.18-.46h0Zm-0.28-2.19c0.17-.15,1.25-0.87,2.4-1.7,3.09-2.24,3.46-2.46,3.46-2.7,0-.65-0.89-0.79-1.7-0.13-1.49,1.22-5,3.43-5.06,3.75a2.62,2.62,0,0,0,0,1.12c0.17,0.26.42,0,.86-0.34h0Zm0.89-3c3.14-2.2,3-2.1,3-2.49s-0.31-.19-0.79-0.22-0.46.09-1.32,0.75c-1.84,1.39-2.51,1.77-2.7,2.18a1.12,1.12,0,0,0,0,.75C69.18,89,69.43,88.72,70.74,87.8Zm0.21-2.19a9.77,9.77,0,0,0,1.15-1A0.76,0.76,0,0,0,71.37,84c-0.38,0-.68.2-1.62,1s-1,.57-0.93,1a4.09,4.09,0,0,0,.12.85C69.14,87,69.57,86.76,70.95,85.62ZM69.67,84.2c0.66-.56.8-0.68,0.32-1.16a0.9,0.9,0,0,0-1.22-.28,6.5,6.5,0,0,0,0,1.59c0,0.37.47,0.23,0.92-.15h0ZM83.91,72.1a3.72,3.72,0,0,1,2-1.28,5.59,5.59,0,0,1,3.47.37c0.84,0.42,1.75,1.43.4,0.81A8.09,8.09,0,0,0,85,71.89c-0.71.36-1,.45-1,0.21h0Zm-0.86-4.25a8,8,0,0,1,1.88.38,8.55,8.55,0,0,0,4.9-.33c0.42-.12.63,0.17,0.37,0.38a6.77,6.77,0,0,1-3.11,1.09c-2.24.21-4.64-.94-4-1.52h0Zm-11-3.31c1-.47,2.12-7,1.74-8.16-1.17,1.79-2.48,2.59-4.35,2.28-3.06-.51-3.17-4.28-0.81-4.66,0.94-.15,2.1.47,2.29,0.33,1-.47,1.8-3.86,2-5s0.45-4.05.49-5c0.08-2,0-5,0-5L58.62,21.5H26.25s-0.08,24.9,0,37.67l9,8.87,0.12,14.33c10.31-4.51,20.28-9.24,30-14.36-1.13-1.36-1.1-4.77,1-6.06a3.64,3.64,0,0,1,5.71,2.6h0Zm8.16,3c0.07-.81.67-1.47,0.71-2.29,0-.18.15-0.39,0.63-0.14s0.83,0.1,1.54-.23a2.54,2.54,0,0,1,2.61-.18,1.16,1.16,0,0,0,1.42,0,2.74,2.74,0,0,1,2.39-.46c1.06,0.37,1.43.58,2,.28,0.31-.15.69-0.7,0.76-0.66,0.44,0.65.35,1.67,0.63,2.25,0.49,1,.3,1.68-0.28,1.2-1.22-1-2.18-1-3.93-.6a6.14,6.14,0,0,1-2.68.32c-3.52-.42-3.76-0.31-4.48.17s-1.23.51-1.35,0.32h0Zm9.46-6.4c-1-.25-2.18-1.18-3-0.93a1.2,1.2,0,0,1-1.1-1.83c0.91-.89,2.33,0,2.88.42,1.19,0.91,1.36,1,1.85,1,2,0,1.6-1.89.64-2.57-0.57-.6-0.62-1-0.5-1.13s0.76,0,1.38.62c1.19,1.12,1.21,3.34-.24,4A2.34,2.34,0,0,1,89.71,61.19Zm4.14-6.43a23.34,23.34,0,0,1-3-2.71,2.87,2.87,0,0,1-.92-2.21c0.07-.57.16-0.9-0.21-1.09a1.83,1.83,0,0,1-.68-1.5c0-.12.45,0,0.72,0.28,0.33,0.05.26-.14,0.63-0.38,3.77-2.53,6.79-2,10.37-.3,1,0.5,3.75,2.56,2.3,1.89-0.09,0-1-.45-2-0.94-3.1-1.49-6.56-2.39-9.37-.48-0.48.34-.78,0.6-0.4,0.6,1.58-.31,3.14-1,4.77-0.86,2.42,0,3.89,1.23,5.7,2.06,2,0.88,2.35,1.18,1.63,1.91-0.2.22-.37,0.22-1.32,0.15a1.93,1.93,0,0,0-1.68.32,8.71,8.71,0,0,1-5.21,1.35c-2.05-.17-2.27-0.34-2.31,0a3.15,3.15,0,0,0,1,1.07A14,14,0,0,1,95,55C95.19,55.31,94.41,55.17,93.85,54.76Zm-0.58-3.29a4.47,4.47,0,0,0-.73-1.57c-0.26-.26-0.46-0.16-1,0.23s-0.46.52-.08,0.86C92.26,51.71,93.28,51.89,93.27,51.47Zm3.09,0.15c0.83-.4,1.67-1.82,1.29-2.29-0.23-.28-0.43,0-0.86.76a4,4,0,0,1-.72.95c-0.68.47-1.57,0-1.95-1-0.23-.63-0.47-1-0.73-0.79-0.48.43,0.06,2,1,2.4A2.54,2.54,0,0,0,96.36,51.61Zm2.58-.23c0.84-.26,1.24-0.64,1.17-1A1.27,1.27,0,0,0,99,49.71a0.92,0.92,0,0,0-.67.16,8.13,8.13,0,0,0-.76,1.66c0.1,0.25.38,0.14,1.34-.16h0Zm2.9-6.27c-4.19-1.61-7.5-2.25-11.48-.55-1.28.56-2,.61-2.07,0.16a3.69,3.69,0,0,1,1.86-2,10.61,10.61,0,0,1,8.92,0,22.86,22.86,0,0,1,4,2.79C103,45.64,102.78,45.48,101.84,45.11Zm49,47c1-.53,1.46-1.56.85-2.18a0.84,0.84,0,0,0-.64-0.18,19.82,19.82,0,0,0-3.48,1c-0.33.18-.21,0.49,0.11,0.77a1.15,1.15,0,0,1,.28.73c0,0.4-.05.76,0.21,0.7a11.59,11.59,0,0,0,2.67-.82h0Zm-3.72,1a1.22,1.22,0,0,0-.58-1.67,0.71,0.71,0,0,0-1,.35A1,1,0,0,0,147.14,93.09Zm-3.74.64c0.16-1.73.08-6.85,0.08-6.85a3.74,3.74,0,0,1-1.52.81,10.73,10.73,0,0,1,.78-1.76A11.89,11.89,0,0,0,143,83c-0.06-.86-0.66-0.88,0-2.43a3.21,3.21,0,0,0,0-2.6,1.16,1.16,0,0,1,.23-1.37c0.43-.57.26-0.85,0.25-2,0-1.64,0-1.91-.5-0.59-0.74,1.1-1.08.89-2.21,0.76-1.09,2.45-2.37,5-2.42,7.14,0,1.33,0,1.53.78,4.32a7.48,7.48,0,0,1,.43,2.64,7.46,7.46,0,0,0,.29,2.28c0.32,1.18,1.64,3.12,3.64,2.61h0Zm-38,110.4v-2.47s-3.94,1.22-5.94.47c-2.06-.56-2.05-0.66-2-0.44,0.07,0.4,1.6,1.21,3,1.54a10.17,10.17,0,0,0,4-.29c0.55-.16.61,0,0.39,0.16-2.42,1.89-5.48,1-7.4-.55-1-1-1.72-1-1.16.34,2.64,5.37,9.21,2.2,9.14,1.24h0Zm-2.66-3.67,0.9,0a5.35,5.35,0,0,0-.74-2,2.13,2.13,0,0,0-3.14.13,5.91,5.91,0,0,0-.69,1.91l0.72,0c0.27-.69,1.4-3.95,3,0h0Zm-3.59-2.37a3.89,3.89,0,0,0-2.17.72c-0.2.22-.2,0.26,0,0.57,0.52,0.69,1.32,1,1.38.76a8.33,8.33,0,0,0,.76-2.06h0Zm5.92,1.74a1.65,1.65,0,0,0-1-1.59c-0.31-.08-0.61-0.14-0.52.2a9.39,9.39,0,0,0,.51,1.41c0.14,0.31.23,0.47,0.54,0.35a0.7,0.7,0,0,0,.52-0.37h0Zm38.45-32.72v-4.18a55.13,55.13,0,0,0-5.69,7.07ZM79.14,51.91a2.17,2.17,0,0,0,1.32-2.14c-0.14-.37-0.51-0.07-0.89.47-0.6.87-.76,1-1.29,1a1.14,1.14,0,0,1-1.18-.91c-0.27-.72-0.46-0.83-0.7-0.52a1,1,0,0,0,0,.87A1.79,1.79,0,0,0,79.14,51.91Zm2.43-.43c1-.34,1.19-0.45,1.15-0.78A1.37,1.37,0,0,0,81.44,50a4.34,4.34,0,0,0-1.11,1.76C80.44,51.92,80.77,51.75,81.58,51.47Zm-5.71-.58a1.81,1.81,0,0,0-.16-0.71,0.58,0.58,0,0,0-1,.37,1,1,0,0,0,1,.79C76,51.35,75.93,51.43,75.87,50.9Zm5.59-2.5c1.41,0.53,2.12.59,1.36-.13-1.05-1.17-5.88-2.51-8.47-.6-0.18.26-.15,1.27,0.06,1.22a7.72,7.72,0,0,1,7.06-.49h0Zm-4.82-4c-1.18.39-2.29,1-2.44,1.59-0.23.93,0.19,0.94,1.73,0.45a7.43,7.43,0,0,1,5.92.63c1.29,0.94,1.67.63,1.45-.16-0.72-2.61-4.75-3.08-6.67-2.51h0Z" transform="translate(0.1 0.1)"/><path id="path6265-7" class="cls-4" d="M152.6,27.57l-8.7,8.64L144,46.44C144.9,48,130.59,41.86,128.33,40c0.26,6.83,9.57,14.61,15.62,17.46l0.17,21.87a23.52,23.52,0,0,1,7.79-2.26C153.09,62.19,154.1,42.84,152.6,27.57Zm-48.41,10.7c-0.85,0-1.36.24-1.34,0.79-0.26,0,3.22,12.77,4.8,18.12-3.08,3.11-6.28,8.52-1.69,13.53a22,22,0,0,0,4.48,3C111.2,74.45,101.1,81,92.11,81c-2.88-6.33-6.91-2.83-9.13-.62-1.73-.15-8.21-4-11.52-6.23a6.79,6.79,0,0,1,0-1.12c0.23,1.51,13,4.77,13.55,3.25-0.37,0-5.72-3.63-7.25-7.2a70,70,0,0,1-3.53-9.58c-0.71,2-.47,4.89-2.43,5.91-0.59-6.67-10.09-3.27-5.36,3.25-2.66.78-4.93,2.16-7.51,3.31A44.23,44.23,0,0,0,79.58,87.09c-1,2.21-7.15,7.18-2.13,13,0.23,0.18-4.8,5.67-7.27,10-1.86,3.23-1.3,5.71-1.09,5.79a103.5,103.5,0,0,0,10.63-14.43c-0.06.91,8.08,0.42,7.94-6.92a20.91,20.91,0,0,1,1.3-6c12.42,0.59,23.09-3.85,32.12-13.15,0,0,1.84.53,3,.71A9.06,9.06,0,0,0,130.57,73c1.35-1.1,2.7-2.15,3.18-3.28,1.78-7.64-6-4.65-6.39-4.25-4.46-6.07-8.23-23.32-8.83-23.45-2.49-.5-11-3.77-14.33-3.71h0ZM73.61,50c-0.33,0-1.53,5.36-2.58,5.32-4.48-2.89-4.58,3.09-.72,2.82,3.26-.23,5.08-5.49,3.32-8.14h0ZM25.71,60.15c0.15,32.46.73,64.9,1.49,97.34,2.93-.72,5.06-1.28,7.93,0,0.27-9.22-.54-32.5-0.35-55,10.94-8.53,18.63-17.93,24-30.22L42.1,80.05s-5.46,7.84-7.2,8.34c-0.25-1.12-.53-14.39-0.3-20.08ZM62.83,80.22L59.55,85s0.08,16.34.27,24.22c0.14,1.57,1.56,3,.42,4.41,0.69,0,3.73,21.2.84,29.8-0.52,1.54,0,2.63.77,3,4.12,4.57,6.38,9,11.81,6.36C79.58,147.33,88,137.82,88,137.82L65.75,116.76c-1.91-5.11-2.92-36.53-2.92-36.53h0Zm81,68.16c-10.1,9-19.33,18.32-23.11,29.59,5.4-2.17,10.54-4.83,15.79-7.28,2.54-3.06,4.5-6,7.42-8.94,0,0,.32,13.3.06,20,2.63,2,8.87,8.07,8.87,8.07s1.72-94.48-2-96.88c-3.61.7-5.42,2-6.77-2.17-1,19.24-.26,57.63-0.26,57.63h0Zm-35-53.17c-3.88,3.18-17.24,16.3-17.21,16.44,3.54,5.95,17.53,17.87,24.23,24.53l1,33.95c1-1.33,1.7-2.58,2.77-3.91,0,0-.17-17.19-0.59-25.25-0.12-2.38-.67-4.26-0.5-4.48-1.89-9.78-2.67-20.58,0-31.07-6.33-5.46-8.34-9.1-9.68-10.21h0Zm1,38.77,0,0c-3.28,4.68-9.55,14.83-10,14.81-0.13-.3-6.48,0-7.68,4-1,3-1.08,5.72-1.82,8.79-12.73-.42-22.05,3.62-31.86,12.68-4.81,0-8.38,1.08-10.05,3.11-2.49,1.81-3.17,3.35-3,5.24,0.22,3.42,6.26,3.91,6.57,1.5,0.31,0,5.91,12.82,6.45,15,1.32,3.53,2.74,10.14,2.9,10.15,2.26,0.15,14.92,3.7,15,2.41,1.19-.51-4.4-18.86-4.4-18.86,9.78-8.22-1-17-3.54-16.69a35.72,35.72,0,0,1,19-7c1.09,3.92,6.15,5.94,8.69.73,0,0,11,3.93,10.91,5.23-4.51-.68-8.22-1-12.74-1.47,8.65,4.71,8.92,10.91,10.69,17.08a63.54,63.54,0,0,1,2.52-5.87c2.93,6.52,8.52,2,6.21-3.27l6.95-3.23c0.8-.41-10.38-13-20.55-14.79,0.51-.94.71-1.82,1.24-2.59,2.55-2.51,4.53-6.18.63-10.57,2.57-3.6,8.54-12.3,8.16-12.46,0,0,.12-4.06-0.19-4h0ZM26.33,174.06c-0.1,0-.28,30.16-0.07,45.13a28,28,0,0,0-.41,3.93l9.26-8.72,0.28-11.27c2.42-.58,17.49,7.09,16.28,7,1.15-.49-7-15.83-16.41-17.53-0.18-8.69-.26-18.53-0.51-21.17A69.61,69.61,0,0,0,26.33,174.06Zm82.22,18.14c-2.59.77-3.67,6.24-2.84,8.88,0.16,0.49.06,0.6,0.47,0.12,1-1.49.69-4.45,2.48-6C113.38,196.62,112.91,190.48,108.55,192.21Z" transform="translate(0.1 0.1)"/><path id="path6267-4" class="cls-2" d="M48.56,227.78l12.26-18.56c14.64,4.9,29.58,5,44.68,2.57l13.5,16h-5.52L105,215.62c-3.08.71-6.28,1-9.46,1.46l4,10.69H95.16L92,217.2a100.14,100.14,0,0,1-17.4-1L72.8,227.78H68.4l3-11.92a85.94,85.94,0,0,1-9.85-2.14l-9,14.05h-4Zm14-10.92,5.09,1.38-2.49,9.54H55.89Zm13.14,10.92,1.44-8.43a66,66,0,0,0,12.58.76L92,227.78H75.74ZM99.83,220l4-1.07,6,8.88h-7.32ZM41.26,166.34c19.58-22.82,17-46.77,6.16-66.1l2.3-2.37c12.51,20.6,15.17,49.88-7.88,72.58C41.6,169.09,41.26,166.34,41.26,166.34Zm78.09-25.59c2.81,4.8,4.53,9.65,7.51,14.48l-7.05,9.55ZM35.1,155.86c-0.18-15.06,0-45.57,0-45.57l6.61-5.06c7.91,9.62,12.22,35-2,51.83-1-.75-3.84-0.44-4.68-1.2h0Zm93.81-3c-18.12-30.62-8.82-53,8.65-72.82,0.05,1.53.08,3.09,0.22,4.61-15,17.2-21,42.64-6.29,65.66Zm-32.81-4.45,8.25-11.27s1.56-4.48,2.88-5.81l1.51-1.34,1.54,1.51L109.36,135q-4.58,7.07-9.65,14.14S96.78,148.58,96.09,148.38ZM140,93.69c0.26-.3,3.54,1.07,3.54,1.07l0.21,46.3-6.56,4.22c-1.9,1-16.77-29.42,2.81-51.6h0ZM70.9,113.19c3-4.08,6.13-7.6,9-11.35a13.71,13.71,0,0,0,2.71.3c0.21,0.11-.66,3.11-2.8,5.17-5.88,7-7.21,8.35-7.43,11.25-0.07.93-2.14,2-2.14,2L68.78,119a19.37,19.37,0,0,1,2.12-5.81h0ZM52.27,95.43L59,86.59l0.48,23ZM73.78,37.86l-13-16.29h6.3L74.82,33.1,84.1,32,80.83,21.57h3.85l2.72,10.3c5.69,0.14,11.26.58,16.66,1.12l2.78-11.42h3.92l-3.55,12,10.48,2.76L127,21.57h4.64l-13.23,19c-17.3-5.21-31.2-4.61-44.63-2.7h0ZM111.29,31l3-9.48h8.87L116.34,32.4ZM89.83,28.73L88,21.57h15.63l-2,8a69.86,69.86,0,0,0-11.74-.85h0ZM71.09,21.57h6.24L79.76,29l-3.6.41Z" transform="translate(0.1 0.1)"/><path id="path6269-8" d="M58.73,20.52L73.8,38.58c3.14-1.13,19-2.93,28.45-.76,1.65,6.49,3.4,13,5.25,19,0,0-.59.69-1,1.13-6.06,7-1.77,13.76,3.78,16-1,2.08-11.63,7.26-18.1,6.65,0-.06-2-4.76-6-3.17-1.38.54-2,1.59-3,2.61-3.87-1.17-9-3.72-11.63-6.52,5,2.48,9.86,3.81,14.77,3.15a6.71,6.71,0,0,0-1.3-.83,21.75,21.75,0,0,1-2.22-1.34,15.31,15.31,0,0,1-5.36-6.58c-1.8-3.22-2.09-6.68-3.08-9.74-0.52,1.57-.75,5.7-2.11,6.56-0.35.23-.42,0.16-0.68-0.71-1-3.18-4.85-2.78-6.11-.51a5.18,5.18,0,0,0,.26,4.61l-2.31,1.28v0.38l-1.42.68-0.3-.2c-6.61,3.2-13.08,6.53-19.83,9.59,0,0-3.58,6-6.86,8.32L34.79,67.89l-9.7-8.78,0,4.81,0.7,0.73c0.13,33.84,0,67.12,0,97.84l0,28.28-0.59,0,0,3.3,0.67,0.15-0.09,4.66-0.35,0-0.05,2.95L25.91,202v16.64l-0.52.68V224l10.13-9.65,0.23-11c8,1.51,16.34,7.27,16.34,7.27C50.69,201.5,41,193.93,35.38,192.42l0-21.77a35.63,35.63,0,0,1-6.2,2,1.55,1.55,0,0,1-1.89-.74c-0.35-.53-0.36-1,0-2.13a1.43,1.43,0,0,0,0-1.17,3.54,3.54,0,0,1,0-2.35,2.21,2.21,0,0,0-.13-1.86,1.58,1.58,0,0,1-.2-1.32c0.34-1.14.36-1.32,0.18-1.83a2.88,2.88,0,0,1,0-2.36c1.49-2.51,4.84-1.89,6.66-1.8,0.92,1,1.47,1.6,1.56.11,0.64-1.78,3.15,0,4.31.8,9.94-13.35,14.85-31.42,2.37-54L35,109.51l0-7c9.2-5.92,19.55-19.39,24-30,1.49,1.75,3.2,3.47,4.81,5.23L62.8,79.54l-0.31-.18A127.4,127.4,0,0,1,51.76,95a156.14,156.14,0,0,1,7.6,16.15l0.57-.26,0.51,1.64-1,.3c3.39,11.16,3.51,21.49,1,31L61,146.4s3.59,3.49,4.56,4.51l5.35,5.2,3.28-3.22L74,152.62,102.72,124l1.79,1.72c-17.6,17.76-48.17,48.42-48.17,48.42l-1.06.15a11.15,11.15,0,0,1-2.06.09,2.56,2.56,0,0,0-1.8.31,7.25,7.25,0,0,0-2.48,2.12,2.52,2.52,0,0,1-1.19.9c-6,3.58-.57,10.79,4.52,7a95.09,95.09,0,0,1,8.64,23.71,3.22,3.22,0,0,1-.67.29l-13.43,20H52l0.54-.92H48.65L61,209.9a100.13,100.13,0,0,0,44.78,2.35l12.74,15.53h-5.05l0.72,0.92,6.54,0.1-15-17.71c-5.36,1.44-19.51,2.59-28.38,1.09-1.36-6.6-3.6-13.78-5.25-19.49,8.47-6.64,2.11-15.41-3.12-16.63-0.25-.48,10.6-7.09,18.33-6.63,2.21,5.33,7.06,4.54,8.8.57,3.21,1.18,7.37,2.36,10.67,5a72.77,72.77,0,0,0-13.71-1.56c8,3.1,10.23,9.64,11.21,15.81a13.39,13.39,0,0,0,.72,2.34,22,22,0,0,1,2.58-6.44c0.62,2.18,2.88,3.88,5.17,2.58,1.33-1,1.79-2.61,1.37-4.9-0.12-.63-0.18-1-0.18-1l1.78-1,0.23,0.2s1.95-.83,2.91-1.3c0.15-.07-0.18-0.38-0.18-0.38l17.95-8.48a69.36,69.36,0,0,1,7.16-8.74c0.08,7.53.06,10.62,0.06,19.56l1,1c0.9,0.88,2.86,2.7,7.28,6.77a14.49,14.49,0,0,0,1.69,1.37L153.72,59.21h-0.15V56.68h0.21V50.08L153.6,50V47.9l0.25-.18,0-17.78-0.28,0,0-4.27-10,10.6,0.08,10c-4.46-.58-10-3.44-13.79-5.75-1.23-.75-1.91-1-1.88-0.52,0.53,6,9.13,15.06,15.74,17.44V79.78s1.56-.78,2.51-1.18l0.14,0.4,2.13-.88,0.17-.46,1.85-.23c0,0.38.08,0.33,0.08,0.33,1.65,0.46,2.37,1.59,1.71,2.85a1.2,1.2,0,0,0-.08,1.18c0.71,1.13.9,2.12,0,3.19a1.14,1.14,0,0,0,0,1.43c0.89,1.8.38,1.68-.29,2.75-0.15.81,0.73,1.34,0.44,2.1a3.07,3.07,0,0,1-1,1.36c-0.42.31-.77-0.26-0.77-0.26a14,14,0,0,1-2.29.76c-0.94.31-2.57,0.85-3.13-.42a5.42,5.42,0,0,1-.08-2.21l-1.38-.15L143.71,94c-0.79.42-3.94-1.19-3.94-1.19-13.5,17.53-13.12,37-3.11,53.26,0.1,0.26,7.05-4.77,7.05-4.77s0,4.12,0,6.36A92.19,92.19,0,0,0,120.28,177l-3.78-4.49a2.71,2.71,0,0,0,.66-2.18l2.75-4.1,0-1.07,7.14-10c0.11,0.6-7.37-13.42-8.36-18l0.5-.13c-3.36-12.73-2.67-21.64-.24-32l-0.69-.67-9.42-9.43-2.29,2.13c-0.12.11-.69,0-0.81,0.15-5,4.66-9.73,9.33-14.44,14.19-0.12.13,0.08,0.64,0,.77-4.73,4.88-9.63,9.51-14.41,14.37l-1.75-1.67c16.94-17,48.84-48.47,48.84-48.47a0.51,0.51,0,0,1,.36-0.26,10.4,10.4,0,0,0,2.56-.49,2.5,2.5,0,0,0,1.66-.78,9.57,9.57,0,0,1,1-.87q0.69-.51,3.17-2.67a4.51,4.51,0,0,0,1.61-3.31,4,4,0,0,0-3.12-4,5.19,5.19,0,0,0-2.85.76c-0.55.37-.8,0.54-1,0.37A100.88,100.88,0,0,1,119,42a1.29,1.29,0,0,1,.34-1.17l1.13-1.76c4.31-6.73,8.72-12.37,12.5-18.55h-5.33l-0.66,1h4.39l-13,18.82c-24-7.88-43.75-2.88-44.22-2.78l-13-16h5.94l-0.72-1H58.73Zm11.7,0,0.66,1h6.24l-0.35-1H70.44Zm10.4,1h3.84l-0.22-1H80.52Zm6.88-1,0.24,1h15.63l0.28-1H87.72Zm19.11,1h3.92l0.29-1H107.1Zm7.75-1-0.34,1h8.88l0.67-1h-9.21Zm38,7.26,0.14,2.92-6.4,6.76V46.9l-1.86-.43-0.07-9.76ZM150.76,34c0.05,2.89-.41,5.66.35,8.61a25,25,0,0,1,1.23,4.87l-2.11-.05c-0.27-.87-0.37-1.82-0.69-2.89a16.77,16.77,0,0,1-.84-8.18Zm-46.09,4.72c0.08,0.14.33,1.36,0.56,2.5a109.55,109.55,0,0,0,4.11,15.53c1.93,5.92,4.78,13.37,7.55,16.82a1.25,1.25,0,0,1,.42,1.13c-0.22.36-1.36-.14-2.11-0.95a12.28,12.28,0,0,1-1.35-2.07c-1-1.82-2.27-4.46-2.4-4.88-0.05-.17-0.56-1.48-1.14-2.9a73.61,73.61,0,0,1-2.43-7c-0.66-2.2-1.28-4.5-2-6.82a84,84,0,0,1-2.59-10.3,5.18,5.18,0,0,1-.21-1.23A1.54,1.54,0,0,1,104.67,38.71Zm0.68,0.24a2,2,0,0,1,1.49.21,6.33,6.33,0,0,1,.5,1.78A128.36,128.36,0,0,0,112,58.18a66.14,66.14,0,0,0,5.33,12.27A25,25,0,0,0,120,74.2c0.64,0.75.69,0.86,0.52,1.07s-0.58.22-1.29-.12a5.79,5.79,0,0,1-2-2l-0.78-1.11a80,80,0,0,1-6.68-15.64,115.2,115.2,0,0,1-4.38-16.86l0-.62h0Zm3.89,0.81a4.18,4.18,0,0,1,.66,1.91c1.29,5.31,2.34,10,3.87,14.4,0.82,2.34,1.53,4.68,2.41,6.89a37.63,37.63,0,0,0,5.23,9.41,12.47,12.47,0,0,0,3,2.6c0.74,0.44.85,0.55,0.8,0.8a1.37,1.37,0,0,1-1,.3,6.73,6.73,0,0,1-3.37-1.77c-3.55-3.84-6.09-10.13-7.94-15.29-3.18-8.88-5.74-20-5.25-19.64,0-.26,1.27,0,1.59.38h0Zm1.53,0.32a1.6,1.6,0,0,1,.39.06,1,1,0,0,1,.91,1c1.13,5.07,2.34,9.55,3.68,13.8a79.16,79.16,0,0,0,5,12.7A14,14,0,0,0,126.52,74a13.52,13.52,0,0,1,1.24.67,0.37,0.37,0,0,1,0,.36c-0.12.22-.25,0.26-0.78,0.25a4.69,4.69,0,0,1-2.75-1c-2.79-1.93-5.23-6.29-6.31-8.77a99.33,99.33,0,0,1-3.61-9.58,107.83,107.83,0,0,1-4.06-15.39,0.45,0.45,0,0,1,.55-0.45h0Zm41.81,8.29,0,1.8c-7,.47-14.23-2.51-20-5.19,4.36,5.8,9,10.94,20,12l0,1.86c-14.33-.2-24.42-14.74-23.89-18.36,5.89,3.81,16.54,8.22,23.89,7.89h0ZM113,40.75a1.77,1.77,0,0,1,1,.34c1.17,4.38,2,9.24,4,14.12,2.38,6,3.7,11.29,8.11,16.23,1.37,1.41,4.06,1.37,4.06,1.37a1.8,1.8,0,0,1-.8.89,4.88,4.88,0,0,1-2.32,0c-2.55-1.08-4.51-3.82-5.52-5.67-0.94-1.39-3.25-7.11-5.15-12.94-2.07-6.35-3.77-13-3.58-14.28A0.52,0.52,0,0,1,113,40.75Zm2.36,0.74a1.65,1.65,0,0,1,.66.19,0.89,0.89,0,0,1,.56.76c0.1,0.35.08,0.9,0.25,1.79a81.39,81.39,0,0,0,3.73,11.9A72.13,72.13,0,0,0,125,66a21.26,21.26,0,0,0,2.27,3.52c1.48,1.48,4,1.55,4.72.08a2.48,2.48,0,0,0-.48-2.84c-0.63-.6-2.05-0.35-2.09.38,0,0.19.35,0.11,0.87,0,1.43-.17,1.88,2.37,0,2.8-2.33.54-3.95-2.62-1.89-4.56,3.49-2.37,6.15.87,5.33,4a4.24,4.24,0,0,1-3.89,2.84c-2.28.07-3.22-.63-5.55-4-2.67-4.3-3.84-8.5-5.72-13.2a57.54,57.54,0,0,1-3.53-13.34,0.32,0.32,0,0,1,.33-0.19h0Zm2.21,0.73a1.5,1.5,0,0,1,1.11.46c3.14,11.47,5.75,18.34,8.42,23.19a3.49,3.49,0,0,1-.22,1.14c-0.32.45-.47,0.34-0.89-0.37-1.68-3.25-3.27-6.84-4.76-10.54a61.39,61.39,0,0,1-4-13.15c0-.55-0.09-0.71.3-0.74h0Zm21.16,6.56a0.8,0.8,0,1,1-.81.8A0.8,0.8,0,0,1,138.77,48.78Zm-65.19-.15c-0.93,1.27-1.69,5.82-2.66,5.87s-2.36-.63-3.19.34c-1,1.17-.39,2.47.86,3.18a4.35,4.35,0,0,0,2.54.14c3-1,4.2-6,2.45-9.53h0Zm68.23,1.19A1.16,1.16,0,1,1,140.65,51,1.16,1.16,0,0,1,141.81,49.83Zm-68.18.55a6.67,6.67,0,0,1-1.38,6.81,3.21,3.21,0,0,1-4,.15,1.53,1.53,0,0,1,1.14-2.64,2.34,2.34,0,0,1,1.56,1c1.06,0.11,2.28-5.27,2.72-5.36h0ZM145.86,51a1.31,1.31,0,1,1-1.31,1.31A1.31,1.31,0,0,1,145.86,51Zm4.64,0.93a1.34,1.34,0,1,1-1.34,1.34A1.34,1.34,0,0,1,150.5,51.94ZM107.33,58a0.64,0.64,0,0,1,.47.58,1.08,1.08,0,0,1-.16,1.43c-4.11,5.7-.36,11.53,5.59,12.17a1.6,1.6,0,0,1,1,1.26c0,0.31,0,.31-1.39.34a8,8,0,0,1-2-.16,10.89,10.89,0,0,1-5.69-4.2c-1.2-2-1.41-4.1-.66-6.89a8.45,8.45,0,0,1,2-3.94A1.52,1.52,0,0,1,107.33,58Zm39,0.63,0.07,19.56L144.3,79l0.08-20.81Zm3.94,0.76q3.89,9.67.37,17.73l-2.36.34c3.24-7.57,1.86-13,0-18.23ZM26,60.5l8.41,8,0.29,88.62-1.34-.47L32.79,69.43,26,63.16V60.5Zm82.16,0.25h0a1.1,1.1,0,0,1,.62.85,1.25,1.25,0,0,1,0,1.28c-1.15,2.84-.21,5.53,2.64,6.38a1.54,1.54,0,0,1,1.19,1.17,1.11,1.11,0,0,1,.27.86,2.35,2.35,0,0,1-1.58-.07,6.85,6.85,0,0,1-3.85-9.79,1.22,1.22,0,0,1,.66-0.68h0ZM74.34,60.4a22.21,22.21,0,0,1,.8,3.85c-0.22,1.37-2.17,3.57-3.88,4.37-1.58.61-4,.3-5-0.75-3.63-4.26,3.14-8.53,4.85-4.1,1,2.91-3.14,3.6-3.32,1.36A1.17,1.17,0,0,1,68.54,64c0.48-.33.42-0.63,0-0.63a1.81,1.81,0,0,0-.9,2.94c1.42,1.48,3.17.62,4.38-.47,1.63-1.47,1.95-3.57,2.32-5.44h0Zm35.13,3.24c0.08,0,1.75,4,2,4.55-0.06.4-.49,0.37-1.23-0.15a2.92,2.92,0,0,1-1.3-2.12C108.81,65.48,108.65,63.9,109.47,63.64ZM75.7,65.32c0.37,0,.75,1.35.57,2C76,68.55,72.85,70.57,70.65,71l-1,.2a1.86,1.86,0,0,1-1.54-.74,1.12,1.12,0,0,1-.48-0.89c0.08-.08,1.08.1,1.94,0.09,2.39,0,4.24-1.69,5.66-3.74a1.81,1.81,0,0,1,.52-0.59h0Zm-47.55,1s1.62,1.47,2.47,2.31c-0.09,3.91-1.53,8.14-1.53,11.64,0,3,2,5.57,2.2,8.21a14.82,14.82,0,0,1-1.22,6.18,14,14,0,0,0-1.19,5.56c0.1,4.32,3.19,9,2.11,13.31-1,4-2.18,6.33-1.88,8.46,0.59,4.11,2.78,7.75,2.2,11.17-0.54,3.18-2,6.36-1.82,9.24,0.18,3.32,1.41,6.09,1.76,9.11a22,22,0,0,1-.33,5l-2.27.19c1.25-4.66-.61-8.87-1.32-13.35-0.61-3.81,1.1-6.85,1.61-10.1a12.13,12.13,0,0,0-1-6.52c-2-4.75-1.26-7.84.16-12,1.76-4.4-.66-7.89-1.26-12.11a18,18,0,0,1,1.29-9.44c1-3.11,1.3-4.92-.21-7.9a10.09,10.09,0,0,1-1.21-5.49c0.49-4.93,1.82-7.7,1.5-13.52h0Zm48.64,2c0.35,0,.53.25,0.53,0.75,0,0.92-1.37,2.09-3.79,3.23-1.26.59-2,.68-2.72,0.33s-0.65-.61.1-0.83a11.31,11.31,0,0,0,4.77-2.69,3.89,3.89,0,0,1,1.12-.8h0Zm-11,.63c6.25,6.7,12.37,10.15,17.05,11.76l-0.74,1.75C76,80,69.71,76.72,64.39,69.58Zm12,1.09a2.18,2.18,0,0,1,.8,1,2.65,2.65,0,0,1-.52.9,4.91,4.91,0,0,1-1.81,1.37c-1.4.77-2.24,1-2.85,0.63s-0.4-.59,1.11-1.47a17.07,17.07,0,0,0,2.3-1.64A8.46,8.46,0,0,1,77.86,70ZM61.31,71A38,38,0,0,0,80.76,85.16l-1.22,1.65c-7.08-2.44-14-6.86-20.32-14.64Zm17.87,0.86a1.45,1.45,0,0,1,.84.95,1.17,1.17,0,0,1-.25.57,12.23,12.23,0,0,1-2.31,1.74,1.3,1.3,0,0,1-1.35,0c-0.62-.31-0.51-0.56.49-1.21a13.37,13.37,0,0,0,1.65-1.3,3.61,3.61,0,0,1,.93-0.73h0Zm-20.58.51c-0.15.18-7.53,17.14-23.19,29.16l-0.07-2.82c8.67-6.89,15-16.32,19.73-24.56Zm22.07,1.22a0.66,0.66,0,0,1,.57.47c0.2,0.38,0,.72-0.89,1.38a1.61,1.61,0,0,1-1.2.49c-1.16,0-1.14-.3.14-1.45a2.84,2.84,0,0,1,1.38-.89h0Zm30.23,0.84,3.26,0.25c0.88,0.61-12.75,9.55-22.2,8.75l0.25-2.14C100.5,81.53,111.12,74.82,110.9,74.43Zm-28,.84c0.75,0.42,1.68.92,1.45,1.08a6.66,6.66,0,0,1-3.07-.2c-0.38-.2-0.36-0.31.17-0.9S82.21,74.88,82.91,75.27Zm-29.09-.53c-5.17,9.14-11.33,17.48-18.46,22.92l-0.09-4.83C42.06,87.58,47.19,78,47.2,78Zm64.76,0.58,1.58,0.93c-9.86,9.14-20.51,13.08-30.74,12.1l0.82-1.85c16.61,1.31,27.63-11,28.34-11.17h0Zm2.4,0.32a0.69,0.69,0,0,1,.47,0,77.36,77.36,0,0,1-10.71,8.56c-13.94,14.34-25.87,25.66-38,38.44l-1.94-2,1.76-1.86c0-3.68,4.51-7.81,7.17-11,1.11-1.26,3.2-4.49,3-5.85a3.29,3.29,0,0,1-.09-0.43c4.22-.84,5.23-4.27,5.32-7.3a19.51,19.51,0,0,1,1.15-5.53C108.15,90.22,120.45,76.14,121,75.64ZM87.7,77.76a3.85,3.85,0,0,1,3.8,4.15c0,1-.38,1.79-1.75,4.49-1.33,2.3-1.51,3.7-2,6.36l-1.36-1.22-2.47,2.23,0-3.25s0.85-1.08,2.23-2.63c1.75-1.94,3.32-4.44,3.25-5.84a2,2,0,0,0-3-1.63C85,81.32,84.44,83,83.66,88c-0.14.88-.27,1.92-0.34,2.15a13.16,13.16,0,0,1-2.1,2.42,30.29,30.29,0,0,1-.91-3.66l-1.92.32a25.46,25.46,0,0,0,5.08-8.41c1-1.89,2.35-3,4.23-3h0Zm-41.84.78S42,86.5,35.32,91.68l0-3.12a32.57,32.57,0,0,0,6.88-8.25ZM138,78.74c-13.29,13.79-30.63,39.17-9.11,74.84l2.84-3.29c-17.33-32.26-5-49,6.36-65.75ZM66.15,79.87c3.89,2.77,8,5.52,13.2,7.27-0.28.94-7.5,7-2.32,12.65,0.22,0.29-.33,1-1.18,2-2.48,3.39-4.95,5.8-7,9.62l-0.08,7.17-2.07-1.83Zm71.35,0.66,0.09,4.09c-19.75,24-17.52,45.69-6.36,65.64l-2.14,2.17c-18.29-31.55-6.88-55.33,8.41-71.9h0ZM88.79,83c-0.87,2.3-4.68,6.25-4.68,6.25s0.5-3.84.82-5.06a7.77,7.77,0,0,1,1.33-2.77C87.8,79.68,89.33,81.6,88.79,83Zm-26.2-2.16L63,113l-2.78-2.8L59.78,85.57Zm-3.75,6.3L59.39,109a131,131,0,0,0-6.74-13.66Zm21.92,6.84a11.17,11.17,0,0,0,1.09-1.12c1.44-1.46,1.57-1.47,1.44.5-0.05.76,0,1.73,0,1.73,0.84-.49,2.83-2.84,3.39-2.42a3.59,3.59,0,0,1,.79,2.58,6,6,0,1,1-10.08-4.35c0.44-.47,1.7-1.33,2.3-1.16,0.75,1.37.72,2.89,1.07,4.24h0Zm63.48-2.32a3.56,3.56,0,0,0,2.14,2.49c-0.2,31.32-.05,86.77-0.05,86.77l6.29,5.91,0,2.58-8.33-7.64s-0.45-65.4,0-90.11h0Zm6.24,1.45c0.22,3-.29,6.22.23,9.33,0.51,2.15,1.29,4.09,1.35,6.21a14.85,14.85,0,0,1-.89,5.74,13.21,13.21,0,0,0-.77,4.08c-0.31,2.63.54,5,1.19,7.1,0.86,2.78.62,6.13-.76,10.56a8.69,8.69,0,0,0-.52,3.71c0.19,3,1.27,5.91,1.82,8.89,0.3,1.71,0,3.94-1.06,7.72a25.59,25.59,0,0,0-.8,4.79,13.92,13.92,0,0,0,.62,3.67c1.45,3.83,1.52,4.51,1.6,6.81a13.5,13.5,0,0,1-1.1,5c-1,2.43-.35,4.92,0,7.65l-2.51-2.15a9.31,9.31,0,0,1,.21-6.26c1-2.73,1.22-3,1.21-4.55,0-2.08-1.21-4.54-1.7-6a12.24,12.24,0,0,1,0-7.9,41.31,41.31,0,0,0,1.18-5.07c0.27-2.07.06-3.7-1-7.84a17,17,0,0,1-.65-4.82,21.76,21.76,0,0,1,.84-6.05,14.06,14.06,0,0,0-.27-9,15,15,0,0,1-.93-6.78,10.69,10.69,0,0,1,1.06-3.64,11.32,11.32,0,0,0,.44-7.82,37.27,37.27,0,0,1-1.22-12.65Zm-7,1.72c-0.22,21.47,0,46,0,46s-6.35,4.45-6.32,4.22c-8.18-13.51-11.29-33.41,3-51.36a18.72,18.72,0,0,0,3.33,1.1h0ZM46.92,99.9c11.57,21.65,13.08,43.53-6.06,66a11.76,11.76,0,0,1,.21,5.64C44.8,168.6,74.72,138.66,49.53,97Zm59-1.76,5.68,0.33,0.38,4.9-1.84,1.83s0-1-.06-1.92a5.14,5.14,0,0,0-.29-2,14,14,0,0,0-.28,2.73l-0.08,2.1-0.64.64c-0.85.85-1,.78-1.05-0.41-0.07-2.6-.06-2.78-0.25-2.59a8.58,8.58,0,0,0-.19,2.34,13.93,13.93,0,0,1-.17,2.27,3.76,3.76,0,0,1-1.5,1.34c-0.26,0-.25-0.38-0.25-2,0-1.36-.14-2.11-0.36-1.61a21.71,21.71,0,0,0-.16,2.57,12.83,12.83,0,0,1-.16,2.23,3.73,3.73,0,0,1-1.55,1.31c-0.28-.11-0.35-0.92-0.34-2.27a2.07,2.07,0,0,0-.15-1.4c-0.25-.18-0.3.59-0.23,2.53l0,2.12-0.71.78c-1.13,1.17-1.21,1.11-1.21-.9,0.05-1.59,0-2.29-.32-2.17s-0.19.9-.13,2.47a8.14,8.14,0,0,1-.06,2.28,6.41,6.41,0,0,1-.81.92c-0.37.36-.83,0.86-0.88,0.86-0.09-1.69-.23-5.33-0.23-5.33l-5.93-.26a11.56,11.56,0,0,1,1.73-1.72A5,5,0,0,1,96,110a15.85,15.85,0,0,0,2.5-.09c0.45-.17-0.48-0.32-1.79-0.41a20.42,20.42,0,0,1-2.07-.18l0.86-.89,0.65-.64,1.89,0.06a10,10,0,0,0,2.13,0c1.12-.22.07-0.48-1.21-0.48S97,107.31,97,107a4.8,4.8,0,0,1,1.79-1.63c0.2,0,1.22-.08,2.25-0.09,1.78,0,2.42,0,2.32-.34s-1.28-.21-2.06-0.24c-2.18,0-2.28-.09-0.79-1.39l0.72-.63,1.36,0c2.06,0.06,3.05,0,3.05-.22a5.66,5.66,0,0,0-2.48-.35H102a17.43,17.43,0,0,1,1.65-1.79l1.84,0c1.34,0,2.17.07,2.19-.17s-0.48-.24-1.1-0.25a6.06,6.06,0,0,1-2-.21c-0.14-.14.12-0.53,0.7-1.06l0.6-.54h0Zm-56.28.06c15.9,26,10.16,54.15-7.57,71.66l-0.52-3.42C58.27,146,61.19,125,47.65,100.21Zm29.57,3.49c-2.85,4.3-7.22,8.54-8.87,12.06-0.34.39-.45,1.29-1,1.46-0.26,0-.35-0.5-0.28-1.64a4,4,0,0,1,.55-2c2.25-4.12,4.86-7.08,7.75-11Zm0.67,0.42,2.64,0.17a13.61,13.61,0,0,1-2.31,4.42c-1.2,1.56-2.64,3.13-4.32,5-2.43,2.77-3.65,5.6-3.53,6.84a20.32,20.32,0,0,1-1.8,1.74L69,118.9c1.14-5.86,6.67-11.25,10.86-16.79h0Zm32.29,2.38,0.86,0.05a27.9,27.9,0,0,1,4.86.48,3.3,3.3,0,0,1,.19,1,8.65,8.65,0,0,1-.37,2.89,12.35,12.35,0,0,1-.62,2.21c-0.34.34-.47,0-0.63-1.59a3.41,3.41,0,0,0-.26-1.58,6.55,6.55,0,0,0-.15,1.84c0.1,2,.09,2.49-0.54,3.1-1.09,1.06-1.15,1-1.23-.93a10.22,10.22,0,0,0-.27-2c-0.24-.24-0.31.84-0.32,2.67v1.95l-0.52.56c-0.67.73-.89,0.84-1.14,0.59s-0.1-.49-0.1-1.6c0-1.3-.23-2.05-0.47-1.8,0,0-.06,1.31-0.06,2.4s0,2.07,0,2.16a4.82,4.82,0,0,1-1.49,1.51c-0.26,0-.47-1.43-0.47-2.61,0-.78-0.17-0.92-0.33-0.49a20.65,20.65,0,0,0-.07,2.19v1.79l-0.72.75c-1,1-1.13.95-1.13-.43,0-1.18-.08-1.81-0.32-1.81s-0.17.56-.17,1.89a10.62,10.62,0,0,1-.13,2,3.87,3.87,0,0,1-.7.93,2.57,2.57,0,0,1-.72.59,3.27,3.27,0,0,1-.27-1.61c0-.1,0-0.81,0-1.57,0-1.82.1-1.74-2.8-1.83-3.4-.11-3.45-0.13-2.43-1.12s0.83-.91,3.09-0.76c1.81,0.12,2,.11,2.21-0.07A0.31,0.31,0,0,0,105,116a11,11,0,0,0-1.53-.14c-2.24-.12-2.43-0.29-1.49-1.24l0.54-.54h2.29a10.72,10.72,0,0,0,2.66-.16c0.15-.24-0.46-0.3-1.94-0.39-0.79,0-1.53-.11-1.65-0.15-0.37-.11-0.23-0.49.4-1.08l0.61-.57h2c1.88,0,2.8-.12,2.8-0.37s-0.37-.25-1.34-0.26c-1.36,0-2.27-.15-2.33-0.34a6.19,6.19,0,0,1,1.33-1.54l2.06,0.07c2.07,0.07,2.72,0,2.72-.36,0-.19-0.89-0.32-2-0.25-0.74,0-1.63-.13-1.63-0.39a2.65,2.65,0,0,1,.66-0.86l0.67-.66,2,0.08a14.74,14.74,0,0,0,2.41,0c0.34-.23-0.44-0.41-1.71-0.48-2-.11-2.08-0.27-1-1.24ZM41.9,105.57c10.44,18.73,8.87,36.37-2.24,51.38a10.08,10.08,0,0,0-4.09-1.3l-0.28-45.22Zm74.65,7.32c0.21,0,.21.31,0.15,1a8,8,0,0,1-.2,1.36c-0.12.32-.21,0.33-1.23,0.19s-1.14-.37.13-1.62a3.93,3.93,0,0,1,1.15-1h0Zm-56,.84s1.38,0,2.06,0c0,0,.11,3.5.39,5.52l4.47,0.22L65.7,121.3l-3.39-.11s-1-5-1.79-7.46h0Zm53.31,2.12a7.47,7.47,0,0,1,2.48.47c0.15,0.15.16,0.53,0,2.79,0,0.82-.1,2.57-0.11,3.89,0,2.4,0,2.41-.3,2.45s-0.41-.08-0.5-1.66a4.67,4.67,0,0,0-.28-1.7c-0.12,0-.11.74-0.11,2.37v2.1a6.59,6.59,0,0,1-1.09.9c-0.25,0-.38-0.39-0.51-1.49s-0.24-1.86-.39-1.61a17.74,17.74,0,0,0,.05,2.22l0.13,1.77-0.79.79c-0.81.81-.91,0.88-1,0.67-0.3-.81.13-4.5-0.6-5a19,19,0,0,0-2.2-.14c-1.89-.08-3-0.11-3.22-0.34a2.61,2.61,0,0,1,1.19-1.38,5.11,5.11,0,0,1,2.26-.05c1.8,0.12,2.71.11,2.47-.12a10,10,0,0,0-1.7-.27c-1.45-.14-2-0.29-2-0.56a7,7,0,0,1,1.25-1.47l0.7,0.07,2,0.22a5.56,5.56,0,0,0,1.61,0c0.19-.19-0.56-0.39-1.6-0.52-2-.24-2.15-0.47-1.16-1.44l0.61-.6c1,0.08,2.08.1,3.1,0.26,0.75,0.12,1.16.08,1.16-.18s-0.37-.17-1.28-0.35c-0.33-.07-2,0-2-0.54,0.4-.55,1.11-1.56,1.83-1.61h0ZM68,120.1c0.3,0,.32.72,0.35,2.65,0,2.12.07,2.49,0.25,2.67s0.61,0.23,2.47.33c2.84,0.14,2.92.19,1.91,1.15-0.7.67-.73,0.59-1.3,0.52a14,14,0,0,0-3.79,0c-0.15.24,0,.29,1.39,0.39,1.67,0.13,2.13.19,2.13,0.47a2.2,2.2,0,0,1-.63.82l-0.63.59-1.76-.07c-1.85-.08-2.8-0.1-2.8.15s1.06,0.32,2.73.49a2.92,2.92,0,0,1,.91.12A4.4,4.4,0,0,1,67.89,132c-0.43.32-.57,0.14-2.43,0.1s-2.06,0-1.71.38a3,3,0,0,0,1.11.14c1.16,0.08,1.72.26,1.72,0.54A4.3,4.3,0,0,1,65,134.78a2.21,2.21,0,0,1-1.58.08c-0.75-.11-0.9-0.26-0.88-1,0-.32.06-2.39,0.12-4.6,0.11-4.27.15-4.49,0.71-4.41,0.24,0,.3.33,0.36,1.78s0.13,1.85.39,1.85a5.59,5.59,0,0,0,.05-2.1c-0.09-2.31-.1-2.65.6-3.32,0.31-.3.56-0.54,0.71-0.32a12.87,12.87,0,0,1,.3,2.82c0,0.92.35,1.11,0.43,0.24,0-1.39-.05-2.63-0.06-4.12l0.86-.85A2.49,2.49,0,0,1,68,120.1h0Zm-5.54,1.73a17.65,17.65,0,0,1,2.52,0,8.41,8.41,0,0,1-2.2,2.18A6.34,6.34,0,0,1,62.44,121.83Zm53.92,4.2,0.4,2.85-3.11-.21Zm-41.89.46h0.05c0.22,0.09.29,0.64,0.38,3.28a11.48,11.48,0,0,0,.2,2.32,2.22,2.22,0,0,0,1.2.16c0.59,0,1.69,0,2.45.08,1.66,0.1,1.71.17,0.72,1.15l-0.67.66-2.08-.08c-2.14-.09-2.49-0.05-2.49.24s0.36,0.3,1,.28c0.27,0,1,0,1.51.08,1.25,0.12,1.27.21,0.34,1.22l-0.67.72-0.65-.09a16.17,16.17,0,0,0-4,.05c-0.26.26,0.08,0.37,1.33,0.44,1.94,0.12,2.28.18,2.28,0.4a2.44,2.44,0,0,1-.61.81l-0.6.61-2.47-.13c-1.73,0-2.32,0-2.36.11s0.22,0.26,2,.44,2,0.35,1.31,1.17-1,1-2.33.86a11.33,11.33,0,0,0-3.22,0c-0.34.22,0,.36,1.06,0.44,1.6,0.12,2.53.29,2.53,0.52a2.9,2.9,0,0,1-1,1.34l-0.42.32-1.82-.19c-1.81-.19-2.74-0.1-2.48.16a5.49,5.49,0,0,0,1.5.24c1.37,0.1,2,.28,2,0.56a4,4,0,0,1-.77.92,5.22,5.22,0,0,1-.92.71l-5.61-.5a9.1,9.1,0,0,1,.28-3.73c0.51-2.46.72-3,1-2.55a6.6,6.6,0,0,1,.18,1.13,2.49,2.49,0,0,0,.5,1.61c0.16,0,.16-0.59-0.05-2-0.3-1.92-.33-2,0.4-2.77s1-.82,1.17-0.52a15.12,15.12,0,0,1,.2,1.69c0.13,1.29.21,1.58,0.37,1.41s0.19-.48.07-2.38l-0.15-1.85L66,135c0.75-.77.84-0.82,1-0.62a6.6,6.6,0,0,1,.27,1.88c0.08,1.4.19,1.86,0.4,1.66a27.72,27.72,0,0,0-.05-4c-0.07-.48,0-0.55.57-1.24a3.36,3.36,0,0,1,1.3-1.15c0.26,0,.4.79,0.4,1.86a3.86,3.86,0,0,0,.2,1.73c0.27,0.37.3-.92,0.24-2.18l-0.07-2.31,0.75-.75c0.71-.71.76-0.74,1-0.54a3.74,3.74,0,0,1,.22,1.72c0.1,1.61.41,2.4,0.5,1.28a4,4,0,0,0,0-1.1,14.19,14.19,0,0,1-.1-1.76,2.51,2.51,0,0,1,.28-1.57,4.19,4.19,0,0,1,1.62-1.41h0Zm32.4,1.76a5.61,5.61,0,0,1,1.25,1.38A5.52,5.52,0,0,1,107,131c-1.24,1.22-1.35,1.43-1.5,2.73a7.6,7.6,0,0,1-.87,2.28c-0.44.88-1.07,1.91-1.07,1.91a110.84,110.84,0,0,0-7.3,9.53c-0.2.46-.21,0.92-0.41,1.3a1.59,1.59,0,0,1-.66.58,6,6,0,0,0-1,.63,6.67,6.67,0,0,0-2.5,3.91c-0.2.88-.32,1.66-0.68,4.37-0.15,1.11-.63,3-0.63,3-7.44-.11-14.41,1.19-20.62,4.7Zm9.95,1.15,1.66,7.54-1.71,0-0.17-5.47-5.32-.51,1.9-1.84Zm-8.08.69c0.46,0.47,1,1,1.44,1.48-1.42,4.77-5.93,11-10.41,17.09l-3.28-.36a94.38,94.38,0,0,1,6.75-9,16.89,16.89,0,0,0,2.16-3.48,21.13,21.13,0,0,0,1.11-3.41c0.77-.93,2.24-2.3,2.24-2.31h0Zm1.77,1.67,2.48,2.52L113.59,170A45.76,45.76,0,0,0,100.45,163l0.84-1.92,0.93-1c3.27-3.55,2.54-7.36.05-10.06,3-4.43,5.78-7.73,8.09-12l0-3a12.34,12.34,0,0,1,.18-3.28h0Zm-29.68,1.49c0.26,0,.29.63,0.36,2.5a10.8,10.8,0,0,0,.25,2.76c0.16,0.24.3,0.27,2.37,0.33s2.63,0.13,2.63.36a3.3,3.3,0,0,1-.62.74l-0.62.62-1.94,0c-1,0-2.25,0-2.28,0s0.47,0.38,1.42.38a10.32,10.32,0,0,1,1.63.15c0.37,0.14.2,0.5-.6,1.27l-0.8.77-1.76,0a18.18,18.18,0,0,0-2.3.06c-0.54.18-.27,0.32,0.62,0.34,1.48,0,2.5.14,2.55,0.37a2.29,2.29,0,0,1-.62.91l-0.66.71-2.59-.11c-2.45,0-2.78.2-.74,0.41,0.78,0.08,2,.27,2.05.28a0.35,0.35,0,0,1,.15.2,3.61,3.61,0,0,1-1.43,1.61,1.15,1.15,0,0,1-.93,0,11.91,11.91,0,0,0-3.18.05c-0.21.13,0.25,0.28,0.91,0.29,1,0,2.17.31,2.17,0.54a3.54,3.54,0,0,1-1,1.29c-0.25.22-.83,0-2.47,0.08a5.76,5.76,0,0,0-1.87.22,2.48,2.48,0,0,0,1.27.34,8.19,8.19,0,0,1,1.74.29c0.17,0.17-1.09,1.66-1.09,1.66L68,152.61l-0.5-5.71,0.46-.53c1-1.19,1.25-1,1.46,1.12,0.15,1.57.26,2,.49,1.82a9.92,9.92,0,0,0,0-2.29c-0.07-1.08-.13-2.07-0.13-2.19a3.74,3.74,0,0,1,1.46-1.54c0.24,0,.37.58,0.49,2,0.1,1.2.16,1.53,0.4,1.29a5.84,5.84,0,0,0,0-2.26l-0.15-2,0.52-.62c1-1.24,1.25-1.1,1.38.91,0.09,1.36.22,2.07,0.47,2.07a11.09,11.09,0,0,0,0-2.55l-0.08-2.3,0.65-.66a3,3,0,0,1,.81-0.66c0.25,0,.4.58,0.56,1.94,0.18,1.53.24,1.79,0.39,1.64a10.49,10.49,0,0,0,0-2.18l-0.18-2.28,0.79-.81a3,3,0,0,1,1-.77c0.24,0,.39.73,0.41,1.71a3.73,3.73,0,0,0,.37,1.9c0.1,0.1.13-.46,0.1-2.08,0-2.5-.1-2.69,1-3.86a1.7,1.7,0,0,1,.63-0.53h0Zm29.06,1,0,3.49c-1.4,3-4.62,7.38-7.89,12.09l-1.71-.93a92.83,92.83,0,0,0,9.58-14.65h0Zm-46.72,1.1h0.26c0.88,0.05.91,0.36,0.08,1.13a2.18,2.18,0,0,1-.89.58c-0.25,0-.27,0-0.19-0.7,0.1-.82.19-1,0.73-1h0Zm53.32,2.52,2.41,2.38,0.6,25.56L117,170Zm3,3.37a94.59,94.59,0,0,0,6.93,13.83L120,164.2Zm-21.69,8c3,0,5.69,2.31,6,4.7a5.76,5.76,0,0,1-3.08,6.6,4.82,4.82,0,0,1-1.28.31c-0.28-1.65-.16-3.25-0.53-4.93a20.82,20.82,0,0,1-2.17,2.48c-0.4.22-.59,0.28-0.53-0.25,0-.93.1-3,0.1-3l-3.42,3.55a5.89,5.89,0,0,1-.61-1.27,6.18,6.18,0,0,1,2.53-7.28,5.46,5.46,0,0,1,3-.92h0Zm45.56-.22,0.07,3.12c-5.37,4.17-13,13-19.61,24.44l-2.89,1.22c4.46-10.67,13.87-21.54,22.44-28.79h0Zm0.06,4.11,0.06,4.66A70.89,70.89,0,0,0,131,173.13c-2.09,1-6,2.92-6,2.92-0.49-.12,10.56-17.35,18.36-22.94h0Zm-47.84,4c0.22,0,.21.42,0.14,1a4.34,4.34,0,0,1-.82,2.54c-1.74,2.05-4.5,4.85-4.87,7.45-0.19,1.39.89,2.69,2,2.56,3.3-.41,3.66-6.29,3.94-9.19a8.39,8.39,0,0,1,.29-1.55,12.89,12.89,0,0,1,2.38-2.46L99,162l1.86-.62c-5.25,7.14-3.74,7.59-6.51,10.52-2.57,2.72-7.56-.38-6.28-4.51,1.11-2.78,2.83-5.57,3.29-8.55,0.13-.89.2-1.5,0.2-1.5l1.19,2.49c0.61-.6,2.38-2.58,2.83-2.69h0Zm48,1.54v3.21a66.91,66.91,0,0,0-7.06,8.69l-4,1.81c2.59-4.95,6.84-9.57,11-13.72h0Zm-48.5,2.83a12.22,12.22,0,0,1-.32,4.22c-0.28,1.29-1.51,5.05-3.47,4.17-1.66-1.47.36-4.2,1.38-5.49,0.79-.93,1.65-1.93,2.41-2.89h0Zm-5.22.38-1.08,2.32c-9.73,0-19.17,3.52-27.58,10.64l-2.13-.7A43.11,43.11,0,0,1,89.91,161.85Zm10.22,1.78c11,3.68,16,9,20.17,14.67l-1.73.89c-4.34-5.63-9.71-10.79-19.69-13.77ZM87.58,167.1l-0.47,2c-6.14.18-12.62,2.37-18.92,6.75l-2.27-.36A38.58,38.58,0,0,1,87.58,167.1Zm28.05,13.43-1.95.92c-5.81-7.55-11.06-9.7-17-11.62l0.64-1.68a31.45,31.45,0,0,1,18.33,12.38h0Zm-81-8.9,0.17,20.15-1.4-.28L33.2,172Zm-3.24,1.09c-2.67,10-.6,12.62.37,18.47l-2.21-.35A26.75,26.75,0,0,1,29,173.23Zm67.18,1.54a0.85,0.85,0,0,1-.55.9c-0.4.24-.31,0.2-0.95,0a2.73,2.73,0,0,1-1.41-1,15.85,15.85,0,0,1,2.9.17h0Zm1.88,0.14c0.37,0,1.42,0,1.49.36s-0.39.52-1.24,1.1c-1.29.88-1.73,1.06-2.11,0.64s-0.25-.81.35-1.37a2,2,0,0,1,1.51-.73h0Zm-44,.22a4.86,4.86,0,0,1,2.86,2c0.81,1.27,1.74,2.57,2.49,3.85a54,54,0,0,1,4.13,8.9,119,119,0,0,1,6,21.12c0,0.58-.53.57-0.95,0.44a0.84,0.84,0,0,1-.47-0.32c-0.6-1.7-.8-3.44-1.26-5.14a111.57,111.57,0,0,0-3.74-12.72,87.59,87.59,0,0,0-4.59-10.8A25.08,25.08,0,0,0,56.64,176a13,13,0,0,1-1-1c0-.3.29-0.46,0.81-0.46h0Zm46.84,0.23c0.68,0.17,2.34.36,1.71,0.91a13,13,0,0,0-4.31,2.85,2.55,2.55,0,0,1-.92-1.13A14.63,14.63,0,0,1,103.26,174.85Zm-43.48,0c1,0,1.92,1.22,2.37,2,3,4.4,5.54,10.68,7.65,16.84a98.93,98.93,0,0,1,4.33,17.51,0.74,0.74,0,0,1-.66.19,0.7,0.7,0,0,1-.85-0.63A143.37,143.37,0,0,0,66.43,189a63.47,63.47,0,0,0-5.07-10.51c-1.48-2.17-2.32-3.31-2.25-3.48a0.66,0.66,0,0,1,.57-0.17h0.1ZM53.1,175c1.31,0,3.48,1.55,4.95,3.55,3.12,4.29,4.91,9.29,6.76,14.15a100.91,100.91,0,0,1,4.58,16.63c0.16,0.7.41,1-.25,1.22-1-.28-1-0.26-1.26-1.47s-0.51-2.62-.87-3.95c-2.1-7.59-4.46-16-8.37-22.85-4.7-7.54-6.07-5.44-6.83-6.77A1.26,1.26,0,0,1,53.1,175h0Zm11.31,1.84c4,7,5.82,11.37,7.05,15.62,1.86,6.45,4.07,11.6,5,19.12a5.51,5.51,0,0,1-1.49-.15,4.42,4.42,0,0,1-.47-1.54,125.5,125.5,0,0,0-4.23-16.56,70.3,70.3,0,0,0-7.15-15.83c-0.83-1.37-1-1.9-.48-1.93a2.48,2.48,0,0,1,1.73,1.27h0Zm42.1-.75a1.32,1.32,0,0,1,.6.09,0.84,0.84,0,0,1,.74.51c0,0.31-.29.41-1.32,0.65a10.81,10.81,0,0,0-3.5,2,7.14,7.14,0,0,1-1.07.88,1.52,1.52,0,0,1-.86-0.95,8.65,8.65,0,0,1,5.42-3.15h0Zm-55.67.17c3.42,0.1,6.1,4.08,7.5,6.77,0.55,1.05,1.26,2.19,1.79,3.39a115.32,115.32,0,0,1,6.28,19c0.55,2.4,1.19,4.16,1,4.62a1.19,1.19,0,0,1-1.15-.19,6.37,6.37,0,0,1-.58-1.7c-0.8-2.57-2.12-9.91-5.56-17.62a54.8,54.8,0,0,0-4.62-9.68,7.83,7.83,0,0,0-4.8-3.45c-0.87-.14-1.13,0-1.07-0.51,0-.3.13-0.38,0.59-0.53a2.36,2.36,0,0,1,.65-0.11h0Zm21.38,15.91c-0.23,0-.44-0.45-0.6-1.18a0.77,0.77,0,0,1,.49-1c4.24-4.52.59-11.16-4.74-11.74-0.49-.08-1.13-0.08-1.32-0.15a6.2,6.2,0,0,1-1-1.5c7.37-1.79,15.19,8.78,7.14,15.61h0Zm36.71-14.77a2.33,2.33,0,0,1,1.28,1.19c-0.14.23-1,.24-2.16,0.45-2.53.45-3.62,2.11-4.8,3.33a0.69,0.69,0,0,1-.73-0.5,2.27,2.27,0,0,1-.31-0.79c1.32-1.92,4.85-3.87,6.73-3.69h0ZM49.1,178a6.88,6.88,0,0,1,5.52,2.75C59,187.34,64,202.09,65.2,209.36c-0.12.23-.43,0.26-1,0.08-0.34-.1-0.3-0.21-0.52-0.88a151.13,151.13,0,0,0-4.7-15.16c-0.92-2.43-2-4.81-3-6.94C55.26,185.1,54,182.7,53.46,182a4,4,0,0,0-5-2.12,2.24,2.24,0,0,0-.56,3.7,2.14,2.14,0,0,0,3.06-.48,1,1,0,0,0,0-.95,0.25,0.25,0,0,0-.38,0c0.08,1.29-1.56,1.37-2.28.86-1.14-.86-0.38-3.57,2.74-2.48a2.25,2.25,0,0,1,1,3.11,2.86,2.86,0,0,1-2.89,1.89,3.54,3.54,0,0,1-3.63-3.37,4.41,4.41,0,0,1,2.13-3.82A2,2,0,0,1,49.1,178h0Zm18.25,1c5.23,0.24,7.63,6.41,4.88,10.13-0.7.89-1.14,0.73-1.44-.42-0.15-.47-0.31-0.54.11-0.91,2.45-2.35.44-6.92-3.6-7.11a5.88,5.88,0,0,1-.83-1.68,2.64,2.64,0,0,1,.88,0h0Zm43.6,0.42a2.46,2.46,0,0,1,1.24,1.19c0,0.34-.16.27-1.09,0.11-2.2-.39-4.4.88-6.24,3.66-0.89,1.67-1,1.51-1.47.07-0.24-.74-0.24-0.72.69-2.08a7.49,7.49,0,0,1,6.88-3h0Zm2,2.83c1.84,1.67,1,5.36-1.51,5.74-2.19.25-4.14-2.12-2.76-3.74,0.9-1,2-1.08,2.71-.24a1.25,1.25,0,0,1-.6,2.17,0.3,0.3,0,0,0-.22.2,1.15,1.15,0,0,0,1.21-.09,2,2,0,0,0,.08-2.47,2.19,2.19,0,0,0-2.37-.85c-1.47.53-3,2.53-3.84,5.06-0.24.71-.38,1.38-0.49,1.53-0.21.32-.19,0.31-0.39,0.19a6.46,6.46,0,0,1-.49-2.24,8.37,8.37,0,0,1,.89-2.64c1.6-3,5.19-5,7.76-2.63h0Zm-44.84-.75c2.14,0.13,3.84,3.17,2.9,5.28-0.29.39-.7,0.65-0.9,0.41-0.07-.09-0.4-1.08-0.86-2.13s-0.88-2.08-1-2.34C68,181.95,67.72,181.45,68.16,181.46Zm-14.55,1.76a89.12,89.12,0,0,1,6.17,14.14,77.61,77.61,0,0,1,3,10.75,0.71,0.71,0,0,1,0,.65c-0.24.24-1.4-.36-1.4-0.36-2-7-3.69-14.1-8.54-23.07a2.88,2.88,0,0,1-.27-0.59,2.36,2.36,0,0,1,.44-1.67c0.14-.15.32-0.16,0.59,0.15h0ZM26.25,191.4c11.53,0.78,20.46,5.65,25.22,18.51a49.12,49.12,0,0,0-25.09-8.44l0-1.78c10.62-.09,21,5.45,20.76,5.37-3.95-8.16-13.87-11.46-20.9-11.68Zm80,2.6a6.72,6.72,0,0,0-1,2.08c0,0.32.1,2.31,0.15,3.48a7.64,7.64,0,0,0,.22,2.27,0.53,0.53,0,0,0,.77.06,2.74,2.74,0,0,0,.27-0.71c1-3.6,1.4-5,1.78-5.4s0.34-.3,1.38-0.18a2.11,2.11,0,0,0,1.61-3.73c-2.06-1.15-4.24.78-5.15,2.13h0Zm2.48,0.77c-1.68,1.38-1.73,3.38-2.24,5.22-0.27,1.24-.66,1.89-0.81,0-0.29-2.59.07-4.52,1.19-6a4,4,0,0,1,2.85-1.94c2.2-.15,2.43,1.59,1.81,2.53a2,2,0,0,1-2.81.2h0Zm-79.46.83a1.51,1.51,0,1,1-1.5,1.51A1.5,1.5,0,0,1,29.3,195.6Zm4.79,1A1.35,1.35,0,1,1,32.74,198,1.34,1.34,0,0,1,34.08,196.63Zm4.36,1.47a1.1,1.1,0,1,1-1.09,1.1A1.09,1.09,0,0,1,38.45,198.1Zm3.1,2a0.85,0.85,0,1,1-.85.85A0.85,0.85,0,0,1,41.55,200.07Zm-10.85,2.7a9.29,9.29,0,0,0,.3,4.47c0.85,2.49.47,7,.47,7L29,216.7a52.74,52.74,0,0,0,.33-6.76c-0.09-1.3-.68-2.52-0.83-3.83a25,25,0,0,1,.07-3.64Zm4.06,0.75,0.09,10.64-8.57,8.32v-2.2L33.56,213l-0.15-9.86Zm21.14,24.26-0.56.92H65l0.2-.92H55.89Zm12.52,0-0.23.92h4.48l0.15-.92H68.4Zm7.33,0-0.14.92H92.21L92,227.78H75.74Zm19.42,0,0.27,0.92h4.43l-0.37-.92H95.16Zm7.4,0,0.32,0.92h7.61l-0.63-.92h-7.3Z" transform="translate(0.1 0.1)"/><path id="path35-67-2-1-9" class="cls-2" d="M14.36,11.43v2.75H17s0.06,2.66.09,8.29c0,5.47.13,8.18-.22,9.74-0.94,3.59-6.13,3.61-7.16,1a10.46,10.46,0,0,1-.47-4.18H6.4s0,0.76,0,1.69c0,4,1.35,6,4.48,6.73s7-.46,8.3-3.2c0.8-1.57.7-1.67,0.72-11.14,0-6.32.11-8.95,0.11-8.95h2.46V11.43H14.36Z" transform="translate(0.1 0.1)"/><path id="path35-6-7-1-4" class="cls-2" d="M164.22,238v-2.75h-2.67s-0.06-2.66-.09-8.29c0-5.47-.13-8.18.22-9.74,0.94-3.59,6.13-3.61,7.16-1a10.46,10.46,0,0,1,.47,4.18h2.87s0-.76,0-1.69c0-4-1.35-6-4.48-6.73s-7,.46-8.3,3.2c-0.8,1.57-.7,1.67-0.72,11.14,0,6.32-.11,8.95-0.11,8.95h-2.46V238h8.13Z" transform="translate(0.1 0.1)"/></g></svg>