<svg id="Layer_1" data-name="Layer 1" xmlns="http://www.w3.org/2000/svg" viewBox="0 0 178.78 249.65"><defs><style>.cls-1{fill:#fff;stroke:#000;stroke-width:1px;}.cls-2{fill:#d40000;}.cls-3{fill:#e2cf00;}.cls-4{fill:#131f67;}</style></defs><title>11_H</title><g id="g5943"><rect id="rect10346-5-7" class="cls-1" x="0.5" y="0.5" width="177.79" height="248.65" rx="8.5" ry="8.5"/><path id="path10378-7-1" class="cls-2" d="M14.51,56.59S12.74,54,10.35,51.06c-1.6-2-2.88-4.17-3-6-0.14-2.13,1.15-4.27,3.49-4.38s3.28,1.64,3.67,3.08c0.39-1.44,1.33-3.19,3.67-3.08S21.8,42.89,21.67,45c-0.12,1.87-1.4,4-3,6-2.39,3-4.16,5.53-4.16,5.53h0Z" transform="translate(-0.3 -0.29)"/><path id="path10380-5-9" class="cls-2" d="M164.87,193.64s-1.77,2.54-4.16,5.53c-1.6,2-2.88,4.17-3,6-0.14,2.13,1.15,4.27,3.49,4.38s3.28-1.64,3.67-3.08c0.39,1.44,1.33,3.19,3.67,3.08s3.63-2.24,3.49-4.38c-0.12-1.87-1.4-4-3-6C166.64,196.19,164.87,193.64,164.87,193.64Z" transform="translate(-0.3 -0.29)"/><path id="path35-67-2-8-6" class="cls-2" d="M14.42,11.83v2.75h2.67s0.06,2.66.09,8.29c0,5.47.13,8.18-.22,9.74-0.94,3.59-6.13,3.61-7.16,1a10.46,10.46,0,0,1-.47-4.18H6.46s0,0.76,0,1.69c0,4,1.35,6,4.48,6.73s7-.46,8.3-3.2C20.06,33.11,20,33,20,23.53c0-6.32.11-8.95,0.11-8.95h2.46V11.83H14.42Z" transform="translate(-0.3 -0.29)"/><path id="path35-6-7-4-8-8" class="cls-2" d="M165,238.41v-2.75h-2.67s-0.06-2.66-.09-8.29c0-5.47-.13-8.18.22-9.74,0.94-3.59,6.13-3.61,7.16-1a10.46,10.46,0,0,1,.47,4.18h2.87s0-.76,0-1.69c0-4-1.35-6-4.48-6.73s-7,.46-8.3,3.2c-0.8,1.57-.7,1.67-0.72,11.14,0,6.32-.11,8.95-0.11,8.95h-2.46v2.75H165Z" transform="translate(-0.3 -0.29)"/><g id="g3347-7-8-1"><g id="g3498-4-3-9"><g id="g2997-9-2-6"><g id="g3884-5-1-3"><g id="g3000-2-1-2"><path id="path2993-7-5-1" class="cls-3" d="M153.27,29.8l-9.17,6-0.13,7c-5.44-2.62-7.8-6.9-8.66-11.92-1.54,1.95-1.23,11.77-1.23,11.77a11,11,0,0,0-2.8,2.53,30.17,30.17,0,0,0,3.36,3.93s-1.14,10.23.22,10.64c1.24-4.38,2.89-8.2,9-12.2,0,0,.09,16.31-0.3,32.06-2.57-1.77-8-5-11.51-8.22,4.55-5.89-.09-13.56-6.88-8.46-4.4-2.39-5.08-13.68-6.17-19.59-0.21-1.19-1.23-4.66-1.23-4.66s-14.51-4-20.73-3.7c5.23,13.67,4.22,30.34-18.94,33.46C67,73.5,54.15,79.17,41.69,89.76c-2.29,15.78-10.41,23.55-16.14,27.84,0,6.39,0,12.72.22,19.18,0,0,5.23-3.45,6.05-2.8,4.37,28.52,20.39,34.17,18.79,35-0.26.13-5.25,5.27-5.25,5.27L25.81,161.3c-0.67,19.72-.28,39.82,0,59.57,3.45-2,9.8-6.64,9.8-6.64l0.1-6.71c0-.64,8.89,5.59,8.91,13,0.69,0.47,2.22-10.67.83-11.88l3.66-3.78-3.94-3.8s1-6.31-1-9.95A14.15,14.15,0,0,1,35.92,202s-0.13-30.42-.31-30.45l12.29,7.8c-6.65,9.09,5.06,12,6.43,7.62,7.56,7.06,4.65,15.51,8,25.53l21.44,3.95c-8.84-16.45.75-35.19,18.11-33.85a41.93,41.93,0,0,0,6.19-3.32,65.91,65.91,0,0,0-4.88-6.82L66,171.88l17.32-32.56-11.39-.37s9.26-19.69,7.26-21.28c-0.7-.56-0.41-6.91-0.41-6.91l10.17,0.38C89.34,106.6,84,89.28,76.51,78l41.75,0.38-23.5,32.88,12.62,0.36L99.85,127.1l1.21,12.11-11.2.36c1.93,16.78,14.36,34.46,18.73,39.92,7.22-1.72,20.71-12.07,29.08-18.51,1.08-11.26,5-20.85,15.06-28l0-18.54s-5.77,3.74-5.77,3.48c0-4-2.06-12.37-5.91-19.81-4.13-8-10.9-15.23-12.46-15.68,3.58-5.44,5.11-5.93,5.06-6L153.2,89ZM54.86,69.34a22.78,22.78,0,0,1-7.1,1.4c-5.91.31-10.42,0.78-12.82,5.65-0.49,1.48.58,2,1.37,2.41C40.77,73.25,52.61,80.58,54.86,69.34ZM28.62,94.81c0,0.78.87,2.07,1.31,0.74a5,5,0,0,0,0-3.44C28.77,91.44,28.63,94,28.62,94.81Zm64,26.86-5.77,0,0,6.8h5.81v-6.82Zm56.72,33.84c-0.13.68-.75,3.71,0.66,3.18C151.69,157.4,150.27,151.5,149.36,155.5Zm-5.44,17.06c-0.68-1-2.79,1.48-4.52,1.57-7.69.41-13.36-.62-14.32,7.45,4.44-2.84,10.65-1.55,14.66-2.46C142.64,178.16,146,175.53,143.93,172.57Z" transform="translate(-0.3 -0.29)"/><path id="path3504-0-2-5" class="cls-4" d="M24.38,230.38V19.86H155V230.38H24.38Zm6-136.44c0.11-2-.72-2.86-1.44-1.47-0.17.33-.73,3.85,0.6,4C30.39,96.52,30.31,94.81,30.36,93.94Zm-2.11,2.38c0-.48-0.3-0.69.35-4.85C27.36,91,26.28,89,27.19,87.7a0.82,0.82,0,0,0,.11-1,2,2,0,0,1,.79-2.54c0.61-.42.64-0.53,0.44-1.09a2.41,2.41,0,0,1,1.33-3.3c0.94-.33.76-0.38,0.86-1,0.22-1.34,1-2.16,2.31-2s1.33,0.13,1.44-.49c0.3-1.7,2.35-3.55,5-4.8,1.33-.62,3.53-1.07,7.75-1.06,2.42,0,5.43-.37,7.12-1.86a3.18,3.18,0,0,1,.8-0.85c0.31,0.22.24,1.91-.38,3.44-1.8,4.48-4.23,5.72-11.12,5.68-2.05-.1-5.07.18-6.36,1.49a1.08,1.08,0,0,0-.49,1c2.85,0.41,5.78,1.7,7.48,7.34a176.64,176.64,0,0,1,23.63-14.4c-1.23-6.74,4.6-7.78,7.87-6.44a2.47,2.47,0,0,0,0-1,5.28,5.28,0,0,0-.91-2C74.69,62.56,73.77,62,74,61.53c0.3-.75.16-1-0.46-1.65a2.23,2.23,0,0,1,0-1.8c0.13-.72.6-1.75,0.18-2.14-0.65-.6-2.85-1.62-4-2.43s-1.28-1.74.56-4.75c0.84-1.75,1.63-3.63,2.3-4.89,1-1.9,1.12-3.16.5-4.25a5.76,5.76,0,0,1-.65-3.07S64.81,25.94,61.7,21.7H26.21v80.74l6.1-5.83-1.65-2c-0.23,1.14,0,2.25-1.42,2.32A0.87,0.87,0,0,1,28.25,96.32Zm21,108c0.2-3.2-1.33-8.45-3.63-12.08a40,40,0,0,1-.26,8.83ZM105,212.72c-0.28-.09-2.6-0.23-4.05-0.31a12.14,12.14,0,0,1-10.06-5.79c-0.51-.79-0.3-0.75.84,0.14,3.21,2.51,6.21,4,8.84,3.64,3.74-.53,5.75.84,5.23,2.44C105.72,213.11,105.69,212.94,105,212.72Zm-12.65-7.15c-0.75-.65-0.8-0.94.08-0.35,2.71,1.81,6,4.77,10,3,0.84-.54.07-0.47-1.34-0.32-2.15.23-4.76-.86-8-3.09-1.57-1.09-.88-2,0.89-1.15a4.61,4.61,0,0,0,1.45.48c1.74-1.16,5.4-1.15,5.32-1.14,0.42-.36-1-0.93-3-1.7-1.32-.5-1.64-0.71-0.66-0.74a6.33,6.33,0,0,1,3.19,1,12.43,12.43,0,0,0,2.93,1.7c0.8,0.06,1.61.18,0.24,0.82-0.62.29-.57,0.36-0.5,1.06a2.15,2.15,0,0,0,.68,1.7c0.85,0.94,1.22,2.69,0,1.59-0.26-.12-0.29.11-1,0.4-4.19,1.19-7.32-.67-10.37-3.32h0Zm7.74,0.31a5.49,5.49,0,0,0,.63-1.32c-0.08-.51-0.53-0.35-0.76-0.06-0.39.48-.94,1.19-0.49,1.43A0.41,0.41,0,0,0,100.09,205.88Zm-1.43-.33,0.93-1.67c-0.23-.11-3.39.55-2.89,1A5.77,5.77,0,0,0,98.66,205.55Zm3.55-5.59a2.21,2.21,0,0,1-.78-3.54c0.9-.93,2.43-0.85,4.27.28a1.7,1.7,0,0,0,1.48.44c0.74-.27,1,0.14,1,0.72-0.13,1.28-2.12,1.59-3.37.13-1.66-1.93-3.45-.58-2.93.81a2,2,0,0,0,1.39,1.09A0.9,0.9,0,0,1,102.21,200Zm-6.55-8.59c2.38-.64,5.92,1.88,7.84,1.54,0.83-.18.72,1-0.15,1.46s-2.45.17-5.49-1.43c-2.51-1.36-4.54.89-2.86,2.58a2,2,0,0,0,1.53.51c0.85,0,1.1.19,0,.47a2.9,2.9,0,0,1-2.36-.67A2.61,2.61,0,0,1,95.66,191.37ZM45.25,184a6.22,6.22,0,0,1,1.48-4.43L36,172.27l0.16,29.1c5.3-3.38,7-7.64,7.35-13.13,10.47,11.77,7.2,26.09.66,34.24-0.27-5-1.75-10.89-7.8-13.91v6l-10.17,7.14v7H50l11.42-17.06c-2.07-7.58-1.76-13.9-3.15-17.37-1-2.85-3-6.54-4.33-6C49.61,191.71,45.33,187.68,45.25,184Zm9,3.36C58,190,59,194.4,59.72,198.29c0,0,1.95,13.19,2,13.36a1.72,1.72,0,0,1-.47,2c-3.42,4.71-10.12,14.82-10.12,14.82l65.62,0.39c-3.5-5.11-6.24-10.16-9.56-14.36a10.24,10.24,0,0,0-.81-4,2.13,2.13,0,0,1-.32-2.33c1-2.15,1.94-4.49,2.83-6.46,1.7-3.78,1.89-3.82-.43-5-2.75-1.6-3.24-2.13-2.66-4,0.21-.67.24-0.93-0.61-1.11-0.39-.08-1.35-0.31-2-0.49-1.85-.59-1.32-0.22-2,0.26-0.52.26-1-.73-1.57-1.89-0.7-1.33-.87-1.37.28-0.68,2.13,1.27,5.92.78,4.59-.7a3,3,0,0,1-1.19-2.71c0.07-1.61.09-2.09-1-2.31a15.26,15.26,0,0,0-6.6.25c-6.19,1.55-11.16,6.94-13,10.94-0.42.7,0.55,0.66,1,.66,2-.18,3.47,3.06,2.14,4.52-0.61.65-1.23,0.25-.57-0.59a1.85,1.85,0,0,0-2-2.77c-2.06.59-2.12,3.26-2.37,5.12-0.7,5.35,2,12.51,2.67,14a0.42,0.42,0,0,1,.1.22s-0.38.3-.51,0.14c-0.48-.54-1.68-4.92-2.33-8.05-1.26-8.66,1-16.61,8.15-21.14,6.36-4.6,9.56-3.61,13.17-3.82a45.82,45.82,0,0,0,4.24-1.76c11.33-5.93,21.65-11.72,31.15-19.42,6.94-5.25,10.26-9.52,16.21-14.88l-0.6-30a1.67,1.67,0,0,1-.6-1c0.39-2-3.12,1.34-5.38,2.46-1.42-13.76-8.84-27.3-17.83-35.21l0.37-.51s3,2,4.51,2.94V83.23L130.52,81c-0.16-.7-0.07-0.81.72-0.81l2.9,2.15V80.54L131.8,79l0.75-.95,1.26,0.82c-0.53-1.39.22-1.34,1-.42a5.87,5.87,0,0,1,.91,1.47c0.07,0.19.27,0.67,0.27,0.67L138,82.17a4.16,4.16,0,0,1,0-1c0.35-1.09,2.83,2.42,2.52,2.51l2.11,1.52c0.5-.76,2.38.76,2.45,1.51,0.17,0.33,7.26,4.91,7.26,4.91l0.08-2.53,0.77-1,0.34-58.44-9.42,6L144,42.78c-4.45-1.44-8.31-7.91-8.87-11.95-0.29-.16-1.58,8-0.9,11.51a31.88,31.88,0,0,0-3.14,2.94l3.57,3.92a73,73,0,0,0-.55,9c0.14,1.41.17,1.56,0.59,1.56a0.73,0.73,0,0,0,.65-0.69c0.84-3.57,3.59-9.14,8.36-11,0.32,0,0,31.84,0,31.84L131.9,71.76c-0.59-.51.77-0.48,1.6-3.17,2.14-7-5.29-9.41-8.16-5.38-0.47,0-2.45-2.45-2.74-3.47-2.19-4.42-2.61-9.43-3-13.45a52,52,0,0,0-1.48-6.63,2.54,2.54,0,0,1,.31-2.56c2.75-5.68,8-9.59,10-15.33l-65.79-.21C66.83,25,70.45,34.64,74.24,35.88c-1.82.24-1.2,1.83-.49,3.55,0.87,2.11.77,2.55-1.43,6.89-3.23,6.37-3.4,5.81-.18,7.78,2,1.28,2.35,1.56,2.06,3.29s-0.37,1.2,1.27,1.34a6.6,6.6,0,0,1,2,.41,1.65,1.65,0,0,0,1.36.3c1-.32,1-0.08,1,0.63a4.06,4.06,0,0,0,.62,1.17c0.37,0.62.2,0.72-.49,0.29-2.12-1.34-5.65-.77-4.35.69a8.11,8.11,0,0,1,1.12,3.58c0.08,1.77,1.23,2.4,3.64,2,4.62-.35,15-6.1,17.48-12.57-5.34,1.82-4.24-4.75-2.34-4.54A6.75,6.75,0,0,0,95,52.55c-0.06,2.35,1.9,2.53,3.26.87,0.59-.87,1.3-4.12,1-7.79C98.77,41.19,97,36.22,96.65,35c7.64,18.28.62,26.32-10.11,31.57-4.11,1.72-4.67,1.71-7.09,1.82-1.66.13-3.15,1-4.74,1.48-9.18,4.39-20.46,9.88-30.55,18.05a127,127,0,0,0-18.71,16.43l0,32.26c1.72-.27,4.51-1.95,6.16-2.91,1.89,12,8.07,26,18.3,34.34,0,0-.24.46-0.25,0.45-1.46-1-2.91-1.94-4.33-2.68l-0.07,1.54,3.44,2.37a1.35,1.35,0,0,1-.59.88l-2.84-2,0,1.56,2.2,1.41c0.59,0.6-.72.91-0.72,0.91l-1.3-.95a5.55,5.55,0,0,1,.05.89c-0.34,1.15-2.22-1.39-2.56-2.67L41,168.69c0.26,0.75-.4.86-0.92,0.67-1.39-.71-1.31-1.9-1.6-2.6L36,165.18c-0.42,2.36-2.93-1-2.53-1.76l-3.16-2.16a2.29,2.29,0,0,1-1.67,0,3.33,3.33,0,0,1-.73-1.79l-1.89-1.18v2.06l19.49,13.65-0.28.53-20.33-14,0.82,60.56,9.91-6.88c-0.19-2.27.23-4.29,0-6.87,5.09,3.18,6.81,5.34,9.05,12a19.16,19.16,0,0,0,.55-10.82,9.71,9.71,0,0,0,3.22-3.72c-1.23-1.69-2.42-2.17-3.71-3.74-0.1-1.91,1-7.61-.48-9.49,0,0-2.74,8.28-8.64,10.77-0.18-8.74,0-30.71,0-30.71s6.06,4.2,9.15,5.9c1.45,0.78,2.47,1.27,2.48,1.82a4.27,4.27,0,0,1-.83,1A10.29,10.29,0,0,0,46,185a4.6,4.6,0,0,0,1.37,2.88C49.28,189.92,52.85,188.94,54.26,187.35ZM66,171.88l23.32-32.72a110.94,110.94,0,0,0,13.57,33.06Zm11.53-34.39s1.63-3.24,2.37-5H77l1.71-1.92H83l-2.27,4.86h1.8l2.5-4.86h6.63l-2.32,4.86h1.53l2.48-4.86H99.5l-2.17,4.86h1.44L100,133l0.31,4.47H94.23l2.42-5h-2l-2.73,5H86.21l2.49-5H86.52l-2.73,5H77.52Zm18.88-17.42,2.47-5.24h-2L94.19,120H88.08l2.4-5.07H89c-1,1.6-2.68,4.85-2.68,4.85H79.8s1.83-3.44,2.56-5.13h-1.6l-1.3,2.08c-0.46-.78-0.16-2.84-0.23-3.72h6.11l-2.45,5h1.95l2.68-5H94l-2.63,5h1.53l2.6-4.75H102L99.72,118h2l-0.89,2.07H96.41Zm-6-9.13-1.24.23C87.55,97.59,80.06,83.75,76.89,78l37.27,0.53Zm43.76-78.38a22.43,22.43,0,0,0-3.79,12.27l3.38-2.71C133.5,34.31,134.12,32.56,134.12,32.56Zm-3.75,12.85a20.48,20.48,0,0,0,3.33,12.23,57.9,57.9,0,0,1,.62-8.39ZM38.11,154.88l-12.05-8.33v1.82l14.32,9.76Zm-2.17-4.47c-3.23-1.63-9.88-6.66-9.88-6.66v1.66l10.59,7.46a0.34,0.34,0,0,0,.59-0.08C36.82,152.1,36.31,151.14,35.94,150.41Zm-3-7.23-6.92-4.84v1.51c1.77,1.59,7.62,5.39,7.62,5.39Zm-6.92-5.95,6.51,4.22-0.4-1.87-4.63-3.15Zm117-58.53,0.35-30.09c-6.79,3.22-8.13,12.6-7.9,12.9-6.75-7-9.3-22,.17-32.16,0.71,3.25,1,8,7.65,12.26l0.17-6.37,9.36-6V21.7H130.32c-3.49,4.44-7,9.6-10.44,14.31-1.3,1.77-1.62,2.6-1.37,3.52,2.27,8.19,1.82,18.28,6.59,23,6.4-6,12.39,3.05,7.42,8.65ZM45.77,208.81c0.87,2.74.27,8.27,0.21,8.27,1-.56,3.84-8.57,3.14-11.57M81.72,58.57c-1.59-.45-2.79-1.14-4.47-1-1.32.14-1.77-.3-1-1,1.06-.9,2.08-1.27,4-0.24,5.89,3.09,6.07-1.42,3.42-1.74C83,54.49,83,54,83.77,54.13,87.89,54.29,86.63,59.76,81.72,58.57Zm-6.89-4.51a6.74,6.74,0,0,0-2.07-.67c-0.87.24-.9-0.25-0.8-0.82,0.25-1.38,1.66-1.13,3.51.06,2.66,1.7,3.68-.74,1.26-2.06C75.93,50.13,76.18,50,76.66,50c1.26-.05,2.45,1.67,2.11,3.08C77.92,55.32,75.87,54.44,74.84,54.06Zm7.79-4.17c-1.72-.3-4.21-2.62-5.37-2.78a3.46,3.46,0,0,1-1.62-.26c-0.64-.8,1.16-0.8,1.29-1.09,0-.68,0-1.1,0-1.33-0.32-.43-1.57-2.16-1.53-3a4.9,4.9,0,0,0,1,.46c3.07-1.62,5.17-.9,7.77.24a14.93,14.93,0,0,1,3.87,3c0.06,0.58-1.17-.51-2.14-1.15-2.37-1.65-4.51-2.83-7.48-1.85-0.46.16-.38,0.25,1.14,0.15s2.71,0.37,4.62,1.61c0.47,0.31,1,.84,1.39,1,2.4,1.15,2.92,2.27,1.39,2-0.33-.07-1-0.41-1.58-0.63-1.1-.39-0.71-0.27-1.76.22a7.58,7.58,0,0,1-2,.62c-0.56.09-2.38,0.08-1.57,0.85a10.19,10.19,0,0,0,3.24,1.88C84,50.1,83.45,50,82.63,49.89Zm0.2-3.73c1.12-.42.24-1.36-1.19-1.57-0.33,0-1,1.5-1,1.83S82.22,46.39,82.84,46.16Zm-3.1.17a5.61,5.61,0,0,0,1.12-1.61c0-.8-1-0.58-1.26.26C79.32,46,79.29,46.61,79.74,46.33Zm-3.58-6.46c-0.92-.41-2.18-2.2-0.74-1.9a26.64,26.64,0,0,0,3,.16,13.38,13.38,0,0,1,9.3,4c1.25,1.3,1.33,2.26.06,1.37C83.25,39.42,80.5,40.17,76.16,39.86ZM111.08,179l-1.25.67c0,0.7.25,0.59,0.81,1.08a7.2,7.2,0,0,1-1.33.09c-0.91-.06-1.12,0-0.72.6,0.19,0.3.44,0.74,0.44,0.74a2.84,2.84,0,0,1-1.24-.1c-1.13-.31-1.71-0.15-1.28.48l0.34,0.5a15.37,15.37,0,0,1-2.34-.93l-1.07.33c2.13,4.18,9.72,1.54,7.64-3.45h0Zm37-6c1.17-1,.6-2.2-1.11-3.08-0.71-.37-0.64-0.37-1.8.31-1.42.84-1.53,0.88-.51,2C145.89,173.55,147.22,173.79,148.09,173.06Zm-4.35-2.79c1.08-.48.68-0.4,0.61-1.53-0.31-1.3.42-1.39,0.78-2.61,0.15-.66-0.41-0.42-1.5.6-0.9.76-1.17,0.94-1.16,0.57a1.62,1.62,0,0,0-1.26-1.2c-0.54-.09-0.49-0.22,0-0.91a3.91,3.91,0,0,0,.68-4c-0.78-1.68-1-1.93-2.77-.46-0.89.82-2.14,1.45-2.74,2.46-0.43.74-.18,1.47,0.5,2.93,1.71,3.65,4.35,5.29,6.82,4.19h0Zm6.06,0c1.9-.75,1.13-2.81-1.84-4.88-1.79-1.25-2.3-1.24-.78.12,1,0.87,1.13,1.17.71,1.8a1.48,1.48,0,0,0-.37,1.61C148.06,169.69,149,170.62,149.79,170.3ZM42.73,166.88l-2.07-1.31v1.8l2.07,1.24v-1.72Zm103.59,1.62a2.37,2.37,0,0,0,.77-1.46c0.09-.84-1.26-0.63-1.91.29S145.31,169.21,146.32,168.5Zm4.64-2.83c0.94-1,.48-2-1.45-3.31-0.75-.49-1.13-0.81-1,0.16a1.6,1.6,0,0,1-.51.93c-0.67.75-.37,0.89,1.54,2.11C150.48,166.18,150.43,166.23,151,165.67ZM42.73,163.77l-2.07-1.26v1.63l2.07,1.4v-1.78Zm-4.53,1.63,0-1.63L35.54,162l0,1.82Zm105.61-.66c-0.35.94,1,.51,1.13,0.42,0.24-.47,0-0.52-0.09-0.57A1.41,1.41,0,0,0,143.8,164.73Zm0.61-1.18c0.48-.15.53-0.09,0.47-1-0.1-1.3.1-1.41,1-2,0.69-.46.69-0.39,0.68-1.19,0-1,.05-1.38,1.32-1.58a0.78,0.78,0,0,0,.86-0.62c0.07-.69-1-1.85-2.4-2.52a36.56,36.56,0,0,0-4.13,3.6l-0.52.56,0.63,1.18c1,1.83.82,2.51,0.24,4.94-0.12.65,0.38,0.56,0.51-.23S143.29,163.77,144.41,163.55Zm4.67-6.49c-0.24,1.48.53,2.39,1.25,1.65a8.87,8.87,0,0,0,.45-4.18C149.3,152.94,149.14,156.71,149.09,157.06Zm-23.83,24.47c5.5-3.23,12.57-.59,16.55-3.24,1.86-2.05,3.73-3.36,2.67-4.78a3.41,3.41,0,0,0-1.35-1.27,9.12,9.12,0,0,1-7.2,2C128.77,174,125.38,176.25,125.25,181.53Zm9.4-7.69c3.5,0.12,6.35-.49,7.65-1.51,0.81-.63.93-0.74-0.34-0.85-2.72-.22-5.48-3.38-6.34-6.45-0.18-.63-0.38-1.32-0.38-1.32-7.25,5.8-23.2,14.94-23.2,14.94,1.06,4.94-2.51,7.89-7.34,6.13-0.84-.08-0.73,1-0.57,1.45a4.15,4.15,0,0,0,1,1.44,1.54,1.54,0,0,1,.75,1.62c-0.11.58-.1,0.56,0.31,0.78,0.73,0.39.69,0.95,0.29,2.09-0.43,1.61-.46,2,0.7,2.79,1.49,1,4.41,2,4,3.45a68.93,68.93,0,0,1-4,9.13,3.15,3.15,0,0,0,0,2.9c0.51,1,.45,2.19,1.11,3.11,3.66,5.46,6.82,10.17,10.16,15.1h34.49V148.27s-5.82,5.32-5.8,5.69,1.26,1.15,1.8,1.24c0-.24,0-1.2.07-1.54,0-.49,1.6-0.36,2.12.06,0.36,0.3.25,2.23-.11,3.8-0.3,1.29-.26,1.31.29,2a3.63,3.63,0,0,1,.82,2.7,2.88,2.88,0,0,0,.11,1.38,3.13,3.13,0,0,1-.15,2.68c-0.6.83-.61,1-0.48,1.4,0.49,1.54.31,2.85-1.4,3.51a1.59,1.59,0,0,0-.6.79c-0.75,2.46-2.14,2.46-4.06,1.75-1.35,5.29-6.86,6.63-10.83,6.47-4.13-.16-8.34.15-10.21,2.86,0.44-6.42,3.3-9.52,10.19-9.28h0Zm12.48-10.67a0.81,0.81,0,0,0,.2-1.47,0.93,0.93,0,0,0-1.52,1.06C146,163.35,146.44,163.42,147.13,163.17ZM38.31,160.84l-2.75-1.91,0,1.71,2.74,1.77v-1.57Zm5.19,1.41-1.95-2.34c-5.74-3.52-10.72-7.46-15.5-10.64l0,2.17,1.37,0.69s0.12-.48.21-0.75c0.18-.52,1.75.94,2.26,2.11l0.4,0.94,1.84,1s0-.52,0-0.67c0-1.11,2,.42,2.87,2.24,0.22,0.44.5,0.91,0.5,0.91L37.23,159c0.68-.94,2.42.35,2.87,1.48A2.19,2.19,0,0,0,41.7,162Zm-10.37-.32v-1.66l-2.87-1.89,0,1.69Zm118.17,0.14c0.07-.44-0.35-2.14-1-2.23a1.19,1.19,0,0,0-1,1C149.27,161.37,151.22,162.54,151.3,162.06ZM149,160c0.63-.69-0.16-1.58-1.12-1.27-1.14.37-.74,1.4,0.53,1.43A0.69,0.69,0,0,0,149,160ZM33,158.82v-1.59l-2.65-1.76L30.29,157Zm-5.21-.56,0-1.53-1.74-1.22v1.83Zm0.06-4.58-1.78-1.16v1.66l1.86,1.07Zm7.23-5c-0.18-.49-0.94-2-0.94-2L26.06,141v1.74l9,6.09Zm-3.78-13.43-0.09-.71-0.72.38Zm-1.71.18-1.13.61,3.41,2.22-0.27-1.58ZM148,116.66l0.88-.64L147.3,115,147.19,116Zm1.57-1,1.16-1L146.84,112l0.27,1.7Zm2.74-1.43V113L146,108.8l0.43,2.13c1.1,0.64,2.45,1.58,3.87,2.57C151.22,114.14,151.22,114.38,152.29,114.21Zm0-2.16V110.2L145,105.37l0.59,2.17Zm0-2.78v-1.94l-8.77-5.82,1,2.57Zm0-4.88L141.23,97l1.42,2.85,9.65,6.47v-1.89Zm0-2.84-13.88-9.26L140,94.89l12.32,8.36v-1.69Zm0-3h-0.52c0,1.33-1.48.36-2-1.1-0.41-1-.5-1.22-0.5-1.22l-2.8-1.9,0.22,1.49-1.88-1.15s-0.54-1.83-.56-1.84L141,90.63a1.18,1.18,0,0,1-.09,1,3.83,3.83,0,0,1-1.43-1.07,3.26,3.26,0,0,1-.54-1.36l-2.63-1.7-0.65.07s-0.35-.24-0.69-0.51a4.05,4.05,0,0,0-2.22-1.74s1.85,2.16,2.84,3.44a12.29,12.29,0,0,0,2,2l14.67,9.81V98.55Zm0-3-1.13-.68,0.08,1.79,1.05,0.72V95.52ZM38,91.57a6.78,6.78,0,0,0-.54-0.94A5.07,5.07,0,0,1,37,86.45c0.2-.87-0.59-1.25-1-0.32a1.33,1.33,0,0,1-1.14,1.08c-0.4,0-.48.12-0.31,0.67a1.85,1.85,0,0,1-.88,2,0.78,0.78,0,0,0-.58,1.16,1.51,1.51,0,0,1-1.58,1.76c-1.28-.07-0.78,1.1.77,2.21,0.57,0.41.83,0.64,1.28,0.43C34.74,94.36,36.91,92.78,38,91.57Zm111.18,3.59-0.06-1.71-3.22-2.18,0.4,2.29Zm3.15-.72V92.73L151,91.87,151,93.7ZM31,91.78a0.77,0.77,0,0,0,1.11,0c0.57-.3.35-0.74-0.24-1S30.51,91.39,31,91.78ZM30,91a0.94,0.94,0,0,1,.7-0.86c0.66,0,.54-0.39-0.21-0.85-0.36-.22-1-0.72-1.21-0.89a1,1,0,0,0-1.39,1.52C28.6,90.85,29.64,91.38,30,91ZM148.82,92.1l-0.25-1.9-2.91-1.94,0.23,2.09ZM43,87.46a1.37,1.37,0,0,0,.19-0.83,7.51,7.51,0,0,0-1.54-3.78,7.34,7.34,0,0,0-2.21-2.06c-2.23-1.15-5.2-.65-4.77.83,0.31,1,.24,1.84-0.62,2.34-0.58.34-.66,0.8,0,0.8a3.08,3.08,0,0,0,2.12-1.19c0.7-1.1,1.09-1.74.94,0.06-0.07.75,0,.69,1.19,0.63,1.57-.08,1.28.21,0.36,0.93a3.48,3.48,0,0,0-.93,4.28c0.42,0.92.71,1.41,1.25,1.29A32.18,32.18,0,0,0,43,87.46Zm100.68,2.22-2.87-1.89,0.11,2L144,91.64Zm-110-1.85a0.93,0.93,0,1,0-1.49,1.11C32.82,89.45,34.28,88.93,33.73,87.83ZM31.24,88c-0.13-.41.63-1.08,0.75-1.34,0.35-.77-2.76-2.91-3.73-1.64-0.67.88-.2,1.75,1.59,2.95C30.94,88.7,31.46,88.7,31.24,88ZM143.4,86.73l-2.65-1.65,0,1.75,2.81,1.7Zm-4.67,1.56V86.51l-2.67-1.87,0,1.85ZM35,86.18c0.48-.48.32-0.64-0.62-0.59-0.59,0-.77-0.07-0.81.2C33.49,86.4,34.51,86.68,35,86.18Zm-2.22-.67A2.14,2.14,0,0,0,32,84.68c-1-.88-1.16-1.42-0.16-2.1,1.43-1-.07-2.36-1.73-1.8a1.55,1.55,0,0,0-.55,2.68C30.61,84.19,32.59,86.29,32.79,85.51Zm105.95-1.78-2.62-1.8v1.76l2.62,1.53V83.73Zm-105.45.12c1.17-.6,1.23-2.1.06-1.55a2.24,2.24,0,0,0-1.12,1.12C32.22,84,32.69,84.15,33.28,83.84Zm0.86-3.44c1.51-.82,1.28-1.57-0.23-2.52-1.84-1.06-3.13,1-1.61,2.35C33.09,81,33.28,80.87,34.14,80.4Zm2-1.47c2.46-2.65,4.09-2.52,7.35-2.45,8.39,0.08,11-3.94,10.69-6.76-4.08,2-7.71.94-11.59,1.53-6.69,1.5-7.48,4.66-7.94,6.46Zm33.62-9c2.16,0,2.06.09,1.18-1.7,2.1,0.29,3,1.3,2.26-.8,1.12,0.4,1.78.71,2.94,1.09l0.73-.43c-4.45-4.34-9.39-.66-8.09,3.72L70.39,71Z" transform="translate(-0.3 -0.29)"/><path id="path3502-5-8-1" class="cls-2" d="M80.59,228.71l1-5,9.24,0.45s1.07,3.16,1.51,4.58H80.59Zm-21.33-.12,4.9-8.12,7,1.89-1.6,6.35Zm13.54,0.12L74.9,220c-4-.88-7.74-1.46-12.13-2.65l-7.13,11.3-4.29-.11c3.7-4.94,10.45-14.92,10.45-14.92a91.55,91.55,0,0,0,46.83,3.42s5.79,7.66,7.87,11.82l-4.09-.2-5.08-8.53c-3.53.38-7,.86-10.7,1l2.52,7.51H95.1l-2.3-7.49c-4.42-.17-8.14.17-13.44-0.66l-1.87,8.15h-4.7Zm29.23,0-1.4-5.33,5-.58s2.31,4.06,3.58,5.91H102ZM57.28,179.19c6.2-9.45,28.08-39.76,28.08-39.76l3.21,0.13s-19.59,27.37-29,41.17ZM25.66,164.48L33.3,170l0.05,42.94-7.76,5.48Zm31.7-70.25L62,103.31C42.35,122,46.2,143.88,56.72,159.5a30.86,30.86,0,0,1-4.32,7.21c-14.24-9.42-18.57-33.89-18.46-34.15C49.63,118.52,51.74,114,57.36,94.23Zm80.26,66.89c1-13.82,7.75-22.85,15.3-28.37l0.39,14.06C148.37,151.57,143.14,156.48,137.62,161.13Zm-20.51-13.92c17.2-16.11,17.79-39,5.26-55.79l5.13-7.18c7.27,7.8,14.4,16,17.43,35-10.89,8.61-20.52,22.84-23.08,37.21Zm-23.7-18.75,0-6.58,6.43,0-0.18,6.57Zm-13.6-.05-0.09-6.56,6.36,0L86,128.54Zm11-17.57s21.32-29.93,29.69-40.74l1.78,1.31L93.94,111ZM41,89.91c0,11.81-7.57,21.17-15.28,27.27l0.11-13.45Zm112-57,0,52.42L145.88,81l0.61-44ZM118.7,36C102.44,31.78,87.62,30.51,72,33.86c-2-2.43-8.85-12.54-8.85-12.54l3.94,0.06,5.57,8.95,10.62-1.39-2.73-7.28,4.38,0,2.18,7.14c0-.06,8.64.09,13.45,0.66,0.77-2.65,2.19-7.92,2.19-7.92h4.82c-0.62,2.53-2.28,8.55-2.28,8.55a112,112,0,0,1,11.34,2.5c2.57-3.64,5-7.29,7.28-10.93l4.7,0C127.26,24,119,36.14,118.7,36Zm-3-6.28-7.19-1.68,1.88-6.35h10Zm-41.26-2.3L71.1,21.55h6.43l2.13,5.19ZM89,26.24l-1-4.69H99.73l-1.19,5Z" transform="translate(-0.3 -0.29)"/><path id="path3500-9-6-1" d="M62.34,21.15l10.38,15a83.21,83.21,0,0,1,11.49-1.43A81.57,81.57,0,0,1,96.63,35s1.78,5.37,2.38,8a21.66,21.66,0,0,1-.13,10.27c-1.23,3.94-1.88,5.13-4.62,7.84a25.05,25.05,0,0,1-7.88,5.28c-4.11,1.72-4.53,1.71-6.95,1.82a4.57,4.57,0,0,0-2.64.59c-0.27.09-.45,0.38-0.69,0.46a1.51,1.51,0,0,1-.59,0A164.1,164.1,0,0,0,43.81,87.53c-0.09.07-.15,0.37-0.24,0.44-0.65.53-1.24,0.93-1.87,1.42-0.09.07-.28-0.05-0.37,0a187.39,187.39,0,0,0-16.49,14.68L25,137.52s4.23-2.18,6.4-3.51a53.91,53.91,0,0,0,18.12,34.25l-4.41,6.1-20.32-14L25.11,222l10.8-7.53V208c3.22,2.17,6.36,3,8.65,12.92,1.83-3.48,1.67-8.66.85-12.12a16.6,16.6,0,0,0,3.58-4l-4-3.57s1-8.65-.85-10.39c-1.5,3.93-2.69,8.09-8.29,11.12l-0.07-30c2.79,1.77,5.43,3.77,8.18,5.59l0.38-.08,2.85,2s-0.3.61-.58,1c-3.47,5.27,2.31,11.74,7,7.85,1.84-1.52,5.29,4.81,5.94,10.91,0.66,3.94,1,8.82,2.09,12.24a1.7,1.7,0,0,1-.5,2.16L50.3,228.89h5.21l0.38-.6H52c3.31-4.42,6.47-9.57,9.9-13.88,12.8,4.83,33.76,5.95,46.42,3C111,221.1,113.53,225,116,228.7h-3.64l0.5,0.79h4.92l-10.38-15.32c-7.15,2.13-24.59,1.3-24.27,1.13,0,0,0-.12-0.65-1.86-3-9.69-3.27-18.29,4.24-25.25,4-3.56,8.44-5.9,13.42-5.46,2.22,0,2.27-.16,3.19-0.58a11.29,11.29,0,0,1,1.57-.47l5-2.8,0.66-.13,1.45-.77,0.3-.36,2.34-1.19,0.26,0,3.17-1.83,0-.26,1.25-.77,0.3,0.31a155.5,155.5,0,0,0,17.45-12.34l0.31,0.12c5.88-4.77,13.87-12.29,16.24-15.15l-0.13-14.31-0.2-.17-0.08-15.85H152.9l0-2c-2.6,1-5.46,3.39-5.65,3.28a55.81,55.81,0,0,0-17.88-34.85l4.28-5.94,19.9,13.43,0.05-3.92h0.25c0.24-15,.38-54,0.38-54l-0.2,0V29.09L143.84,35.6l-0.14,6.58c-4.51-1.48-7.37-6.91-8.31-11.75-1.31.53-1.92,5.63-1.44,12.08a10.74,10.74,0,0,0-3.14,2.85,27.37,27.37,0,0,0,3.68,3.71c-0.28.61-.88,9.23-0.29,10.3,0.27,0.79,1.21.68,1.21-.15,1.37-6.72,7.73-11.13,8.08-10.72l-0.16,31-11.29-7.94c2.37-2.69,2.87-7.21-.12-9.43a4.44,4.44,0,0,0-6.62,1.08c-3.67-2.4-4.9-11.28-5.43-14.75a42.86,42.86,0,0,0-1.07-6.06,20.35,20.35,0,0,1-.73-3.7,1.91,1.91,0,0,1,.54-1.47l11-15.62-5.6,0-0.05.1h4.41l-9.9,14.1A96.15,96.15,0,0,0,71.6,32.93L63.43,21.41l3.71,0L67,21.15H62.34ZM71,21.28l0.16,0.28,6.41,0-0.1-.24Zm9.51,0,0.12,0.34,4.38,0-0.13-.33-4.37,0h0Zm22.35,0.12,0,0.15h4.82l0-.15h-4.82ZM88,21.44l0,0.2H99.71l0-.19H88Zm22.4,0.1,0,0.16h10l0.09-.16H110.43Zm42.38,8.59,0,2.12-6.75,4.3c-0.17,9.07-.43,44-0.43,44l-1.62-1.06,0.32-43.68s6-3.85,8.44-5.63h0Zm-17.7,1.71h0.23l0.07,0.49H135l0.1-.49h0Zm0.48,1.28,0.18,0.67h-1l0.17-.64,0.64,0h0Zm17,0.34v1.38l-5.82,3.65V37.13Zm-18,1.15,1.52,0,0.25,0.77h-1.92ZM97.27,35l1,0.15a47.13,47.13,0,0,1,3.34,15.36c0.93,6.47,2.81,13,4.11,15.72l-1.49,0a77.93,77.93,0,0,1-4-14.93,28.28,28.28,0,0,1-.16-3.13A47.87,47.87,0,0,0,97.27,35h0Zm1.91,0.22,1.3,0.13c0.91,4,2.23,7.71,2.77,11.69,0.86,6.37,1.32,12.87,4.38,19.15h-1.21a53.45,53.45,0,0,1-3.75-13.46c-0.58-2.75-.59-4.81-0.89-7.29a65.09,65.09,0,0,0-2.6-10.22h0Zm2,0.19,1.3,0.19c0.85,3.94,2.32,8.27,2.71,11.83,0.79,7.25,1.93,14,4.2,18.79l-0.91,0c-3.52-6.84-3.58-12.93-4.56-19.34-0.58-3.77-1.81-7.55-2.74-11.44h0Zm2.07,0.31,1.15,0.18c0.8,3.92,2.23,8.35,2.57,12.32a50.69,50.69,0,0,0,4.44,18l-1.08,0c-3.15-5.53-3.57-12.32-4.55-19.19C105.21,43.31,104,39.49,103.23,35.75Zm49.39,0v1.71l-5.82,3.75V39.53Zm-47.51.33,1.2,0.19c0.77,3.78,2.21,7.81,2.55,11.48a58.93,58.93,0,0,0,4.32,18.48l-1.11.07a49.29,49.29,0,0,1-4.44-18.07C107.33,44.44,105.87,39.8,105.11,36.09Zm31.7,0,0.42,1-2.79.14,0-1.14h2.34Zm-29.73.36,1.43,0.28c1.51,6,1.91,11.73,2.94,17.46,1.29,7.12,2.64,10.69,3.75,12l-1.18,0c-2.88-6.16-3.9-12.29-4.57-18.63-0.39-3.74-1.62-7.43-2.36-11.16h0Zm2.18,0.41,1.09,0.22a105.88,105.88,0,0,1,2.45,14c1,8.47,3.85,14.9,4.45,15.2l-1.2-.05c-2.6-3.61-3.57-9.75-4.84-18.41-0.56-3.81-1.12-7.39-1.94-10.94h0ZM111,37.22l1.22,0.3s1.1,4.33,1.93,10.08c0.69,4.79,1.05,14.22,6.25,19.64,2.59,2.71,7.16,5.06,10.28,2.5a4.25,4.25,0,0,0,1.39-4.91c-1.35-3.27-5.9-2.71-4.39.72,0.17,0.82-.9.86-1.65,0.05a2.11,2.11,0,0,1,0-2.73c1.17-1.89,4.31-2.09,6.15-.4,2.94,2.89,1.67,7.85-2.06,9.42-4.29,1.83-9.82-1.95-12-5.55-3.62-6.27-4.18-12.23-5-18.56-0.43-3.42-1.26-7-2-10.57h0Zm1.84,0.51,1.24,0.3s1.36,6.11,1.81,9.71c0.55,4.46,1.17,9.71,3.07,13.77a15.32,15.32,0,0,0,4.65,5.88c1.5,1.06,2.84,1.73,4.83,1.3,2.3-.5,2.4-4.07.21-4.08-1.12,0-.39-1.09.54-1.12,3.31-.11,3.4,5.12.29,6.29-3.57,1.34-7.42-1.18-9.81-4.34-4.18-6.51-4-12.44-4.93-17.69A98.73,98.73,0,0,0,112.84,37.73Zm25,0.18,0.76,1-4.2,0,0-1,3.43,0h0Zm-23.18.34,1.18,0.41A89.82,89.82,0,0,1,117.78,49c0.85,5.39,1.13,9.87,3.91,13.76,1.16,1.62,3.34,3.78,4.72,4a1.59,1.59,0,0,0,2-.65c0.35-1.06,1.27-.57,1.28.39a1.77,1.77,0,0,1-1.33,1.62c-4.09.71-7.83-4.44-9-7-1.54-3.8-2.2-8-2.86-13.32C116.2,45.52,114.85,38.39,114.69,38.25Zm37.93,0.19,0,1.71-5.8,3.67V42.15Zm-36.15.33,1.33,0.36a80,80,0,0,1,1.77,9.29c0.67,5.21,2.11,11.26,4.79,14.39a6.6,6.6,0,0,1,.52.69,1,1,0,0,1-.24,1.15c-4.79-2.5-5.92-12.54-6.33-15.93A80.68,80.68,0,0,0,116.47,38.77Zm18.61,0.8,4.22,0.12,1,1-5.59,0C134.13,40,134.5,40.1,135.08,39.57ZM152.62,41v1.41l-5.82,3.7V44.63Zm-17.39.45,6.18,0.11,2.17,1.29-9.44-.08,1.1-1.32h0Zm17.39,1.8v1.7l-5.82,3.66V47Zm-19.67.32,10.5,0.11,0,1.14-11.39-.29Zm-1.37,2,11.88,0,0,1.26-10.8-.1-1.11-1.19h0Zm21,0.19v1.77l-5.82,3.62V49.38ZM133.8,47.53l9.1,0-1,1.05-6.86-.07-1.25-1h0Zm18.81,0.62v1.67l-5.82,3.67V51.85Zm-12,1.28-1.1,1.08-4.72-.07,0.16-1Zm12,1.17v1.79L146.79,56V54.41Zm-17.85.65,3.89,0.09-0.6.82-3.41,0,0.11-.92h0Zm-35,1.43c0.59,4.51,3.85,13.59,3.85,13.59h-1.28a62.1,62.1,0,0,1-3.19-11.2c-0.1-.52.25-2.28,0.63-2.4h0Zm34.74,0.26,3,0.05-0.65,1.16h-2.44l0.1-1.21h0Zm18.1,0.28v1.57l-5.82,3.59V56.94Zm-18.2,1.58,2,0.06-0.47,1.08-1.54,0Zm18.2,0.84v1.67l-5.82,3.62V59.32ZM98.54,56a78,78,0,0,0,3.25,10.31h-1.1c0,0.15-2.58-5.91-2.85-8.5A1.83,1.83,0,0,1,98.54,56h0Zm35.85,0.7,1.18,0.05-0.2.61-1,0,0-.69h0Zm0.11,1.48,0.61,0-0.15.58h-0.38l-0.08-.6h0Zm18.11,0v1.35l-5.82,3.69V62Zm-55.53.15C98,61,98.85,63.66,99.9,66.23l-1.3,0a55.18,55.18,0,0,1-2.14-6,1.84,1.84,0,0,1,.64-1.88h0Zm-1.3,1.76L98,66.18H96.72c-0.51-1.22-1.08-2.59-1.47-3.84S94.88,61,95.79,60.11Zm56.83,0.38v1.6l-5.82,3.61V64.32ZM94.33,61.78c0.28,0,.3.33,0.55,1.06l1.19,3.36-1.52,0a10.43,10.43,0,0,1-.83-3,1.22,1.22,0,0,1,.22-1.21,1.1,1.1,0,0,1,.39-0.16h0ZM92.71,63c0.26,0,.36.47,0.56,1.17l0.63,2-1.42,0A4.31,4.31,0,0,1,92,63.57,1.18,1.18,0,0,1,92.71,63h0Zm59.91,0v1.68l-5.82,3.51V66.69Zm-61.36,1.2,0.6,1.94-1.28,0a3.77,3.77,0,0,1-.08-1.52Zm-1.68,1,0,0c0.18,0.86,0,.91,0,0.91H87.84a8.87,8.87,0,0,1,1.73-.91h0Zm63,0.5V67.1l-5.82,3.64V69.38ZM83.41,67.88l35,0.1,1.17,1.65s-3.4.09-14.55,0c-9.38.12-28.24-.2-28.24-0.2l1.83-.87A22,22,0,0,0,83.41,67.88Zm69.21,0.2v1.47l-5.82,3.54V71.66ZM54.2,69.49a15.45,15.45,0,0,1-7.4,1.4c-4.22-.34-10.68,1.43-12,5.5-0.41,1.44-.41,1.48.36,2.21a2.44,2.44,0,0,0,.83.61,9.09,9.09,0,0,1,2.54-2.05,13.77,13.77,0,0,1,4-.53c4.48-.2,5.5-0.39,6.61-0.68,2.45-.65,4.93-3.07,5.08-5.77A2.53,2.53,0,0,0,54.2,69.49Zm-0.12.37c-0.47,5.63-6.55,6.36-9.22,6.2-5.41-.32-7.55,1.3-8.4,2.3-0.28.27-.45,0.21-0.4,0,0.63-3.12,5.65-3.23,8.18-3.2,6.19,0.28,7.76-2.71,7.59-2.74-0.47.21-.82,0.4-1.29,0.62-0.2.09-.16,0-0.7-0.35,0,0-.62,1.43-1.41.11,0,0.07-.56,1.17-1.64.14,0,0.11-.65,1.06-1.71.09-1,.85-1.47.38-1.89-0.22-0.31.19-1.23,1.43-2,.09-0.82.52-1.16,1.09-1.86,0.75-1.64.29-3.06,2-3.64,3.53-0.18.53-.55,0.62-0.59,0-0.19-1.61,2.46-4.41,5.11-5.18a20.16,20.16,0,0,1,8-.86A16.88,16.88,0,0,0,54.08,69.86Zm66.35,0.43,1.64,1.11L93.54,110.85,91,110.79l29.41-40.5h0Zm-45.77,0h3.24v5.38h-2.8l-1-1.49a1.77,1.77,0,1,0-.84-1.25l-1-1.56a16.26,16.26,0,0,1,1.5-.74C74,70.53,74.66,70.31,74.66,70.31Zm10,0h5.5v5.38h-5.5V70.31Zm12,0h5.69v5.41l-5.69,0V70.31h0Zm12.28,0h5.68v5.38H109V70.31Zm43.54,0.13,0.09,1.68-5.82,3.55V74ZM111.62,71a1.84,1.84,0,1,0,1.84,1.84A1.84,1.84,0,0,0,111.62,71Zm-24.2.1a1.84,1.84,0,1,0,1.84,1.84A1.84,1.84,0,0,0,87.42,71.09Zm12,0A1.84,1.84,0,1,0,101.25,73,1.84,1.84,0,0,0,99.41,71.13Zm6.19,0.22a1.55,1.55,0,1,1-1.54,1.55A1.55,1.55,0,0,1,105.6,71.35Zm-24.39,0a1.55,1.55,0,1,1-1.54,1.55A1.54,1.54,0,0,1,81.22,71.37Zm36.56,0.05a1.42,1.42,0,0,1,1,.37L117,74.08A1.43,1.43,0,0,1,117.77,71.42Zm-24.15,0A1.55,1.55,0,1,1,92.08,73,1.54,1.54,0,0,1,93.62,71.43ZM75,71.54a1.15,1.15,0,1,1-1.15,1.15A1.15,1.15,0,0,1,75,71.54Zm-3.53.06a83.49,83.49,0,0,1,17.3,39l-1.64-.08A85.39,85.39,0,0,0,69.95,72.21l1.51-.61h0Zm40.16,0a1.22,1.22,0,1,1-1.22,1.22A1.22,1.22,0,0,1,111.62,71.62Zm-24.2.1a1.22,1.22,0,1,1-1.22,1.22A1.22,1.22,0,0,1,87.42,71.71Zm12,0A1.22,1.22,0,1,1,98.19,73,1.22,1.22,0,0,1,99.41,71.75Zm30.5,0.88c0.65,5-.63,8.15-4.4,8.67-4.8.66-5.43,1-5.45,5.59,0,5.41-.83,7-4.65,7.4-4.3.48-5.29,1-4.91,6.35,0.28,3.91-1.26,5.57-4.56,6.3-2.59.57-4.83,1.44-5.79,4.05l-2.36,0c0.61-4.12,4.74-6.08,7.39-6.22,2.85-.68,3.45-1.64,3-6.65-0.35-3.77,1-4.92,5.45-5.78,3.53-.7,4.4-1.72,4.21-4.62-0.41-6.22,0-7.15,3.52-7.91,1.79-.43,4.72-0.62,5.83-2,1.27-1.56.94-2.9,0.83-4.82l1.91-.4h0Zm22.71,0.17v1.63L146.79,78V76.44Zm-85.54,1c-1.24,5.39,3,6.56,5.64,7.47,3,1.06,3.77,2.59,3.42,7.95-0.26,4.05.18,4.95,2.8,6.34,4,2.07,5.08,5,3.3,9.32-1.1,2.66-.52,3.4.17,5.72l-1.94,0a6.44,6.44,0,0,1-.38-6.05c1.66-3.74,1.61-5.62-2.08-7.31-2.86-1.3-3.73-2.53-3.91-5.22a19.72,19.72,0,0,1,.2-4.15c0.33-3.1-.77-4.43-5.33-6.13-2-.76-3.42-2.52-3.83-5.32a7.49,7.49,0,0,1,0-1.69l2-.92h0Zm68.24,0.58,17.35,11.58-0.12,2.58L134.13,76.16Zm-11.18.26a1.52,1.52,0,1,1-1.52,1.52A1.52,1.52,0,0,1,124.13,74.59Zm-54.59.67a1.38,1.38,0,1,1-1.38,1.38A1.38,1.38,0,0,1,69.54,75.26Zm83,0.16L152.51,77l-5.71,3.54V79l5.77-3.54h0Zm-76.85,1h39.53l-1,1.37-37.77-.39ZM62,76.51c5.25,6.86,10.4,13.93,14.38,27.25l-1.7.65a79.7,79.7,0,0,0-14.29-27L62,76.5h0Zm90.6,1.22v1.7l-4.38,2.67-1.29-.84Zm-92.92.18,0.78,1s-0.84.66-1.79,1.34c-2.59,1.86-2.93,2.07-3.1,3.28-0.41,2.87,2.53,4.29,5.49,2.63,1.06-.49,3.38-2,3.38-2l0.67,1s-3.33,2.5-5.28,3.07c-4.29,1.25-7.49-4.2-4.32-7.44a16.34,16.34,0,0,1,2.32-1.69C58.67,78.61,59.69,77.91,59.69,77.91Zm17.64,0.68,36.42,0.22L90.5,110.69l-1-.06c-1.8-11.93-6.28-22.35-12.13-32h0ZM61.45,79.94l2.13,3a19,19,0,0,1-3.68,2.59c-1.84,1-3.83-.82-2.67-2.47S61.45,79.94,61.45,79.94Zm91.16,0.31V81.8l-2.52,1.55-1.15-.74Zm-91.43,1.2a5.2,5.2,0,0,0-3.25,2.19A0.9,0.9,0,0,0,58,84.71c0.34,0.44.75,0.42,2-.23,2.47-1.32,2.94-2.11,1.85-2.88a0.93,0.93,0,0,0-.53-0.16H61.19Zm-0.08.64c0.16,0,.34,0,0.5,0,0.43,0.18.3,0.71-.15,0.84a0.53,0.53,0,0,0-.79.58c-0.18.43-.17,0.4-0.72,0.46a0.59,0.59,0,0,0-.67.32,0.69,0.69,0,0,1-.92-0.09,0.86,0.86,0,0,1,.49-0.85A1.59,1.59,0,0,0,59.42,83,0.55,0.55,0,0,1,60,82.54a0.81,0.81,0,0,0,.82-0.34A0.34,0.34,0,0,1,61.11,82.07Zm91.51,0.37v2.4l-1.83-1.17Zm-101.07.3A67.55,67.55,0,0,1,66,110.54l-1.33.92c-2-8.11-5.1-16.69-14.26-27.84Zm77.61,0.13a54.56,54.56,0,0,1,17.66,34.8l-1.65,1A55.81,55.81,0,0,0,128.1,84.27Zm-5.93.72a1.52,1.52,0,1,1-1.52,1.52A1.52,1.52,0,0,1,123.23,83.6Zm-73.52.6A8,8,0,0,1,51.09,86c0,0.68-.54,1.06-3.75,2.23-0.54.2-2.91,0.74-2.91,0.74L44.35,87.8c1.21-.44,4.45-1.22,4.69-1.91a3.93,3.93,0,0,0-.34-1Zm22.1,0.29a1.39,1.39,0,1,1-1.38,1.39A1.38,1.38,0,0,1,71.8,84.48Zm55.84,0.4a56,56,0,0,1,16.83,34.5c-11.68,9.53-19.61,21.5-22.76,36.48-1.56-2.6-2.88-5.6-4.32-8.53,15.58-13.73,18.86-38.47,5.38-55.81l4.87-6.65h0ZM66.31,86.75L67,87.84s-0.15.13-2.33,1.49c-3.19,2-3.72,3.29-2.65,5.32s2.31,2.19,5.74.53C69,94.59,70,94,70,94l0.55,1.14a16.84,16.84,0,0,1-4.49,2.34c-2.78,1-5.41-.72-5.91-3.94-0.36-2.34.66-3.6,4.72-5.91C65.33,87.36,66.31,86.75,66.31,86.75Zm47.78,0.52a1.52,1.52,0,1,1-1.52,1.53A1.52,1.52,0,0,1,114.09,87.27Zm-62,.06L53,88.2a9.89,9.89,0,0,1-2.66,1.95c-2,1.23-2.24,1-1.23,1.89,1.89,1.6,4.5,5.14,4.49,6.05s-0.8,1.69-2.31,2.37c-0.83.37-4.1,1.54-4.58,1.63-1,.1-1.22.49-0.27,1.36,1.62,1.87,3,5.86,2.45,7.08-0.63,1.37-1.38,1.6-7.39,1.88-0.68,0-1-.16-0.64.72A21.44,21.44,0,0,1,42,117.34c0.48,2.42.4,3.5-.54,4-0.54.29-4.72,0.19-6.44-.15-2-.39-2.19-0.42-1.87.87,0.41,1.78.67,6.56-.67,7.48-0.56.37-1.16,0.28-3.61-.55-1.56-.53-2.92-1.13-2.92-1.13l0-1.48c1.28,0.53,4.77,2,5.77,1.56,1.18-1.69-.46-7.64-1.08-8.91-0.76-1.52,0-1.85,1.77-.91,0.91,0.65,8.78,3.76,8.33,1s-1.33-5.65-3-7.53-0.77-2.46.94-1.69c3,1.35,9.27,1,9-.38-0.41-2.28-2.48-5.38-5.31-7.78-0.79-.67-0.82-1,0.11-1.12,2.64-.21,10.21-1,9.15-2.77a18.23,18.23,0,0,0-3.15-3.94,13.92,13.92,0,0,0-4.16-2.34l0-1.09c3.45-.29,5.24-1.33,7.77-3.11h0ZM43.78,88.4c-1.24,13-6.65,23.7-17.84,31.16l-0.06-1.46C35.72,110.7,40.44,100.17,41.72,90l2.07-1.58h0ZM53.28,89l0.92,0.83a9,9,0,0,1-1.56,1.42c-1,.79-0.67.48,0,1.43C53.29,93.45,54.4,95,54.4,95l-0.33,2a33.69,33.69,0,0,0-3.86-4.65c-0.88-.91-0.83-0.93.43-1.59,0.94-.52,1.7-1.15,2.64-1.71h0Zm14.33,0.2h0a38.76,38.76,0,0,1,1.8,3.54c-1.07,1-3.87,2.45-5,2.1-1.77-.57-2-2.46-0.35-3.57a20.45,20.45,0,0,1,3.54-2.07h0Zm10.78,1.09A1.38,1.38,0,1,1,77,91.69,1.38,1.38,0,0,1,78.39,90.31Zm-11.15.12a11.18,11.18,0,0,0-3.32,2,1.55,1.55,0,0,0,.2,1.46c0.32,0.42.92,0.35,1.64,0,0.3-.17.84-0.44,1.2-0.61,1-.47,1.43-0.82,1.4-1.21S67.77,90.39,67.23,90.43Zm-26.44.5c0.28,1.46-.59,4-1.09,5.46-2.94,3.86-7.21,5.83-11.26,7.18a5.7,5.7,0,0,1-2.11.15A99.51,99.51,0,0,1,40.8,90.93ZM67.31,91a0.62,0.62,0,0,1,.52.77c-0.63.34-1,.05-0.9,0.53a0.75,0.75,0,0,1-.86.77,0.81,0.81,0,0,0-.81.11c-0.65.27-1.21-.3-0.51-0.62a1.51,1.51,0,0,0,.79-0.53c0.07-.36.37-0.65,0.69-0.45a0.66,0.66,0,0,0,.69-0.24A0.28,0.28,0,0,1,67.23,91h0.07Zm-38,.65a0.39,0.39,0,0,0-.31.05c-0.27.26-.71,4.28-0.42,4.57s1.48,0.51,1.58,0a37.05,37.05,0,0,0,.42-4.09,1.65,1.65,0,0,0-1.27-.57h0Zm0.44,0.44a0.7,0.7,0,0,1,.34.56,11.89,11.89,0,0,1-.35,2.81c-0.16.6-.62,0.46-0.79-0.09a5.52,5.52,0,0,1,.31-2.87A0.57,0.57,0,0,1,29.72,92.11Zm26,0,1,1.2c-2,19.38-15.84,36.15-30.58,42.8l0-1.29C42.9,126,53,111.16,55.7,92.12h0ZM122.4,92.2l1.83,2.52-2.62.08ZM44,93c0.9,0,5.71,3,5.06,4.44-0.51,1.18-4.53,1.27-6.37,1.1L43,97.44a7.85,7.85,0,0,0,2.7,0c2.25-.15,2.08-0.93-0.49-2.56L43.82,94,44,93h0Zm13.31,1.59a68.49,68.49,0,0,1,4.22,8.53c-18.16,17.18-16.75,40.59-5.3,55.95l-4.93,6.68a56.77,56.77,0,0,1-17-33.39C48.65,122,55.42,106.49,57.32,94.61h0Zm67.42,0.76,1.08,2.08-2.6,0Zm-11.24,1A1.52,1.52,0,1,1,112,97.94,1.52,1.52,0,0,1,113.5,96.42Zm-42.25.41L71.77,98c0,0.15-3.67,1.32-4.86,2.82a3.26,3.26,0,0,0-.38,3.84c1.05,1.43,1.8,1.63,3.58,1.08a23.38,23.38,0,0,0,4-1.78l0.23,0.6s-2.07,1.22-3.64,2.11a3.82,3.82,0,0,1-1.92.46,4.26,4.26,0,0,1-2.53-7.47,21.2,21.2,0,0,1,3.13-1.85Zm47.48,0.73c11.84,17.13,3.74,35.91-3.91,42.55l-0.21-2a32.39,32.39,0,0,0,3-39.52l1.08-1h0Zm7.62,0.77,0.93,2.12-2.75-.29ZM78.63,99a1.38,1.38,0,1,1-1.38,1.39A1.38,1.38,0,0,1,78.63,99Zm38.7,0.27c10.38,15.12,4.59,39.24-15.21,46.59l-0.1-1.69c20.19-8.46,22.17-31,14.06-43.72l1.25-1.18h0Zm-45,.09,1.31,3.55a10,10,0,0,1-4.15,1.75C68,105,66.9,102.49,68,101.52A11.82,11.82,0,0,1,72.33,99.38Zm-33.66,0c0.24,0,0,.59-0.64,2.12-1.38,3.35-1.47,3.42-4.95,4a17.14,17.14,0,0,1-4.44.24c-1.94-.19-2.77-0.74-1.51-1a31.33,31.33,0,0,0,10.29-4.53A4.94,4.94,0,0,1,38.67,99.4Zm66,0.41a1.71,1.71,0,1,1-1.7,1.71A1.71,1.71,0,0,1,104.64,99.81Zm-51.6.47L52.9,101.6s-2.11,1.12-3.1,1.54c-0.76.31-.81,0.38-0.57,1.09a26.32,26.32,0,0,0,1.44,3.17l-0.88,2A23.94,23.94,0,0,0,47.7,104c-0.94-1.31-1.11-1.47.35-1.75A29.79,29.79,0,0,0,53,100.28Zm18.8,0.43c-1,0-3.18.91-3.39,1.74a1.11,1.11,0,0,0,.41,1.27,4.34,4.34,0,0,0,3.79-1.29,1.3,1.3,0,0,0-.28-1.09C72.22,101.1,72.25,100.69,71.85,100.71Zm0.05,0.71H72c0.17,0,.81.79,0.1,0.72a0.8,0.8,0,0,0-.67.28,0.62,0.62,0,0,1-.85.4,0.43,0.43,0,0,0-.5.22,0.72,0.72,0,0,1-1,.07,0.7,0.7,0,0,1,.62-0.72,1.61,1.61,0,0,0,.56-0.37,0.63,0.63,0,0,1,.81-0.31,1.83,1.83,0,0,0,.86-0.3h0Zm55.76,0.06,0.76,2.12-2.72-.24Zm-12.6.47a1.32,1.32,0,0,1,.92,2,1.86,1.86,0,0,1-1.9.69,2,2,0,0,1,.32,2.63c-1,1-2.92-.54-2.77-0.69Zm-73.9.78s4.19,3.62,4.22,5.24a0.83,0.83,0,0,1-.68,1c-1.65.55-6.22-.86-6.22-0.86L39.06,107c0.72,0.2,4.27,1.12,4.57.67s-3-3.68-3-3.68Zm20.79,1.51,0.5,1.75-1.71-.43Zm66.88,0.31,0.45,2.42-2.74-.64Zm-52.28,0L76.95,106c-18.19,8.46-23.5,27.89-14,43.92l-1.07,1.48C49.16,130.77,62,109.83,76.54,104.59ZM35.12,106a0.37,0.37,0,0,1,.43.41,16.24,16.24,0,0,1-2.43,3.17c-1.29.52-6.27-1.56-7-3.18-0.15-.47.34-0.27,1.45,0,2.79,0.8,5.62-.3,7.57-0.37h0Zm48.46,0a1.38,1.38,0,1,1-1.38,1.38A1.38,1.38,0,0,1,83.58,106Zm-23.43,0,0.25,2.15-2.11-.12Zm-33.87,1.67a11.81,11.81,0,0,0,5.22,2.64c1.12,0.25.8,0.36-.24,1.44s-0.89,1.15-1.89.65c-1.66-.84-3.46-2.76-3.38-3.8A1.12,1.12,0,0,1,26.28,107.75ZM129.6,108l0.34,2.3-2.59-.9Zm-72,.83,0.85,2.06-2.3-.07,1.45-2h0Zm56.91,0.49a1.4,1.4,0,0,1,1.51,1.47,7.63,7.63,0,0,1-.07.77c1.35-.86,3.15-0.15,3.09,1.24-0.08,2-1,2-2.6,1.72,0.86,1.43-.16,2.8-1.77,2.27s-1.19-2-.5-3a3.58,3.58,0,0,0-.39,7c-0.8-1.25-1-2.74.74-3s2.31,1,1.61,2.48c1.52-.53,3,0.35,2.5,1.83-0.55,1.8-2.15,1.67-3.09.58a1.57,1.57,0,0,1-2.06,2.17c-1.86-1-.94-2.77.31-3.24-4.78-.49-5.89,6.14-2.37,7.09-0.91-.57-1-3.18,1.06-2.82s1.55,2.3.24,3.16c1.57-.34,3,1,2.09,2.43-1.13,1.64-2.68.47-3.26-.65,0.18,1.5-.77,2.45-2,1.89-2.1-1-.55-3.38,1.09-3.23-3.33-2-7.85,2.17-5.19,5.59-0.1-1.56.67-2.83,1.74-2.66a1.76,1.76,0,0,1,1.49,2,2.54,2.54,0,0,1-1.92,1.44c2.55,0.28,2.76,2.09,1.71,3-1.79,1.51-2.62-.23-3-1.25-0.36,2.54-3.35,1.67-3.45-.16-0.1-2,2.21-2,2.63-1.85a6.86,6.86,0,0,0-3.75-2.16v-1.16a18.33,18.33,0,0,0,8-21.44l0.47-.54c1.26,1,2.53,3,4.87,2.28a8.36,8.36,0,0,1-.81-0.65c-1.2-1.19-.53-2.59,1.15-2.67h0Zm-51,1.47,0.8,1.18c-11.74,13.8-9.6,29.59-2.85,40l-1,1.19c-6-7.69-10.86-26.32,3-42.42h0Zm-37.22.17a20.56,20.56,0,0,1,2.52,2.15c0.7,0.57.69,0.67,0.11,1.21-1.3,1.26-2-.56-2.45-1.31-0.51-1-.57-2-0.18-2.05h0ZM72,111a1.64,1.64,0,0,1,1.43,1.66,4.36,4.36,0,0,0,0,.55,5.19,5.19,0,0,0,.46-0.69c1-1.68,3.16-.71,2.81,1.22a1.77,1.77,0,0,1-2.1,1c0.39,1.08,1.46,1.33,2.76,1.8,0.45,0.09,1.23.31,1.23,0.31l0,0.73c-7,4.45-11,12-8.45,22.32L69.43,141c-1.42-3.43-2.72-3.35-5.05-3.49a5.91,5.91,0,0,1,.92.81c0.71,0.84.39,2.3-.59,2.46-2.27.35-2.29-1.26-2-2.36,0,0-.41.34-0.61,0.47A1.39,1.39,0,0,1,60,137.68a1.52,1.52,0,0,1,1.4-1.94,4.33,4.33,0,0,1,1,0L62,135.11c-0.54-1.06.64-2,1.73-1.74,1.71,0.41,1.58,1.9.59,3.06,2.66,0.2,4-1.54,3.85-3.27a3.62,3.62,0,0,0-3.3-3.62s0.34,0.53.48,0.79A1.46,1.46,0,0,1,64,132.45a1.5,1.5,0,0,1-1.45-2.11c0.11-.25.54-0.57,0.48-0.6s-0.64.16-.8,0.19a1.53,1.53,0,0,1-1.69-2.23,1.94,1.94,0,0,1,2.55-.67,2.2,2.2,0,0,0,.34.21,3.85,3.85,0,0,0-.13-0.53c-0.28-1.12.25-1.72,1.46-1.64,1.69,0.11,2.32,1.49,1.18,2.74l-0.74.8c0.06,0.24,2.41.42,3.61-.84,1.39-1.46,1.61-4.51.21-5.5l-0.69-.49c0.67,1.34-.56,2.88-1.64,2.59-2.16-.52-2-2.3-0.55-2.86a5.32,5.32,0,0,1-1.86-1.12,1.46,1.46,0,0,1,.32-2.16,2,2,0,0,1,2.76.64c0.37-1.12.89-1.88,2.42-1.27,1.07,0.51,1.06,1.95-.12,2.73a5.9,5.9,0,0,1-1.05.48,5.16,5.16,0,0,0,2.25.59,3.7,3.7,0,0,0,3.31-4.94,5.28,5.28,0,0,0-.68-1,3.94,3.94,0,0,1-.2,1,1.61,1.61,0,0,1-2.56.41,1.33,1.33,0,0,1,0-2,3.54,3.54,0,0,1,1.32-.77,2.4,2.4,0,0,1-1.65-1,1.47,1.47,0,0,1,.67-1.88,1.7,1.7,0,0,1,1-.21h0Zm58.18,0.27,0.16,2.43-2.7-1Zm-74.51.14,1,2.21H54.17l1.54-2.2h0Zm52.47,0c2.36,8.75-1,15-7.26,19.95l-0.7-.92c4.92-4.19,8.61-9.14,7-17.94Zm-72.35,0s3.65,4.74,2.92,6.34c-1,1.53-6.72-1.76-6.64-1.94l0.72-.7c0.91,0.37,3.76,1.94,4.38,1.7,0.22-1.43-1.46-3.28-2.09-4.52Zm43.42,0L106.92,112l-0.83,1.46h-2.16L99.66,121H79.77l-0.53-9.56h0Zm-31.07.76-1,1.74c-0.9.28-3.6,0.32-3.82,0.5a27.34,27.34,0,0,1,.69,3.5L43,119.35c-0.28-1.68-.76-3.81-1.18-5.37-0.36-1.32-.26-1,2.55-1.25a24.93,24.93,0,0,0,3.78-.5h0Zm5.68,2.09,1.14,2-2.31,0Zm-27.72.14a3.16,3.16,0,0,1,1,1,0.81,0.81,0,0,1-1,.63,6.41,6.41,0,0,1,0-1.59Zm104.42,0,0,2.54-2.74-1.22Zm21.77,0.57,0,1.64c-9.94,4.87-24.78,18-29,41.41l-0.87-1a61.78,61.78,0,0,1,29.91-42.1h0Zm-100,2.26,1.24,1.87-2.23.24ZM130.61,118l-0.22,2.25-2.7-1.5Zm-51.95.47c0,0.53.06,0.92,0.09,1.45-6.13,4-8.2,10.24-7.18,18.12l-0.85,1.26A18.31,18.31,0,0,1,78.66,118.51Zm-50.16.31s2.33,5.27,1.41,6.51c-0.9.73-3-.49-3.91-1l0-1.26s0.72,0.37,1.44.66c1.48,0.66,1.49-.13.67-2.33-0.29-.77-0.57-1.67-0.57-1.67ZM149.7,119a19.51,19.51,0,0,0,2.65,1l0,1.49-4.17-1.5,1.54-1h0ZM50.84,120.6l1.6,1.68-2.22.51Zm96.86,0.19a2.46,2.46,0,0,1,.47,0,15.43,15.43,0,0,1,4.14,1.15l0,1.66a36.18,36.18,0,0,0-4.45-1.39c-1.16-.16-1.09.49-1.09,2.13a14.38,14.38,0,0,0,1.6,6.44c0.88,1.84.42,2.33-1,1.51-2.57-1.77-8.06-3.11-8.91-2.08s0.84,6.34,2.82,8.86c0.8,1,.85,1.19.48,1.59s-0.8.34-1.66,0.07c-2.85-.91-7-1.12-8.17-0.34s1.89,6.05,4.47,7.76c1.67,1.2,1.35,1.79-1.35,1.85-4.41,0-7.81,1-7.62,2.22,0.32,2.05,3.18,4.87,6.46,6.37,2,0.82,1.17,1.15-.17,1.63a43.57,43.57,0,0,0-6.48,3.1l-1-1.29s2.11-1.35,4.41-2.64c0.54-.3.51-0.41-0.24-1-2.45-2.06-4.25-4.36-4.62-5.9s0.38-2.45,2.61-3.3a18.12,18.12,0,0,1,3.09-1c1.75-.39,1.78-0.45,1-1.8l-1.22-2.22c-2.6-4.47-1.23-6.08,4.81-6.17,1.48-.08,1.77-0.08,1.69-0.6-0.32-2.1-1.25-4.52-1.12-6.3,0.28-2.69,3-3.34,7.88-2.13,1.12,0.28,1.2.22,1-.69-0.88-3.84-.08-7.32,2.18-7.49h0Zm-17.31.3L130,123.7,127.39,122Zm-96.5.62L41,122.17l-1.13,1.33-4.3-.08-0.16,3.68L34,128.29ZM80,122h5.86l0,6.21H80L80,122h0Zm7,0h5.45v6.21l-5.41.06L87,122h0Zm6.53,0h5.85l-0.05,6.21H93.53V122h0Zm51.07,0.5a37.44,37.44,0,0,0,.33,5.73c-0.09.37-.35,0.32-1.88,0a22.41,22.41,0,0,0-4-.46l1.23-1.31c1,0.12,1.8.11,2.85,0.24,0-1,0-3,0-3l1.44-1.12h0Zm-94.68,1.23,1.64,1.65-2.09.54Zm79.91,0.54-0.65,2.66-2.37-2.14ZM149,124.32a4.53,4.53,0,0,1,3.27,1.34V127L149.93,126a13.56,13.56,0,0,0,1.34,4.34l-1.11.52a9.39,9.39,0,0,1-1.68-4.75c0-.64-0.08-1.72.5-1.75h0ZM49.11,127l1.95,1.16L48.9,129Zm80,0.6-1,2.73L126,128ZM26,128.47l5.25,1.78-0.93,1-4.36-1.38Zm73.59,0.72,0.43,9.69-27.72-.23,1-1.37,1.8,0,4.74-8ZM48.74,130l2.06,1.46-2.14.95Zm103.64,0.86v1.58c-6.69,5-13.93,13.51-15.16,28.62l-1.81,1.55c0.88-14.76,7-24.93,17-31.75h0Zm-24.41.06-1,2.46L125.07,131Zm8,0.45a38.58,38.58,0,0,0,1.14,6,23.06,23.06,0,0,0-5.56.43l0.93-1.66s0.86-.09,1.61-0.24c1.55-.31,1.39-0.12,1-1.47a12.14,12.14,0,0,1-.36-1.54A13.79,13.79,0,0,1,135.94,131.32Zm5.11,0.31c1.82,0,4.55,1.65,5.77,2.58l-0.64.72c-0.18.06-2.73-1.31-4.74-1.63a24.75,24.75,0,0,0,2.42,4.34l-0.94.93c-0.28-.06-3.92-5.45-3-6.67A1.88,1.88,0,0,1,141,131.63Zm-107.4,1.26c2.39,14.55,8.12,24.54,17.14,33.53l-0.92,1.2A56.13,56.13,0,0,1,32,133.82l1.69-.94h0Zm14.93,0.61,2,1.07-2,1.17Zm103.77,0v2.13l-1.22-1.24a7.56,7.56,0,0,1,1.24-.9h0Zm-25.73.44-1.33,2.45-1.74-2.32ZM150.46,135c1.77,0.25,2.34,3.79,1.75,4.48a23.52,23.52,0,0,0-3.82-2.59A7.65,7.65,0,0,1,150.46,135ZM122,136.85l2.83,0.27-1.5,2.34Zm-73.4,0,2.21,1.08-2,1.41Zm99.6,1a2.82,2.82,0,0,1,1.3.45c2,1.11,3,2.33,2.93,3.42-0.05.5-.33,0.6-0.65,0.24a9.6,9.6,0,0,0-4.24-1.83c-1.28-.25-1.4-0.36-1-1C147.13,138.31,147.61,137.89,148.22,137.9Zm-34.11,1a64.81,64.81,0,0,0,15.23,28l-1.4,1.2c-5.14-5.91-10.79-12.84-15.41-27.8Zm6.12,0.62,2.83,0.43-1.66,2.12Zm-40,.12c0.33,0-1,5-5.48,5.31-2.85.47-3.17,1-3.21,5.4-0.06,6-1,7.44-5.94,7.82-3.25.25-3.68,0.91-3.13,5.6,0.52,4.46-1.16,6.74-5.3,6.73-3.59.3-5.08,2-5.07,5.32,0,1.35,0,1.68,0,1.68l-2.32.18a28.8,28.8,0,0,1,.18-3.26c0.71-4.32,2.55-6,6.44-6,3-.23,3.47-0.72,3.37-5.28s-0.18-4.61,1-5.83A4.7,4.7,0,0,1,64.09,156c4.91-.46,5.3-0.79,5.29-5.85-0.46-4.2.7-6.77,3.36-7,5.38-.43,5.25-3.36,5-3.48l2.5,0h0Zm11,0c3.16,17.07,13.14,33,18.61,38.94l-1.07.57c-8-9.95-15.24-21.37-18.83-39.49l1.28,0h0Zm-5.7,0,2.5,0L59.32,180.28l-1.51-1.15,27.76-39.46h0Zm3.49,0c2.7,9.84,4.83,19.46,13.32,32.32l-36-.24Zm9.95,0c0.21-.1,1.06,5-0.21,7.32-1.13,3.17-.58,5,1.89,6.11,4.24,2,5.3,4,4.77,8.84-0.38,3.41.65,5.06,3.85,6.16,3.81,1.31,5.47,3.36,5.45,6.73a4.3,4.3,0,0,1-.2,1.11l-2.13,1.25s0-.46.11-1c0.55-3.73-.15-4.74-4.54-6.5-4.15-1.66-5.18-3.58-4.47-8.38a7.11,7.11,0,0,0-.73-4.33c-1.09-1.94-3.49-1.92-5.21-3.69-1.43-1.52-1.58-3.63-.37-7.26,0.75-2.25.87-3.1,0.28-5a3.94,3.94,0,0,0-.54-1.34Zm-50,.54L51.42,141l-1.84,1.92ZM146,140.79a9.21,9.21,0,0,1,3.79.94c3,1.52,3.6,2.77.93,2.1a12.75,12.75,0,0,0-5.76.22c-2.21.55-2.16,0.57-1.4-.77C144.55,141.59,144.8,140.83,146,140.79Zm-11,.64a15.15,15.15,0,0,1,5.46,1.16l-0.55,1a14.52,14.52,0,0,0-4.33-.65,15,15,0,0,0,2.86,3.48l-0.45,1c-0.11.13-3.51-2.72-4.19-4.63C133.52,141.84,133.79,141.46,135,141.43Zm-40,.22a1.66,1.66,0,1,1-1.65,1.66A1.65,1.65,0,0,1,95,141.65Zm34.2,0s2.69,5.34,2.52,5.54c-1.67.74-3.49,1.12-5.32,1.79l0.35-1.55a12.1,12.1,0,0,0,2.66-.83c1-.37-1.07-3.11-1.07-3.11Zm-10.93.4,2.79,0.5-1.86,2.09Zm-52.16,0c0.66-.05,1.68,1.23,1.68,1.23L64.4,148a1.46,1.46,0,0,1,.21-2.84c0.34,0,1,.06,1,0.06a2.58,2.58,0,0,1-.71-0.6C63.86,143.46,64.8,142.23,66.1,142.12Zm44.47,1.16c3.93,0,4,4.87,3.22,6.46-0.55,1.1-1.38,1.71-3.89,2.84a8,8,0,0,1-2.42.92L107,152.35s1.27-.56,2.63-1.11c2.82-1.14,3.51-2,3.2-4.07-0.44-2.9-2.67-3.35-7-1.41-0.5.23-1.13,0.45-1.13,0.45l-0.3-.58a29.46,29.46,0,0,1,5.36-2.28A5.55,5.55,0,0,1,110.57,143.28Zm-60.73.53,2.22,0.74-1.62,1.6Zm99,0.62c2,0,3.58.33,3.58,1,0,0.33-.08.36-1.84,0.61-2.68.37-7.16,2.67-9.68,4.8-1.49,1.26-1.11,1-.48-0.86s1.56-4,2.06-4.32C143.71,144.85,146.58,144.44,148.81,144.43Zm-32.1.25,1.89,0.41-1.23,1.2Zm-6.33,1a1.24,1.24,0,0,1,1.28,1c0.57,1.4,0,2.23-2.18,3.17a13.22,13.22,0,0,1-3,1.27l-1.38-3.71s0.44-.16,1.87-0.75A10.11,10.11,0,0,1,110.37,145.71Zm-6.39.45a82,82,0,0,0,15.38,27.13l-1.37.86a79,79,0,0,1-15.53-27.8Zm48.31,0.38c0.19,0,.28.09,0.25,0.22,0,0.52-7.86,8-12.36,11.8-2,1.73-2,1.72-2.15,1.51a21.61,21.61,0,0,1,1.29-6.69,24.64,24.64,0,0,1,12.14-6.76A3.07,3.07,0,0,1,152.3,146.55ZM110,146.6a9.23,9.23,0,0,0-2.38.75c-1.54.6-1.67,1.32-1,2.21,0.3,0.39.61,0.3,2.09-.29s2.16-.87,2.26-1.41A1,1,0,0,0,110,146.6Zm0.14,0.42a0.56,0.56,0,0,1,.52.57,0.67,0.67,0,0,1-.71.47,1,1,0,0,0-.64.27,0.68,0.68,0,0,1-.67.49,1.07,1.07,0,0,0-.73.08c-0.69.6-1.38,0.1-1.06-.5a0.71,0.71,0,0,1,.59-0.23,0.76,0.76,0,0,0,.71-0.29,0.81,0.81,0,0,1,.83-0.36,0.73,0.73,0,0,0,.69-0.26,0.8,0.8,0,0,1,.41-0.24h0.06Zm-35.55.1A1.66,1.66,0,1,1,73,148.77,1.66,1.66,0,0,1,74.64,147.12Zm-23.89,0,2.5,0.34-1.58,2Zm50,1.28a1.66,1.66,0,1,1-1.65,1.66A1.65,1.65,0,0,1,100.71,148.43ZM51.86,150.3l2.72,0.17L53,152.56Zm14.34,0.4a1.66,1.66,0,1,1-1.65,1.65A1.65,1.65,0,0,1,66.2,150.7Zm67.84,1c1.13,0,2.45.1,2.45,0.1l-0.32,1.27c-1.38.13-3.15-.25-4.63,0.37,0.55,0.9,3.77,2.18,4.13,2.5a10.71,10.71,0,0,1-.27,1.35c0.09,0.31-5.45-2.26-5.64-4.42C129.76,152.16,132.15,151.76,134,151.73ZM115,153.05c3.15,0,4.7,4.44,3.48,6.39a9.11,9.11,0,0,1-3,2.85c-0.69.44-2.53,1.35-2.53,1.35l-0.82-1.28a15.27,15.27,0,0,0,1.42-.67c1.73-1,5.25-3.08,3.55-5.93-1-1.54-2.38-1.84-5.35-.33a16.25,16.25,0,0,1-2.72,1.23l-0.56-1C108.57,155.73,112.84,153.14,115,153.05Zm10.14,0.17a18.72,18.72,0,0,0,4.78,5.65s-2.56,1.65-4.09,2.7l-0.9-1.06,2.2-1.89-2.47-3.46Zm-71.61.29H56l-1.06,2.23-1.42-2.24h0Zm95.74,0.41a39.78,39.78,0,0,0-.44,4.65,2.12,2.12,0,0,0,1.46.72,11.7,11.7,0,0,0,.59-5A2.91,2.91,0,0,0,149.24,153.92Zm0.75,0.43a0.3,0.3,0,0,1,.21,0,0.58,0.58,0,0,1,.29.65,7.93,7.93,0,0,1-.28,3.05c-0.23.52-.76,0.33-0.78-0.38,0-1,.17-1.76.23-2.64A0.72,0.72,0,0,1,150,154.36Zm-35.2,1.32c1.62,0.12,2.25,1.48,1.65,2.46-1.47,1.88-3,2.22-4.89,3.31l-1.92-3.6S113.36,155.72,114.79,155.67Zm0,0.8a7.72,7.72,0,0,0-2.65,1.1c-1.11.54-1.46,1.38-.71,2.14,0.83,0.92,3.71-1.28,4.19-1.81a0.82,0.82,0,0,0-.17-1.2A1,1,0,0,0,114.74,156.48Zm-59.21.15,2.42,0-1.31,1.85Zm59.16,0.29a0.54,0.54,0,0,1,.27.09,0.51,0.51,0,0,1-.2,1c-0.29.08-.8,0.08-0.81,0.47a0.59,0.59,0,0,1-.71.36,0.64,0.64,0,0,0-.78.26c-0.22.44-.39,0.45-0.7,0.14s-0.18-.77.48-0.84a0.82,0.82,0,0,0,.62-0.45,0.36,0.36,0,0,1,.49-0.38,1.19,1.19,0,0,0,1-.57A0.65,0.65,0,0,1,114.69,156.91Zm-13.88.14a1.66,1.66,0,1,1-1.65,1.65A1.65,1.65,0,0,1,100.81,157.06Zm-35.26,3a1.66,1.66,0,1,1-1.65,1.66A1.66,1.66,0,0,1,65.56,160.1Zm69.54,1.4v1.25c0,0.06-2.57,1.21-4.1,1.91-0.5.27-.3,0.8-0.27,1.34l-0.74.5a4,4,0,0,1-1.15-1.22c-0.37-1.51,4.42-3.32,6.25-3.77h0Zm-109,.07,18.91,13-1.29,1.89-17.56-12L26,161.57h0ZM121,162c1.23,0,2.18.71,3.1,2.14,1.82,2.84.91,5.09-2.86,7.38l-1.77,1.08-0.89-1.1s1.28-.75,1.81-1.09c3.1-2,4-3.7,2.61-5.66s-2.7-1.74-6.53.71a13,13,0,0,1-1.7.88l-0.84-1.15s2.17-1.12,2.91-1.59A8.28,8.28,0,0,1,121,162Zm-13.21.85a1.66,1.66,0,1,1-1.65,1.66A1.66,1.66,0,0,1,107.79,162.85Zm-51.23.46A1.66,1.66,0,1,1,54.91,165,1.65,1.65,0,0,1,56.56,163.31Zm64.37,1.32a1.42,1.42,0,0,1,1.35,1c0.66,1.6-.24,2.79-3.47,4.6l-0.85.46-2.38-3.3s0.84-.58,1.63-1.05C119,165.2,120.12,164.66,120.93,164.63Zm-0.32.79a1.15,1.15,0,0,0-.53.18,9.35,9.35,0,0,0-2.87,1.87c-0.38.53-.21,1.06,0.52,1.74,0.61,0.41,3.79-1.93,3.87-2.61C121.32,165.88,121.07,165.41,120.61,165.42Zm-94.42.18L26.71,166l-0.53.42V165.6Zm94.46,0.4a0.67,0.67,0,0,1,.47.18,0.54,0.54,0,0,1-.4.86,0.82,0.82,0,0,0-.74.48,0.85,0.85,0,0,1-.78.44,0.46,0.46,0,0,0-.62.32,0.6,0.6,0,0,1-1,.07,0.74,0.74,0,0,1,.44-0.92,0.65,0.65,0,0,0,.69-0.39,0.78,0.78,0,0,1,.76-0.54,0.57,0.57,0,0,0,.59-0.41A1.09,1.09,0,0,1,120.64,166Zm-93.2.43,0.76,0.51-2,1.44v-1.16Zm1.47,1,1,0.69-3.76,2.7v-1.47Zm1.93,1.23,1.09,0.72-5.75,3.9v-1.5Zm2.07,1.05v1.25l-6.73,4.71v-1.27Zm0.76,0.9,1.45,1,0.36,42.48-9.07,6.25v-1.86L34,212.93l-0.37-42.34h0Zm109.39,1.15c-2,2.33-4.76,2.49-7.14,2.42-6.41.09-10.39,0.43-11.21,8.1,2.61-2,5.38-2.21,8.59-2.12,4.06,0,5.89-.27,7.54-1.1,2.65-1.33,4.33-3.7,4-5.37C144.52,173.31,143.7,171.82,143.06,171.73Zm-110.15.37v1.47l-6.73,4.52V176.6Zm76.85,0.14a1.66,1.66,0,1,1-1.65,1.66A1.66,1.66,0,0,1,109.76,172.24Zm-43.93.17c11.89,0.37,37.15.23,37.15,0.23l1.35,1.95-39.71-.42Zm77.5,0.07c0.36,0,.41.47-0.34,1.21-1.42,1.4-2.9,2.08-7.58,2-4.94-.09-6.87.69-8.15,2.9-0.37.64-.36,0.89,0.17,0.41s1.48-1.58,1.9-.59c0.84-.55,1.57-1.39,2-0.33,0.24-.05,1.67-1.49,2-0.22,0.68-.76,1.26-1,1.58.08,1-.46,1.48-1.33,2-0.13,0.78-.56,1.37-1.26,1.82-0.19,0.66-.2,1.34-1.42,1.73-0.44a8.57,8.57,0,0,0,3.15-2.86c0.56-1.26,1.07-.43.44,0.87-1.63,3.16-4.41,4.32-10.81,4.33-3.88,0-5.49.39-6.71,1.1-2,1.14-.9-1.74.47-3.49,1.73-2.2,3.7-2.85,9.1-2.66,3,0,4.84-.39,5.63-1A3.69,3.69,0,0,1,143.33,172.48Zm-87.71.67A1.66,1.66,0,1,1,54,174.81,1.66,1.66,0,0,1,55.62,173.15Zm-22.71,1.23v1.49l-6.73,4.61V179Zm32.54,0.72h5.22v5.53H65.46v-5.53Zm11.7,0h5.62v5.53H77.16v-5.53Zm12.51,0.18h5.42v5.35H89.67v-5.35Zm11.75,0.11L105,175.5s2,2.56,2.85,3.74l-2.67,1.37h-3.79v-5.24h0ZM68,175.75a1.84,1.84,0,1,0,1.84,1.84A1.84,1.84,0,0,0,68,175.75Zm12,0.18a1.84,1.84,0,1,0,1.84,1.84A1.84,1.84,0,0,0,80,175.94Zm12.28,0a1.84,1.84,0,1,0,1.84,1.84A1.84,1.84,0,0,0,92.26,176Zm-29.31.37a1.43,1.43,0,0,1-1.58,2.37Zm5,0a1.22,1.22,0,1,1-1.22,1.22A1.22,1.22,0,0,1,68,176.38Zm30.29,0a1.48,1.48,0,1,1-1.47,1.48A1.48,1.48,0,0,1,98.26,176.42Zm6.22,0a1.84,1.84,0,1,0,1.84,1.84A1.84,1.84,0,0,0,104.48,176.43Zm-30.55.05A1.48,1.48,0,1,1,72.45,178,1.48,1.48,0,0,1,73.93,176.48Zm6,0.08a1.22,1.22,0,1,1-1.22,1.22A1.22,1.22,0,0,1,80,176.56Zm-47.06,0v1.49l-6.73,4.72v-1.46Zm59.34,0A1.22,1.22,0,1,1,91,177.83,1.22,1.22,0,0,1,92.26,176.61Zm-6.16.15a1.48,1.48,0,1,1-1.48,1.48A1.48,1.48,0,0,1,86.1,176.76Zm18.38,0.29a1.22,1.22,0,1,1-1.22,1.22A1.22,1.22,0,0,1,104.48,177.05Zm-52.35,1.28a10.61,10.61,0,0,1,8.44,4.21c2.89,3.88,4.83,8.83,5.71,15.33,0.44,3.22,1.93,12.88,2.78,15.17l-1.17-.22c-0.16.07-1.66-6.08-2.6-14.21a32.16,32.16,0,0,0-2.73-10.44c-2-4-5.37-8.34-9.87-8.68-2.63-.2-5.09,1.45-5.36,3.78a3.7,3.7,0,0,0,2.11,4.12c1.38,0.56,3,.14,3.22-1.75a1.92,1.92,0,0,0-.11-0.91,1.23,1.23,0,0,1,1.39.73c0.14,0,0,2.74-2.13,3.28-2.58.85-5.56-1.71-5.79-4.32a6,6,0,0,1,3.6-5.65A8,8,0,0,1,52.13,178.33Zm-19.22.85v1.52l-6.73,4.66v-1.53Zm19.37,1c3.76-.11,7.43,4.1,9,6.88a33.15,33.15,0,0,1,3.34,11.82c0.75,7.36,2.16,13.37,2.45,13.64l-1-.22c-0.21.14-1.63-6.5-2.49-13.89a30.85,30.85,0,0,0-3.84-11.42c-1.68-2.92-4-5.11-6.64-5.42-1.68-.17-3.42.32-3.76,2.1a1.73,1.73,0,0,0,1.6,2.16l0.62,0.05c0.65,0.12-.37,1.18-1,1.09a3.1,3.1,0,0,1-1.62-5.29A5.26,5.26,0,0,1,52.28,180.14Zm8.06,1.08,42.28,0.43s0,0.76-2.59.63a13.37,13.37,0,0,0-5.17.68l-33.21-.07Zm-27.43.49v1.41l-6.73,4.72v-1.56Zm19.65,0.6a4.52,4.52,0,0,1,2.26.56c5.24,3,7.24,10.59,7.93,15.35,0.94,7,2,13.58,2.33,13.74l-1.14-.26a93.64,93.64,0,0,1-2.18-12.94c-0.63-5.53-2.51-11.08-6.25-13.42-2.4-1.64-2.87-1.8-4-.85-1,.82-1.93-0.42-1.13-1.43A3.21,3.21,0,0,1,52.56,182.31Zm-19.65,1.91v1.16l-6.73,4.7V188.7Zm30.77,0c0.09-.08,3.64,6,4.76,15.5,0.59,5,2.28,13.58,2.55,13.64l-1.23-.13c-1.26-5-2-9.82-2.63-14.13-0.76-4.87-1.37-9.2-4.4-14.84l0.94,0h0Zm0.81,0.05,1.1,0a46.11,46.11,0,0,1,4.57,14.76,72.9,72.9,0,0,0,2.92,14.86l-1.18-.33c-1.48-4.15-2-9.17-2.8-14.37-0.88-5.75-2.26-10.75-4.61-14.94h0Zm6.78,0c1.92,5,3.17,7.38,4.05,13.53a89.64,89.64,0,0,0,3.84,17.06l-1.11,0A67.53,67.53,0,0,1,74.62,199a48.25,48.25,0,0,0-4.22-14.7l0.88,0h0Zm-1.89,0c0.1-.16,3.67,7,4.49,14.86a72.44,72.44,0,0,0,3.44,15.4l-1.14,0c-1.31-1.52-2.3-8.75-3.38-15.49a50.68,50.68,0,0,0-4.4-14.73h1Zm-2.87,0h1a47.74,47.74,0,0,1,4.56,14.84c1,7.09,2,13.48,3.11,15.14L74,214.24a75.74,75.74,0,0,1-3.07-15.32,44.22,44.22,0,0,0-4.37-14.59h0Zm5.58,0,1.2,0a44.79,44.79,0,0,1,4.39,15.15A73,73,0,0,0,81,215.08L80,215a73.72,73.72,0,0,1-3.81-16.12,52.22,52.22,0,0,0-4.11-14.53h0Zm7.39,0a54.51,54.51,0,0,1,2.68,8.79l-0.68,1.33A97.31,97.31,0,0,0,78,184.43Zm-5.47,0,1.46,0a68.59,68.59,0,0,1,4.15,14.1S80,200.39,80,201c-0.08,5.11.8,8.75,2.69,14.24l-0.87-.06a69.45,69.45,0,0,1-3.35-15.25A44.51,44.51,0,0,0,74,184.42h0Zm3.38,0a113.71,113.71,0,0,1,3.67,11,4.09,4.09,0,0,1-.66,2.38c-1.22-4.42-2.25-9-4.13-13.35h1.12Zm2.76,0,1.16,0,2.31,6.63-0.9,1C82,189.95,81.33,187.54,80.14,184.49Zm6.75,0,0.85,2-0.91.77a23.19,23.19,0,0,1-1.17-2.74Zm1.72,0L89,185.69l-0.76.58-0.59-1.71Zm-6.63,0h1.19c0.48,1.39,1.76,4.8,1.76,4.8l-0.86.9S82.47,186,82,184.56h0Zm1.85,0h1.06c0.32,0.9,1.31,3.41,1.31,3.41l-0.73.7Zm5.53,0,1,0-0.12.26-0.65.33Zm-34.28,1.47c4.38,2.32,5.59,9.25,6.06,13.06a106.3,106.3,0,0,0,2,12.21l-1-.16s-0.72-3.42-1.21-6.67c-0.41-2.71-.73-5-0.85-6-0.07-.65-0.18-1.4-0.24-1.68a18.5,18.5,0,0,0-1.6-5,11.07,11.07,0,0,0-2.28-3.42,8.46,8.46,0,0,1-1.12-1.29A1,1,0,0,1,55.08,186.09Zm-22.16.36v1.31l-6.73,4.77V191Zm0,2.29v1.51l-6.73,4.45v-1.33Zm0,2.57v1.4l-6.73,4.7V196Zm11.24,1.41h0.59l0,1-0.92-.06,0.28-.92h0Zm-11.24,1.21v1.49l-6.73,4.46v-1.39Zm10.54,0.57,1.42,0,0,1L43,195.47l0.42-1h0Zm-0.82,1.64,2.34,0v1l-2.9,0,0.56-1h0Zm-9.72.21v1.57l-6.73,4.49v-1.58ZM41.44,198l3.42,0,0,0.82-4.08,0Zm-8.53.91v1.53l-6.73,4.32v-1.38Zm7.1,0.73,4.7,0.07-0.12.79-5.36,0,0.78-.83h0Zm-7.1,1.67v1.47l-6.73,4.4v-1.42Zm5.34,0,6.18,0.14,1.3,1.19-9.62.06,2.14-1.39h0Zm-1.87,2.17L47,203.58l0.74,0.69-11.41,0,0-.86h0Zm-3.47.34v1.56l-6.73,4.42v-1.43Zm3.48,1.37,11.78,0.05-0.85.95-10.94,0,0-1h0Zm-3.48,1.18v1.43l-6.73,4.58v-1.64Zm3.18,0.75,10.18,0-1.19.94-7,.16-2-1.14h0Zm-3.18,1.77v1.37l-6.73,4.84v-1.53ZM39.08,209l6,0,0.11,0.81H40Zm1.65,1.66,4.59,0,0.22,1-4.08-.05-0.72-1h0Zm-7.82.73v1.27l-6.73,4.71V216Zm12.72,1,0.05,1-2.74.1-0.77-1,3.46-.06h0Zm0,1.76,0,1-1.91,0-0.43-1,2.36-.07h0Zm-1.7,1.85h1.51l-0.13.8-1.17,0-0.21-.83h0ZM44.37,218H45.1l-0.12.63H44.6Zm14.89,10.59-0.35.45H69.43l0.11-.45H59.26Zm13.56,0-0.19.61h4.75l0.13-.61H72.82Zm7.76,0.12-0.15.58H92.57l-0.2-.58H80.58Zm14.52,0,0.25,0.7h4.08l-0.27-.7H95.1Zm14.09,0H102l0.26,0.78h7.41l-0.5-.79h0Z" transform="translate(-0.3 -0.29)"/></g></g></g></g></g><path id="path163-0-2-5-8-7-5-0-7-4" class="cls-2" d="M48.46,65.14S44.74,59,39.73,51.86c-3.35-4.8-6-10-6.28-14.48-0.29-5.12,2.42-10.25,7.32-10.5s6.88,3.95,7.69,7.4c0.81-3.46,2.8-7.65,7.69-7.4s7.61,5.38,7.32,10.5c-0.25,4.48-2.93,9.68-6.28,14.48-5,7.18-8.73,13.28-8.73,13.28h0Z" transform="translate(-0.3 -0.29)"/><path id="path163-0-2-5-8-7-7-8-0-0-6" class="cls-2" d="M130.92,185.09s-3.72,6.1-8.73,13.28c-3.35,4.8-6,10-6.28,14.48-0.29,5.12,2.42,10.25,7.32,10.5s6.88-3.95,7.69-7.4c0.81,3.46,2.8,7.65,7.69,7.4s7.61-5.38,7.32-10.5c-0.25-4.48-2.93-9.68-6.28-14.48C134.63,191.2,130.92,185.09,130.92,185.09Z" transform="translate(-0.3 -0.29)"/></g></svg>