<svg id="Layer_1" data-name="Layer 1" xmlns="http://www.w3.org/2000/svg" viewBox="0 0 178.78 249.65"><defs><style>.cls-1{fill:#fff;stroke:#000;stroke-width:1px;}.cls-2{fill:#131f67;}.cls-3{fill:#d40000;}.cls-4{fill:#e2cf00;}</style></defs><title>11_S</title><g id="g6392"><rect id="rect7331-9-9" class="cls-1" x="0.5" y="0.5" width="177.79" height="248.65" rx="8.5" ry="8.5"/><path id="path7363-8-9" d="M14.11,40.25C10.68,44.62,7,47.14,6.94,50.55a3.31,3.31,0,0,0,2.74,3.34A2.85,2.85,0,0,0,13,51.14c0-.4.47-0.39,0.47,0.16a10.42,10.42,0,0,1-1.56,4.9h4.5a10.42,10.42,0,0,1-1.56-4.9c0-.54.47-0.55,0.47-0.16a2.85,2.85,0,0,0,3.27,2.75,3.31,3.31,0,0,0,2.74-3.34c-0.06-3.41-3.73-5.93-7.17-10.3h0Z" transform="translate(0.1 0.1)"/><path id="path7367-3-1" d="M164.47,209.2c-3.43-4.37-7.11-6.89-7.17-10.3a3.31,3.31,0,0,1,2.74-3.34,2.85,2.85,0,0,1,3.27,2.75c0,0.4.47,0.39,0.47-.16a10.43,10.43,0,0,0-1.56-4.9h4.5a10.43,10.43,0,0,0-1.56,4.9c0,0.54.47,0.55,0.47,0.16a2.85,2.85,0,0,1,3.27-2.75,3.31,3.31,0,0,1,2.74,3.34c-0.06,3.41-3.73,5.93-7.17,10.3h0Z" transform="translate(0.1 0.1)"/><path id="path35-7-9-2" d="M14,11.43v2.75h2.67s0.06,2.66.09,8.29c0,5.47.13,8.18-.22,9.74-0.94,3.59-6.13,3.61-7.16,1a10.46,10.46,0,0,1-.47-4.18H6.06s0,0.76,0,1.69c0,4,1.35,6,4.48,6.73s7-.46,8.3-3.2c0.8-1.57.7-1.67,0.72-11.14,0-6.32.11-8.95,0.11-8.95h2.46V11.43H14Z" transform="translate(0.1 0.1)"/><path id="path35-7-8-1-4" d="M164.55,238v-2.75h-2.67s-0.06-2.66-.09-8.29c0-5.47-.13-8.18.22-9.74,0.94-3.59,6.13-3.61,7.16-1a10.46,10.46,0,0,1,.47,4.18h2.87s0-.76,0-1.69c0-4-1.35-6-4.48-6.73s-7,.46-8.3,3.2c-0.8,1.57-.7,1.67-0.72,11.14,0,6.32-.11,8.95-0.11,8.95h-2.46V238h8.13Z" transform="translate(0.1 0.1)"/><g id="g3851-4-2-7-4"><path id="path4037-8-0-2" class="cls-2" d="M24,19.46V230H154.6V19.46H24Zm41.49,1.16,59.17,0.22-9.17,14c-12-3.78-31.36-1.33-41.36.58-2.63-4.39-6.44-9.9-8.63-14.82h0Zm-39.77.54h38l8.92,16.2a2.5,2.5,0,0,1-.18,1.91,41.28,41.28,0,0,1-4.3,8.57C66,51.33,65.26,54.53,66,56.68a2.16,2.16,0,0,1,.17,1,5,5,0,0,1-2.25,3.16c-0.83.13-2.57,0.24-3.57,1.23a5.26,5.26,0,0,0-1.45,4.36,11,11,0,0,0,.16,1.33C47.71,72.48,39.58,78,39.85,78.2c-0.11,0-10-4.58-14.15-5.7V21.16Zm101.05,0h26.07V95.59L143,89.12c0.82-.57,1.33-0.91,2.19-1.49,0.15,0,.44-0.05.63-0.09,1.74-.39,3-1.69,2.35-3-0.41-.92.15-0.86,0.66-1.61a2.07,2.07,0,0,0,.09-2.3c-0.18-.35-0.08-0.49.22-1.14a2.28,2.28,0,0,0-.81-3.2,1.07,1.07,0,0,1,.16-0.63,2.19,2.19,0,0,0-1.4-2.81c-0.6-.15-0.8-0.26-0.59-0.79,0.37-.94-0.12-1.3-0.9-1.6-1.31-.52-0.94-0.6.68-1.32,3.31-1.48,4.09-5.9,1.81-9.9-0.29-.51-1.06-1.7-1.59-2.5s-1.21-1.74-1.21-1.74l4.38-6.09a48.94,48.94,0,0,1-4.13-5.6c0.26-1,3.31-4.07,3.7-7.07,0.62-4.7-3-7.71-6.34-7.36-2.35.25-5.24,1.74-5,6.1a10.16,10.16,0,0,0,1.56,4.44c0.67,1.27,1.54,2.6,2.37,3.89l-4.41,6,4.45,5.63-0.16.24a45.25,45.25,0,0,0-2.29,4c-1.64,3.24-2.22,6.8,1.15,9.31a7.92,7.92,0,0,1,1.3.92c0.33,0.33.12,0.58-.41,0.7a10.76,10.76,0,0,0-1.92.38,21.16,21.16,0,0,0-5.74,3.23,16.65,16.65,0,0,0-3,4.6c-0.9,1.91-1.16,2.33-1.16,2.33l-15.49-9.89s-0.39-.31-0.5-0.43a0.6,0.6,0,0,1,0-.87,4.38,4.38,0,0,0,.1-1.87,3.07,3.07,0,0,1,.74-2.49,1.77,1.77,0,0,0,.22-1.49c-0.24-.73-0.27-0.5.2-1A1.37,1.37,0,0,0,115.3,62c0-.32,0-0.88,0-1.94,0-2.11,0-1.93,1.17-2.86A7.27,7.27,0,0,0,118.74,55c0.34-.74,0-1.31-0.83-2.79-0.38-.68-1-1.6-1.25-2.11A17.84,17.84,0,0,1,115,46.77a3.71,3.71,0,0,1,0-3.34c0.64-1.14.82-1.83,0.8-4.13,0-2.13-.18-1.93.37-2.65C120.29,31.28,126.75,21.16,126.75,21.16Zm16.58,8h0.26a5.52,5.52,0,0,1,3.74,1.61c1.61,1.61,1.5,3.92,1,6.34a8.33,8.33,0,0,1-.92,2.14,5.28,5.28,0,0,0-.5.84A15.05,15.05,0,0,1,146,41.5c-0.47.71-1,1.71-1,1.71a25.65,25.65,0,0,0,2.1,3.05c1,1.5,1.67,2.81,1.75,2.73a5.46,5.46,0,0,1-.61,1.11,47.42,47.42,0,0,0-3.1,4.61,2,2,0,0,0-.22.22,5.5,5.5,0,0,0,1,1.39c3.54,4.85,4,8.94,1.38,11.34a4.92,4.92,0,0,1-4,1.42,5.16,5.16,0,0,1-4.65-5.64,7.07,7.07,0,0,1,.91-3.6,21.61,21.61,0,0,1,1.86-3.43A15.56,15.56,0,0,0,142.42,55a50.58,50.58,0,0,0-3.57-4.65,4.74,4.74,0,0,1-.67-1.17l4-5.86A14.14,14.14,0,0,0,140.9,41c-1.59-2.36-2.61-4.87-2.6-6.28C138.33,31.22,140.63,29.15,143.33,29.15Zm9.87,83.72c-2.34,1.24-4.62,5.49-.17,2.53l0.11,2.44c-2.32,3.28-6.85.88-5.69-2.52-3.13.4-3.62-2.76-3.46-4.27-4.11-.89-2.69-5.24-2.69-5.24-2.38-2-2.79-4.06-.87-6.25-1.95-1.21-2.5-2-4.63-2.86,1.64,14.56,9.51,22.12,17.8,28.86-0.22,0-.24,4.69-0.76,3.82-11.83-8.82-19.44-18.91-20.75-35.23-0.1.26-5.61-4.26-6.52-4-1.91,26.42,19.17,43.79,27.94,47.22a30.28,30.28,0,0,1,0,3.69c-13.29-5.78-28.06-22.76-30.91-43l-7.84,12.12-2.94-1.25L124.48,89l-8.57-5.36-14,22.07s-0.37,1.84.64,1.81c19.59,2.09,48.73,25.58,39,63.81-0.85-.33-2.19-1-2.26-1,1.53-3.29,5.8-24.64-7-41.87-5.89-7.9-15-16.3-29.67-18.78,1.21,2.49.68,8.15,0.68,8.15l3.41,0.69A10.31,10.31,0,0,1,104.1,115c-0.64-2.05.3-3.27,2.58-2a1.39,1.39,0,0,0,2-.17c1.83-1.36,3.93,0,3.44,2.3-0.07.33,0,.54,0.89,0.62a8,8,0,0,1,5.25,2.7c0.63,0.81.77,0.69,1.33,0.2,1.38-1.19,3.66.46,3.25,2.31-0.23,1.06-.1,1.31.38,1.51,2.69,1.13,3.35,1.84,4.19,4.19,0.31,0.86.56,1.14,0.72,1.1s0.55-.18.94-0.33c2-.76,3.18,1.66,1.76,3.57-0.29.39-.08,0.76,0.44,1a6.79,6.79,0,0,1,3,5.36c0.08,0.87.17,0.87,1,.83,2.22-.09,3.28,2.9,1.47,4-0.63.38-.51,0.88,0,1.46a5.36,5.36,0,0,1,1.49,4.39c-0.15,2.33,0,2.28.74,2.57,2.16,0.82,1.76,4.27-.36,4.26,1.53,3.55-.48,7.88-0.42,8,4.07,2.29.4,4.72-.79,4.29,0,0-.6,1.59.08,2.42-3.57,4.72-8.25,5.5-13.43,7.84l-0.16-16.61c2.15,1.73,4.29,3.35,6.42,5,0,0,.54-0.16,0-0.62-0.95-.88-3.34-2.42-4-3a89,89,0,0,1-7.66-7.33,0.62,0.62,0,0,0-1-.29,37.07,37.07,0,0,0,1.92,3.49c1.77,2.44,3.48,5.16,3.3,7.85a10.21,10.21,0,0,1-.94,3.81c-0.25,1-1.9-.18-1.48-1,0.73-2.38,1.34-4.33-1.28-8.16a54,54,0,0,1-2.93-5.25l-1.06.26,0,21.66c-0.89,0-3.14.62-2.68,0.63,7-1.4,9.17,8.62,2.39,8.95-1.29,0-2.62,2.26-2.75,3.46,0.06,2.91.49,6-1.65,8.78a27.94,27.94,0,0,0-1.34,2.82c-2.61,4.6-3.77,7.24-3.5,8.43,0.07,0.31.13,0.71,0.13,0.71A95.14,95.14,0,0,1,83,213.68a100.52,100.52,0,0,1,4.91-12.39c1.56-3.07,2.36-5.17,1.92-5.81-6.63.33-5.36-9.37,1-9,0,0,1.59-5.59,3.37-8.11,1.69-.94,5.08.34,7-0.92,4.48-1.37,7.42,3.92,7.42,3.92l1.21-5-39.63-.19s-3.86,1.6-5.94.74a19.06,19.06,0,0,1-3.23-2s15.29-24.45,17.51-28a1.19,1.19,0,0,0-.4-0.9c-0.08-.8-18.14,28.26-18.14,28.26-10.2-6.52-23-14.76-34.37-22l0-10.88c8.25-5.19,7.5-7.31-.13-1.65-0.11.09-.16-4.09-0.16-4.09,5.82-5.19,1-3.56-.17-1.77,0-1.29-.27-3,0.56-3.82,2.54-2.34,5.54-.19,5.69,3.27,3.32,0.65,2.91,3.56,3.76,4.73,3.38,1.91,1.6,4.8,2.44,5.78,3.56,2.24,1.08,5.85.32,5.76,0.45,0.3,4.88,3.26,5.26,3.15-0.38-15.53-15.93-28.06-18-29.57l0.36-3.35s21.41,13.67,21.23,35.6l6.83,4C52.92,137,42.71,121.7,25.5,112l-0.22-4.17c14.45,6.71,27.86,20.3,31,42.57l8-12.39,2.82,1.36L54.22,160l8,5.27c6.22-8.18,11.41-18.2,14.58-23-0.08-.44-0.26-1.06-0.26-1.06C46,136.17,28.74,107.57,37,77.67l2.13,0.93c-6.38,22.14,4,54,37.3,60.52-0.07-2.35-.48-8.14-0.48-8.14s-4.37-1.31-3.73-.79c1.07,0.91,3.48,4.85,2.46,6.25a5.24,5.24,0,0,1-3.29-1.29c-0.5-.37-0.52-0.29-1.09.31-1.57,1.68-3.86.72-3.88-1.59,0-1,0-1.18-1.43-1.19-2.1,0-3-.37-4.29-2.05-0.89-1.19-.81-1.2-1.86-0.84a2.15,2.15,0,0,1-3-2.7c0.31-.77,0-1-0.93-1.17-1.78-.29-3.79-2.52-4.16-4.34-0.08-.37-0.26-0.47-1.31-0.43-2.06.07-3.2-1.17-2.39-2.92,0.44-.94.56-1.32-0.26-2a5.92,5.92,0,0,1-2-2.28,9.12,9.12,0,0,1-.65-2.84c-0.08-.56-0.27-0.65-1-0.74-2.13-.28-3-2.45-1.4-3.86,0.48-.43.48-0.42-0.25-1.35-1.39-1.8-1.91-4.15-1.31-5.71a0.77,0.77,0,0,0-.49-1.06c-1.94-.48-2-2.63-0.12-3.84,0.54-.35.57-0.58,0.16-1.29-0.71-1.24-.68-4.48,0-6,0.45-1,.44-1-0.25-1.47a2.26,2.26,0,0,1,.69-4c0.85-.21.9-0.32,0.67-1.34-0.41-1.83-.48-2.3.61-3,3-1.93,10.59-5.61,10.59-5.61l2.52-1.2S54.76,86,54.6,87.85c-0.1.78,0.61,1.25,1.42,2.07,1.69,1.66,2.62,3.67,4.88,5.06,0,0,1.41-.78,2.28-1.34l0.09-21.87a0.77,0.77,0,0,1,.88-0.62c0.48-.09,1.69-0.23,2.09-0.34,1-.28,1.12-0.68-0.15-0.55-0.38,0-1,.2-1.61.33-4,1.19-6.94-5-3.9-8.13A9.51,9.51,0,0,1,64.32,61,5.45,5.45,0,0,0,66,59a2.87,2.87,0,0,0,.49-2.66c-0.7-2,0-5.19,2.07-8.62a31.47,31.47,0,0,0,5-10.7c8.07-1,14.92-3,22.22-2.53,0.29,2.46-8,17-6.25,17.82,6.5,1.55,4.28,9.25-.66,9-0.74,0-.81.06-1.28,1.7-0.9,2.39-1.48,4.21-2.44,6.43,0,0.57-3.23.42-5.93,0.4-1.16.89-6.14,3.31-8.86-2.88l-0.1,5.29s37.22-.59,43.84.24c0.14-1.66,3.68,1.28,3.68,1.28L99.62,102.24l0.85,0.83c2.62-3.17,18.43-28.62,18.43-28.62l34.2,22c-0.28,3.28,0,10.62,0,10.62-9.39,5-6.52,7.51-.06,1.48Zm-56.67-78a135.21,135.21,0,0,1,14.55.86c4.25,0.68,4,.56,4,3.64,0,2.19,0,2.14-.58,3.19-1,1.94-.86,3.84.78,6.51a31.19,31.19,0,0,1,2.76,4.88c0,0.57-.1,1.27-1.48,2.23-1.63,1.14-1.94,1.93-1.92,3.08,0,0.93-.16,1.24-0.72,1.23a9.44,9.44,0,0,0-1.87.77,4.5,4.5,0,0,1-2.89.69c-0.7,0-1-.27-1.23-0.19a3,3,0,0,0-.71,1.8c0,0.13.24,0.05,0.65-.09,2.31-.79,5.76-0.44,5.85-0.09,0.47,0.42.47,1.07-.24,1.75a2.47,2.47,0,0,0-.47,2.19c0.26,1.51.07,2.1-.71,2.62-2.35,1.59-5.5,1.79-10.52.82-5.29-1-8.92-3-11.93-6.64-1.35-1.61-1.68-2.18-1-2.29a10.6,10.6,0,0,0,2.57-.66c3.72-1.6,3.66-8.4-1.36-9.11C88,52,94.31,42.39,96.53,34.87Zm4.78,4.68c-1.8,1-2.74,2.23-2.74,2.9,0,0.27.06,0.22,0.92-.34,2.49-1.64,9.07-4,11.41-2.64,1.69,1,2.35.68,1.37-.68C110,35.6,103.77,38.22,101.31,39.56Zm6.43,1.07a4.29,4.29,0,0,0-.82.09c-1.73.39-3.64,1.81-5.22,3.07A12.37,12.37,0,0,0,99.64,46c-0.39.73,0.47,1.53,1.64,0.89a1.55,1.55,0,0,1,1.4-.2,13.94,13.94,0,0,0,5.91.94c0.25,0.06.23,0.12,0.14,0.35a8.51,8.51,0,0,1-2.34,2.15c-0.64.47-1.19,0.86-1.24,0.93-0.2.31,0.65,0.34,1.59-.19a13.78,13.78,0,0,0,3.78-3.74,1.47,1.47,0,0,0,.25-0.37c0.09-.31-0.47-0.18-0.76-0.26a0.77,0.77,0,0,1-.14-0.51,5.85,5.85,0,0,1,.14-1.59,2.46,2.46,0,0,1,.86-1.13c1.39-1.45,1.29-2.1-.59-1a2,2,0,0,1-.87.33c-2.77.09-4.37,0-6.68,1.92-1,.83-1.64.91-0.73,0,1.39-1.13,3.14-2.73,5.07-3.15,1.17-.29,2.27.6,2.79,0.37,0-.64-1-1.1-2.12-1.09h0Zm-0.4,4a2.79,2.79,0,0,1,.6,1.65c0,0.42-.76.25-0.86,0l-0.4-1.2C106.5,44.73,107,44.5,107.33,44.63Zm-1.41.24a4.54,4.54,0,0,1,.61,1.65c-0.12.43-2.85-.15-3.19-0.63a3.53,3.53,0,0,1,2.58-1h0Zm4.78,7.75A1,1,0,0,0,110,53a2.58,2.58,0,0,0,.64,4.08c0.72,0.34,1.81.09,3.41-.4a7.62,7.62,0,0,1,1.46-.34,0.87,0.87,0,0,0,.53-1.41c-0.51-.51-1.71-0.44-3,0.56a2.67,2.67,0,0,1-1.65.74c-1.3,0-1.92-1.35-.6-2.74,0.44-.47.28-0.8-0.06-0.82h0Zm-9.08,9.19c1.53,1.23,4.43.59,6.38-.7,1.74-1.15,2.47-1.49,3.86-1.25,1.71,0.29,1.65-.38.91-1.22s-2.92-.66-4.66.49c-3.86,2.55-5.25,3-6.37,1.6s0.23-3.38,1.64-2.35c1.16,0.79,1.14.2,0.66-.35-2.8-2.35-4.81,1.86-2.43,3.78h0ZM88.07,63a20.89,20.89,0,0,0,6.61,6l0,0.46-9,0A62.36,62.36,0,0,0,88.07,63ZM57.45,69.44c-0.19,3.71.48,5.89,2.65,8.48,2.31,2.76,2.14,7.06.65,9.71-0.66,1.18-2-.27-1.37-1,0.9-1.13,1-3.88.53-5.6-1-2.84-3.12-4.24-4-7.24a18,18,0,0,1-.2-3.59Zm2.83,0.31a1.36,1.36,0,0,1,.78.46c1.28,1.11,1.06,4.27-.4,6.3-0.45.62-.82,0.44-1.25-0.13-0.58-.57-0.38-0.63.11-1.63a6.84,6.84,0,0,0,.57-3.6C60,70.23,60,69.79,60.28,69.75Zm83,1.08c1.13,0,2.54.22,2.67,0.63a1,1,0,0,1-.78,1.16c-1.65.7-3.84-.28-3.29-1.47A2.06,2.06,0,0,1,143.25,70.83Zm-2.86.27a1.74,1.74,0,0,1,.78.16c0.54,0.28-.31,2.18,2.39,2.14,0.64,0.09,1.12-.05,1,0.24s-1.29,1.1-2.54,1.28c-3.75.55-3.59,0.37-3.42,3a9.5,9.5,0,0,1-.24,3.36c-0.41,1.82-.57,3.57-0.29,3a14.51,14.51,0,0,0,1.3-4.6c0-2,.72-2.45,1-1,0.13,1-.31,1.53.35,2.54a1.17,1.17,0,0,1,.29,1.42,1.29,1.29,0,0,0,.2,1.39c0.27,0.39.54,0.48,0.31,1a1.69,1.69,0,0,0,1.41,2.4c0.52,0,.66.27,0.51,0.47a2.3,2.3,0,0,1-1.28.6L130.26,81s0.88-1.77,1.15-2.25c1.71-3.75,3.07-5.46,8.08-7.42A2.41,2.41,0,0,1,140.39,71.1Zm6.34,2.46a1,1,0,0,1,.85.51c0.73,0.94.09,2.11-1.71,3.12-1.54.87-2,1-2.32-.39a1.84,1.84,0,0,0-.42-0.67c-0.36-.33-0.28-0.6.18-0.84a13.24,13.24,0,0,0,1.46-.76A4.78,4.78,0,0,1,146.73,73.57Zm-5.08,2.73a2,2,0,0,1,1.05.28,0.86,0.86,0,0,1,0,1.4c-1,.39-2.47-0.13-2.34-1A1.17,1.17,0,0,1,141.65,76.29Zm6.14,1a0.89,0.89,0,0,1,.81.48c0.56,0.87-.1,1.73-2,2.66-1.24.61-2.84,0.87-2.73,0.51a4.74,4.74,0,0,0-.56-1.94c-0.08-.24,0,0,1.59-0.52a8.31,8.31,0,0,0,1.57-.67A2.82,2.82,0,0,1,147.79,77.25ZM58.3,79.5a7.38,7.38,0,0,0-.6,5.23c0.35,1.84.75,2.76,2.64,5.47,1.44,2.07,1.9,2.87,1.55,3.52a0.81,0.81,0,0,1-1.13.34c-0.7-.92-1.12-2-1.81-3.05-2.64-3.86-2.82-4.85-3.16-7.9-0.15-1.39.65-4.36,1.34-4.81A1,1,0,0,1,58.3,79.5Zm61-1a6.52,6.52,0,0,0-1.54,2.39c0.08,0.55.53,0.19,1.72-1.55C119.78,78.95,119.58,78.5,119.31,78.53ZM142,79.48c1.06,0,1.43,1,1,1.47a1.14,1.14,0,0,1-1.93-.83C141.06,79.69,141.26,79.47,142,79.48Zm5.86,1.35c0.61,0,.69.63,0.36,1.5s-0.89.95-2.34,1.4c-1.74.54-2,.46-2.28-1.13-0.1-.61-0.05-0.48,1.55-0.9a16.67,16.67,0,0,0,1.92-.69A2,2,0,0,1,147.9,80.82Zm-102.73.72,0.43,3.22,0.69-2.41Zm97.07,1.08c0.86,0,1.31.77,0.88,1.23A1.18,1.18,0,0,1,142,84C141.29,83.47,141.41,82.62,142.25,82.62ZM116.1,84.31l1.67,1-13.55,21.35-1.63,0-0.16-.34Zm30.74,0.21c1,0,1.09.93-.12,1.79a3,3,0,0,1-1.49.41c-0.6,0-1-.13-1.06-0.55-0.26-1-.41-1.27.52-1.21a2.81,2.81,0,0,0,1.1-.19A2.86,2.86,0,0,1,146.85,84.51Zm-4.14.93c0.69,0,1.13.75,0.67,1.12a0.74,0.74,0,0,1-1.28-.51A0.5,0.5,0,0,1,142.7,85.45ZM45.21,87l-3.69,3.26c1.35,1.6,2.48,3.19,3.65,4.86Zm74.54,0.21c1.6-.06,2.12.71,1.37,1.23a4,4,0,0,1-3.08.5c-1.55-.29-0.32-1.52,1.38-1.7Zm-1.7,2.32a4.43,4.43,0,0,1,1.42.29c1,0.35,2.35,1.45,2.29,2.06-0.1,1-2,.48-3.44-0.93C117.38,90,117.34,89.51,118.05,89.49Zm-1.42,0c0.91,0.09,1.81,3.15,1.11,4.09s-1.9-1.06-1.68-2.62a2.31,2.31,0,0,1,.48-1.46h0.09Zm-59.25.67a1.4,1.4,0,0,1,1,1.36c-0.1.22-.32,0.15-0.55,0.1a1.24,1.24,0,0,1-.66-1.25A0.24,0.24,0,0,1,57.39,90.18Zm68.75,0.53,2.66,1.8-2.66.1V90.7Zm-11,3.65c2,0,2.48.67,1,1.47a4.91,4.91,0,0,1-3,.12C111.8,95.51,113.32,94.34,115.09,94.35Zm16.54,1.37,0.14,1.85-5.13.45-0.26-1.93Zm-17.74.92a3.66,3.66,0,0,1,1.66.52c1.4,0.72,2.19,1.92,1.47,2.3s-1.82-.06-2.64-0.93C113.3,97.41,113.21,96.69,113.89,96.65Zm-1.75,0c0.93,0.06,1.74,2.61,1.12,3.87-0.34.69-.76,0.54-1.37-0.6s-0.62-3,.06-3.25A0.54,0.54,0,0,1,112.15,96.65Zm-66.75.72-2.24,4.5,4.06,3.54Zm86.87,3.47,0.36,1.78-4.93,1.21-0.48-1.94Zm-21.51.35a2.4,2.4,0,0,1,1.49.44c0.45,0.39.35,0.57-.71,1-1.89.77-4.22,0.3-2.87-.84A3.33,3.33,0,0,1,110.75,101.19Zm32-.1c-1.88,1.26-.07,2,1.28,1A2.1,2.1,0,0,0,142.76,101.08Zm-33.38,2.52c1.35,0,4,1.89,3.42,2.77-0.31.48-2.07,0.07-2.77-.6-0.92-.88-1.41-2.06-0.9-2.15Zm-1.7.09c0.69-.13,1.8,3.1,1,3.93-0.31.31-.4,0.29-0.93-0.17a2.9,2.9,0,0,1-.24-3.6A0.32,0.32,0,0,1,107.67,103.69ZM149,105.4a2,2,0,0,0-.66-0.69C141.82,107.21,143.5,109.6,149,105.4Zm-15.5.22,0.65,1.8-5,2-0.73-2ZM48.67,109L47,113.44a12.77,12.77,0,0,1,5.14,1.64Zm86.51,1.3,1.05,1.77-4.67,2.52-0.93-1.87ZM26.77,113.78l1.91,1.35-2.81,3.48-0.26-.49,0-2.89Zm111,1.1,1.13,1.63-4.49,3.12-1.1-1.77ZM31.59,117l2.06,1.59-3.26,3.93-2-1.51Zm22.71,1-0.1,4.73,4.86,0.19Zm56.13,2.13,5.52,3.17-0.83-4.84A46.81,46.81,0,0,0,110.42,120.07Zm30.32-1,1.29,1.6-4.15,3.48-1.33-1.66ZM35.8,120.48l1.92,1.78-3.39,3.65-1.78-1.68Zm108.49,2.59,1.49,1.51L142,128.51,140.51,127ZM40.17,125l1.49,1.73-3.87,3.07-1.44-1.74Zm22.31,0.41L63.56,130c-0.08-.34,4.82-1.38,5.46-1Zm57,0.39,4.62,4.87,0.52-4.69Zm28.59,0.77,1.67,1.3-3.1,4.41-1.89-1.48ZM43.5,129.5l1.38,2-4.06,2.41-1.15-1.75Zm109,0.47,0.26,0.26v3.15l-1.29,1.89-1.76-1Zm-26.15,3.54,4.09,7.42,1.15-5.53a11.89,11.89,0,0,1-5.24-1.89h0Zm-79.58,1,1,2.14-4.29,2-1-2.13Zm2.32,5.11,0.78,2.15-4.56,1.51-0.72-2.07ZM28.68,143.5l1.42,1C37.49,140.61,35.19,139.47,28.68,143.5ZM70.47,141c0.28,0,.6.36,0.86,1.21,0.39,1.29.18,2.88-.69,2.86-0.59-.07-0.81-1.58-0.81-2,0-1.29.28-2,.64-2.05h0Zm4.05,0.77L76.28,142v0.5l-14,22.22-1.7-1.08Zm-7.55.51a3.3,3.3,0,0,1,2.1,1.16,3.74,3.74,0,0,1,1,1.78c0,0.22-.39.14-0.75,0.09a4.2,4.2,0,0,1-2.74-1.57c-0.54-1-.23-1.46.4-1.45h0Zm64.48,0.79,1.87,9.1c0.58-2.28,1.8-3.59,2.71-5.38A12.73,12.73,0,0,1,131.45,143.11Zm-80.59,1.84,0.44,2.35-4.72,1.09-0.49-2.28Zm17.62,0.82h0.2c1.73,0.19,2,.58.81,1.35-0.7.47-2.61,0.54-2.92,0s0.91-1.39,1.92-1.4h0ZM34.2,147.15L35.67,148C38.18,146.19,35.44,145.83,34.2,147.15ZM66,147.94c0.53,0,.85.95,1,1.81a2.65,2.65,0,0,1-.08,2c-0.4.51-.78,0.61-1.1,0.1C64.93,150.37,65,147.93,66,147.94Zm-3.89,1.37a2.47,2.47,0,0,1,.92.19c1.23,0.46,2.85,2.33,2.16,2.59-1,.38-3.23-0.73-3.65-1.85a0.6,0.6,0,0,1,.56-0.93h0ZM52,150.82l0.11,2.33-5,.2L47,151Zm12.17,2a3.31,3.31,0,0,1,1.37.22c0.71,0.31.19,0.86-1,1.29a3.19,3.19,0,0,1-2.36,0C61.21,153.57,62.7,152.82,64.17,152.77ZM25.7,153c3.4,2.06,10.46,6.66,10.46,6.66a2.77,2.77,0,0,0-1,.58,3.3,3.3,0,0,1-.77.5,5.48,5.48,0,0,1-1,.24c-2.19.48-3.27,1.71-2.58,3.26,0.27,0.61.34,0.51-.13,1-1.31,1.25-1.15,1.62-.68,3.21,0,0.23-1.56,2.14-.17,3.58,0.76,0.67.8,0.25,0.52,1.76a1.56,1.56,0,0,0,1.48,1.92c0.74,0.34.73,0.22,0.47,0.84a1.22,1.22,0,0,0,.71,1.59c0.57,0.36.8,0.45,0.4,0.77-4.42,2.26-5.78,6.18-1.61,12,0.49,0.68,1.73,2.61,1.73,2.61-1.4,2.08-2.74,3.79-4.18,5.65L33.45,205a42.55,42.55,0,0,0-3.22,5.32c-1.46,3.18-.5,7.64,3.7,9a5.46,5.46,0,0,0,5.67-1.63,7.27,7.27,0,0,0,.77-7.11,28.31,28.31,0,0,0-3.62-5.79l4.46-5.59s-3.08-4.41-4.3-6c8.37-10.22,1.53-13.08.22-14a1.25,1.25,0,0,1-.16-0.79c7.52-.86,10.08-5,12.3-10.2,4.48,2.88,10.9,6.76,15.4,9.79a1.29,1.29,0,0,1,.65.87,8.44,8.44,0,0,0-.24,1.86c0.21,1.36.11,2-.44,2.49a1,1,0,0,0-.33,1.24c0.14,0.92.28,1-.13,1.47s-0.68.84-.58,2.22a4.37,4.37,0,0,1-.05,1.92c-0.28.63-1,.95-2.05,1.74-1.76,1.38-1.52,1.8.91,6.81,2.07,4.27,2.31,5.24,1.51,6.76a6.94,6.94,0,0,0-.83,4.06c0,0.46.06,1,.06,1.21a0.84,0.84,0,0,1-.34.89,12.44,12.44,0,0,0-1,1.26c-2.89,4.33-10.49,15.44-10.49,15.44H25.7V153Zm35.9,2c0.3,0,.66.51,1.07,1.59a2.5,2.5,0,0,1-.17,2.13c-0.76.83-1.81-1.11-1.48-2.66A1.18,1.18,0,0,1,61.6,155.06Zm71.9-1.17c0,3.94-.08,9.06-1.44,12.83l1.54,0.7c-0.5-3.87.12-7.05,3.68-8.73a12.48,12.48,0,0,1-3.78-4.8h0Zm-75.73,2.49a1.33,1.33,0,0,1,.42.08,4.06,4.06,0,0,1,1.71.93c0.73,0.74,1.49,1.64,1.3,1.72-1.21.53-4.28-1.09-3.88-2.35A0.46,0.46,0,0,1,57.76,156.37Zm-5.38.17,0,1.93-3-1.9Zm67.85,0.93a1.3,1.3,0,0,1,1.11,1.11c-0.21.47-.46,0.43-0.79-0.07S120,157.5,120.24,157.47ZM60,159.86c0.72,0,1.34.14,1.41,0.51a1.61,1.61,0,0,1-1.23,1c-1.69.52-3,.18-2.49-0.64A2.94,2.94,0,0,1,60,159.86ZM118.87,162c-0.71,1.28-.8,5.36.46,7,2,2.16,3.77,5,3.56,8.71l-1.88.84c0.1-3.07,0-5.07-2.42-7.73-2.86-3.11-2.19-8.49-1.2-10.07S119.45,161.48,118.87,162Zm-82.42-1.7c0.6,0,1.34.32,2.67,1.2,3.4,2.41,5.25,3.33,8.63,5.71,0.49,0.46.47,0.4,0.38,0.76a12.46,12.46,0,0,1-10.59,9.56c-0.64.08-.31-0.32-0.7-1.09a2.08,2.08,0,0,0-2-1.15c-2.29,0-.33-1.31,2.47-1.67a5.17,5.17,0,0,0,2.63-.82c0.13,0.06-.49-3.86.14-5.23,0.32-1.24,0-1.84-.33-1.08a13.37,13.37,0,0,0-.69,3c-0.14,1.09-.37,1.24-0.62.71a1.86,1.86,0,0,1,.07-1.26c0.21-1-1.09-1.8-.83-2.74a1.65,1.65,0,0,0-.45-1.94,2.13,2.13,0,0,1-.18-1.23,2,2,0,0,0-1.36-2c-0.39-.2-0.27-0.41.13-0.61a1.45,1.45,0,0,1,.57-0.16h0Zm-2.79,1.41a2.45,2.45,0,0,1,.65.07c0.45,0.27.81,1.83,0.31,1.89a8.32,8.32,0,0,0-1.21.22c-1.52.45-2.24,0.39-2.21-.49S32.48,161.78,33.67,161.75Zm2,0.16c0.6,0,1.08.7,0.71,1.08a0.68,0.68,0,0,1-1.14-.45,0.54,0.54,0,0,1,.43-0.62h0Zm0.41,2.43a1.24,1.24,0,0,1,.57.12,1.18,1.18,0,0,1,.52,1.56,1.3,1.3,0,0,1-1.45-.18A0.8,0.8,0,0,1,36.1,164.34Zm-1.89.14a0.61,0.61,0,0,1,.66.36,5.4,5.4,0,0,0,.05.69c0.15,0.46.44,0.81,0.18,1-1.17-.07-3.59,1.39-4.29,1.32s-0.65-.62-0.14-1.49a5,5,0,0,1,3.54-1.87h0Zm0.71,2.83c0.25,0,.3.12,0.19,0.5a2.47,2.47,0,0,0,.17,1.3c0.19,0.43.54,0.69,0.36,0.86a21.73,21.73,0,0,0-2.15.6c-1.09.6-4.14,2.41-3.37-.48,0.25-1,1.37-1.64,3.33-2.32A8.17,8.17,0,0,1,34.92,167.31Zm1.6,0a1.24,1.24,0,0,1,1.25.78c0.71,1.41-1.32,1.61-2,.44a0.78,0.78,0,0,1,.72-1.22h0Zm0.39,3.28c1.06,0,1.88,1.31,1.11,1.81a2.54,2.54,0,0,1-1.92.12c-1-.43-0.53-1.93.81-1.92h0Zm101.15,0a77.67,77.67,0,0,0,14.77,5.47v52.14H116.6L106.68,211s-0.33-.56-0.43-0.81a1.83,1.83,0,0,1,0-1.34,29,29,0,0,1,2.24-5.1c2.4-4.39,5.8-9.21,4-13.42-0.21-.48,1.9-3.1,1.9-3.1,3.26,0.27,6-1.85,5-6.86,6.8-2.77,12.4-5,18.71-9.72h0Zm-103,.26a3.32,3.32,0,0,0,.39,1.84c0.36,0.55.3,0.53-.92,1a6.77,6.77,0,0,0-1.17.85c-1.75,1.56-3.48-.48-1.79-2.11A6.29,6.29,0,0,1,35,170.92ZM118.12,172c0.59,0.1,1.35.88,1.1,1.31a6.22,6.22,0,0,0-.94,3.56c-0.08,1.6.19,1.83-.42,1.56a2.76,2.76,0,0,1-1.31-.91C116.18,176.55,117.16,171.81,118.12,172Zm-83.66,4a2.12,2.12,0,0,1,1.71.69c0.32,0.41.35,0.76,0,.93-0.76.4-3.26,0.19-3.39-.32C32.63,176.5,33.51,176,34.46,176Zm37.93,1a25.14,25.14,0,0,1,9.39,1.87,17.76,17.76,0,0,1,8.16,6.85c0.24,0.49-.25.49-0.67,0.53A5.08,5.08,0,0,0,87,195.5a4,4,0,0,0,2.23.69c1-.09-4.44,10.34-6.61,16.83-6.7-.27-11.77.76-18.32-1.49-0.7-1.17-.54-3.75,0-5.08s1.09-2.14.79-3.53c-0.52-2.42-2.73-5.58-3.48-7.58-0.65-1.53-.61-2.1.52-3a8.81,8.81,0,0,0,2-1.77c0.34-.49.2-0.6,0.2-1.69,0-1.33,0-1.12,1.07-1.32a8.44,8.44,0,0,0,2-.72,3.23,3.23,0,0,1,3.27-.26c0.37,0.1.33-.28,0.48-0.78a3.84,3.84,0,0,0,.21-0.69c0-.22-0.51-0.16-1-0.09a11.66,11.66,0,0,1-4.69,0c-0.75-.28-0.75-0.78-0.31-1.62a2.6,2.6,0,0,0,.51-2.29c-0.2-2,.07-2.37,1-3,1.14-.8,3.21-1.17,5.59-1.17h0Zm11.05,1.72h9.94A25.32,25.32,0,0,0,90.71,185c-0.09.18-.2,0.35-0.43,0.12A20.35,20.35,0,0,0,83.45,178.72Zm-8.24,7a10.5,10.5,0,0,0-4.54,1.67,5.09,5.09,0,0,1-3.65.93c-0.77-.14-0.87,0-1,0.22-0.45,1.12,1.23,2.33,2.93,1.54,0.49-.21,4.28-2.17,4.49-2.33a7.64,7.64,0,0,1,2.21-.64,1.83,1.83,0,0,1,1.87,2.13c-0.2,1.52-2.36,1.59-2.5.24-0.11-1-.54-0.58-0.58-0.07a2.65,2.65,0,0,0,.69,1.65c1.82,1.13,4.22-1.07,3.07-3.34A3.11,3.11,0,0,0,75.2,185.71ZM67,191a27.93,27.93,0,0,1-3.37.82c-1.1.24-1,1.11-.33,1.57,0.53,0.35,1.19.14,3.11-1.08a1.63,1.63,0,0,1,2,2.57c-0.95.8-.3,1,0.35,0.53,1.67-1.24.71-4.88-1.76-4.41h0Zm5.84,6.41a1.55,1.55,0,0,0-.68.18A8,8,0,0,0,69,199.82a3.12,3.12,0,0,0-.11.79,2.56,2.56,0,0,0-.18.6,4.49,4.49,0,0,0,.48.36,5.43,5.43,0,0,1-.05,2.49,2.08,2.08,0,0,1-.92.78c-0.8.81-.6,1.05,0.25,0.74,0.59-.22.34-0.63,1.81-0.34a6.87,6.87,0,0,0,4.9-1,15.59,15.59,0,0,1,2.33-1.32c0.11,0.18,0,.28-1.16,1.26-3,2.46-5.17,3-6.83,2.11-0.5-.34-0.9-0.48-0.52.25a2.74,2.74,0,0,0,.73.52c1.71,0.77,3.85.12,6.58-2,0.6-.47,1.13-1,1.82-1.58,2.26-1.89,1.67-2.75-.89-1.83-0.81.29-1,0-2.12-.45a8.07,8.07,0,0,0-3.63-.65c-1.47,0-1.68.11-1.68-.14a4.18,4.18,0,0,1,2.09-1.9C73,198,73.32,197.44,72.88,197.41Zm2.7,4.66c0.27,0.28-.12.45-1.18,1a8.59,8.59,0,0,1-1.23.51c-0.09.17-1.09-2.07-.82-2.18A7.62,7.62,0,0,1,75.58,202.07Zm-3.84-.24a6.48,6.48,0,0,1,.53,1.53c0,0.15.13,0.37-.11,0.37a0.65,0.65,0,0,1-.61-0.13,4.31,4.31,0,0,1-.42-1.9A0.36,0.36,0,0,1,71.74,201.83Zm8.7,4a1.34,1.34,0,0,0-.52.22c-4.21,2.48-9.25,3.77-12.49,2.55-1.09-.41-1.29-0.27-0.9.48a2.74,2.74,0,0,0,1.66,1.35c2.65,0.73,6.92-.33,10.2-2.48,1.34-.87,2.43-2.12,2-2.12h0Zm24.76,6.64s8.16,15.29,8.88,16l-60.48-.26,10.19-14.39c0.09,0.81,24.58,4.16,41.41-1.37h0Z" transform="translate(0.1 0.1)"/><path id="path4035-6-4-6" class="cls-3" d="M54,228.26l9.77-14.39c14.45,2.74,27.44,1.29,41.68-1.24l9.48,16Zm76.59-53.64-0.06-8.55,3,1.11c-1-4,1.58-8.13,4-8.29-7.61-5.73-1.29-11.85-1.42-12-8.32-4.29-4.15-10.86-4.72-11.45-10.14-2.62-6.18-10.65-6.95-9.82-5.9,1.77-9.15-3.16-9.25-7.18-5.11,2.89-13-1.2-10.52-5.8,0,0,2.71,1.28,3.18,1,4.17-3,3.84,1.32,4.71,2.26,3.11-.45,4.95,1.93,5.72,3.08,4.59,0,4.4-1.09,4.44,3.35,3.46,0.88,3.32,2.74,5.32,5.29,4.36,0,3.62,1.46,2.64,3.87,3.14,2.49,3.39,4.45,3.91,6.72,3.43,1.24,4,1.74,1.8,4.63,3,4.52,1.57,7.14,2,7.39,3.77,2.71,1.89,3.7.24,4.74,0.57,3.61,1,4.14-.3,7.81,4.33,3.07-.69,4.45-0.94,4.39v3ZM25.64,152.33l-0.09-10.59,36.74,23.69-4.64,7.27Zm48.8,15.58,8.68-18.14L80,130l24.89,0.54c2.8,6.35,4.49,11.74,11.65,22.25L109,155.13l0.26,12.72Zm21.28-4.77a2.19,2.19,0,0,1-.35-1.12c0.09-.3.32-0.29,0.62-0.13,1.06,0.51,2.12,1,2.89,0a1.39,1.39,0,0,0,0-1.65c-0.6-1.21-2.47-.33-3.1-0.29s-0.81-.48-0.33-1.18a1.8,1.8,0,0,0,.51-1c0.33-2.77-4.41-1.79-2.76.9,0.75,1,.31,1.6-0.79,1A1.81,1.81,0,0,0,89.55,161a1.67,1.67,0,0,0,2.6,1.12c0.27-.15.48-0.32,0.67-0.4,0.54-.24.93,0,0.75,0.57-0.49.76-1.06,1.86-.58,2.58a1.62,1.62,0,1,0,2.73-1.73h0Zm57.41-55.61L116.32,83.73A50.9,50.9,0,0,0,121.22,76l32,20.51Zm-57.55-8,3.77,19.22-25.7.37C72.24,112.62,63.42,98,63.44,98.27l6.85-16.8,34.1,0Zm-9.64-7.16c0.65-.6.61-1.5-0.11-2.53s-0.39-1.7.73-1a2.89,2.89,0,0,0,2.26.29,1.52,1.52,0,0,0,1.06-1.8c-0.15-1-1.29-1.3-2.5-.86a4.28,4.28,0,0,0-.87.5c-0.65.29-.91-0.5-0.32-1.51A1.57,1.57,0,0,0,85,82.94a1.55,1.55,0,0,0-1.55,2.18c0.76,1.16.21,2-.88,1.2-1.57-1.12-3.63.3-2.78,2,0.41,0.81,1.77,1,3,.51,1-.43,1.31.06,0.7,1.1-1.26,2.13.81,4,2.52,2.44h0ZM48.66,73.46L48.39,83.7c-3.84-2.35-3.27-2.38-3.41-2.34a7.35,7.35,0,0,1-3.45,8.75c5.88,5.5,2.7,9.37,1.74,12A8.5,8.5,0,0,1,47,113.57c7.4,0,7.25,6.5,7.47,9.2,9.15-.57,7.93,6.72,9.13,7.35,4.44-2,9.62-1.3,11,4.65,0.89,3.38-2.37.12-3.79,0.26-5.06,3.14-4.09-1.65-4.37-2.32-4.19.4-4.75-1.6-6.59-3-4.53.87-4.15-.62-3.89-3.36-3.55-.72-4.32-2.93-5.74-5.09-4.9.16-2.9-3.3-2.88-4-0.6-.53-3.41-3.3-3.55-6.46-5-1.42-1.87-4-1.69-4.82-1.9-2.37-2.4-4.11-1.77-7.09-4.47-2.08-.74-4-0.42-5.22-1.46-3.88-.4-5,0.18-7.15-2.87-3.36-1.16-3.18.95-5.22,0.27-.37-0.47-2.06-0.43-3.05Zm25.81-38L66.41,21.11h57.54s-6.26,8.66-8.69,13C100.91,31.87,87.48,32.94,74.47,35.5Z" transform="translate(0.1 0.1)"/><path id="path4039-1-1-4" class="cls-4" d="M34.3,218.91c-5-1.14-5.9-7.47-1.17-12.74a4.23,4.23,0,0,0,.64-1.08c-1.64-2.52-2.39-3.41-4.06-5.92,1.47-2.22,3.2-3.92,4.31-5.85a11.24,11.24,0,0,0-1.15-1.53c-3.42-5-3.79-7-2.06-10a4.93,4.93,0,0,1,7.9-.66c2.56,2.68,2.44,5.11-.88,10.05-0.73,1.09-1.26,2.07-1.26,2.07,0.92,1.85,2.48,3.57,4.07,5.9a54.24,54.24,0,0,0-4.28,5.63,2.31,2.31,0,0,0,.42.78c5.29,6,4.87,12.85-1.11,13.43A7.25,7.25,0,0,1,34.3,218.91Zm42.53-76.3c-0.14-.23-19,30.28-19,30.28L60,174.27,78,146.07a0.89,0.89,0,0,1,.48.8s-14.88,24.2-17.36,28.07A36.32,36.32,0,0,0,65,177.27c5.53-2.72,28.62-.37,44-1.3,0.06,0-.24,5.37-0.24,5.37s-3.5-4-4.2-4.06c-3.48-.12-7.15,1.36-9.78,1.19-1.68.51-3.59,6.61-4,8.14-3.05-.35-6,2.83-5.29,5.8,1,3.3,2.71,3,4.56,3.1-0.17,3.73-6.77,13.57-6.8,18.41,7-.55,14.54-0.68,21.74-2.85a68.74,68.74,0,0,1,6.12-12.88,10.45,10.45,0,0,0,1.21-6.75c-0.29-2,.59-2.54,1.37-4,0.48-.89,2.24-0.85,2.46-0.92,4.58-1.32,2.94-7.24,1-8.29-2.43-1.31-5.87.72-7.19-1.94-1.4-2.81-.95-8.64-0.95-8.64l-34.59.16s9.77-18.53,9.52-18.67c-2.67-1.46-7-6.55-7.07-6.61h0ZM53.7,159.48c0.16-1.87.46-32.33-28.37-47.47l0.15-4c0.18-.21,26.23,11.74,30.7,42.76l8-12.57,3,1.16c-4.37,6.55-13.06,22.46-13.48,20.13h0Zm-17.51-11c1.19-3.52-.76-1.65-2.54-1.79-1.21-.66-2.41-1.51-3.53-2.25,8.43-4.46,3.41-4.24-1.5-1.11-1.27-.69-2.88-2.2-3-2.07,9.51-6.1,5.94-6.23-.14-1.81,0.21-4.14.06-2.59,0.14-4,5.19-5.55.36-2.53,0-2.47-1.28-5.53,4.83-4.38,5.39-.19,1.07,0.8,3.19,1.79,3.81,5.22,2.93,1.86,2.63,3.41,2.49,5.64,1.15,1.13,4.11,3.52.65,5.72ZM25.25,123.25l0.19-3.06c0.4-1.25,22.64,14.59,21,34.93C46.75,155,44,153.7,43.24,153,43.25,138,27.33,124.87,25.25,123.25Zm127.55,17.17c-14.84-6.79-28.93-23.05-29.67-44.2l-8.38,14-3-1.26c0.28,0.23,6.63-11.53,13.17-19.66,1.84,26.69,12.33,39.1,28.22,48.12ZM75.1,130.67c-14.38-1.78-35.17-21.32-29-47.8C47,80.18,60.89,95.08,60.89,95.08,61,94.41,73.36,114.32,73,118.21c10.45,3,30.86.15,30.86,0.15,17,3.78,34.71,22.05,28.3,48a75.86,75.86,0,0,1-8.28-6.4c-11.45-11-15.09-20.12-19.14-30.14-14.66-1.33-28.41,1.3-29.66.83h0Zm77.85-22.05a32.89,32.89,0,0,1,.14,4c-3.82,4.15-4.22,4.23.57,2.89-0.59,4-3.54,4.64-5.3,3.28-0.65-.5-0.65-3.24-0.65-3.24-2.91-.73-3.9-1.6-3.49-4.72-3.35-.4-3.21-2-2.94-5.42-3-1.71-2.29-4.43-.49-5.6l1.51,1c-0.48.43-.25,3.14,2.42,1.12,0,0,2.14,1.77,3.16,2.46-7.73,5-3,3.87,1.72.61,0.89,0.61,2.11,1.6,2.75,2C146.08,111.61,144,115.36,152.94,108.62Zm0.38,16.86L153.06,129c-15.25-9.31-19.38-21.6-20.52-34.68,0,0,2,1.5,3,2.13,1.36,16.88,16.85,28.27,17.79,29h0ZM69.75,81.18l36.58,0.23-9.7,18.52,5.12,6s12.71-19.76,19.1-30.12l-2.21-1.32L100.4,103.14l-0.72-.8,18-28.58c-1.08-.71-3.12-1.84-3.12-1.84s-31.15.5-44.7,0.44a34,34,0,0,0,.53-5.17c2,2.86,4.14,5.42,8.79,2.6,0,0,5.51.19,5.71-.08a75.35,75.35,0,0,0,3.26-8.37c5.31-.35,4.78-2.92,5.39-3.76-0.41-7.53-4.64-3.48-4.28-6.22,1.2-4.88,7.31-15.93,6.54-16.9-1.58-1-17.23,2-21.78,2.59-0.42-.16-2.64,7.09-5,10.19-2.55,3.37-3.46,7-2.16,10.4-1.35,3.75-3.94,3.37-6,4.43-2.36,2.55-1.71,6.45.54,8,1.56,1.05,4,1,6.41-1ZM142.44,55l-4.28-5.74,4.15-6c-1.64-2.59-4.34-6.56-3.85-9.7,1.06-6.23,9.48-5.32,10.22.64,0.4,2.77-1.62,6.16-3.68,9.05,1.35,2.47,1.94,2.87,3.91,5.69-1.17,2.06-4,6.1-4,6.1,1.78,3,4.25,6.27,4.07,9.31-0.19,2.61-3,5.25-5.69,4.69C135,67.28,139.62,58.46,142.44,55Z" transform="translate(0.1 0.1)"/><g id="g4049-4-4-2"><path id="path4033-2-3-3" d="M65,20.46c2.27,4.25,8.71,15.73,8.71,15.73,15.32-3.17,28.21-4,41.75-1l9.67-14.64Zm2,0.86h2.77l5.43,11.16,9.38-1.87L83,21.34l2.65,0L87,30.27l13.77-.35,1.78-8.6,2.54,0-1.82,8.74,10.91,1.47,5.34-10.24h3.67L115.09,34A96.26,96.26,0,0,0,74.31,35Zm5.22,0h8.09l1.94,7.53a18.24,18.24,0,0,1-5.94,1.28C74.87,27.54,73.34,23.79,72.27,21.32Zm15.6,0h12.31l-1.05,6.41-10.32.33Zm19.51,0h9.48l-3.74,7.79-7.15-1Zm36.11,7.8a7.31,7.31,0,0,0-1.54.14c-2.46.51-3.75,2.4-3.77,5.48,0,1.41,1,3.91,2.62,6.27a20.58,20.58,0,0,1,1.29,2.21L138,49.27,142.35,55s-0.68.8-1.09,1.37c-2,2.84-2.94,5.5-2.82,7.68a5.45,5.45,0,0,0,4.09,5,5.27,5.27,0,0,0,4.79-1.33A5,5,0,0,0,149,63.94c0-2.16-1-4.77-3.09-7.62a8.81,8.81,0,0,1-.84-1.38s2.91-4.14,4-6l-4-5.71c3.16-4.75,3.8-5.8,3.89-8.71A5.45,5.45,0,0,0,143.48,29.11Zm-0.4.35h0.41c3.61,0.28,5.52,3,5,6.4-0.49,3.28-3.45,6.34-3.93,7.39a66.94,66.94,0,0,0,4.11,5.6c-1.14,2.07-4.08,6.08-4.08,6.08a5.74,5.74,0,0,0,.36.6c3.07,4.35,3.92,6.4,3.71,9a4.82,4.82,0,0,1-3.82,4.26A5.21,5.21,0,0,1,138.71,64c-0.2-2.69,1.54-5.3,2.89-7.34,0.57-.85,1.06-1.67,1.06-1.67l-4.38-5.73c1.33-2.11,3-4.18,4.26-6l-1.26-2c-2.4-3.78-3.07-5.72-2.7-7.81A4.69,4.69,0,0,1,143.09,29.46Zm0.33,1.94a3.56,3.56,0,0,0-3.12,2.44c-0.73,2.66,2.08,6.7,3.36,7.78,2.4-2.75,3.92-5.83,3-8A3.69,3.69,0,0,0,143.41,31.4Zm0.33,0.86c2.42,0,3.33,2.92,1.46,6.18a20.54,20.54,0,0,1-1.59,2.28s-0.89-1.1-1.42-1.94c-2.16-3.38-1.61-6,1.05-6.49A3.42,3.42,0,0,1,143.74,32.27ZM95.59,33.76a111.49,111.49,0,0,0-22.24,2.77,28.71,28.71,0,0,1-4.83,11.15c-2.1,3.43-2.86,6.42-2.16,8.46s-1.14,4.77-3.11,5a4.12,4.12,0,0,0-4,4.36c-0.07,3.89,2.62,6.28,6.28,5a0.79,0.79,0,0,1,.61.19L65.93,92.87a14.89,14.89,0,0,0-5.18,1.7,56,56,0,0,0-8.45-8.15c-0.07-5,.13-9.94-0.09-14.89A59.35,59.35,0,0,0,41.4,77.41c-1.08.72-1.19,1.12-.78,3,0.23,1,.17,1.14-0.67,1.34-1.74.43-2.29,3.2-.81,4.14,0.69,0.44.69,0.46,0.25,1.47a8.1,8.1,0,0,0,.05,5.76c0.41,0.71.38,0.93-.16,1.29-1.86,1.21-1.73,3.79.21,4.27,0.5,0.12.63,0.34,0.46,0.76-0.61,1.56-.05,3.94,1.34,5.74C42,106,42,106,41.52,106.47a2.43,2.43,0,0,0,1.41,4.21c0.73,0.1.73,0.1,0.82,0.65a8.5,8.5,0,0,0,.71,2.8,6.06,6.06,0,0,0,2,2.37c0.82,0.64.82,0.65,0.38,1.59-0.81,1.74.48,3.47,2.54,3.4,1,0,1,0,1.12.33a6.28,6.28,0,0,0,4.32,4.25c0.91,0.15,1.06.37,0.75,1.14a1.86,1.86,0,0,0,1.09,2.69,2,2,0,0,0,2,.13c1-.36,1.06-0.35,2,0.84A4.28,4.28,0,0,0,64.81,133c1.38,0,1.43,0,1.44,1a2.27,2.27,0,0,0,4,1.59c0.57-.6.57-0.6,1.07-0.23,2.21,1.62,4.17,2,4,.52a9.58,9.58,0,0,0-3-5.7L75.56,131c0.14,3.74.27,8.25,1.06,11.36l-14.3,22.73s-0.87-.53-1.78-1.16c-1.34-.93-3-2-4-2.64a15.16,15.16,0,0,1-1.7-1.15c-0.5-.41.31-1,0.48-1.4,3.29-5.87,8.44-12.92,12.2-19.77l-3.63-1.4c-2.78,4.36-4.82,7.88-7.41,11.9-2.58-18.85-15.76-35.41-31.71-42.38l0.05,4.94a51.88,51.88,0,0,1,28.38,47A18.76,18.76,0,0,1,50,157.14c-1-.63-2.87-1.88-3.11-2,0.77-23-22.13-36.67-22.17-36,0,0-.14,3-0.21,4.36,9.76,6.53,17.43,18.4,18.2,29,0,0.09-4.58-2.86-4.58-2.86a3.29,3.29,0,0,0,0-5.83c-0.62-.28-0.65-0.41-0.35-1.24,0.63-1.7-.52-4.27-2.11-4.7-0.7-.19-0.81-0.37-0.85-1.35A3.31,3.31,0,0,0,32,133.11c-0.49-.11-0.5-0.11-0.52-0.73-0.15-3.46-3.54-4.87-6.08-2.53a4.2,4.2,0,0,0-.58.76l0,3.75c0.87-.48,2.19-2.11,2.73-2s0.31,0.47-1,1.63c-0.87.75-1.72,1.54-1.72,1.54l0.05,4.94c1.45-.94,2.9-2,4.26-2.94,1.17-.81,1.77-1.08,1.91-0.84s-0.1.61-.76,1c-1.78,1.19-3.86,2.58-5.36,3.75v3.4l0.29,0.42,0.09,3-0.27.07V152L60.2,174.49l17.92-28.22,0.29,0.3-17.93,28.1a9.22,9.22,0,0,0,1.44,1c0.71,0.4,1.6.93,2.36,1.43a1.88,1.88,0,0,0,1.66,1c0.62-.67,3.31-1.38,3.57-1.69,10-.15,38.82,0,38.82,0l0.16,4.59c-1.29-4.46-5.47-5.37-8.75-3.38H94.36s-3.19,5.72-3.65,8.71c-2.26-.31-5.28,1.9-5.43,4.13-0.37,3.18,1.73,5.5,4.46,5a14.85,14.85,0,0,1-2,5.6,86.12,86.12,0,0,0-4.37,10.42c-0.85,2.31-.56,2.73-0.42,2.78A76.68,76.68,0,0,0,106,211s-0.14-.54-0.21-0.85c-0.28-1.23.76-3.75,3.7-9,2.27-4,2.91-5.56,3.14-7.46a7.64,7.64,0,0,0-.24-3,2.07,2.07,0,0,1-.12-0.59,9.39,9.39,0,0,1,2.12-3.28s0.67-.12.93-0.15c4.16-.29,5.44-5.93,1.94-8.47a4.88,4.88,0,0,0-4.53-.65l0-21.86,2.53,0.09,2.78-1.37c4.46,3.8,7.37,7.69,12.17,10.61l-0.08.19-3.57-2.44v14.32a66.12,66.12,0,0,0,11.69-7.13l-0.75-.65,0-2c3.49,0.27,3.83-4.16,1-4.69a4,4,0,0,1,.34-0.92,6.64,6.64,0,0,0,.35-5.37c-0.39-1.14-.37-1.43.09-1.43,2.12,0,1.92-3.74-.24-4.56-0.74-.28-0.69,0-0.54-2.38a5.63,5.63,0,0,0-1.61-4.47c-0.49-.58-0.45-0.86.18-1.24,1.81-1.1.5-4.28-1.73-4.19-0.87,0-.87,0-0.94-0.83a6.91,6.91,0,0,0-3.15-5.36c-0.52-.28-0.59-0.51-0.3-0.9,1.42-1.9.09-4.5-1.92-3.74l-0.91.33c-0.16,0-.29-0.17-0.59-1-0.84-2.34-1.58-3.08-4.24-4.2-0.52-.22-0.55-0.37-0.32-1.44,0.41-1.85-2.14-3.57-3.52-2.37-0.56.49-.58,0.48-1.21-0.33a8.33,8.33,0,0,0-5.12-2.64c-0.87-.08-1-0.15-0.93-0.48a2.22,2.22,0,0,0-3.56-2.38,1.39,1.39,0,0,1-2,.17c-1.9-1.06-2.73-1.1-2.93-.14a6.63,6.63,0,0,0,.31,2.34,5.88,5.88,0,0,0,2.37,3.3s-2.18-.6-2.73-0.71c0.05-.06-0.16-7.54-1.59-11.78L116,83.79,124,89l-12.75,20.13,3.71,1.51s5-8.22,7.55-12.25c1.7,20,17.2,37.56,31.24,42.76,0,0,0-2.88.1-4.28-14.82-6.51-28.91-24.7-28-46.53l6,3.8c1.73,17.5,9.37,27.75,22.1,36.42v-5.36c-8.77-6.48-16.05-14.93-18-28.47,0,0,3,1.87,4.31,2.76a5.15,5.15,0,0,0-.57.38c-1.59,1.32-1.11,4,1,5.57,0.34,0.25.34,0.25,0,1.1a3.22,3.22,0,0,0,2,4.17c1,0.25.94,0.23,1,1.32,0,2.11.89,3.08,3.14,3.58,0.31,0.07.32,0.1,0.31,1a3,3,0,0,0,4.19,2.92,26.39,26.39,0,0,0,2.54-1.91V114s-0.87.71-1.5,1.3c-1.1,1-1.45,1.15-1.45.53,0-.45.51-1,1.57-1.83a14.9,14.9,0,0,0,1.38-1.28V108.3a3.36,3.36,0,0,1-.46-1.71,10.91,10.91,0,0,1,.16-1.28H154v-5.06l-0.64-.5,0-3.35L118.55,73.92l-18.14,28.79-0.45-.53,18.16-28.61-4.83-3.08-2.91,1.43s-20.16-.32-39.82-0.07c0,0,0-.54,0-2.07,0-1.92.1-2.19,0.45-1.38A5.08,5.08,0,0,0,76,71.22a4.9,4.9,0,0,0,2.91-.89c0.53-.29.63-0.3,3.15-0.28,2.7,0,3.19-.08,3.19-0.65a56,56,0,0,0,2.4-6.48,3.52,3.52,0,0,1,.59-1.49A1,1,0,0,1,89,61.3a4.1,4.1,0,0,0,3.46-1.44c2.5-2.5,1.07-7.6-2.55-7.62-1,0-.3-2.55,1.72-6.68a67.62,67.62,0,0,0,3.47-7.79,17.88,17.88,0,0,0,1.13-4H95.59ZM95.4,35c0.5,0.42-.75,3.5-3,8.17a50.57,50.57,0,0,0-3.09,7.18l-0.36,1.29a1.52,1.52,0,0,1-.71.95c-0.3.22-.73,0.54-0.94,0.71-0.61.49-.75,0.33-0.61-0.65,0.28-1.82,1-3.79,2.68-7.22A74.87,74.87,0,0,0,93,36.79a3.49,3.49,0,0,1,.71-1.66A2.42,2.42,0,0,1,95.4,35h0Zm-2.72.18c0.35,0.24-1.29,4.46-4.13,10.33C85,52.81,84.83,57.94,88,59.19c2.51,1,5-1.77,3.49-3.78a1.8,1.8,0,0,0-2.91,0c-0.3.55,0.12,1.18,0.66,0.41,0.78-1.12,2.35.17,2,1.49a2.36,2.36,0,0,1-2.32,1.48c-3.48-.69-2.82-5.58.78-5.85,3.45-.26,5,4.36,2.51,7a4.07,4.07,0,0,1-3.34,1.28c-2.25,0-4.34-1.85-4.13-3.57a6.72,6.72,0,0,0-.19-4.08,3,3,0,0,1-.37-1.29c0-1.39,1.18-3.55,3.74-8.88a50.21,50.21,0,0,0,2.6-7.32c0.2-.61.1-0.78,0.33-0.87A2.87,2.87,0,0,1,92.68,35.17Zm-3,.07c0.53,0-.68,3.87-2.21,7.15-1.16,2.51-2.74,5.74-3.91,8.72-0.38.63-.63,0.68-1.4,0.27s-0.6-1.17,1.4-5.14a61.59,61.59,0,0,0,4-9.87,1.36,1.36,0,0,1,.57-1,3.32,3.32,0,0,1,1.56-.16h0Zm-2.82.43c0.28,0.37-1.55,5.56-4.39,11.41-0.61,1.24-1,2.38-1.63,3.65a5.76,5.76,0,0,1-2,.56c-0.58-.08,0-1.17,1.63-4.52,1.35-2.73,1.74-3.5,2.45-5.16,0.52-1.22,1.27-3.31,2-5.26a1.19,1.19,0,0,1,.26-0.59A2.2,2.2,0,0,1,86.91,35.68ZM84.14,36a1.62,1.62,0,0,1-.1.58,44.05,44.05,0,0,1-2.21,6c-0.09.27-.91,2-1.82,3.77s-1.74,3.52-1.85,3.83L77.49,52c-1.63,3.49.12,6.25,2.29,6.44,3.37,0.28,3.69-4.44,1.31-4.89a1.51,1.51,0,0,0-1.89,1.37c-0.06.54,0.6,1.16,0.59,0.39,0-1.41,1.93-1.34,2.18-.15,0.47,2.33-2.18,3.46-3.76,1.64a2.75,2.75,0,0,1-.52-2.38,3.1,3.1,0,0,1,5-2,4.27,4.27,0,0,1-1.94,7.68,4.44,4.44,0,0,1-4.11-1.19,5.2,5.2,0,0,1-1.29-3,8.8,8.8,0,0,1,0-2.32c0.32-2.44,2.1-6,3.67-9,1.21-2.51,2.16-5.81,3.26-8.48,0.31-.23,2-0.44,1.93-0.08h0Zm-3,.33c0.18,0.06-.74,2.95-2.06,6.07s-3.32,6.8-4.39,9.92c-0.33.77-.58,0.74-1.53-0.14-0.5-.47-0.22-1.16,1.54-4.76a77.82,77.82,0,0,0,4.13-9.2,3,3,0,0,1,.75-1.62,2.17,2.17,0,0,1,1.55-.27h0ZM78.45,37a51.31,51.31,0,0,1-2.84,7c-1,2.06-2,4.35-3,6.48-0.56,1.31-.57,1.31-1.52,1.51-1.6.33-1.6,0.32-.19-2.54,0.42-.85,1.23-2.41,1.8-3.46A57.06,57.06,0,0,0,76,38.34a3.24,3.24,0,0,1,.63-1.24C76.77,37,78,36.64,78.45,37ZM75,37.37a0.8,0.8,0,0,1,.66.2c0.07,0.65-1.69,4.8-2.77,6.72-0.33.59-.66,1.35-1,2a37.06,37.06,0,0,0-3.46,8.12c-0.68,2.77,2.49,4.86,4.14,2.85,1-1.22,0-3.41-1.55-2.8-0.53.21-.31,0.45,0.41,0.51,1.18,0.1,1.27,1.92,0,2.32a1.93,1.93,0,0,1-2.42-2,2.74,2.74,0,0,1,4.53-2.08,3.78,3.78,0,0,1-.62,6.2c-2.56,1.29-5.72-.46-6.35-3.53-0.48-2.34,0-4.49,2.3-8.1A45.19,45.19,0,0,0,73.18,39a4.91,4.91,0,0,1,.57-1.2A2,2,0,0,1,75,37.37h0Zm68.68,7.37-3.44,4.37c1,1.43,3.35,4.25,3.35,4.25l3.26-4.2Zm0,2.44L145.09,49,143.46,51l-1.53-1.79Zm0.13,9.49s-4.16,4.55-3.2,7.92c0.85,3,5.39,3.74,6.49-.66a5.49,5.49,0,0,0,0-1.41C147,60.74,143.79,56.68,143.79,56.68Zm0,0.9s1.19,1.73,2,3.26,1.19,5.53-2.16,5.4c-1.81.19-3.55-2.2-2.1-5.12A40.49,40.49,0,0,1,143.79,57.58Zm-68.66.73a1.16,1.16,0,0,1,.61.82,3.92,3.92,0,0,1-1,2.62,19.31,19.31,0,0,0-2,.76,8.09,8.09,0,0,1,.54-2.21c0.77-.76,1.43-1.67,1.74-1.94A0.19,0.19,0,0,1,75.13,58.31Zm-8.29.26a3.18,3.18,0,0,1,1,1.44,3.34,3.34,0,0,1-1.11,1.63A1,1,0,0,1,65,61.12,10.32,10.32,0,0,1,66.84,58.57Zm17.61,0.75a2.82,2.82,0,0,1,1.06,1.57,33.89,33.89,0,0,1-3.31,8.47,5.23,5.23,0,0,1-2.34-.06A29.77,29.77,0,0,0,83.69,61C84,59.89,84.2,59.32,84.45,59.32Zm-1.52.55c0.28,0,.38.21,0.15,0.81C82,65,79.64,69.5,77.76,70.32a4.57,4.57,0,0,1-6-1.66c-1.14-2-.94-5.16,2.85-5.85,2.23-.23,4.51,1.53,3.32,4.35-1.32,2.09-4.88.93-3.84-1.77,0.79-1,2.44-.13,1.9,1-0.27.57,0,.92,0.4,0.52,1.3-1.26-.84-3.42-2.28-2.34-2.35,1.77.55,5.65,3.29,4,0.83-.51,2.34-3.36,2.91-5.43a4.75,4.75,0,0,1,1-2.28A3.37,3.37,0,0,1,82.93,59.86ZM76.7,60a1.4,1.4,0,0,1,.51.18,0.81,0.81,0,0,1,.56.7,2.85,2.85,0,0,1-.67,1.55c-0.25-.09-1-0.37-1.44-0.5-0.3-.08.1-0.73,0.28-1.08a1.22,1.22,0,0,1,.7-0.84H76.7ZM69,60.18a12.05,12.05,0,0,1,1.28.44c0.07,0.53-.61,1.68-1.72,3-0.91,1.11-.9,1.11-1.51-0.11-0.39-.79-0.4-0.77.72-2.16a3.87,3.87,0,0,1,1.16-1.18H69Zm3.52,0.39a4.69,4.69,0,0,1-.25,1.28C71,65.6,68,69.31,65.61,70.23c-3.16,1-6.06-.63-6.13-4.46,0.08-4.52,5.47-5.77,7.09-1.65,0.73,1.86-1.27,4.65-3,4.19s-2.48-3.19-1-3.86a1.18,1.18,0,0,1,1.71,1.3c-0.07.35-.05,0.39,0.15,0.36,0.9-.17.42-2-0.64-2.42-2-.85-3.52,1.84-2.16,3.85,1.62,2.4,4.16,1.94,5.63-1a9.18,9.18,0,0,1,1.05-1.61,14.1,14.1,0,0,0,2-2.78,11.8,11.8,0,0,1,.88-1.46A5.53,5.53,0,0,0,72.48,60.57Zm7.09,0.2a0.66,0.66,0,0,1,.66.77,10.33,10.33,0,0,1-.93,2.73,1.74,1.74,0,0,1-.42.63A7,7,0,0,0,77.76,63a1.75,1.75,0,0,1,.37-1.08A1.73,1.73,0,0,1,79.57,60.77Zm6.69,0.58a1.45,1.45,0,0,1,1.24.55c0.42,0.73-2.41,7.56-2.52,7.58l-2.11-.09a66.22,66.22,0,0,0,3.21-8Zm28.36,10.8,2.69,1.59-17.72,28.1-2.58-2Zm-44.21.58c16.55,0.06,39.34,0,39.34,0l-1,1.82s-24.9-.24-38.38-0.22V72.74ZM48.07,73.89l0,9.24a63.57,63.57,0,0,0-6.92-4.71S45.58,75.44,48.07,73.89Zm70.86,0.92,1.66,1L102,105.43l-1-2Zm-48.52.41H73v2.92H70.42V75.22Zm5.93,0H79.5v2.92H76.35V75.22Zm6.87,0h3.24v2.92H83.23V75.25Zm6.75,0h3.27v2.92H90V75.26Zm6.8,0H100V78.2H96.77V75.28Zm6.8,0.06h3.3V77.4l-0.5.86h-2.8V75.34Zm17.79,1,31.58,20.39,0,2.81L120,78.29Zm-2.07,2.38,0.27,0.19-1.34,2-0.28-.15ZM70.51,79H106l-1.07,1.79-34.38-.05V79Zm-29.1.91a3.69,3.69,0,0,1,1.43.6c1.74,1,2.84,3,2.09,3.78s-2.24-.76-3.21-2.78C41.19,80.42,41.06,79.91,41.41,79.89Zm62.72,1.77L92.69,99.9c-2.59-3.54-5.48-6.59-11.81-4.52-3.3-2.55-6.79-2.94-10.5-.78l0-12.88Zm-58.87,0,0.89,0.77a9.79,9.79,0,0,0-.55,1.88,10.24,10.24,0,0,0-.34-2.65h0Zm72.49,0.19L153,105v2.14L116.52,83.69Zm-77.17.53a1.56,1.56,0,0,1,1.24.59,1.67,1.67,0,0,1-.43,2.31A1.56,1.56,0,0,1,39.29,83,1.79,1.79,0,0,1,40.58,82.38Zm5.83,0.27,1.92,1.54c-3.34,19,6.2,38.19,26.75,43.94l0.23,2.43c0,0.12-8.73-2.6-12.56-5.46a39.55,39.55,0,0,1-12.71-14.3,41.54,41.54,0,0,1-4-11.17A47.41,47.41,0,0,1,46.42,82.66Zm-2.18,2.58c0.74,0,.82.56,0.22,1.58a7.19,7.19,0,0,1-3.75,3c-1,.43-1.29.23-1.17-0.85,0.18-1.63,1.32-2.83,3.29-3.46a5.36,5.36,0,0,1,1.41-.27h0Zm5.66,0.21,0.76,0.65a1.6,1.6,0,1,0,2.1,1.78l0.77,0.66a2.52,2.52,0,1,1-3.63-3.09h0Zm1.28,1.26a0.9,0.9,0,0,1,.25,0L52,87.22a0.88,0.88,0,0,1,.09.38A0.9,0.9,0,1,1,51.18,86.7Zm-6.06.58a66.63,66.63,0,0,0-.07,7.58,6.86,6.86,0,0,0-3.29-4.59,15.23,15.23,0,0,0,3.36-3h0Zm9.26,1.92,1.71,1.47c-1.47,20.12,16.2,27.75,16.67,27.42l0.74,2.28c-12.2-4.14-20.63-16.73-19.13-31.17h0Zm98.41,48.23L152.7,140c-13.84-5.36-29.62-25.14-29.42-44.09-3.55,5.44-5.55,9.07-8.6,14l-2.43-1.15c4-5.94,7.79-12.29,11.8-18.12,0.46-.66.83-1,0.85,0.48,0,6.52,2,33.34,27.89,46.39h0ZM40.22,90.78a3.35,3.35,0,0,1,1.89.72c1.27,0.85,2.69,3.46,2.2,4s-2.32-.1-3.25-1.08C39.21,92.51,39.09,90.85,40.22,90.78ZM51,91a2.52,2.52,0,1,1-2.53,2.52A2.52,2.52,0,0,1,51,91Zm5.65,0.24,1.65,1.93C58.64,110.09,72,115.3,71.87,115.34l0.4,1.82C71.53,117.26,55.75,110.09,56.67,91.28ZM51,92a1.6,1.6,0,1,0,1.61,1.6A1.6,1.6,0,0,0,51,92Zm0,0.7a0.9,0.9,0,1,1-.9.9A0.9,0.9,0,0,1,51,92.66Zm8.53,1.53a7,7,0,0,1,1.16,1.38,1.74,1.74,0,0,1-1.5-.09A0.75,0.75,0,0,1,59.55,94.19Zm73.13,0.62,2.47,1.69c1.16,11.39,7.69,21.78,17.56,29l-0.06,2.82C140.64,120.21,134,109.21,132.68,94.81ZM40,95h0.12a1.58,1.58,0,1,1-1.7,1.79A1.7,1.7,0,0,1,40,95Zm20.65,1.52a1.74,1.74,0,0,1,1.24.69c1.09,1.22,1.08,1.58-.07,2-1.61.65-2.95-.25-2.41-1.63A1.43,1.43,0,0,1,60.61,96.52Zm-16.49.06a0.94,0.94,0,0,1,.36.06c1.19,0.46-1.39,5.17-3.09,5.64-1.08.3-1.31-.12-1-1.77C40.84,98.68,42.86,96.61,44.12,96.58Zm7.57,0.11a2.52,2.52,0,1,1-2.53,2.52A2.52,2.52,0,0,1,51.69,96.69Zm0,0.91a1.6,1.6,0,1,0,1.61,1.6A1.6,1.6,0,0,0,51.69,97.6Zm-6.31.14A28,28,0,0,0,47,105.09a10.85,10.85,0,0,0-3.69-3.2C44.27,100.51,45.35,99.12,45.38,97.74Zm6.31,0.57a0.9,0.9,0,1,1-.9.9A0.9,0.9,0,0,1,51.69,98.31ZM66,98.58a4.19,4.19,0,0,1,4.38,4.18,58.64,58.64,0,0,1,0,6.94l-2.14-3.91c0-1.11.16-1.94,0.07-3A2.36,2.36,0,0,0,65,100.5L64.06,99A5.35,5.35,0,0,1,66,98.58Zm9.27,0.3a3.61,3.61,0,0,1,4,3.85c0.14,4.72-.11,15.51-0.11,15.51H73.78L70.87,111a7.05,7.05,0,0,1-.09-1.2c0.19-2.31.07-4.88,0.15-7A4.52,4.52,0,0,1,75.26,98.88Zm-12.35.75a1.21,1.21,0,0,1,.9.34c1.24,1.25,1.23,2.07,0,2.63-1.66.75-2.52,0.6-3.09-.5S61.68,99.64,62.91,99.63ZM140.72,100l1.35,0.87s-0.28.44-.44,0.71c-0.77,1.32.54,2.09,2.35,1.39a3.79,3.79,0,0,0,.61-0.31l1.12,0.76s-0.81.43-1.68,0.86c-2.26,1.1-3.88.63-4.43-1.27a2.77,2.77,0,0,1,.42-2.26A9.49,9.49,0,0,1,140.72,100Zm-57.25.16a4.71,4.71,0,0,1,4.55,3.7c0.2,1-.06,14.41-0.06,14.41h-8.2l0.14-14.06a3.59,3.59,0,0,1,.48-2.4A4.1,4.1,0,0,1,83.47,100.13Zm-8.51.62c-1.66.08-2.6,2.75-.89,4,0.71,0.53.73,0.63,0.35,2.41a9.53,9.53,0,0,0,1,6.38c0.78,1.3.62,0.63,0.22-.52-0.51-2.17-.26-3.76,1-6.28,1.12-2.12,2.21-5.39-1.36-6A1.64,1.64,0,0,0,75,100.74Zm68,0.61,0.74,0.5-0.27.25a0.86,0.86,0,0,1-1.07.11C142.08,101.85,143,101.36,143,101.36Zm-59,1c-1.78-.06-3,3.23-0.67,4a0.92,0.92,0,0,1,.28,1.39,9.5,9.5,0,0,0-.8,3.62,13.73,13.73,0,0,0,.64,3.25c0.6,1.47.48,0.88,0.32-.82a8.32,8.32,0,0,1,1.43-5.09c1.32-2.18,3.13-5.72-1-6.36l-0.17,0h0Zm-30.61,0a2.52,2.52,0,1,1-2.53,2.52A2.52,2.52,0,0,1,53.32,102.4ZM65,102.66a1.47,1.47,0,0,1,1.16.87c1.09,1.62,1,2-1.14,3.11s-3.72-1.85-1.59-3.27a3.63,3.63,0,0,1,1.47-.7H65Zm-23.11.12c2.35,0,6,3.37,4.23,3.86a2.9,2.9,0,0,1-.71.11C42.48,106.56,39.09,102.75,41.91,102.78Zm11.41,0.54a1.6,1.6,0,1,0,1.61,1.6A1.6,1.6,0,0,0,53.32,103.32Zm93,0.47,1.17,0.79s-0.72.33-1.56,0.78c-2.29,1.22-3,2.12-2.16,2.91a1,1,0,0,0,1.22.18,34.7,34.7,0,0,0,4.55-2.55l0.88,0.6S146.93,109,145,110c-3,1.53-4.69-1.6-3-3.68C143.28,105.08,144.65,104.66,146.34,103.79Zm-93,.23a0.9,0.9,0,1,1-.9.9A0.9,0.9,0,0,1,53.32,104Zm94.85,0.84,0.64,0.43-2,1.15c-2.13,1.22-2.22,1.24-2.34,1a1.07,1.07,0,0,1,.69-1A28.91,28.91,0,0,1,148.17,104.86Zm-55.36.06a4.2,4.2,0,0,1,3.77,2.13,8.65,8.65,0,0,1,.46,3.33l0,7.87H88.75a74.39,74.39,0,0,1,0-9.83A4.11,4.11,0,0,1,92.8,104.92Zm-25.64,1.17c0.52,0,.91.47,1.41,1.59s0.12,1.72-1.43,2.39a1.52,1.52,0,0,1-.5.14,1.76,1.76,0,0,1-1.08-3A3.17,3.17,0,0,1,67.17,106.09Zm83.89,0.81,0.72,0.45s-0.37.33-3,2.27c-2.15,1.57-2.46,2-2,2.87,0.36,0.71,1.15.62,2.24-.22,1.51-1.16,3.88-3.12,3.88-3.12l0.08,1.34c-1.56,1.25-3.45,3.39-4.95,4.2-2.9,1.42-5-2.49-2.33-4.41A61.69,61.69,0,0,1,151.06,106.89Zm-57.94,0c-2.16,0-3,3.18-.64,3.86,0.67,0.36.61,0.54,0.17,2.13a7.12,7.12,0,0,0-.21,2.91c0.17,1,.39.94,0.3-0.09a8.61,8.61,0,0,1,1.17-3c2.15-3,1.59-5.75-.78-5.78h0Zm-50.27,0a1.6,1.6,0,0,1,1,2.84c-0.87.6-2.7-.13-2.7-1.09A1.82,1.82,0,0,1,42.56,107l0.29,0h0Zm4.1,0.17c0.45,0,.71.65,0.7,2a5.7,5.7,0,0,1-1.81,4.43c-1.65,1.37-2-2.37-.48-4.84C46,107.61,46.55,107.1,46.94,107.1Zm105.63,0.49c0.41,0,.34.3-0.13,0.63s-1,.76-2.91,2.38c-0.35.29-.85,0.68-1.11,0.85-0.64.43-1.18,0.32-.87-0.18A30.57,30.57,0,0,1,152.57,107.59Zm-96.73.09a2.52,2.52,0,1,1-2.53,2.52A2.52,2.52,0,0,1,55.84,107.68Zm0,0.91a1.6,1.6,0,1,0,1.61,1.6A1.6,1.6,0,0,0,55.84,108.59Zm-30.2,0c17.08,8.62,27.72,24.74,30.35,43.1l8.3-13.13,2.24,0.84L54.44,159.12,53.92,159c-0.05-19.21-9.65-37.38-28.32-47.36Zm30.2,0.66a0.9,0.9,0,1,1-.9.9A0.9,0.9,0,0,1,55.84,109.3Zm-7,.1a31,31,0,0,0,3.06,5.35c-1.42-1.34-3-1.28-4.52-1.48Zm20.31,0.36a0.84,0.84,0,0,1,.74.38c0.7,1,.83,1.85.34,2.33a1.37,1.37,0,0,1-2.2-.54A1.56,1.56,0,0,1,69.1,109.76Zm83.75,1.33,0,1.49a8.84,8.84,0,0,1-.66.7,13.66,13.66,0,0,0-2.35,2.67c-0.3,1.18.86,1.61,2,.74l1-.75v1.83c-1,.82-1.93,1.63-3.25,1.36a2.22,2.22,0,0,1-1.59-1.61c-0.55-2.31,1.69-3.6,3.43-5.15C152,111.88,152.85,111.09,152.85,111.09Zm-93.45,1.3h0.13A2.46,2.46,0,1,1,59.4,112.39ZM110.1,113a1.66,1.66,0,0,1,1,2.89,1.8,1.8,0,0,1-2,.32C107.59,115.1,108.72,113,110.1,113Zm-2.75,1.47c0.8,0.84,1.4,3.29.93,3.75-1,1.07-4.05-2.49-3.87-4.81C104.73,112,107.06,114.11,107.36,114.42Zm-36.9-1.34a0.57,0.57,0,0,1,.55.82,0.72,0.72,0,0,1-.93.17C69.46,113.83,69.75,113.08,70.45,113.09Zm-10.93.22a1.6,1.6,0,1,0,1.61,1.6A1.6,1.6,0,0,0,59.53,113.3Zm-12,.7c3,0,6.26,2.4,3.46,2.87a5.26,5.26,0,0,1-5-1.53c-0.82-.75-0.53-1.15,1-1.31a5.41,5.41,0,0,1,.61,0h0Zm12,0a0.9,0.9,0,1,1-.9.9A0.9,0.9,0,0,1,59.53,114Zm4.22,2.28h0.13A2.46,2.46,0,1,1,63.74,116.29Zm49.62,0.13a2.53,2.53,0,0,1,1.72.46c0.45,0.41-.22,1.19-1.59,1.86-1.6.78-4.39,0.67-4.39-.17C109.11,117.44,111.52,116.45,113.36,116.42Zm-60.79.66c1.4,0,1.78,4.34.56,6.41-0.63,1.08-1.48.36-2.09-1.77C50.55,120,51.51,117.07,52.57,117.08Zm11.3,0.12a1.6,1.6,0,1,0,1.61,1.6A1.6,1.6,0,0,0,63.87,117.2Zm52.32,0.28a1.24,1.24,0,0,1,.47.16c1.53,0.75,2.64,4.24,1.84,5.8s-2.72-1.52-2.71-4.54c0-1,.07-1.38.35-1.42h0.05Zm-67.59.22h0.1c1.38,0,2.39,1.94,1.09,2.92a1.86,1.86,0,0,1-2,.15,1.68,1.68,0,0,1,.1-2.88A1.66,1.66,0,0,1,48.61,117.71Zm15.27,0.2a0.9,0.9,0,1,1-.9.9A0.9,0.9,0,0,1,63.87,117.91Zm-9.43.3a33.09,33.09,0,0,0,4.24,4.34,9.28,9.28,0,0,0-4.14-.07A10.69,10.69,0,0,0,54.44,118.21Zm49.23,0.26c20.76,4.85,33.44,26.84,28.43,47.46a9.21,9.21,0,0,1-2-1.44,43.65,43.65,0,0,0,.27-14.91,36.81,36.81,0,0,0-26.55-28.64A12.4,12.4,0,0,1,103.67,118.46Zm11.19,0.15c0.23,1.41.46,2.83,0.81,4.1a25.78,25.78,0,0,0-4.82-2.68A12,12,0,0,0,114.86,118.62Zm6,0.45a1.55,1.55,0,0,1,1.65,1.58,2.19,2.19,0,0,1-.86,1.44,1.58,1.58,0,0,1-2.19-2.07A1.52,1.52,0,0,1,120.84,119.07Zm-52.17.55a2.52,2.52,0,1,1-2.53,2.52A2.52,2.52,0,0,1,68.68,119.61Zm0,0.91a1.6,1.6,0,1,0,1.61,1.6A1.6,1.6,0,0,0,68.68,120.53Zm-43,.24c10.32,6.08,19.57,19,20.26,33.61l-2.5-1.63c-1.08-9.84-6.13-20.55-17.84-29.33C25.63,123.42,25.66,122.47,25.71,120.77Zm57.13,0H96.18v2.87l4-2.06v6.34l-4-2.42v2.77H82.84v-2.91l-4.08,2,0-6.31,4,2.26v-2.52Zm-14.17.46a0.9,0.9,0,1,1-.9.9A0.9,0.9,0,0,1,68.68,121.23Zm5.24,0.5H74l0.16,0.91H74.05a1.6,1.6,0,1,0,.61,3.09l0.16,0.92A2.52,2.52,0,1,1,73.92,121.73ZM104,122.05h0.13a2.51,2.51,0,0,1,.57,5l-0.15-.91a1.6,1.6,0,0,0-.42-3.15h-0.11l-0.16-.91H104Zm17.71,0.85c3.11,0,4.41,1.8,1.85,2.56a6.41,6.41,0,0,1-4.26-.51C118.07,124.39,119.83,122.89,121.75,122.9Zm-65.09.17a4.86,4.86,0,0,1,2,.37c1.3,0.62,1.27,1-.12,1.83-1.94,1.12-6.51,0-5.13-1.27A5.25,5.25,0,0,1,56.66,123.07Zm17.39,0.27,0.2,0L74.53,125A0.9,0.9,0,1,1,74.05,123.35Zm30.13,0.32a0.9,0.9,0,0,1,.29,1.74Zm5.49,0.64a2.52,2.52,0,1,1-2.53,2.52A2.52,2.52,0,0,1,109.68,124.31Zm-49.16.63a0.76,0.76,0,0,1,.5.21,5.86,5.86,0,0,1,1.67,5.79c-0.57,1.85-2.93-1.44-2.91-4.06C59.78,125.67,60.07,125,60.52,124.95Zm65.38,0.22a0.86,0.86,0,0,1,.65.52c0.94,1.56.9,4.79-.08,5.79-0.55.57-.76,0.46-1.33-0.7C124.15,128.79,124.89,125.16,125.9,125.17Zm-16.22.06a1.6,1.6,0,1,0,1.61,1.6A1.6,1.6,0,0,0,109.68,125.23Zm-47.15.43a48,48,0,0,0,5.89,3.21,6,6,0,0,0-4.75,1A5.77,5.77,0,0,0,62.52,125.66ZM119.81,126a13,13,0,0,0,4.48.12,13.89,13.89,0,0,0-.28,4.27,27.08,27.08,0,0,0-4.2-4.39h0Zm-10.14-.06a0.9,0.9,0,1,1-.9.9A0.9,0.9,0,0,1,109.68,125.93Zm-51.17.86a1.51,1.51,0,0,1,.07,2.73c-1.43.93-3.29-.7-2.4-2.1a1.77,1.77,0,0,1,2.34-.62h0Zm56.24,0.82a2.52,2.52,0,1,1-2.53,2.52A2.52,2.52,0,0,1,114.74,127.6ZM129.51,128a1.54,1.54,0,0,1,.75.18,1.5,1.5,0,1,1-2,2.06A1.5,1.5,0,0,1,129.51,128Zm-24.36.37c12.43,4.22,20.75,18,18.75,31.3l-1.55-1.46c1.18-7.53-3-21.91-16.8-27.82Zm9.58,0.12a1.6,1.6,0,1,0,1.61,1.6A1.6,1.6,0,0,0,114.74,128.52Zm0,0.7a0.9,0.9,0,1,1-.9.9A0.9,0.9,0,0,1,114.74,129.22Zm-47.26.16c0.63,0.06,1.7-.06,2,0.54,0.28,0.75-1.27,2.06-3.24,2.31-0.8,0-2.52.25-2.88-.33S65.3,129.4,67.48,129.38ZM28,129.82c1.68-.07,3.57,2.17,1.87,4a35.4,35.4,0,0,1-4.15,3.32v-1.23s2.73-2,2.77-2.89a1.1,1.1,0,0,0-1.81-1c-0.19.12-.94,0.73-0.94,0.73l0.06-2.06a3.26,3.26,0,0,1,2.19-.87h0Zm42.92,0.53c1.25,0,4.13,4.49,3.4,5.4-0.58.72-2.93-.88-3.81-2.59-0.47-.92-0.33-2.56.24-2.78A0.43,0.43,0,0,1,70.95,130.35Zm19.21,0.54s0.13,10.34-.45,11.31c-2.33,4.22-7.37,2-7.8-1.14-0.31-1.91-.12-10.16-0.12-10.16Zm0.74,0h8.05s0,14.55-.36,15.39a5.46,5.46,0,0,1-2.17,2.17c-2.37,1-4.89-.43-5.52-3.19-0.45-2,0-14.36,0-14.36h0Zm8.73,0H105s0.18,0.77.4,1.41c0.37,1.11,1.63,4.28,1.78,4.47,0.65,0.87.68,10.38,0,11.47-2.36,3.53-6.28,2.5-7.72-1.41C99.1,145.57,99.62,130.89,99.62,130.89Zm6.23,0.36c9.59,4.54,16.92,14.18,16,26.54L120.1,156c0.64-8.53-5.87-19.2-13.46-22.37Zm13.2,0.29a2.52,2.52,0,1,1-2.53,2.52A2.52,2.52,0,0,1,119.05,131.54Zm9.46,0.26a4.9,4.9,0,0,1,2.94,1c1,0.84,1.17,1.51.37,1.75a4.71,4.71,0,0,1-4.53-1.12C126.21,132.41,127.14,131.77,128.51,131.79Zm-9.46.66a1.6,1.6,0,1,0,1.61,1.6A1.6,1.6,0,0,0,119.05,132.45Zm-50.51.2a1.65,1.65,0,0,1,.93,2.85,2.14,2.14,0,0,1-2.08.15A1.67,1.67,0,0,1,68.54,132.65Zm17.78,0.48a21.72,21.72,0,0,1-1.75,3.7c-1.59,2.64-1.38,4.41.29,5.31a2,2,0,1,0,1.82-3.6c-0.85-.49-0.85-0.49-0.54-1.8C86.53,135.11,86.59,133.16,86.32,133.13Zm32.73,0a0.9,0.9,0,1,1-.9.9A0.9,0.9,0,0,1,119.05,133.15Zm-24.1.52a6.69,6.69,0,0,0,0,1.82c0,1.88-.17,2.45-1.38,5-1.54,3.22-1.33,5.42.57,6.14A2.22,2.22,0,0,0,97,144.3a1.58,1.58,0,0,0-.93-1.63,1,1,0,0,1-1-.51C95.4,140.23,97.07,136.6,95,133.67Zm31.85,0.26a8.63,8.63,0,0,0,4.38,1.62,13.52,13.52,0,0,0-.84,4.78,30.06,30.06,0,0,0-3.54-6.4h0Zm-95.08.29,0.3,0a2.5,2.5,0,0,1,1.88,2.84c-0.28,1-.37,1.16-4.2,3.71a20,20,0,0,1-2.35,1.48l-1.14-.77,2.49-1.67c2.94-2,3.37-2.44,3.07-3.33s-1.43-.76-3.17.58c-2.58,2-2.84,2.11-2.84,2.11V138s1.13-.9,1.62-1.32C28.57,135.86,30.22,134.24,31.72,134.23Zm76.19,0.51a0.4,0.4,0,0,1,.41.52,0.45,0.45,0,0,1-.44.2,0.36,0.36,0,0,1,0-.72h0.06Zm25.85,1.37c0.54,1.86-.63,5-1.34,5.37-0.76.75-1.24,0-1.41-1.92C131,138,132.83,133,133.76,136.11Zm-30.65-1c0.23,2.68.32,4.91-.94,7.09-1.64,2.83-1.21,5.25.54,5.78a2.18,2.18,0,0,0,3-2.4,2.47,2.47,0,0,0-1.24-1.47c-0.54-.14-0.6-0.47-0.29-1.53a9.93,9.93,0,0,0-.5-6.56,2,2,0,0,0-.54-0.91h0ZM109,136a1.69,1.69,0,0,1,1.06,2.92c-0.61.56-1,.31-1.64-1.07S108,136,109,136Zm13.69,0.39a2.52,2.52,0,1,1-2.53,2.52A2.52,2.52,0,0,1,122.66,136.35Zm0,0.91a1.6,1.6,0,1,0,1.61,1.6A1.6,1.6,0,0,0,122.66,137.27Zm0,0.7a0.9,0.9,0,1,1-.9.9A0.9,0.9,0,0,1,122.66,138Zm-10.83.66a1.23,1.23,0,0,1,.59.12c1.33,0.64,1.18,2.48-.28,3.58-0.93.69-1.32,0.45-2.19-1.34C109.48,140,110.71,138.68,111.82,138.63Zm-77.1.21a1.61,1.61,0,0,1,.38.06,2.77,2.77,0,0,1,1.9,3.19c-0.76,1.87-3.32,2.5-5.26,3.28l-1-.74s1.42-.81,2.81-1.44,1.5-.83,1.41-1.58c-0.19-1.47-.9-1.41-4.12.32-1.31.7-2.27,1.33-2.27,1.33l-0.71-.58c1.07-.7,1.71-1.09,2.87-1.88,1.94-1.33,3.05-1.9,3.87-1.94h0.14Zm102.42,1.09c0.47,1.42-.49,2.67-1.93,2.11a1.61,1.61,0,0,1-.85-2.22C135,138.8,136.84,139,137.15,139.93Zm-28.9-.49,2.27,4.07s0,1.13.05,1.76c0.09,2.64.65,3.52,2.2,3.26,0.11,0,.66-0.18.66-0.18l1,1.66s-1.07.46-1.34,0.52c-1.83.38-4.35-1-4.74-2.81s-0.09-8.28-.09-8.28h0Zm-74.34,1.67c0.68,0,.39.57,0.08,0.74-1.33.68-2.59,1.41-4,2.21l-0.93-.58s0.72-.4,1.21-0.7A12.07,12.07,0,0,1,33.91,141.11Zm91.19,0.52a2.52,2.52,0,1,1-2.53,2.52A2.52,2.52,0,0,1,125.11,141.63Zm-10.68.34a1.49,1.49,0,0,1,1.38.75c0.67,1.12,0,2.48-1.68,3.21-0.91.41-1.07,0.32-2-1.12-0.66-1-.65-1.15.07-1.77a3.89,3.89,0,0,1,2.26-1.08h0Zm-88.62.22L62,165.56l-1,1.75-35.06-22.9Zm107.45,0.3c2.2,0,5.07,2.58,4,3.58a0.7,0.7,0,0,1-.47.18C133.7,146.08,130.24,142.44,133.26,142.5Zm-8.15,0a1.6,1.6,0,1,0,1.61,1.6A1.6,1.6,0,0,0,125.11,142.54Zm-48.3.45,1,2.49-18,28.59L58,172.93Zm48.3,0.26a0.9,0.9,0,1,1-.9.9A0.9,0.9,0,0,1,125.11,143.25Zm6.61,0.3a7.69,7.69,0,0,0,4,3.34,5.84,5.84,0,0,0-2.31,4.74A44,44,0,0,0,131.72,143.55Zm-95.15.86a1.79,1.79,0,0,1,1,.27c3.37,2.31.28,4.59,0,4.41l-1.15-.72c0.39-.65,1.29-1.54-0.15-2.37a2.7,2.7,0,0,0-2.53.62l-1.21-.82a10.2,10.2,0,0,1,4-1.39h0Zm79.54,1.3a1.68,1.68,0,0,1,.37,0c1.9,0.37,1.77,2.38-.22,3.32-1.13.53-1.33,0.42-2.32-1.27C113.48,147,114.88,145.75,116.11,145.71ZM36,146.45a0.57,0.57,0,0,1,.49.35c0.1,0.53-.88,1.06-0.88,1.06l-1.13-.75A4,4,0,0,1,36,146.45Zm101.43,0.48a0.5,0.5,0,0,1,.56.44c0.39,1.57-1.36,4.47-3,4.94-0.94.28-1.21-.17-0.9-1.46,0.43-1.82,2.33-3.84,3.31-3.92h0Zm-58.33.12L82,149.18,64.42,176.89l-3-1.8Zm47.82,0.22a2.52,2.52,0,1,1-2.53,2.52A2.52,2.52,0,0,1,126.87,147.28Zm0,0.91a1.6,1.6,0,1,0,1.61,1.6A1.6,1.6,0,0,0,126.87,148.2Zm0,0.7a0.9,0.9,0,1,1-.9.9A0.9,0.9,0,0,1,126.87,148.9ZM86.5,149c1.91,2.15,4,6.94,11.53,4.68a8.84,8.84,0,0,0,10.4,1l0,12.93-33.21,0Zm-60.65.33,32.7,21.48-1,1.8L25.82,152.38Zm91.81,0h0.08c1.67,0.41,1.86,2.08.31,2.71-0.83.34-1,.26-1.8-0.91a1.91,1.91,0,0,1-.45-1,3.42,3.42,0,0,1,1.86-.84h0Zm21,1.77a1.66,1.66,0,0,1,.77,3.11,1.63,1.63,0,0,1-2.23-2.21,1.59,1.59,0,0,1,1.47-.9h0Zm-20.48,1.75c0.77,0,1.42.74,1,1.18s-0.57.21-1-.26-0.51-.93-0.07-0.93h0Zm9.38,0.32A2.52,2.52,0,1,1,125,155.7,2.52,2.52,0,0,1,127.54,153.18Zm7.11,0.14c1.9,0,4.54,3.18,4.09,4.92-0.15.57-1.21,0.26-2.48-.71C134.55,156.22,133.44,153.31,134.66,153.32Zm-7.11.77a1.6,1.6,0,1,0,1.61,1.6A1.6,1.6,0,0,0,127.54,154.09Zm6.12,0.33a6.09,6.09,0,0,0,3.44,4.25c-3.68,1.71-4.38,4.59-3.83,8.29l-0.86-.53a44.75,44.75,0,0,0,1.26-12h0Zm-6.12.38a0.9,0.9,0,1,1-.9.9A0.9,0.9,0,0,1,127.54,154.8Zm-0.47,4a2.52,2.52,0,0,1,1.39,4.62l-0.81-.61a1.6,1.6,0,1,0-2.17-1.62l-0.82-.61A2.53,2.53,0,0,1,127.07,158.84Zm11.49,0.32c1.2,0-.67,3.33-2.38,4.24-1.31.69-2.5,0.74-2.5,0.11C133.69,161.86,136.73,159.16,138.56,159.17Zm-11.49,1.3a0.9,0.9,0,1,1,0,1.8,1,1,0,0,1-.9-0.9A0.9,0.9,0,0,1,127.07,160.46Zm11.1,3a1.58,1.58,0,0,1,1.43.76,1.42,1.42,0,0,1-.39,1.8,1.55,1.55,0,0,1-2.48-1.85,1.56,1.56,0,0,1,1.44-.72h0Zm-4.64,1.35a3.71,3.71,0,0,1,3.19,4c-0.32.38-2.55-1.31-2.79-1.48A7.14,7.14,0,0,1,133.53,164.84Zm-2.76,1.56a67,67,0,0,0,6.34,3.8l-6.32,4.05Zm-56.44,1.88,34,0.12v1.43l-35,0,0.93-1.57h0Zm-1.39,2.23h2.29v2.78H72.09v-1.54Zm32.71,0.07h2.75v2.78h-2.75v-2.78Zm-27,0h3.13v2.78H78.64V170.6Zm6.52,0h3.39v2.78H85.16v-2.78Zm6.93,0h3.26v2.78H92.08v-2.78Zm7,0h3.1v2.78H99v-2.78ZM70.7,174.1l37.76,0.09v1.67l-38.84-.09Zm32.22,3.51c3.84,0,6.08,4.24,3.08,7.25-2.76,2.76-7.37-.77-5.07-3.87,1.28-1.74,4.44-.34,3.65,1.51a1.15,1.15,0,0,1-2.17-.67c0-.53-0.39-0.17-0.43.39a1.55,1.55,0,0,0,1.53,1.51c2.23,0,2.57-2.95.42-4-1.92-1-3.94.27-4.41,2.72a8.25,8.25,0,0,1-.61,1.41,13.94,13.94,0,0,0-1.3,3.87,3.89,3.89,0,0,1-1,.7c-1.1.55-1.05,0.32-.64-1.46,1.18-5.12,3.11-8.43,5.47-9.1a5.65,5.65,0,0,1,1.48-.22h0Zm11.37,0.27a4.67,4.67,0,0,1,4.47,3.41c1.36,4.59-4.74,7.4-6.86,3.24-1.19-2.38,1.27-5.21,3.53-4.11,1.85,0.9,1.73,3.71-.16,3.7a1,1,0,0,1-1.08-1.61c0.29-.29.64-0.06,0.79-0.55,0.06-.2-0.23-0.37-0.93-0.22-1.16.23-1,2.56,0.3,3,2,0.69,3.71-1.41,2.76-3.5-1.14-2.5-4.24-2.51-5.66.1a12.69,12.69,0,0,1-.71,1.17c-2.11,2.86-2.28,3.29-2.91,4.88a0.34,0.34,0,0,1-.36.26,4.46,4.46,0,0,0-1.54.28c-0.26-.07.09-1.07,0.11-1.15C107.47,182.38,111.17,178,114.28,177.88Zm-18.39,1.25A31.8,31.8,0,0,0,92.84,187a10.68,10.68,0,0,0-1.55-.67c-0.2-.07,0-0.3-0.05-0.66a19.36,19.36,0,0,1,2.95-6.86c0.29-.21,2.12-0.28,1.71.3h0ZM98,180c-1.29,1.64-2.64,6-2.92,8.26a7.81,7.81,0,0,1-.14.84c-0.2.67-1.46-.77-1.46-1.67,0-1.52,1.7-6.15,2.91-7.92a1.23,1.23,0,0,1,1.37-.75c1.44,0,.81.52,0.24,1.25h0ZM35,178.88A4.52,4.52,0,0,0,34,179c-1.87.46-4.09,2.44-4.31,4.53a5.19,5.19,0,0,0-.19,2.27c0.62,2.81,2.26,4.72,4.27,7.51A50.83,50.83,0,0,1,29.55,199l4.1,5.93c-1.14,2.24-3.11,3.93-3.6,6.69-0.77,3.63,1.13,7.18,5.19,7.5,3,0.09,5-2,5.39-5,0.15-2.06-.69-4.63-3.74-8.71l-0.45-.62s0.34-.4.52-0.67c1.07-1.45,3.87-5,3.87-5l-4.18-5.9a5.31,5.31,0,0,1,.5-0.84c3.41-4.64,4-7,3.44-9.31A5.37,5.37,0,0,0,39,180.7a5.52,5.52,0,0,0-4-1.82h0Zm-0.1.57a5.17,5.17,0,0,1,3.82,1.68c2.56,2.68,2.34,4.94-1,9.89-0.73,1.09-1.45,2.28-1.45,2.28l4.2,5.79c-1.38,1.94-2.95,3.67-4.38,5.72,0.73,1.11,1.91,2.31,2.65,3.65a11.39,11.39,0,0,1,1.59,4.42c0.33,2.91-1.56,6-4.81,6.09A5.54,5.54,0,0,1,30,213.07a9,9,0,0,1,1.38-4.14c0.76-1.34,2.53-4,2.53-4l-4.07-5.91,4.31-5.74s-3.13-3.83-4.09-6.58a5.86,5.86,0,0,1,.88-5.19,4.89,4.89,0,0,1,3.92-2.09h0Zm-2.66,8.31a11.41,11.41,0,0,0,2.79,4,18.19,18.19,0,0,0,2.91-4.44C41.08,179.78,28.93,179.17,32.23,187.76ZM35,191c-1.54-1.79-2.63-3.28-2.74-5.64a2.86,2.86,0,1,1,5.65,0C37.55,187.67,36.35,189.11,35,191Zm75.92-7.35c0.12,0.66.76,1.77,0.71,2-0.3.69-.73,1-1.34,2.17-0.13.24-.07,0.29-0.41,0.23a11.19,11.19,0,0,1-1.18-.31c-0.17,0-.37-0.14-0.29-0.36,0.58-1.33,1.23-2.92,2.51-3.77h0Zm-10.15,2L100,187.53c-0.07.2-.08,0.23-0.29,0.19a5.68,5.68,0,0,0-1.18-.05c-0.89-.11.79-3.44,1-3.95,0.37,0.06.91,1.49,1.15,1.95h0Zm0.68,0.43h0a5.74,5.74,0,0,1,1.32.42c0.22,0.09.23,0.1,0.13,0.38s-0.46,1.59-.73,2c0,0.06-1.27-.75-1.63-0.91C100.54,187.77,101,186.16,101.43,186.1Zm10.73,0.22a2.6,2.6,0,0,1,1.22.61c0.13,0.26,0,.53-0.45,1.33a4.34,4.34,0,0,1-.95,1.39,5.81,5.81,0,0,1-1.18-1,1.86,1.86,0,0,1,.47-1.46A1.76,1.76,0,0,1,112.16,186.32Zm-6.83-.09c0.39,0.09-.23,2.08-0.34,2.32a6.17,6.17,0,0,1-1.39,1.56,0.86,0.86,0,0,1-.93-0.77,15.69,15.69,0,0,1,.91-2.61,6.35,6.35,0,0,1,1.74-.5h0ZM89.54,187H89.8a4.54,4.54,0,0,1,4.07,2.38,1.67,1.67,0,0,1,.36,1.56,7,7,0,0,0,.29,4c0.52,1.21.44,1.63-.83,4.32s-2.84,6-4,9.08a32.48,32.48,0,0,0-1.31,4c-0.2.77-1.13,0.54-2.07,0.5-0.47.1,0.68-3.08,2.4-6.89,1.37-3,3.24-6.48,4-9.89,0.61-2.78.41-3.92,0.08-5.09-1.29-3.4-5.76-2.56-5.75.57,0.1,2,2.45,3.11,3.31,1.13,0.14-.91-0.31-0.38-0.69.06-0.81,1-2.2-.11-2-1.51a2.16,2.16,0,0,1,3.82-1c1.26,1.6,1,3.24-.84,4.48a3,3,0,0,1-4.53-.84A4.54,4.54,0,0,1,89.54,187h0Zm9.29,1.35c1.86,0,3.89,1.6,4.22,2.83,0.18,0.84-.09,1.82.21,2.63a2.24,2.24,0,0,1,.31,1.6c-1.53,4.93-5.16,10.18-6.95,16a1,1,0,0,1-.86.59c-0.72.2-1,.18-1.07-0.19a6.77,6.77,0,0,1,.59-2.29,44.18,44.18,0,0,1,2.26-5.32c1.51-2.84,2.36-4.78,3.46-7.2,0.21-.45.26-0.72,0.59-1.37,1.39-2.8-.18-5.57-3-5.58-2.27,0-3.29,3.54-1.3,4.58s3.4-1.65,1.67-2.6c-0.42-.23-0.52,0-0.19.39,0.77,0.92.08,2.17-1,1.67-1.66-.77-0.8-3.59,1.13-3.43,3,0.25,3.38,4.59.33,5.69-4.19,1.51-6.39-5.23-2.45-7.49a4.06,4.06,0,0,1,2.11-.53h0Zm8.84,0.14a4.46,4.46,0,0,1,3.22,1.28c2.35,2.25,1.72,5.72-2.24,12.43a45.08,45.08,0,0,0-3.25,6.92,1.44,1.44,0,0,1-.71,1c-0.69.38-1.47,0.43-1.57,0.16-0.26-.68,1.71-4.92,5.2-11.58,0.92-1.77,2.08-3.83,2-5.95a2.65,2.65,0,0,0-3.5-2.33,1.89,1.89,0,0,0-.85,3,1.69,1.69,0,0,0,1.17.54c0.58,0,1.24-.55.12-0.62a1.16,1.16,0,0,1-.59-2.17c1.44-1,3.1.17,3,2.05-0.24,3.78-5.77,3.21-5.92-.68a3.88,3.88,0,0,1,3.91-4h0ZM92,194.52c0.84-.06-0.6,4.43-3.11,9.47a88.82,88.82,0,0,0-3.48,8.71c-0.29.39-2,.46-2,0.06,3.07-9.82,5.24-11.51,6.29-15.25,0.18-.65.32-1.58,0.34-1.66C90.85,195.61,91.5,194.69,92,194.52Zm-56.86.66-3.25,4.23,3.18,4.5,3.3-4.3Zm70.47,1.31a21.88,21.88,0,0,1-1.71,4.42c-3.19,6.42-4,8.15-4.53,9.86a0.86,0.86,0,0,1-.46.59,3.32,3.32,0,0,1-1.59.21c0.67-3.75,5.83-12.29,6.83-16a2,2,0,0,1,1.46,1h0Zm2.55-.39c0.22,0,.3.07,0.24,0.36a24.71,24.71,0,0,1-1.63,3.46c-2.69,5.27-4.09,8.39-4.54,10a1.27,1.27,0,0,1-.35.77c-0.37.2-1.66,0.72-1.72,0.16,0.4-2.38,2-3.93,6-13.86a0.89,0.89,0,0,1,.54-0.51c0.5-.08.93-0.32,1.42-0.36h0Zm-11,1.63a29.11,29.11,0,0,1-2,4.27,60.67,60.67,0,0,0-3.95,9.5,2.28,2.28,0,0,1-.46,1,5.22,5.22,0,0,1-1.73.15c-0.21-1.08,1.49-5.1,3.39-9.33,1-2.3,2.23-4.59,3-6.66A2.36,2.36,0,0,1,97.19,197.73Zm2.87-1c0.57,0,.13,1-1.25,3.67a59,59,0,0,0-4,8.84c-0.3.78-.65,1.75-0.78,2.16a1.39,1.39,0,0,1-.54.89,2.06,2.06,0,0,1-1.59,0c-0.28-.34,1.21-4.33,2.65-7.4,1.28-2.58,2.18-4.65,3.28-7a0.79,0.79,0,0,1,.62-0.57,9.66,9.66,0,0,0,1.66-.55h0Zm-64.83.51,1.68,2.24-2,2.44-1.64-2.38ZM35,206.87A14,14,0,0,0,33.54,209c-2.14,3.56-2.2,6.18.33,7.74a3.08,3.08,0,0,0,3.33-.34c2.86-2.49.73-5.91-1.11-8.23A11.61,11.61,0,0,0,35,206.87Zm0.1,0.91a14.75,14.75,0,0,1,2.57,3.8c0.82,2.13.29,3.81-1.3,4.59-2.51,1.24-4.8-1.55-3.61-4.53A15,15,0,0,1,35.09,207.78ZM105.48,212c0.24,0.45-23.92,6-41.75,1.24L52.88,228.89l62.61-.11Zm-0.92,1.11,8.68,15h-4l-5.72-12.22a63.74,63.74,0,0,1-9.14,1.85l2,10.37h-3l-1.7-9.91a127.42,127.42,0,0,1-13.41.34l-2,9.57H73.17l2-9.51c-3.46-.47-6.91-0.91-10.43-1.48l-5.9,11H54.42l9.26-13.79c13.82,2.77,26.57,2.12,40.88-1.18h0Zm-2.19,5.4,4.54,9.58h-8.6l-1.58-8.55Zm-36.8.7,7.51,1-1.94,7.91H61Zm24.53,1.18,1,7.7H78.19l1.44-7.55Z" transform="translate(0.1 0.1)"/></g></g><path id="path153-6-3-1-9-5-1-4" d="M48.06,26.47C40.71,37,32.85,43,32.72,51.19c0,2.65,1.39,7.16,5.87,8,2.91,0.56,6.91-1.8,7-6.59,0-1,1-.93,1,0.38a27.2,27.2,0,0,1-3.34,11.75h9.63A27.2,27.2,0,0,1,49.54,53c0-1.31,1-1.33,1-.38,0.08,4.79,4.09,7.15,7,6.59,4.48-.86,5.91-5.37,5.87-8C63.27,43,55.41,37,48.06,26.47Z" transform="translate(0.1 0.1)"/><path id="path153-6-3-1-8-6-9-9-4" d="M130.52,223c-7.35-10.49-15.21-16.53-15.34-24.72,0-2.65,1.39-7.16,5.87-8,2.91-.56,6.91,1.8,7,6.59,0,1,1,.93,1-0.38a27.2,27.2,0,0,0-3.34-11.75h9.63A27.2,27.2,0,0,0,132,196.46c0,1.31,1,1.33,1,.38,0.08-4.79,4.09-7.15,7-6.59,4.48,0.86,5.91,5.37,5.87,8C145.73,206.45,137.87,212.49,130.52,223Z" transform="translate(0.1 0.1)"/></g></svg>