<svg id="Layer_1" data-name="Layer 1" xmlns="http://www.w3.org/2000/svg" viewBox="0 0 178.78 249.65"><defs><style>.cls-1{fill:#fff;stroke:#000;stroke-width:1px;}.cls-2{fill:#d40000;}.cls-3{fill:#e2cf00;}.cls-4{fill:#131f67;}</style></defs><title>12_C</title><g id="g4942"><rect id="rect6355-6-85-3-5-0-1" class="cls-1" x="0.5" y="0.5" width="177.79" height="248.65" rx="8.5" ry="8.5"/><path id="path147-6-9-8-7-0-5-6-46-4-5" d="M164.87,209.6c3.13-.07,4.53-3.74,2.21-6.59-0.34-.42-0.37-0.65.24-0.25,1.56,1.09,4.55.37,4.7-2.95,0.19-4.09-5.3-5.27-6.33-.92-0.05.46-.41,0.45-0.33-0.2a14,14,0,0,1,1.35-5H163a14,14,0,0,1,1.35,5c0.09,0.65-.27.66-0.33,0.2-1-4.35-6.52-3.17-6.33.92,0.15,3.32,3.14,4,4.7,2.95,0.62-.4.58-0.16,0.24,0.25-2.32,2.85-.91,6.52,2.21,6.59h0Z" transform="translate(-0.3 -0.3)"/><path id="path147-6-9-8-7-4-5-62-9-4-5" d="M14.51,40.65c-3.13.07-4.53,3.74-2.21,6.59,0.34,0.42.37,0.65-.24,0.25-1.56-1.09-4.55-.37-4.7,2.95-0.19,4.09,5.3,5.27,6.33.92,0.05-.46.41-0.45,0.33,0.2a14,14,0,0,1-1.35,5h3.72a14,14,0,0,1-1.35-5c-0.09-.65.27-0.66,0.33-0.2,1,4.35,6.52,3.17,6.33-.92-0.15-3.32-3.14-4-4.7-2.95-0.62.4-.58,0.16-0.24-0.25,2.32-2.85.91-6.52-2.21-6.59h0Z" transform="translate(-0.3 -0.3)"/><path id="path37-5-2-4" d="M8.72,29.44H6.52v-3h2.2s0-1.62.08-4.47c0.14-6.07.29-7,2-8.69,3.47-3.3,9.28-.61,9.21,4.36-0.1,7,0,13.7-.23,14.64-0.36,1.67-.4,1.76-0.25,2.07,0.3,0.61,2.93.88,2.93,0.71v3a5.42,5.42,0,0,1-4.44-1.18,6.58,6.58,0,0,1-6.47.8c-1.84-.87-3.24-3.11-2.86-8.19h0Zm7.42,5.23C15.05,33.1,13.22,31,11.5,30.19c-0.11,1.81,0,3.33.68,4.15a2.53,2.53,0,0,0,4,.34h0ZM17,17.35c-0.81-2.29-2.88-3.07-4.4-1.63-0.95.89-1.1,1.83-1.12,6.93,0,3.15,0,4.47,0,4.47,3,1,5.71,4.4,5.69,4.36L17.27,22A26.69,26.69,0,0,0,17,17.35h0Z" transform="translate(-0.3 -0.3)"/><path id="path37-3-2-7-4" d="M170.66,220.81h2.2v3h-2.2s0,1.62-.08,4.47c-0.14,6.07-.29,7-2,8.69-3.47,3.3-9.28.61-9.21-4.36,0.1-7,0-13.7.23-14.64,0.36-1.67.4-1.76,0.25-2.07-0.3-.61-2.93-0.88-2.93-0.71v-3a5.42,5.42,0,0,1,4.44,1.18,6.58,6.58,0,0,1,6.47-.8c1.84,0.87,3.24,3.11,2.86,8.19h0Zm-7.42-5.23c1.09,1.57,2.92,3.72,4.64,4.49,0.11-1.81,0-3.33-.68-4.15a2.53,2.53,0,0,0-4-.34h0Zm-0.9,17.32c0.81,2.29,2.88,3.07,4.4,1.63,0.95-.89,1.1-1.83,1.12-6.93,0-3.15,0-4.47,0-4.47-3-1-5.71-4.4-5.69-4.36l-0.07,9.51a26.69,26.69,0,0,0,.23,4.61h0Z" transform="translate(-0.3 -0.3)"/><g id="g5457-6-3-6"><g id="g3405-1-0-4"><path id="path3391-4-8-9-0" class="cls-2" d="M95.95,228.83c0.44-6.51.06-13.5,0.36-18.79a2.14,2.14,0,0,1,.56-1.4,7.19,7.19,0,0,1,0-4.59c4.24-16.23,11.93-28.87,19.84-40.65,6.44,19.47-13.78,33.13-18,50.14-1.42,5.89-1.21,10-1.75,15.33Zm-33.6.25-24-37.29,5.22-2.55,24.72,39.71ZM93.44,160c0.21,1.07,1.05,1.65,1.94,1.16s1-.51.43,0.33a1.74,1.74,0,0,0,2.79,2.07,1.43,1.43,0,0,0,.14-2c-0.57-.53-0.69-0.81.15-0.4,2.1,0.86,3.26-2.2,1.22-3.23a2,2,0,0,0-1.93.37c-0.47.49-.53,0.32-0.41-0.06a9.5,9.5,0,0,1,.3-1,5.79,5.79,0,0,0,.24-0.8l-2.15,0s0.17,0.49.35,0.91,0.23,0.68.31,0.85c0.29,0.59-.06.37-0.64-0.06a1.67,1.67,0,0,0-2.44.37A2.48,2.48,0,0,0,93.44,160Zm3.1-30.34,4.62-.14,5.08,14.08c-4.07,6.78-5.17,14.43-.43,22.18l-14.66,0C94.6,154.12,95.13,141.73,96.55,129.65ZM101.38,148a1.63,1.63,0,0,0,.13-2.24c-0.71-.85-0.55-0.89.41-0.34,1.38,0.8,2.69-.93,1.88-2.45a1.81,1.81,0,0,0-2.82-.32c-0.53.72-.47,0.06-0.06-0.89,0.15-.35.37-1,0.37-1l-2.24,0s0.29,0.64.44,1c0.41,1.08.43,1.43-.2,0.73a1.73,1.73,0,0,0-3,1.34,1.49,1.49,0,0,0,2.17,1.5c0.61-.36.89-0.45,0.2,0.38A1.76,1.76,0,0,0,99,148,2,2,0,0,0,101.38,148Zm-31,4.39c0.18-.13.25,0,0.14,0.13a6.81,6.81,0,0,1-.54.6c-1,1.17.31,2.65,2,2.42,1.15-.16,1.82-2,1-2.68a2.55,2.55,0,0,1-.7-0.47c0-.1,0-0.17.13-0.13s0.45,0.31.61,0.35a1.64,1.64,0,0,0,2.14-.91,2.2,2.2,0,0,0-.7-2.3,1.63,1.63,0,0,0-2.21.44c-0.58.78-.66,0-0.19-1a6,6,0,0,0,.3-1l-2.06.11s0.11,0.44.29,1c0.46,1.17.79,1.5,0.2,0.9-2.52-1.49-3.35.54-3.39,1.34a1.79,1.79,0,0,0,3,1.25h0Zm10.07-22.84H84.2c-2.8,15-8.54,27.48-18.2,36.11l-18.18-.06-8.76-6.15L42.44,155C65.52,157.41,75.35,145.92,80.49,129.52ZM63.76,164.19a1.65,1.65,0,0,0,.82-2.55c-0.65-.75-0.72-1,0.28-0.4,1.34,0.78,2.63-.78,2-2.31a1.75,1.75,0,0,0-2.62-.6c-0.81.61-.8,0.34-0.37-0.63a7.89,7.89,0,0,0,.37-1.24l-2.28,0a9.71,9.71,0,0,0,.33.92c0.38,0.86.52,1.25,0.34,1.25a2,2,0,0,1-.53-0.41,2,2,0,0,0-2.15-.06c-1.36,1.31-.6,3.59,1.14,3.17,1.12-.27,1.38-0.7.45,0.36C60.37,163,62.14,164.91,63.76,164.19Zm-14.37-.45a1.53,1.53,0,0,0,.73-2.24c-0.53-.71-0.79-1.17.15-0.53,1.25,0.63,2.35-.21,2.34-1.64a1.78,1.78,0,0,0-2.93-1.3,2.06,2.06,0,0,1-.51.29,2.22,2.22,0,0,1,.42-1.34c0.13-.23.36-0.7,0.36-0.7l-2.28-.09a8.84,8.84,0,0,0,.31,1.1c0.36,1,.45,1.3-0.18.75-1.71-1.61-3.54.44-2.82,2.21a1.44,1.44,0,0,0,2.24.5c0.63-.49.31,0.16-0.12,0.67C45.92,162.82,47.64,164.56,49.39,163.74Zm104-37.5,0.12,2.77L124.1,153.64l-1.23-1.9ZM43.93,131.42c4.24-3,9-8.46,13.6-11.3C60.94,128,53,135.66,43.93,131.42ZM121.32,130c-3-16.58,14.75-13.13,13.81-11.65ZM26,119.84L55.17,96l1.32,2L25.75,123.28Zm79.82-24.06c0.08,0.25,1,1.2,1,1.29-0.25-.19-1.75-1-2.48-0.21a2.79,2.79,0,0,0-.54,1.76,1.73,1.73,0,0,0,2.88.89,1.16,1.16,0,0,1,.64-0.47,2.49,2.49,0,0,1-.25.92c-0.16.37-.75,1.15-0.32,1.15h2.07a4.36,4.36,0,0,0-.32-1c-0.46-1-.44-1.55.11-0.83,1.09,1.41,3.19.23,3-1.46a1.58,1.58,0,0,0-2.3-1.34c-0.1.06-.39,0.35-0.43,0.35a2.12,2.12,0,0,1,.39-0.85c0.67-1.28-.33-2.47-1.85-2.35a2.12,2.12,0,0,0-1,.4A1.69,1.69,0,0,0,105.85,95.78Zm25.16-12a50.08,50.08,0,0,0,8.75,6.39L137,94.57c-18.64-1.73-32.2,5.67-37.86,25.73l-3.07.59c1.16-12.52,5.33-24.93,17.68-37.06Zm-17.87,3c0,0.59,1.09,1.3.85,1.46s-0.76-.51-1.05-0.54c-2.15-.23-2.6,3.13-0.47,3.51a2.72,2.72,0,0,0,1.54-.4,2.31,2.31,0,0,1,.65-0.49,2,2,0,0,1-.4,1.09,13.12,13.12,0,0,0-.52,1.27h2.45S116,92,115.74,91.44s-0.34-1.12-.15-1.07a4.36,4.36,0,0,1,.34.38,1.82,1.82,0,0,0,3-.9c0.38-1.34-1.22-2.72-2.33-2-0.39.26-.39,0.07,0-0.52a1.79,1.79,0,0,0-.05-1.84A2,2,0,0,0,113.14,86.81Zm17.57,4c-0.06-.3,0-0.21.33,0.11a1.8,1.8,0,0,0,3.1-.49c0.43-1.36-.88-2.91-2-2.38-0.59.28-.61,0.18-0.27-0.26a1.69,1.69,0,0,0-1.59-2.64,1.65,1.65,0,0,0-1.52,2.48c0.27,0.47.18,0.57-.3,0.33-1.41-.68-2.72,1.55-1.69,2.87a2,2,0,0,0,2.81.09c0.43-.41.42-0.21,0.11,0.64a14.35,14.35,0,0,1-.57,1.34l2.43,0A10.47,10.47,0,0,1,130.71,90.79Zm-52.09,30c0.71-.18-2.5-10.38-4.85-14.93,2.68-6.44,6.34-12.67.18-21.94l15,0C84.29,94.42,84.19,121,83.11,121ZM79.93,109a4.43,4.43,0,0,1-.78-1.85c-0.09-.53,0-0.56.32,0,1.33,1.48,3.14.05,3.15-1.26s-1.24-2.23-2.14-1.63c-0.63.42-.8,0.3-0.24-0.48a1.61,1.61,0,0,0-1.48-2.51c-1.84,0-2.54,1.74-1.22,3,1,0.91.07,0.37-.71,0-1.5-.63-2.49.9-1.82,2.46a1.58,1.58,0,0,0,2.63.48c0.44-.47.84-0.75,0.61,0a10.4,10.4,0,0,1-.8,1.81Zm2.32-16.17a5.88,5.88,0,0,1-1-2c-0.05-.31.17-0.23,0.67,0.2,1.61,1.39,3.82-1.1,2.32-2.62a1.28,1.28,0,0,0-1.64-.36c-0.75.39-.69,0.2-0.32-0.2a1.65,1.65,0,0,0-.08-2.22c-1.64-1.46-4.23.72-2.71,2.28,0.66,0.68.35,0.59-.38,0.16-1.38-.83-2.9,1.44-1.87,2.77,1.23,1,2.15.53,3-.13,0.18-.1.34-0.14,0.34-0.06s-0.85,2.16-.85,2.16ZM62.62,86.53c-0.91-.06-1.57-8.63-0.45-11.34,2.38-11.44,9.64-19.77,14.16-26.78C83.58,38,82.68,20.64,83,21.34l1,0.12s-0.8,10.16-.35,14.75c0.47,4,.37,4.29.08,4.69-0.08.38,0,1.48,0,1.85C80.48,57.69,72.78,73.06,64.82,84.66Zm74.56-26.11L112.69,21.65l5.88-.53C120.76,24.6,142,57.72,142,57.72Z" transform="translate(-0.3 -0.3)"/><path id="path3395-8-0-1-6" class="cls-3" d="M36.35,229.77c2.78-10.25-4.76-34.09-9.47-37.2,5.53-.23,12.18-0.13,12-0.65,0,0,23.51,37.13,23.32,37.33s-25.82.53-25.82,0.53h0Zm95.3-58.15c-5.7-.81-3.45-5.56.21-6.05-0.48.08,0.39-2.36,3.35-3.35,0.67-1.22,1.2-3.31,1.81-4.28-1.77.58-3.92,2.08-12,.9,0.7-3.83,8.4-4.48,11.17-3.89,1.6,0.37,3.18,2.77,3.67,2.82,4.94-.83,11.23,3.66,9.32,8.22-0.29.65-1-.77-2.71-1.38-5.38-2-5.75-4.88-7-6.19-0.45-.08-2.83,4.64-2.83,4.64l0.74,3.21c1.29-.12,7,3.44-0.11,5.84-2,6.82-5.69,2-5.68-.49h0Zm13.5-30.48c-0.3-.31.24-2.44,1-3.66a2.12,2.12,0,0,1,1.82-1c0.94,0.17.8,1.54-.45,5.57C147.43,142.63,146.15,142.69,145.15,141.14ZM31.67,112.92c-1.56,0-.16-4.27.8-5.63,0.32-.42,1.56.48,1.63,1.09C34.22,109.49,32.52,113.36,31.67,112.92Zm-1.11-29a23.48,23.48,0,0,1,6.36,3.45c1.79,1.34,1.3,4,2.73,4.21,1-.48,2.74-4.79,2.74-4.79s0.45-2.22-.82-2.9c-3.14-1.7-3.08-3.53-2.88-3.69,0.93-2.42,2.78-2,3.79-2.13,0-1.33,0-4.13,2.71-3.84,2.39,0.23,2.63,3.66,1.62,3.69,0-.06,4.52-0.65,4.48,2.35,0,1.63-2.72,3.72-3.56,3,0,0,.45,3.25-3.62,4.36-1,1-1.73,5.1-1.73,4.74,2.45-2.22,6.3-2.74,12.36-1.95-3.76,7-14.14,3.72-15,2.37C34.57,91.14,29.67,89.08,30.57,83.89ZM75.3,67.13c5.53,0.5,11.57-1.24,16.17-.32a5,5,0,0,1,1.41,1c2.38,1.3,4.86.9,8.69-.56,0.94-.36,18.47-0.22,18.47-0.22,4,5.92,11.09,17.06,11.24,16.68,0,0-9.71-.11-14.19.16-3.15.19-1.3,0.62-3.48,0.71-15.31,11.55-18.23,36.5-18.23,36.5s4.87-1.29,6.14.06c6-17.68,17.45-25.75,33.39-24.17,7.37,0.73,16.15,8,16.15,8L135.3,117.88c-12.21-6.18-17.44,12-13.74,12.09l31.74-26s0.54,2.13.49,2.2c-2.26,3-40.1,33.82-40.1,33.82L112,138.09s-1,.93-1.59,1.55a3.4,3.4,0,0,0,1.06,2.66c-7.5,6-7.74,17.12-2.22,23.17,0,0-2.45.17-2.71,0.22-3.11.54-6.33-14.88-.16-22.06-3.11-6.13-5-14.47-5.42-14.86,0.08,1-4.92.66-4.92,0.66a169.29,169.29,0,0,1-4.66,36.45l23,0.5-9.78,17s-11-.28-15.7-0.61c-4.93-2.88-7.78-.69-12.41.38-6.59.19-16.29-.11-16.29,0a79.86,79.86,0,0,0-11.63-17c-0.61-1,19.51-.39,19.51-0.39S78.13,150.48,80,146.17c1.43-3.37,4.64-15.62,4.64-15.62,0.15,0.64-1.83-3.19-6.43-3.1-3.8,25.38-33.84,33.93-51.92,17.59l-0.17-3,39.83-32.44,1.77,2.05c-0.38-.31-24.45,19.81-24.05,19.68,7.13,3.75,15.39.71,14.43-11.59A135.35,135.35,0,0,0,73.65,106c0.11-.19,5.49,12.13,5.36,14.5,3.1-1,4.93,1.15,4.87.77-1.11-7.13,5.1-34.14,5.22-37.25-3.45-.28-8-0.15-15.21-0.44,5.77,11.21,3.76,18.8-4.3,25.7l-1.69-2.13c0.68,0.38,11.77-9.25,2.84-23.65-0.41,0-4.71-.39-4.71-0.39S74.86,69.12,75.3,67.13Zm42.8-46.31s25.14-.61,25.15.13a59.16,59.16,0,0,0,9.94,37.37s-11.13-.4-10.93-0.26Z" transform="translate(-0.3 -0.3)"/><path id="path3393-8-5-4-3" class="cls-4" d="M155,19.86H24.38V230.39H155V19.86Zm-12.28.92s-1.68,22.28,9.9,36.88c-7.08-1.08-11.13,0-15.25,2.94l0.56,0.58c5.68-3.5,10.49-2.58,15.42-2V87.82c0,1.39-5.9.77-9.52-2a17.09,17.09,0,0,1-4.93-4.76c-0.3-.49-0.62-1-0.71-1.07q-0.5-.58-6.18-11.55c-1.93-3.72-4.47-8.79-6.54-12.71-1.34-2.54-3.83-7.35-4-7.73-0.37-.8-3.08-6.11-4.13-8-2.79-5.1-7.28-14-8.89-17.19-0.35-.83-0.89-1.21.07-1.18a3.15,3.15,0,0,1,.55,0c0.17,0.09.38-.29,0.38-0.29ZM26.18,141.37v-2.26l38.05-31.45,1.21,1.57ZM63,86.28l-0.5.17c-1-4.37-.42-10.2.73-14.59,1.68-6.09,4.8-11,8.29-15.88C79.51,44.78,83,36.33,82.9,21.27L84,21.39c0,2.38-.36,4.17-0.45,7.33A57.1,57.1,0,0,0,83.86,38c0.18,1.63.28,2.68,0,2.89a1,1,0,0,0-.13.88c0,0.45-.08,1.35-0.08,1.35-1.82,9-11.6,31.95-20.62,43.16h0Zm4.75,20.38-2-2.48a1.74,1.74,0,0,1-.16-2.67c4-4.09,4-9.3.16-14-0.26-.59,1.21-3.6,1.21-3.6L70,84C74.82,89.82,76.12,100.12,67.79,106.66ZM70.6,83.52c0.1-.4-4.54-0.24-4.54-0.24,2.88-4.3,5.32-8.73,7.73-13.17,3.73-6.72,8.9-18.49,10.52-27,1.21,10,3,24.79,11.47,25.38,2.79,0.19,6-1.73,6.55-1.41L120,66.91a68.79,68.79,0,0,0,12.13,17.18,45.46,45.46,0,0,0,11.26,4.37c2.22,0.55,2.43.19,6.81,0.81a8.83,8.83,0,0,0,2.9-.32c-3.5,2.77-7.53,2-12,.8-0.25-.07-0.51-0.14-0.77-0.24L137,94.57c-7.47-1.78-31.43-.52-37.75,25.64,0,0,.65.33,0.5,0.15,5-22.71,26.22-27.24,36.32-25l-0.87,1.33c-16.77-2.06-30.42,8.47-33.67,23.4l0.32,0.29c6.29-22.57,32.74-30.93,49.14-15.28l3-2.14-0.1,2.89-40.32,33.92L112,138.14s-0.28.22-.61,0.48c-1,.87-1.45,1.08-1.16,1.57s1.42,1.58,1.47,1.7c-6.69,5.47-8.81,16-2.46,23.41,0.71,0.78.58,1,.45,0.11-5.7-6.23-5-17.24,2.13-22.46l1.43,1.88c-3.13,6.9-4.8,17.66,3.43,18.59,2.95,7.93-.44,17.33-4.23,23.63-4,7.26-8.87,13.29-11.91,21.19-1.47,3.3-3.82,13.08-3.7,20.56H95.94c0-3.05.2-6.67,0.23-9,0.12-11.27.11-10.6,0.36-10.89a2.44,2.44,0,0,0,.34-0.27A3.13,3.13,0,0,0,96.6,208a3.94,3.94,0,0,1-.22-1.2c0-.42.4-1,0.33-1.16-1.77-6.22-1.92-17.4-7.63-22.54-2.8-2.42-6.52-2.51-11.34-.53-10.63,0-9.06.57-17.65,0.08a79.9,79.9,0,0,0-12.52-17.61c-2.18-2.44-5.21-3.78-8.06-5.54a13.67,13.67,0,0,1,3.86-4.8,7.11,7.11,0,0,1,.87-1.23c29,2.79,35.24-25.36,33.92-24.65l-0.26.22c-7.92,29-36.09,28-50.26,15.41,0,0-2,1.75-2-.17,0-1.74.63-2.24,0.63-2.24L66,109.51c0.73,0.46,1.51,2,1.84,1.84,0.73-.39,1.81-1.18,1.78-1.64a19.55,19.55,0,0,0-1.45-2.62C78.81,96,74,91.09,70.6,83.52h0ZM85.67,21.39a0.58,0.58,0,0,1,.51.3c0.24,0.38-.72,2.63-1.32,3s-0.61-.06-0.2-2.23A1.24,1.24,0,0,1,85.67,21.39ZM144,21.46h9.35V56.94C146.47,47.23,142.91,36.07,144,21.46Zm-55.86.06a0.47,0.47,0,0,1,.5.22c0.24,0.6-1.11,3.18-2.78,5.33-0.87,1.11-1.3,1.43-1.57,1.17-0.23-.51-0.22-1.09.58-2a20.11,20.11,0,0,0,2.24-3.54A1.29,1.29,0,0,1,88.14,21.52Zm9.45,0.13a0.84,0.84,0,0,1,.62.13,18.34,18.34,0,0,0,7.73,7.85c0.45,0.26.24,0.9,0.39,1.36-3.48-.52-8-5.47-9.27-9.08C97.06,21.63,97.33,21.64,97.59,21.65Zm5.44,0c0.69,0.71,1.78,1.56,2,2.36a2.6,2.6,0,0,1,.15,1.33c-0.6.38-3.61-3.12-3.49-3.53A1.54,1.54,0,0,1,103,21.64Zm-13-.05a0.93,0.93,0,0,1,.81.22c0.38,1.53-3.1,7.47-5.63,9.16-0.9.6-1,.44-0.89-0.56,0-.68.11-0.62,1-1.51A17.8,17.8,0,0,0,88.89,24C89.91,21.74,89.66,21.6,90,21.59Zm2.36,0a0.91,0.91,0,0,1,.72.26,1.53,1.53,0,0,1-.15.92,26.12,26.12,0,0,1-7.33,10.58c-1.3,1-1.52,1-1.61,0-0.05-.6.22-0.78,0.83-1.2a17.8,17.8,0,0,0,6.46-8.89c0.21-.68.13-1.29,0.5-1.5A1.19,1.19,0,0,1,92.36,21.62Zm17.58,5.63c0.14,0.23,1.11,1.76.31,1.18a25,25,0,0,1-1.86-2c-2.23-2.54-2.3-2.38-2.25-3,0-.82-0.56-2.18.7-1.82C108.09,23,108.88,25.41,109.94,27.25ZM99.79,21.67a4,4,0,0,1,.8.09c1.47,2.77,5.05,5.2,5,5.19a5.35,5.35,0,0,1,0,1.42c-0.07.37-5.69-3.91-6.32-6.48A0.51,0.51,0,0,1,99.79,21.67Zm-4,.05c1.32,2.43,4,8,10.43,10.18a1.53,1.53,0,0,1,.6,1.78,18,18,0,0,1-12-11.92A1.05,1.05,0,0,1,95.8,21.72Zm-1.72.47c-0.22,0,3,9.39,12.24,12.18,0.8,0.25,1.27.6,1.21,1.07s0,0.67-.93.23a10.18,10.18,0,0,0-9.1-.41c-0.47.24-.94,0.89-0.57,1.3a1.67,1.67,0,0,0,1.42-.21c3.49-1.36,8.82-.56,9.77,1.58,0.67,1.52.78,2.64,0.42,2.83s-0.75-.37-1.59-1.1c-2.65-2.34-5.83-3-8.35-.74a5.88,5.88,0,0,1-1.28.6,1.31,1.31,0,0,0,.19,1.06,1,1,0,0,1,0,.94,4,4,0,0,0-.2,1.67c0.06,1.2.85,2.23,3.12,3.81,1.77,1.23,3.15,1.92,1,.17-3.71-3-4.39-4.25-2-3.2s5.74,0,8.1-1.81a2.75,2.75,0,0,1,1.7.16c1.76,4.15,3.2,9.67,5.54,15C112,60.49,102.28,68.25,95.34,68c-6-.24-8.1-10.08-9.43-15.52A34.33,34.33,0,0,1,85,44.56a0.34,0.34,0,0,1,.26-0.06,11.15,11.15,0,0,0,3.61.12c1.59-.37,1.91-0.66,2-0.42s-0.55.9-1.71,1.7a9.77,9.77,0,0,0-1.82,1.16c0.35,0.24,2.13-.71,2.43-1,0.46-.4.78-0.42,1-0.2s0.31,0-.55,2.12c-0.95,2.36-.86,2.57,1,4a8.69,8.69,0,0,1,1.37,1.23c0.18,0.29.3,0.63,0.38,0.74,0.31,0.42.12-.26-0.07-1.33a4.12,4.12,0,0,0-1.54-2c-1-.7-0.85-1.39,0-3.79,2.46-7.07,1.83-10.22-.88-11.75-1.22-.69-4.64-0.51-5.72.4-0.53.45-.46-0.43-0.37-0.49,6.5-4.49,8-8.77,9.68-12.89h0Zm12.55,3.46a75.26,75.26,0,0,1,5.52,6.11,24.57,24.57,0,0,1,1.76,2.91,0.51,0.51,0,0,1,.15.47,1,1,0,0,1-.44-0.23c-1.35-1-6.94-7.41-6.94-7.41C106.43,26.46,106.25,26.11,106.63,25.65Zm1.1,4.33s4.84,5.3,7.61,7.91A32.43,32.43,0,0,1,116.9,41a1.36,1.36,0,0,1-.59-0.33c-3.06-2.83-5.89-6-8.83-9,0,0-.23-1.25-0.24-1.76C107.31,29.61,107.6,29.89,107.73,30Zm10.49,13.59c0.65,1.06,1.13,2,1.44,2.64,0.52,1,.34,1-0.11.65-3.46-2.84-6.36-6.31-9.62-9.48C109.51,37,108.66,36,108.66,36s-1.06-2.29-.38-2.24a3.91,3.91,0,0,1,1.24,1.17C111.23,36.75,114.49,39.9,118.22,43.58ZM88,36a4.41,4.41,0,0,1,3.54,1.21c0.65,0.8.91,2.06,0.55,2.43s-1-.42-1-0.42c-3.36-1.89-4.52-1-6.34-.43-0.26.08-.54-0.62-0.2-1.32C85.23,36.31,86.93,36,88,36h0Zm21.15,1.79c3.6,3.62,7.25,7.64,11.14,10.75,0.55,0.47.92,0.77,1.17,1,0.51,1,1.7,3.46,1.7,3.46-4.17-2.93-13.56-13-13.46-13S108.94,38.22,109.18,37.79Zm-7,.6a5.41,5.41,0,0,1,1.94.43c1.81,0.72,3,1.49,1.08,1.23a14.38,14.38,0,0,0-4.46-.22c-1.78.29-1.91,0.48-2.07,0.2C98.23,39.29,100.18,38.41,102.15,38.39Zm-14.82.21a5.1,5.1,0,0,1,2.06.45c2.21,1,2.6,1.61.72,1.3a11.62,11.62,0,0,0-4.06.19,7.83,7.83,0,0,0-1,.38c-0.46.15-.58-0.2-0.39-0.77A2.6,2.6,0,0,1,87.32,38.6Zm16,2.84,0.46,0c-0.57,3.25-3.8,2.93-4.67.14H99.6C101.3,44.27,102.58,42.7,103.36,41.44Zm1.8,0.17c1.49,0,1.4.88-.16,1.49-1.19.46-1.33,0.38-.89-0.52S104.49,41.61,105.16,41.61Zm-15.38.12a2.1,2.1,0,1,1-4.16.27L86,42c1.33,2.51,2.87,1,3.35-.25h0.43Zm1.81,0.4c0.46,0.32.17,0.75-.82,1.36s-1.13-.12-0.39-1.06A1,1,0,0,1,91.58,42.12Zm7,0c0.18-.06.6,0.74,0.24,0.92a0.52,0.52,0,0,1-.56-0.45A0.44,0.44,0,0,1,98.63,42.12Zm12.16,0.18A103.27,103.27,0,0,0,124.2,54.83a24.81,24.81,0,0,1,1.37,2.8c-0.19.24-.3,0.21-0.85-0.07a91.47,91.47,0,0,1-13.83-13.5C110.71,43.43,110.31,42.8,110.79,42.3Zm-25.84.3a0.84,0.84,0,0,1,.5,1.1,0.53,0.53,0,0,1-.64-0.28,0.78,0.78,0,0,1,0-.69A0.21,0.21,0,0,1,84.95,42.6Zm27,4.15c0-.1,12.6,12.74,14.22,12.5,0.75,0.45,2.63,4.1,2.63,4.1s0,0.33-.26.18c-2.13-1.06-11.06-8.49-15.62-14A22.19,22.19,0,0,1,111.92,46.75Zm-15,1.89c2.2,1.07,1.25,3.26-1.07,1.86-1.83-1.12-3.28-1.22-3.27-.25a1.09,1.09,0,0,0,1,.93,17.49,17.49,0,0,1,2.61.59c1.39,0.3,2.43-.07,2.77-0.92a2.22,2.22,0,0,0-1.74-2.92c-0.92.08-.69,0.53-0.3,0.71h0Zm17.43,3.51a89.29,89.29,0,0,0,15,12.78,23,23,0,0,1,1.32,2.71c0,0.19-.23,0-0.23,0-4.43-2.57-10.27-7.67-15.81-13.45a14.46,14.46,0,0,1-.7-2.12A0.45,0.45,0,0,1,114.34,52.15ZM99.74,54.7a4.9,4.9,0,0,0-.8.51c-0.67.37-.89,0.47-2.55,0a1.31,1.31,0,0,0-1.58.15,1,1,0,0,1-1.25.17c-0.94-.42-1.38-0.12-2.25.19s-1.12-.07-1.86-0.24a16.42,16.42,0,0,0,0,3.13s0.78-.46,1.2-0.67a2.15,2.15,0,0,1,1.68-.27,8.2,8.2,0,0,0,4.15-.23,3.26,3.26,0,0,1,3.22.44c0.55,0.45,1.27.38,0.85-.45a5.17,5.17,0,0,1-.44-1.73c0.06-.58-0.07-1-0.29-1h0Zm16.68,2.36c3,2.85,6.61,7.2,15.2,12.24,0.45,0.79,1.05,1.83,1.43,2.65,0,0.23,0,.43-0.24.35A71.92,71.92,0,0,1,117.2,60a19.36,19.36,0,0,1-1.32-3C116,56.7,116.29,57,116.41,57.06Zm-1.25,1.09,3.28,6.19-11.06,0A42.83,42.83,0,0,0,115.16,58.15Zm-18.33.14c-1.82.72-2.09,0.88-3.89,0.43-1-.26-0.76.35-0.22,0.61A4.82,4.82,0,0,0,96.78,59C97.26,58.7,97.59,58,96.83,58.29ZM95,60.2c-1.9,0-3.7.69-3.83,1.47,0,0.15.13,0.32,0.43,0.14,1.29-.78,4.49-1,6.91-0.16,0.39,0.14.46-.1,0.05-0.44A5.53,5.53,0,0,0,95,60.2Zm24.14,2.64a71,71,0,0,0,14.74,10.81,20.71,20.71,0,0,0,1.5,2.79C128.12,72.92,120.25,66,120.25,66a25.31,25.31,0,0,1-1.52-3.16C118.7,62.5,119,62.76,119.11,62.84ZM121.57,68a82.56,82.56,0,0,0,14.1,9.4c0.3,0.29,1.06,2.09,1.31,2.29s-0.3.19-.84-0.09C132.21,77.79,123.78,72,123.78,72,123,70.64,121.81,69.25,121.57,68ZM42.69,91.39a41.72,41.72,0,0,0,1.62-3.91A3.72,3.72,0,0,0,47.62,86c0.91,0,1.6,0,2.84-.06,0-1.23,0-3,0-3,1.26-1.3,2.11-2.8.16-5.09,0,0-.08-1.07-0.11-2.89A20.9,20.9,0,0,0,47.63,75a3.15,3.15,0,0,0-5.38,0S40.95,75,40.06,75c0,0.49-.17,2.64-0.17,2.64s-3.79,2.6.14,5.65L40,85.89a15.65,15.65,0,0,1,2.22.19s-1.5,3.51-2.49,5.17c-0.34.09-.26-0.11-0.67-1.27a9,9,0,0,0-2.55-3.61c-1.28-1-3-1.3-4.25-2.16s-2-1.9-2.38-1.7A11.87,11.87,0,0,0,30,86.87c0.62,2.53,4.25,4.14,7.28,5.36a1.09,1.09,0,0,1,.44.46c0,0.42-.4.29-1.39,0.19a2.14,2.14,0,0,0-2.65,1.55,7.67,7.67,0,0,1-.84,1.23,4.81,4.81,0,0,0-.67.87c0,0.15-.36.94-0.67,1.59A3.44,3.44,0,0,0,31,99.53a31.92,31.92,0,0,0,.17,5.79,2.88,2.88,0,0,0,2.11,1.87,1.17,1.17,0,0,1,.77,1.53c-0.58,3.08-2.35,5-2.91,4-0.15-.27-0.31-1.53-0.35-1.51a4.06,4.06,0,0,0-.19,1.5,1,1,0,0,0,1.28.59c0.86-.31,1.54-1.17,2.08-3.13,0.22-.8.43-1.25,0.8-1.3,0.68,0,1.75,1.46,1.75,1.46-3.55,3-10.36,8.35-10.36,8.35V21.46H82.11A48.86,48.86,0,0,1,78.73,42.6C75.47,50,70.4,55.49,66.52,62.29a36.51,36.51,0,0,0-4.59,25.31A58.14,58.14,0,0,1,49.29,99.84l-4.46-4.72s0.67-.06,1.46-0.09c3.64-.41,7.57-0.93,9.09-4.73,0.22-.42.13-0.61-0.13-0.67-2.85.4-5.32,0-6.93,0.11-3.95.28-5.62,1.65-5.62,1.65h0Zm0.43,2.8S38.56,92,38.22,92c-2-.36-6.79-2.87-7.6-4.58-0.11-.22-0.37-3.34-0.46-4,0-.2.11-0.2,0.31-0.05C31,83.7,33,85,33.71,85.36c3,1.48,4.21,2.53,5,4.76a6.49,6.49,0,0,0,.49,1.26c0.24,0.26.35,0.24,0.65,0a15.06,15.06,0,0,0,2.51-4.91,0.92,0.92,0,0,0,.15-0.7c-0.24-.8-0.82-1.84-0.22-2.62-1.9.09-3.72-1.31-3.49-2.7,0.51-2.59,1.6-2.12,3.65-2.5-0.24-6,5.34-4.53,5.33-.36,6.13,0.52,3.23,6.21-.33,5.34,1.41,3.23-2.83,4.45-3.43,3.9-0.24,1-1.86,4.41-2.2,5.41,4.54-3.23,11.85-1.8,12.91-2C52,95.77,43.41,94.42,43.13,94.19Zm81.8-20.4c1.15,0.89,10.94,7,12.74,7.17,0,0,.86,1,1.58,1.86s0.91,1,1,1.12-0.25.16-.31,0.15c-4.4-1.92-8.88-3.94-12.68-7.13a4.58,4.58,0,0,1-.88-1C126,75.54,125,74,124.93,73.79Zm3.24,5c4.47,2.52,8.28,5,12.35,6.29a5.64,5.64,0,0,1,1.17.44c0.29,0.21,1.53,1,1.83,1.15,1.86,1.1,2.05,1,1.59,1.23s-3.78-.75-6.54-1.78c-4.9-1.82-6.63-2.85-8.4-4.45C129.77,81.2,127.91,79,128.17,78.74ZM39,92.82a2.93,2.93,0,0,1,1.61.71,21.67,21.67,0,0,0,3,1.9L44,95.61l4.4,5-11.33,9.25s-0.92-.94-1.21-1.26-0.2-.55.15-0.89a1.5,1.5,0,0,0,.25-1.15,1.22,1.22,0,0,1,.48-1.31,1.29,1.29,0,0,0,.48-1,1.49,1.49,0,0,1,.61-0.82,1.77,1.77,0,0,0,.77-2.12c-0.11-.35-0.17-0.44.28-0.75A2.1,2.1,0,0,0,40,98.69a1.38,1.38,0,0,0,0-.36c-0.16-.84.58-0.63,1.19,0.43a8.6,8.6,0,0,1,.59,2.59c0.2,1.27.33,1.61,0.4,1.43,0.39-1-.07-4.86-1.23-5.38-1.7-.76-3.12-2.31-2.7-2.92,0.15-.21.17-0.14,1.21,0.34a9.11,9.11,0,0,0,1.25.51c1.2,0,.47-0.48.08-0.53a5.31,5.31,0,0,1-2-1.22C38.45,93.08,38.6,92.83,39,92.82Zm-2.9.66c1.11,0,1.32.29,1.33,1.24,0,0.56.22,1,1.1,2.12a2.15,2.15,0,0,1,.58,1c0,0.3-.15,0-1.37-0.16a0.72,0.72,0,0,0-.8.17c-0.42.63-1.31,0-1.86-.95C33.75,94.7,34.21,93.5,36.08,93.48ZM57.17,94.8l12,14.8-1.36,1.06L55.77,96.06Zm-2,.91,1.29,2.19s-3.73,3.2-4.71,4.1c-7.93,6.45-25.82,21.08-25.82,21.08l-0.24-2.94Zm-21.74.4a1.63,1.63,0,0,1,.89.89,12.83,12.83,0,0,0,1.79,2.22c1.47,1.36,1.61,1.23.42,1.36a0.81,0.81,0,0,0-.92.72c-0.87,1.09-3.46-2.83-2.85-4.33A1.07,1.07,0,0,1,33.42,96.11Zm4.2,2.12a1.55,1.55,0,0,1,.84.28,0.72,0.72,0,0,1,.58,1c-0.1.59-.55,0.74-1.42,0-0.66-.63-0.55-1.24,0-1.27h0Zm19.22,0.36,1.41,1.83L26.18,126.5v-3C27,123.6,47.52,105.63,56.84,98.59Zm-24.91.3a2.66,2.66,0,0,1,.58.82,9.23,9.23,0,0,0,2.15,2.39c0.72,0.54.8,0.85,0.31,0.85a0.94,0.94,0,0,0-.65.49c-0.3.52-.33,0.4-0.8,0.12a3.53,3.53,0,0,1-1.61-1.77,5.24,5.24,0,0,1-.07-2.67A0.32,0.32,0,0,1,31.93,98.89ZM37,101a1.07,1.07,0,0,1,.87,1.7,0.8,0.8,0,0,1-1.17.08c-0.79-.47-0.93-1.19-0.29-1.59A1.19,1.19,0,0,1,37,101ZM31.74,103a2.21,2.21,0,0,1,1,.78,6.2,6.2,0,0,0,1.37.92c0.62,0.35.65,0.47,0.31,0.75a1.24,1.24,0,0,0-.75.5c-0.37,1.08-1.93-.17-2.08-1.72C31.52,103.48,31.51,103,31.74,103Zm3.92,0.13a1,1,0,0,1,.69,1.83,1.4,1.4,0,0,1-1.68-.83A1.2,1.2,0,0,1,35.66,103.17Zm23.95,0.89a1.08,1.08,0,1,1-1.08,1.08A1.08,1.08,0,0,1,59.61,104.06Zm-3.21.45a1.08,1.08,0,1,1-1.08,1.08A1.08,1.08,0,0,1,56.39,104.5Zm-21.54,1.44h0.2a0.81,0.81,0,0,1,.45,1.5,0.75,0.75,0,0,1-1.12,0C33.58,106.83,33.88,106,34.85,105.95Zm23.93,1.58a1.08,1.08,0,1,1-1.08,1.08A1.08,1.08,0,0,1,58.79,107.52Zm94.43,0.06v2.73L115.26,142,114,140.35Zm-96.61.23-2.81,6.33L53,112.52h-2.1l0.64-1.89-1.24-1.51Zm59.76,26.33,5-4c-2.15-10.9,6.44-15.23,14.59-12.07l5.07-4.34C131.61,105.76,109.47,111.16,116.36,134.15Zm-67.6-21.3a1.08,1.08,0,1,1-1.08,1.08A1.08,1.08,0,0,1,48.76,112.85Zm-3.26.26a1,1,0,0,1,1,1A1.06,1.06,0,1,1,45.5,113.11Zm17.37,2.19-5,4c1.28,10.43-3.78,15.75-14.64,12.17L38,135.64C52.22,145.45,70.8,132.81,62.87,115.31Zm-15.25.94a1.08,1.08,0,1,1-1.08,1.08A1.08,1.08,0,0,1,47.62,116.25Zm104.22,0.27a1.08,1.08,0,1,1-1.08,1.08A1.08,1.08,0,0,1,151.84,116.52Zm-106.44.26-3.17,6.29-0.79-1.89-2.13,0L40,119l-1.33-1.13Zm102.19,0.66,1,1.66,2.08,0.05-0.78,1.58,1.5,1.55L144.59,124ZM37.84,122a1.08,1.08,0,1,1-1.08,1.08A1.08,1.08,0,0,1,37.84,122Zm-3.09.12a1.08,1.08,0,1,1-1.08,1.08A1.08,1.08,0,0,1,34.75,122.13Zm107.6,0.64a1.08,1.08,0,1,1-1.08,1.08A1.08,1.08,0,0,1,142.35,122.77Zm11,0.17v2.4l-30.82,25.73-1.3-1.67ZM36.9,125.28a1.08,1.08,0,1,1-1.08,1.08A1.08,1.08,0,0,1,36.9,125.28Zm107.65,0.26a1.08,1.08,0,1,1-1.08,1.08A1.08,1.08,0,0,1,144.55,125.54Zm-3,.19a1.08,1.08,0,1,1-1.08,1.08A1.08,1.08,0,0,1,141.5,125.73Zm12,0.38-0.09,3.05c-9.6,8.22-29.24,24.54-29.17,24.55l-1.48-2.06S144.31,133,153.52,126.11Zm-118.6-.45-3,6.71-1.28-1.81-1.87-.13,0.45-1.81-1.72-1.17Zm102.71,2.65,1.89-.36-0.33,1.94,1.33,1.4-7,1.54,3.37-6.27ZM148,161c1.41,2.12,1.32,4.44.73,4.79-0.62-.35-1.16-1-1.81-1.24-3.25-1.41-5.84-2.56-6.3-4.63C138.9,155.25,146.87,159.24,148,161ZM131,148.58l10.92-8.93a11.11,11.11,0,0,1,2,1.26c0.11,0.43-.19.57-0.63,1a1.58,1.58,0,0,0-.34,1.08c0,0.61.19,0.89-.06,1.16a0.89,0.89,0,0,0-.72,1,1.76,1.76,0,0,1-.68,1c-0.45.45-.58,0.54-0.87,2a1.3,1.3,0,0,1-.23.75c-0.63.06-1.09,1.61-1.38,1.71a1.83,1.83,0,0,1-1.37-1.43,7.19,7.19,0,0,1,0-2.28,6.64,6.64,0,0,0,.17-1.74c-0.12-.45-0.41-0.17-0.41.46a10.67,10.67,0,0,1-.26,1.75,5.41,5.41,0,0,0-.41,2.27c0.3,0.85,1.39,1.22,1.88,1.67a7.2,7.2,0,0,1,1.72,2c1,1.9,1,2.22.78,3.65-0.15.82-.95,0.68-1.43,0.35,0,0-3.07-2.24-4.41-3.36a15,15,0,0,1-4.3-5.33h0Zm4.14,6.13a35.18,35.18,0,0,1,4.22,2.7l-2.78,5.8a11.32,11.32,0,0,1,.71,3.16c3.51-.27,5.42,5.67-0.06,5.13,0.62,3.67-5.27,6.55-5.11,0-6.14.48-4.08-6.51-.29-5.2-0.11-3,1.85-3.34,3.24-4.07A12.51,12.51,0,0,0,136.9,158l-0.28-.89h0c-1.16,2-6.12,2.63-11.57,1.55,1.48-3.51,6-3.41,10.09-3.93h0Zm-10.84,4.42c-0.19.7-.19,0.69,0.65,0.61,0.43,0,2.13,0,3.33,0,2.19,0.17,5.64.19,7.37-1.14,0.33-.32.52-0.3,0.58-0.12,0.15,0.86-1.53,3.67-1.53,3.67l-2.77,1.54s-1.14.05-2.54,0l0,2.51a3.26,3.26,0,0,0,0,5.61l-0.1,2.73,2.68,0c1.78,1.71,3.23,1.7,4.86.09h3.09v-2.95a3.25,3.25,0,0,0,.18-5l0-3-2.38,0a1.4,1.4,0,0,1-.51-0.69,40.64,40.64,0,0,1,2.07-4c0.43-.62.32-0.27,1,1.17,1,2.06,2,2.9,4.48,4.12a13.62,13.62,0,0,1,3.69,2.22c0.52,0.5.82,0.34,1-.4a6.06,6.06,0,0,0-.6-4.79c-1.9-3.18-5.22-3.32-5.75-4.06-0.07-.18.61-0.38,1.33-0.7a10.3,10.3,0,0,0,3.33-4,5.87,5.87,0,0,1,.47-2.17,4.55,4.55,0,0,0,.27-2.3,5.22,5.22,0,0,1,.09-2.34,5.14,5.14,0,0,0-.88-2.8c-0.22-1-.17-0.77.5-3.11,0.11-.38.86-3.64-0.1-3.86,0,0,.1.13,0.13,0.18a5.55,5.55,0,0,1-.14,3c-0.75,2.62-.77,2.92-1.46,2.7a16.53,16.53,0,0,1-1.4-1,12.79,12.79,0,0,1,.24-2.44c-0.15.41-.25,1.48-0.73,1.73a2,2,0,0,1-1.28-.75c-0.25-.22-0.8-0.6-0.8-0.6s7.75-6.67,10.68-8.88v98.77l-55.67,0c-0.7-6.12,1.13-14.21,4.17-22.32,1.88-5,4.57-8.73,7.61-13.21C115.28,184.72,119.68,176,118,165a17.44,17.44,0,0,1-.37-2.86,32,32,0,0,1,5.57-7.06c3-2.47,7.2-6.16,7.54-5.94a13.3,13.3,0,0,0,3.75,4.69c0.28,0.3.28,0.56-.35,0.7-4.16,0-8.44.88-9.83,4.57h0ZM27.43,131.07a1.08,1.08,0,1,1-1.08,1.08A1.08,1.08,0,0,1,27.43,131.07Zm104.28,0.24a1.08,1.08,0,1,1-1.08,1.08A1.08,1.08,0,0,1,131.71,131.31Zm2.34,3a1.08,1.08,0,1,1-1.08,1.08A1.08,1.08,0,0,1,134.06,134.27Zm-3.48.46a1.08,1.08,0,1,1-1.08,1.08A1.08,1.08,0,0,1,130.58,134.73Zm-3.84,2.46,1.94-.1a15,15,0,0,0-.51,2.15l1.58,1.17-6.85,1.17,3-6.1ZM122.06,155l-11.54-15,1.39-1.13,11.63,14.79Zm-1.41-14.53a1.08,1.08,0,1,1-1.08,1.08A1.08,1.08,0,0,1,120.65,140.44Zm24.23,1.68c0.94,0.73,0,1.75-.89,1.35a0.76,0.76,0,0,1-.11-1.43A0.9,0.9,0,0,1,144.88,142.11Zm1.25,0.7c1,0,2,2.3,1.82,3s-0.55.81-1.9-.34-1.36-1.18-.82-1.8a1.51,1.51,0,0,1,.89-0.83h0Zm-22.82.42a1.08,1.08,0,1,1-1.08,1.08A1.08,1.08,0,0,1,123.31,143.23Zm-3.33.42a1.08,1.08,0,1,1-1.08,1.08A1.08,1.08,0,0,1,120,143.64Zm23.62,0.77c1.06,0.16,1.34,1,.85,1.56a1,1,0,0,1-1.8-.89,1,1,0,0,1,.95-0.67h0Zm1.9,1.22c0.42,0,1,.54,1.73,1.5s0.83,1.42.61,2.08c-0.32,1-.52,1.13-1.21.2a20.67,20.67,0,0,0-1.3-1.63c-0.92-1-1.07-.72-0.52-1.46A1.39,1.39,0,0,1,145.5,145.63ZM143,146.76c1,0.49,1,1.14.48,1.59a1.64,1.64,0,0,1-2.06-.73C141.09,146.66,142.11,146.17,143,146.76Zm1.62,1.42c0.54,0,1,.52,1.64,1.59,1.12,1.82,1.18,2.43.23,3.63-0.69.86-.76,0.91-1.43-0.47a10.68,10.68,0,0,0-2.57-3.23c-0.41-.33-0.55-0.79-0.26-0.82l0.8,0a1.19,1.19,0,0,0,1-.37A0.94,0.94,0,0,1,144.62,148.18Zm-3.87,1.42a2.15,2.15,0,0,1,1.63.81c0.55,0.58.48,1.11-.59,1.21a2,2,0,0,1-1.81-1.26A0.73,0.73,0,0,1,140.75,149.6Zm2.53,2.11h0.08c0.45,0,.68.46,1.19,1.48,0.78,1.57.55,2.42-.79,3.11-0.91.47-1.61,0.61-1.73,0.07,0-.16,0-0.61-0.11-1a4.65,4.65,0,0,0-.75-2c-0.82-1.24-1-1.69-.07-1.32a1.77,1.77,0,0,0,1.54-.12,1.6,1.6,0,0,1,.63-0.21h0Zm-4.56,2.52c-0.31,0-.51.19-0.43,0.7,0.28,0.14.73,0,1.07,0.13s0.74,0.91,1.23.79c0.05-.63-1.18-1.6-1.87-1.62h0ZM45.62,165.16c-2.51-1.2-8.74-4-11.74-4-5.56-1.57-5.75-.86-7.7-1.36a20.54,20.54,0,0,1,19.85,5C47.21,166,46.57,165.61,45.62,165.16ZM52.2,189.6c5.91,10.29,11.41,21.9,20.65,39.08L72,229,36.73,229c1.74-19-8.47-37.07-9.17-36.37,8,0.15,14.6-1.4,16-4.35L42.43,188c-4.64,4-11.61,4.21-16.25,3,0.11-9.89-.31-20.34,0-30.23a14.06,14.06,0,0,1,12.91,5.64C44.21,173.11,47.68,181.72,52.2,189.6ZM36,162.19c1.41-.11,9.12,3.08,12.57,5.46A19.92,19.92,0,0,1,51,170.54c0,0.46-.68-0.11-4-2a77.61,77.61,0,0,0-7.68-3.65l-0.35-.15a3.9,3.9,0,0,0-.51-0.47c-0.91-.7-2.67-2-2.38-2.06h0Zm3.75,3.61a56.93,56.93,0,0,1,13.79,7.71,11.11,11.11,0,0,1,1.82,3.09c-0.55-1-10.26-6.87-13.66-8.2Zm2.72,3.73c0.42-.25,11.72,6.44,13.37,8.17a11.79,11.79,0,0,1,2.51,3.94c0,0.5-.54.07-1.55-0.87a53.78,53.78,0,0,0-12.78-8.47Zm2.1,3.89c5.3,2.25,12,7.67,15.33,10.9a6.29,6.29,0,0,1,1.55,2.61,0.55,0.55,0,0,1-.17.51c-4.36-5-13.94-10.76-15.21-11.2A20.33,20.33,0,0,1,44.61,173.41Zm17.61,15.65c0.61,0.62,1.58,2.82,1.36,3.08s-0.1.06-.35-0.12A99.33,99.33,0,0,0,48.7,180.68c-0.56-.28-2.44-3.26-2-3.32,3.12,1,12.06,8.19,15.57,11.71h0ZM49.3,181.94a2.89,2.89,0,0,1,.61.32c5.5,3,13.46,10.71,15,12.55a5.07,5.07,0,0,1,.84,2.25c-0.07.5-.27,0.08-2.49-2.12a80,80,0,0,0-12-9.76c-0.84-.58-0.68-0.65-1.28-1.71s-0.85-1.54-.62-1.52h0Zm35.15,0.12c3.92,0.11,5.46,3.1,7.88,8.59A45.56,45.56,0,0,1,95.22,205c0,0.27-.47,0-0.69,0a7.38,7.38,0,0,0-3.88-.16c-1.11.28-2.17,0.25-1-.5,0.37-.24,1.37-1.17,1.9-1.5,1.08-.67.42-0.66-0.65-0.14-0.81.4-1.35,0.91-1.68,1s-0.08-.63.12-1.12c1.14-2.82,1.49-4.49-.21-5a4.18,4.18,0,0,1-1.37-.85,7.53,7.53,0,0,1-.51-1.18,3.05,3.05,0,0,0-.13,1,3.2,3.2,0,0,0,1.28,1.87c1.18,0.85,1.42,1.09.77,3.1-0.9,2.82-1.09,3.52-1.26,4.17-0.09.38-.28,1-0.37,1.43a15.46,15.46,0,0,0-.25,4.33c0.39,3,3.58,4.44,7.86,2.79a0.58,0.58,0,0,1,.57,0c-3.41,3.48-7.24,5.71-9.47,12.75-2.87-5.81-6.94-10.36-13.7-12.18l-0.1-1.21c2.36,1.13,6.93,2.68,9.83.94,1.55-1.06,1.08-1.75-.8-1-2.24.87-6.3,0.77-8.32-.37a1.09,1.09,0,0,0-1,0c-0.11-.68-1.08-3.26-0.94-4.22-0.08-.14.62-0.14,0.75,0a8.91,8.91,0,0,0,6.36,2.81,5.43,5.43,0,0,0,4-1.89c0.11-.1.63-0.16,0.7-0.24a0.46,0.46,0,0,0,0-.39c0-.1-0.22-0.39-0.35-0.7a1.26,1.26,0,0,1-.17-0.79,0.7,0.7,0,0,1,.22-0.41,1.08,1.08,0,0,0,0-.73,0.45,0.45,0,0,1-.09-0.66c0.4-.45-3.44-4-4.19-4-0.27,0-.11.51,0.44,0.87,2,1.3,3.37,3,3.05,3.22a5.43,5.43,0,0,1-2-.41,7,7,0,0,0-6.26,1c-0.87.72-3.17,0.83-3.17,0.83,0-1.26-5.32-15.31-5.33-14.7,1.93-2.25,8-7.59,14-9.89a13,13,0,0,1,5.21-.75h0Zm-23,3.14,11,0.17c-2.77,1.4-7.8,6.42-7.8,6.42-1.44-2.91-1.88-4.36-3.21-6.59h0Zm-9.52,1.46c0.82,0,9.56,7.15,10.8,8.84,0.15,0.2,1,1.14,2,2.08,2.26,2.27,3.19,3.59,3.2,4.53,0,0.44-.4.15-1-0.51a64.6,64.6,0,0,0-13.07-11.66c-0.64-.34-2.61-3-1.94-3.27h0ZM81.83,188c-0.25,0-.21.23-0.07,0.45,1.39,1.23,5,1.18,6.31.18s-0.36-.43-0.82-0.22a5.58,5.58,0,0,1-3.79,0,13.73,13.73,0,0,0-1.62-.42h0Zm3.38,2c-1.28,0-2.62.4-2.32,0.87,0.11,0.17.46,0.5,1.3,0,1.21-.6,3.69.19,3.76,0.21a3.61,3.61,0,0,0-1.19-.87A4,4,0,0,0,85.21,190Zm-30.85,1.34c4.7,2.88,10.42,8.66,13.85,12.78a4.19,4.19,0,0,1,1,2.1c0,0.74-.15.33-3.27-2.84a90.09,90.09,0,0,0-8.58-7.77c-1.47-1.07-1.73-1.21-2.42-2.49s-0.88-1.79-.57-1.77h0Zm29.26,1a4.34,4.34,0,0,1-3.19-.06c-1-.36-0.79-0.05-0.4,1.08a6.86,6.86,0,0,1,.29,1.35c0,0.25,0,.27.73-0.14s0.77-.48,2.12-0.16,1.4,0.2,2-.14,0.68-.47,1.07-0.32a2.88,2.88,0,0,0,2.58-.08,1.09,1.09,0,0,1,1.33,0c0.47,0.24.65,0.09,0.46-.38a6.62,6.62,0,0,1-.21-1.23c0-.48-0.12-0.91-0.32-0.81a4.58,4.58,0,0,1-2,.76c-1.29,0-2.43-.8-4.45.08h0Zm-57.43,1C37.89,207.9,36,229,35.63,228.84l-9.45,0V193.26Zm30.66,3a72.65,72.65,0,0,1,13.32,13c0.52,0.69.1,0.9,0.36,1.73,0.1,0.31-.42-0.15-1.91-1.75-1.85-2-4.89-5-6.9-6.74a24.43,24.43,0,0,1-3.3-3c-0.37-.54-1.87-3.13-1.58-3.21h0Zm26.31,1.35H83a1.81,1.81,0,0,0-1.08,3.27c0.54,0.5,1.39.79,1.38,0.52a1.78,1.78,0,0,0-.46-0.48c-1.19-.92-1.07-2.35.29-2.36,0.47,0,.5.16,1.58,0.94,1.27,0.92,2.78.92,2.76,0a1.13,1.13,0,0,0-1.4-1.26,3.15,3.15,0,0,1-1,0,3.64,3.64,0,0,1-.75-0.35A2.87,2.87,0,0,0,83.15,197.57Zm-23.27,4.31c3.58,2.41,8.49,7.86,11,11.08a2,2,0,0,1,.38,2,0.93,0.93,0,0,1-.5-0.19c-2.91-3.43-6.2-6.56-9.43-9.73C61.34,205.08,59.42,202,59.88,201.88Zm34.68,5.22-0.77.39c-1.17-1.76-2.24-1.79-3.14.27l-0.58-.15c-0.43-.47,1.54-5,4.49-0.51h0Zm-0.17-1.5a1.24,1.24,0,0,1,1,.52,0.43,0.43,0,0,1-.46.63,4.2,4.2,0,0,1-.71-0.85C94.07,205.69,94.14,205.59,94.38,205.59Zm-13.14,2.16-0.86,0c-1.65-2.17-2.88-.71-3.62.19l-0.93-.13c0.15-2.39,4.35-3.22,5.41-.11h0Zm8.41-1.86A1.11,1.11,0,0,1,90,206a3.22,3.22,0,0,0-.48,1.42,1,1,0,0,1-1.17.06c-0.66-.6.36-1.57,1.27-1.55h0Zm-13.51.24c0.41,0,.29,0,0.11.2a4.14,4.14,0,0,0-.55,1c-0.06.26-.1,0.35-0.34,0.36a10.74,10.74,0,0,1-1.38-.14c-0.35-.33,1.1-1.4,2.16-1.43h0Zm5.23,0.3c0.27,0,.21.36,0.12,0.51s-0.24.27-.34,0a1.08,1.08,0,0,0-.18-0.29c-0.13-.17-0.12-0.18,0-0.21Zm14.13,1.73c1,0,.33,1.69-1.07,2.1a5.25,5.25,0,0,1-5.13-.43c-1-.59-1.34-1.21-0.44-1,3.38,0.94,4.2.76,6.24-.56A0.66,0.66,0,0,1,95.51,208.17ZM63,207.8c3.37,2.86,5.9,6.11,8.59,9.1a2.31,2.31,0,0,1,.68,1.74c-0.13.54-1.23-.75-1.23-0.75s-6.57-7.06-6.57-7.06A20,20,0,0,1,63,207.8Zm10.06,1a9.14,9.14,0,0,1,1.45.31c3.24,1,4.22.95,6.08,0.09,1.19-.55,1.68-0.47,1.17.35-0.93,1.51-4.23,1.68-6.71.84a6.82,6.82,0,0,1-1.86-1.09C72.82,208.94,72.73,208.78,73,208.79Zm14.94,1a2.84,2.84,0,0,1,1,.46c2.71,1.54,4.72,1.26,6.39.23,0.3-.28.47-0.14,0.51,0.12a2.39,2.39,0,0,1-.24,2.07,3.31,3.31,0,0,1-1.31.6c-2.63.89-5.82,0.25-6.44-1.73-0.2-1-.33-1.73.1-1.75h0ZM66.44,214h0a4.14,4.14,0,0,1,1.32,1.2c3.61,4.11,5.61,6.48,5.24,7.67,0,0-.06.26-0.21,0.12A24.22,24.22,0,0,1,68,217.45C66.69,215.3,66.14,214.06,66.44,214Zm29.11,2.89c-3,2.34-6.74,7.91-7.08,10.65a2.2,2.2,0,0,1-.2,1.11,1.16,1.16,0,0,1-1,.07c-0.28-.05-0.22-0.08-0.28-0.4-0.26-1.26.94-4.42,3.42-8.14,1.3-2,4.26-4.59,5.08-4.61C96.08,215.84,95.55,217,95.56,216.93ZM73,215.66a2.88,2.88,0,0,1,1,.31A18.87,18.87,0,0,1,79.53,219c3.3,2.7,7,9.12,5.89,9.72-0.47.26-.81,0.1-1-0.5a14.89,14.89,0,0,0-.79-1.77,19.93,19.93,0,0,0-9.14-8.87c-1.5-.73-1.65-0.65-1.76-1.27-0.09-.46,0-0.66.27-0.67h0ZM95.51,218c0.27,0,.34.48,0.25,1.49-0.08.82-.12,0.81-1,1.77a14.92,14.92,0,0,0-4,6.82,0.68,0.68,0,0,1-.21.43,1.52,1.52,0,0,1-1.18.16,1,1,0,0,1-.13-0.93,20.87,20.87,0,0,1,4.9-8.54,4,4,0,0,1,1.4-1.22h0Zm-22,.07c1.45,0,6.6,3.83,8.68,7.21,1.36,2.21,1.73,3.12,1.42,3.44a1.7,1.7,0,0,1-1.28,0c-0.35-.14-0.48-0.67-1.13-1.9a15.12,15.12,0,0,0-6.8-6.76,2.86,2.86,0,0,1-.92-0.55c-0.18-.37-0.41-1.4,0-1.48h0ZM74.34,221a11.94,11.94,0,0,1,2.73,1.66c1.84,1.36,4.64,5.5,4.06,6.09a1.42,1.42,0,0,1-1.16.07,21.84,21.84,0,0,0-5.57-6.17C74.1,222.08,73.36,220.83,74.34,221Zm-4.09.62a4.21,4.21,0,0,1,1.06,1c1.85,1.95,3,4.11,2.75,5.2-0.23.92-.5,0.42-2.61-3.63C70.55,222.42,70.12,221.61,70.25,221.58Zm25.29,0.05a6.34,6.34,0,0,1-.17,2,2.08,2.08,0,0,1-.6.91,11.73,11.73,0,0,0-1.7,3.24c-0.3.89-.16,1.1-1.25,1-0.51-.07-0.38-0.2-0.19-0.79,0.68-1.92,2.32-5,3.9-6.33h0Zm-21,2.11c0-.58,5,4.41,4.28,5a1.53,1.53,0,0,1-1.29-.09,18,18,0,0,0-2.88-3.44Zm20.74,1.57h0a9.53,9.53,0,0,1-.09,3.37,1.76,1.76,0,0,1-1.37,0,0.44,0.44,0,0,1-.2-0.57C93.84,227.52,94.91,225.4,95.26,225.32ZM76.63,228.7a1.49,1.49,0,0,1-1.48,0,4.59,4.59,0,0,1-.09-1.89C75.43,226.58,76.75,228.37,76.63,228.7Z" transform="translate(-0.3 -0.3)"/><path id="path3389-2-3-5-0" d="M111.75,20.24l0.62,0.82-3.62,0c0.59,0.5,14,27.57,31.12,58.85,2.84,5.49,8.25,7.47,14.53,7.71l-16.64-26.9c1.77-1,5.29-3.56,7.42-3.08,0.13,0.66.76,0.4,0.77-.19l0.77,0L147,57.9h3.23l0.26-.38,2.79,0.4c-7.45-9.22-11.38-23.42-10.1-37.29l-24.7.05-0.33-.43h-6.4Zm-3,.83s0,0,0,0h0Zm-28.4,18c-2.81,9.11-9.75,16.6-13.88,24.14-4.42,8.23-5.46,15.4-4.22,23.23l0.81,0.07a134.89,134.89,0,0,0,20.81-43.5c0.09-.33-0.06-0.91,0-1.25a1,1,0,0,1,.09-1c0.24-.25.15-1.24,0-2.86a66.58,66.58,0,0,1,0-13c0.31-3.36.29-3.89,0.29-3.89l-1.61,0a50.43,50.43,0,0,1-2.32,18h0Zm38.8-17.65,2.65,0.05c0.41,8.13,7.23,9.19,8.29,9.07-1.74,5.5,1.14,11.54,8.09,12.39-1.59,5.1,1.23,11.82,6.78,11.64L145.55,55a6.81,6.81,0,0,0-.41,2.27,18.22,18.22,0,0,0-2.71.43C135.24,46.83,119.15,21.47,119.15,21.47Zm23.56,0c-0.8,9.09,1,21.57,5.26,28.94a3.74,3.74,0,0,1-.22.63c-0.4.61-.61,0.08-0.85-0.41-0.91-1.68-2.62-1.94-3.37-1-1.65,2.26.14,3.16,1.53,4.44-5.69-.35-7.59-6.64-6.27-9.75a4.13,4.13,0,0,0,.7,2.12c1.6,2.44,3.94.38,3.27-1.55a10.9,10.9,0,0,0-1.3-2.13,7.33,7.33,0,0,0,2-.55,1.59,1.59,0,0,0,.73-1.71,3.47,3.47,0,0,0-.48-1.5,2.3,2.3,0,0,0-1.77-.85c-1.17.08-1.32,0.89-2.09,1.45-0.19-1.46-1.12-2.57-2.65-2.3a2,2,0,0,0-1.28,3A8.88,8.88,0,0,0,137.25,42c-8.18-.92-7.29-10.67-6.38-10.49,0,0,.25,0,0.17.33-0.47,2.39,2.49,3.81,3.78,2.08,0.82-1.41-.95-3.63-0.95-3.63a8,8,0,0,0,1.72-.56c2.14-1.24-.14-4.79-2.13-3.92-0.7.32-.87,1-1.56,1.31a4.35,4.35,0,0,0-1.3-1.52c-2.24-1.25-3.64,1.71-2.4,3a7.6,7.6,0,0,1,1.23,1.08c-7-.88-6.88-8.19-6.73-8.13ZM83,21.53h1c-0.28,4.33-.9,10.05-0.5,14.28,0.47,4,.49,4.61.2,5a0.84,0.84,0,0,0-.11,1,1.86,1.86,0,0,1,0,1,88.46,88.46,0,0,1-3.29,10.45c-4.47,12.38-11.77,25.89-17.5,33,0,0-.26,0-0.27,0A36,36,0,0,1,66,64.8c3.54-6.85,9.11-12.7,12.41-19.88A49.61,49.61,0,0,0,83,21.53h0Zm35.22,0,23.32,36.4L137.24,60,113.37,21.62Zm13.67,7.11a1.1,1.1,0,1,1-1.09,1.1A1.09,1.09,0,0,1,131.84,28.6Zm7.73,12.14a1.11,1.11,0,1,1-1.11,1.11A1.11,1.11,0,0,1,139.57,40.74ZM84,42.91c0.4,1.59-7.4,25.39-18.48,40.54l4.84,0.1,0.15,0.54c6.78,10,2.54,18.94-2.93,23.07l1.9,2.54-1.71,1.39-1.71-2c-13.87,10.45-40.94,33.57-40.94,33.57l0.15,3.71,2.11-1.67C41.13,158,70.24,157.26,77.88,129.72l2,0c-4.62,20.19-23.41,28.09-37.6,24.74L39,159.3l0.89,0.48c-0.16-.26-0.31-0.34-0.07-0.58l2.82-3.65c21.22,2.73,34-9.33,38.19-25.66l2.71,0a66.53,66.53,0,0,1-17.87,35.26c-6.59,0-18.19-.18-18.19-0.18,4.22,4.11,12.28,16.64,12.61,17.91,0,0,8.29.27,17.19,0,3.26-1.47,7.62-2.06,9.66-1,3.58,1.81,6.95,8.53,8.46,19.32a45.77,45.77,0,0,0,.85,4.52,0.35,0.35,0,0,0,.3.16c0.14-.07-0.22.49-0.23,0.91a2.29,2.29,0,0,0,.2,1.27,0.55,0.55,0,0,1,.19.58,4.71,4.71,0,0,1-.51.53c-0.07,6.28,0,12-.38,19.72h1.23c0-12.44,3.73-23.94,9.49-31.86,3.5-5.2,7.21-10.8,9.26-16.14a30.61,30.61,0,0,0,1.39-17.64l-0.84,0c-5.07-3.49-7.13-10.93-.89-16.24l-2.21-2.89C107,149,105.58,158,112,165.36h-2.53c-6.3-7.89-4.9-17,2.37-23.42l-1.63-2.08,1.77-1.57,1.6,1.75L154.26,106l0-3.73-3.11,2.54c-18.23-16.92-45.26-5-49.22,15.33l-2.48,0C104.61,98.18,123.75,92,137.6,94.9L141,89.71a20.32,20.32,0,0,1-7.28-4.36,18.22,18.22,0,0,1-2.3-2.18c-6.56-7-11-16.62-11.22-16.64l-17.83,0c-2.62,1.3-7.1,2.78-9.55.78-5.28-4.28-7-12.91-7.78-18.47-0.22-1.73-.41-4.74-0.57-5.74A0.41,0.41,0,0,0,84,42.91h0Zm63.22,9.6a1.09,1.09,0,1,1-1.08,1.09A1.08,1.08,0,0,1,147.24,52.51Zm2.32,1.28a13.24,13.24,0,0,1,2.1,3.57,1.7,1.7,0,0,1-1.25-.24,5,5,0,0,0-1.27-2.85Zm-3.26,1.6a1.93,1.93,0,0,1,.39,1.78,1,1,0,0,1-.88-0.09A1.92,1.92,0,0,1,146.3,55.39ZM75.38,67.26l16.55,0c2.88,2.22,5.7,1.92,9.78.15h18.41l1,1.9H74.48C74.74,68.62,75.38,67.26,75.38,67.26Zm-1.37,3h47.64l1.2,1.95h-50Zm4.6,2.83H84l-2,3.37H76.46Zm11.87,0h5.1l-2.27,3.37H88.26Zm16.5,0-2.15,3.37H99.65l2.23-3.34Zm6.4,0h5.11l-1.91,3.37h-5.29Zm-68.63.52c-3.31,0-2.7,4.37-2.39,4.24-2.08-.48-3.62.51-3.87,2.29a3.06,3.06,0,0,0,3.57,3.14,3.88,3.88,0,0,0,.33,2.7,11.71,11.71,0,0,1-1.23,3c-1.51,3.15-1.81,3.3-2.49,1.23-0.73-2.23-1.87-3.36-4.82-4.8a18.15,18.15,0,0,1-2.48-1.49c-1.32-1-1.33-1-1.27,1,0.08,2.63.88,3.79,3.67,5.34a20.46,20.46,0,0,0,4.47,1.83,14.31,14.31,0,0,1,3.38,1.52,8.35,8.35,0,0,0,3.13,1,16,16,0,0,0,7.53-1.53c1.21-.7,1.68-1.33,2.57-3.13a20.75,20.75,0,0,1-4.46-.21c-2.9-.17-4.35,0-6.55,1.15-1.84,1-1.94,1.13-1.18-.45a23.52,23.52,0,0,0,1-2.44,1.08,1.08,0,0,1,1.21-1,3,3,0,0,0,2.94-3,4.88,4.88,0,0,0,0-1c1.2,0.18,3.66-.42,3.59-2.92-0.07-2.25-1.67-2.77-3.63-2.92A3.15,3.15,0,0,0,44.75,73.58Zm0,0.7c2.9,0,2.84,2.7,1.57,4.21l-1.54-1.28-1.25,1.15C42.21,77.5,42.22,74.26,44.79,74.28Zm79.42,0,1.43,2.12h-2.95ZM70,77.35h5.47l-2.19,3.09H68.12S69.28,78.47,70,77.35Zm17.23,0-2.07,3.22H80.4l1.91-3.15Zm6.4,0h4.94l-2,3.43H91.75Zm11.62,0h5l-2,3.43H103.3Zm11.33,0h5.15l-2.13,3.43h-5ZM44.86,78l2.46,2.49-2.39,2.41-2.47-2.37Zm6.23,2.42c-0.44,2.89-3.21,2.73-4,1.32l1.13-1.29-1.38-1.36C48.18,76.9,51.42,78.23,51.09,80.41ZM42.84,79l-1.33,1.5L43,81.93C42,83.24,38.42,83.14,39.15,80A2,2,0,0,1,42.84,79ZM127,78.66l1.52,2.1-2.85,0ZM67.75,81.23l61.12,0.2,1.64,2c-21.34.37-42.23-.34-64-0.36Zm-21.49,1.3c2.42,1.49.63,4.63-2,4.1-1.94-.85-2.33-2.87-0.59-4l1.37,1.13Zm21,1.2H65.55l-1.62,1.91c6.14,6.49,5.92,12.13.19,17l2.3,2.59C72.84,99.77,74.26,91.11,67.22,83.74ZM73.52,84c3.44,5.4,6.42,15.63-3.84,25l-1.24-1.51c8.93-8.76,6.83-16.12,2.83-23.42Zm1,0.13,13.88,0.05C85.39,95.54,83.3,102.24,83,120l-4,0c0.44-.41-2.08-10.74-5-14.32C80.12,95.24,76.8,89.33,74.48,84.12Zm-43.65,0a6,6,0,0,1,1.69.89c0.86,0.52,2,1.18,2.49,1.46a6.45,6.45,0,0,1,3.4,3.63c0.41,1.16.15,1.18-1,.09a33.47,33.47,0,0,0-4.1-3.1c-0.81-.56-1.07-0.47-0.6.21a8.88,8.88,0,0,0,2.56,2c1.08,0.66,2.56,2,2.44,2.17s-0.29.16-.81-0.07l-1.72-.71c-3-1.23-4.31-2.74-4.49-5.26C30.61,84.54,30.56,84.14,30.83,84.14Zm63.33,0.05a3.71,3.71,0,0,1,.47.78c0.12,0.5-.37,1-1.91,1.64-0.53.24-1,.36-1,0.67,0.07,0.72,1.45,1.83,1.28,2.82-0.32.76-2.24,1.5-2.72,2.39,0,0.61,1.25,1.55,1.07,2.38a4.88,4.88,0,0,1-1.09,1C89.1,97,89,97.13,89.47,98c1,1.92,1.08,1.78-.34,3.14s-1.4,1.36-.72,2.55,0.7,1.23-.29,2.05-0.93,1-.41,2,0.62,1-.23,1.74-1.17,1-.48,2.07,0.77,1.09,0,2-0.86.93-.44,1.53a1.19,1.19,0,0,1,.07,1.79c-0.59.9-.59,0.83,0,1.67a2.54,2.54,0,0,1,.38,1.49H85.22a4.26,4.26,0,0,0-.21-1.36,1.38,1.38,0,0,1,.1-1.94c0.59-.8.49-0.87-0.06-1.68s-0.48-.81.25-1.73,0.7-1.25.32-1.74c-0.9-1.15-.9-1.64,0-2.4,0.69-.58.75-0.84,0.16-1.83s-0.66-1.06.41-2,1.08-1,.35-2.09S85.87,102,87,101s1.17-1.08.41-2.43-0.71-1.25.67-2.49,1.85-1.3.47-3c-0.77-1.31-.22-1.44,1-2.09,2.2-1.35,1.2-1.27.27-3.27-0.77-1.34-.33-1.35,1-2A11.59,11.59,0,0,0,92,85.17c0.9-.51.41-1,0.41-1h1.76Zm2.88,0,6.63,0.09C96,94.15,92.29,106.75,91,120l-2.5,0C88.31,109.62,91.56,96.66,97,84.22Zm34,0.23c3.79,3.2,6.6,5,8.6,5.76,0,0-2.67,4.45-2.88,4.29A32.44,32.44,0,0,0,99,119.93l-2.42,0a53.44,53.44,0,0,1,6.56-20.6A57.06,57.06,0,0,1,115.21,84.4Zm-26.44-.16,3.26,0.06s0.61,0.74.89,1c1.41,1.6,1.53,1.28-1.57,3-2,1.11-2.83,1.63-2.94,2.09s0.86,1.4,1,2c0,0.07-2.67,1.86-3.15,2.12-0.67.33-.71,0.61,0,1.77,0.77,1.34.71,1.29-1,2.45s-1.93,1-1.25,2.15c1,1.57.51,1.92-1.74,3.14-0.57.31-.58,0.62-0.19,1.69,0.55,1.48.69,1.34-.47,2.14-1.37.95-1.62,1-1.31,1.56,0.88,1.69,1.24,2.1.05,2.65-0.9.42-.92,0.66-0.42,1.77s0.63,1.08-.26,1.71-1.31.46-.51,1.41a1.17,1.17,0,0,1,.06,1.82,1.08,1.08,0,0,0-.52,1.06l-1.14,0a1.3,1.3,0,0,1,.32-2c0.15-.28,0-0.48-0.39-1.13-0.5-.9-0.48-1,0.24-1.54s0.75-.4.26-1.58c-0.56-1.37-.53-1.53.35-2.17s0.88-.77.29-2-0.62-1.27.92-2.3c1.09-.72,1.1-0.68.53-2-0.4-.93-0.12-1.25,1.36-2.26,0.84-.58.91-0.7,0.51-1.39-1.1-1.91-1.08-2,.8-3.19,1.54-1,1.53-1.09.94-2.43s-0.7-1.34,1.42-2.61c1.74-1,1.84-1,1.12-2.25-0.89-1.57-.84-1.31,2.65-3.32,1.26-.87,2.39-0.57,1.14-2C105.29,85.05,104.62,84.29,104.62,84.29ZM43,86.88c0.24,0,.43.29,0.42,0.84A6.81,6.81,0,0,1,42.65,90c-0.74,1.58-1.47,2.75-1.86,2.75-0.91,0-.89-0.2.32-2.57,0.55-1.09,1.12-2.33,1.21-2.57A1,1,0,0,1,43,86.88Zm11.22,3.57c0,3.34-10.42,5-11,3.34,1.82-1.43,7.2-.8,8.34-2.07-1.37-.08-3.23.15-4.51,0.17-1.59,0-4.16.71-4.19,1-0.17-.88,2.73-2.53,5-2.63S52.4,90.4,54.21,90.45Zm0.89,5.1s-20.35,16.9-30.41,25.08l0.06,3.65L57,97.82ZM55,96.38L56.34,98,26.12,122.68,26,120.09Zm95.51,8.67-1.09,1.16c-29.51-22-56.69,11.43-41.7,35.37a6.09,6.09,0,0,1-1.18,1.07C89.88,114.87,121.84,82.34,150.55,105.05Zm-16.24-4.83a9.64,9.64,0,0,1,6.06,2.74c1.52,1.83,1.08,2.65-.85.92-2.07-1.51-3.78-1.86-.91-0.08a4.49,4.49,0,0,1,1.23,1.25c0.11,0.31-.43,0-2.84-0.9a8,8,0,0,1-3.72-2.91C132.94,100.53,133.43,100.22,134.31,100.23Zm-6.21.05a4.93,4.93,0,0,1,1.32.13A9,9,0,0,1,133,102c0.54,0.42.37,0.72-.26,0.45a16.44,16.44,0,0,0-3.45-1c-0.6.06,0,.46,0.86,0.67,1.91,0.48,2.85,1,1.49,1a35.14,35.14,0,0,1-4.66,0c-1.41-.17-3.53-1.46-3-1.93S126.53,100.29,128.1,100.28Zm-6.05,2c2.5,0,3.86,1,1.12,1.16-4.7.75-5.61,1.77-.39,0.55,1.21-.28,1.19.15,0.35,0.57-0.69.33-1.54,0.5-2.25,0.85a10.14,10.14,0,0,1-5.38.22C113.79,105,119.11,102.23,122,102.27Zm20.14,0.43c1.26,0,4,1.87,5.16,3.6,0.78,1.13.39,1.94-.79,1-0.24-.18-1.94-1.64-2-1.67s1.41,1.44,1.64,1.86,0.65,1.18-.2,1.2c-1.33-.16-4.44-3.66-4.46-5.38A0.57,0.57,0,0,1,142.18,102.7Zm-15.69,1c0.53,0,.26.26-0.74,1-1.81,1.28-.86,1,1.25-0.07a8,8,0,0,1,1.69-.64c0.27-.05.6-0.12,0.72-0.16,0.57-.17.13,0.53-0.79,1.27a16.87,16.87,0,0,1-5.65,3.16c-1.93.48-2.34,0.54-1.62-.67,1.13-1.92,2.78-3.46,4.36-3.76A5.71,5.71,0,0,1,126.49,103.68Zm6.49,0a15.49,15.49,0,0,1,3.36.49c1.1,0.34.81,0.42-.51,0.56-2.48.27-1.45,0.56,1,.52,3.29,0-1.65,1.19-3.25,1.43a15.07,15.07,0,0,1-4.34-.5c-1-.2-0.42-1,1.55-1.9A5,5,0,0,1,133,103.71Zm20.33,0.45,0.09,2.13-39.82,33.43-1.35-1.5ZM139.76,106c1.59,0,3.88,1.08,3.64,1.75-0.09.25-.27,0.24-1.48-0.09-0.8-.21-2.22-0.44-2-0.26a11.13,11.13,0,0,0,1.6.59c1.4,0.34,3.08,1.13,2.71,1.37-0.65.4-1.25,0.09-2,0-1.93-.27-5.09-1.24-5.61-1.73S138,106,139.76,106Zm-18.57.12c0.29,0,.39.28,0.12,0.65a12.72,12.72,0,0,0-1,1.69,10.22,10.22,0,0,1-3.45,3.68c-1.28.8-1.46,0.66-1.35-1a5.69,5.69,0,0,1,3.12-4.4c0.8-.11,1.26-0.33.42,0.69-1.5,1.8-.47,1.62.92-0.43A1.63,1.63,0,0,1,121.18,106.11Zm-5.17.24c0.86,0,1.15.3,0,.82a17.15,17.15,0,0,0-3.2,2.13c-0.09.27,0.7-.16,2-0.87,1.74-1,1.89-.93,1.05.16a12.15,12.15,0,0,1-5,3.35c-2.51.69-2.45,0.21-1-1.67,1.34-2,2.48-3,4.19-3.56A7,7,0,0,1,116,106.35Zm-42.65.31c9.12,15.8,4.06,31.85-6.53,40-11.07,8.56-28.29,8.05-38.45-2.22l1.41-1.34s16,16.39,36.2,1.85c10.24-7.38,14.47-24.81,6-37Zm-40.88,0-0.07,0a20,20,0,0,0-1.7,5,1.26,1.26,0,0,0,.37,1.15,0.71,0.71,0,0,0,.74,0c0.77-.35,1.2-0.89,1.87-2.59a4.54,4.54,0,0,0,.43-2.43,1.63,1.63,0,0,0-.6-0.73A2.81,2.81,0,0,0,32.48,106.7Zm0.18,0.71a1.69,1.69,0,0,1,1.18,1c0,0.74-.42,2-0.73,1.79-0.53-.66-1.13-0.24-1.23-0.48a5,5,0,0,1,.72-2.32h0.07ZM131.21,108a16.55,16.55,0,0,1,11.05,3.83l-1.58,1.46a17.24,17.24,0,0,0-19.83-.16c-4.75,3.32-8.95,10.67-4.83,21l-1.49,1.35a18.65,18.65,0,0,1,6-24.54,20.09,20.09,0,0,1,10.26-3h0.39Zm-60,1.22a1,1,0,0,1,.29.9,1.89,1.89,0,0,1-.68,1.54c-0.45.19-.74-1.17-0.74-1.17A5.23,5.23,0,0,1,71.21,109.21Zm72.65,0.47a2.71,2.71,0,0,1,.46,0c0.45,0.06.46,0.46,0,.85a0.74,0.74,0,0,1-1.16.1c-0.41-.3-0.44-0.53-0.08-0.78A1.61,1.61,0,0,1,143.86,109.68Zm-77.93.09,1.35,1.67-4.66,3.77-0.56,0L26.34,144.93V142.3Zm74.61,4-4.86,4c-9.72-5.07-17.51,4-14.76,12.17l-4.21,3.66c-7.52-20.73,14.48-27.82,23.83-19.86h0Zm-25.46-3.17h0a0.22,0.22,0,0,1,.1.06,10.49,10.49,0,0,1-.42,3.43,1.54,1.54,0,0,0-.16.53A21.84,21.84,0,0,1,113,118a8,8,0,0,0-.63,1.37c-0.56,2.72-1.78-1.65-1.35-4.19,0.2-1.19,1.89-3.66,2.38-3.48,0.25,0.09.23,0.28-.2,1.23-1.22,2.66-1.52,4-.24,1.46C114.46,111.43,114.84,110.67,115.07,110.63Zm-82.61.05a0.44,0.44,0,0,1,.4.32,1.2,1.2,0,0,1,0,.74,1.39,1.39,0,0,1-1.29.9,0.58,0.58,0,0,1-.51-0.47,1.14,1.14,0,0,1,.31-0.9,1.63,1.63,0,0,1,1.08-.6h0Zm37,0.17c0.58,0,1.18,1.58.8,2.3s-0.37.47-.93-0.65a12.88,12.88,0,0,1-.51-1.23l0.47-.37,0.12,0h0.05Zm-1,.66a7.81,7.81,0,0,1,.75,2c0.09,0.54.08,0.44-.51,0.21a2.72,2.72,0,0,1-.85-0.82,5.51,5.51,0,0,0-.38-0.58Zm3.64,0.24a1.29,1.29,0,0,1,.94,1.06c1.13,2.85,1,6.06-.24,7.57-0.21.25-.26,0.26-0.51,0.1a2.89,2.89,0,0,1,0-1.87,6,6,0,0,0,.26-1.4c0-1.1-.27-1.23-0.41-0.22-0.17,1.17-.35,2-0.67,1.29a10.17,10.17,0,0,1-.36-1.1C70.49,114.71,71.24,111.78,72.16,111.74Zm-4.92.73s1.09,1.41,1.54,1.91c0.16,0.27.15,0.34-.1,0.44-0.43.17-1.87-.8-2.44-1.1-0.31-.25-0.17-0.43-0.17-0.43A13.19,13.19,0,0,1,67.23,112.47Zm42.9,0.05c0.58,0,.58.2,0,1.09-3.46,5-2.76,4.25-.56,1.52,1.22-1.52,1.44-1.66,1.57-1.32A18.25,18.25,0,0,1,109,118.1a8.91,8.91,0,0,1-2.39,1.82c-1.65.84-1.46,0.5-.85-1.57C106.53,115.13,108.47,112.54,110.13,112.52ZM65.2,114.25c9.48,23.68-16.49,34.07-28.2,23.12l1.37-1.09c16.3,11.1,32.39-6.68,25-20.6C63.39,115.69,64.05,115.13,65.2,114.25Zm2.2,0.57c1.56,0.16,3.87,3,4,4.63,0.25,1.13-.07,1.33-0.63.53-0.94-1.73-.82-0.63,0,1.09,0.42,0.87.52,1.91,0.08,2-0.6-.12-1.9-2.2-2.3-3.06A10,10,0,0,1,67,115.64C66.88,115.11,67,114.83,67.4,114.83Zm-4.72.78c7.22,13.91-8.32,30.62-24.12,19.82l4.74-3.77c8.25,4,17.45-1,14.82-12.38Zm72.07,2.59-13,10.9C119,120.06,128.88,114.9,134.75,118.2Zm-24.21,0c0.43-.09.79,2.65,0.87,6.49s0.17,4.13-1,2.75a11.14,11.14,0,0,1-1.35-1.61c-0.77-1.47-.53-3-0.31-5.15s0.91-1.69.8,0.41c-0.07,1.35-.06,3,0.15,3s0.1-.13.05-0.31a33.75,33.75,0,0,1,.55-5.25A0.51,0.51,0,0,1,110.54,118.18Zm-35.92,1.65c0.94,0.37,1.21,3.52.19,6.57a4.38,4.38,0,0,1-2.12,2.7c-0.72.38-.88,0.26-0.56-0.4a10.89,10.89,0,0,0,1.15-3.56c0.1-1.35-.61-0.27-0.55.31-0.56,2.52-1.29,2.9-1.19.24a6.46,6.46,0,0,1,1.24-4.14C73.25,120.88,73.74,120,74.63,119.83Zm32.69,0.32c0.39,0,.48.53,0.14,1.54a31.28,31.28,0,0,0-1,3c0.06,0,.94-2.06,1.12-2.39,0.29-.55.4-0.65,0.66-0.63a10,10,0,0,1-.13,3.33c-0.53,2.73-2.39,5.56-3.1,4.72-1.16-1.37-.62-6.92.92-8.6A2.39,2.39,0,0,1,107.31,120.15Zm-49.64.42c1.4,9.67-6.55,13.8-13.42,10.88C44.41,131.42,57.68,120.57,57.68,120.57Zm32.5,0.18,1.38,1.83,2.54,0.13-1.3,1.92,1.29,2.46-2.83.05L89.63,129l-1.42-1.7-2.48-.13,1.44-2.31L86,122.67l2.67-.13Zm-21.29.83a7.16,7.16,0,0,1,2,2.84c0.47,1.85.3,5.34-.36,5.22-0.72-2.52-.44-3.81-0.7-3.53-0.45.46,0.28,4.32,0,5.27-0.11.24-.5,0-0.93-0.67-1.15-1.66-1-8.16-.12-9.12h0Zm84.73,3.92-31.31,26,1.81,2.33,29.56-24.51Zm-45.23.45a2.06,2.06,0,0,1,1,.84,16.37,16.37,0,0,1,2.51,4.76,16.53,16.53,0,0,0,.54,1.68c0.22,0.53.24,0.68,0.11,0.84-0.54.67-2.81-1-3.54-2.64-1-2.27-1.05-4.32,0-2.33,0.37,0.73.84,1.78,0.84,1.36a13.45,13.45,0,0,0-.8-2.32C108.83,127.72,108,126,108.39,125.95Zm44.89,0.63,0.07,2.16-29.16,24.49-1.14-1.4Zm-45.53,1.33c0.14,0,.21.21,0.17,0.65-0.13,1.42-.48,4.52-0.41,4.8s0.46-2.05.56-2.45c0.5-2.05,1.26,2.86.8,5.06-0.07.35-.22,0.9-0.29,1.25a5,5,0,0,1-.42,1.08c-0.83,1.3-2.77-3.89-2.44-6.54C105.92,130.11,107.26,127.86,107.75,127.91ZM74,129c0.38,0,.45.36,0.39,1.15-0.22,2.71-2,5.55-4,6.31s-2.14.6-1-.8c0.88-1.07,1.41-2.19,1.26-2.33a5.69,5.69,0,0,0-1,1.29c-0.89,1.15-1,.18-0.23-1.51A6.88,6.88,0,0,1,72.17,130,5.09,5.09,0,0,1,74,129Zm17.73,0.82a86.16,86.16,0,0,1-8.88,35.36H77.64c6.4-9.46,10.48-21.18,11.62-35.32Zm2.3,0a9.8,9.8,0,0,1,1.1,1.37,1,1,0,0,1-.19,1.59c-0.74.63-1.05,0.4,0.16,2,0.64,0.82.43,1-.36,1.65s-0.86.75-.1,1.72,1,1.19-.1,2-1,.89-0.22,2.06,0.89,1.07-.42,2.18c-1.12,1-1.15.69-.07,2.44,0.4,0.65.37,0.69-.36,1.34-1.8,1.59-1.7,1.49-1.45,1.91,2,2.83,1.08,2.75-.85,4.1-0.39.33-.29,0.71,0.58,2.12,0.74,1.2.63,1.46-1.1,2.66s-1.86,1.41-1,2.68,0.91,1.16-.53,2.45c-0.65.58-1.18,1.12-1.18,1.12H84.8s0.67-.62,1.13-1c2.62-1.95,2.61-1.74,1.5-3.15-1-1.24-.88-1.32.11-2,0.71-.51,1.67-1,2.39-1.56,0.39-.28.1-0.51-0.55-1.74s-0.76-1.22.58-2.33,1.5-1.17.7-2.72-0.82-1.41.2-2.24c1.51-1.23,1.58-1.17.79-2.6-0.63-1.14-.64-1.11.43-2.18s0.94-1,.31-2-0.61-1.14.24-1.9,0.79-.77,0-1.82-0.74-1,.17-1.76a2.7,2.7,0,0,0,.94-1,6,6,0,0,0-1-1.93c-0.18-.27.18-0.35,0.75-0.94s0.56-.45.12-1.26c-0.24-.44-0.69-1.17-0.69-1.17H94Zm-8.55,0,0.91,0a5,5,0,0,0,.37.42c0.58,0.6.61,0.95,0,1.27s-0.35.74,0.12,1.43,0.49,0.65-.22,1.37-1.12.77-.31,1.91a0.93,0.93,0,0,1-.31,1.55c-0.55.36-1.47,0.67-.5,2.05,0.47,1,.51.93-0.48,1.63-1.31.93-1.56,0.77-1,2.13,0.67,1.51.74,1.54-.64,2.55-1.6,1.18-1.65,1.27-1,2.69s0.69,1.06-1,2.38c-1.24,1-1.52,1-1.15,1.82,0.69,1.5,1,1.9-1,2.93-2.31,1.19-2.43,1.28-1.32,3,0.9,1.44.7,1.24-.79,2.1-2.16,1.25-3.11,1.79-3.18,2.17s1.68,1.74,1.68,1.74l-3,.08s-1.27-1-1.76-1.51c-1.36-1.33-1.38-.89,3.15-3.1,2.5-1.22,2.29-.94,1.88-1.65-1.2-2.1-1.25-2.31,1-3.46,2-1,1.63-1.06,1.15-2.56-0.42-1.31-.35-1.19.68-2,2.5-1.86,2.43-1.67,2-2.58s-0.68-1.32-.39-1.76c0.9-1.3,2.82-1.57,2-3.12-0.37-1-.5-1.22.61-2.08s1-.73.36-1.83-0.66-1.17.47-2c0.81-.74.8-0.72,0.34-1.45-0.63-1-.6-1,0.3-1.82,0.73-.64.85-0.68,0.39-1.38-0.62-.94-0.51-1.14.3-1.6a0.67,0.67,0,0,0,.45-0.87,5.27,5.27,0,0,0-.27-0.62h0ZM96.78,130H101a34.65,34.65,0,0,0,5,13.47c-5.3,8.54-4.09,15.63-.86,21.9l-13.27-.05A117.24,117.24,0,0,0,96.78,130ZM68,130a1.15,1.15,0,0,1,.52.68c0.84,1.44.25,3.47-1,5.61-0.92,1.6-1.09.38-.67-1.92,0.26-1.45-.46.72-0.81,2.47-0.19.95-.64,1.72-1.13,1.67s-0.32-1.41-.31-1.7c0.11-2.1.88-3.58,2.39-5.66A3.18,3.18,0,0,1,68,130Zm42.76,4.1a1.63,1.63,0,0,1,.82.27c0.27,0.15.75,0.45,1.08,0.63,1.16,0.64,1.26.84,0.7,1.48-0.68.8-1.12,0.49-2.3-.83C110.29,134.75,110.28,134.12,110.79,134.1Zm-0.39,1.76a1.69,1.69,0,0,1,1,.64c0.77,0.88.67,1.62-.17,1.41-0.35-.51-0.52-1.28-0.85-1.85C110.25,135.92,110.29,135.85,110.4,135.85ZM147.82,136a2.92,2.92,0,0,0-2.22,2c-0.72,3.05-.72,2.92-0.07,3.36l0.43,0.28a2.93,2.93,0,0,0,1,.67c0.62,0,1.55-3.91,1.52-4.71a2,2,0,0,0-.14-1.34A0.5,0.5,0,0,0,147.82,136Zm-38,.07a0.25,0.25,0,0,1,.19.08,5.83,5.83,0,0,1,.93,2,1.25,1.25,0,0,1-.12.49c-0.42.81-1.07,0-1.14-1.37,0-.78,0-1.14.15-1.17h0Zm37.87,0.6h0.09c0.5,0,.42.54-0.27,1.29a1.2,1.2,0,0,1-1.36.34c-0.36-.35.38-1.33,1.2-1.56A1.61,1.61,0,0,1,147.7,136.63Zm-84.14.43h0.08a0.91,0.91,0,0,1,.65.33,1.78,1.78,0,0,1,0,1.58c-0.39,1.39-3,4.09-3.93,4.1-0.56-.1,1.77-3.06,1.84-3.56-0.17-.17-1.61,1.5-2.29,2.66a6.1,6.1,0,0,1-.84,1.29c-0.49.06-1,.37-1,0,0.08-1.48,3-4.71,4-5.61a2.52,2.52,0,0,1,1.55-.83h0Zm7,0.14c2.23,0-2.16,4.88-5,5.58a5.91,5.91,0,0,1-2.63.09c-0.12-.18,0-0.33.38-0.43a15.37,15.37,0,0,0,3.49-2.23c0-.27-1.2.18-2.23,0.85-0.66.43-1,.34-0.61-0.18a7.87,7.87,0,0,1,6.61-3.69h0Zm38.63,0a0.94,0.94,0,0,1,.33.83c0.41,1.05.42,1.34,0,1.65-0.65.53-.82,0.38-0.81-0.83,0-1,.22-1.66.43-1.64h0ZM35.64,138.6s0.81,0.31.48,0.7a1.48,1.48,0,0,1-1.24,0Zm112.11,0c0.27,0,.27.23,0.13,0.85a6,6,0,0,1-1,2.52,3.65,3.65,0,0,1-1.12-.68,2,2,0,0,1-.47-0.5,1.59,1.59,0,0,1,.4-1.53,1.16,1.16,0,0,1,.63-0.21,3.36,3.36,0,0,0,.85-0.28A1.8,1.8,0,0,1,147.75,138.63ZM35.93,139.82a5.53,5.53,0,0,1,1.75.24,23,23,0,0,1,5.13,2.28c0.68,0.65-1.09,1.34-3.21,1.36-1.13,0-1.34-.22-2.89-1.16-0.2-.13-1.11-0.73-0.84-0.95s1.16,0.08,2.24.64a1.41,1.41,0,0,0,1.21,0,17.17,17.17,0,0,0-3.78-1.51c-1.06-.34-1-0.68-0.39-0.83a5.79,5.79,0,0,1,.79-0.05h0Zm-2.13.74s0.45,0.4,1,.83a7.65,7.65,0,0,1,1.87,1.84c0.74,0.9,1.9,3.15,1.77,3.55-0.3.93-3.41-.7-6-3.26a18.27,18.27,0,0,1-1.31-1.45l1-.88S33,141.91,34,142.78c1.85,1.64,1.83,1.07,0-.65l-1-.92A0.82,0.82,0,0,1,33.8,140.56Zm76,0.08s1,1,1.36,1.51c-6.05,5.94-8.36,14.24-2.52,23.08h-2.8c-5.25-10.38-2.76-18.19,4-24.58h0Zm-51.2.24c0.38,0,0,.43-0.63,1.57-1.25,2.13-1.49,2.67-3.52,3.2a9.3,9.3,0,0,1-1.57.07c-0.87.11-.48,0,0.85-0.87,1.85-1.2.28-.58-1.43,0.3-1,.51-2,0.49-2.12.22a2,2,0,0,1,.69-0.79c2.6-2.34,3.4-2.24,5.82-3.08A12.42,12.42,0,0,1,58.59,140.88ZM47.71,143a12.32,12.32,0,0,1,2.6.28c0.52,0.12,1.36.22,0.65,0.87A8.8,8.8,0,0,1,46.38,146c-0.23,0-3.54-.23-2.83-0.94a8.2,8.2,0,0,1,1-.13c1.83-.35,1.34-0.65-0.92-0.52-2.83.15-3-.14-0.82-0.73A18.66,18.66,0,0,1,47.3,143h0.41Zm15.12,0.22c1.26,0,2.24.21,2.24,0.7,0,0.78-2.38,2.5-3.94,2.83L60,147a21,21,0,0,1-3.86-.09c-1.42-.52-0.43-0.72,2.17-1,1.13-.13,1.67-0.43,1.67-0.64a4.68,4.68,0,0,0-2.07,0c-1.38.18-1.11-.23,0.61-1.13A10.67,10.67,0,0,1,62.83,143.23Zm-23.3,1.08a5.5,5.5,0,0,1,1.31.45c1.51,0.44,3.58.94,5,2.49,1.15,1.11,1.42,1.47,1.18,1.86s-3.85.11-5.34-.53a7.09,7.09,0,0,1-2.7-2.12c-1.3-1.91-.75-2.41.9-1.08,2,1.61,2.29,1.77,2.65,1.7,0.14,0-.21-0.36-0.88-0.86-1.68-1.25-2.5-1.93-2.11-1.92h0Zm12.3,2a6.54,6.54,0,0,1,3.66.87c2,0.72,1.54,1.36-2.07,2.26a6.63,6.63,0,0,1-4.94-.69c-2.9-1.79-2.71-2.15.53-1.35,1.07,0.26,2.13.31,2.19,0.11a9.15,9.15,0,0,0-2.29-.83c-1.13-.38-0.16-0.35,2.11-0.37h0.8Zm83.58,7.75-0.54.27a13.77,13.77,0,0,1-2.23.28,15.72,15.72,0,0,0-4.94,1,8.06,8.06,0,0,0-3.31,3.27c1.48-.1,9.88,1.42,12.2-1.61,0.49-.64-1.25,4.8-2.14,5-2.21-.27-3.14,3.22-2.92,3.07-2.23.87-4,1.38-3.39,4,0.25,1.13,1.39,2.48,3.82,2.14-0.66,4.51,4.83,5.67,5.44.24,0,0,1.07-.21,1.48-0.25,2.51-.6,3.11-4.27-0.56-5.44a1.8,1.8,0,0,1-1.08-.5,3.36,3.36,0,0,0-.45-2.67c0.81-1.94,2.83-5.68,2.83-5.68Zm0.39,1.12c0.51,0.68-2.13,1.8-4.94,2a17.22,17.22,0,0,0-2,.24c-0.3.53,5.43,0.15,7.21-.86,0.61-.34.67,0,0.4,0.49-2.07,2.68-7.08,2-11,1.55-0.22-.23,0-0.5.84-1.22a8.4,8.4,0,0,1,5.3-2C132.28,155.45,135.47,154.85,135.79,155.23Zm3.1,2.77a49.77,49.77,0,0,1-2.24,4.66,0.57,0.57,0,0,1-1-.49c0-1,1.79-4.89,2.27-5A0.84,0.84,0,0,1,138.89,158Zm1.19,0.27c0.55,4,3.6,5,6.52,6.26,0.77,0.35,1.42,1,2.19,1.39,1.44-2-.18-5.82-2.73-7.07-1.89-.89-3.61-1.59-4.68-1.51a1.33,1.33,0,0,0-1.31.93h0Zm1.56-.24a11.71,11.71,0,0,1,2.5.55,6.49,6.49,0,0,1,4.87,5.11c0,0.1.15,2-.29,2-0.67-.19-1-0.87-2.11-1.32a16,16,0,0,1-4.39-2.36,4.55,4.55,0,0,1-1.56-2.56c-0.12-.82.16-0.9,0.84-0.24,1.53,1.22,3,1.64,4.55,2.82,0.42,0.33,1.93,1.17.9,0.12a19.07,19.07,0,0,0-3.84-2.47c-1.52-.73-2.34-1.62-1.47-1.63h0Zm-116.07,4,17.28,27.12c-4.25,2.25-6.35,3.24-13.41,2.68l0,0.36-3-.18c5.18,8.12,11.58,18.72,9.76,37.2l21,0,0.36,0.33c0.31,0.21.77-.37,0.77-0.37l9.49-.05,0.26,0.31,4.43,0s-20.24-38-30.41-56.91c-4.18-7.57-8.53-10.94-16.6-10.45h0Zm108.95,0.9a2.17,2.17,0,0,1,2.27,2.28,4.75,4.75,0,0,1-.66,1.9l-1.54-1.48-1.47,1.48a2.56,2.56,0,0,1-.92-2.4,2.73,2.73,0,0,1,2.32-1.78h0Zm-17.87.54c1.46,5.72,3,13.61-9.64,31.84-7.5,10.78-10,21-10.25,33.37H96c0.36-6.81.41-19.17,0.41-19.17l0.71-.63a4.32,4.32,0,0,1-.46-1.14c-0.24-1,0-.69.58-3.48,2.59-13.48,19.42-40.79,19.42-40.79h0Zm-67.71,2.63,64.26,0.3-0.85,1.69-62.19-.45Zm85.66,0.49,2.39,2.33-2.33,2.63L132.2,169Zm-2,1-1.3,1.39,1.13,1.19c-1.16,2.45-4.25.54-4.15-1.29,0.12-2.14,2.62-3,4.32-1.29h0Zm4.12,2.76,1-1.32-1.17-1.29c1.92-1.9,3.73-.23,3.91,1.36S138.1,172.71,136.77,170.36Zm-76.11-1.62,5.26,0.05-2,3.68-5.34,0Zm11.73,0h4.83l-2,3.73H70.28Zm11.42,0h5.13l-2.08,3.73H81.58Zm11.48,0h5.25l-1.91,3.73H93.17Zm11.69,0H112l-2,3.73h-5.21Zm-55.87,0h3.4l-1.39,2.45Zm84.77,2.35a2.33,2.33,0,0,1-1.43,4.19,2.38,2.38,0,0,1-1.23-4.27l1.46,1.34Zm-71.51,2h4.94l-1.86,3.36H62.61Zm11,0h5.42l-1.91,3.36H73.71Zm11.61,0h5.4L90.6,176.5H85.15Zm11.57,0h5.35l-1.67,3.36H96.56Zm-44.15.13H57.8L56.34,176ZM57,177.17l50.09,0.45-0.85,1.63h-48Zm1.76,2.92,46.94,0.12-1.08,2.26-16.22-.07c-3.16-2.37-6.78-1.28-10.91.07,0,0-12.42.13-17.3,0Zm-15.61,9.56,24.76,39.23-5.47-.06L38.88,191.91Zm-5,2.56,23.37,36.67c-1.07,0-2.07,0-3.14,0a9.34,9.34,0,0,0-8.28-10.22c1.93-8-3.88-11.38-7.76-12,1.57-10.41-7-11.88-7.13-11.78A9.45,9.45,0,0,0,35,192.7l3.17-.49h0Zm-3.79.58c-0.05.22,0.44,2.29-.48,1.91l-0.07-1.91h0.55Zm-4.92.05c0.33,1.38,1,1.65,2,2.58a3.78,3.78,0,0,1-1.51,0,12,12,0,0,1-1.57-2.6h1.09Zm3.66,2.33A1.08,1.08,0,1,1,32,196.25,1.08,1.08,0,0,1,33.09,195.17ZM35.22,196c3.07-.2,7.53,3.11,6.36,9.3a10.21,10.21,0,0,0-.95-2.06c-2.12-2.87-4.61,1.06-2.93,2.67a3.89,3.89,0,0,1,1.12,1.17,2.25,2.25,0,0,0-2.54,3.19c1.31,2.42,3.14,1.14,4.2-.3,0,0,.65,2.17,1.3,2.44a2.22,2.22,0,0,0,2.82-1.31c0.69-1.79-1-2.25-1.36-3.24,3.56,0.12,8.09,5.34,6,9.86,0.27-1-.83-3.34-3-2.75-1.07.38-1.44,1.94-.58,3.55a5.63,5.63,0,0,0,.43.71,5.14,5.14,0,0,0-1.17.27c-2.78,1.72.8,6.4,2.87,3.47a6.6,6.6,0,0,1,.56-0.75c0.34,0.65.45,1.57,1.07,1.89,2.56,1.29,3.7-1.44,2.63-2.78l-1.29-1.62c-0.11-.48,7.67,1.57,6.72,9.16l-20.62,0c1.91-11.67-2.72-25-5.08-29.09l1-1.36c0.26,0.5.68,1.77,1.44,2,2.39,0.77,3.12-.91,2.8-2.63A3.15,3.15,0,0,0,35.22,196h0Zm5.46,11a1,1,0,1,1-1,1A1,1,0,0,1,40.68,207Zm7.74,12.16a1,1,0,1,1-1,1A1,1,0,0,1,48.42,219.14Z" transform="translate(-0.3 -0.3)"/></g></g><path id="path147-0-8-1-3-6-7-5-8" d="M130.92,223.38c7.82-.17,11.33-9,5.53-15.81-0.84-1-.93-1.57.61-0.61,3.9,2.61,11.38.89,11.76-7.08,0.47-9.82-13.25-12.65-15.83-2.21-0.14,1.1-1,1.08-.82-0.49a32.5,32.5,0,0,1,3.38-12.08h-9.3a32.5,32.5,0,0,1,3.38,12.08c0.22,1.56-.68,1.59-0.82.49-2.58-10.44-16.3-7.61-15.83,2.21,0.38,8,7.86,9.69,11.76,7.08,1.54-1,1.45-.39.61,0.61-5.79,6.84-2.28,15.64,5.53,15.81h0Z" transform="translate(-0.3 -0.3)"/><path id="path147-0-8-1-0-3-83-6-6-4" d="M48.46,26.87c7.82,0.17,11.33,9,5.53,15.81-0.84,1-.93,1.57.61,0.61,3.9-2.61,11.38-.89,11.76,7.08C66.84,60.19,53.12,63,50.54,52.58c-0.14-1.1-1-1.08-.82.49a32.5,32.5,0,0,0,3.38,12.08h-9.3a32.5,32.5,0,0,0,3.38-12.08c0.22-1.56-.68-1.59-0.82-0.49C43.8,63,30.08,60.19,30.55,50.37c0.38-8,7.86-9.69,11.76-7.08,1.54,1,1.45.39,0.61-.61C37.13,35.84,40.64,27,48.46,26.87h0Z" transform="translate(-0.3 -0.3)"/></g></svg>