<svg id="Layer_1" data-name="Layer 1" xmlns="http://www.w3.org/2000/svg" viewBox="0 0 178.79 249.65"><defs><style>.cls-1{fill:#fff;stroke:#000;stroke-width:1px;}.cls-2{fill:#e2cf00;}.cls-3{fill:#d40000;}.cls-4{fill:#131f67;}</style></defs><title>12_D</title><g id="g7107"><rect id="rect7166-7" class="cls-1" x="0.5" y="0.5" width="177.79" height="248.65" rx="8.5" ry="8.5"/><path id="path6307-8" class="cls-2" d="M112.26,21.37s20.19,29.3,27,34.5c0.5,0.24,8.95-1.38,8.95-1.38-4.33-10.4-7.11-21.16-4.3-33.22ZM123.48,67.7c-13.92,3.94-27.82,7.65-42.91,1.22l-16.48,16C64,85.32,84,94,84.34,93c-9.83,26.55,5.49,31.37,15.25,2.17,12.77-1.68,28.09-3.42,40.75-12.24A60.21,60.21,0,0,1,123.48,67.7ZM39.75,72.42c-5.28-3.25-9.4,3.44-5.54,6.78-0.45,2-.61,4.85,1.27,6.13,1.73,1.1,5,0,5.42,0,0,0,.08,3.51-0.19,3.5-0.5,0-2.39-1.63-3.55-2-3.93-1.18-9.46-1.77-9.37-1.56s-1,1.15,3.41,3.92c1.63,1,6.78-.13,10.88,1.17,2.5,0.79,4.74,2.05,6.1,1.4,3.58-1,5-5.67,4.73-5.64C52.8,86,42.1,88.87,43.11,89.38l0-4.07c4.22,0.47,8-2.6,3.88-7.87,3.09-3.08-1.23-10.43-7.21-5h0ZM57.33,91.06c-10.38,10.5-31.59,30.21-31.59,30.21L26,136l20.72,18.62c1.64-19.76,12.83-38.2,23.48-47.43C71.15,104.35,59.58,92,57.33,91.06Zm73.94,3.63c-1.56,12.15-3,28.72-23.52,47.14,3.56,6.08,8.09,12.27,14.61,15.23,0.46,1,18.84-19.09,30.15-28.61l-0.06-12.89ZM38.71,97.3c0,0.26-.8,3.46-1,3.37A3.74,3.74,0,0,0,40.06,99c0.21-.77.69-1.81,0.72-2C40.3,93.78,39.41,96.11,38.71,97.3ZM31,105.79a17.56,17.56,0,0,0-1.19,7.29c3.68,1.85,4.68-5.84,3.69-6.57A9.67,9.67,0,0,0,31,105.79ZM144.58,141c-0.34,1.53-.27,2,0.41,2.29,1.19,0.52,1.73-.11,2.68-2.6,0.57-1.49,1.08-3.72.62-4.61-2.26-1.58-3.45,3.77-3.71,4.93h0Zm-64.3,12.89c-15.09,2.4-30.19,3.88-42.17,13.26C39.45,167,54,180.71,54.72,182.64,76.92,171.76,98.48,180,98.48,180l16.24-15.71c0.63-.3-17.67-7.86-21.11-9.14,12.46-33.66-7.27-28.6-13.34-1.21h0Zm59.4-3.84a12.15,12.15,0,0,0-2.25,2.56l0.78,1.26,2-2.2Zm-14.22,14.16c2.09-.95,9.52-4.56,9.84-3.72l-0.16,3.62c-1.14-.37-8.47.84-4.23,8.44-2.67,6,3.28,9.15,7.45,5.16,8.74,3,7.57-5.77,5.76-7.18,1.42-2.21-.36-6.93-1.25-6.95,0,0,7.62,1.72,6.88.36a6.54,6.54,0,0,0-2.46-2.83c-2-1.31-5.38-.83-8.16-1.42-3-.62-4.88-1.69-7.37-1.84-3.76.34-7.28,3.66-6.29,6.37h0Zm-85,28.48L30,195.53a77.29,77.29,0,0,1,4.57,15,72.81,72.81,0,0,1,.29,18l30.48,0.15Z" transform="translate(0.1 0.1)"/><path id="path6309-7" class="cls-3" d="M67.88,228.57C54.5,209.4,42.11,191.18,25.66,171.09c0,0,0-7.76.07-15.47l50.55,72.76ZM95,197.63a79.52,79.52,0,0,0-2.23-11.74l9.23-8.73c-1,7.81-2.53,13.79-7,20.48h0Zm44.11-27.53c2.07,2.75-1.42,4.28-2.74,3.06A2.06,2.06,0,1,1,139.07,170.1ZM47.55,152.75c-1.53,1,2.75-24,14.51-36.93C69.22,136.38,56.6,147.91,47.55,152.75Zm58-.09-7.81-2.12,3.68-11s7.54,1.72,6.92,4a83.33,83.33,0,0,1-2.79,9.08h0Zm-36.15-4.21a67.28,67.28,0,0,0,5.2-11.27l7.82-.16L78.5,147.87Zm47.07-15.38c-6-12.08,1.08-31.2,14.23-36.46A58.21,58.21,0,0,1,116.48,133.06Zm-40.62-3.43A62.54,62.54,0,0,0,75,116.86a152.23,152.23,0,0,0,27.49,3.68l1,11.57A126.07,126.07,0,0,0,75.86,129.63Zm20-17.62a59.11,59.11,0,0,1,3.58-10.48l9.52-.45c0-.19-4.06,6.36-5,11.09-1.52-.16-8.08-0.16-8.08-0.16h0Zm-18.06-2.86c-2.78-1-6.58-1.26-8.06-3.42l2.89-9.2,8.56,2.64Zm24-87.76,6.71-.06s32.25,41.42,44.34,57.54c-0.4,1.64.13,15.54,0.13,15.54C135.86,70.22,101.8,21.39,101.8,21.39ZM40,79.18a1.51,1.51,0,1,1,2.26-1.93C43.26,78.78,40.9,80.21,40,79.18Zm36.19-6.79c0.1-9.6,6.89-21,6.81-20.7-0.08,0,1,9.38,2.27,12.34C84.87,64.55,76.46,73,76.14,72.39Z" transform="translate(0.1 0.1)"/><path id="path6311-0" class="cls-4" d="M24.27,19.8V229.65h130V19.8h-130Zm119.09,1.59C142.31,33,142.13,42,148.13,54.05c-1.08,1.14-9.26,1.47-11.83,2.82a1.76,1.76,0,0,0,.66.89c2.69-1.26,13.2-2.4,13.2-2.4-4.4-7.7-8-22.6-5.3-34h7.89V77.47s0.09,10.66.32,16.74c-4-5.24-9.24-12.41-12.74-17.84-4.24-6-9-13-13.82-19.61-1.43-2.08-3.47-4.77-5.13-7.2-2.61-3.75-4.77-6.66-7.48-10.69-2.89-4.18-5.67-8-9.1-12.82-2.91-4.13-3-4.66-3-4.66h41.62Zm-49.81,0C98.47,30,107.27,33,109.49,33.55l1.29,1.89A28,28,0,0,1,92.24,22.58a3,3,0,0,1-.18-1.18h1.5Zm-4.87,0a23.39,23.39,0,0,1-5.07,7.16l0.06-2.08a18.91,18.91,0,0,0,3.61-5.07h1.39Zm2.38,0a3.32,3.32,0,0,1-.12,1.1c-1,3.38-7.51,9.79-7.32,8.83l-0.07-1.65c0,0.07,4.86-4.77,6.14-8.28h1.38Zm-4.7,0c-0.5.94-2.38,3.89-2.55,3.1L84,21.39h2.39Zm14.78,0c0.82,1.18,1.56,2.15,2.41,3.36a0.94,0.94,0,0,1,.22.61c-0.13.34-.52,0.09-1.59-0.87a26.17,26.17,0,0,1-3-3.1h1.91Zm-6.54,0h1.59a23.11,23.11,0,0,0,11.24,9.14c0.55,0.6,1.13,1.71,1.36,2C103.28,31,97.11,26.22,94.61,21.39Zm3.86,0c1.75,2.54,4.5,4.39,6,5.61,0.83,0.65,1.93,2,1.83,2.26-3.44-1.09-7.47-5-9.32-7.86h1.45ZM91.72,23l1,1.53a32.48,32.48,0,0,1-9.11,10l0-2c4.4-3.18,6.31-6.38,8.17-9.55h0Zm1.55,2.22a29.39,29.39,0,0,0,18.28,11.26,11.35,11.35,0,0,1,1.33,1.57c1,1.37,1,1.43,1.15,3.68A45.89,45.89,0,0,0,116.79,55c-0.16.87-.32,1.32-2,3.55-6.84,9.28-21.42,18-28.6,6.07-2.39-3.84-2.63-11.19-2.78-15.78,0,0,0-.32.06-0.41,0.17-.83.41-0.7,1.71-0.34,1.31,0.57,2.68.11,4.07-.27,1.58-.64,1.72-0.15.19,1.28a9.45,9.45,0,0,0-1.11,1.21,8.79,8.79,0,0,0,1.35-.7c1.22-.93,1.51-0.58,1.06.45-1.92,4.35-2.26,4.53.44,5.74a4.85,4.85,0,0,1,1.26.81c1.85,1.74,1.18.8,0.67,0-0.79-1.25-.08-1.91,1.26-1.14a4.28,4.28,0,0,0,2.71.74c1.24-.41,1.62-1.77,1.25-3.27-0.29-.83-2-2.3-1.6-0.76a1.44,1.44,0,0,1,1,2.39c-0.67.91-1.86,0.42-3.69-.8-1-.76-2.24-0.37-2.19.57,0,0.63-.86.48-1.43-0.32-0.32-.45-0.1-1.73.5-2.94,3.79-7.65.59-15.07-6-13-0.72.23-1.37,0.42-1.37,0.42l0-2.93a34.85,34.85,0,0,0,9.67-10.31h0ZM97.1,39c-1,1.2-.64,2.27,1.53,1.19a6.93,6.93,0,0,1,3.94-1c2.74-.1,5.2.77,8.24,2.65,2,1.24,2.31,1.33,1.76.56C111,39.21,101.33,34.46,97.1,39Zm-9.3.36c1.9,0.48,3.72,1.74,3.41,2.26-0.11.19-.22,0.22-0.47,0.1a7.32,7.32,0,0,0-6.81-.44c-0.35.15-.55-0.08-0.55-0.51,0-.83,1.39-1.49,2.86-1.55A6.86,6.86,0,0,1,87.8,39.35Zm11,2.43c-1.13.59-1.52,0.91-2,.64-1.15-.63-0.91-0.14-0.19,1.13a2,2,0,0,1,.42,1.63,1.12,1.12,0,0,0,.51,1.26,15.75,15.75,0,0,0,3.78,3.88,10.39,10.39,0,0,0,1.23.72c0.16,0,.1-0.12-0.19-0.41-2.07-2-3.71-3.79-1.6-3,2.46,0.8,4.8-.2,6.71-0.85a11.23,11.23,0,0,1,1.81-.45c1.77,0,2.19-.74,1.06-1.87C106.54,40.13,103.37,39.12,98.84,41.77Zm9.09,0.81c0.79,0.73,1.21,1.13,1.13,1.32s-0.69-.14-1.72-0.69a9.25,9.25,0,0,0-7.3-.51c-2.26.65-1.59-.38,0.93-1.36a6.52,6.52,0,0,1,7,1.24h0ZM86.83,41.1a7.24,7.24,0,0,1,4.73,1.58c0.84,0.73.23,0.89-1.14,0.33a6.44,6.44,0,0,0-5.49-.2,5.76,5.76,0,0,1-1.31.53,0.91,0.91,0,0,1-.16-1.15A5.21,5.21,0,0,1,86.83,41.1Zm28.45,0.59a1.34,1.34,0,0,1,.6.61c0.52,0.73.54,1.09,0.11,2.36-0.52,1.56-.73,1.3-0.86-0.87-0.09-1.41-.09-2.11.15-2.1h0ZM117,44c0.2,0,.43.32,0.79,1,0.26,0.5.2,0.65-.61,3-0.34,1-.65,1.77-0.66,1.78-0.25.19-.21,0.18-0.32,0-0.57-.73-0.53-2.16,0-3.87,0.37-1.3.58-2,.83-2h0Zm-15.55.18a4.19,4.19,0,0,1,.45.08c0,3.49,2.65,2.79,3,.31a1.32,1.32,0,0,1,.76.1c0.32,0.52-.42,2-1.53,2.5a2.45,2.45,0,0,1-2.56-.33,5.23,5.23,0,0,1-.63-2.17,0.66,0.66,0,0,1,.51-0.48h0Zm-1.6.41h0.08a0.53,0.53,0,0,1,.56.41l0.58,1.77c-0.42.51-2-.52-2-1.29a0.86,0.86,0,0,1,.81-0.88h0Zm-10.92,0c0.41,0,.55,0,0.6.39A2.5,2.5,0,0,1,87,47.48a1.9,1.9,0,0,1-2.17-2.05c0-.83.72-0.93,0.79-0.28,0.23,1.9,1.84,2,2.58,1C88.49,45.69,88.43,44.68,88.91,44.62ZM106.59,45a1.53,1.53,0,0,1,.49.12c1.48,0.48,1.52.71,0.25,1.16-1.51.55-1.61,0.62-1.26-.44C106.28,45.25,106.34,45,106.59,45Zm-15.74.17c1.1,0.07,1.19,1,.22,1.32-1.44.64-1.93,0.6-1.37-.35A1.23,1.23,0,0,1,90.85,45.17ZM84,45.51a0.74,0.74,0,0,1,.44.17c0.17,0.5.45,0.89,0.67,1.4A0.92,0.92,0,0,1,84,47c-0.69-.55-0.57-1.52,0-1.52h0Zm34.6,1.08a1.58,1.58,0,0,1,1,1.19c-1.49,1.93-1.26,5.52-1.61,6.61-0.3.88-.4,0.12-1.23-2.17-0.34-.92,1.36-5.51,1.75-5.62h0.08Zm1.53,2a1.77,1.77,0,0,1,.86,1.32,5,5,0,0,1-.28,1.46,38.93,38.93,0,0,0-.86,5.79c-0.06.93-.06,1.76-0.1,1.84-0.45.88-1.4-1.49-1.32-3.39,0.29-1.51.46-6.8,1.69-7h0Zm2.11,2.72a2.32,2.32,0,0,1,.41.77,4.8,4.8,0,0,1-.24,2.09,26.55,26.55,0,0,0-.14,9.48c0.09,0.69-.39.35-1.11-0.85a6.61,6.61,0,0,1-.78-2.64,33.21,33.21,0,0,1,.65-8c0.18-1.11.31-2.08,1.21-.84h0Zm1.14,1.81,1.2,1.45a45.92,45.92,0,0,0-.51,5.12,78.17,78.17,0,0,0,.82,8.5c-0.74-.83-1.08-1.32-1.89-2.36-0.09,0-.79-7.14-0.31-9.88a21.33,21.33,0,0,1,.69-2.83h0ZM125.22,56a1.26,1.26,0,0,1,.78.67,2.07,2.07,0,0,1,.45,1.25c0,0.37-.17.66-0.18,1.32a58.16,58.16,0,0,0,1.17,11.25c0.24,1.28-.22.76-1-0.05a4.32,4.32,0,0,1-1.08-2.08c-0.07-.21-0.81-7.48-0.81-8a13.25,13.25,0,0,1,.35-4.06A0.38,0.38,0,0,1,125.22,56Zm-4.36,7.92s-1.4.72-1.76,0.47c-0.59-1.61-2.72-5.93-2.75-6.7a8.71,8.71,0,0,1,.87-1.39C118.4,58.84,119.45,61.46,120.86,63.9ZM94.59,58.71c-0.42.5-.92,0.29-1.94-0.16-0.52-.16-0.44.05-1.3,0.5a2.27,2.27,0,0,1-1.34.35c-0.58,0-.79-0.21-0.79.2A9.83,9.83,0,0,1,89,61.4a2.53,2.53,0,0,0-.25,1.17c0.3,0.27.55,0.11,1.17-.5,1-1,1.74-.72,2.89-0.34,1.31,0.43,1.58.58,2.79,0.16,1.7-.6,2.73-0.6,3.4-0.16,1.17,0.75,1.52.7,1-1.34-0.15-.66-0.17-1.68-0.26-1.85s-0.41.37-.72,0.58c-0.59.4-.9,0.39-2.24,0-0.79-.26-1.68-1.11-2.28-0.35h0ZM116.13,59c0.52,1.23,2.58,5.32,2.52,5.78a1,1,0,0,1-1.26.3,37.2,37.2,0,0,1-2.18-5c-0.25-.51.5-1.8,0.92-1.05h0Zm11.08-.15a1.36,1.36,0,0,1,.68.59,2.59,2.59,0,0,1,.77,2.08,44.47,44.47,0,0,0,1.58,11.37c0.2,0.66.59,1.46,0.55,1.57-0.35.51-2-.85-2.44-2.92a57.72,57.72,0,0,1-1.27-7.15c-0.27-3.14-.27-5.38.14-5.54h0Zm-12.37,2c0.59,1.15,1.34,3.13,1.85,4.33,0.23,0.52-.95.92-1.22,0.75a6.25,6.25,0,0,1-1-1.94c-1-2.15-1.16-2.2-.61-2.87C114.18,60.66,114.58,60.09,114.83,60.86Zm14.7,1.32a0.55,0.55,0,0,1,.34.27,5.72,5.72,0,0,1,1.2,1.84,7.16,7.16,0,0,1,.07,1.41c0.11,1.88.6,4.44,2,9.68a7.23,7.23,0,0,1,.3,1.28c-0.13,1-1.54-.6-2-2.21a48.36,48.36,0,0,1-1.6-6.33c-0.53-3.43-.82-5.95-0.35-5.94h0Zm-15.94,1.39c1.17,2.74,1.26,2.74.53,3s-0.83.15-1.74-1.71c-0.67-1.36-.8-1.53-0.24-2C113,61.77,113.22,62.73,113.59,63.56ZM97.3,62.91c-0.13,0-.52.3-0.92,0.46a6.74,6.74,0,0,1-3.73.09c-1.85-.75-1.33.22,0.31,0.81,1.27,0.43,3.79.1,4.18-.7C97.38,63.32,97.47,62.91,97.3,62.91Zm14.09,1.44c1,1.62,1.36,2.27,1.18,2.39a1.78,1.78,0,0,1-1.33.31,3.54,3.54,0,0,1-1-2c0.13-.38.82-1.07,1.14-0.71h0ZM85.23,65c0.47,0,1.68,1.64,1.43,1.94-0.07.15-.52,0-1.59-0.29-0.36-.13-1.16-0.24-0.9-0.75A3,3,0,0,1,85.23,65Zm25,2.24a1.59,1.59,0,0,1-1.23.33,4.66,4.66,0,0,1-.44-1.28,1.28,1.28,0,0,1,.91-0.74,8.59,8.59,0,0,1,.76,1.7h0ZM132,65.7a2,2,0,0,1,.88.91c0.81,1.16.7,1.08,1.28,3.85,0.66,3.15,1.45,5.39,2.24,8.6,0,0.53-.2.39-0.79,0-1-.59-1.28-1.24-1.58-2.95-0.52-2.82-1.61-5.42-2-8.75-0.22-1.1-.24-1.7,0-1.7h0Zm-24.29,1.12c0.57,0,.49.86,0.33,1a3.48,3.48,0,0,1-1.76.28C105.84,67.41,107.34,66.85,107.71,66.82Zm27.18,3a7.92,7.92,0,0,1,1.46,1.85c0.81,1.14.63,1,1.11,2.83,0.68,2.59,1.82,4.46,2.48,6.85,0,0.27-.33.24-0.64,0.11a7.08,7.08,0,0,1-1.68-1.12c-0.35-.38-0.35-0.87-1.4-4.49-0.38-1.3-.48-1.64-0.95-3.63-0.39-1.66-.57-2.42-0.38-2.4h0ZM47.3,77.56c2.75,5.07,1.73,7.32-4.18,8-0.43-.06,0,2.6,0,3.79,3-1.7,6.54-2.1,9.84-3.16-0.9,2.89-2.48,6.16-7.25,5.66-5-3.87-10.87-1.55-14.85-3.12a5.27,5.27,0,0,1-3-3.64c2.6,0.26,5.54.82,8.06,0.64-2.75-2.13-1.95-5.07-1.56-6.42-3.22-4.08-.53-8.66,4.15-7.59a9.57,9.57,0,0,1,1.44.58c4.51-4.05,9.74-.25,7.42,5.25h0Zm91.29-2.47c0.19,0,.6.47,1.43,1.63a74.18,74.18,0,0,1,4.55,6.83c-0.11.59-2.66-.45-3.31-1.3a29,29,0,0,1-2.8-6.75C138.46,75.25,138.5,75.1,138.6,75.09ZM38.67,89.85c1.28,0.19,1.63.3,1.62,0.8s-3.1.48-3.53,0.17,0.1-.8.44-0.94a3.3,3.3,0,0,1,1.47,0h0Zm88.39,0.46c-17.91,8.49-25.24,31.08-16.2,48.39l-1.24.9c-8.87-18.3-2.27-37.91,12.13-47.82,0.58-.42,1.87-0.74,2.47-1.14,0,0-5.88,1.35-7.87,2.13a4.84,4.84,0,0,0-2.86,1.79,39.75,39.75,0,0,0-4.48,6l-9.25.37v0.34l9.08-.21c-9.35,15.45-7.05,30.15-1.28,40.43l0.14,0.1c0.34,0.23,1.22-.42,3-2.16l2.11-2a55.4,55.4,0,0,0,3.85-4.13c-6.29-12.86-.08-29.79,14.62-37.43a13.82,13.82,0,0,0-.16-1.65,1.65,1.65,0,0,0-.88-0.45c-16.39,7.25-23,25.24-16.29,41.6l-1.1,1.2c-8.37-16.94.61-38.12,16.28-44.12,0-.38-0.35-0.87-0.77-0.58a33.54,33.54,0,0,0-16,45.17l-1,.93c-9.43-18.79.51-39.84,16.08-47,0.46-.11-0.41-0.68-0.41-0.68h0Zm-91.18.18a2.1,2.1,0,0,0,.23,1.34c0.16,0.71-.1.64-0.7,0.49-1.49-.36-0.33.49,0.89,1.18s1,0.65,0,1.32c-0.7.45-.63,0.62-0.54,1,0.14,0.5.24,0.17,0.53-.1a2.22,2.22,0,0,1,1.65-.7,0.8,0.8,0,0,1,.76,1.17c-0.33,1.08-1.43,1-2.33.75-1.48-.44-3.9-3-3.86-4.53C32.4,91,34.25,90.42,35.89,90.48Zm6.65,0.33c0.57,0.21,1.3.49,2.09,0.83A12.46,12.46,0,0,1,47.55,93a4.86,4.86,0,0,1,1.89,4.67L38.17,108.44l-1.24-.62c-1.9-1-2.35-1.48-1.3-2a1.65,1.65,0,0,0,.75-1.37,0.86,0.86,0,0,1,.5-0.94,1.67,1.67,0,0,0,.8-1.79,2.28,2.28,0,0,1,.3-1.34,6.14,6.14,0,0,0,.51-1.75c0-.13,0-0.44.05-0.55A1.61,1.61,0,0,1,39,97.14a4,4,0,0,0,.47-1c0.31-.89.26-0.76,0.76-0.66,0.74,0.14.63,0.58,0.55,1.26a1.61,1.61,0,0,1-.19.49,2.67,2.67,0,0,1,.65-0.34,0.41,0.41,0,0,1,.53.4c0,0.21-.06.59-0.05,0.88a10.11,10.11,0,0,0,.22,2.28c0.84,2.9.67,2.5,0.39,0.09a9.77,9.77,0,0,1-.07-2.13A4.4,4.4,0,0,1,42.65,97c0.5-.87.52-1-0.55-1.46a2.88,2.88,0,0,1-1.22-.71,2.15,2.15,0,0,0-1.35-1c-1.62-.38-2.56-2-2.33-2.19a3.16,3.16,0,0,1,1.22.06c1.48,0.05,1.79,0,2.45-.59a1.74,1.74,0,0,1,.78-0.59,2.82,2.82,0,0,1,.88.29h0Zm76.75,1.74c-15.15,12.3-17.8,32.2-10.25,47.56l-1.31,1c-9.5-18-3.12-37.44,8.55-48.07ZM31.83,94c0.27,0,.56.37,1.62,1.51a10.59,10.59,0,0,0,1.85,1.66c0.89,0.43.7,0.25,0,1-0.76.87-.34,1.59-1.25,1.15-2.36-1.11-4-4.38-2.48-5.17A0.84,0.84,0,0,1,31.83,94Zm-1.17,3.44a0.59,0.59,0,0,1,.18,0,4.19,4.19,0,0,1,1,1,7.52,7.52,0,0,0,2.37,1.9c0.82,0.37.85,0.45,0.27,1.1a2,2,0,0,0-.39.67,0.44,0.44,0,0,1-.24.39c-0.92.18-4-1.68-4.09-3C29.89,98.39,30.19,97.5,30.66,97.46Zm6.46,0.36c0.53,0,.84.46,0.84,1.23a1,1,0,0,1-.91,1c-1.3.49-2.09-.44-1.19-1.47A2,2,0,0,1,37.13,97.82Zm-0.79,3.12c1,0,1.26.83,0.54,1.54s-2,.67-2-0.06a1.89,1.89,0,0,1,1.48-1.48h0Zm-6.06,1c0.66,0.2,2.27,1.36,3,1.5,0,0.39-.43.5,0.23,1.24,0.3,0.34.33,0.56,0.07,0.7-0.81.43-3.6-.93-3.79-2.34C29.67,102.34,29.9,102,30.28,101.93Zm3.65,1.68c1,0,2.05.07,1.94,0.53s-0.43,1.22-.87,1.05a1.94,1.94,0,0,1-.57-0.44A1.13,1.13,0,0,1,33.92,103.61Zm36.38,4c2.8,2.55,13,29.15-8.23,48.53l-4.5,1.35c20.37-16.05,17-38.84,11.48-48.68,0-.29-0.08-0.26-0.59.21s-0.49.49-.31,0.57c6.21,9.59,8.53,36.69-15.94,49.77-0.41.43,0.42,0.36,0.42,0.36,0-.35,11-3,10.24-3.1,10.23-9.08,19.14-30.72,8-49.59-0.27-.18-0.63.58-0.63,0.58h0Zm-3.53,3-0.14.6c8.88,17.5.4,38.94-16.1,46.87a5.09,5.09,0,0,0,.88.48c18.72-10.12,24.12-31.54,16-48.13Zm-1.48,1.24-0.1.63c7.35,14.89,1.52,35.56-16,43.94-0.17.9,0,.64,0.82,0.6,20.3-10.93,22.21-31.71,15.86-45.2ZM64,113.64c-0.57.76-1.62,1.15-2,2.13,5.9,15.64-1.72,30.7-14.63,37.05,0,0.79-.57,2.74.79,2.42,15.94-7.25,22.88-26.51,15.91-41.68l-0.1.07h0Zm80.07,30.25c0.59,0,1.11.22,1.66,0.29,2,0.26,3.26,1.71,2.38,2.59-0.29.29-.7,0.12-2-0.51a1.31,1.31,0,0,1-.81-1.22c-0.15-.78-0.3-0.86-0.5-0.26s-0.42,1-1.09.84C141.85,145.19,142.56,143.88,144.09,143.89Zm-21.18,13.32c-4.75-2.71-10.63-7.59-14-13.14a80,80,0,0,0-3.63,8.86l-7.46-2.09-0.09.16,7.38,2.13-0.72,2.47c-0.08.27-1.22,3.08-1.22,3.08l11.52,5.4a18.76,18.76,0,0,1-2.48,2.89,2.23,2.23,0,0,0-.57,1.35l16-15.29a36.92,36.92,0,0,0,2.83,3.76c0.72,0.65.94,0.81,0.1,1-3.75.55-6.67,3.4-5.65,7.23,0.16,0.43.49,0.27,1.21-.18,2.49-2.27,8.58-4.36,8.79-3.83l0,2.44c-6.56.1-5.89,4.93-5.41,7.53,0,0.06-1.9,1.72-1.9,1.72a17.7,17.7,0,0,1,1.95,1.15c-0.58,3.23,2.16,7.91,7.55,5.51,0.47,0.48.9,1,1.42,1.56a10.91,10.91,0,0,0,1.19-2.15c2.67,1.21,8.22-1.5,5.38-7.73l1.56-1.5-1.5-1a7.62,7.62,0,0,0-1.22-4.38,28.61,28.61,0,0,0,4.39.75h0c1.15,0.1,2.13.13,2-.57a14.27,14.27,0,0,0-.31-1.54c-0.56-1.63-3.45-2.83-6.25-3a2.58,2.58,0,0,1-1-.13c-0.18-.22.15-0.54,0.45-0.49a2.92,2.92,0,0,0,3.28-2.32,3.52,3.52,0,0,1,.82-1.22,2.1,2.1,0,0,0,.85-2.13,2.2,2.2,0,0,1,.55-1.67,4.09,4.09,0,0,0,.5-3.08,2.51,2.51,0,0,1-.13-1.77c0.47-1.46-.56-2.8-1.92-3.56-0.11,0-.08.08-0.17,0.18a4,4,0,0,1-2.73-.5c-0.31-.15,1-8.08,3.86-7.37a2.83,2.83,0,0,1,.63,1.69,1.81,1.81,0,0,0,0-1.35,1.23,1.23,0,0,0-1.47-.94,3.94,3.94,0,0,0-1.74,1.43c-1.31,1.68-1.33,2.76-1.77,4.54-0.21.85-.23,0.8-1.4-0.12-0.84-.66-1.24-0.87-1-1.25,0.13-.17.67-0.72,0.67-0.72l10.66-9.84v98.87H94.67l0.4-13c1.08-8.9-.82-27.6-2.26-29.36,1.11-1.25,4.55-4.27,4.36-4.41l-0.46-.27-1.82,1.68-4.5-1.37a19.41,19.41,0,0,0-5.91-3.08c-3.32-.85-9.7,1.87-9.71,1.9a52.87,52.87,0,0,0-18.26,4.89,8.67,8.67,0,0,1-1-1.71C50.22,176.08,45.05,172,38,166.95l8.95-5-21.2-22.23L25.55,121.7,56.26,92.22c0.18-.51,9.8,6.82,13.38,12.78a71.4,71.4,0,0,1,3-8.42c0.11-.26,6.11,2.23,7.89,2.33A0.67,0.67,0,0,0,81,98.65l-7.92-2.58,1.62-4.65s0.56-1.26-.07-1.47c-3.61-1.17-7-3.24-10.45-5,0,0,1.61-1.8,1.64-1.88a2.8,2.8,0,0,0,.52-1.37c-1.76,1.71-16.09,15-16.09,15a7,7,0,0,0-2.44-4.5,6.45,6.45,0,0,0,2.63-1.29c2.1-1.54,3.24-4.28,3-5.88a45.84,45.84,0,0,1-6.36,1.86,8.09,8.09,0,0,0-3.58,1.59L43.39,86s3.4,0.6,5-1.69c1.35-2,.8-4.22.49-5.37,0-.26,0-0.23.54-0.77,0.43-.4,1.1-0.91,1.1-0.91s-1.75-.81-2.05-1.41c0.47-4.73-3.29-6.56-6.48-5.72a1.18,1.18,0,0,1-1.59-.5l-1-1s-0.38.87-.57,1.25c-0.63,1.24-.8.87-2.15,0.93-3.42.17-4.94,2.94-4.16,6.34,0.18,0.8.1,0.67-.42,1.68-0.27.52-.7,1.17-0.7,1.17s0.63,0.35,1,.54a1,1,0,0,1,.66,1.23A6.34,6.34,0,0,0,34.3,85.2a19.56,19.56,0,0,1-7.15-1c0.37,3.74,3.12,5.13,6.48,5.68a2.74,2.74,0,0,1-.72.48,1.7,1.7,0,0,0-1.27,1.54,3,3,0,0,1-.85,1.51A2.28,2.28,0,0,0,30,95.75a2.18,2.18,0,0,1-.53,1.5,2.79,2.79,0,0,0-.57,2.28,9.67,9.67,0,0,1,.1,2.26c-0.14,1.55.41,2.14,1.11,3.23a1.12,1.12,0,0,1,.25,1.24,28.4,28.4,0,0,1-.79,2.81c-0.61,2.1-.64,3.7-0.13,4.11a2.1,2.1,0,0,0,2,.31c3-.92,2.46-3.86,2.62-5.82,0.08-.51.26-0.75,0.42-0.73a9.24,9.24,0,0,0,2.88,2.18c-4,4-6.5,6.52-11.5,10.94V21.39H83.1s0.06,0.83-.08,4.39C82.78,33,82.48,40.63,83,48a67.4,67.4,0,0,0,.39,7.61c0.36,2.47.51,5.12,1.66,7.42,0.46,1.24.48,1.15-1.28,2.78a6.78,6.78,0,0,0-1.56,1.8s0,0.24.09,0.13,0.72-.7.8-0.79c0.48-.56,1.27.16,4,0.93A7.32,7.32,0,0,1,88.9,69c4.06,3.44,9.78,2.36,14.05.49a9,9,0,0,1,3.46-.82,67.22,67.22,0,0,0,14.91-4l0.94,1.55a0.63,0.63,0,0,1,.61.32c4.15,7.87,17.7,16.86,17.46,16.44l-8.86,4.92c6.45,8,21.28,21.57,21.28,21.57v19.5a131,131,0,0,0-11.35,10.38c-1,1-1.71,1.56-1.33,1.58,0.9-.14,1.68.76,2.42,1.38,0.47,0.52.35,0.47-.18,1.19a1.57,1.57,0,0,0-.52,1,1.77,1.77,0,0,1-.61,1.69,2.47,2.47,0,0,0-.68,1.37,2.41,2.41,0,0,1-.46,1.45c-0.67.14-.73,1.12-0.61,1.55a1.44,1.44,0,0,1,.44,1.29c-1.33,1.45-2.73,2.71-1.84.68a6.13,6.13,0,0,0,.54-1.38s-0.64.67-1,1c-0.51.48-.7,0.2-0.72-1.29a9.82,9.82,0,0,0-.73-3c-0.1-.17-0.12.12-0.07,1.2a6.43,6.43,0,0,1-.27,3.25c-0.67,1.92-1.15,2.19-.06,2.12s1.91-.07,2.37.55a2.13,2.13,0,0,0,.77.78,7.85,7.85,0,0,1,2,1.5c1.53,1.67,1.09,3.17-1.87,2.16-1.56-.53-0.54-1.21,1.14-1.05,1,0.1,1.2-.29.31-0.56-1.66-.31-1.93-0.5-3,0.81a10.66,10.66,0,0,1-8.42-5.14c-0.52-.88-0.68-1-0.32-1.54,0.14-.2.06-0.14-0.19,0.14a11.27,11.27,0,0,1-1.13.69c-1.54,1.55-3.11,3.21-4.5,4.46h0Zm20-10.83c0.78,0.1.76,0.75,0.07,1.39s-1.1.59-1.47,0.22C140.87,147.34,141.7,146.38,142.92,146.38Zm2.27,0.46a3.85,3.85,0,0,1,2.38,1.08c1.14,0.95,1.4,3.25.35,3.64-0.44.17-.51,0-1.44-0.89a8.13,8.13,0,0,0-2-1.46c-1.37-.65-1.55-0.9-0.62-1.35a1.71,1.71,0,0,0,.56-0.52,0.71,0.71,0,0,1,.74-0.51h0Zm-1.48,3.06a2.16,2.16,0,0,1,.81.32c2.31,1.27,3.44,3.25,2.66,4.37-0.51.74-1.35,0.45-2-.59a6.46,6.46,0,0,0-2.39-1.89c-1.24-.63-1.26-0.72-0.37-1.15a1.82,1.82,0,0,0,.82-0.74c0.21-.37.23-0.33,0.46-0.33h0Zm0.74,4.73c1.75,1.75,1.55,2.69.41,3.4a2.43,2.43,0,0,1-2.42.2c-0.66-.58-0.64-1.24.09-1.45s0.42-.42-0.21-0.58c-2.26-.64-3.65-1.85-1.19-1.59a2.25,2.25,0,0,0,1.76-.92c0.53-.65,1.26.61,1.57,0.93h0Zm-119,.67,50.84,72.85H35.16c1.45-11.59-1.46-24.45-5.3-32.84A122.56,122.56,0,0,0,42,192.4l-0.81-1.05a49.4,49.4,0,0,1-13.28,3.08c5.48,9.37,7.44,22.28,5.8,33.74H25.89V171.6Zm9.11,10.84a4,4,0,0,1,2.73,2.2,23.31,23.31,0,0,0,1,2.46c0,0.2,1.78,3.4,1,3.12-1.54-2.11-4.3-5.69-5-7.44C34.28,166.26,34.31,166.15,34.51,166.15Zm5.5,3.2a17.44,17.44,0,0,0,1.05,2.82c1.1,2.38,2.8,6.1,2.46,7.16-0.23.71,0,.68-0.62-0.21-0.3-.43-1.26-1.76-1.48-2.07-0.56-.75-0.18-0.06-0.5-1.28-0.76-3.45-2-5.27-2.78-7.29-0.28-.95,1.51.48,1.87,0.86h0Zm1,0.53c0.15,0.1,2.17,1.53,2.37,1.73,0.72,2.55,3.58,10.74,2.84,12.2a6.64,6.64,0,0,1-1.5-2.2A27.39,27.39,0,0,0,41.81,172C41.43,171.08,41.14,170.2,41,169.87Zm3.8,2.87a4.54,4.54,0,0,1,1.68,1.67,7.12,7.12,0,0,1,.61,2c0.73,3.34,2.13,6.72,1.5,10.29-0.39.53-1.24-.68-1.36-1.87a46.4,46.4,0,0,0-2.13-10.48C44.82,173.48,44.61,172.78,44.79,172.75ZM48,175.81a2.78,2.78,0,0,1,.88.7,2.67,2.67,0,0,1,1,2.59c0,2.09.72,4.47,0.83,6.57a29.44,29.44,0,0,1,.1,4.54c-0.26.37-1.44-1-1.35-3a24.88,24.88,0,0,0-1-8.55c-0.48-2-.73-2.8-0.52-2.85h0Zm94.06-12.39c3.64,2.35,2.36,6.67,1.58,7.21,5,6.37-2.79,9.64-5.27,7.35-3.67,3.66-10,.59-7.54-5.44,0,0-4.61-8.84,4.48-8.25,0,0,.16-3.57-0.1-3.73-3.25-.22-7.66,2.92-8.91,3.79-0.69.42-.85,0.22-0.85,0.22-0.17-1.85-.18-2.7.57-3.74,1.31-1.8,3.47-2.41,6.32-3,3.52,1.09,6.87,2.8,10.13,2.53a11.23,11.23,0,0,1,5.37,1.24c1.17,0.56,1.79,2.64,1.79,2.64-1.84,1-7.58-.77-7.58-0.77h0Zm-1.73-13.11a1.4,1.4,0,0,1,1.43-1.26,0.84,0.84,0,0,1,.23,1.64c-0.25.2-1-.1-1.09,0.13,0.06,0.39-.33.23-0.41,0.08A1,1,0,0,1,140.36,150.31Zm-0.58,2.5a2,2,0,0,1,1-.32,1.17,1.17,0,0,1,1.4.59c0.15,0.56-.93.9-1.8,0.91a1.15,1.15,0,0,1-1.09-.22,1.2,1.2,0,0,1,.48-1h0ZM29.6,112.49c0.7-2.45.26-3.82,1.43-6.84l2.85,1a16.23,16.23,0,0,1-.45,4.61C32.86,112.86,31,114.18,29.6,112.49Zm21.23,66.27a4.51,4.51,0,0,1,1.53,2.3c0.34,1,.23,2.27.48,3.35a38.77,38.77,0,0,1,.38,8.51c-0.07.56-.43,0.33-0.92-0.2-0.71-.77-0.61-0.79-0.61-2.93a66.36,66.36,0,0,0-.59-7.3,15.25,15.25,0,0,1-.41-3.61A0.12,0.12,0,0,1,50.83,178.76Zm33.33,0.44c3.67,0.59,6.6,3.1,8.28,7.24s2,10,2.27,15.23c0,1.26-.54.94-1.9,0.16s-1.8-.52-4,0c-1.35.31-1.23-.61,1-2.14,0.76-.5,1.64-1.16,1.35-1.26a2.24,2.24,0,0,0-1.31.53c-2.18,1.77-2.78,2.2-2.15.48,0.16-.44.66-1.64,0.88-2.22,0.79-2.16-.12-3.09-2.81-4.46-0.67-.34-1.11-0.91-0.44.28,0.55,1-.59,1.77-2,0.62a2.77,2.77,0,0,0-3.57.73,2.5,2.5,0,0,0,.92,3.34c1.07,0.46,1.46.13,0.43-.59-1.32-.92-1.07-2.48.42-2.47A10.42,10.42,0,0,1,84.23,196c1.17,0.64,2,.37,2-0.58,0-.64.36-0.58,1.14-0.2,1,0.52.93,1,.38,2.43-0.37,1-.55,2.15-0.89,3.2-0.88,3.54-1,7.56,0,8.81,2.58,3.33,5.31,3,7.65.78L94.39,214c-2.39,1.92-5.18,3.24-9.49,10.37C83.4,222.51,77,214.77,66.62,213l-2.33-3.19c0-.2-1.74-11.88-2.9-15.86,0,0,1.28-1.95,2.44-3.39,4.64-5.74,12.49-12.31,20.32-11.37h0Zm-13.48,3.32c-0.4.13-.53-0.67-0.31-0.82a5.62,5.62,0,0,1,1.13,0c0.36,0,.35.44-0.82,0.81h0Zm-17.44-.6A10.86,10.86,0,0,1,55,184.19a4.93,4.93,0,0,1,.2,2.15c0.07,1.16.2,3.08,0.29,4.26a12.47,12.47,0,0,1-.39,4.91c-0.34.83-1,.26-1.21-0.88,0-.27.18-3.09,0.19-4.64,0-2.66-.68-5.94-0.84-8.07h0Zm15.65,0a0.44,0.44,0,0,1,.44.15c0.56,0.72.78,1.15,0.28,1.54-0.67.56-1.28,0.42-1.66-.65C67.7,182.19,68.26,181.95,68.88,181.91Zm-2.07.63a3.51,3.51,0,0,1,1.26,2.23,1.46,1.46,0,0,1-.63.72c-0.4.37-.53,0.34-1-0.36-0.7-1.1-1-1.82-.89-2.2A1.23,1.23,0,0,1,66.8,182.54Zm24.43,0.14a21.18,21.18,0,0,1,3,.78l-1.49,1.44C92.28,184.16,91.77,183.42,91.24,182.68Zm-26.66.75A8.07,8.07,0,0,1,66,186.72a1.68,1.68,0,0,1-.59.58c-0.18,0-.35-0.27-1-1.37-1.08-1.91-1.39-2.45-.83-2.68A1.26,1.26,0,0,1,64.58,183.43Zm-2.17.45a11.9,11.9,0,0,1,2.08,4.19,1,1,0,0,1-.22.57c-0.9,1-.68.82-2-2-1.14-2.29-1.44-2.51-.69-2.77a1.47,1.47,0,0,1,.84,0h0Zm-2.16.74c0.39,0,.51.66,1.27,2.17,1.29,2.85,1.77,3.25,1.48,3.55s-0.57.77-.91,0.22c-0.78-1.27-1.55-2.88-2.27-4.3-0.58-1.06-.63-1.19-0.26-1.45a1.35,1.35,0,0,1,.69-0.19h0Zm23,0.81c-0.48.14-2.43,0.76-1.24,0.87,0.24,0,.85-0.13,1.28-0.16,1.2-.08,3.71.14,3.62-0.09C86.67,185.18,83.89,185.26,83.23,185.43Zm-24.67.27s0.31,0.6.62,1.15c1.83,3.55,2.85,4.84,2.52,5.4a1.28,1.28,0,0,1-.93.66c-0.39-.16-0.92-1.32-2.23-4s-1.49-2.92-.8-3.27a0.64,0.64,0,0,1,.81,0h0Zm-1.83,1.25c0.84,1.37.73,1.19,0.72,5.66,0,2.78-.36,4.55-0.83,5.24-0.24.36-.67,0.15-0.88-0.55A5.08,5.08,0,0,1,56,196c0.33-3.34.1-6.69,0.11-9.85A1.49,1.49,0,0,1,56.74,186.95Zm21.7,1.1a2.62,2.62,0,0,1,.29,1.77c0,1.07.07,1.15,0.81,0.61s0.7-.51,1.86.28a1.7,1.7,0,0,0,2.12,0c0.4-.37.53-0.2,1.06-0.06,0.58,0.32.74,0.37,2-.23,0.84-.37.87-0.43,1.37-0.16,0.88,0.77,1,.49.89-0.52a7.71,7.71,0,0,1,.21-1.44c0.44-1.8-.27-1.82-1.2-0.67a1.63,1.63,0,0,1-1.93.28,7.62,7.62,0,0,0-4-.09,3,3,0,0,1-2.78-.67c-0.34-.29-1.11-0.55-1.2-0.33a1.77,1.77,0,0,0,.56,1.24h0Zm-20,2.53c0.19,0,.47.51,0.89,1.69,0.54,1.51-.4,6.78-1,7.64-0.3.45-.49,0.73-1.11-0.11-0.25-.37-0.05-0.49.19-1.52a32.15,32.15,0,0,0,.7-5.31c0-1.54.09-2.35,0.3-2.39h0Zm1.9,5.11a1.47,1.47,0,0,1,.51.91,6.62,6.62,0,0,1-.24,3.63,9.56,9.56,0,0,1-.84,2.1c-0.13.36-.82,0.23-1-0.56a5.45,5.45,0,0,1,.49-1.91c0.2-.8.43-1.81,0.54-2.32C60,196.28,60.18,195.67,60.37,195.68ZM75.05,198H75s1.43,1.63,1.82,2.08c0.21,0.17,2,2.32.87,1.83a7.51,7.51,0,0,0-8,1.34c-0.25.24-.46,0-1.21-0.06-1.55-.12-2.11.5-1.17,1.27a2.41,2.41,0,0,1,.58.36,3.2,3.2,0,0,1,.15.57c3,4,8.53,4.76,12,2.16a1.09,1.09,0,0,1,1.09-.32c0.81,0.24.88-.44,0.17-1.39-0.31-.41-0.7-0.89-0.47-1,0.44-.38.66-1-0.11-1.24A2.52,2.52,0,0,1,79.33,202c-0.35-1-3.76-3.93-4.27-4h0Zm-13.58,1.75c0.65,0,.68,3.84,0,5-0.37.44-1.21-.38-1.09-1.23a26.48,26.48,0,0,1,.94-3.69,0.29,0.29,0,0,1,.18-0.09h0Zm13.26,2.41a2.93,2.93,0,0,1,1.89.78,2.71,2.71,0,0,1,.65,2,0.58,0.58,0,0,1-.8.05c-0.37-2.55-2.43-2.91-3.08-.54,0,0-.42.36-0.48-0.33,0.15-1.35.78-2,1.82-2h0Zm16.55,0.22a1.68,1.68,0,0,1,1.6,1,1.55,1.55,0,0,1,.16,1.11,0.24,0.24,0,0,1-.29.09c-1-2.87-2.46-1.54-3,0a0.74,0.74,0,0,1-.6,0,1.35,1.35,0,0,1,.19-0.94,2.22,2.22,0,0,1,1.92-1.32h0Zm-14,.18a2.35,2.35,0,0,1,1.47.76c0.48,0.49.53,0.78,0.14,1.14-0.23.22-1.06,0.43-1.22,0.05L77,202.88c-0.07-.16.14-0.3,0.31-0.31h0Zm-5,.08c0.41,0,.5.1-0.15,1.61-0.14.32-1.81-.15-1.49-0.77A2.76,2.76,0,0,1,72.3,202.64ZM89,202.76a0.43,0.43,0,0,1,.36.09,10,10,0,0,0-.78,1.65c-0.59-.07-1.31,0-1.43-0.48s0.12-.74,1-1.06A3.43,3.43,0,0,1,89,202.76Zm4.88,0.41a0.94,0.94,0,0,1,.7,1c-0.06.21-.36,0.21-0.57,0.05a1.65,1.65,0,0,1-.47-0.9C93.58,203.1,93.66,203.1,93.87,203.17Zm-31.44,1.48c0.19,0.37.54,2.44,0.13,2.39a1.47,1.47,0,0,1-.65-1.29A2.29,2.29,0,0,1,62.43,204.65Zm6.94,1.11a3.08,3.08,0,0,1,1.33.53,10.37,10.37,0,0,0,7,.7c1.42-.37,1.78-0.59,2-0.34,0.34,0.42-.2.83-2.2,1.51-2.2.74-4.48,0.62-7.49-1.51-0.81-.57-0.91-0.85-0.68-0.88h0Zm25.11,0.57c0.37,0.7-.9,1.36-1.54,1.55a6.61,6.61,0,0,1-4.6-.49l-0.28-.19c-0.95-.71-0.56-1.22.5-0.67a6.39,6.39,0,0,0,4.68.1c0.62-.3,1-0.67,1.24-0.3h0Zm-28.1,1.3c-0.13,0,.09.35,0.53,0.83,3.1,3.49,10.48,5.38,14.63,1.78,1.3-1.22,1.1-1.78-.95-0.8a19.45,19.45,0,0,1-8.28.43,12.16,12.16,0,0,1-4.74-1.54,3.18,3.18,0,0,0-1.2-.7h0Zm21.34,0.1a3.38,3.38,0,0,1,1.24.46,7.24,7.24,0,0,0,4.21.07c1.64-.61,2,0.16.42,1a4.71,4.71,0,0,1-5.53-.72c-0.43-.39-0.67-0.87-0.48-0.91C87.62,207.66,87.7,207.73,87.73,207.74ZM67.21,213.9c6.1,0.56,15.29,7,18.88,14.25H84c-3.6-5.74-9.15-10.69-15.73-12.41a4.17,4.17,0,0,1-1.09-1.84h0Zm27.06,1.34-0.28,2a32.65,32.65,0,0,0-7.54,8.83,1,1,0,0,1-.76-1.2c2.22-4.4,4.88-6.83,8.59-9.64h0Zm-24.63,1.58c1.4-.1,10.5,5.14,13.56,11.34H81.51c-3.45-4.5-7.28-7.78-10.68-9C70,218.33,69.1,216.86,69.63,216.82ZM94,218.22l0,2.72a24.85,24.85,0,0,0-5,7.21H87.26a3.89,3.89,0,0,1-.24-1.54,24,24,0,0,1,7-8.39h0Zm-13.82,9.94H78.53a20,20,0,0,0-5.31-5.3c-0.77-1-1.64-2.14-1.29-2.34,0-.71,7.26,4.53,8.24,7.63h0ZM94,222.28l0,1.58c-1.11,1.42-2,2.94-2.92,4.3H89.67c1.27-2.75,4.46-6.62,4.35-5.87h0Zm-18.77,3.05c0.5,0.13,2.35,2.23,2.29,2.82H76.7A17.38,17.38,0,0,1,75.36,226c-0.2-.38-0.34-0.74-0.11-0.66h0Zm18.45,0.49h0l0,2.34h-1.4a4.67,4.67,0,0,1,1.4-2.34h0Z" transform="translate(0.1 0.1)"/><path id="path6313-8" d="M101.3,21.13l52.09,74.18,0-16.48L136.72,57.18a62.84,62.84,0,0,1,12.11-2.32c-4.7-10.45-7-20.27-5-33.73C129.24,21,114.58,21,101.3,21.13ZM143,21.48c-0.41,4.75-.94,10-0.08,15.93-2.71-1-3.35.7-3.8,0.88-0.51-1.14-2.4-3.12-4.54-.8-1.11,1.21-.57,3.48,2,4.5-3,.23-4.49-2.31-5-4.92-1.6-1-3.28-2-3.44-5.64l0.82,0.14a2.52,2.52,0,0,0,3.85,2.59c1-.76,1.09-1.92.7-3.74a2.64,2.64,0,0,0,2.15-3.33c-0.68-3.29-4-2.91-5.59-.74-1.28-1.59-3.63-1.89-4.57.58a2.63,2.63,0,0,0,2,3.22c-3,.58-4.54-3.59-4.7-6.42l-1.25-2.23C129.71,21.47,133.28,21.48,143,21.48Zm-40.83.08h6l44.15,57.35,0.09,14.28Zm15.3,0h1A12.52,12.52,0,0,0,127,32.06c0.26,4.12,2.24,9.73,9.76,11.62-0.22,4.66,2.76,9.11,5.95,11.24a12.84,12.84,0,0,1-1.53.28c-4.29-3.41-5.35-8.44-5.77-10.52a1.19,1.19,0,0,0-.88-0.45,13.28,13.28,0,0,1-8-8l-0.79-3.63c0-.47-0.09-0.25-1.18-0.65-2.83-1-5.45-4.12-6.62-7.79a5.63,5.63,0,0,1-.45-2.57h0Zm-3.89,0h3.39s0,0.6.07,1c0.46,3.62,3.69,8.15,7,9.66a8.15,8.15,0,0,1,1.27.65c0.92,5.93,3.6,9.5,9.25,11.94a3,3,0,0,1,.42.27c0.77,3.67,2.45,7.92,5.66,10.25l-1.38.14Zm16.56,6.22a1.39,1.39,0,1,1-1.39,1.39A1.39,1.39,0,0,1,130.11,27.8ZM83.33,35.4c0.08,0.2-19,16.36-17.1,46.78l-0.55.62L65.83,83c-0.63.72-1.23,1.29-1.92,2a69,69,0,0,0,10.85,5.21l-1.31,3.06,8.22,2.67-1.1,2.91-8.09-2.7a72.18,72.18,0,0,0-2.73,8.06c-0.08.22-.27,0.11-0.56-0.31-4.27-7.31-13-12.59-12.75-12.07L25.31,121.46,25.1,139.78l21.53,22.28a103.07,103.07,0,0,0-9.18,5.1c2.29,1.88,4.89,3.32,7.17,5.1,4.72,3.34,7.9,8.24,11,11.57A52.49,52.49,0,0,1,97,181.4c-1.46,1.54-3.09,2.88-4.6,4.55,3.64,9.6,2.48,28.66,2.29,29.17a63.29,63.29,0,0,0,17.37-47.95L115.3,164c-0.06-.16-8-4.42-11.29-5.35l0.91-2.92L97,153.22l0.88-2.32,7.88,2.29c1.49-3.68,3.07-8.83,3.07-8.83a40.61,40.61,0,0,0,13.76,13.4l30.94-29.71-0.2-19.1L132.28,87.8,141,83.22c-0.84-.68-2.06-1.33-2.93-2-0.06,0,.17-0.2.11-0.24-0.22-.17-0.38-0.31-0.61-0.46-0.05,0-.21.19-0.26,0.16A52.71,52.71,0,0,1,129.07,74c-0.06-.06,0-0.32,0-0.39-1.22-1.31-2.43-2.52-3.67-3.8a20,20,0,0,1-1.52-2l-0.05-.46-1.33-1.68c-4.28,2.54-22.55,8.9-40.22,1.85l3.36-3.37a25.79,25.79,0,0,1-1.7-6.56C83,49.69,83.33,35.4,83.33,35.4h0ZM139,39.89a1.47,1.47,0,1,1-1.46,1.47A1.47,1.47,0,0,1,139,39.89Zm4.58,1.75a66.64,66.64,0,0,0,4,12.54l-1.95.22c-1.58-1-3.26-2.54-3.44-4.68-4.29,0-5.54-6.71-4-5.9a2.55,2.55,0,0,0,3.06,3c1.39-.19,2.59-2.12.94-4.25A2.32,2.32,0,0,0,143.62,41.64ZM82.89,52.45a60.92,60.92,0,0,0,2.05,11.61l-8.47,8A43.86,43.86,0,0,1,82.89,52.45Zm40.61,15.4,1.08,1.55C112.34,76.61,91.46,77.12,78.73,71l1.69-1.61C91.61,74.49,109.83,74.87,123.5,67.85ZM44,70.26a6.81,6.81,0,0,0-4.16,1.61C34.25,69.3,30.58,75.3,34,79.27c-0.51,2.86-.9,3.39,1.24,6.29-2.28.29-5.15-.31-7.6-0.69,0.41,4.24,6.46,5.22,9,4.76a9,9,0,0,1,5.39.79c1.6,0.45,2.59,1.22,4.16,1.59,2.6,0.62,6.4-2.44,7-5.34,0.05-.39.17-0.74,0-0.8-1.78.46-3.73,1.1-5.46,1.48a10.28,10.28,0,0,0-4.26,1.84L43.3,85.7c8.79,0.42,5-8,4.47-8.33,1.63-3.31-.33-7.07-3.74-7.11h0ZM124,70.52l1.91,4.62-5.08,1.73-1.3-4.52Zm-80.3.14c3,0,5.66,3.19,2.79,6.73,5.56,4.93-1.57,10.21-5,6.54-4.52,4.16-9.32-.18-6.8-4.71-4.82-4.33,1.12-10.14,5.19-6.4A4.41,4.41,0,0,1,43.66,70.66Zm34.7,1.69a1.3,1.3,0,1,1-1.3,1.3A1.3,1.3,0,0,1,78.37,72.35Zm-33.11.1a0.41,0.41,0,0,0-.26.12A10.92,10.92,0,0,0,43.75,74a8.34,8.34,0,0,1-1.52,1.61,3.62,3.62,0,0,0-3.4.39,6.5,6.5,0,0,1-2.61-1.48C35.52,74,35.15,73.86,35,74.17s0.19,0.66,1.51,1.56c1.84,1.25,1.72,1.16,1.72,1.16a5,5,0,0,0,.48,2.83,13.44,13.44,0,0,1-1.63,2.49,3.63,3.63,0,0,0-.67,1.17c0,0.67.58,0.22,1.91-1.47,0.52-.66,1.24-1.61,1.24-1.61a3.6,3.6,0,0,0,3.09-.14s0.34,0.25,1.19.93c1.56,1.25,1.9,1.38,2.09,1.22s0.22-.28-0.37-0.71a13.89,13.89,0,0,1-2.37-2,4.55,4.55,0,0,0-.42-3.29,5.55,5.55,0,0,1,1-1.29,9.32,9.32,0,0,0,1.67-2.3A0.25,0.25,0,0,0,45.26,72.45Zm36,0.28,4.58,1.43-1,4.78L80,77.35Zm33.12,1.17,1.28,4.66-4.76,1.27-0.78-4.95ZM117.75,74a1.3,1.3,0,1,1-1.3,1.3A1.3,1.3,0,0,1,117.75,74Zm10.82,0.17,4,3.58L128.14,80,126,75.31Zm-37.74,1,4.65,0.55-0.19,5L90,80Zm-16.13.05,5.17,2.28L78,82.74l-5.3-2.28ZM88,75.64a1.3,1.3,0,1,1-1.3,1.3A1.3,1.3,0,0,1,88,75.64Zm16.73,0,0.64,5-4.83.29-0.1-5.1Zm3.32,0.57a1.3,1.3,0,1,1-1.3,1.3A1.3,1.3,0,0,1,108.09,76.22Zm-67.21.47A1.34,1.34,0,1,1,39.55,78,1.34,1.34,0,0,1,40.88,76.69Zm57.17,0a1.3,1.3,0,1,1-1.3,1.3A1.3,1.3,0,0,1,98.05,76.64ZM120.79,77l1.88,5.16-5.27,1.71-1.49-5.3Zm3.7,0.14a1.3,1.3,0,1,1-1.3,1.3A1.3,1.3,0,0,1,124.49,77.1Zm9.12,1.46L137,81l-1.69.94C134.89,80.86,134.1,79.6,133.61,78.56ZM84.89,79l5,1.1-0.77,5.29-5.49-1.1Zm-15,.29,2.67,1.26L70.83,85l-4.32-2.31Zm11.95,0.29a1.3,1.3,0,1,1-1.3,1.3A1.3,1.3,0,0,1,81.87,79.61Zm29.06,0.29,0.9,5.29-5.68.8-0.35-5.4ZM132.18,80a1.3,1.3,0,1,1-1.3,1.3A1.3,1.3,0,0,1,132.18,80Zm-4,0L130,84.7,124.48,87l-1.64-4.67ZM114,80.37a1.3,1.3,0,1,1-1.3,1.3A1.3,1.3,0,0,1,114,80.37Zm-18.75.53,5.31,0.1-0.06,5.35-5.82-.16Zm42.49,0.37,2.09,1.46c-21.51,13.88-51.72,15.6-75.3,1.94,0,0,1-1,1.51-1.53C87.29,95.91,118.33,94.12,137.74,81.27Zm-45.38.6a1.3,1.3,0,1,1-1.3,1.3A1.3,1.3,0,0,1,92.36,81.88Zm10.91,0.29a1.3,1.3,0,1,1-1.3,1.3A1.3,1.3,0,0,1,103.27,82.17ZM78,82.89l5.55,1.61-0.94,4.4-6.08-1.76Zm-3.67,0a1.3,1.3,0,1,1-1.3,1.3A1.3,1.3,0,0,1,74.3,82.92Zm43.1,0.94,1.33,4.93-6.13,1.32-0.74-4.85Zm3.52,0.72a1.3,1.3,0,1,1-1.3,1.3A1.3,1.3,0,0,1,120.92,84.57Zm-80.14.77V88.8c-1-.84-2.17-1.74-3.34-2.64a6.4,6.4,0,0,0,3.35-.82h0Zm-12.64.09a14.73,14.73,0,0,0,1.72.22c2.5,0,7.16.77,8.54,1.91a5.9,5.9,0,0,1,1.52,1.32c0,0.29-.41.3-1-0.08a15.09,15.09,0,0,0-5.66-1.72c-0.47-.06-0.52,0-0.52.17s0.43,0.43,1.79.65a15.16,15.16,0,0,1,2.52.57c1,0.29.38,0.67-.7,0.77-4.38.41-7.66-1.48-8.32-3.64-0.05-.14,0-0.19.12-0.19h0Zm61,0.08,5.51,0.72-0.25,4.63-6-.69Zm-46.86.4c1,0.76.3,3.06-.22,3.73a0.66,0.66,0,0,1-1.13-.36c0.12-.48,0-2.77.05-3.48a1.28,1.28,0,0,1,1.3.1h0Zm63.85,0.21,0.29,4.77-6,.27,0-4.69Zm-20.28.32a1.3,1.3,0,1,1-1.3,1.3A1.3,1.3,0,0,1,85.86,86.43Zm-33.5.07c0.22,3.5-5.14,5.88-7.14,4.8-0.89-.48-0.52-0.77,1.24-1.13,2.28-.61,3.78-1.19,3.78-1.62,0-.26-0.34-0.23-1.27.12-1.43.48-2.92,0.69-4.28,1.3-1,.46-1.42.63-1.65,0.35-0.48-.59,1.79-2.06,4.14-2.46,1.76-.29,3.54-1.24,5.18-1.37h0Zm57.09,0.44a1.3,1.3,0,1,1-1.3,1.3A1.3,1.3,0,0,1,109.46,86.93Zm-12,1a1.3,1.3,0,1,1-1.3,1.3A1.3,1.3,0,0,1,97.41,87.88Zm28.87,2.21c8.67,8.29,18.17,17.83,26,25.68,0,4.11,0,12.32,0,12.32l-29.94,28.56a38.92,38.92,0,0,1-14.24-14.85,9,9,0,0,0,1.26-1.13l-1.56.94c-5.52-8.87-7.86-26.53,1.52-40.69l-9.48.35L101.37,98l10.32-.57L115.86,93s1.32-.25,2.42-0.5,3.31-.89,4.93-1.42,3-1,3.07-1h0Zm-70,2.3A37.54,37.54,0,0,1,70.15,107c-16,13.81-22,29.89-23.38,46.63-8.7-8.17-13.1-12.69-21-20.63l0.29-11.84Zm33.64,1.54a124.82,124.82,0,0,0-6.07,16.17l-2.48-.74s1.6-.67,2.32-1.1l-1.29-2.08,2.44-1-1.44-1.76L85.89,102l-1.24-1.56,2.27-1.14-1.41-1.63,2.38-1.33-1.24-1.56Zm0.76,0,0.69,0.14c0.09,0-.45,1.3-0.39,1.34,0.87,0.18.92,0.13,1.18,0.21l0.66-1.37,1.08,0.21A90.12,90.12,0,0,0,88,110.7l-1.28-.27s0.37-1.24.37-1.4c-0.15,0-.87-0.34-1.09-0.43-0.08.19-.53,1.63-0.53,1.63l-1,0a77.14,77.14,0,0,1,6.18-16.26h0Zm4.15,0.19L97.11,96l-2.57,1,1.33,1.78-2.72,1,1.56,1.85-2.7,1,1.61,2.23-2.8.95,1.77,2L90.06,109l1.52,1.51L89.9,111a5.68,5.68,0,0,1-1.31-.2,88.17,88.17,0,0,1,6.25-16.68h0Zm-55.06,1c-0.62.41-.27,1.29-1.05,2.05a1.71,1.71,0,0,0-.19.72c0,0.21-.66,2.68-0.66,2.68a3.42,3.42,0,0,0,.4-1c0.21-.67.4-2,0.51-2.16,0.58-.18.67-2.07,1.25-1.81,0.34,0.15.27,0.46,0.08,1.18-0.42,1.45-.58,2.06.13,1.07,1.07-1.29,1.17-2.46,0-2.71a4.4,4.4,0,0,0-.46-0.05h0Zm16.17,0.54L28,122l-0.08,9.84,9.74,9.9,6.91,6.72C47,133.4,52.8,119,67,106.6a33.83,33.83,0,0,0-11-11h0Zm75.4,0.27c-16.44,7.75-20.22,23.66-15.13,38.05C124.06,123.84,130.21,114.34,131.35,95.9Zm-58.5.81,7.46,2.41-2.81,9.62-6.72-2L70.1,105ZM130.53,97a59.66,59.66,0,0,1-14,35.29A28.14,28.14,0,0,1,130.53,97ZM90.32,97l-0.47,1.2,1,0.29,0.44-1.22Zm-1,2.83-0.42,1.22,1.06,0.36,0.4-1.23Zm44,0.22c-2.3,17.85-11.91,34.09-22.05,42.36a39.36,39.36,0,0,0,10.9,11.48l28.59-27.49-0.11-9.17Zm-75.54,4.74c-0.18.65-.24,1-0.24,1a6.63,6.63,0,0,1,1.2-.78c5.62-2.81,3.8,1.46,1.16,3-0.59.32-1.2,0.69-1.2,0.69s0.56,0.13,1.17.24c3.41,0.71,2.68,2.71-.87,2.4-0.53,0-1.14-.15-1.14-0.12a13.14,13.14,0,0,0,.46,1.4c1.2,3-1,3.27-2.51,1.34-0.2-.27-0.67-1-0.67-1s-0.14.56-.23,1.1c-1.27,4.75-4.41,4.63-3.24-.19,0.15-.5.32-1.39,0.32-1.39a15.33,15.33,0,0,1-1.47.77c-4.06,1.82-4.72-.05-1-2.79,1-.78,1.4-1.08,1.4-1.08a10.71,10.71,0,0,1-1.79-.28c-2.94-.74-3.73-2.51,1-2.42,0.7,0,1.41.06,1.41,0.06s-0.23-1-.48-1.78c-1.14-3.54,1.15-4,3.09-.79a1.5,1.5,0,0,0,.53.68,7,7,0,0,1,.59-2.33c2.34-4.35,3.26-.38,2.55,2.25h0Zm50.56-3.52a39.86,39.86,0,0,0-4.49,10.55l-7.64-.13a41.16,41.16,0,0,1,3.49-10.05C102.81,101.57,105.61,101.43,108.34,101.28Zm-20.17,1.54-0.44,1.28,1.11,0.34,0.4-1.25Zm-57.12,2.4a48.31,48.31,0,0,0-1.55,6.42c-0.19,1.1,0,1.56.66,1.81a2.81,2.81,0,0,0,3-1.22c0.43-.61.74-1.88,0.8-4.12l0.07-2a19.7,19.7,0,0,1-3-.9h0Zm56.09,0.28-0.37,1.18,1.07,0.4,0.41-1.19ZM136.61,106a4.14,4.14,0,0,1,2.72.85l2.27,2.35a3.14,3.14,0,0,0,2.16,5.41,5.48,5.48,0,0,0,2.2-.91l3.6,3.74c-2.1.92-4.15-1.2-4.93-2a1.09,1.09,0,0,1-.23-0.33,1.43,1.43,0,0,1,0,.52c-0.3,1.67-1.94,6.58-3.5,6.32-1.76-.3,0-7.32.05-7.16-1.21,1.29-7.12,2.66-6.7,1.22,0.82-2.85,5.24-4,5.82-4.45-2.35-1.42-5.33-5.35-3.42-5.52h0ZM31.34,106a5.31,5.31,0,0,1,1.77.36,0.42,0.42,0,0,1,.27.45c0,0.84.22,3.31-.56,3.34a3.58,3.58,0,0,0-2.24.6c-0.46.35-.61,0.1-0.49-0.8s0.55-2.7.74-3.44A0.53,0.53,0,0,1,31.34,106Zm23.34,0a3.14,3.14,0,1,0,3.13,3.14A3.14,3.14,0,0,0,54.68,106.07Zm0,1.1a2,2,0,1,1-2,2A2,2,0,0,1,54.68,107.17Zm16.15,0c7.18,12.43,6.34,29.5-2.12,41.92l9.1-.64-1.2,2.34-9.7.95c-1.48,1.36-2.83,2.92-4.29,4.37l0,0.51a87.62,87.62,0,0,0-10,2.89c-1.79-1.76-5.15-5.29-5.13-5.38L47.66,153c23.06-11.81,16.32-35.5,14.69-37.44a69.74,69.74,0,0,1,8.48-8.38h0Zm64,2.26a1.7,1.7,0,1,1-1.69,1.7A1.69,1.69,0,0,1,134.84,109.47Zm7.52,0.46,2.83,2.93A2,2,0,1,1,142.36,109.93ZM45,110.29a1.7,1.7,0,1,1-1.69,1.7A1.69,1.69,0,0,1,45,110.29ZM32.43,111c0.79,0.27.61,1-.42,1.66a1.73,1.73,0,0,1-1.85.2C29.06,112.28,31.35,110.62,32.43,111Zm13.07,4.16-10.19,9.9a14.19,14.19,0,0,0,.71-4.93c3.07,0.32,4.35-1.24,3.9-4.46a18.19,18.19,0,0,0,5.58-.51h0Zm16.33,1.13c4.73,13.52.62,27.84-14.16,36.13C48.29,139.46,53.71,127.07,61.84,116.29Zm13.46,1.18a107.75,107.75,0,0,0,26.93,3.13,64.15,64.15,0,0,0,1,11.27,100.43,100.43,0,0,0-27.25-3c0.41-3.87-.25-8.26-0.67-11.44h0Zm60.14,2-8.64,10.14,0.36-5.53c2.91,0.37,3.95-1.17,3.52-4.21A15.15,15.15,0,0,0,135.44,119.48ZM51.51,120l-0.68,4c-1.72,0-3.42.66-3.39,4.52l-5.15-.06Zm95.05,0.75a1.7,1.7,0,1,1-1.69,1.7A1.69,1.69,0,0,1,146.57,120.79Zm-102.89.51A1.7,1.7,0,1,1,42,123,1.7,1.7,0,0,1,43.68,121.3ZM142.79,123l-0.9,6.13c-2.35-.21-4.32.16-3.71,4.31a40.19,40.19,0,0,0-6.61.44Zm-8.43,1.11a1.7,1.7,0,1,1-1.69,1.7A1.7,1.7,0,0,1,134.36,124.15ZM31.28,125.47a1.7,1.7,0,1,1-1.69,1.7A1.7,1.7,0,0,1,31.28,125.47Zm5.61,2c2.16,0.49,1.16,5.54.67,6.92,0,0,6-3.19,6.39-1.76,0.24,2.86-5,4.85-5,4.85s3.54,3.09,3.64,5c0,1.26-1.48,1-3.42-.57l-2-2a3.14,3.14,0,1,0-4.43-4.42c-0.45-.43-1-0.94-1.64-1.59-1.12-1-1.9-1.88-1.79-2.26,1.47-1,4.41,1.76,4.67,2C33.72,133.15,35.34,127.77,36.89,127.48Zm-3,6.22a0.06,0.06,0,0,0,.05,0Zm92.1-2.27c1,0,1,2.33.6,3.55-0.25.93-.5,1.69-0.5,1.69a10.69,10.69,0,0,1,1.25-.86c2.8-1.31,3.84.17,2.43,1.9-0.68.89-1.6,1.08-2.35,1.83a7.22,7.22,0,0,1,3.22.83,2.46,2.46,0,0,1,1.28,1.28c0,0.73-1.78,1.12-3.44.93a9.6,9.6,0,0,1-2-.36,12,12,0,0,1,.75,1.49c0.62,1.73.4,3.75-.49,3.75-1.5-.4-2.23-2.08-2.82-3.28a9.05,9.05,0,0,1-2,3.77c-1.06,1-1.61.17-1.55-1.51a22.53,22.53,0,0,1,.51-2.65c-6.3,2.13-5.83-.75-0.92-3.28-3-1.45-4.87-2.75.28-3-0.14-.12-1-2.89-0.07-3.54s2.8,1.47,2.89,1.57a7.25,7.25,0,0,1,1.41-2.95,2.61,2.61,0,0,1,1.58-1.11h0Zm-5.81,6h0Zm27.58-1.83a3.3,3.3,0,0,0-2.29,1.93,1.94,1.94,0,0,0-.36.46,28.93,28.93,0,0,0-1.09,5.42,5.67,5.67,0,0,0,3,.51,1.41,1.41,0,0,0,.2-0.75,19.16,19.16,0,0,0,1.63-6.1C148.85,136.06,148.5,135.56,147.81,135.62ZM35.08,135.5a2,2,0,0,1,1.26,3.64c-1.31-1.31-2-2-2.86-2.86A2,2,0,0,1,35.08,135.5Zm113.11,1c0.27,0.67-.61,1.4-1.75,1.39-0.68,0-.9.09-0.6-0.5s1.83-2.18,2.35-.9h0ZM132.84,136a1.7,1.7,0,1,1-1.69,1.7A1.7,1.7,0,0,1,132.84,136Zm-89.23.12a1.7,1.7,0,1,1-1.69,1.7A1.69,1.69,0,0,1,43.62,136.12Zm80,0.69a3.14,3.14,0,1,0,3.13,3.14A3.14,3.14,0,0,0,123.64,136.8Zm-41.84.42a52,52,0,0,1-3.69,10.51c-3,.18-6.28.32-8.43,0.63,3.58-6.3,3.67-7.78,5-11.12ZM87,137.74c0.85,0.1,1.78.23,2.61,0.39a98.66,98.66,0,0,1-6.21,16.41l-1.59-.25L81,153.35l2.53-1-2-2,3.27-1-2-2,3.23-.81-1.73-2.11,2.9-1.13-1.84-2.38,3.08-.85Zm36.66,0.17a2,2,0,1,1-2,2A2,2,0,0,1,123.64,137.9Zm-33.46.31,1.08,0.17-0.33,1.16,1.23,0.26,0.4-1.25a6.55,6.55,0,0,1,1.09.17,141.32,141.32,0,0,1-5.88,16.19l-1.17-.17,0.31-1.11-1.09-.15h0l-0.52,1.21-1.16-.1a114.51,114.51,0,0,0,6.06-16.37h0Zm57.15,0.42c0.86,0,.81.44,0.19,2.07s-0.81,2.15-1.09,2.35c-0.68.48-2.14,0.08-2-.63,0.38-2.29.52-3.27,1.11-3.58A9.57,9.57,0,0,1,147.33,138.63Zm-52.82.19,2.81,0.55L95,140.77l1.49,1.75-2.88,1.23,1.75,1.82-2.78,1.14,1.69,2-2.89,1.22,2,1.71-3.25,1,1.23,1.9-1.22.69L88.56,155c2.5-5.86,4.11-10.68,5.94-16.2h0Zm6.9,1.4,5.5,1.5,1.1,2-2.58,8.74-7.33-2.16Zm-10.93.84-0.52,1.44,1.21,0.25,0.47-1.48Zm-1.06,3.3-0.52,1.44L90,146l0.54-1.45Zm-1.07,2.9-0.54,1.43,1.11,0.23,0.53-1.43ZM140,149.89a6.16,6.16,0,0,0-.71.59,3.11,3.11,0,0,1,.42,1.16,2.69,2.69,0,0,1-.74.89c-1,1.21-1.4,1.08-.8-0.21a4.14,4.14,0,0,0,.29-0.78,8.36,8.36,0,0,0-.58,1.05l-0.66,1.28a5.51,5.51,0,0,1,1.52,1s0.22-.59.37-1.14a2,2,0,0,1,1.13-1.37,3.07,3.07,0,0,0,.62-0.48,5.1,5.1,0,0,1-.86-2h0Zm-52.8.35-0.57,1.52,1.1,0.27,0.61-1.55ZM25,154.07c-0.1,6.06.1,10-.11,16.58l16.34,21.25-2.55.86a0.44,0.44,0,0,1-.17.33c-3.49,1-9.15,1.92-9.15,1.92,4.21,9.65,6.94,21.72,5.06,33.78l42.28-.11Zm89.42,10.26-1.46,1.47c-21.5-11.68-51.12-11.64-72.73,2.51L38.46,167c23.59-15.17,52.61-15.07,76-2.68h0Zm-88.63-8.14,49.77,71.76-5.85.09L25.82,170.42Zm106.8,1.3s-1.44.37-2.64,0.76c-3.46,1.11-5.08,3.12-4.76,5.91,0.09,0.82.31,0.81,1.72-.08,3.3-2.09,3.5-2.18,7.61-3.39a2.2,2.2,0,0,1,.78,0l-0.18,3.25c-6.85,0-6.47,5.43-4.5,8.27-0.69,1.31-2.2,5.89,2.77,7.64a6.44,6.44,0,0,0,5-1.63c4.57,2.17,9.87-1.47,5.74-7.77,1.55-2.75.46-4.79-1-6.54,0,0,.25,0,2.41.42a20,20,0,0,0,4.53.5c0-3-2.44-4.29-7.54-4.69C138.89,160.63,132.57,157.46,132.57,157.49Zm-55.09.34h0.74L78,162.9l-5.56.26-0.36-5c1.91-.13,3.69-0.27,5.42-0.28h0ZM84.14,158l6,0.73-0.9,4.73-5.49-.59ZM132.47,158c0.49,0.06.34,0.63-.34,0.76-1.07.21-3.82,1.82-3.82,2.23s0.14,0.23,1.14-.31a24.94,24.94,0,0,1,2.33-1c0.78-.3,1.66-0.65,2-0.79,0.92-.42,1.38-0.13,1,0.66-0.22.52-.31,0.56-2.45,1.25a11.06,11.06,0,0,0-3.52,1.57c-0.46.3-1.27,0.77-1.81,1-1.27.66-1.52,0.66-1.52-.22-0.07-2.62,2.82-4.59,6.74-5.16a0.67,0.67,0,0,1,.23,0h0Zm-51.57.61A1.35,1.35,0,1,1,79.55,160,1.35,1.35,0,0,1,80.9,158.63ZM66.15,159l0.44,4.59L61.13,165l-1.25-4.74c2.09-.51,4.18-0.88,6.27-1.26h0Zm70.38,0.35c1.5,0.23,1.38,3.67.61,4.27-1.18.85-1.9-.93-1.38-3.29a0.94,0.94,0,0,1,.76-1h0Zm-67.28.19a1.35,1.35,0,1,1-1.35,1.35A1.35,1.35,0,0,1,69.25,159.52Zm26.69,0.39,6.18,1.69-1.51,4.8-5.8-1.64Zm-3.36.09a1.35,1.35,0,1,1-1.35,1.35A1.35,1.35,0,0,1,92.58,160Zm50.53,0.4c2.66,0,6.17,1.37,6.18,3.43-0.05.59-5.57-.19-8.12-1.22a3.75,3.75,0,0,1-2-1.94c0-.28.54-0.26,0.76,0,0.36,0.44,1.63.89,4.55,1.63,2.24,0.57,2.47.59,2.47,0.25s-1.32-.74-2.76-1a24.11,24.11,0,0,0-2.51-.43c-0.52,0-.64-0.33-0.21-0.55a5.7,5.7,0,0,1,1.65-.2h0Zm-4.7,1.07a4.91,4.91,0,0,1,1.28,1.28,3,3,0,0,1-1.41.5,4.79,4.79,0,0,1,.13-1.77h0Zm-80.89.37a1.35,1.35,0,1,1-1.35,1.35A1.35,1.35,0,0,1,57.52,161.85Zm-3.63.38,1.46,4.69-5.22,2.28-1.85-4.65A46.44,46.44,0,0,1,53.89,162.23ZM78,163s4.16,0,5.59,0l-0.34,5.29-5.19,0Zm-5.56.29,0.29,5.29-5,.67-1-5.32Zm31.59,0a1.35,1.35,0,1,1-1.35,1.35A1.35,1.35,0,0,1,104.07,163.34Zm36.16,0.12c3,0,5.94,3.53,2.94,7.21,4.93,3.81-.43,10.21-4.79,6.48-6.23,6.14-9.72-2.2-7.14-4.41-3.81-6.28.87-10.25,5.7-7.48A3.93,3.93,0,0,1,140.22,163.46Zm-50.93.15,5.48,1.22-1.1,5.23L88.31,169Zm18.15,0.13,5,2.5L108.56,170l-2.89-1.44Zm-32.14.59a1.35,1.35,0,1,1-1.35,1.35A1.35,1.35,0,0,1,75.3,164.33Zm10.83,0.17a1.35,1.35,0,0,1,0,2.71,1.35,1.35,0,0,1,0-2.71h0Zm-25,.76,1.22,5.23-5.08,1.72-1.82-5.09Zm3.49,0.37A1.35,1.35,0,1,1,63.3,167,1.35,1.35,0,0,1,64.65,165.63ZM139.82,168c-0.38.48-.88,1-0.88,1a3.47,3.47,0,0,0-3.31.25L134,168c-1.38-1.12-1.84-1.37-1.84-.91a4.88,4.88,0,0,0,1,1.06A12,12,0,0,1,135,170a3.3,3.3,0,0,0,.34,3.18,1.43,1.43,0,0,1-.52.71c-1,1-2,2.67-1.78,2.9s1.12-.41,2.16-1.82a2.59,2.59,0,0,1,1-1c1.26,0.34,2,.65,3.22-0.39a5,5,0,0,1,1.43.93c1.48,1.23,2,1.49,2.17,1.08S143,175,141.71,174c-0.82-.62-1.73-1.36-1.73-1.36a3.1,3.1,0,0,0-.46-3.07,9.3,9.3,0,0,0,1.39-1.69c0.9-1.17,1.05-1.32.76-1.57-0.4-.52-1.72,1.56-1.85,1.73h0Zm-39.16-1.5,4.95,2.09-1.77,5.19-4.78-2Zm-54.43.35a1.35,1.35,0,1,1-1.35,1.35A1.35,1.35,0,0,1,46.22,166.9ZM96.83,167a1.35,1.35,0,1,1-1.35,1.35A1.35,1.35,0,0,1,96.83,167Zm-54.06.37,1.62,4-3.68-2.76Zm40.6,1L88.3,169l-0.78,4.71-4.25-.39Zm-5.38,0-0.05,4.85-4.68.2-0.4-4.84Zm-24.08.88a1.35,1.35,0,1,1-1.35,1.35A1.35,1.35,0,0,1,53.91,169.34Zm-3.73.1,1.9,4.87-3,1.43-4-3.76Zm17.62,0.06,0.76,4.63-4.88,1.21-1.18-4.71Zm69.77,0a1.93,1.93,0,1,1-1.92,1.93A1.93,1.93,0,0,1,137.56,169.54Zm-57.12.15A1.35,1.35,0,1,1,79.1,171,1.35,1.35,0,0,1,80.44,169.69Zm13.29,0.5,5.21,1.69-1.75,4.18-4.5-1.22Zm-23.07.17a1.35,1.35,0,1,1-1.35,1.35A1.35,1.35,0,0,1,70.67,170.36Zm19.79,0.5a1.35,1.35,0,1,1-1.35,1.35A1.35,1.35,0,0,1,90.46,170.86Zm-33.05,1.59,1.79,4.14-4.9,2.12-2.13-4.22Zm3.47,0.25a1.35,1.35,0,1,1-1.35,1.35A1.35,1.35,0,0,1,60.88,172.7Zm18,1.25A55.17,55.17,0,0,1,100,178l-1.74,1.63c-18.9-6.52-31.25-3.58-43.93,2l-1.28-1.59a58.55,58.55,0,0,1,25.82-6.13h0ZM100.3,174a1.35,1.35,0,1,1-1.35,1.35A1.35,1.35,0,0,1,100.3,174Zm-49.24,3c1.08,0.06,1.19,2.09.68,1.51l-1.21-1.4A1.16,1.16,0,0,1,51.06,177Zm50.51,0.84c0,1.54-1.49,11.86-6.4,19A50.4,50.4,0,0,0,93,186s5.28-4.89,8.52-8.21h0ZM38.84,193.45L64.36,228l-2.68,0a16.8,16.8,0,0,0-3-7.07A12.06,12.06,0,0,0,54,217.08c-1.39-.64-1.57-0.5-1.66-1.58-0.42-6-5.29-9.84-9-11.29a14,14,0,0,0-6.12-10.27Zm-2.48.83c2.33,1.61,4.89,3,6.26,9.34,0.1,1.33.18,1.18,1.22,1.57,4.07,1.2,7.6,6.1,7.92,10.39,0,1.29.42,1.41,2,2.08a12.6,12.6,0,0,1,5.12,4.27,14.06,14.06,0,0,1,2.16,6h-1.4c-1-6.32-5-8.84-9.15-10,0.33-8.92-6.58-11.7-9-12.12,0.14-6.42-4-9.08-6.67-11.23a8.06,8.06,0,0,1,1.53-.31h0Zm-4.13.89c2.09,0.68,3.67,3.6,3.51,4.95,2.75,0.35,5.65,3,5,5.8a0.67,0.67,0,0,1-.84-0.18c0.74-5.4-7.29-2.73-4.08,1.18l-1.43.94a67,67,0,0,0-4.12-12.36C30.83,195.34,32.23,195.16,32.23,195.16Zm6.65,11.32a1.3,1.3,0,1,1-1.29,1.3A1.29,1.29,0,0,1,38.88,206.48Zm6.89,5.83a5.56,5.56,0,0,1,4,5.12l-0.67,0c-1.08-4.94-6.68-2.25-4.34,1.69-3,1.11-2.76,3.89-1.88,5a3.19,3.19,0,0,0,5.27-.86c2.91,3.78,6.93-.46,3.39-4,2.9,1.07,3.37,5,2.93,6.2a6,6,0,0,1,2.69,2.6H35.36s1.05-8.81-.07-15.46c1.45,0.35,2.42.7,4.08-1.26,2.69,2.24,4.63.55,4.49-1.39a3.64,3.64,0,0,0-2.06-2.74c2.36-.58,4.14,3.51,4,5.13h0Zm2.43,6.21a1.34,1.34,0,1,1-1.33,1.34A1.33,1.33,0,0,1,48.19,218.52Z" transform="translate(0.1 0.1)"/><path id="path7198-0" class="cls-3" d="M14.45,56.2a45,45,0,0,0-5.79-8,45,45,0,0,0,5.79-8,45,45,0,0,0,5.79,8A45,45,0,0,0,14.45,56.2Z" transform="translate(0.1 0.1)"/><path id="path7202-9" class="cls-3" d="M164.14,209.2a45,45,0,0,0-5.79-8,45,45,0,0,0,5.79-8,45,45,0,0,0,5.79,8A45,45,0,0,0,164.14,209.2Z" transform="translate(0.1 0.1)"/><path id="path7204-2" class="cls-3" d="M48.25,64.75c-4.13-6.83-8.48-13.47-13.91-19.14,5.43-5.67,9.78-12.31,13.91-19.14,4.13,6.83,8.48,13.47,13.91,19.14C56.72,51.28,52.38,57.92,48.25,64.75Z" transform="translate(0.1 0.1)"/><path id="path7222-2" class="cls-3" d="M130.33,223c-4.13-6.83-8.48-13.47-13.91-19.14,5.43-5.67,9.78-12.31,13.91-19.14,4.13,6.83,8.48,13.47,13.91,19.14C138.81,209.52,134.46,216.16,130.33,223Z" transform="translate(0.1 0.1)"/><path id="path37-2-1-6-5" class="cls-3" d="M8.66,29H6.46V26h2.2s0-1.62.08-4.47c0.14-6.07.29-7,2-8.69,3.47-3.3,9.28-.61,9.21,4.36-0.1,7,0,13.7-.23,14.64-0.36,1.67-.4,1.76-0.25,2.07,0.3,0.61,2.93.88,2.93,0.71v3A5.42,5.42,0,0,1,18,36.44a6.58,6.58,0,0,1-6.47.8C9.68,36.36,8.28,34.12,8.66,29h0Zm7.42,5.23c-1.09-1.57-2.92-3.72-4.64-4.49-0.11,1.81,0,3.33.68,4.15a2.53,2.53,0,0,0,4,.34h0ZM17,17c-0.81-2.29-2.88-3.07-4.4-1.63-0.95.89-1.1,1.83-1.12,6.93,0,3.15,0,4.47,0,4.47,3,1,5.71,4.4,5.69,4.36l0.07-9.51A26.71,26.71,0,0,0,17,17h0Z" transform="translate(0.1 0.1)"/><path id="path37-3-27-1-5" class="cls-3" d="M169.92,220.41h2.2v3h-2.2s0,1.62-.08,4.47c-0.14,6.07-.29,7-2,8.69-3.47,3.3-9.28.61-9.21-4.36,0.1-7,0-13.7.23-14.64,0.36-1.67.4-1.76,0.25-2.07-0.3-.61-2.93-0.88-2.93-0.71v-3a5.42,5.42,0,0,1,4.44,1.18,6.58,6.58,0,0,1,6.47-.8c1.84,0.87,3.24,3.11,2.86,8.19h0Zm-7.42-5.23c1.09,1.57,2.92,3.72,4.64,4.49,0.11-1.81,0-3.33-.68-4.15a2.53,2.53,0,0,0-4-.34h0Zm-0.9,17.32c0.81,2.29,2.88,3.07,4.4,1.63,0.95-.89,1.1-1.83,1.12-6.93,0-3.15,0-4.47,0-4.47-3-1-5.71-4.4-5.69-4.36l-0.07,9.51a26.71,26.71,0,0,0,.23,4.61h0Z" transform="translate(0.1 0.1)"/></g></svg>