<svg id="Layer_1" data-name="Layer 1" xmlns="http://www.w3.org/2000/svg" viewBox="0 0 178.78 249.65"><defs><style>.cls-1{fill:#fff;stroke:#000;stroke-width:1px;}.cls-2{fill:#d40000;}.cls-3{fill:#131f67;}.cls-4{fill:#e2cf00;}</style></defs><title>12_H</title><g id="g6073"><rect id="rect10414-2-6" class="cls-1" x="0.5" y="0.5" width="177.79" height="248.65" rx="8.5" ry="8.5"/><path id="path10446-4-8" class="cls-2" d="M14.11,56.2s-1.77-2.54-4.16-5.53c-1.6-2-2.88-4.17-3-6-0.14-2.13,1.15-4.27,3.49-4.38s3.28,1.64,3.67,3.08c0.39-1.44,1.33-3.19,3.67-3.08s3.63,2.24,3.49,4.38c-0.12,1.87-1.4,4-3,6-2.39,3-4.16,5.53-4.16,5.53h0Z" transform="translate(0.1 0.1)"/><path id="path10448-8-7" class="cls-2" d="M164.47,193.25s-1.77,2.54-4.16,5.53c-1.6,2-2.88,4.17-3,6-0.14,2.13,1.15,4.27,3.49,4.38s3.28-1.64,3.67-3.08c0.39,1.44,1.33,3.19,3.67,3.08s3.63-2.24,3.49-4.38c-0.12-1.87-1.4-4-3-6C166.24,195.79,164.47,193.25,164.47,193.25Z" transform="translate(0.1 0.1)"/><path id="path37-2-5-5-0" class="cls-2" d="M8.32,29H6.12V26h2.2s0-1.62.08-4.47c0.14-6.07.29-7,2-8.69,3.47-3.3,9.28-.61,9.21,4.36-0.1,7,0,13.7-.23,14.64-0.36,1.67-.4,1.76-0.25,2.07,0.3,0.61,2.93.88,2.93,0.71v3a5.42,5.42,0,0,1-4.44-1.18,6.58,6.58,0,0,1-6.47.8C9.34,36.36,7.94,34.12,8.32,29h0Zm7.42,5.23c-1.09-1.57-2.92-3.72-4.64-4.49-0.11,1.81,0,3.33.68,4.15a2.53,2.53,0,0,0,4,.34h0ZM16.65,17c-0.81-2.29-2.88-3.07-4.4-1.63-0.95.89-1.1,1.83-1.12,6.93,0,3.15,0,4.47,0,4.47,3,1,5.71,4.4,5.69,4.36l0.07-9.51A26.69,26.69,0,0,0,16.65,17h0Z" transform="translate(0.1 0.1)"/><path id="path37-3-27-3-0-9" class="cls-2" d="M170.26,220.41h2.2v3h-2.2s0,1.62-.08,4.47c-0.14,6.07-.29,7-2,8.69-3.47,3.3-9.28.61-9.21-4.36,0.1-7,0-13.7.23-14.64,0.36-1.67.4-1.76,0.25-2.07-0.3-.61-2.93-0.88-2.93-0.71v-3a5.42,5.42,0,0,1,4.44,1.18,6.58,6.58,0,0,1,6.47-.8c1.84,0.87,3.24,3.11,2.86,8.19h0Zm-7.42-5.23c1.09,1.57,2.92,3.72,4.64,4.49,0.11-1.81,0-3.33-.68-4.15a2.53,2.53,0,0,0-4-.34h0Zm-0.9,17.32c0.81,2.29,2.88,3.07,4.4,1.63,0.95-.89,1.1-1.83,1.12-6.93,0-3.15,0-4.47,0-4.47-3-1-5.71-4.4-5.69-4.36l-0.07,9.51a26.69,26.69,0,0,0,.23,4.61h0Z" transform="translate(0.1 0.1)"/><path id="path3054-4-0-3" class="cls-3" d="M154.6,19.46H24V230H154.6V19.46Zm-16.09,1.7h14v81.16s-1.16,0-1.08-.59a4.21,4.21,0,0,0-.54-2.78A5.56,5.56,0,0,1,150.2,98a3.83,3.83,0,0,0-1.43-1.68,0.86,0.86,0,0,1-.55-0.32c0-.15-0.11-0.66-0.21-1.12-0.25-1.16-.48-1.13.26-2.28,2.55-4,3.53-7.7,3.21-11.36a12.81,12.81,0,0,0-.52-2.83c-2.46,2.48-4.24,5.55-5.92,7.82a78.78,78.78,0,0,1-.37-8.28,3.65,3.65,0,0,0,2.68-2.88s1.41,1.11,2.27,1L149,73.94c3.77-1.16,4.28-6.12-.17-7.16l0.4-2.61s-1.34.45-1.93,0.74c-0.29.12-.37,0-0.57-0.4-2.08-3.25-5.3-2.56-6.72.65l-1.74-.74a7,7,0,0,1,.25,2.68c-3.65,1.64-2.75,6.11.17,6.7l-0.25,2.09,2.19-.71a3.34,3.34,0,0,0,1.91,2.66c0,4.38-.11,7.12,0,11a18,18,0,0,0-8.35-5.19,13.64,13.64,0,0,0,.19,2.38c0.07,0.47.06,0.4-.16,0.4-0.5,0-2.76-3.67-2.76-3.67A0.77,0.77,0,0,0,131,83c-0.27.27,0.35,0.77,1.21,2.06,1,1.51.91,1.45,0.12,2.13-4.52,3.86-11.05,18.57-10,20-2.86.17-14,5.67-16,17-0.12.51-.36,1.17-0.36,1.17l-3.22-.81c1.94-9.29,6.33-28.17,6.33-28.17A39.07,39.07,0,0,1,114,95.3l0-.73-4.24,1,0.2-1.62,4-.79V92.76l-4.24.57,0.69-2.69s-9.52,1.41-12.93,1.3c0.22,10.48-.61,19.18-0.16,30.47l-4.65-2.84c-0.41-7.86-.54-27.72-0.54-27.72l-12.85-2,0.43,3.12C69,88.7,58.35,84.78,50.48,76.47,55.33,72.73,63.41,69,63.41,69l-0.27-.6C43.27,78.74,36.06,85.91,26.07,94.8V21.16H79.88L79.7,34.66a1.46,1.46,0,0,1-.17.47c-0.66,3.25,1.24,9,.86,11.82a13.94,13.94,0,0,1,.12,2.48,40.69,40.69,0,0,0-6.4,13.9c-0.56.22-1.38,0.68-2,.84L72,64.87A42.12,42.12,0,0,1,76.85,63c16.05,7.88,27.85,6,40.48.1-2,7.12,2.36,16.16,9.57,18.07a7.29,7.29,0,0,0,3,.19c0.81-.23-1.81-6.27-3-6.5-3.48-1.52-4.91-5.08-4.54-9.17l-0.58-1c-1.19,5,1.67,10,5.59,11.24l1.05,2.32c-7.1-2.15-10.13-8.84-7.76-15.46,0-4.13-2.62-6-3.84-7.74-6.18-2.37-7.32-8.13-6.24-12.79,2.88,1.23-1.94-4.09-1.94-4.09-2.12,4.62-3,10.46,1.84,16.38A42.29,42.29,0,0,1,98.86,64.9C92.25,68.37,87.3,66,84.11,58.35a35.51,35.51,0,0,1-2.59-14c0-3,0-3.07,1.15-2.57a6.4,6.4,0,0,0,4.65-.16c1.84-1,1.75-.37-0.25,1.7a10.05,10.05,0,0,0-1.13,1.18c0,0.61.85,0.1,2.08-1.12a4.1,4.1,0,0,1,.92-0.87,1.34,1.34,0,0,1,0,1.2c-0.07.24-.29,1.24-0.5,2.23s-0.49,2.15-.62,2.58c-0.54,1.71-.4,2.51,1.24,3.3a12.82,12.82,0,0,1,2.32,1.84,7.59,7.59,0,0,1-.22-2.06c0.16-.6.87-0.18,1.59,0.17,1.6,0.77,2.53.79,3.39,0.07A2.36,2.36,0,0,0,95.47,48c-1.07-.43-1.26,0-0.19.72,1.61,1.13-.21,2.88-1.57,1.79-1.07-.85-2.92-0.94-3.13-0.24s-0.4.55-1.14,0.11c-1.15-.68-1.16-0.8-0.2-4.53,1.82-7.07,1.65-9.67-.77-11.82a6.55,6.55,0,0,0-7.82-.56V31.07c4.5-1.81,7.78-4.9,10.42-9.91h0.52c2.63,5.74,6.88,9.94,14.88,13,3.13,3.11-4-8.93-1.7-4a19.62,19.62,0,0,1-10.11-9h1.16a21.77,21.77,0,0,0,8.09,7.33c1.92,0-2.82-5.85-3.51-7.33h36.87c-1.17,9-2.82,18.72,3.67,36.33-3-1.61-15.24,1.82-13.09,2.49,1.08-1.25,8.85-3.1,14.6-1.73-0.48-.41-8.77-19.83-3.94-37.09h0Zm3.94,37.09s0,0,0,0h0ZM114,93.15l0,1.42,0.29-.07-0.17-1.38Zm-33.29-72h1.62A4.07,4.07,0,0,1,80.62,23Zm2.78,0H85.2a13.1,13.1,0,0,1-4.54,4.61l0-1.7a22.9,22.9,0,0,0,2.77-2.9h0Zm2.88,0h1.61c-2.18,3.37-4.42,5.72-7.29,7.16V26.94A24.84,24.84,0,0,0,86.33,21.16Zm2.45,0h1.3a18.33,18.33,0,0,1-9.43,9v-1A19.68,19.68,0,0,0,88.79,21.16Zm3.55,0H93.9a21.94,21.94,0,0,0,11.48,10.2l0.75,1.74c-6.44-2.33-10.71-5.81-13.78-11.94h0Zm4.52,0H98a16.51,16.51,0,0,0,4.25,4.18l1,2A20.79,20.79,0,0,1,96.86,21.16Zm2,0h1.25l1.65,2.92c-1.1-.62-1.93-2-2.89-2.92h0ZM97.46,32.37a6.82,6.82,0,0,0-4.39,1.39c-1.19,1-.31,2,1.4,1.24,2.91-1.36,6.26-.75,9.87,1.24,3,1.68,2-.07-0.86-1.94A11.1,11.1,0,0,0,97.46,32.37Zm-13.73,2.2c2.45,0,5.26,1.11,5.32,2.56a7.94,7.94,0,0,0-8-.63,1.29,1.29,0,0,1-.13-1.22A4.8,4.8,0,0,1,83.73,34.57ZM98.56,35.5a4.54,4.54,0,0,0-3.62,1.29,0.66,0.66,0,0,1-.79.4c-0.72-.12-0.68.3,0.14,1.45a1.56,1.56,0,0,1-.2,1.95c-0.61.87-.49,0.9,1.33,1.78a40.84,40.84,0,0,1,3.78,2.45c0.9,0.51,1.09.06,0.25-.62-0.29-.23-1.14-0.84-1.9-1.34-1.29-.85-2.24-1.7-1.21-1.32a6.25,6.25,0,0,0,1.11.3,9.5,9.5,0,0,0,3.77.22,6.44,6.44,0,0,0,2.71-1.44,2.61,2.61,0,0,1,1,0c2,0.08,1.59-.52-1.34-2.13s-5.16-1.88-7-1c-0.78.37-1.23,0.46-1.12,0.23A1.74,1.74,0,0,1,96.11,37c3-1.8,5.4-.31,8,1,1.13,0.68,1.44.86,1.57,0.64s-1.26-1.3-3.19-2.28a8.9,8.9,0,0,0-4-.91h0ZM89,37.59c0.51,0.2.28,0.78-.18,0.6-2.76-1.25-3.32-1.86-6.61-.7-1.09.38-1.52,0-.18-0.53C84.93,35.73,87,36.55,89,37.59ZM87.1,39.06c-0.75,3.83-4.53,2.65-4.11,0h0.7c0.05,2.31,2.36,2.3,2.75,0Zm22,0,1,2.2A11.28,11.28,0,0,0,117.51,56s1.06,1.64.85,1.85C106,55.11,107,43.25,109.11,39.07Zm-11.7.14,0.35,0c1.07,2.67,2.62,1.14,2.92,0l0.79,0c-0.24,2.76-4.4,3.23-4.05,0h0Zm-9.52.08a0.62,0.62,0,0,1,.53.84s-1,.93-1.07.41a1,1,0,0,1,.53-1.24h0Zm-5.76.08h0.13a1.32,1.32,0,0,1,.27,1.32,1,1,0,0,1-1.07-.36,0.67,0.67,0,0,1,.67-1h0Zm20,0.26a0.93,0.93,0,0,1,.85.63,2.28,2.28,0,0,1-1.16.66c-0.41-.22.16-1.21,0.23-1.27l0.08,0h0Zm-5.46.12h0a0.71,0.71,0,0,1,.16,1.12,1.58,1.58,0,0,1-.72-0.27A1.06,1.06,0,0,1,96.7,39.74Zm15,4.85c-0.15,3.18.67,6.26,4.12,8.24L115,51.46c-0.88-.71-2.73-2.73-2.5-5.14ZM80.73,50.26l0.39,2.09a47.73,47.73,0,0,0-4.53,9.93l-1.79.66A39.43,39.43,0,0,1,80.73,50.26Zm0.75,3.26L82,55.32a27,27,0,0,0-2.53,6l-2,.74A28.86,28.86,0,0,1,81.48,53.52Zm6.28,0.74H87.67c0,0.35,0,1.33.06,2.95,0,0.31.31,0.18,1.15-.26a1.16,1.16,0,0,1,1.37-.2,5.22,5.22,0,0,0,3.63.18,2.52,2.52,0,0,1,2.33.23,5.75,5.75,0,0,0,1,.43c0.54,0.2.33,0,0-1.51-0.41-1.65-.24-1.83-0.89-1.4a2.61,2.61,0,0,1-.79.35c-0.57.07-1.53-.64-2.1-0.42C92,55.18,92,55,90.74,54.72a4.1,4.1,0,0,0-1.81.35C88.61,55.11,88.21,54.26,87.76,54.26Zm23.5,0.86c2.33,2.16,4.73,2.89,7.34,3.71-0.31,1.07-.94,2.28-1.23,3.68-13.54,7.21-27.16,7-40,.44L84,60.38c3.64,6.35,8.31,8,13.55,6A35.41,35.41,0,0,0,111.26,55.12ZM82.32,56.39l0.58,1.56L82,60.29,80.4,61A13.51,13.51,0,0,1,82.32,56.39Zm12.24,1.8a13.34,13.34,0,0,1-2.41.3,15.75,15.75,0,0,0-1.64,0c-0.61.12,0.1,0.4,1.46,0.79s3-.2,3.23-0.79c0.05-.15-0.13-0.32-0.64-0.29h0ZM83.28,59l0.36,0.79L83,60Zm36,0.45,1,2.32c-1.75,3.82-2.92,14.28,8.78,17.54l0.51,1.5c-8,.16-15.94-10-10.3-21.35h0Zm-26.78.79a5.07,5.07,0,0,0-3.11.89c-0.7.55,0.16,0.9,1.06,0.46a5,5,0,0,1,4.28.2c0.88,0.6,1.34.5,0.75-.42a3.67,3.67,0,0,0-3-1.13h0Zm51.07,2.61c3.06-.05,3.37,4.36,2.78,4.73a4.23,4.23,0,0,1,1.44-.19c2.24,0.06,3.41,1.31,3.54,3.12s-1.25,2.85-3.26,2.74a2.18,2.18,0,0,0-1.23,0c0.37,1.46-.08,3.66-2,4.21a1,1,0,0,0-.54.48c-0.14,2.32.51,10.27,0.51,10.27s3.6-6.1,4.41-7c1.59-2.18,2.16-2,1.88,1.64-0.39,5-1.15,6.16-4,10.39-1.26,1.82-4.24.86-4,2.09a4.07,4.07,0,0,0,1,1.22,1.61,1.61,0,0,0,1.35.46c1.27,0,1.77-.3,1,0.81-0.6.88-2.71,1.06-3,1.52a3.71,3.71,0,0,1-1.12,1.77c-0.72.8-.47,0.39-0.14,1,0.52,0.85.3,2.54-.21,3.68a3.64,3.64,0,0,0-.37,1.59,6,6,0,0,0,1.53-2.71c0.29-1.24.64-1.86,0.63-1.17,0,0.88.15,2.07,0.93,2.52a1,1,0,0,1,.61,1.16,1.52,1.52,0,0,0,.86,1.24,0.8,0.8,0,0,1,.45.5,1.61,1.61,0,0,0,.73,1.81c0.25,0.12,1.82,0,2.07-.9,0-.28,0-1.45-0.63-1.52-0.44-.2-0.4-0.33.27-0.73a8.83,8.83,0,0,1,2.22-1.12,2.65,2.65,0,0,0,1.3-.81l0.13,48a140.51,140.51,0,0,1-21,18.17,103,103,0,0,0-16.2-11.58l-2-1.19,0.72-.92-3.46-4.6,3.9-3.16,1,1.26-1.85,1.8,2.77,3.08,6.22-6.11-4.1-3.95,2.13-4,1.36,0.67-1,2.55,3.12,2,3.9-7.8-4.95-2.27,1.25-5.24,1.53,0.16-0.51,3.77,3.86,0.77,1.57-8.9-5.66-1,0.48-5.08,1.58,0-0.23,2.81,4,0.57,0.75-7.76-5.55-.93,0.72-6,1.27,0.18-0.25,3.69,4.07,0.7c0.45-2.5.81-5.65,1.48-8.11l-5.24-2,1.86-5,1.18,0.41-1,2.73,3.87,1.66,3.26-6.48-4.56-3.25a21.15,21.15,0,0,1,3.5-4.71l0.9,0.79a6.92,6.92,0,0,0-.83,1c-0.61.86-.81,1.29-0.72,1.51A19.8,19.8,0,0,0,139,96.2a5.5,5.5,0,0,0,1.66-1.43c0.52-.62.79-0.68,1.32-0.29a2.43,2.43,0,0,1,.37.36,0.78,0.78,0,0,1,.19.38,0.3,0.3,0,0,1,0,.2,1.87,1.87,0,0,1,.35-0.24c0.38-.21-0.74-1.21-1.66-1.73-2.75-1.55-6-4.48-6.73-8.15-0.27-1.64,3.95.33,6.86,3.25l2.08,2c-0.24-4.23-.58-8.54-0.4-12.82l-0.64-.45a3.48,3.48,0,0,1-1.33-2.7c-0.06-.71.55-1.08-0.84-1-2.89,0-4.57-2.72-2.81-5.06,0.63-.88,3.3-1.31,3.29-1.29a3.43,3.43,0,0,1,2.88-4.45h0Zm-1.05,32.62C142.46,95.48,142.49,95.48,142.52,95.42Zm3.83-27.89-0.08,0ZM50,76.7C58,83.55,63.21,88.16,79.66,93.33l0.41,2.45C70.61,93.58,60.29,89.13,48,78.06Zm-2.43,1.58A83.74,83.74,0,0,0,63.21,89.83L65.07,91l-1,1,3.13,4.54-4,3.3-1-1,2.1-2.07-3-3L55.29,100l4.17,3.72L57,107.47l-0.88-.4,1.28-2.61-3.88-2.13-4.33,8,5.52,2.53-1.25,4.92-1.29-.07,0.43-3.86-4.15-.74-1.4,9L52.45,123l-0.13,5.19-1.42,0,0.1-2.93-4.21-.2-0.38,7.56,5.19,0.68-0.52,6.14-1.28-.33,0.14-4-4-.39-1.36,8.47L50,144.71,48.08,150l-1.16-.64,0.76-2.73C46.71,146.19,44,145,44,145l-3.48,6.58,4.52,3.1-2.78,4.92-1.07-.72L43.07,156l-3.75-2.37-2.14,2.94A40.31,40.31,0,0,1,34,154a1.89,1.89,0,0,0-2-.5c-0.68.16-1.33,0.28-1.18,0a38,38,0,0,1,3.31-2.24,1.71,1.71,0,0,0,1-1,1.31,1.31,0,0,1,.69-0.84,0.56,0.56,0,0,0,.27-0.79,8.92,8.92,0,0,1,.6-5.34c0.5-1,.65-1.23.33-1.23-1,.12-2.12,3.6-2.34,4.58a10.91,10.91,0,0,1-.25-1.35,1.12,1.12,0,0,0-.72-1.15c-0.61-.15-0.41-0.44-0.48-0.9a1.71,1.71,0,0,0-1.08-1.48,0.76,0.76,0,0,1-.65-1,2.53,2.53,0,0,0-.87-1.55L28.5,140a1.6,1.6,0,0,0,.4,1.56c1.06,1-.49,1-1.56,1.68a1.26,1.26,0,0,1-.87.46c-0.68-.22-0.62,1.81-1.29,1.56l0.16-48.79C31,90.6,47.53,78.28,47.53,78.28h0Zm85.63,8.63L134,87.82a51.88,51.88,0,0,0-6.38,9.42,38.41,38.41,0,0,0-4,12.07c-0.6,2.87-.7,5.8-1.07,8.73-0.38,3.16-.45,7.42-1.05,10.76-1.11,9.16-3.66,14-9.22,19.22-2.44,2.28-10,6.6-10.24,6.55l-1.8-.45c15.57-8,19.46-13.56,21.14-32.55,0.33-23.83,11.09-33.06,11.79-34.66h0Zm1.53,1.59,0.83,0.81L131,95.78,135.46,99l-1.78,4.18-1.36-.51,1-2.85-3.77-1.6-3,8.3,5.37,1.7L131,113.59l-1.08-.29v-3.69l-4-.82-1.16,9.27,5.87,0.82-0.43,4.78-1.39-.1-0.05-2.85-4.07-.22-0.93,8,5.78,1-1,5.71-1.23-.29,0.28-3.77-3.88-.51-2.24,7.71,4.87,2.47-2.4,4.94-1-.72,1.33-2.92-3.79-1.88-3.66,6.38,4,3.93-3.88,4.09L116,153.55l2-2.17-3-3-6.21,5,3.17,4.21-0.37.53-3.28-1.32-1.57-2.09-1.88.83-1.48-.57C112.52,150.12,118.5,144.5,121,136c1.35-4.68,1.76-9.8,2.2-14.95,0.23-2.68.46-5.36,0.85-8A40.25,40.25,0,0,1,126.85,101a47.64,47.64,0,0,1,7.83-12.47h0ZM85.31,91.7L91.62,95l-0.09,2.22L85.7,94.33Zm1.77,0.06,4.49,0.62,0,1.82Zm-20.24.06L69.47,93l2.22,2.58,1.66-1.1,1.81,0.68c-5.71,3-10.78,6.49-14.72,12.59C56,114.56,55.56,123.46,55,132c-0.94,11.85-3,20.17-10.78,29.77l-1.15-.73,4.22-6.75-4.76-3.1,2.17-4,1.1,0.38L44.94,150l3.94,2.09,3-8.51-5.55-1.74,0.93-5.32,1.4,0.12-0.37,3.81,4,0.63,1.14-9-5.35-.82,0.12-4.75,1.31,0.13v2.89l4.22,0.23L54,121.56,48.78,121l0.65-5.8,1.47,0.15-0.34,3.48,4,0.58,1.91-7.5-5.24-2.38,2.83-5.07L55.37,105l-1.3,2.81,3.64,1.78,3.81-5.87-4.05-3.92,4-4.19,1,1-2.16,2.5,3,2.79,5.93-5-2.89-4.38Zm37.71,0.28-0.18,2.1-6.32,3.61V95.75Zm33.9,0.07,1.4,0.87-1,1.21-1.22-.77Zm-36.56.3-3.78,2.2V92.48h3.78Zm44.61,2.05a1,1,0,0,1,.52.14,0.72,0.72,0,0,1-.1,1.17c-0.56.39-2.09,0.37-2.25,0-0.22-.59,1-1.29,1.83-1.27h0Zm-60.38.87,5.43,2.95,0,2.08-5.22-2.89Zm17.68,0.07-0.32,2.71-5.59,3,0-2.35Zm-27.06.05L79,96.07c-8.24,3.7-16.38,9.07-19.55,18.44a43.34,43.34,0,0,0-2.09,9.92c-0.2,4.21-.74,8.36-0.94,11.87-0.4,7.15-2.74,16.84-10.82,27.13l-0.77-.61a46.06,46.06,0,0,0,9.12-17.61c2.52-9.37,1.27-19.72,4-29.15A31.85,31.85,0,0,1,68,100.75a56,56,0,0,1,8.72-5.25h0Zm3.74,0.79h0c2,6.78,4.47,19.14,4.47,19.14-5.29-2.58-14.1-2.11-14.1-2.11s-5-6.44-5.92-7c4-5.38,14.75-10,15.51-10.08h0Zm68.14,1.07c1.22,0,1.13,1.83-.41,3.09a1.08,1.08,0,0,1-1.73,0,1.28,1.28,0,0,0-1-.35c-0.86,0,.84-1.8,2.36-2.55a2,2,0,0,1,.81-0.23h0ZM86.77,98.88l4.84,2.5,0,2.06L87.18,101Zm16.41,0.28-0.26,2.26-5,2.64,0-2.09ZM150.34,100a0.47,0.47,0,0,1,.42.19c0.69,0.77-.62,3.11-2.1,3.81a1.09,1.09,0,0,1-1.39-.19,1.52,1.52,0,0,0-.77-0.44c-0.85.09-.38-0.87,0.3-0.93a14,14,0,0,0,2.27-1.66,2.92,2.92,0,0,1,1.26-.78h0Zm-5.12.91c1.07,0,1.46.87,0.19,1.26-0.9.28-1.41,0.08-1.4-.53a1.14,1.14,0,0,1,1.21-.73h0Zm-57.79,1.21,4.29,2.17,0,2.22-3.94-2.07Zm15.37,0.31-0.3,2.1-4.62,2.39v-1.74Zm48.48,0.88c0.29,0,.38.35,0.38,0.93a2.59,2.59,0,0,1-1.59,2.29,1.22,1.22,0,0,1-1.54-.08,1,1,0,0,0-.49-0.31c-1.49-.06-1.25-0.45.18-1a14.43,14.43,0,0,0,2-1.24,2.15,2.15,0,0,1,1.11-.54h0Zm-5.48.69c0.73,0,1.38.52,1,.86A2.14,2.14,0,0,1,145,105C144.6,104.56,145,104,145.8,104Zm-57.65,1.49,3.66,2,0,2.11-3.49-2Zm14,0.16-0.08,2.16-4.2,2.09,0-2.06Zm45.21,0.9c0.71,0.05.62,0.74,0,1.08a0.87,0.87,0,0,1-1.21-.21C145.72,106.44,146.88,106.56,147.4,106.55Zm1.43,2.22a0.68,0.68,0,0,1-.18.8,1.42,1.42,0,0,1-1.25-.24,0.35,0.35,0,0,1,.12-0.5A1,1,0,0,1,148.82,108.77Zm-60.15,0,3.13,1.72,0,2.08-2.87-1.68Zm13,0.05-0.15,2-3.64,1.82,0-1.95ZM63.6,110.12a0.92,0.92,0,0,1,.92,1.42,4.3,4.3,0,0,1-1.75,1.65c-0.51.36-1,.69-1,0.74s-0.36.27-.57,0.42c-1.12.78-.73-0.85,0.67-3.24A2,2,0,0,1,63.6,110.12Zm37.8,1.78-0.29,2.2-3.25,1.67v-2.12Zm-12.23.21,2.63,1.31,0,2.14-2.39-1.26Zm31.59,0.17a0.23,0.23,0,0,1,.21.1,4.27,4.27,0,0,1,0,2.36c-0.37.87-1.08-1.33-1-1.89a1.21,1.21,0,0,1,.75-0.57h0Zm-55.28.4a1.34,1.34,0,0,1,1.47,1.8c-0.41,1-2.82,1.71-3.9,2.43-0.71.35-.88,0-0.66-0.65,0.1-.29.18-0.51-0.36-0.59-1.31-.19-0.51-0.84,1.89-2.46a2.92,2.92,0,0,1,1.56-.53h0Zm52.74,0.69a1.89,1.89,0,0,1,1.32.74c0.83,0.9,1.42,2.8,1,3.3a0.69,0.69,0,0,0-.53.68c-0.05.6-1.14-.49-2.16-2.22-0.83-1.39-.43-2.5.4-2.5h0Zm-44.29.32c3.24,0,9.43.65,18,6.05a38.36,38.36,0,0,0,3.42,2.06,31.4,31.4,0,0,0,10.12,3.75l-0.12,2.18c0,0.69,1.09,4.68.57,6.92-0.77,0,.74.66,0.74,0.66l1,2a58.26,58.26,0,0,1-7.48-.51c-3.77-.62-10.64-3.83-14-6.36A34.36,34.36,0,0,0,73.07,125L73,123.1a69.28,69.28,0,0,0-.8-7.31l-0.82-2c0.2,0.08,1.06-.07,2.54-0.08h0Zm27,1.41-0.25,2.16-2.85,1.35v-1.85Zm14.22,0.1c0.8,0,2,.94,3.39,2.82a3.21,3.21,0,0,1,.6,1,0.27,0.27,0,0,1-.33.34c-0.54-.1-0.74-0.3-0.9.38,0,0.17.06,0.47-.13,0.42-1-.29-3.74-3.1-3.57-4a1,1,0,0,1,.94-1h0Zm-25.4.14,2.08,1.11L92,118.57l-1.85-.8ZM67.43,116a1.15,1.15,0,0,1,1.24.73c0.49,1.2-.38,1.93-2.95,2.47-2.23.53-2.19,0.57-1.88-.27,0.21-.55-0.48-0.62-0.87-0.76-0.65-.25-0.12-0.33,1.76-1.27A7.15,7.15,0,0,1,67.43,116Zm-7.44.57a0.37,0.37,0,0,1,.25.19,8.62,8.62,0,0,1-1.7,12.59c-0.47.31-.48,0-0.43-0.6l0.08-1.18c0-.23,4.72-3.14,1.25-9.61l0.29-.91a0.66,0.66,0,0,1,.26-0.49h0Zm53.07,1.23c1.28,0,4.88,3.29,3.35,3.41-0.18,0-.12.25-0.12,0.4a2.22,2.22,0,0,1,0,.54c-0.11.29-.53,0.23-1.18-0.15a11.77,11.77,0,0,1-2.58-1.83c-1.11-1.06-.8-2.37.57-2.37h0Zm-12.68.57,0,1.77-2.56,1.25,0-1.6Zm-32.5,1.27c1.73-.06,2.7,1.67,1,2.58-0.69.36-3,.11-4,0s-0.49-.46-0.42-0.57c0.16-.27.29-0.31-0.33-0.69-0.49-.52-0.78-0.65.46-0.81a22.19,22.19,0,0,0,2.56-.39A2.81,2.81,0,0,1,67.9,119.62ZM120.43,120c0.13,0,.11.21,0.06,0.76L120.41,122c-0.79.13-4.69,5-1.52,10.7l-0.27,1c-0.12.5-.16,0.57-0.57,0.26-2.38-1.65-3.15-10.08,1.78-13.56A2.19,2.19,0,0,1,120.43,120Zm-9.27,1a4.26,4.26,0,0,1,1.66.43,8.37,8.37,0,0,1,2.73,1.61c0.14,0.23-.08.42-0.38,0.5s-0.41.26-.31,0.69c0,0.25.06,0.53-.25,0.55a7.86,7.86,0,0,1-3.18-1.09C109.22,122.53,109.52,121,111.16,121Zm-11.22,0v2.16l-2.11-1Zm-35.32,1.85a7.62,7.62,0,0,1,.91.11,11.5,11.5,0,0,0,1.59.14c2.4,0,3.4,1.64,1.41,2.5-0.54.23-.77,0.21-2.25-0.22-0.71-.21-1.58-0.43-1.93-0.53-0.71-.2-1-0.43-0.49-0.59s0.48-.46.2-0.86c-0.07-.41.06-0.56,0.55-0.54h0Zm55.79,0c-0.34,3.34-.62,5.94-1.12,9.21C118.94,132,116.35,125.81,120.42,122.91Zm-10.1,1.6a11.1,11.1,0,0,1,3.38.82c1.12,0.42,1.26.53,0.49,0.86-0.47.2-.41,0.38-0.27,0.69s0.62,0.69,0,.6a21.81,21.81,0,0,1-3.34-.16c-1.81-.32-2.3-2-0.82-2.73A1.32,1.32,0,0,1,110.32,124.5Zm-46.49.84a4.68,4.68,0,0,1,1,.27c3.25,1,4.57,2.28,3,3.5-0.46.35-1.18,0.2-2.53-.56A12.71,12.71,0,0,1,63,127.08c-0.26-.27-0.12-0.59.28-0.56s0.46-.24.42-0.69S63.61,125.35,63.83,125.35Zm8.77,0.3,2.49,0.57-6.22,27.39A22.42,22.42,0,0,0,64,155.3l4.3-.75-0.37,2-3.91.74-0.09.58,4.47-.81s-0.16,1.87-.32,2.59c4.27-.35,8.49-1.54,12.78-1.58,0,0,.1-21.62.09-24,0-2.55,0-5.59,0-5.59l4.31,2.45L86,158.17l13.49,2.21c-0.09-.46-0.46-2.57-0.46-2.57,10,3,20.14,7.36,29.11,16.43C124,176.52,120,178.77,116,181l-0.59.85a150.24,150.24,0,0,0,37.17-26V228H98.79v-6.73l0-6c-0.22-3.86.45-8.12-.73-11.36l-0.23-3.4c3.33-3.9,5.13-8.82,6.72-13.85,0,0,1.6-.63,2.38-0.9l0.27-1c-1.55.8-5.11,2.13-5.11,2.13,0.38-.3-7.56-3.67-12.47-4.46A48.69,48.69,0,0,0,62,186.85c-0.43.3-.61,0.29-0.5-0.1a13.76,13.76,0,0,0-9.68-16.94,11.45,11.45,0,0,0-2.88-.45L49.07,170c12.18,1.38,15,14.34,10.35,20.36-1.23,2-1.42,2.57,1.16,2.5,10.43-.09,14.05,11.65,9.3,18.14a7.14,7.14,0,0,1,.38.76,13,13,0,0,0-1.5-16.69c3.88-4.36,11.34-11.34,17.78-10.93,2.35,0.15,4.66,3,6.2,5.29C96,194.28,96.87,201,97.1,204.88c0.06,1,.19,1.74.19,2.27,0,1.54-.29,1.36-1.28,1.1a8.44,8.44,0,0,0-4.2.05c-2,.62-1.7.27,0.1-2,1.06-1.32,1.2-1.73.77-1.82a3.21,3.21,0,0,0-1.17,1.34c-1.77,2.75-1.64,1.62-.35-2.67,0.83-2.79.75-3-1.52-4.72a18.69,18.69,0,0,1-1.76-1.3c-0.43-.91-0.61.23-0.22,1s-0.42,1.07-1.81.31c-3.28-1.83-5.42,1.88-2.49,3.48,0.69,0.38,1.08.07,0.54-.43-1.8-1.68-.55-3.09,1.89-1.61,1.41,0.86,1.95.58,2.42-.49,0.26-.44,2.45,1.14,2.45,1.75a14.3,14.3,0,0,1-.5,2.55,44.4,44.4,0,0,0-1.2,4.77c-0.55,2.86-.54,4.33.05,5.58a6,6,0,0,0,7.54,3,8.29,8.29,0,0,1,1.22-.3l0,2.07C92.1,221,88,227.78,88.18,228h-2a24.08,24.08,0,0,0-13.46-11.68c-1.18-1,.29,2.75,1.65,3.58C77.2,221.39,81,224,83.07,228l-1.44,0a23.64,23.64,0,0,0-6.18-6.09c-0.51-.11.37,4.88,2.44,6.42l-37.1.65c2.53-10,3-21-2.91-35.55a28.1,28.1,0,0,0,13.28-2.52l-0.36-1A26.82,26.82,0,0,1,36.24,192c3.79,7.07,7.12,21.77,3.88,36H26.07V150.52a10,10,0,0,1,1,.66,3.65,3.65,0,0,1,.84,1.54c0.16,0.6.32,0.63,1.17,1.27a1.43,1.43,0,0,1,.64.74,1.55,1.55,0,0,0,.25,1.06c0.75,0.91.62,1.49,0.05,2.08-2.61,2.73-4.25,8.48-2.93,14.54,3.1-2.1,6.28-7.59,6.39-7.6l0.3,7.49a3.23,3.23,0,0,0-2.19,2.54,5.26,5.26,0,0,1-2.77-.43l0.63,2.21a3.61,3.61,0,0,0,.33,6.9s-0.34,1.71-.62,2.63l2.39-.37c1.39,4.18,6.72,2.84,6.7-.07,0,0,1.62.61,2.24,0.89l-0.6-2.85c6.06-3,1.53-7,.14-7a5.87,5.87,0,0,1,.71-2l-2.45.15a4.39,4.39,0,0,0-2.16-2.51l-0.34-10.73a31.23,31.23,0,0,0,6.13,4.59c2.27,1.19,2.5.93,2.16-1.13a9.38,9.38,0,0,1-.14-1.54c0.85,0.2,3,3,2.89,4.39,0.78,1,1.49-1.74-.53-4.1a44,44,0,0,0,10.35-21.47l7.15-2.86,0.08-.94c4.87-3.28,7.41-7.85,8.75-13h0Zm6,1.68,1.65,0.74-1.87.93Zm-15.85.45a10,10,0,0,1,1.46,1c1.4,1,2.21,1.74,2.24,2.37a1.07,1.07,0,0,1-.57.9c-0.84.45-1.65,0.08-3.48-1.8a14.71,14.71,0,0,1-1.16-1.2c-0.21-.32-0.06-0.61.29-0.48,1.48,0.67.2-1.2,1.22-.73h0Zm50.39,0.39a4.23,4.23,0,0,1,.7,0c0.4,0.08.51,0.31,0.27,0.53a0.48,0.48,0,0,0,.11.87c0.26,0.13.16,0.39-.16,0.58a4.53,4.53,0,0,1-.86.34c-2.24.71-3.9,0.5-4.33-.56-0.5-1.21.45-1.8,3.2-1.8h1.08Zm-32.69.72,0,1.62L78,131.64,78.29,130Zm-19.8.51a2.37,2.37,0,0,1,1,.93c2.25,2.77,2.55,3.31,1.81,4s-2.1,0-3.41-2.4a7.68,7.68,0,0,0-.52-0.9c-0.48-.57-0.27-0.75.34-0.7a0.39,0.39,0,0,0,.5-0.44c0-.37.09-0.54,0.25-0.53h0Zm53.85,1.4c0.41,0,.38.14,0.2,0.62s-0.37.56,0.22,0.83c0.1,0,.32.32,0.12,0.44a24.63,24.63,0,0,1-3.32,1.53c-1.47.49-2.38-.72-1.51-1.92,0.36-.5,2.85-1.41,4.09-1.49h0.2Zm-55,1.61c1.49,2.24,1.68,3.29.7,3.94-0.62.48-1.95-.21-2.25-1.66a5.83,5.83,0,0,1,0-3.19c0.54-1.39,1.38.67,1.54,0.9h0Zm21-.93v1.75l-2.83,1.43,0.26-1.93Zm5.77,0.07,2.66,1.74L89,134.78l-2.75-1.53Zm29.72,1.73a0.1,0.1,0,0,1,.11.12c0,0.21-.05.94,0.35,1,0.78,0.13.61,0.38-.08,1a12.93,12.93,0,0,1-2.32,1.93c-2.31.86-3-1.6-.85-2.88a9,9,0,0,1,1.95-.89A6.37,6.37,0,0,1,115.87,133.27Zm-29.65.9L89.31,136l0.11,1.84-3.07-1.57Zm-6,.17v1.6l-3,1.74,0.25-1.79Zm12.48,1.31c0.85,0.4,11.81,3.47,15.44,2.42,0,0,3.1,4.51,5.4,6.12C110,149.44,98,154.6,98,154.6Zm24.66,0.11c0.2,0,.25.19,0.25,0.57,0,1.09-1.83,5.1-3.24,3-0.39-.77,0-1.56,1.25-2.5a5.34,5.34,0,0,1,1.75-1.11h0Zm-59.65.63c0.27,0.3.15,1.21-.43,1.15a2.22,2.22,0,0,1-.08-1.45A0.65,0.65,0,0,1,57.76,136.4Zm22.55,0.51,0,2-3.58,2,0.38-2.26Zm5.91,0.29,3.54,1.9,0.42,2.25-3.93-2ZM80.3,140V142l-4,2.08,0.27-2Zm6,0.18,4,2.27,0.52,2.14-4.42-2.3Zm-56.13.07a0.62,0.62,0,0,1,.39,1.13,1.16,1.16,0,0,1-1.32,0C28.82,140.93,29.39,140.21,30.16,140.2Zm1.21,2.17a0.85,0.85,0,0,1,.27,0,0.83,0.83,0,0,1,.47,1.19,1,1,0,0,1-1.72-.69A1.2,1.2,0,0,1,31.37,142.37Zm48.86,0.69v1.84l-4.37,2.32,0.28-2.05Zm6.18,0.26,4.51,2.44,0.35,2.06-4.85-2.54v-2Zm-57.18.05a0.48,0.48,0,0,1,.48.21,1.49,1.49,0,0,0,.5.7c0.58,0.34.64,0.41-.47,0.9A15.46,15.46,0,0,0,28,146.24c-1,.67-1.38.44-1.45-0.34-0.09-1,1.7-2.48,2.64-2.53h0Zm3.38,1.5a1,1,0,0,1,.61.14,0.59,0.59,0,0,1,0,1c-0.83.53-2.12-.2-1.43-0.83a1.31,1.31,0,0,1,.79-0.31h0Zm47.61,1,0,2.38-4.87,2.59,0.32-2.42Zm-50,.28a1.33,1.33,0,0,1,.89.26,1.17,1.17,0,0,0,.84.49c0.84,0,.57.34-0.31,0.74a10.64,10.64,0,0,0-2.93,2.08c-0.91.85-1,1-1.27,0.68-1.11-1.29,1.05-4.14,2.78-4.24h0Zm56.28,0L91.6,149,92,151.36l-5.55-3.11v-2.08Zm-52.93,1.68a0.82,0.82,0,0,1,.55.17,0.71,0.71,0,0,1-.35,1.13,1.43,1.43,0,0,1-1.33-.08c-0.48-.49.39-1.21,1.13-1.23h0ZM31.09,149a1.24,1.24,0,0,1,.85.8,1.31,1.31,0,0,0,.69.06c1,0,1.09.41,0.16,0.93A18.29,18.29,0,0,0,31,152.19c-1.6,1.54-2.47,1.18-2.27-.4A3.28,3.28,0,0,1,31.09,149h0Zm55.4,0.15,5.64,3.11,0.55,2.56-6.19-3.36v-2.32Zm-6.22,0,0,2.36-5.31,2.83L75.35,152Zm6.3,3,6.31,3.85,0.23,2.5-6.54-3.79v-2.56Zm-6.31.42V155l-5.87,3,0.3-2.18Zm-47.63,1.53a0.93,0.93,0,0,1,.41.07c0.69,0.32.51,0.87-.53,1.44s-1.42.48-1.64-.17S31.83,154.21,32.64,154.19Zm65.91,0.31c11,2.53,21.72,8,32.16,17.55l-2.18,1.55s-9.14-10.5-29.46-16.65Zm-11.91,1.1,3,1.81v0.46l-3.05-.25v-2Zm-51.87,0a6.13,6.13,0,0,1,1.52.67c4.37,3.18,6.12,5.09,7.2,8.57,0.65,2.09.64,2-1.5,0.87a21,21,0,0,1-6.54-5.16,99.08,99.08,0,0,0,.33,12.17c2.73,1.35,1.85,4.88,1.84,4.86,7-1.93,5.48,7.4.25,5.39,1.25,7-6.72,6.43-5.9.43-6.34-.25-5.22-7.2,0-6.24a3.53,3.53,0,0,1,2.15-4.52l-0.3-9.17s-5.17,7.46-6,7.35c-0.51-.07-1.27-0.93,0-7.47,0.67-3.41,4.26-7.56,6.27-7.69,0.36,0,.5-0.06.64-0.05h0Zm5.05,0.07,0.93,0.64-0.87,1.57-1-.7Zm40.42,0.45,0,1.37-2.84.17ZM50.48,172.59c6.69,1,10.79,9.29,7.69,15.26-0.37.27,0.2,1.57,0.58,1.08,3.27-4.66.83-16.12-8.69-17.21-1.94-.24-0.18.35,0.42,0.87h0Zm1.08,2.2c-0.54,1.49-.68,1.84.7,1.23,2.44,0.91,5.07,4.9,4.23,8.92-0.27.47,0.2-.31,0.52,1C58.22,183,57,176.68,51.57,174.79Zm30.94,7.48a38.22,38.22,0,0,1,19,4.61c-1.83,1-7.69,2.46-7.69,2.46-3.29-3.72-5-7.43-10.91-5.53-6.23,1.62-11.84,7-15,10.65a14.33,14.33,0,0,0-7.68-2.52c-0.16,0-.4.71-0.2-0.45A21.29,21.29,0,0,0,62,187.4,42.35,42.35,0,0,1,82.51,182.26Zm21.3,4.77a38.75,38.75,0,0,1-6.12,12.68l-0.37-1.93a44.46,44.46,0,0,0,4.74-10Zm-2.65,1.15c0.18,0.28-2.73,7.24-4.16,8.51l-0.56-1.8a38.71,38.71,0,0,0,2.84-6.1Zm-17.69,0c-0.09,0-.12.09-0.12,0.26,0,0.64.66,1.14,1.86,1.42,1.63,0.37,3.91-.2,3.91-1,0-.45-0.32-0.48-1.25,0-1.17.55-2.2,0.44-3.73-.38a1.83,1.83,0,0,0-.68-0.29h0ZM98,189.3a13.58,13.58,0,0,1-2,4.22l-0.28-.89a31.39,31.39,0,0,0,1.49-3.14Zm-1.7.55a5,5,0,0,1-1,1.79l-0.65-1.39ZM86,191.14c-1.1,0-2.2.38-2.29,1,0,0.28.38,0.17,2.43-.08,1.08-.13,1.6.51,2.59,0.45,0.51-.06,0-0.53-0.12-0.67A4.24,4.24,0,0,0,86,191.14Zm-4.71,1.29c-0.11,0,0,.31.43,1a5,5,0,0,1,.32,1.68c-0.05,1.23,0,1.19.55,0.48,0.38-.38,1.12-0.3,2.29,0a1.39,1.39,0,0,0,1.46-.05,1.21,1.21,0,0,1,1.27-.08,3.26,3.26,0,0,0,1.51-.26,2,2,0,0,1,1.39,0c0.9,0.43.77,0.39,0.84-1.14s0-1.62-.87-1.11a2.67,2.67,0,0,1-2.71.26,3,3,0,0,0-2.6-.07c-1.2.37-1.75,0.49-2.71-.1a5,5,0,0,0-1.18-.67h0ZM61.63,194.7l0.54,0.88c4.85,1.75,8.14,5.74,6.2,12.48l0.46,0.74c2.43-6.79-.34-12.39-7.2-14.1h0Zm1.5,2.87,0.66,1.37c3.65,1.78,3.43,6.67,3.23,6.48l0.57,1.27c0.91-3.17-.75-7.84-4.46-9.12h0Zm15.25,7.3a0.27,0.27,0,0,0-.28.15c-0.09.24,0.19,0.39,1.86,1.55,1.43,1,2.54,1.74,2.46,1.88a4.78,4.78,0,0,1-1.58-.31,7.25,7.25,0,0,0-5.51,1.08,2,2,0,0,1-1.44-.15A2.19,2.19,0,0,0,73,209c-1,.27,0,1.28,2.52,2.58,3.13,1.6,4.83,1.74,6.73.77,1.26-.66,1.72-0.17.33,0.58-2.41,1.31-4.72.91-8.53-1.73-1.77-1.22-2.47-1-1,.15,2.66,2.1,7.79,4.65,10.94,1.53a2.17,2.17,0,0,1,.55,0c0.65,0,.68-0.21,0-1.29-0.41-.66-1.24-1.35-0.23-2.15,0.77-.61.71-0.9-0.22-1.18a0.73,0.73,0,0,1-.59-0.21c-2.23-1.81-4.41-3.17-5.18-3.17h0Zm1,3.57a2.42,2.42,0,0,1,2.17,2.06c0,0.12,0,.24.07,0.36l-0.8,0c-0.66-2.66-2.65-1.78-2.85-.22l-0.72-.1a2.22,2.22,0,0,1,2.13-2.13h0Zm16.5,2.27-0.53.08c-0.35-1-1.92-2.29-2.67.09l-0.67,0c0.47-3.23,3.38-2.73,3.87-.14h0Zm-4.07-1.34a1.07,1.07,0,0,1-.39,1.07,0.69,0.69,0,0,1-.88-0.19,0.61,0.61,0,0,1,.24-0.81,1,1,0,0,1,1-.07h0Zm-9.33.1c0.22,0.5-.4.88-0.48,0.71a1.51,1.51,0,0,1-.22-0.93,1,1,0,0,1,.7.22h0Zm14-.08a0.77,0.77,0,0,1,.77.57,0.64,0.64,0,0,1-.62.54,0.92,0.92,0,0,1-.6-1C96.15,209.29,96.29,209.37,96.49,209.39ZM77,209.55a1.21,1.21,0,0,1-.15.8,1.89,1.89,0,0,1-.73,0,1.51,1.51,0,0,1,.11-0.76,0.66,0.66,0,0,1,.77,0h0Zm13,1.75a0.72,0.72,0,0,1,.35.13c2,1.31,4.58,1.9,6.43,1,0.41-.21.69-0.2,0.68,0a1.76,1.76,0,0,1-1.31.93c-1.91.58-5.06-.18-6.16-1.36-0.32-.35-0.27-0.67,0-0.66h0Zm-17.56,1.37c-0.19,0-.25.11-0.22,0.34,0.13,0.78,5.48,3.88,7.72,4.29a6.21,6.21,0,0,0,4.39-.47c2.73-1.6,2-3.76-.64-2.13-1.8,1.09-6.34.59-9-1a7.35,7.35,0,0,0-2.2-1.05h0Zm24.12,1.13a1.39,1.39,0,0,1,1.12-.26c0.69,0.58-.44,1.48-2.5,1.84a4.82,4.82,0,0,1-4.51-1.07c-1.45-1.08-.77-1.61.07-1.12a6.07,6.07,0,0,0,5.83.61h0Zm-23.65,3.38C77.65,218.89,83,223,85.43,228H84a23.08,23.08,0,0,0-10.15-9,3.5,3.5,0,0,1-.91-1.78h0Zm24.88,2.34v1.56A17.49,17.49,0,0,0,90.56,228l-1.66,0a19.68,19.68,0,0,1,8.89-8.47h0Zm0,2.38v1.92A13.6,13.6,0,0,0,93.32,228h-2a15,15,0,0,1,6.44-6.11h0Zm-21.69,1.47a14.43,14.43,0,0,1,4.59,4.67l-0.75,0a26.2,26.2,0,0,0-3-3,4.43,4.43,0,0,1-.85-1.7h0Zm21.69,1.23s0,0,0,0v1.53a11.08,11.08,0,0,0-2,1.83H94.2a8.85,8.85,0,0,1,3.59-3.4h0Zm0,2.54V228h-1a3.54,3.54,0,0,1,1-.87h0Zm-19.51.22a1.73,1.73,0,0,1,.53.72l-0.27,0Z" transform="translate(0.1 0.1)"/><path id="path3052-2-5-5" class="cls-4" d="M37.8,193.59c3.29,0.09,10.25-1.15,10.14-1s21.57,36.09,20.69,35.73c-0.28.45-27.63,0.43-27.63,0.43C40.4,228.74,46.8,215.36,37.8,193.59Zm9.78-25.43c10.51-8.77,21.52-8.84,33.35-10l0.27-29.81,4.28,2.58,0.09,27.31a68.07,68.07,0,0,1,40.64,17c0.14,0.22-16.74,9.31-24.13,11.71-5.74-4.24-20.88-6.92-30.93-3.66-2.76.9-6.15,2.33-9.44,3.39,2.39-14.39-8.77-16.51-12.7-17.18C48.52,169.4,47.94,168.33,47.58,168.16Zm-13.49,4.65a69.94,69.94,0,0,0-.24-9.27c-0.06-.72-6.15,9.33-6.49,6.89-0.85-6.1,2.16-13.85,6.88-14.8,0.47-.64,9.83,5.19,9.4,10.23-0.14,1.64-8.35-5.55-8.38-5.12-0.19.84,0.24,12.09,0.5,12.07,2.36,1.34,1.85,3.06,2.11,4.49,6.34-.94,6,6.13,0,5.91,0.37,8.36-7.34,4.58-5.82.13-7.76-.37-3.94-7.67-0.07-6.07-0.23-1.84.22-3.77,2.11-4.47h0ZM43,137.35c-0.45-.18-16.56-1-16.56-1l0.84-39.52c8.23-19,39.19-10.13,34.27-6.08C46.74,100.5,44.49,118.3,43,137.35Zm29.72-16.23-0.49-4.39C71,114,105.18,129.91,105.56,130.25l1,4.68C106.76,137,84.8,126.6,72.72,121.12ZM135,113.33c-2.55,19.69-2.41,39.5-16.9,46.36,10.9,10.63,20,2.44,33.73-4.45,0.37,0-.46-42.17-0.69-42.14C145.71,113.39,140.34,113.51,135,113.33Zm7.55-19.22c-2.69-.41-9-7-7.67-8.94,0-1.49,7.8,4.2,8.61,5.73-0.4-.46-0.45-13.89-0.58-13.36-0.3.16-2.37-1.34-1.83-4.14-6,1.32-5.62-6.46-.42-6.14-0.67-7.08,7.92-4.48,5.63.26,7.35-1.36,6.08,6.95.53,5.59,0.47,3.15-.82,4-2.63,4.65,0.12,1.32.61,10.13,0.61,10.13s5.44-8.39,5.83-7.66c1.38,2-.85,15.92-8.08,13.87h0Zm-25.2-30.93c-2.45,8.51,4.27,18.24,10.62,18.21,1.28-.2,3.72.49,2.88,1.18-10,8.17-33.4,9.87-33.41,9.51,0.24,10-.2,20.16-0.44,30.19l-4.28-2.6c-0.14-9.15-.36-18.51-0.57-27.65-15-2-28.45-6.83-39.08-17.18C60.13,69.58,68.57,66.29,76.68,63c10.21,5.34,24.42,8.42,40.67.22h0ZM110,22.73c-0.47-.21,1.62-1.77,1.62-1.77s17.41,0.23,26,.11c-3.15,13-.92,24.64,3.14,35.83-1.08-.25-8.23.33-10,1.12C130.5,58.3,110.18,23,110,22.73Z" transform="translate(0.1 0.1)"/><path id="path3050-3-4-7" class="cls-2" d="M69.19,228.25l-21-35.77,3.16-1.38L73,228.3ZM31.75,180.43l3-3.15,3,3.11-3.19,3Zm67.52-20.06-0.43-2.56A65,65,0,0,1,128,173.9l-1.7,1.25c0.53-.15-17.22-13.55-27.06-14.79h0ZM64.44,158l3.46-.75-0.11,2.15-3.35.67V158ZM135,156.15l-2.09-1.7,1.51-1.8,2,1.61ZM63.81,138.82c5.2-2.48,9.27-12.49,8.76-13.15l2.84,0.68-6.55,27.42-4.53,1C64.3,149.51,63.81,144.06,63.81,138.82Zm34.25,15.51c-1.76-5.77-5.24-18.83-5.24-18.83,0.13,0.43,11.29,3.62,15.27,2.46a46.47,46.47,0,0,0,5.54,6.29A48,48,0,0,1,98.06,154.33Zm46.79-21-2-1.72,1.76-2.17,2.16,1.66Zm-25.69-1.15c-1.6-2.9-1.71-6.17,1.26-9.41Zm-61.12-5a31.42,31.42,0,0,1,1-8.47C60.79,121.79,60.77,124.93,58,127.12Zm45-2.7s4.32-20.17,6.2-28.07L114,95.24l-0.21,16.33c-4.75,3.9-8.09,13.2-7.94,13.2Zm-69.48-3.35-2.09-2,1.77-1.95,1.84,1.9Zm37.39-7.86a57.06,57.06,0,0,0-5.73-6.75c3.55-5,9.45-7.85,15.7-10.11l4.23,19c-4.78-1.45-9.94-3-14.19-2.08h0ZM41.61,96.31l1.47-1.84L45,96l-1.46,2Zm69.14-5.54,3-.67,0.11,2.32-3.57.66ZM50.54,76.29l2.27-1.42a67.43,67.43,0,0,0,26.39,15l0.32,2.69c-10.83-3.36-20.74-8-29-16.27h0Zm93.19-2.88-3-2.93,2.66-3,3.16,2.75A18.68,18.68,0,0,1,143.73,73.42ZM127.36,59.15l-22.11-38,3.19,0,21.76,36.58Z" transform="translate(0.1 0.1)"/><path id="path3048-5-8-9" d="M105.06,20.54l-5.28,0,30,60.72a6.35,6.35,0,0,1-2.4-.28c-7.2-1.9-11.64-9.56-10-17.08a6.4,6.4,0,0,0,.21-1.08c-18.56,8.46-30.06,5.34-40.77,0L72.2,64.55c0.3-2.78,3.72-13.22,8.83-18.13V41.16L80.9,38.67l-0.4-4.51C72.9,41.36,64,52.71,62.92,68.81c0,0-6.92,3.58-12.83,7.54,0.33,0,9.2,10.92,30.51,17.08l-0.94-3.5a92,92,0,0,0,12.16,2.18l0.6,27.49,5.09,3L97.69,92.2a68.1,68.1,0,0,0,12.41-1.31l-0.6,2.93,4.24-.84v2.14l-4.64,1.1-6.61,28.45,3.85,0.86c1.13-5.73,4-10.37,8.1-13.21l0-1.09c2.65-1.91,8.15-3.43,8.18-3.4,1.88-9.23,6.24-15.62,10.88-21.7l-2.21-3L139.71,80,127.95,59.83c4.53-3.15,13.51-2,13.51-2C137.6,47.39,134.22,36.6,138,20.77l-32.73,0Zm10.74,0.66c0,2.65-3.44,2.37-3.86,0h3.86Zm21-.08c-2.08,12.12-1.39,23.93,3.44,35.16,0,0-.7,0-0.79,0s0.08-.61,0-0.76c-0.1-.42-0.79-0.22-1.37.17a8.21,8.21,0,0,1-.73.46,17.17,17.17,0,0,1-3.63.28c1-.67,2.38-2.57,1.57-3.68-0.18-.24-0.29-0.13-0.47.19-0.86,1.54-1.29,1.78-2.44,1.77-1.81,0-3.1-1.15-3-2.85s2.56-2.52,2.2-.92c-0.1,1.43,1.31,1.7,1.57.28,0.1-.53,0-0.29.13-0.91,2.81-1.5,1.26-4.56-1.36-3.92a1.15,1.15,0,0,1-1.13,0,1.21,1.21,0,0,0-1.79.3c-0.27.52,0.14,0.93,0.74,0.94a0.61,0.61,0,0,1,.74.68c0,0.88-1.5,1.3-2.5.79-2.63-1.35-1.65-4.85,1.4-4.84,0.93,0,1.31.06,1.35-.14,0.11-.57-1.3-1.55-2.1-1.4s-1.09.31-.73-0.6A3.57,3.57,0,0,0,128,40c-0.49-1-.48-0.49-0.78.33-1,1.68-2.52,2-3.82,1.13s-1.17-2.47,0-3.62c0.8-.8,1.66-0.26,1.18.64a0.63,0.63,0,0,0,.32.92c0.72,0.19,1.17-.24,1.17-1.12,0-.48-0.15-0.59.72-1.09a2.09,2.09,0,0,0-2-3.69c-0.56.25-.69,0.49-0.94,0.38-1.06-1-2.58.27-1.68,0.94a3.31,3.31,0,0,0,1,.27c0.22,0.13.15,0.44-.17,0.83-1,1.25-3.43.63-4-1.13-0.65-2,1.41-4.17,3-3,0.47,0.35.87,0.39,0.88-.13a2,2,0,0,0-2.3-1.65c-1.31.09-1.17,0.26-.45-0.93a2.67,2.67,0,0,0,0-2.72c-0.35-.48-0.72-0.58-0.68-0.07a2.3,2.3,0,0,1-3,2.42,2.73,2.73,0,0,1-1.45-3.7c0.66-1.31,2.24-1.44,2,0-0.12.89,0.55,1.36,1.2,0.83a1,1,0,0,0,.31-0.93c0-.64-0.24-0.83.17-1.2,1.07-.14,1.14-2.44,1-2.53l17.23-.08h0Zm-19.2.08a1,1,0,0,1,1.25.92,1.23,1.23,0,1,1-2.46,0A1,1,0,0,1,117.62,21.19Zm-12.07.09h2.74l21.63,36.29-2.56,1.25Zm4.5,1.27a9.9,9.9,0,0,0,4.16,1.54,8.91,8.91,0,0,0-1,3.9Zm4.4,7.31c1.33,0.48,2.49,1.21,4.69.47a8.74,8.74,0,0,0-2.33,3.61Zm11.25,4.38a1.15,1.15,0,1,1-1.14,1.15A1.15,1.15,0,0,1,125.7,34.24Zm-7,2.87a7.74,7.74,0,0,0,3.1.54,6,6,0,0,0-.78,3.27ZM122,42.82a6.09,6.09,0,0,0,3.82.87,6.27,6.27,0,0,0-1.1,3.63ZM132.84,47a1.2,1.2,0,1,1-1.2,1.2A1.2,1.2,0,0,1,132.84,47Zm-6.72,2.7a5.22,5.22,0,0,0,2.45.6,8.21,8.21,0,0,0-.53,2.6Zm3.76,6.18a7.07,7.07,0,0,0,3.2.71,13.76,13.76,0,0,0-2.44.71Zm13.7,6.79c-2.8.18-3.45,2.34-3.12,4.53a3.46,3.46,0,0,0-3.86,4.19c0.63,2.36,2.82,2.45,4.32,2.29a3.87,3.87,0,0,0,1.88,4.14l0.31,12.27s-1-.94-1.69-1.61c-2.91-2.92-7.29-5-7-3.39,0,0.24.13,0.86,0.2,1.36,0.46,2.78,4.17,5.78,6.69,7.29a7.71,7.71,0,0,1,1.46,1c-4.72,5.09-7.26,10.51-7.9,15.9-0.59,5-1.06,9.51-1.53,14.11-1.93,23-11.75,28.85-12.22,30L121,157.88l-2.74-.21-3.16,2.75c10.35,5.39,16.39,11.89,16.3,12a168.62,168.62,0,0,0,22.13-17.77l-0.13-51.32a4.27,4.27,0,0,1-.7.21c-0.51,0-.58.23-0.75,1.21a3.58,3.58,0,0,1-.65,1.35c-0.46.66-.3,0.32,0.28,0.56,1.33,0.54-.4,3-2.28,3.29-1.36.22-2.12,0.47-2.35,0.78-2.86,2.52-5.7,2.91-7.85,2a4.36,4.36,0,0,1-2.6-2.23c-0.88-2.52,1-6.15,2-8.25a26.08,26.08,0,0,1,5.27-6.73l-0.54-.59a5,5,0,0,0,.77,0c2.84-1,3-1.05,3.54-1.81a30.42,30.42,0,0,0,2.11-3.63c1.46-3.82,1.66-4.07,1.65-6.58,0-2-.14-3.39-0.53-3.5-2.24,1.73-4.5,5.76-5.82,8.14-0.46-3.52-.59-9.67-0.59-9.67,0.47-.53,3.16-0.23,2.56-4.64a3.24,3.24,0,0,0,4.75-2.86c-0.16-3.57-2.89-3.46-5.12-3a3.35,3.35,0,0,0-3-4.63h0Zm0,0.3c2.92,0.09,3.5,3.34,1.71,5.18,0,0-1.16-.9-1.78-1.41-0.58.46-.75,0.86-1.4,1.34a3.26,3.26,0,0,1-1.23-2.53A2.81,2.81,0,0,1,143.55,63h0Zm-66.75.1c11.82,6.65,26.65,7.13,40.22.35l-0.17,1.13-1.49.84L116.21,67l0.47-.22v1C105.5,73.87,86.76,75.13,72.09,65l1.28-.6s0.29,0.2.57,0.38a20.68,20.68,0,0,0,2,1.13l0.89-1.29a6.23,6.23,0,0,1-1.22-.89l1.2-.65h0Zm1,2L77.17,66.7l1.7,0.91L79.51,66Zm-6.43.17c18.21,11.51,35.15,8.08,45.33,3.38l0.13,1.23c-13.14,5.63-30.41,7.14-46.85-4Zm42.85,0.74-1.62.65,0.64,1.49,1.66-.72Zm-45,.28C84,75.95,99.9,77.83,117,70.79l0.65,1.84c-16.66,6.73-34.23,6-50.29-5.49ZM80.6,66.4L79.94,68l1.83,0.7,0.53-1.58Zm31.11,0.67-1.6.52,0.5,1.54,1.66-.57Zm-28.31.44L83,69.12l1.87,0.53L85.21,68Zm67.76,2.66c0.25,2.75-3.8,4.08-5.32,1.51L147.18,70,146,68.92a2.77,2.77,0,0,1,5.18,1.24h0ZM67,67.59l4.41,3.05-3.21,5-4.75-3.21Zm76.49,0.14,2.8,2.45-2.57,3-2.63-2.67Zm-1.74.83-1.58,1.84,1.71,1.83a2.79,2.79,0,0,1-5-1.82c0-2,3.1-4,4.88-1.85h0ZM109,67.85l-1.68.51,0.38,1.49,1.74-.46Zm-22.71.47L86,69.92l1.93,0.42,0.33-1.59Zm19.93,0.27-1.79.39,0.31,1.59,1.8-.38ZM143.64,69l-1.48,1.46L143.64,72l1.49-1.54ZM89.42,69L89.2,70.62l2,0.27,0.16-1.63Zm13.64,0.22-1.82.21L101.43,71l1.89-.24Zm-10.76.19,0,1.65,1.78,0.14V69.58Zm7.83,0.15-1.78.07v1.6l1.82-.12,0-1.55h0Zm-32.55,0a1.91,1.91,0,1,0,1.9,1.91A1.9,1.9,0,0,0,67.6,69.59Zm29.56,0.05-1.75,0v1.62h1.81l-0.06-1.64h0Zm46.48,0,0.77,0.77-0.77.76-0.79-.76Zm-76,.61a1.26,1.26,0,1,1-1.25,1.25A1.25,1.25,0,0,1,67.59,70.26Zm-6.75.09,2.53,2.07A48.83,48.83,0,0,1,60,77.25l-4.67-3.77,2.44-1.39a1.87,1.87,0,1,0,1.78-1Zm-1.41,1.33A1.26,1.26,0,1,1,58.18,73,1.26,1.26,0,0,1,59.43,71.69Zm85.85,0.6a2.42,2.42,0,0,1,.86.52,2.85,2.85,0,0,1-2.33,4.53,2.67,2.67,0,0,1-1.53-4.77L143.76,74Zm-69,.85,5.23,2-2,5.72-5.72-2.36Zm-21.49.6a63,63,0,0,0,73.66,7.9l1.34,0,0.71,0.74A65,65,0,0,1,53.2,74.8Zm58.74,1.15,1.68,5.66-5.78,1.53-1.29-5.73Zm-60.92.21A63.76,63.76,0,0,0,79,90l0.27,2.32c-11.41-3.45-20-8.06-28.43-16.06ZM77.7,75.18a1.88,1.88,0,1,0,1.87,1.88A1.88,1.88,0,0,0,77.7,75.18Zm-9.3.42,5.39,2.87-2.69,5.42L65.38,80.8Zm9.28,0.2a1.26,1.26,0,1,1-1.25,1.26A1.26,1.26,0,0,1,77.68,75.8Zm8.93,0.77,5.18,0.76-0.24,5.78-6-.73C85.74,80.35,86.61,76.57,86.61,76.57Zm25,0.14a1.88,1.88,0,1,0,1.87,1.88A1.88,1.88,0,0,0,111.64,76.71Zm0,0.62a1.26,1.26,0,1,1-1.25,1.26A1.26,1.26,0,0,1,111.62,77.33Zm-42.14.08a1.88,1.88,0,1,0,1.87,1.88A1.88,1.88,0,0,0,69.48,77.41Zm33.13,0,0.74,5.81-5.66.28-0.33-5.8Zm40.56,0.52H144A138.55,138.55,0,0,0,145,93a2.12,2.12,0,0,1,.06.94c-0.56,1-1.2-.26-1.45-3.1-0.07-.78-0.16-1.93-0.25-2.68-0.29-2.27-.2-10.24-0.2-10.24h0ZM47.53,78C39,83.38,24.86,96.14,24.95,96.44L25,145.51l1.11,0.05,0.92-1.8c-1.42-.36-1-3,1.69-3.57a9.25,9.25,0,0,0,2.22-.84c2.06-1.58,5.4-2.51,7.75-1.89,3.42,0.88,4.12,3.41,2.48,7.82-1.3,3.47-3.87,7.91-6.28,9.17l-0.62.31s0.56,0.51.77,0.65c6.65-3.87,10-17.75,9.83-26.38,0.27-8.84,1.78-17.72,5.33-24.18,5.86-10.67,13.61-15,13.57-15S53.3,83.47,47.53,78Zm21.93,0a1.26,1.26,0,1,1-1.25,1.26A1.26,1.26,0,0,1,69.46,78Zm51.69,0.2,2,5.4-5.61,2.31-2-5.68Zm-32.26,0a1.88,1.88,0,1,0,1.87,1.88A1.88,1.88,0,0,0,88.89,78.26Zm11.4,0.47a1.88,1.88,0,1,0,1.87,1.88A1.88,1.88,0,0,0,100.29,78.73Zm-11.43.15a1.26,1.26,0,1,1-1.25,1.26A1.26,1.26,0,0,1,88.86,78.88Zm11.4,0.47A1.26,1.26,0,1,1,99,80.61,1.26,1.26,0,0,1,100.27,79.35ZM119.34,80a1.88,1.88,0,1,0,1.87,1.88A1.88,1.88,0,0,0,119.34,80Zm0,0.62a1.26,1.26,0,1,1-1.25,1.26A1.26,1.26,0,0,1,119.32,80.61Zm-39.62.1,5.61,1.44L84,88.07l-6.32-1.69Zm70.91-.15c0.92,2.89-.77,6.6-0.85,6.84-1,2.91-2.24,5.29-2.69,5.42s-0.55.05-.55-0.31a45.45,45.45,0,0,1,2.24-6.67,17.43,17.43,0,0,0,.8-2.66c0-.45-0.43.28-0.9,1.4-0.9,2.24-2.22,4.63-2.5,6.8-0.2,1.77-.54,1.52-0.78-0.59-0.34-2.93.3-4.44,3.57-8.52,0.78-1,1.59-2,1.67-1.73h0Zm-41.18,1.5,1.62,5.8L104.44,89l-1-5.88Zm-27.7.58a1.88,1.88,0,1,0,1.87,1.88A1.88,1.88,0,0,0,81.73,82.64ZM91.62,83l6,0.34,0.05,6-6.5-.28Zm-9.92.24a1.26,1.26,0,1,1-1.25,1.26A1.26,1.26,0,0,1,81.7,83.26Zm25.15,0.53a1.88,1.88,0,1,0,1.87,1.88A1.88,1.88,0,0,0,106.86,83.8Zm-12.43.48a1.88,1.88,0,1,0,1.87,1.88A1.88,1.88,0,0,0,94.43,84.28Zm12.4,0.14a1.26,1.26,0,1,1-1.25,1.26A1.26,1.26,0,0,1,106.84,84.42Zm-12.43.48a1.26,1.26,0,1,1-1.25,1.26A1.26,1.26,0,0,1,94.41,84.9Zm40.87,0.36,0.32,0c1.34,0,5.85,3.25,7,5.23,1,1.75.46,2.44-.64,0.88-1.52-1.71-4.34-4.25-4.7-4.25s0.15,0.55,1.94,2.31,3.65,4,3.65,4.42-0.35.23-.86-0.08a18,18,0,0,1-2.56-1.85c-0.3-.28-0.86-0.8-1.26-1.15-1.66-1.46-3.55-4.84-3-5.49a0.18,0.18,0,0,1,.13,0h0Zm-83.63.48a2.32,2.32,0,0,1,2.51,2.06c0,1,.1,1,1,1s3.19,0.3,3.19.3l0,2.68s-1.14,0-2.46-.07c-2.24-.11-2.23-0.11-2.52.88a1.41,1.41,0,0,1-.72.89c-2,1.33-4-1.08-2.71-3.37,0.43-.78.45-1.05,0.16-1.52a2,2,0,0,1,1.58-2.9h0Zm0.49,1.37a1.1,1.1,0,0,0-.77.36,1.78,1.78,0,0,0,0,1.83c0.32,0.53.31,0.67-.06,1a1.59,1.59,0,0,0,0,2.28c0.58,0.42,1.19-.13,1.2-1s0.64-.9.64-0.9l4.21,0.07V90.09l-3.06-.15a2.16,2.16,0,0,1-1.2-.27,0.8,0.8,0,0,1-.37-1.17,0.81,0.81,0,0,0-.58-1.39h0ZM43,88.7l2,3.42,2.33,0.09,0.2,2.08,2.83,1.84-2.9,1.71-0.14,2.1-2.2.28-2,2.57-2-2.57H39l0-2.15-3-1.92,3.25-1.84,0-2.45,2.3-.15,1.51-3h0Zm70.62,1.56,0.1,2.07-3.27.58,0.43-2.11Zm-21,2.08,4.41,0.14-0.25,29h-1l0-1.13-1.41,0-1.43-.87ZM43,93.07l-2.59,3.3,3.13,2.76,2.76-3.22Zm51,0.44v1.34h1.85V93.51H94ZM43.07,94.65L44.89,96,43.5,97.84l-1.76-1.53Zm70.65,0.76-0.06,15.88c-6.06,4.79-7.95,13.22-7.95,13.22l-2.46-.15,6.26-28Zm-32.84.35c-5.45,2.61-10.95,4.59-16.35,10.82a30.36,30.36,0,0,1,6.27,7.07c4.5-.68,9.51.14,15,2.3ZM94,96.12V97.5h1.85V96.12H94Zm-61.28,2a4.77,4.77,0,0,1,.18.87c4-.34,3,4.33.43,4.49-0.3,0,.25.83,0.84,1.08a2.69,2.69,0,0,0,3.59-1.1,8.09,8.09,0,0,0,.81-1.17L41,103.61a3.15,3.15,0,0,1-.37,1.1c-0.79,2.07.36,4.62,1.26,2.76a2.39,2.39,0,0,1,2.84-1.14c1.13,0.48,1.52,2.51.73,3.8a0.68,0.68,0,0,0-.1.83,4.29,4.29,0,0,1,.13,2.38c-0.3.58-.65,0.71-1.33,0.24a8.17,8.17,0,0,0-3.07-1.37c-2.84-.54-3.4-1.55-4.53-3.9-3.37,1-8.41-1.11-7.74-6.15,0.31-1.11.39-3.25-.17-3.68-1.1-.86.11-2.09,1.76-2.29,1.36-.14,2,1.16,2.27,1.93h0Zm47.66-1.46,4.38,18.48C79.93,113.36,75.21,112,71,113a29.29,29.29,0,0,0-5.67-6.59c4.14-5,9.39-7.83,15-9.77h0Zm-49.59.91a1.41,1.41,0,0,0-.94.42,2,2,0,0,1,.46.59c0.26,0.54.26,0.54,0,1.74-1.34,4.81,1.83,8,6.34,6.61,1.11-.34,1.06-0.31,1.38,1,0.53,2.16,2,3.27,5,3.68a2,2,0,0,1,.74.24c1.32,0.85.78-.28,0.42-0.72a4.09,4.09,0,0,0-.73-0.69s0.4-.26.59-0.36c0.85-.45,1.17-2.23.47-2.61a1.26,1.26,0,0,0-1.73.84c0,1.2-1.51,1.33-2.83.33-1.69-1.28-.19-4.52-0.18-4.52l-1-.42c0.13,0.11-2,3.17-4.64,2.11-1.84-.75-3.13-2.89-2.28-3.5,0.62-.17,1.37.18,1.84-0.19,0.94-.74.18-2-1.16-2a8.87,8.87,0,0,0-.92.14,6.19,6.19,0,0,0,.15-1.62,1.12,1.12,0,0,0-1-1.06h0ZM94,99v1.14h1.83V99H94Zm0,2.35v1.17h1.85v-1.17H94Zm0,2.53V105h1.85v-1.2H94Zm0,2.36v1.27h1.85V106.2H94Zm0,2.37v1.18h1.85v-1.18H94ZM94,111v1.2h1.85V111H94Zm-60.12,1.17,1.56,2.65,1.85,0.08,0.07,1.82,3.14,2.42-2.75,2-0.2,2-2.18.07-1.76,3-2.17-2.63-1.75-.28-0.2-2.39-2.69-2,2.53-2,0.2-2.13,2.06,0.18Zm102.33,1.27a1.27,1.27,0,0,1,.55.15c0.65,0.33.86,0.37,2.56,0.46,2,0.1,2.66.28,3.64,0.93,0.59,0.4.62,0.39,1.25,0,2.76-1.84,5.92-.17,6.15,3.27a4.59,4.59,0,0,0,.5,2,1.82,1.82,0,0,1,.35,1.27c-0.44,1-2.57,1.09-3.73-.43a0.89,0.89,0,0,0-.71-0.33c-0.58.22-2.05-1-2-1-0.14.81-.21,1.46-0.35,2.64l-2.58,0s-0.06-.48-0.18-2.14c-0.14-1.91-.61-2.47-1.21-1.44a2.17,2.17,0,0,1-4-1.12,1.1,1.1,0,0,0-.48-1.11c-1.31-1-.92-3.14.25-3.12h0Zm-42.21.1v1.06h1.85v-1.06H94Zm42.5,1.13c-0.51,0-.22,1,0.63,1.44,0.48,0.27.48,0.27,0.42,1.11-0.11,1.53,1.35,2.27,2,1a1.07,1.07,0,0,0,.12-0.68c-0.27-1.11,2.11-.81,2.68.34a6.27,6.27,0,0,1,.35,1.67c0.07,0.67.08,1.45,0.08,1.45h0.76a9,9,0,0,1,0-.91c0.19-1.9,1-3.09,2.15-3.09,0.48,0,.5.09,0.16,0.71-0.57,1.06,0,1.82,1.3,1.83,0.84,0,.84,0,1.15.61s0.6,0.87.92,0.75,0.23,0-.07-2.21c-0.44-3.36-2.38-4.26-5.06-2.36-0.76.54-.92,0.52-1.6-0.13-1-1-1.64-1.2-3.61-1.28a11.34,11.34,0,0,1-2.05-.21,0.85,0.85,0,0,0-.37-0.08h0Zm-63.53,1c-0.44,0-.95.1-1.39,0.14a77.65,77.65,0,0,1,.94,7.78c2.25-.39,5.17,0,9,1.78a59.92,59.92,0,0,1,8.28,5.14,29,29,0,0,0,10.39,4.4c4,0.87,7.18.8,7.09,0.61a35.8,35.8,0,0,1-1.27-7.73,32.25,32.25,0,0,1-14.9-5.35C85.75,118.7,79.53,115.5,73,115.61Zm21,0.22v1.08h1.85v-1.08H94ZM33.3,116l-2.93,3.07,3.18,3,2.7-3.09Zm-0.08,1.39,1.66,1.6-1.34,1.71-1.86-1.62Zm41.25,0.25a6,6,0,0,1,2.06,1c1.08,0.75,1.95,1.22,1.63,0,0.25-.34,1.44.76,2.86,1.46,1.7,1.37,1.71,1,1.93.36,0.23-.5.54-0.16,1.9,1.11,1.79,1.67,1.63,1.67,2,1.25,0.41-.78.54-0.77,2,0.91s1.83,2.06,2.16,1.34c0.5-.38.76,0,2.81,1.93,1,1,1.25.86,1.44,0.17s0.25-.55,2,0.82c2,1.59,2.17,1.71,2.25,1.16,0.13-.88.74-0.56,2.78,0.91,1.23,0.89,1.7,1.13,2,.91,0.27-.48-0.67-1.4,1.32-0.53l0.55,2.9-0.69-.2c-0.42-.12-1.35-0.44-1,0.47,0.2,0.52-.3.46-1.84-0.46-2.21-1.33-2.62-1.63-2.78-1.36-0.29,1-.25,1.06-1.75-0.12-1.73-1.32-2.08-1.69-2.33-1.24,0,1-.52.8-2.13-0.61-1.37-1.2-1.66-1.83-2.27-.91-0.17.32-.34,0.24-0.56,0.07a31.85,31.85,0,0,1-2.85-2.78c-0.36-.39-0.56-0.26-0.85.06s-0.29.21-1.18-.61c-2.11-1.95-2.5-2.43-2.79-2.17-0.24.46,0,1.08-1.63-.21-2-1.47-2.91-2.13-2.78-1.16-0.35.43-.1,0.52-2.14-0.62s-2.18-1.4-2.46-1a0.6,0.6,0,0,1-.84.34l-0.39-3h0.7a4,4,0,0,1,1-.27h0Zm-15.5.25c-0.15.46-1.22,3.09-1.23,9.8a7.63,7.63,0,0,0,2.76-4.83A10.52,10.52,0,0,0,59,117.93Zm35,0.19v1.22h1.85v-1.22H94Zm-34.88,1c2.35,3.75-.24,7.29-0.89,7.54A34.41,34.41,0,0,1,59.1,119.09Zm61.69,3.15c-3.86,2.45-3.24,9.09-1.34,10.79A61.73,61.73,0,0,0,120.79,122.24Zm-0.53.82-1,8.54C117.87,130.09,117.63,125.6,120.26,123.06Zm24.37,1.44,2,2.59,1.81,0.14,0.4,1.87,2.65,2.17-2.65,1.81-0.23,2.07-2,.2-2,3.09-1.91-3-1.83-.2-0.06-2L138,131.07l2.74-1.66,0.05-2.25H143Zm-72.3.81a20,20,0,0,1-8.77,13.32l0,0.63-7.36,3a46.6,46.6,0,0,1-10.59,21.9l1.7,3.47-8.22,2.85,11.77,20.33c0.81,0-5.7,3.1-13.57,2.3,5,12.27,6,25,3.25,36.1L79.09,229,49.65,170.81l-0.48-.95c-0.41-.76,15.66,2.27,12.24,17.28,0,0.35.07,0.39,0.27,0.25,3.12-2.7,23.86-10.19,40.42-.3L107,185c-2.34,8.26-5,13.93-9.49,18.91l0.76,11.75A50.07,50.07,0,0,0,116,181.14c3.58-1.75,6.69-3.75,10-5.63l0.44,0.14,2.16-1.3c-6.92-7.62-21-14.9-30.09-16.82l0.53,2.58a73.41,73.41,0,0,0-12.61-2.06l-0.6-27.34-5-3-0.16,30.16a118.76,118.76,0,0,0-12.41,1.54l0.39-2.58-4,.82-0.07-2.51,4.47-1.29,6.49-27.7Zm0.54,0.62,2.07,0.42L68.52,153.5a27.77,27.77,0,0,1-3.83.86c-0.29-5.09-.4-15.47-0.4-15.47,6.34-5.32,7.33-9.09,8.58-13h0Zm-44.09,2a2.13,2.13,0,0,1,2.08,1.34,0.76,0.76,0,0,0,.57.6c1.62,0.23,1.67.66,1.72,1.6-0.23,1.8,1,.29,1.31-1.5,0-.19,0-1.56,0-1.56l2,0s0.07,1.43.1,1.66c0.17,1.39.76,2.51,1.17,1.77,1.4-2.52,4.59-1.24,4.09,1.2a0.84,0.84,0,0,0,.27,1,2.22,2.22,0,0,1,.66,2.13c-0.2.64-.65,0.74-1.61,0.35a7.33,7.33,0,0,0-2.46-.29c-2.07-.06-2.2-0.1-3-0.89l-0.51-.5-0.88.52a4.07,4.07,0,0,1-4.33.1c-1-.52-1.59-1.76-1.75-3.7,0-1-.32-1.77-0.95-2-0.34-.32,0-1,0.62-1.56a1.55,1.55,0,0,1,.9-0.28h0Zm115.68,0.29-2.73,3.42,3.24,2.92,3-3.57Zm-63.14.49,3.78,2.18,0.48,27-4.27-.12v-29h0Zm-52.43.38c-0.29,0-.11.49,0.1,1.2a3.26,3.26,0,0,1,.18,1.47c-0.4,3,3,4.46,5.39,2.41,0.65-.74.75-0.7,1.29,0.1s1.64,1.11,3.67,1c0.93-.06,1.54.44,1.95,0.11s0-.78-0.55-1.1c-0.34-.2-0.36-0.23-0.29-0.93,0.17-1.75-1.26-2.21-2.28-.74-0.84,1.22-2.11.41-2.51-1.6-0.24-1.55-.44-1.52-0.62-0.17-0.2,1.64-2.35,3.42-3.2,2.61-0.23-.24-0.23-0.18,0-1,0.31-1.06.06-1.45-1.08-1.73a0.81,0.81,0,0,1-.48-0.35c-0.61-.95-0.58-1.28-1.57-1.28h0Zm115.85,0.63,1.73,1.5L145,133l-1.84-1.42Zm-62.23,1v1.27h1.61v-1.27H82.5Zm0,2.57v1.34h1.61v-1.34H82.5Zm9.73,1.54q2.71,10.15,5.45,20.29c1.72-.69,11.67-5.14,16.35-10.82a31.56,31.56,0,0,1-5.69-6.62c-4.69.78-10.08-.21-16.11-2.85h0Zm-9.73.81v1.25h1.61v-1.25H82.5Zm10.75,0.34C97.52,137.2,103,139,108,138.07a22,22,0,0,0,5.31,6.07c-3.82,4.18-9.33,7.37-15,9.82Zm40.57,0.49a1,1,0,0,1,.64.27,4.23,4.23,0,0,0,2.58,1,5.21,5.21,0,0,1,4.41,3.63c0.2,0.78.31,0.83,1.42,0.55,4.2-1.06,7.44,2.44,6.44,7.12-0.35,1.63-.46,1.83,0,2.48,1.07,1.16,1.3,1.17.13,2.2a2.32,2.32,0,0,1-3.63-1.06c-0.43-.86-0.42-0.92-1.13-1a2.38,2.38,0,0,1,0-4.7,3.48,3.48,0,0,0,.48,0c0.73-.33-0.8-2.08-2.06-1.81-1.55.33-2.33,1.33-2.94,2.9l-2.45-1.41c0.61-1.28,1.06-2.92.53-3.94-0.43-.86-1-0.89-1.14-0.07-0.39,1.93-2.78,2.51-4.34.94a2.37,2.37,0,0,1-.33-3.1c0.42-.82.43-0.88,0.25-1.23-0.62-1.21.22-2.73,1.15-2.73h0ZM82.5,138v1.3h1.62V138H82.5Zm51.61,0.11c-0.5,0-.49.49,0,1.08,0.41,0.42.49,0.61-.08,1a1.88,1.88,0,0,0-.37,2.41,1.21,1.21,0,0,0,2.23-.84c-0.14-.94.6-1.36,1.76-1a3.23,3.23,0,0,1,1.84,4.35c-0.13.36-.38,1.21-0.38,1.21l0.5,0.31s0.59-1,.83-1.25c1.93-2.39,6.48-1.18,6,1.81-0.08.94-.07,1.06-1.09,0.77-0.67-.35-1.32.38-1.3,1.28a1.43,1.43,0,0,0,1.71,1.34c0.77-.15,1-0.12.91,0.93a1.71,1.71,0,0,0,.82,1.46c1.15,0.48,1.74-.18.82-1.15a2.16,2.16,0,0,1-.17-2.35,6.83,6.83,0,0,0-.44-4.52c-0.93-1.82-3.51-2.58-5.68-1.67-1,.53-1.1.66-1.2-0.28a5.16,5.16,0,0,0-4.44-4.23,13.16,13.16,0,0,1-2.23-.63h0ZM82.5,140.45v1.2h1.62v-1.2H82.5Zm0,2.35v1.33h1.61v-1.33H82.5Zm0,2.59v1.33s0.88,0,1.61,0V145.4H82.5Zm52.73,2.13,1.77,2.63,2,0.13,0.23,2.13,3,1.86-2.57,1.62,0,2.06-2.45.21-2.17,2.9-1.85-2.56h-1.85l-0.43-2.28-3.27-1.67,3.35-1.92-0.09-2.4,2.28,0,2.14-2.7h0Zm-52.73.31v1.36h1.61v-1.36H82.5Zm0,2.5v1.35h1.61v-1.35H82.5Zm51.74,1-2.53,3.4,3.41,2.84,2.71-3.43ZM82.5,152.7v1.47h1.61V152.7H82.5Zm52,0.18,1.76,1.37L135,155.85l-1.75-1.34Zm-52,2.55v1.23h1.61v-1.23H82.5Zm-48.06.16c-3.11,0-6.06,5.09-6.76,7.49-0.83,3.08-1,8.65-.17,8.81,2.79-2,4.11-5.45,6.21-8,0.33,3,.27,8.69.27,8.69a5.82,5.82,0,0,0-1.91,1.7,3.21,3.21,0,0,0-.23,2.86,3.36,3.36,0,0,0-4.52,2.95c0.1,4.06,4.5,3.49,4.52,3.43s-0.87,4.32,3,4.78c1.4,0.17,3.87-.86,3.14-4.82,2.47,0.41,4.59-1,4.62-3.35a3,3,0,0,0-3.33-3.05,9.34,9.34,0,0,0-1.38.2,4.07,4.07,0,0,0-2-4.62l-0.45-11.76s1,1.08,1.43,1.49a22,22,0,0,0,5.34,3.82c2.14,1.13,1.87.85,1.5-1.3-1-3.24-3.12-5.68-7.59-8.74a3,3,0,0,0-1.73-.57h0Zm0.31,0.25,0.63,16.63H34.45l-0.8-16.61Zm91.61,0.55h0.25a2.17,2.17,0,0,1,1.63,3.45c-0.36.4-.48,0.48-0.3,0.73,0.86,1.1.38,2.84-.47,3.11-2.72.85-3.13-.65-3.12-2.41l-4.2-.16,0-2.46,4.63,0.09a1.75,1.75,0,0,1,1.55-2.36h0Zm-93.55,0h0c0.43,0,0,1.21-1.23,3a30,30,0,0,0-2.3,4.19c-0.75,1.88-1.25,5.25-.75,4.63,0.45-1.41.5-2,.88-3a40.26,40.26,0,0,1,3.37-6.09c0.4-.37.51-0.14,0.5,1.08,0,2.75-1.32,5.64-4.4,9a9.79,9.79,0,0,1-1.25,1.18c-0.3,0-.29-0.62-0.28-1.93,0-5.2,1.94-9.84,4.88-11.83a1.28,1.28,0,0,1,.53-0.25h0Zm3.13,0.24c1.35,0.4,3.78,2.59,4.79,3.71,1.16,1.26,2.71,4.75,2.44,5.29-0.09.24-.29,0.2-1-0.19C37.89,163,34.8,160,35.61,159c0.23-.27,1.15.29,2.39,1.45,0.84,0.75,1.71,1.52,2.48,2.28,1.21,1.2,1.48,1.38.75,0a19.42,19.42,0,0,0-4.76-4.92c-0.91-.69-1.12-1.25-0.54-1.24h0Zm90.69,0.7-0.15,0c-0.85.36-.5,1.47-0.58,2.32l-4.66-.16,0,0.65,4.37,0.24c0.08,0.66-.27,2.1.3,2.34,1.22,0.51,1.89-1.08.85-2-0.37-.33-0.77-0.48.26-0.94a1.57,1.57,0,0,0,.2-2.23,0.89,0.89,0,0,0-.56-0.21h0Zm-59,.19-0.23,1.74-2.7.69-0.07-1.86Zm31.87,0.62c10,2.71,21.07,8.85,28.27,15.79l-1.44,1A68.09,68.09,0,0,0,100,160Zm-17.19.27c16.43,0,31.41,6.39,43.5,16.77l-2,1.25c-11-9.18-23.24-15.3-39.68-16-10.74-.48-23,2.3-35.08,9l-0.9-1.65c11.73-6.44,23.25-9.32,34.14-9.35h0Zm-1.29,2.49,6.46,0.19-0.4,6L81.25,167Zm-7,.43L75,167.18l-5.62,1.06-1.6-5.85Zm20.46,0.77,6.42,1.72-2.12,5.94-5.64-1.62Zm-10.28.09a1.86,1.86,0,1,0,1.85,1.86A1.85,1.85,0,0,0,84.29,162.21Zm0,0.64a1.22,1.22,0,1,1-1.23,1.22A1.22,1.22,0,0,1,84.29,162.85Zm-12.75,0a1.86,1.86,0,1,0,1.85,1.86A1.85,1.85,0,0,0,71.54,162.86Zm0,0.64a1.22,1.22,0,1,1-1.23,1.22A1.22,1.22,0,0,1,71.54,163.5ZM97,164.25a1.86,1.86,0,1,0,1.85,1.86A1.85,1.85,0,0,0,97,164.25Zm-35.78.22,1.9,5.69-5.45,2.22-2-5.62ZM97,164.89a1.22,1.22,0,1,1-1.23,1.22A1.22,1.22,0,0,1,97,164.89Zm10.67,1.36,5.78,3.07-3,5.44L105,171.94Zm-48.38.49a1.86,1.86,0,1,0,1.85,1.86A1.85,1.85,0,0,0,59.25,166.75Zm21.83,0.18,0.27,5.74-5.12.36-0.93-5.71Zm6.14,0.3L93,168l-1.37,5.53-5.28-.86,0.82-5.49h0Zm-28,.16A1.22,1.22,0,1,1,58,168.61,1.22,1.22,0,0,1,59.25,167.39Zm19.11,0.74A1.86,1.86,0,1,0,80.2,170,1.85,1.85,0,0,0,78.36,168.13Zm-9.32.23L70.55,174l-5.62,1.62L63.2,170.2Zm20.42,0.09a1.86,1.86,0,1,0,1.85,1.86A1.85,1.85,0,0,0,89.46,168.46Zm-11.1.32A1.22,1.22,0,1,1,77.13,170,1.22,1.22,0,0,1,78.36,168.78Zm11.1,0.32a1.22,1.22,0,1,1-1.23,1.22A1.22,1.22,0,0,1,89.46,169.1Zm19.74,0A1.86,1.86,0,1,0,111,171,1.85,1.85,0,0,0,109.19,169.11Zm-10,.54,5.64,1.94-2.25,5.3-5.39-2.07Zm10,0.1A1.22,1.22,0,1,1,108,171,1.22,1.22,0,0,1,109.19,169.75Zm-42.4.2a1.86,1.86,0,1,0,1.85,1.86A1.85,1.85,0,0,0,66.8,170Zm0,0.64a1.22,1.22,0,1,1-1.23,1.22A1.22,1.22,0,0,1,66.8,170.59Zm34.15,1.08a1.86,1.86,0,1,0,1.85,1.86A1.85,1.85,0,0,0,100.94,171.68Zm0,0.64a1.22,1.22,0,1,1-1.23,1.22A1.22,1.22,0,0,1,100.94,172.32Zm-66,.65a2.91,2.91,0,0,1,2.65,2.78c0.05,1.05-1.29,2.44-1.29,2.44l-1.56-1.45-1.49,1.39c-0.25.08-1.41-1.9-1.06-2.93A2.85,2.85,0,0,1,34.93,173h0Zm83.79,0,4.46,3.68-2.32,1.41a1.9,1.9,0,0,0,.07-0.5,1.85,1.85,0,1,0-2.26,1.81l-1.07.61-2.36-2Zm-7.07,9.83-2,.82c-12.15-8-28.78-12.44-47.79-4.34l-0.65-1.59C75.35,171.76,93.15,169.92,111.65,182.8Zm-1.08-8,4.78,3-3,4.7-4.67-3Zm-1.45,9.11-2,.76c-14.84-9.6-30.65-9.09-44.78-3.33l-0.22-1.35c16.64-7.25,33.33-4.95,47,3.92h0Zm10-7.53a1.22,1.22,0,1,1-1.23,1.22A1.22,1.22,0,0,1,119.08,176.34Zm-86.32,2.2-1.65,1.68,1.51,1.7a6.42,6.42,0,0,1-.82.6,2.75,2.75,0,0,1-4-2.47c0.15-2.69,3.37-4,5-1.5h0Zm78.5-1.28a1.86,1.86,0,1,0,1.85,1.86A1.85,1.85,0,0,0,111.26,177.26Zm-71.82.08a2.79,2.79,0,0,1,2.75,2.45,2.87,2.87,0,0,1-1.58,2.75c-1.57,1-3.4-.59-3.37-0.69l1.33-1.32L37,178.88A3.33,3.33,0,0,1,39.44,177.33Zm-4.59.32,2.72,2.73-2.88,2.7L32,180.38Zm71.68,7.26-1.53.7-2.08-1.26-0.62,1.19,1.16,0.74-1.2.45c-13.86-7.84-29.52-5.57-39.94-.37,0,0,.09-0.81.1-0.81l1.13-.58-0.42-1.44-0.61.18,0-1.6c14.87-6.74,31.73-5.2,44.05,2.8h0Zm4.74-7a1.22,1.22,0,1,1-1.23,1.22A1.22,1.22,0,0,1,111.26,177.9Zm-76.47,1-1.45,1.45,1.44,1.55,1.41-1.5Zm45.37,0.32-1.9.09,0.1,1.56,1.85,0Zm1.3,0,0,1.56h1.72v-1.54H81.45Zm3.06,0-0.08,1.55,1.71,0.08,0.12-1.54Zm-7.38.2-1.95.21,0.22,1.57,1.84-.22Zm10.57,0-0.14,1.6,1.76,0.2,0.24-1.53Zm-52.9,0,0.85,0.91-0.84.84-0.9-.88Zm39.06,0.48-1.88.3,0.2,1.61,1.83-.36Zm17,0-0.31,1.49,1.75,0.42,0.28-1.53Zm-20.1.65L69.2,181l0.34,1.57,1.66-.41Zm23.09,0.06-0.33,1.52,1.78,0.49,0.36-1.46Zm-25.69.75-1.65.59,0.43,1.46,1.68-.57Zm28.76,0.17L96.38,183l1.54,0.62,0.68-1.32Zm-31.48.86-1.56.65,0.65,1.44,1.48-.68Zm-32.25,0,1.58,1.59,1.88-1.71c1.64,1.46,1.62,4.88-1.29,5.45-2.54.5-4.86-3.33-2.18-5.34h0Zm66.56,0.31-0.6,1.34,1.7,0.75,0.59-1.29Zm-48.58,8.59,21.49,36.78-3.4-.07-20.8-35.54Zm-3.53,1.4,1.19,1.86c-2.33-1.87-5.75-.3-5.6,2.06,0.11,1,1,1.69,1,.68s1.38-2,2.46-1.93c2,0,3.21,2.6,1.83,3.89-0.9.84-2.13,0.8-1.71-.35a0.64,0.64,0,0,0-.15-0.71,0.88,0.88,0,0,0-1.37.91c0.17,0.49.22,0.62-.37,1-2.28,1.61-.69,4.79,2.07,3.34a1.4,1.4,0,0,1,1-.14c1.15,0.44,1.93-.56.84-1.08-0.63-.3-0.65-0.82,0-1.23,1.3-.88,3.33.49,3.33,2.25,0,1.24-1.63,2.16-3.19,1.8-0.93-.21-1,0.42-0.19,1.07,1.64,1.27,4.11.22,4.84-2.07a2.44,2.44,0,0,0,.2-0.87L56,206.92a10.73,10.73,0,0,0-1.09-.45c-2.06-.63-4.38.71-4.39,2.56,0,0.87.51,1.2,0.79,0.52A2.57,2.57,0,0,1,54.93,208a2.51,2.51,0,0,1,1.46,3.27c-0.56,1.31-2.45,1.69-2.23.46a0.72,0.72,0,0,0-.88-0.89,1.12,1.12,0,0,0-.46,1.05c0.08,0.31,0,.39-0.78,1-1.92,1.5-.44,4,1.95,3.25a1,1,0,0,1,.91.07c0.87,0.42,1.77.16,1.78-.51,0-.46-0.2-0.64-0.75-0.64-0.82,0-.64-0.94.27-1.39,2.28-1.14,4.6,1.75,3.21,4-0.6,1-1,1.07-3.1.83-0.34,0-.5.2-0.29,0.48a3.33,3.33,0,0,0,3.59.69,3.83,3.83,0,0,0,2-3.33l2.4,4.23a3.22,3.22,0,0,0-5.62,1.6c0,0.71.64,1.09,0.87,0.5a2.41,2.41,0,0,1,4.66,1,1.58,1.58,0,0,1-.37,1.08c-0.68,1.32-2.41,1.64-2.1.46a0.71,0.71,0,0,0-.62-0.88c-0.47-.11-0.77.28-0.76,1,0,0.54,0,.7,0,0.7a2.69,2.69,0,0,0-1.61,2.15l-16.83,0c2-11.75,1.53-22.36-2.3-32.39l-0.81-2.14,3,0.08c0.72,0.63,3.43.38,4.48-.58Zm2.86,4.61,1.74,3.14a5.75,5.75,0,0,0-2.57-.79A6.87,6.87,0,0,0,50.51,197.39Zm-4.57,3.34a1.15,1.15,0,1,1-1.15,1.15A1.15,1.15,0,0,1,45.94,200.73Zm12,9.39,1.67,3a6.53,6.53,0,0,0-2.78-.72A6.68,6.68,0,0,0,57.92,210.13Zm-4.83,3.21a1.09,1.09,0,1,1-1.08,1.1A1.09,1.09,0,0,1,53.09,213.34Zm12.13,9.35,2.47,4.42A5.51,5.51,0,0,0,64.37,226,5.82,5.82,0,0,0,65.23,222.69Zm-3.29,5.51H59.29C59.82,225.88,62,226.49,61.94,228.2Zm2.51-1.13a2.51,2.51,0,0,1,2.17,1.15H63.28a1.15,1.15,0,0,1,1.17-1.16h0Z" transform="translate(0.1 0.1)"/><path id="path163-0-2-5-8-7-5-8-8-7" class="cls-2" d="M48.06,64.75s-3.72-6.1-8.73-13.28C36,46.66,33.3,41.46,33,37c-0.29-5.12,2.42-10.25,7.32-10.5s6.88,3.95,7.69,7.4c0.81-3.46,2.8-7.65,7.69-7.4s7.61,5.38,7.32,10.5c-0.25,4.48-2.93,9.68-6.28,14.48-5,7.18-8.73,13.28-8.73,13.28h0Z" transform="translate(0.1 0.1)"/><path id="path163-0-2-5-8-7-7-8-4-8-6" class="cls-2" d="M130.52,184.7s-3.72,6.1-8.73,13.28c-3.35,4.8-6,10-6.28,14.48-0.29,5.12,2.42,10.25,7.32,10.5s6.88-3.95,7.69-7.4c0.81,3.46,2.8,7.65,7.69,7.4s7.61-5.38,7.32-10.5c-0.25-4.48-2.93-9.68-6.28-14.48C134.23,190.81,130.52,184.7,130.52,184.7Z" transform="translate(0.1 0.1)"/></g></svg>