<svg id="Layer_1" data-name="Layer 1" xmlns="http://www.w3.org/2000/svg" viewBox="0 0 178.78 249.65"><defs><style>.cls-1{fill:#fff;stroke:#000;stroke-width:1px;}.cls-2{fill:#e2cf00;}.cls-3{fill:#131f67;}.cls-4{fill:#d40000;}</style></defs><title>12_S</title><g id="g6503"><rect id="rect7399-8-3" class="cls-1" x="0.5" y="0.5" width="177.79" height="248.65" rx="8.5" ry="8.5"/><path id="path7431-0-1" d="M14.11,40.25C10.68,44.62,7,47.14,6.94,50.55a3.31,3.31,0,0,0,2.74,3.34A2.85,2.85,0,0,0,13,51.14c0-.4.47-0.39,0.47,0.16a10.42,10.42,0,0,1-1.56,4.9h4.5a10.42,10.42,0,0,1-1.56-4.9c0-.54.47-0.55,0.47-0.16a2.85,2.85,0,0,0,3.27,2.75,3.31,3.31,0,0,0,2.74-3.34C21.22,47.14,17.54,44.62,14.11,40.25Z" transform="translate(0.1 0.1)"/><path id="path7435-3-6" d="M164.47,209.2c-3.43-4.37-7.11-6.89-7.17-10.3a3.31,3.31,0,0,1,2.74-3.34,2.85,2.85,0,0,1,3.27,2.75c0,0.4.47,0.39,0.47-.16a10.43,10.43,0,0,0-1.56-4.9h4.5a10.43,10.43,0,0,0-1.56,4.9c0,0.54.47,0.55,0.47,0.16a2.85,2.85,0,0,1,3.27-2.75,3.31,3.31,0,0,1,2.74,3.34c-0.06,3.41-3.73,5.93-7.17,10.3h0Z" transform="translate(0.1 0.1)"/><path id="path37-0-2-9" d="M8.32,29H6.12V26h2.2s0-1.62.08-4.47c0.14-6.07.29-7,2-8.69,3.47-3.3,9.28-.61,9.21,4.36-0.1,7,0,13.7-.23,14.64-0.36,1.67-.4,1.76-0.25,2.07,0.3,0.61,2.93.88,2.93,0.71v3a5.42,5.42,0,0,1-4.44-1.18,6.58,6.58,0,0,1-6.47.8C9.34,36.36,7.94,34.12,8.32,29h0Zm7.42,5.23c-1.09-1.57-2.92-3.72-4.64-4.49-0.11,1.81,0,3.33.68,4.15a2.53,2.53,0,0,0,4,.34h0ZM16.65,17c-0.81-2.29-2.88-3.07-4.4-1.63-0.95.89-1.1,1.83-1.12,6.93,0,3.15,0,4.47,0,4.47,3,1,5.71,4.4,5.69,4.36l0.07-9.51A26.69,26.69,0,0,0,16.65,17h0Z" transform="translate(0.1 0.1)"/><path id="path37-0-5-5-3" d="M170.26,220.41h2.2v3h-2.2s0,1.62-.08,4.47c-0.14,6.07-.29,7-2,8.69-3.47,3.3-9.28.61-9.21-4.36,0.1-7,0-13.7.23-14.64,0.36-1.67.4-1.76,0.25-2.07-0.3-.61-2.93-0.88-2.93-0.71v-3a5.42,5.42,0,0,1,4.44,1.18,6.58,6.58,0,0,1,6.47-.8c1.84,0.87,3.24,3.11,2.86,8.19h0Zm-7.42-5.23c1.09,1.57,2.92,3.72,4.64,4.49,0.11-1.81,0-3.33-.68-4.15a2.53,2.53,0,0,0-4-.34h0Zm-0.9,17.32c0.81,2.29,2.88,3.07,4.4,1.63,0.95-.89,1.1-1.83,1.12-6.93,0-3.15,0-4.47,0-4.47-3-1-5.71-4.4-5.69-4.36l-0.07,9.51a26.69,26.69,0,0,0,.23,4.61h0Z" transform="translate(0.1 0.1)"/><path id="path4075-4-3-9" class="cls-2" d="M81.7,228.6l18.7-34.16a92.4,92.4,0,0,0,9.74,3.14c-5.07,13.24,0,30.71,0,30.71S81.68,228.57,81.7,228.6ZM30.46,170.27c-1.06-14.51.61-26.81,1.29-40.13,0-.19-6.07-4-6.07-4L40.05,118c1.43,0.74,2.25.61,2.59-.76-1.45-4.94-1.73-9.73,1.59-13.82,2.49-3,8.17-1.45,9.82-1.46,1.29,0,4.35-10.21-.83-13.21-1.1-.64-1.62,6-2.37,8.73-3.33-2-9.49-3.6-10.31-7-0.42-1.91,5.63-5.58,4.44-7.73-1.73-3.13-6.2-7.82-8.11-6.53-1.81,1.64-6.12,5-6.09,7.28,1.35,4.11,4.77,4.39,6.57,8.28a52.58,52.58,0,0,0,3.76,4.37c-1.24,1.91.77,5.24,0.86,4.73L26.29,94s3.59,27.12-.2,31.14c-0.4.42,3.36-1.06,3.42-.83,1.14,1.45,13.81,9.53,17.43,12.43,6.44-9,8.79-13,17.09-21,1.82-1.51,5.88-4.27,8.2-7.58a11.69,11.69,0,0,0,2.3-8c-0.43-3-.7-5.07-2.55-7.47C67.71,87.22,60.9,81.93,61,81.84l2.33-1.9S71.74,86.9,75.3,92c2.39,3.45,1.32,7.4,3.38,8.11,0.5,0.17,3.89-.11,5,0.1,0.13,0,24.69,17.4,20.24,18.41-6.16,1.39-16,.48-16,0.48-7-6.87-10.4-9.13-14.58-7,0,0-10.6,9.3-16.71,16.57-3.49,4.15-9,12.82-9,12.82-0.41-.18-12.54-9.8-12-8.72,0,0,2.91,26.34,1.61,36-0.89,8.19-2.1,17-2.65,24.53,1.72-.38,4.26-0.86,4.74,1.77,0.42,3.6-4.2,2.76-4.3,2.45,0,0,2.58,5.55,2.58,5.55s-4,6.92-3.89,6.61S30,203.57,30,203.57s2.75-5,3.16-6c0.28-.69-4.21,1.82-4.38-1.82s4.68-2.86,4.43-2.38c-0.6-8-1.94-16.32-2.79-23.08h0Zm60.12,18.05c0.11-.08-10.61-4.31-20.46-3.92-3.47-1.35-9.13-2.77-12.91-.25A139,139,0,0,1,45.57,175c1,0,5.53-25.85,7.51-34C51.94,130,62.42,130,63.33,138.79c11.29,11.71,25.12,23.82,39.37,35.73-2.27,4.71-10.45,8.31-12.12,13.81h0Zm24.69-77.17C102.39,98,75.45,74.46,75.45,74.46L88.06,62.12c6.62,2,13.42,3.63,21.11,3.71,0,0,8.43,3.83,12.9,0l11.64,9.25s-4.83,25.46-7.66,34.35c0.06,3.52-1.27,7.81-4.74,8.44-3,.54-5.24-3.67-6.06-6.72h0Zm26-30.48c1.34-8.28,1.62-14.3,2.55-24-5.81,1.71-5.73-6.14,0-4.08l-2.64-5.84,3.92-6.58,3.59,6.25L145.59,52c6.43,0.32,4.88,6.3-.66,4.86,1,9.25,3.34,18.6,3.23,27.74,2,14.67-2.45,35.08-1.71,35.56l6.27,4.33-1.07,31.91L141.74,152l-2.95,2c0.95,1.88,2.15,3.68,2.56,5.72,0,0,6.82,5.63,5.88,7.38,0.44,0.26-4.85,7.28-6.41,7.11-3-.34-6.4-4.18-7.39-6.91-0.84-2.75,6.13-5.44,5.25-7.45-1.05-2.41-3.7-3.56-6.05-4.27a10.28,10.28,0,0,1-4.87-3.55s-1.26,10.2-2.47,9.38c-4.88-3.28-1.54-13.69-.64-13.4a39.88,39.88,0,0,0,4.65.73c8.87,0.93,8.27-10,6.55-15.29-0.61-2.07,2-1.41,3.13-1.72,4.31-1.27,11-5.73,11-5.73a155.86,155.86,0,0,1-18.54-12.42,85.42,85.42,0,0,1-11.13,14.76c-4.4,4.4-5.11,5.9-12.47,11.57-0.14.11-5.58,6.62-3,14.23,2.21,6.51,12.85,13.55,12.78,14l-2.09,2c0.08,0.12-15.06-9.42-14.71-19.68,0-.39-6.88-0.52-6.88-0.52l-20-18.54,16.91-.07,8.68,7.11,5.42,0.28c0.35,0.31.55-1.44,5.33-5,9.13-6.83,20.44-24.35,20.44-24.35l12,8.43c-0.6-12.66-2.63-26.28-1.4-37.19h0ZM97.75,20.82S85.32,44.22,78.51,55.25l-9.65-2.78c4-10.76.17-31.27-.85-31.79Z" transform="translate(0.1 0.1)"/><path id="path4073-4-2-4" class="cls-3" d="M24,19.46V230H154.6V19.46H24Zm90.29,152.7a112.79,112.79,0,0,1,18-14c2.22-1.34,2.89-1.54,3.76-.74,1.42,1.3,2.31,2.43,1.84,3.33a3.28,3.28,0,0,1-.44.54l-3.42-1.3,1.11,3.89c-3.08,1.26-3,4.59-.05,6.36l-2,4.71,4.75-2.1a3.15,3.15,0,0,0,5.67,0l4.29,2.1-1.48-5.26c1.41-1.35,2.23-3.5,0-5.48l1-4.12-3.87,1.26a7.68,7.68,0,0,0-1.76-1.6,6.25,6.25,0,0,0-.72-2.71,19,19,0,0,0-1.71-2.47c-0.3-.51-0.06-0.56,1.49-1.39,0.73-.39,1.33-0.79,1.33-0.79s7.58,3.83,10.69,5.29v70.54H111.18c-4.7-14.07-1.32-26.3-.08-31.42-2.19-.18-13.5-3.86-13.84-5.12,4.48-7.13,10.56-13.62,17-19.54h0ZM32.93,192.7c-5.45-1.77-5.51,4.82-2.72,5.33a4.77,4.77,0,0,0,2.61-.12c0.28,0.06-3.27,5.52-3.27,5.52s2.84,5.17,4.2,7.37L38,203.15l-2.81-5.29c4.4,2.25,6.67-4.44,2.06-5.32a5,5,0,0,0-2.35.41l2.43-22.88c2,1.33,5.53,4,5.53,4,0.81,12.61.22,23.11,7.25,41.45l0.07,12.7H25.73V161.67l4.48,3c0.09,0.38-.67.12-0.26,4.76,0.37,4.19,1.64,11.45,3,23.24h0ZM119.56,21.42a5.44,5.44,0,0,1,.34,1.25c1,3.26,4.37,7.18,7.08,8.21,0.95,0.36,1.32.91,0.77,1.46s-3.54-1.2-5.65-3.66c-1.91-2.23-3.19-4.08-3.47-5.48a4.06,4.06,0,0,1-.13-1.8,0.59,0.59,0,0,1,1.06,0h0Zm3.37-.35a1.58,1.58,0,0,1,1.13,1.19,9.06,9.06,0,0,0,3.49,4.42,0.8,0.8,0,0,1,.4,1.07,0.6,0.6,0,0,1-.32.19c-1.33.37-4.83-3.69-5.1-6.21-0.06-.55.13-0.66,0.41-0.66h0Zm4.35,0.05c0.71,0,1,1.48.64,2.25-0.27.24-.85-0.13-1.37-1.1S126.28,21.12,127.29,21.12Zm-2.37,0a0.69,0.69,0,0,1,.65.14,6.83,6.83,0,0,0,2.34,3.52,0.84,0.84,0,0,1-.11,1.05c-0.8.36-3.22-2.4-3.24-4,0-.48.14-0.71,0.36-0.72h0Zm-3.07,1a11.91,11.91,0,0,0,4.74,6.24c1.31,0.84,1.82,1.32,1.21,1.74a1,1,0,0,1-.34.18c-3.08-1.18-6.86-5.65-7-8.81,0.67-.86,1.26.1,1.38,0.64h0ZM111.21,34.21a13.33,13.33,0,0,0-5.21,1.1c-2.24,1-2.8,1.7-2.47,1.94s1.68-.45,2.4-0.54c3.9-1,6.58-1.21,9.12-.09,2,0.86,2,.46.66-1a6.11,6.11,0,0,0-4.5-1.44h0ZM125,36.36c1.29,0,2.61.29,3.07,0.89,0.36,2-.61,1.06-1.39.67a6.63,6.63,0,0,0-3.64-.79c-0.78.12-.8,0.08-0.36-0.17a4.92,4.92,0,0,1,2.31-.6h0Zm-15.28.76c-3.69.29-5,2.16-7.34,4.09-1,.75-0.76,1.32.44,1.13a6.62,6.62,0,0,1,4.07.5c2.19,0.75,3.76,1.06,5,.6,2.28-.88,2.08-0.73-1.17,2.43-1.74,1.4-1,1.33.73,0.11a10.15,10.15,0,0,0,2.47-2.28c0.13-.28.14-1.27,0.39-1.27,0.83,0,.4-1-0.35-1.48-0.49-.35-0.38-0.72.26-1.4,1-1.06.66-1.54-.43-0.88-0.19.1-.29-0.22-1-0.62a5.43,5.43,0,0,0-3.06-.92h0Zm2.66,1.39c0.89,0.75.51,1-1.43,0.94a14.12,14.12,0,0,0-5,.81c-2.22.74-2.35,0.76-1.05-.36C106.64,38.37,110.28,36.83,112.33,38.51Zm11.52-.65a4.46,4.46,0,0,1,2.33.48c1.86,1,2.27,1.92.2,1.19a7.8,7.8,0,0,0-4.26-.05c-1.25.35-1.47,0.47-1.3-.21C121,38.44,122.35,37.89,123.84,37.86Zm-14.61,3c0.44,2.21,2.11,1.49,2.28.15h0.61c-0.26,1.78-2.67,3.26-3.61-.16a2.3,2.3,0,0,0,.72,0h0Zm13.35,0H123c0.3,1.7,1.87,2.25,2.55.13h0.55c-0.42,3.54-4.15,1.82-3.56-.13h0ZM108,41.09a1.41,1.41,0,0,1,.39,1.16c-0.11.45-1.58,0-1.9-.47A1.86,1.86,0,0,1,108,41.09Zm20.1,0.38v0.62c-0.68.16-1,.55-1.6,0.42a2.29,2.29,0,0,1,.34-1.4,1.09,1.09,0,0,1,1.27.36h0Zm-14.88.72a1.49,1.49,0,0,1-.73.27c-0.07-.59-0.17-1.26.57-1.27A0.58,0.58,0,0,1,113.17,42.18Zm8.51-1a1.34,1.34,0,0,1,.6,1c-0.08.62-1.59,0.37-1.59-.24a1.34,1.34,0,0,1,1-.8h0Zm-13.9,23.44c-1.17-.59-10.07-6-12.34-15.59L95,50c1,2.3,2.39,6,2.39,6-0.06-.32.36,2.5,1.27,7.28a6,6,0,0,1-1.53-.27c-1.17-4.38-1.45-7.81-2.44-12.1l-0.43,1.2s1.24,7.69,2.08,10.7C95.84,62.8,95,62.6,95,62.6c-0.7-3.24-1.24-5.42-1.9-8.67l-0.61.79a50.89,50.89,0,0,1,1.65,7.62,4.94,4.94,0,0,1-1.77-.46s-0.9-4.67-1-4.73a2.21,2.21,0,0,0-.48.79,18.65,18.65,0,0,1,.72,3.67A17.79,17.79,0,0,1,89.3,61a4.07,4.07,0,0,0-.84,1c0.34,1.48,20.75,4.7,19.52,3.47,0,0.13,9,4,14,.7,0,0,8.74,6.5,12.15,9.1a7.8,7.8,0,0,0,2.41,2.55L140,80.49c1,0.78,1.41.22,1.56-1.26,0.17-1.64,1.36-12.72,1.64-15.08,1-8,1-7.87-.17-7.5-1.84.56-3.5-.17-3.5-2.06A2.54,2.54,0,0,1,141.33,52a4.07,4.07,0,0,1,1.32-.12c0.24,0,.68.07,0.73,0.08,0.59,0-2.27-5.22-2.27-5.22s2.73-4.88,4-6.7l3.53,6.42-2.89,5.67c5.64-.42,5.08,6.68-0.43,4.3,0,0,0,2.11,0,2a2.19,2.19,0,0,1,.24-1.23c5.34,2,6.43-5.79.67-5.43,0.95-1.66,2-3.37,3-5.2l-4.16-7.61-4.7,7.85,2.37,4.9a4,4,0,0,0-1.53,0c-3.49.72-2.74,6.34,1.25,5.57a5.77,5.77,0,0,0,1.14-.43l-2.57,23s-0.25.21-1.29-.54c-1.19-.86-3.69-2.73-3.85-2.93a93.56,93.56,0,0,0-7-39.84c-0.27-.74-0.11-15.32-0.11-15.32h23.95V89c-1.24-.79-2.72-1.82-4-2.73a1.11,1.11,0,0,1-.46-1.27,1.41,1.41,0,0,0-.17,1.29l5.24,4.2-0.21,66.64s-8.46-4.37-13.67-6.48c-2.35-1-2.45-.68-2.45-0.68s1.66,3.74,1.19,4.41c1.12,1.08,3,3.34,3.09,5.55a6.94,6.94,0,0,1,2,2.23l3.14-1.14-0.71,3.28c3.34,2.35.12,5.5-.5,5.21a36.49,36.49,0,0,1,1.81,4.62,32.85,32.85,0,0,1-3.91-1.82c-1.92,3.79-5.16.61-5.18,0.05l-3.59,1.6,1.27-4.1c-2.31-1.41-3.88-3.55-.14-5.84l-0.86-3.2,3.08,1.21s0.57-.92,1-1.6c-1.15-5-8.72-4.08-11.15-8.6a67.43,67.43,0,0,1-1.21,7.68c-0.24,5.4-4-.06-4-5.77,0-1.29,1.62-5.63,2.16-5.84s6,2.54,9.6-.06c1.65-1.72,4.5-6.57,1.76-14.16-0.91-1.75,1.72-2,2.57-1.38,0,0,7.89-4.14,11.46-6.14-6-3.29-18.41-12.06-18.4-12.48-1.66,2.64-3.56,4.85-6.23,8.59-4.33,5.11-7.71,10-13.2,14.05-7.72,5.64-9.54,11.32-7.38,18,0.87,2.88,2.63,5.8,5.5,6.81,1.46,1.48,7.34,7.06,7.34,7.06-9.81,9-16.54,16.33-21.27,24.47,4,2.1,13.6,5.15,13.6,5.15-3.57,11.9-1.95,21.36.41,30.85,0,0-27.91,0-42.39-.42a4.36,4.36,0,0,1-1.71-.06c-0.06-1.06,2.61-4,3.41-3.57,0.4-.4,1.25-0.6,1.1-1.08-2-.24-5,3.22-5.15,4.66H64.42c-0.24-.21,2.16-5.85,7-6.3-0.05.2,0.65-.44,0.12-0.71-5.62.67-8.24,6.93-8.08,7H62.58a11.47,11.47,0,0,1,9.77-8.36s0.93-.33.69-0.87C66.68,220,63.5,222.81,62,228.17H60.83c0.83-5.43,6.4-10.2,12.7-10a0.71,0.71,0,0,0,.34-0.89c-7,.79-10.48,3.13-13.35,9.15-2.57-6.69-9.71-9.86-9.79-9.89s-0.17-1.87.23-1.8c6.09,2.21,8.42-3.09,8.16-6.18a26.14,26.14,0,0,0-.62-5.13,22.42,22.42,0,0,1-.85-4.65,1.35,1.35,0,0,1,1-1.46c1.31-.59,2.12-2.74,1.83-3-0.67,1.56-2.44,1.83-3.26,2.88-0.65.87-.37,2.24,0.8,7,0.71,2.92-.13,1.57-1.78.66l-1.1-.63c0.74,0.76,1.52,1.48,2.28,2.23s0.3,1-.67.64a5.77,5.77,0,0,0-5.11.47c-0.4.29-.54,0.26-0.64,0-0.45-7.43.33-12,2.78-17.59,1.59-3.8,3.95-6.64,7.1-6.84s7.74,0.85,11.88,3.68c4.87,3.32,9.61,8.36,10.12,14.55a3.48,3.48,0,0,0,.54-0.85c0.22-.74-0.59-2.94-1.86-5.51-0.23-1.93-.89-5.3-1.41-7.59a1.6,1.6,0,0,1,1.47.21c0.89,3.78,1.53,6.72,2.29,11.78,0,0.49.64-.73,0.64-1.06-0.11-.75-2.21-10.66-2.17-10.43,0-.34,2,0.11,1.72.42,0,0,1.51,8.31,1.61,8l0.51-.71s-1.44-6.07-1.26-7.24a2.89,2.89,0,0,1,1.59.38c0.44,0.6.73,2.76,0.92,4.24,0.51,0.39.61-.74,0.58-1-0.37-.59-0.76-2.78-0.47-2.89a4.13,4.13,0,0,1,1.75.64c0.29,0.26,1.4-1.29,1.12-1.56a61.3,61.3,0,0,0-19.35-3.76,9.39,9.39,0,0,1-3.9-.92c-5.19-1.88-9.49,0-10.12.59C50.75,179.7,43.68,173.53,38,169.59a2.88,2.88,0,0,0-1-.28c-0.89,6.86-1.52,14.79-2.28,21.12-0.31,2.51-.35,2.7-0.23,2.77a0.48,0.48,0,0,0,.37-0.08c1.85-.69,3.53-0.24,4.42,1.44a2.56,2.56,0,0,1-3.86,2.84c-0.82-.42-0.94-0.34-0.56.46,0.65,1.44,2.51,5.24,2.51,5.24s-2.52,5.16-3.79,6.56c-1.24-2-2.83-4-3.51-6.24,1-1.92,2.82-4.38,3.4-6.27a1.53,1.53,0,0,0-.93.17c-3.22,1.53-3.74-1.35-3.7-2.39,0.09-2.1,1.91-2.55,4.57-1.57-2.87-19.12-3.48-30-2.75-28.83a58.4,58.4,0,0,1-5.19-4.17L25.73,21.2H66.84c4.23,11.37,3.06,25,.54,32.15a41.38,41.38,0,0,1,14.14,4.83C72.87,70.9,59.29,84.65,44.58,93.46c-0.83.38-3.57-1.34-3.89-3a1,1,0,0,1,.58-1.15c1.08,0.35,2.13.84,3.18,1.27,0,0-1.47-3.7-.76-4.26a6.31,6.31,0,0,0,1.13-.87,3,3,0,0,0-.15-4.11,4.53,4.53,0,0,0-1.24-.92s1-2.89,1.56-4.25l-4.08,1.35c-1.32-1.84-3.75-3.27-5.55-.53-0.34.73-.27,0.62-2.8-0.5-1.43-.64-2.32-1-2.32-1,0.54,1.6,1.24,3.11,1.85,5-2.81,1.8-2.17,4.83.2,5.74l-1.25,4.1s2.66-1,4.1-1.38a7.65,7.65,0,0,1,1.64,2.48,10.5,10.5,0,0,0,3,4.44,20.6,20.6,0,0,1-4,2.35l6,2.42c-0.37-1.27-1.16-2.21-1.24-3.81a2.51,2.51,0,0,0-1-2.33c-1.63-1.42-1.8-3.11-2.35-4.23a4.16,4.16,0,0,1-1.58-1.88c-0.39-.83-3,1.11-3.35.74S33,86,32.9,85.7c-1-.09-4-2.39-0.49-4.95l-1.12-4.16s2.67,1.17,3.94,1.82c0.89-4.16,4.93-2.17,5.59-.37,0,0,3.21-1.06,3-.2s-0.61,2.69-.61,2.69c2.88,2.56,2.29,3.82-.06,5.5a15.66,15.66,0,0,0,.53,3.47,26.24,26.24,0,0,0-2.71-1,2.55,2.55,0,0,0-.84,1.61c0.73,3.24,4.71,4.14,10.61,7.45,0.2-2.09,1.64-5,1.8-7.46,0.1-1.83.16-1.86,1.45-1.27,3.38,2.45,2.35,9.18,1.12,11.94-0.73,1.56-.85,1.52-2.27,1.07a14.33,14.33,0,0,0-7.35.28c-2.64,1.08-3.89,7-3.92,8.79a12.29,12.29,0,0,0,1,5.5c0.37,1.35-.31,2.39-1.52,2-0.27-.08-0.92-0.33-0.92-0.33L28.74,124l2.15,1.27s-1.58-.95-0.6-1.46l9.77-5.12c1.82,0.71,1.58.86,2.76-.38a1.89,1.89,0,0,1,2-.65c5.76,0.55,8.32-.29,9.31-2.71a0.87,0.87,0,0,1,.68-0.65,2.36,2.36,0,0,0,1.66-2.16,1.47,1.47,0,0,1,.79-1.16,2.26,2.26,0,0,0,.51-2.92,1.45,1.45,0,0,1-.36-1.18,3.16,3.16,0,0,0-1-2.73c-1-1.1-1-.92.85-2.6,3.55-3.38,6.68-6,10.13-9,2.36-2.09,2.11-1.94,3-1a14.25,14.25,0,0,1,3.19,13.87c-0.07.23-.1,0.2,0.07,0,1-1.09,1-6.56.17-9-1-3-2-4.54-5.26-7.46C66.56,87,61,81.67,61,81.67c8.15-7.09,16.93-15.9,21.85-24C80.28,55,68.57,52.45,68.57,52.45c1.46-3,4.34-16.66-.6-31.76,14.49,0.67,29.09-.39,43.56.59l0.35-.12c0.4-.11.6,0.18,0.51,0.63-0.31,1.15-2,3.85-3.19,3.63-0.53-.21-0.38.82-0.62,1.24,1.88-.24,4.08-2.63,4.63-5,0.3-.5.5-0.58,0.8-0.48s0.26,0.44-.12,1.58c-1.17,2.86-3.56,5.52-6.33,5.25l-0.36,1c3.74-.06,6.62-3.57,7.48-6.2,0.6-1.56.62-1.77,1.22-1.62a1.51,1.51,0,0,1,0,1.66c-1.88,6-7,7.63-9.61,7.37-0.31,0-.36.25-0.27,0.75,5.52,0.37,9.91-4.4,10.54-8.5,0.3-1.14.83-1.52,1.13-1a2.48,2.48,0,0,1,0,1.36c-1.51,6.46-8.37,10.13-12.57,9.08-0.19-.18-0.51.71-0.05,1,8.47-.32,11.08-4.7,13-8.58,2.3,3.49,4.19,7.08,9.71,9.19,0,0,.55,1.22.12,1.49a1.73,1.73,0,0,1-1.09,0c-6.73-1.09-9,5.22-6.09,14.64,0.78,2.58.43,2.19-1.24,3.8-0.8.77-1.18,2.13-1,2.17,0.29-.16.38-0.6,1.08-1.19,0.3-.25.93-0.49,1.39-0.81,1.24-.72,1.23-1.22.79-2.93-0.33-1.27-1.18-5.14-1.18-5.54,0-.74.17-0.66,1.1,0,1.29,1,2,.89.46-0.34A6.14,6.14,0,0,1,121,43.7c-0.25-.36-0.09-0.6.41-0.44a7.31,7.31,0,0,0,6.56-.7c0.26,6.22-.6,15.65-5.79,22.39-4,4.49-11.61,1.09-14.43-.33h0Zm6.1-14.29a3.12,3.12,0,0,0-1.05.32c-1.53.88-1.16,4,.5,4.41a3.07,3.07,0,0,0,2.41-.28,3.79,3.79,0,0,1,1.88-.46c0.55,0.23.73-.26,0.85-0.81,0.26-1.24-1.76-1.27-3.37,0-2,1.62-3.59-.77-1.68-2.56,0.64-.41.62-0.63,0.47-0.62h0ZM98.08,57l1.71,2,1.07,4.72a2.94,2.94,0,0,1-1.44-.25A58.32,58.32,0,0,1,98.08,57Zm23.27,1.19-0.06,0a2.82,2.82,0,0,1-.83.22c-0.25,0-.64-0.15-0.91-0.14a6,6,0,0,0-1.63.34,0.71,0.71,0,0,1-.65,0,4,4,0,0,0-2.68.05,2.08,2.08,0,0,1-1.72,0c-0.21-.11-0.42-0.38-0.46-0.34a14.4,14.4,0,0,0-.48,1.93,1.43,1.43,0,0,0-.05.52,3.68,3.68,0,0,0,.78-0.43c0.78-.4,1.64-0.37,3.17,0,1.88,0.46,2.61.33,3.72-.24a2.62,2.62,0,0,1,2-.4,2.14,2.14,0,0,0,.58.19,2.82,2.82,0,0,0-.42-1.21c-0.18-.4-0.24-0.56-0.36-0.54h0Zm-20.29,2.13a17.93,17.93,0,0,0,2.57,2.21l-0.05,1.51a8.18,8.18,0,0,1-1.9-.17c-0.2-.59-1.06-3.54-0.62-3.56h0Zm13.59,1a2.06,2.06,0,0,0,.5.23c2.63,1-.12.74-0.38,1.68,0,0.08.12,0.1,0.25,0a10.29,10.29,0,0,1,4.11-.39c1.3,0.44,1.38.14,0.13-.52-0.92-.36.19-0.61,0.57-0.92,0.78-.5.24-0.71-0.75-0.23a4.71,4.71,0,0,1-3.55,0,3.37,3.37,0,0,0-.87-0.36c-0.34,0-.16.34,0,0.45h0ZM104.29,63l1.54,1.21-1.57-.15ZM69.44,93.37a0.57,0.57,0,1,0,.56.57A0.57,0.57,0,0,0,69.44,93.37Zm2.05,0.57L64.43,97.3l1.87,0.63,0,1.94L68,99.31l0.73,1.81Zm0.31,1.58a0.57,0.57,0,1,0,.56.57A0.57,0.57,0,0,0,71.8,95.52ZM62.86,99a0.56,0.56,0,1,0,.56.56A0.56,0.56,0,0,0,62.86,99ZM65,100l-7.92,3.65,2.35,0.72-0.62,2.43,1.91-.81,1.07,1.63Zm0.23,1.74a0.57,0.57,0,1,0,.56.57A0.57,0.57,0,0,0,65.26,101.75Zm-15.72.36c3,0,6.32,1.13,7.46,3.69,0.3,1.28-.95,2-3.63,1.3-4.42-1.22-5.25-1.35-4.51-.6a2,2,0,0,0,1,.57,23.12,23.12,0,0,0,5.76,1.14c1.19-.16,2,0.4,1.71,1.39s-1.88,1.59-4.2,1.26a32.38,32.38,0,0,1-4.53-.86c-1-.31-1.06-0.28-0.58.44a1.16,1.16,0,0,0,.65.75,31.79,31.79,0,0,1,4.73.35c2.62,0.23,3,1,1.1,2.12-0.91.54-3.63,0.39-5.18-.17-1.11-.4-3.64-1-2.66-0.2a1.9,1.9,0,0,0,.56.79c1.34,0.19,5.13.45,5.73,1,0.38,0.35-.48,1.23-2.25,1.69-2.67.51-6.65,0.3-7.7-.43-1.95-4-.9-10.5,2.15-13a7.48,7.48,0,0,1,4.42-1.18h0ZM67,104.19a0.56,0.56,0,1,0,.56.57A0.56,0.56,0,0,0,67,104.19Zm2.35,0.6-8.18,4.09,2.07,0.62-0.49,2.39,1.92-.79,1.16,1.61Zm0.06,2a0.57,0.57,0,1,0,.56.57A0.57,0.57,0,0,0,69.42,106.79Zm4.76,4.82c-3.63,3.54-7.72,6.35-11.45,9.79l0.81,0,2-1.84,57.31-.18-1.34,2,0.56,0.24a20.15,20.15,0,0,0,1.6-2.67c-12.59,0-22.31,0-36.12.1-2.52-2.5-5.18-4.84-7.81-7.22Zm-17.42,2.27a0.57,0.57,0,1,0,.56.57A0.57,0.57,0,0,0,56.76,113.88Zm74.82,0.43c5,3.69,10.82,8.21,15.68,10.89,1.95,0.85,1.76,1.14-.22,2.08-1.95,1.21-5.19,2.78-7.89,4.14-1.17.44-1.68-.13-2.51,0a1.59,1.59,0,0,0-1.13.74c-0.59.78-.43,0.75-3.56,0.61s-4.46-.07-5.14.28A4.09,4.09,0,0,0,125,135a1.38,1.38,0,0,1-1,1.24,1.88,1.88,0,0,0-1.6,1.72,3.06,3.06,0,0,1-1,1.4,2.11,2.11,0,0,0-.55,2.47,1.91,1.91,0,0,1,.21,1.41c-0.21,2.57-.39,2.35,2.35,4.25l-14,12.23a0.46,0.46,0,0,1-.71,0,11.12,11.12,0,0,1-3.58-5.47c-2.36-6.53.52-11.9,4.36-15.18,1.33-1.14,3.11-2.49,3.61-2.84,7.22-6.18,13.51-14.93,18.46-22h0Zm-72.73.48-8,3.79L53.43,119l-0.49,2.23,1.87-.71,1,1.88Zm0.49,1.77a0.56,0.56,0,1,0,0,1.13A0.56,0.56,0,0,0,59.34,116.56ZM132.63,119l-0.91-2.15s-2.53,6.24-3.06,8.36c2.14-1.11,8.41-4.31,8.41-4.31l-2.68-.5,0.3-2.44Zm-91.37.39a0.57,0.57,0,1,0,.56.57A0.57,0.57,0,0,0,41.26,119.43Zm2.45,0.52s-6,2.8-8.64,4l2.51,0.53-0.44,2.45,2.26-.89,0.91,2.42ZM44,121.8a0.56,0.56,0,1,0,.56.57A0.57,0.57,0,0,0,44,121.8Zm84.23,0.41a0.56,0.56,0,1,0,.56.56A0.56,0.56,0,0,0,128.26,122.2Zm9.73,0.51-2.83,7.9,7.66-3.87-2.08-.57v-2l-1.71.5Zm-90.54,1.9a0.57,0.57,0,1,0,.56.57A0.57,0.57,0,0,0,47.45,124.61Zm83.8,0.14a0.56,0.56,0,1,0,.56.57A0.56,0.56,0,0,0,131.24,124.76Zm-81.45.58-8.12,4,2.52,0.59-0.28,2.54,2-1.17,1.11,2.32ZM50.3,127a0.54,0.54,0,0,0-.53.57,0.56,0.56,0,0,0,1.12,0A0.59,0.59,0,0,0,50.3,127Zm84.42,0.5a0.56,0.56,0,1,0,.56.57A0.57,0.57,0,0,0,134.72,127.51Zm-11.19,2.6L122.78,128l-3,7.8,8.08-3.71-2.56-.6,0-2Zm-8.21-1.68c-0.09,0-.17,0-0.17.08a24.67,24.67,0,0,1-2.06,2.2l-23.84.22s2,0.54,2,.54c3.13,2.51,8,7,8,7l5.92-.24c3.28-3.23,8.2-5.68,10.4-9.67a0.41,0.41,0,0,0-.25-0.09h0ZM137.68,130a0.56,0.56,0,1,0,0,1.13A0.56,0.56,0,0,0,137.68,130Zm-18.4,2.72a0.56,0.56,0,0,0,0,1.13A0.56,0.56,0,1,0,119.27,132.76Zm12.1,0.82c1.71,0,3.35.05,3.78,0.38,2.64,2.23,1.39,12.66-1.94,14-3.65.82-6.18,1-9.35-1.12-0.9-.44-2.68-1.77-2.34-2.87,0.47-1.35,1.78-1.25,5.53-.08,1.37,0.43,2.12.34,2.47,0.07s-0.1-.53-0.8-0.53a16.33,16.33,0,0,1-2.5-.61,9.9,9.9,0,0,0-2.76-.62c-1.55-.09-2-0.15-2-1.1,0-1.78,2.46-2,7-1a11.94,11.94,0,0,0,1.77.26,6.05,6.05,0,0,0-.43-1,2.09,2.09,0,0,0-1.23-.23c-2.91-.29-5.33-0.48-5.39-0.87-0.26-1.88,3.51-2.39,7.42-.88,1,0.39,1,.23,1-0.07,0-.54-1.69-1.49-4.17-1.46s-2.07-1.2-.09-2.13c0.68-.32,2.32-0.15,4-0.16h0Zm-9.32,2a0.57,0.57,0,1,0,.56.57A0.56,0.56,0,0,0,122.05,135.59Zm-8.69,3.9-0.51-2.11-3.28,8.2,8.28-4.23-2.73-.51,0.24-1.72Zm-4.22,3.29a0.57,0.57,0,1,0,.56.57A0.57,0.57,0,0,0,109.15,142.79Zm8.25,2.33-0.7-2-2.79,7.14,7.07-3.17-2.09-.57,0.3-2.16Zm-5.63,0a0.57,0.57,0,1,0,.56.57A0.57,0.57,0,0,0,111.77,145.13Zm1.81,2.73a0.56,0.56,0,1,0,.56.56A0.56,0.56,0,0,0,113.58,147.86ZM110,149.53l-2.39,6.76,6.64-3.23-1.94-.64a3.8,3.8,0,0,0-.08-1.45c-0.12,0-1.37.39-1.37,0.39Zm5.91,0.81a0.56,0.56,0,1,0,.56.56A0.56,0.56,0,0,0,115.94,150.34Zm-8.81,3.25a0.57,0.57,0,1,0,.56.57A0.57,0.57,0,0,0,107.14,153.59Zm2.54,2.61a0.56,0.56,0,1,0,.56.56A0.56,0.56,0,0,0,109.68,156.2Zm-35,31.13a2.27,2.27,0,0,1-1.25-1,1.37,1.37,0,0,1,1.17.18C74.77,186.69,74.92,187.2,74.64,187.33Zm2.4-.49c-0.11.83,0.4,2.32,0.31,2.67-0.26.13-1.58-1.29-1.91-1.64a6.2,6.2,0,0,1,0-1.34,2,2,0,0,1,1.57.31h0Zm2.38,0.41c0.28,1.83,1.08,4.77,1,5.76a15.62,15.62,0,0,1-1.89-2.17,14.51,14.51,0,0,1-.64-3.93A2.15,2.15,0,0,1,79.43,187.25ZM63.49,187a6.11,6.11,0,0,1-2.9.71c-0.93,0-2.53-.49-2.37-0.37,0.42,0.76,1.53.36,1.55,0.86-0.28.49-1,.44-1.38,0.91-0.08.12,0.11,0.23,0.63,0.18a7.78,7.78,0,0,1,5.5-.08c0.4,0.08.14-.3,0-0.4a2.33,2.33,0,0,0-1-.41c-1.64-.29-0.92-0.46.18-1,0.81-.3,1-1-0.23-0.45h0ZM67,189.37a9.71,9.71,0,0,0-1.36.54,4.77,4.77,0,0,1-3.31-.07,3,3,0,0,0-2.79.36,2.23,2.23,0,0,1-2.25.29c-0.8-.46-0.8-0.3-0.4.83,0.1,0.28-.1,1.14.25,1.33s0.57-.35.78-0.42,1.49,0.51,2.21-.13c1.28-.47,1.67.29,2.56,0.22,1.44-.51,2.34-1,3.58-0.06,0.07-.37.36-2.38,0.82-2.86a0.09,0.09,0,0,0-.1,0h0Zm-2.63,5.8c-1,0-1.6.65-2.94,0.53a1,1,0,0,0-1,1.57c0.32,0.49.75,0.58,2.2-.09a5.78,5.78,0,0,1,1.92-.83c1.43,0.14,1.77,1.52.58,2.69-0.58.34-.58,0.71-0.41,0.72a2.1,2.1,0,0,0,1.63-1.2c0.59-1.79-.47-3.42-2-3.38h0Zm4.66,8.27a8.2,8.2,0,0,0-4,2.85c-0.62,1-1.21,2.09-.78,2.64a5.72,5.72,0,0,1,.89,1.13,1.34,1.34,0,0,1-.52.73c-1.19,1.33-.9,1.4.76,0.54a2.35,2.35,0,0,1,1.78-.47,9,9,0,0,0,5-.38,2.48,2.48,0,0,1,1.26-.38A6.77,6.77,0,0,1,66.8,212c-0.19-.05-0.34,0-0.34,0a1.71,1.71,0,0,0,1,.72c1.14,0.51,3.87,0,5.58-1.28,3.38-2.22,5.24-4.34,2.58-3.45-1.22.41-1.68,0.34-3.16-.34-2.22-1-3.93-1.3-5.77-.66-2.33.82-.54-1.11,2.08-2.79,0.57-.36.64-0.78,0.31-0.77h0ZM56.49,209.2H55.71c-0.56-1.88-1.9-1.88-2.48,0l-0.65,0c0.64-2.34,3-2.83,3.91,0h0Zm13.84,0.16-0.58,0c-0.35-1.14-1.6-2.14-2.48-.27L66.85,209c0.72-3,3.59-1.32,3.47.33h0Zm-3.9-1.71c0.36,0,.46.41,0,1.09a0.55,0.55,0,0,1-1,.07c-0.31-.31-0.29-0.37,0-0.68A1.52,1.52,0,0,1,66.43,207.65Zm4.31,0a3.59,3.59,0,0,1,.8.24c0.89,0.3,1.09.55,0.72,0.91a1.25,1.25,0,0,1-1.35.26c0-.45-0.46-0.79-0.47-1.24C70.44,207.71,70.58,207.66,70.74,207.66Zm-13.9,0c0.62,0,1.44.34,1.38,0.69a1.27,1.27,0,0,1-1.17.69c-0.33,0-.32-0.09-0.41-0.33s-0.18-.48-0.24-0.7c-0.14-.41.12-0.34,0.44-0.35h0Zm-4.21.14s-0.34,1-.5,1.38c-1.29-.07-1.17-0.64-0.56-1A2.2,2.2,0,0,1,52.63,207.81Zm-1,2.44a5.26,5.26,0,0,1,.93.34,9.67,9.67,0,0,0,4.51,0,3,3,0,0,1,1.2-.27c0.28,0.2,0,.9-1,1.35a6.49,6.49,0,0,1-4.9,0c-1.31-.67-1.46-1.39-0.71-1.38h0Zm-0.35,1.47a5.66,5.66,0,0,0,3.9.91c2.23-.08,2.63-0.36.75,0.64S51.51,214,51,213A0.89,0.89,0,0,1,51.28,211.72Zm10.82,1.34h0c0.18,1.21,2.2,2.31,3.17,2.58,2.06,0.92,5.34,0,7.8-1.06,1.8-.78,2.45-2,0.31-1.29-3.45,1.08-7.78,1.16-10,.32a7,7,0,0,0-1.31-.56h0Zm-11.36,4.53c4.32,1,9.54,7.66,9.52,10.58H58.87a14.14,14.14,0,0,0-8.18-9.48c-0.25-.91.06-1.12,0.05-1.1h0Zm-0.07,1.88a13.62,13.62,0,0,1,7.73,8.7H56.9A11.6,11.6,0,0,0,50.67,221a3.44,3.44,0,0,1,0-1.52h0Zm0,2.28c2.63,0.78,4.95,4.25,5.61,6.42H55a7.86,7.86,0,0,0-4.34-4.87,4,4,0,0,1,.05-1.55h0Zm0,2.36a5.83,5.83,0,0,1,3.63,4.06H53a6.86,6.86,0,0,0-2.41-2.91C50.64,225,50.63,224.11,50.63,224.11Zm0.13,2c0.13-.08,2,1.58,1.67,2H50.76c0-.52,0-2.05,0-2h0Z" transform="translate(0.1 0.1)"/><path id="path4071-9-6-8" class="cls-4" d="M97.78,21.15c-3.13,6.08-19.19,33.47-19.35,34.42l4.11,1.82,20-36.1S98.37,21.15,97.78,21.15ZM145,44.07l-1.74,2.48,1.41,2.84,1.71-2.7ZM71.57,71.49s-5.76,5.74-8,8.42c4.84,4.84,14.08,10.92,14.15,20.27l6.37,0,20.63,18.51s18.69,0.14,19,.06,7-9.62,7-9.62l11.84,8.66s-0.57-9.33-1-15c-0.15-3.82-.27-6.17,2.51-7.86-3.83-1.83-3.58-5.19-.77-7.66-0.93-1.29-2.32-1.53-2.52-6.09a11.74,11.74,0,0,0-1.87-1.53l-0.76.69c-2.46,2.21-4.13,4.47-4.41,5.94-0.52,2.8,2.31,4.71,3.94,2.67,0.46-.58.87-0.41,0.87,0.34,0,1.52-1.91,2.39-3.53,1.59a2.11,2.11,0,0,0-.75-0.28c-0.06.06,1.61,4.15,2.05,5a11,11,0,0,1,1.2,4.58c0.06,1.68,0,1.9-.76,4.81-0.74,2.74-.39,4.37.93,4.37,0.74,0,.72.72,0,1-1.6.56-2.59-.62-2.65-3.15,0-1.53-.06-1.57-0.85-1.2-2.73,1.29-5.7-1-4.41-3.42,0.27-.51.59-0.35,0.76,0.38a2.13,2.13,0,0,0,2.3,1.95c2.95,0,4.18-4.19,2.48-8.4-0.34-.84-0.51-0.8-1,0.27-0.7,1.68-1.88,2.17-2.85,1.19-0.33-.33-0.48-0.86-0.26-0.88l0.72,0c1.72-.06,2.31-1.73,1.51-4.24a23,23,0,0,1-1-3.81,7.31,7.31,0,0,1,.81-5.05,22.29,22.29,0,0,1,2.42-2.72c1.28-1.3,2.38-2.29,2.38-2.29-1.22-1-2.32-1.83-3.7-2.85,0,0-8.78,24.18-8.16,33.61-1.11,12.41-10.21,9-10.88.38Zm-0.39,3.63c3-.05,5,3.93,6.11,12.19,0.37,2.74,2,6.57,3.24,7.48,3,2.29,7.81.52,7.81-2.89,0-4.25-5.94-4.88-6-.64,0,1-.53,1.05-1,0.1a3.17,3.17,0,0,1,.81-3.23c0.55-.51.5-0.61-0.54-1.19-3.62-2-5.16-5-3.22-6.26,0.85-.56,2,0.15,1.47.89C79,82.74,79,82.92,79.65,83.89s1.72,1.65,3.94,2.31a18.15,18.15,0,0,1,3,1,4.85,4.85,0,0,1,2.78,6.14l-0.45,1.27c-0.09.27,0.06,0.27,1.83,0,2.82-.38,5.94.63,7.48,2.41a8.76,8.76,0,0,1,1.51,4.9,12,12,0,0,0,.24,1.74c0.13,0.61.3,1.64,0.38,2.29,0.74,6.14,5.84,9.29,8,5,1.39-2.73-1.82-5.45-3.45-2.94-0.57.88-1.16,0.48-.83-0.57,0.64-2,3.18-2.39,4.92-.67a4.89,4.89,0,0,1,.93,4.38c-0.24.7-.21,0.75,0.31,0.57a4.45,4.45,0,0,1,3.9.76c1.7,1.82,1.36,4-.73,4.73a1.78,1.78,0,0,1-2.38-1.13c-0.15-.8.39-1,0.81-0.34,0.79,1.28,2.52.25,2.11-1.27-0.46-1.72-1.93-2.09-4.65-1.15-4.31,1.49-5.71,1.36-7.77-.69-1.47-1.47-2-2.74-2.43-5.54-0.44-3.09-.48-3.17-1.24-2.52-3.65,3.11-8.47-1.59-5.38-4.69,1-1,1.66-.12.8,0.95-1.26,1.57.38,3.75,2.43,3.24,3.74-.92,3-6.41-1.07-7.69-1.23-.39-4.62-0.23-7.22.34-7.27,1.6-10.48-1.51-12-11.6a36.24,36.24,0,0,0-1.07-4.59c-0.82-3-3.6-4.64-5.12-3-1.21,1.31-.57,3.06,1.11,3.07s1.17,1.16-.59,1.32c-3,.27-3.57-4.81-0.65-6.26a4.69,4.69,0,0,1,2-.55h0ZM31.42,76.95l1,3.67,3.76,1.07L35,78.24Zm9.69,1.13-1,3.27,2.8-1,1-3.13ZM72,83.43A1.08,1.08,0,1,1,71,84.51,1.08,1.08,0,0,1,72,83.43ZM36.1,85.33l-3.27,1.09L32.26,89l3-.68Zm6.82,1.17-2.35-.72,0.56,2.68,2.56,1.05ZM148,86l-1.56,1.22c4.54,4-.36,7.77-0.51,7.51,3.28,2.18,2.7,5.62,2.27,8.76-0.78,5.61-1.08,10.92-1.93,16.68a45,45,0,0,0,6.58,3.8s0-33.76,0-33.76ZM92,91.08a1.08,1.08,0,1,1-1.08,1.08A1.08,1.08,0,0,1,92,91.08ZM25.6,93.86l0.14,31.5,6.5-11.66-4.47-5.18,3.87-4.14A113,113,0,0,1,25.6,93.86Zm63.31,4.8a1.08,1.08,0,1,1-1.08,1.08A1.08,1.08,0,0,1,88.91,98.66Zm14.76,3.22a1.08,1.08,0,1,1-1.08,1.08A1.08,1.08,0,0,1,103.67,101.88ZM145.95,137l4.78,4.92-3.78,4.66,5.92,10-0.09-30.93ZM25.54,126.63l0.23,33.88,5.11,3.74,1.3-1.23c-3.3-3.53-1.33-6.16,1.16-7.68-4.38-1-3.05-6.85-2.79-9.56-0.11-5,1.73-10.74,1.16-15.56ZM55,131.34l-7.32,10.23s-8-6.11-12.1-8.87c0.43,4.41.83,10,1.37,14.79,1.32,6.93-2.11,7.05-2.14,7.72,5.44,4.14.87,8,.06,7.82,2.9,1.58,2.66,6.39,2.66,6.39l1.37,0.78,0.64-.38a12.15,12.15,0,0,0,4.41-5.49c0.93-3.16-1.81-5.79-3.53-3.39-0.85,1.18-1.52.39-.83-1a2.67,2.67,0,0,1,3.38-1.27c0.64,0.34.5-.55-0.49-3a28.44,28.44,0,0,1-1.07-3.59,10.76,10.76,0,0,1,.51-6.14c1.13-3.16.73-5.15-1.08-5.32-1-.09-1.07-0.39-0.28-0.84,1.75-1,3.45.42,3.38,2.82,0,1.3,0,1.32.66,1,3.46-1.39,6.19,2.21,3.77,5-0.74.84-1.2,0.31-.72-0.83,0.75-1.75,0-3-1.72-3-2.55,0-4,3.52-3,7.4,0.31,1.21.36,1.23,1.21,0.42a1.92,1.92,0,0,1,1.9-.77c1.21,0.36,1.52,1.65.37,1.49-2-.27-2.51,1.82-1.39,5.53,1.49,4.93,0,8.95-4.43,11.81-0.22.14-.58,0.42-0.58,0.42a29.66,29.66,0,0,0,5,3.76l8-32.57a26.11,26.11,0,0,0-.33-2.72c0-8.74,8.12-9.58,10.67-1.64A19.06,19.06,0,0,0,65,140.63l42.33,37.68s7.9-7.66,7.79-7.86c-6-6.07-14.11-10.36-14.41-20-1.44,0-6.25,0-6.25,0L73.85,131.56c-6.46,0-12.19-.42-18.89-0.22h0ZM66.49,132c1.13,0,2.27.55,2.27,1.5s-0.54,1-1,.34a1.19,1.19,0,0,0-2.11-.21c-2.07,2.18,1.14,4.17,4.84,3,2.26-.72,3.35-0.91,4.18-0.74,3.49,0.7,5.17,3.06,5.47,7.66,0.15,2.34.15,2.33,1.15,1.4a3.84,3.84,0,0,1,6.55,2.32,3.11,3.11,0,0,1-2.75,3.22c-0.57,0-.48-0.6.14-0.89a2.34,2.34,0,0,0,.1-4c-1.91-1.21-4.42.68-4.39,3.3q0.06,4.73,7,4.34l3.79-.18c2.22-.09,4.6-0.51,6.86,1.2,2.37,1.89,3.94,5.64,4.61,11.06,1.06,6.67,1.88,8.46,4.11,8.62a2.35,2.35,0,0,0,2.45-2.35,1.74,1.74,0,0,0-2.15-1.44c-1.12.37-1.35-.85-0.24-1.31,1.53-.64,3.4.59,3.81,2.52,0.24,1.12-1,3.28-2.35,3.82-3.46,1.4-5.92-1.46-6.73-7.88a38.69,38.69,0,0,0-1.68-7.44c-1.68-4.63-4.44-6.54-7.44-5.15-3.4,1.57-2.73,6.67.88,6.64,2,0.16,2.39-1.3,2.43-2.86,0-1.15,1.35-.07,1.46.72A3.56,3.56,0,0,1,96.27,162c-1.23.82-.79,0.77,0.46,1.1,3.37,0.62,5.88,5.1,3.86,6.62-1,.64-2.16-0.3-1.43-1.23,1.15-1.47-.8-3.8-4.36-4.58-4.66-1-6.51-4.5-4.83-8.08,0.56-1.18.6-1.16-1.67-1-5,.28-6.78-0.41-8.45-3.32-0.51-.88-0.73-2.05-0.84-4.38-0.19-4.17-.57-6.76-1.1-7.48-2.6-3.6-8-2.52-7.32,1.46a2.24,2.24,0,0,0,4,1.24c1.11-1.15,1.63-.08.54,1.12-2.61,2.9-7.15-.49-5.8-4.32,0.31-.88.35-0.85-1.32-0.9-3.73-.11-5.5-3.31-3.1-5.58a2.42,2.42,0,0,1,1.6-.61h0Zm9,13.73a1.08,1.08,0,1,1-1.08,1.08A1.08,1.08,0,0,1,75.48,145.78Zm15,3.85a1.08,1.08,0,1,1-1.08,1.08A1.08,1.08,0,0,1,90.46,149.63Zm-3.22,7.08a1.08,1.08,0,1,1-1.08,1.08A1.08,1.08,0,0,1,87.24,156.71Zm47.61,4.22,0.69,3.21,2.48,0.66L137.63,162Zm8.68,1.11-0.05,1.9,2.21,0.26,0.78-3.28Zm-37.06,2.87a1.08,1.08,0,1,1-1.08,1.08A1.08,1.08,0,0,1,106.47,164.91Zm31.7,4.42-2.6.72-1.25,3.61,3.32-1.21Zm5.08,0.33,0.32,2.68,3.2,1.45L145.68,170ZM96.12,192.48l-19.85,36,5.42-.08,18.73-33.94ZM33.7,201.2l-1.75,2.37,1.66,2.75,1.91-2.76Z" transform="translate(0.1 0.1)"/><path id="path4069-2-6-0" d="M67.42,20.25c3.65,11.11,4,22.07.82,32.59a44,44,0,0,1,14,4.81c-0.8,2.07-13.11,17.25-21.46,24.09,2.37,2.36,5,4.72,7.73,7.31,4.15,4,5.62,6.67,5.89,11.8a14.3,14.3,0,0,1-2.49,7.7,17.39,17.39,0,0,1-5,4.57c-2.34,1.55-5.75,4.89-10,9.81-1.64,1.88-4.4,5.29-6.68,8.55-0.87,1.18-3.41,4.88-3.41,4.88A125.41,125.41,0,0,0,29,124.09s9.18-4.91,11.11-5.91c1.48,1,3.5.14,2.53-2a14.46,14.46,0,0,1,1.72-13.14c0.55-.83,1.86-1.31,4-1.46,0.92-.06,1.9,0,2.88,0a4.88,4.88,0,0,1,1.83.42c1.74,1,2.08-.27,3.17-4.39s-0.66-9.28-3.13-9.29c-0.58,0-.91.21-0.79,1.67a4.4,4.4,0,0,1-.46,2.36,17,17,0,0,0-1.14,5c0.36,0.07-2.3-2.65-6.48-3.73-2.72-.32-4.1-3.72-4-3.73A5.68,5.68,0,0,1,41,88.57,19.11,19.11,0,0,0,44,89.87s-0.25-1.36-.35-1.73c-0.51-1.9-.48-2.19.25-2.58,1.81-1,2-2.72.59-4.31a3,3,0,0,0-1.14-.87l0.89-3.56s-0.82.18-1.47,0.38c-1.89.58-1.75,0.6-2.56-.33-1.75-2-4.43-1.62-4.84.69,0,0.26-.16.66-0.16,0.66l-4-2a42.61,42.61,0,0,0,1.17,4.16c-3.53,2.75-.55,5.19.42,5.44,0,0-.82,2.63-1.11,3.73l4-1.14a3.89,3.89,0,0,0,1.57,1.87c0.22,2.25,1.94,4.06,3.13,5.15a4.32,4.32,0,0,1,.07,1.35c-0.26,1.31,1.07,3.37,1.29,3.5C36.2,98.06,30.5,95.37,25,92.73l0.34,67.79s1.28,1.15,3.82,3c1.22,0.88,1.22.88,1,1.89-0.33,1.33-.25,2.35.88,11.12,0.6,4.64,1.25,9.45,1.84,13.76a25.08,25.08,0,0,1,.26,2.58c-1.21-.56-3-0.62-3.89.41a2.78,2.78,0,0,0,2,4.64,2.44,2.44,0,0,0,1.35-.5,0.78,0.78,0,0,1,.64,0l-3.48,6.14,4,6.77,4-7.24-2.91-5.73a1.32,1.32,0,0,1,.68.17,3.69,3.69,0,0,0,1.28.37c2,0,2.45-.91,2.66-2.58,0-2.15-1.71-3.12-4.06-2.31a3.72,3.72,0,0,1-.78.16l2.46-23.64,1.32,1,0.43-.24-1.15-1c0.25-3.79-1-5.13-2.34-6,4.5-2.57,2.55-6.63-.44-7.88,0,0,1.94-1.14,2.33-2.33s0.21-2.76-.17-5.77C36.8,142.55,35.81,133,35.81,133c3.93,3,8,6.16,11.76,9.16l7.61-10.61,18.34,0.13s13.94,12.69,21,19.16l6.06,0.05s0.07,0.65.13,1.08c0.57,6.27,4.77,10.57,8.58,13.59,1.56,1.4,5.4,5.08,5.4,5.08l-7.13,7.21L63.88,138.74s-0.21-.57-0.29-0.92c-1-4.14-3.74-5.87-6.23-5.58s-4.84,2.88-4.72,7.27a14.48,14.48,0,0,0,.26,1.87l-8,33.3s-3.19-2.44-4.91-3.61l-0.38.22,4.67,3.52,0.35-.15,1.32,1,0.1,0.71c4.08,2.79,11,8,11,8,3.27-2.44,6.7-1.62,10.14-.71a16.75,16.75,0,0,0,3.83.83,58,58,0,0,1,19,3.75L67.17,229l43.62,0.09c-2.15-8.52-4.43-17.18-.35-31.72-4.3-.87-13.87-4.71-13.87-4.71a1.07,1.07,0,0,1,.36-0.72c1.77-2.54,6.24-9.41,10.43-13.39,0.51-.37,7.82-7.48,7.89-7.7a1.68,1.68,0,0,1,.5-0.79c0.67-.45,2.46-2.15,2.46-2.15l-9.14-8a2.13,2.13,0,0,1-.53-0.11c-1.28-.72-3.58-4.71-4.15-7.38-1.31-6.15,1.1-11,7.91-16,6.64-4.56,19.23-22.26,19.27-22.65,6.79,5.64,12.09,8.56,18.06,12.25-3.61,2.08-6.55,3.46-9.07,4.84-1.64.94-1.86,1.13-3.25,0.74-1.57,0-2.1.62-1.71,2,2.37,3.76,1.35,12.52-1.86,14.21a9.16,9.16,0,0,1-7.73.24c-1.73-.56-1.71-0.56-2.48,1a11.15,11.15,0,0,0-.24,10.14c1.28,2.79,3.19,4.06,3.43.3,0.14-2.21,1.11-4.79,1.08-7.16a11.29,11.29,0,0,0,6.43,4c2.14,0.33,4.42,3,4.35,4.13a13.2,13.2,0,0,0-.86,1.3c-1-.34-3.3-1.31-3.3-1.31l1,3.41a2.83,2.83,0,0,1-.62.39,2.9,2.9,0,0,0,.24,5.21c0.45,0.24.49,0.35,0.29,1-0.28,1.4-.89,2.34-1.22,3.72a13.52,13.52,0,0,0,2.85-1.17l1-.46,0.6,0.65a2.69,2.69,0,0,0,4.29,0l0.63-.65,1.77,0.9c1.67,0.85,2.1,1,2.1,1s-1-3.74-1.14-4.17a1,1,0,0,0-.44-0.52c-0.24-.09-0.2-0.14.43-0.65,1.6-1.27,1.76-3,.4-4.37a5.59,5.59,0,0,1-.59-0.62l0.83-3.47-3.44,1.14a3.81,3.81,0,0,0-2-1.92c-0.06-1.56-.25-3.17-2.93-5.62,0.9-.83-0.17-2.82-1.06-4,1.51,0.51,5.28,2.11,5.28,2.11l0.57,0,1.8,0.87,0.21,0.32s5.66,2.68,8.26,3.94c0-.14,0-2.95,0-33.84,0-18.42,0-33.57,0-33.66a10.45,10.45,0,0,0-1.31-1.07c-1.19-.9-1.44-1.08-3-2.09C148,86,148.13,86,148.38,85.06s0.28-2.56-.1-5.33c-0.28-2-1.31-9.24-2-15-0.5-4.07-.62-5-0.75-5.63a9.56,9.56,0,0,1,0-2.39c5.69,2.47,6.14-5.72.43-4.62,1.09-2.21,2-3.23,2.94-5.59-1.19-2.57-3.82-6.91-3.82-6.91l-4.17,7.28,2.45,5c-2.82-.51-4.32,1.55-3.8,3.4A2.42,2.42,0,0,0,143,56.69c1.06-.42,1.06-0.53.12,7.46-0.28,2.36-1.51,13.4-1.68,15-0.11,1.1-.19,1.41-0.63,1.17a10.25,10.25,0,0,1-1.56-1l-0.34.32c0.54,0.44,1.18,1,1.84,1.61-0.15,2.92-.09,4.62,2.34,6-4.4,2.76-1.83,7,.76,7.63-1.54.4-3.06,2.39-2.69,6.33l1.25,16.27-11.92-8.88-7,10-18.44,0L84.27,99.88s-4.56-.06-6.43-0.11c0.21-.1-0.39-5.82-3.4-9.55-3.27-3.9-10.72-10.34-10.71-10.34l7.82-8,43.91,39.64s0.21,1.12.32,1.6c1.47,6.26,8.57,6.64,10.08.26a17.16,17.16,0,0,0,.43-3.71,15.39,15.39,0,0,1,.49-2.32c2.36-9.29,4.37-17.3,6.69-26.21,0.32-1.23.66-2.59,0.75-3,0.38-1.81.33-1.8,2.21-.37,1.16,0.87,1.63,1.19,1.63,1.19l0.37-.38c-1.3-1-3.51-2.61-3.51-2.61l0-.68c-7.13-5.12-8.6-6.48-12.82-9.84-3.27,2.89-7.95,1.72-10.88.7-0.76-.3-2.61-0.78-2.61-0.78A62,62,0,0,1,88.86,62l23.36-41.72h-9l-0.32.35H98.19l0-.35H67.42Zm86.14,137.21h0ZM94,21.19l3.19,0.06L78.34,55.08l-2-.79s0.18-.1.18-1.52a4.28,4.28,0,0,0-1-3.09c-0.58-.78-0.82-0.83.87-0.59a4.45,4.45,0,0,0,4.53-6.22c-0.53-1.13-.45-1.2.94-1.34a4.51,4.51,0,0,0,2.62-7.71c-0.56-.51-0.31-0.84.74-0.61,3.33,0.72,5.9-3,4.58-5.88-0.43-.81,0-0.94.56-1A4.67,4.67,0,0,0,94,21.19h0Zm-25.47,0h14.8c-2,3.05,1.52,4.86,2,4.65-3.19,1.75-2.31,4.21-.66,5.06s4,0.08,3.37-3.47l0.79-.34c0.77,0.87,1.53,6.28-4.34,5.53-1-.13-1.61.84-0.74,1.39,4.64,5.35-2.62,7.71-2.94,6.83l0-.91c2,0.36,4.48-2.18,2.27-4.43-1.25-1.28-4.89-.66-4.26,3.24-2.15-3.22-4.49-2.25-5.12-.55A2.55,2.55,0,0,0,76,41.61c-2.39,2-1.23,4.25.41,4.75,1.81,0.55,3.67-.2,3.17-3.5,0-.31.66-0.21,0.71-0.23,1.88,4.69-2.61,6.42-5,5.45-0.9-.35-1.37,1-0.41,1.74,1.45,1.07,1,4.16.83,4.19a42.14,42.14,0,0,0-6.4-1.72,58.2,58.2,0,0,0-.68-31.09h0Zm23.59,0H93.5a4.26,4.26,0,0,1-4.08,4.64,5.66,5.66,0,0,0-.15-1.55c1.22-.28,2.85.06,2.9-3.1h0ZM98,21.3l4.27,0L82.19,57.07,79,55.41ZM87.47,24a1.37,1.37,0,1,1-1.36,1.37A1.37,1.37,0,0,1,87.47,24ZM78.91,39.6a1.27,1.27,0,1,1-1.26,1.27A1.26,1.26,0,0,1,78.91,39.6Zm66.1,1,3.4,5.93-3.88,6.89-3.24-6.6Zm-0.06,2-2.39,4,2.17,4.06,2.47-3.85Zm0,1.7,1.24,2.39-1.5,2.43-1.25-2.57Zm-3.29,8a2.12,2.12,0,0,1,.81.17c2.29,1,1.56,4.45-.88,4.23a2.56,2.56,0,0,1-1.05-.41C138.88,55,139.9,52.37,141.7,52.37Zm5.6,0.07a2.23,2.23,0,0,1,1.1,4.14,2.44,2.44,0,0,1-3.14-.79,2.36,2.36,0,0,1,.86-3.06A2.47,2.47,0,0,1,147.3,52.44Zm-2.78,4c0.2,0,.42,1,0.62,2.68,0.07,0.61.27,2.15,0.43,3.41,0.32,2.7.64,5.21,0.92,7.81,0.06,0.51.19,1.6,0.31,2.42,1.16,8.45,1.42,11.14,1.15,11.86-0.73,2.52-4.16,2.71-5.59,1.25-1.08-1.11-1.24-2.32-.81-5.49,0.25-1.83.35-2.75,1.07-9.73,0.17-1.64.41-3.81,0.54-4.83,0.29-2.73.63-5.29,1-8C144.25,56.85,144.38,56.41,144.52,56.43ZM88.41,62.7s11,3.63,19.32,3.46a6.73,6.73,0,0,1,3,.49c0.9,0.3,2.33.7,3.16,0.89a11.78,11.78,0,0,0,6.84-.46,1.91,1.91,0,0,1,1.24-.38,2.25,2.25,0,0,1,.7.65c-7.31,1.95-24.41,1.59-35.05-2.91Zm56.38,1.15a0.32,0.32,0,0,0-.15.15c-0.18.28,0,2.14,0.63,8.05,1.27,11.29,1.26,11.53-.27,12.72-0.76.58-.87,0.82-0.51,1s0.25,0.16.8,0c1.29-.36,1.83-1.39,1.82-3.49a36.46,36.46,0,0,0-.53-5.74c-0.17-1.36-.41-3.29-0.53-4.28-0.83-7-1-8.5-1.27-8.46h0ZM87.3,65c10.92,3.92,22.34,5,36.1,2.92l2,1.28-0.46.11,0.21,1.91,2.34-.38s1.26,1,2.21,1.63c-12.27,3.76-32.08,3.11-44.3-2.34a6.79,6.79,0,0,1-.74-0.48,4.46,4.46,0,0,1,.91-1.4l2.23,0.64,0.64-2-1.71-.62Zm2.86,2.44-0.71,2,3.12,0.93,0.53-2.05Zm4.77,1.24L94.52,71l3.13,0.58L98,69.37Zm5.18,1.07L99.87,72l3.32,0.35,0.2-2.24Zm22.83,0-2.83.31,0.18,1.94,2.86-.34Zm-5,.56-2.8.19,0.1,2,2.82-.18Zm-12.63,0V72.6l2.87,0.11,0-2.21Zm7.9,0.27h-2.65v2.06h2.68Zm-30.72.36a2.2,2.2,0,0,1,1.21,1.34c0.53,1.41.29,3-.54,3.48-1.13.7-2.46-.4-1.68-1.39a1.32,1.32,0,0,1,.49-0.4c0.58-.19.72-1.1,0.4-2.7C82.34,71.18,82.4,71.08,82.51,71.07Zm4.24,0.54A76,76,0,0,0,125.82,74s-6.55,26.84-6.69,26.85Zm-5.8.08c0.62,0,.74,1.06.17,1.62-0.72.72-2.08,0.14-1.8-.76A3,3,0,0,1,81,71.69Zm3.4,0.62a1.79,1.79,0,0,1,.76.77c1.33,1.79,1.43,3.8.24,4.71-1.39,1.07-2.41-.59-1.25-2,0.3-.38.35-1.07,0.17-2.61-0.06-.55,0-0.82.08-0.83h0ZM130.2,73a2.93,2.93,0,0,1,1,.38c0.85,0.42,1.14,1,.73,1.52-0.59.72-2.22-.7-1.91-1.67A0.24,0.24,0,0,1,130.2,73h0Zm-1.27.93a2.13,2.13,0,0,1,.95,1.2,1.25,1.25,0,0,0,.83.81c1,0.37,1.2,1.42.31,1.73s-1.69-.36-2.13-2.06c-0.29-1.12-.23-1.71,0-1.68h0Zm-42.3.75a2.24,2.24,0,0,1,.87,1c1.32,2,.87,5.71-0.8,6.59a1.35,1.35,0,0,1-1.83-.29c-0.86-.86-0.65-1.55.63-2,1.09-.4,1.44-1.64,1.1-3.9-0.13-.9-0.14-1.35,0-1.36h0Zm6.29,0.62c8.08,6.68,15.37,13.84,24.76,22.2,2.23-6.89,5.48-21.18,5.5-21.23C122.83,76.53,107.4,78.73,92.93,75.27Zm30.26,1s0,0,0,0v0Zm5-.95a5.12,5.12,0,0,1,.75,1.92,4.71,4.71,0,0,0,1.31,2.27c1.59,0.27,2.27,1.16,1.48,1.95-0.58.58-1.83,0.25-2.43-.64-1.13-1.67-1.9-5.51-1.11-5.51h0Zm-90.11.92a2.14,2.14,0,0,1,2.12,1.87c0.27,1.46-.55,2.52-1.24,2.35a2.24,2.24,0,0,1-1-1.48,5.39,5.39,0,0,1-.49,1.47c-0.68,1-2.1-.5-1.85-2a2.52,2.52,0,0,1,2.48-2.21h0Zm57.48,0.38a96.43,96.43,0,0,0,26.85.53l-4.94,19.25Zm-6.64,0a2.29,2.29,0,0,1,.81.69c1.37,1.45,1.76,3.46.87,4.46a1,1,0,0,1-1.48.28c-0.73-.5-0.79-1.26-0.12-1.61s0.67-1,.19-2.36c-0.37-1-.47-1.47-0.28-1.45h0Zm-57.37.5,3.21,1.34,1.15,2.72-3.21-.83ZM43.7,77.48l-1,2.71-2.47.93,1-2.93ZM127.51,78a1.7,1.7,0,0,1,.51,1c0.53,1.75.76,2.2,1.24,2.43a0.9,0.9,0,0,1,.1,1.68,0.62,0.62,0,0,1-1-.27,6.57,6.57,0,0,1-1-3.2c-0.07-1.11,0-1.69.14-1.69h0ZM91.74,79.27a0.86,0.86,0,0,1,.43.37c1.25,1.49,1.38,3.77.27,4.45s-2.6-.7-1.65-1.49l0.44-.35c0.26-.2.29-0.32,0.31-1.61,0-1,.05-1.36.21-1.38h0Zm9.48,0.16,15.38,14,3.53-13.87A110.65,110.65,0,0,1,101.23,79.43Zm-37.79.71c4.86,5.15,11.22,9.31,12.73,14.43a17,17,0,0,1-5.62,19.9,60,60,0,0,0-9.78,8.82c-4.68,5-7.8,10.46-10.93,14.42-0.53.67-1.93,2.76-1.93,2.76s-0.68.78-3-1.14A109.6,109.6,0,0,0,26,126.25l2.74-1.54A124.64,124.64,0,0,1,47,137.34s4.81-7,6.34-9.06a91.24,91.24,0,0,1,5.86-7c5.29-6.56,10.76-8.72,13-12a14.45,14.45,0,0,0,.73-15.55c-2.7-4.7-8-7.92-11.45-11.8Zm46.13,0.38h6s-0.88.74-1.56,1.19c-0.42.28-.92,0.25-1.86-0.15s-2.6-1-2.6-1h0Zm6.89,0,1.4,0a22.39,22.39,0,0,1-3.53,3.35,0.79,0.79,0,0,1-.71,0c-2.87-1-5.51-2.17-8.31-3.31h2.49s1.2,0.38,3,1.14c2.07,0.86,2.6,1.13,3.4.6s1.41-1.29,2.24-1.77h0Zm2.84,0-0.5,1.85a33.57,33.57,0,0,1-4,3.46c-0.33.17-.32,0.21-1.77-0.36-5.34-2.08-7.93-3.44-7.93-3.44l-1.09-1s1.39,0.4,2.31.76l2.38,0.91c0.68,0.25,2.18.89,3.19,1.29,2.31,0.92,2.19.94,4.4-1a33.32,33.32,0,0,1,3-2.48h0Zm-81,.17,2.33,2.68L37.54,86l-2.35-2.77Zm88.51,0a11.27,11.27,0,0,0,1.77,3c0.66,0.63.82,1.11,0.43,1.46-1,.63-1.19-0.39-1.5-1.05-0.55-1.17-1.23-2.75-.69-3.46h0ZM42.47,81h0.18c2.49,0,3.07,3.72.73,4.61a2.26,2.26,0,0,1-2.32-.35c-0.5-.51-0.58-0.93-0.23-1.2a4.32,4.32,0,0,1,1.82-.41A14.09,14.09,0,0,1,41,82.92c-1-.58-0.14-1.9,1.5-2h0Zm51.21,0a1.83,1.83,0,0,1,.73.86c1.25,2.08,1.19,6-.12,7a1.49,1.49,0,0,1-2.1-.19c-0.75-.83-0.52-1.67.59-2.17s1.3-1.54.86-4.18C93.49,81.41,93.51,81,93.69,81ZM33.33,81a2,2,0,0,1,1.82.85,0.6,0.6,0,0,1-.36,1,12.79,12.79,0,0,1-1.75.46,10.55,10.55,0,0,1,1.78.46c0.84,0.37.78,1.06-.46,1.64-2.37,1.13-4.61-2-2.66-3.73A2.57,2.57,0,0,1,33.33,81h0Zm62.39,1.49h0.06a2.19,2.19,0,0,1,1,.88c1.41,1.88,1.66,4.7.46,5.25A1,1,0,0,1,96,87c0.65-.74.57-1.83-0.29-4-0.13-.31-0.1-0.47,0-0.49h0Zm30.54,0.09A3,3,0,0,1,126.9,84c0.72,2,1.33,2.85,2.07,2.85a1,1,0,0,1,.68,1.79c-1.45,1-3.35-1.48-3.49-4.59a2.49,2.49,0,0,1,.09-1.41h0Zm-7.66,1-0.43,1.64s-1,1-1.7,1.58c-1.12,1-1.4,1.17-2.29.86-1.36-.47-2.71-0.9-4.14-1.33l-3.29-2.73,7.5,2.94a1.17,1.17,0,0,0,.88,0c1-1,2.06-1.75,3.46-2.92h0Zm7.08,1.53c0.09,0,.19.1,0.25,0.4,0.34,1.54.83,2.66,1.25,2.84a0.81,0.81,0,0,1,.51,1.14c-0.64,1.34-2.32-1-2.32-3.27a1.3,1.3,0,0,1,.31-1.1h0Zm-27.07.11a1.06,1.06,0,0,1,.47.36c1,1,1.35,3.91.52,4.75-1.2,1.21-2.49-.59-1.32-1.84,0.31-.33.31-0.36,0.24-1.83C98.45,85.67,98.45,85.26,98.6,85.25Zm-62.83.29L35,88.24l-2.59.67L33,86.69Zm3.11,0.28a1.11,1.11,0,0,1,.68.25,2.37,2.37,0,0,1,.65,3,2.23,2.23,0,0,1-2.37,1.12,2.15,2.15,0,0,1-2.06-2.28,2.25,2.25,0,0,1,.74-1.68c0.31-.22.56-0.13,0.83,0.32S38,88,38,88a8.26,8.26,0,0,1,.16-1.53,0.79,0.79,0,0,1,.7-0.66h0Zm2,0.24,1.88,0.64,0.74,2.56-2.1-.82Zm107,0.48A21.85,21.85,0,0,1,151,88.8c0.64,0.51,1.72,1.49,1.72,1.49l-0.06,33.36-6.08-3.79,0.32-2.92s0.84-8.83,1.48-13.45c0.45-5.15,1.43-6.63-2-8.82,3.7-2.33,2.66-6,.33-7.47Zm-30.18.13-0.34,1.53c-1.22,2.09-2.31,2-4.17,1l-2.24-1.91a33.4,33.4,0,0,1,3.65,1.22,1.25,1.25,0,0,0,1.46-.38c0.57-.52,1-0.91,1.65-1.47h0Zm-16.61.8c0.76,0.83,1,1.65.89,3.67-0.15,1.44-.08,2.51-1.26,3.32a1.93,1.93,0,0,1-2,0c-1.07-.72-0.48-2.15.92-2.22,0.88,0,1.24-2.9.74-4.71-0.08-.28-0.06-0.46.08-0.48a1,1,0,0,1,.64.41h0Zm23.8-.11a1.56,1.56,0,0,1,.65,1.15,2.64,2.64,0,0,0,1.2,1.91c0.73,0.38,1,1.1.5,1.52-0.93.85-1.89-.17-2.19-2.34C125,89.36,124.6,87.37,124.88,87.35Zm20,0.36A3.13,3.13,0,0,1,148.18,91a3.4,3.4,0,0,1-2,3.11c-3.06.9-4.73-1.15-4.7-3.15A3.33,3.33,0,0,1,144.92,87.71Zm-42,1.16c1.75,1.76,1.83,5.51.12,5.51-2.06-.68-0.45-1.9-0.41-2.22a8.11,8.11,0,0,0-.44-3.33C102,88.11,102.71,88.65,102.9,88.86ZM145,88.69c-0.37,0-.34.36,0.33,0.94a1.67,1.67,0,0,1-.92,3c-0.71,0-.89.49-0.27,0.74,2.4,1,4-2.69,1.89-4.22A2.19,2.19,0,0,0,145,88.69Zm-91.82.49c1.93,0.66,2.6,4.35,2.67,5.66,0.09,2.27-1,6-1.9,6.71-2.43,1.92-3.57-4.86-1.49-9.22a2.82,2.82,0,0,0,.32-1.73c-0.08-.88.06-1.41,0.4-1.41h0Zm63.85,0.36a12.62,12.62,0,0,1-.5,1.71c-0.3.7-.52,0.72-1.22,0.12-0.39-.33-1-1-1-1a2.79,2.79,0,0,0,1.66.15A2.88,2.88,0,0,0,117.06,89.54Zm7.33,0.06a1.93,1.93,0,0,1,.54,1.15c0.64,2.09,1.19,2.88,2,2.88a1.07,1.07,0,0,1,.38,2.1,1.7,1.7,0,0,1-1.26,0c-0.93-.25-2.2-3.4-2-5a1.46,1.46,0,0,1,.32-1.12h0Zm-85,1.22a1,1,0,0,1,1,.86,5.2,5.2,0,0,0,2,2c1.81,0.89,3.73,1.59,5.52,2.49,2.32,1.17,4.41,4.76,3,5.13a5.37,5.37,0,0,1-1.64.08,3,3,0,0,1-.75-0.88,9.86,9.86,0,0,0-6.1-4.24c-2.16-.56-4.09-3.23-4.5-4.48-0.11-.32-0.11-0.58.18-0.66a6,6,0,0,1,1.33-.29h0ZM104.91,91a0.78,0.78,0,0,1,.45.34c1.28,1.38,1.44,3.9.29,4.62a1.05,1.05,0,1,1-1.36-1.6c0.43-.48.43-0.48,0.43-1.92,0-1,0-1.41.19-1.44h0Zm18.68,1.6a2.14,2.14,0,0,1,.66,1.27c0.4,1.19.45,1.29,0.9,1.52a0.88,0.88,0,0,1,.33,1.56c-1,1.05-2.11-.64-2.11-3.38,0-.66.08-1,0.21-1h0Zm-16.78.19a1.53,1.53,0,0,1,.57.47c1.57,1.87,1.26,6.25-.5,6.91a1.22,1.22,0,0,1-1.13.07c-1.31-.57-1.15-2,0.46-2.83C107.43,96.78,106.57,92.84,106.82,92.83ZM26.43,94.21l6.49,3.23s1.78,3.76,2.6,5.17c0.56,1,1.69,1.92.53,2.57-2,1.33-3.06,2.08-3,2.91,0,0.67.84,1.35,2,2.66,1.6,1.89,1.58,1.45.13,4.33A32.55,32.55,0,0,0,33,121.67l-6.56,3.39a40.58,40.58,0,0,1,6.82-11.5,30.44,30.44,0,0,1-5.2-4.88,37.73,37.73,0,0,1,4.38-4.45,29,29,0,0,1-6-10h0Zm82.1,0.06h0A3.51,3.51,0,0,1,110,96c0.71,1.41.77,3.18,0.15,3.81a1,1,0,1,1-1.48-1.46c0.71-.52.52-1.81,0-3.16-0.26-.64-0.26-0.95-0.1-1h0Zm-82.82.63a61.44,61.44,0,0,0,5.51,9.3L27,108.64a45.19,45.19,0,0,0,5.09,5c-2.72,3-4.5,7.27-6.28,11.28ZM122.87,95a2.1,2.1,0,0,1,.57,1.32c0.27,1.11.45,1.39,1.1,1.67,1,0.44,1,1.43,0,1.79a1.43,1.43,0,0,1-1.34-.72,5.37,5.37,0,0,1-.56-2.48C122.62,95.49,122.71,95,122.87,95Zm23.43,0.67c1.6,0.45,2.17,2.05,1.86,5-0.42,4-.91,8.4-1.31,12.06-0.46,4.21-.84,6.89-0.84,6.89l-0.39-.3s0.11-2.28.26-3.68c0.36-3.15.55-5.9,0.86-9,0.68-7,.51-9.21-0.75-9.85-1-.5-1.4-0.2-0.68.48,1.37,1.06,1.33,1.51-.14,18.74-0.15,1.78-.21,3-0.21,3l-1.87-1.16s-0.14-1.48-.31-3.71c-0.42-4.2-.67-8.68-0.95-12.71-0.3-4.3.5-5.8,3.16-5.9a4.42,4.42,0,0,1,1.3.13h0ZM112,98.14c0.2,0.57,1.13,4.81-1.24,3.59a0.86,0.86,0,0,1-.2-1.46,3,3,0,0,0,.38-2.73c-0.16-.76-0.35-1.39-0.35-1.39a6.25,6.25,0,0,1,1.41,2h0ZM41.55,96.81a11.26,11.26,0,0,1,5.63,3c0.88,0.94.84,1.69-.54,1.78s-1.35.41-2-.14a3.43,3.43,0,0,0-1.47-.87C41.18,100.29,40.16,96.54,41.55,96.81Zm80.93,1.11a11.16,11.16,0,0,1,.41,1.49c0.3,1.34,1.22,2.34,2,2.21a1.14,1.14,0,0,1,1.4.77,1.1,1.1,0,0,1-.74,1.34,1.92,1.92,0,0,1-2-.45c-1.23-1.16-2-5-1.07-5.37h0Zm-9.64.05c0.72,0.28,1.64,2.59,1.73,4.42,0,1.31-.2,3-1.33,3.59a1.25,1.25,0,0,1-1.78-.44,1.35,1.35,0,0,1,.72-1.94c1-.45,1.33-2.5.72-4.49,0-.33-0.54-1.27-0.06-1.14h0Zm-76.59,1,5.29,2.69a13.07,13.07,0,0,0-1.79,3.15A23.15,23.15,0,0,1,36.25,98.93Zm78.58,0.92a2.59,2.59,0,0,1,.66.55c1.32,1.28,1.89,3.61,1.09,4.46-0.64.68-1.75,0.63-1.94-.08a2.89,2.89,0,0,1,.47-1.32,4.36,4.36,0,0,0-.08-2.79A1.19,1.19,0,0,1,114.83,99.85Zm-36.76.53,6,0.21,20,18.09-1.88,0-18.4-16.82-5.73,0v-1.45Zm-34.44,3.26a14.49,14.49,0,0,0-1.5,12.3c1.06,2.89-1.26,3.06-2.21,1.16a13.05,13.05,0,0,1-.93-6.54c0.31-4.27,2.28-8.55,3.85-9.07s1.25,1.57.8,2.15h0Zm82.06,8.76c-0.61,2.85-1.73,4.26-3.33,4.85-6.54,2.42-9.39-10.81-3.32-14,5.78-1.93,7.45,5.36,6.65,9.11h0Zm-48-8.64,5.64,0.12c5.14,4.69,10.67,9.06,16.17,14.77H96.85l-1-.92c-5-4.45-8.65-8.09-13.45-12.23l-5-.14Zm43,0.87c-3,.12-3.3,4.27-3.21,5.84,0.22,2.26,1.12,5.6,4,5.34,2.1-.21,3.07-2.7,2.88-5.7-0.18-2.82-1.33-5.48-3.66-5.48h0ZM77.19,106l4.95,0.11c4.36,3.81,9,8,13.55,12.52H93.53l-0.73-.71c-3.71-3.36-7.48-7.11-11.07-10.13l-5.13-.2Zm43.61,0.16c0.87,0.32,1,2.44.25,3.31-0.52.6-1.71-.54-1.82-2A1.26,1.26,0,0,1,120.8,106.16ZM39,106.42a25.31,25.31,0,0,0-.82,4.57l-2.07-2.64ZM122.38,109a0.92,0.92,0,1,1-.92.92A0.92,0.92,0,0,1,122.38,109Zm-41.57.46,9.86,9.3-2.81,0-8.09-7.35-5.13-.19,1-1.75Zm38.35,0.16a0.92,0.92,0,1,1-.92.92A0.92,0.92,0,0,1,119.16,109.59Zm11.74,0a190.11,190.11,0,0,0,21.55,14.74,9.37,9.37,0,0,1-2.58,1.4,123.72,123.72,0,0,1-18.56-12.47c-4.41,6.52-12.89,18.37-20.43,23.84-4.76,3.41-7.15,7.62-7.14,12.54,0,5.09,1.8,8.4,6.79,12.56,3.22,2.69,6.74,6.12,6.74,6.12l-1.85,1.6a108.65,108.65,0,0,1-10.55-9.62c-2.83-2.85-4.09-9.1-3.61-12.48,0.65-4.59,2.18-7.88,6.52-11.42a47.58,47.58,0,0,0,4.82-3.77c13.48-14.46,18.29-23,18.29-23h0Zm-9,2.36c0.51,1.05.79,2.43-.81,2.52-0.95.05-1.49-1.53-.67-2.93,0.62-1.11,1.17-.16,1.48.41h0Zm-47.5-.28,5.32,0.16s5.25,4.59,7.9,7.13h17.83c9.8,0,17.86,0,17.91.09a11,11,0,0,1-1.27,2l-58.79,0s3.63-3.24,4.93-4.15a29.38,29.38,0,0,0,6.18-5.25h0Zm-36,2.22a21.56,21.56,0,0,0,1.37,4.19l-4.08,2.17a46,46,0,0,1,2.71-6.36h0ZM151.7,125.75a45.58,45.58,0,0,1-5.5,10.16c-0.51.66-.86,1.17-0.86,1.17l5,4.8L146,146.52a28.38,28.38,0,0,1,5.58,9.54,38.07,38.07,0,0,1-5.5-2.61c-0.69-1.73-1.39-3.56-2.16-5.14-1.77-3.6-1.75-3.25-.3-4.31,2.12-1.55,2.75-1.91,2.2-2.69-0.39-.55-2.88-3.52-3-3.62s-0.13-.58.3-1.29a40,40,0,0,0,3.37-8Zm0.95,0.18,0.13,30.27c-1.79-3.62-3.65-7.31-5.73-9.62-0.08-.16,4.53-4.67,4.53-4.67-1.69-1.57-2.68-2.51-5-4.69C148.83,133.9,150.65,129.56,152.64,125.93ZM25.81,127l5.73,3.34c-0.3,4.27-.69,9.87-1.27,15.56-0.49,4.44-.7,6.48.09,7.71a9.55,9.55,0,0,0,2.45,1.87c-3,1.22-4.18,4.84-.8,7.54a14.49,14.49,0,0,0-1.19,1l-4.7-3.53Zm89.75,1.53a34.37,34.37,0,0,1-5.39,5.13,33.8,33.8,0,0,0-5.36,4.48s-3.38,0-5.66-.11L91.26,131s0.28-.1-10.45,0c-13.87.11-25.11,0-25.11,0l1.58-2.22Zm28.11,1.39a25,25,0,0,1-3.51,7,16.74,16.74,0,0,0-1.29-4.48Zm-111.4.8L33,131.19s-0.41,5.22-.54,6.75c-0.24,2.82-.36,5.37-0.61,8.25-0.49,5.71-.41,6.56.71,7.44,0.86,0.65,1.45.35,0.68-.46a2.31,2.31,0,0,1-.65-1.59,24.11,24.11,0,0,1,.06-4.33c0.85-15.09,1-15.6,1-15.61l1.71,1.11c-0.1.23,1.57,15.21,1.4,18.94-0.2,4.35-6,3.39-6.32.16-0.11-.74,1-13,1-13Zm47.67,0.88,2.29,0.07,14.15,13,4.82,0.1-0.42,1.65H96.13Zm8.77,0h2.22l8.1,7.36,5,0.08-0.95,1.42-5-.14Zm-2.77,0,12,10.83,4.08,0.21-0.63,1.48L96.54,144,83.09,131.61Zm-11.54,0h2.49l18.71,16.9,4.9,0.09-0.07,1.52-5.9,0Zm63,0.48c1,0.25,1.47,1.21,2.17,4.77,0.81,4.15-.95,10.89-3.15,12.16-1.14.9-2.38-.05-1.58-1.23,2.63-3.83,3-10.1,1.42-13.6C135.76,133.07,136.27,131.9,137.39,132.11Zm-79.4.62c6,0.07,7.53,12.39,1.64,14.12-3.82.57-5.79-2.9-6.34-6C52.63,136.92,54.34,132.69,58,132.73Zm-3.29,7.39c0.36,2.47,1.88,5.3,4.1,5.05,2.92-.32,3.28-4.23,3-6.19-0.35-2.37-1.65-4.53-3.74-4.64C55,134.16,54.42,138.22,54.7,140.12Zm3.21-4.79c0.83,0,1.45,1.1,1.22,2.49-0.15.9-.49,2-1.49,1.25a3.67,3.67,0,0,1-.78-2.63,1.08,1.08,0,0,1,1.05-1.12h0Zm82.46,2.85,2.81,3.26L140,143.67A15.06,15.06,0,0,0,140.37,138.17Zm-80.42.29a0.92,0.92,0,1,1-.92.92A0.92,0.92,0,0,1,59.94,138.47Zm-3.27.57a0.92,0.92,0,1,1-.92.92A0.92,0.92,0,0,1,56.67,139Zm1.85,1.19a2.05,2.05,0,0,1,1,.93,2.32,2.32,0,0,1,.26,2.54c-0.88,1-2.25-.07-2.09-1.69,0.12-1.19.44-1.9,0.83-1.78h0Zm7.84,3.59a1.22,1.22,0,0,1,.55,2.31c-0.74.49-.9,2.1-0.44,4.32,0.37,1.61.18,1.85-.78,0.41-1.63-2.62-1.21-7,.67-7h0Zm-3.07.84c1.15,0,1.52.84,0.85,1.51a2.74,2.74,0,0,0,.08,2.55c0.62,1.38.48,1.79-.69,0.47-1.61-1.72-1.58-4.48-.25-4.53h0Zm76.13,0.67a30.38,30.38,0,0,1,3.52,6.59l-5.67-2.61Zm-82.79,7c-0.4-.47-0.6-2-0.92-2.62s-0.48-1.22-.89-1.2c-2.39.2-2.29-2.09-.92-2.53,2.84-.9,3.88,6,2.74,6.34h0ZM68.51,150c-0.41,1.2-.11,1.92,0,3.21,0.07,0.58.1,0.74-.38,0.29-1.14-1-1.74-4.38-.72-5C68.76,147.66,69.18,149.08,68.51,150Zm56.76-1.61a1.68,1.68,0,0,1,1.5,1.2,14.54,14.54,0,0,1,.18,5.45c-0.35,2.29-.9,4.39-1.12,6-0.8,1-2.78-2.43-3-5.09-0.31-2.12.42-6.51,2-7.44a0.94,0.94,0,0,1,.37-0.09h0Zm7.65,0.36c0.5,0,.38.15,0.75,0.53a2.88,2.88,0,0,0,1.57,1c1.62,0.51,3.41,2.78,2.72,3.48-0.54.43-2-.38-2.53-0.56l-1.51-.52c-1.36-.46-3.32-3-2.71-3.49a4,4,0,0,1,1.71-.42h0Zm-4,.42c1,0,1.28.26,1.86,1.35a7.27,7.27,0,0,0,4.74,3.4c2.94,0.9,5.48,2.61,5.35,5.78a7.35,7.35,0,0,0-2.1.27,6.41,6.41,0,0,0-4.58-4c-4-.91-7.75-5-6.69-6.63a2.87,2.87,0,0,1,1.42-.15h0Zm-69.33.2,34.72,30.33c-14.65-5.45-28.1-5.34-41.09-3.32Zm14.81,2c-0.07.94-1.36,1.15-1.62,1.38-0.65.57-.56,2.2-0.29,4.11,0.21,1.14-.07,1.09-0.67.2a7.06,7.06,0,0,1-.34-6c0.91-2.09,3-1,2.92.28h0Zm-20-1.49c1.33,0.14,1.7,2,1.75,3.16,0,1.66-.47,1.6-0.73,0a1.18,1.18,0,0,0-.92-1.15C53.27,151.53,53.19,149.91,54.46,149.91Zm16.14,1.86c-0.34.38-.35,2.14,0,3.32,0.17,0.65-.15.7-0.59,0.19-1.44-1.69-1.57-4.56-.24-5.11a1,1,0,0,1,.86,1.6h0Zm-15,3.39c0,1.69-.35,1.84-0.86.22a2.05,2.05,0,0,0-.53-0.87c-0.95-.65-1.11-1.15-0.56-1.7C55,151.71,55.56,154.65,55.58,155.16Zm5.07-1.49-4.71,20.14c11.59-1,16.85-1.18,29.23,1.25Zm14,0.33c0.71,0.18,1,1.11.13,2-0.27.35-.52,0.88-0.19,2.31,0.45,1.95-.31,1.32-1.24-0.51C72.79,156.6,73.07,153.59,74.69,154Zm-22.16.06c1.26,0,2.43,2,2.44,4.29,0,1.81-.24,1.68-0.92-0.05a2.62,2.62,0,0,0-1.71-1.86c-1.59-.55-1.45-2.38.18-2.38h0ZM61,154.64l21.8,19.11a92.19,92.19,0,0,0-26.21-.47Zm18.15,0.72c1.71,0,2.38,2.12.29,2.86-1.25.44-.72,3-0.49,4.48,0.09,0.57-.09.61-0.45,0.1-1.32-2-2.05-6.87.65-7.45h0Zm-2.31,2.38a2.39,2.39,0,0,0-.13,2c0.55,2,.7,2.42-0.46,1.38-1.22-1.29-1.75-3.85-.73-4.61s2.18,0.09,1.32,1.26h0Zm-43.09-1.58c2,0,3.49,1.3,3.42,3.13a3.28,3.28,0,0,1-3.2,3.4,3.23,3.23,0,0,1-3.39-3.26,3.06,3.06,0,0,1,3.17-3.27h0Zm0,0.81a2.45,2.45,0,0,0-1.27,4.47c0.82,0.61,1.47.44,0.8-.21a2.07,2.07,0,0,1,.92-3.59c0.83-.18.51-0.67-0.44-0.67h0ZM62,157.5l-2.79,13.57a77.46,77.46,0,0,1,17.93-.12Zm-9.39.52c1.39-.07,1.79,2,1.8,2.85,0,1.08-.13,1.64-0.32,1.06-0.47-1.36-.93-2.1-1.43-2.1a1.34,1.34,0,0,1-.72-0.43,0.84,0.84,0,0,1,.67-1.39h0Zm9.65,0.54L64,160.12c-1.18-.52-2.19.83-2.19,0.83Zm18.92,2.56c-0.53.67-.53,2.09-0.12,3.75,0.12,0.46-.32.12-0.75-0.43a4.44,4.44,0,0,1-1.06-3.26c0.17-2.53,3.36-2,1.92-.06h0Zm-29.08-1.21c1.19,0.14,1.64,2.63,1.61,3.38s-0.22,1.32-.37.84a6.55,6.55,0,0,0-1.49-2.88c-0.94-.59-0.67-1.26.25-1.34h0Zm91.09,2.79a2.31,2.31,0,0,1-.86,2.07c-0.55.3-.89-0.1-1.22-1.12-0.24-.74-0.33-1-0.33-1s-0.2.93-.27,1.13c-0.43,1.29-1.83,1.31-2.42-.14a2.69,2.69,0,0,1,2.46-3.35,2.58,2.58,0,0,1,2.63,2.44h0Zm-79.46-1.88a10.94,10.94,0,0,1,2,.73L67.33,163s-1.48-.65-2-0.83c-1.25-.44-1.22-0.45-2.23.38S61.2,164,61.2,164l0.32-1.84s1.52-1.34,2.16-1.34h0Zm-10.59,4.52c0.24,1.94-.3,2.11-0.83.25-0.45-1.59-.89-2.17-1.66-2.17a1.21,1.21,0,0,1-.62-2.31C52.37,160.44,53,164.57,53.09,165.34ZM135,161.07l2.21,1,0.47,2.29-2-.5Zm-49.42.21a1.29,1.29,0,1,1,.76,2.45c-1,.24-1,1.78-0.7,4,0.06,0.51.2,1.13,0.17,1.22-0.15.41-.66-0.21-1.34-1.65-1-2.62-.7-5.54,1.11-6h0Zm60.67,0-0.61,2.65-1.87-.13-0.07-1.62ZM83.43,163c-1,1.48-.1,2.85.12,4,0,0.68-.83,0-1.33-1-1-2.05-1.1-3.71-.17-4.45A1,1,0,0,1,83.43,163Zm-19.14-.36a6.93,6.93,0,0,1,1.88.6c0.78,0.3,2.58,1,2.58,1l2.38,2.11S69,165.58,67.59,165c-3.28-1.39-2.81-1.44-5.4.55-0.75.57-1.53,1.22-1.53,1.22L61,165a20.68,20.68,0,0,1,2.2-1.86,1.94,1.94,0,0,1,1.12-.57h0Zm-30.52.8A3.36,3.36,0,0,1,37,166.2a7.45,7.45,0,0,1,0,2.5c-1.16,8.91-1.67,17.17-2.73,25.42-0.13.39-.27,0.25-0.44-0.46-1.23-7.48-2-15.69-3.07-23.1-0.24-2.77-.95-6.39,2.54-7.09a3.33,3.33,0,0,1,.54-0.06h0Zm-0.1,1a2.4,2.4,0,0,0-1.93,1.2c-0.63,1.34-.47,4.07.74,12.26,0.1,0.68.24,1.82,0.31,2.53a18.24,18.24,0,0,0,.71,4.22c0.39,0.61.45,0,.16-2.17-0.14-1.09-.34-2.75-0.44-3.69-0.54-3.88-.66-6.65-1-10.19-0.17-1.74.53-3,1.84-3.37,0.71-.19.75-0.51,0.08-0.72a1.39,1.39,0,0,0-.48-0.06h0Zm111,0.11a2.45,2.45,0,0,1,1,4.66c-0.89.45-2.38,0.24-2.76-.48a0.83,0.83,0,0,1,.47-1.12,9.37,9.37,0,0,1,1.34-.54,3,3,0,0,1-1.66-.87c-0.79-1.33.66-1.63,1.66-1.65h0Zm-92.26,3.71c0,0.65-.36.38-0.44,0a5.08,5.08,0,0,0-1.28-2.17,1,1,0,0,1-.31-1.44c1.42-1.26,2,3.21,2,3.61h0Zm83.2-3.72a2.88,2.88,0,0,1,2,.74c0.7,0.7.66,1-.51,1.39-0.57.21-1,.38-1,0.38s0.53,0.21.92,0.32c1.12,0.38,1.06,1,0,1.8-1.4,1-3.65-.34-3.62-2.19a2.23,2.23,0,0,1,2.12-2.43h0Zm5.18,0,2.24,2.48-2.62,2.72L138,167Zm-76.12.23h0.1c0.69,0,1.8.48,4.52,1.58l3.22,1.29L75,169.76a47.16,47.16,0,0,1-4.51-1.65c-0.25-.13-0.81-0.37-1.24-0.53l-2.35-.93c-1.86-.75-1.89-0.76-2.51-0.23-0.27.23-.92,0.74-1.46,1.15l-1.73,1.32c-0.49.38-1.12,0.95-1.12,0.95l0.39-2.09a11.68,11.68,0,0,1,1-.83l1.93-1.48a2.4,2.4,0,0,1,1.33-.72h0Zm24,1.84a0.94,0.94,0,0,1-.47,1c-0.63.65-.72,1.7-0.25,3.08a4,4,0,0,1,.25.86c-0.67.67-2.42-3.55-2-4.81,0.5-1.5,2.15-1.53,2.48-.16h0Zm-38.45.18a1.4,1.4,0,0,1,1.26,1.05c0.72,2,.28,4.52-0.46,2.2a4.5,4.5,0,0,0-.78-1.29,1.91,1.91,0,0,1-.83-1,0.89,0.89,0,0,1,.81-0.92h0Zm15,0.06a4.76,4.76,0,0,1,1.39.45c0.64,0.26,2.43.86,3.45,1.26,1.58,0.61,3.24,1.42,3.24,1.42l-3.58-.2s-1.22-.41-1.94-0.71c-2.62-1.08-2.48-1.08-3.78-.08-0.47.36-1.05,0.93-1.05,0.93l-1.82.1a17.26,17.26,0,0,1,2.09-1.84c0.4-.3,1-0.73,1.22-1a1.13,1.13,0,0,1,.8-0.38h0Zm28,0.71a1.28,1.28,0,0,1,1.48,1.36,1.87,1.87,0,0,1-1.6,1.48,11.23,11.23,0,0,0-.43,4.88c0.26,1.16-.23,1.19-0.73.07-0.81-1.81-2-7.17,1.28-7.79h0Zm-2.85,2a4,4,0,0,0-.34,2.78c0.26,1.27.31,1.58-.41,0.79-1.39-1.87-1.6-4.83-.31-5.18A1,1,0,0,1,90.48,169.5Zm-41.81-1.39c2.18,0.35,2.82,4.06,2.51,5.66-0.58,1.93-.55.62-0.75-0.18-0.54-1.94-1.16-3-1.82-3.1-1.79-.3-1.54-2.63.05-2.37h0Zm16.68,0.73h0.1c0.72,0.12,2.63.71,1.81,0.91l-2.83,0c-0.55,0,.36-0.9.92-0.94h0Zm76.23,0.61a1.91,1.91,0,0,1,1.09.75c1,1,.57,2.65-0.8,3.45a2.45,2.45,0,0,1-3.39-3.28c0.64-1.19,1.42-1,2.08.7,0.12,0.2,0-.21.22-0.72a1.35,1.35,0,0,1,.8-0.89h0Zm-3.58.12-0.64,2.59-2.6,1.26,0.95-3.19Zm5.41,0.44,2.07,0.17,1.15,3.36-3-1.28Zm-49,1.9a1.16,1.16,0,0,1,.8,2.12,2.52,2.52,0,0,0-.55,2.22c0,0.48.14,1.07,0.14,1.13,0,0.23-.2.19-0.46-0.09C92.73,175.55,92.94,171.85,94.4,171.91Zm-45.63.56c1,0,2,2.75,1.51,3.8-0.34.62-.66,0.46-0.78-0.25a1.52,1.52,0,0,0-1.16-1.36A1.15,1.15,0,0,1,48.78,172.47Zm48.39,1.66a1,1,0,0,1,.14,1.69,1.78,1.78,0,0,0-.73,1.67c0.17,2.26-1.1.82-1.21-1.23C95.29,175.15,95.9,173.49,97.16,174.13ZM48,174.83a1.86,1.86,0,0,1,1.32,2c-0.1.57-.4,0.47-0.81,0a2.7,2.7,0,0,0-.7-0.31,0.85,0.85,0,0,1,.19-1.69h0Zm19.5,0.95c9.27,0,18.92,1.43,26.94,4.64l-0.66,1.19-2.1-.72-0.72,1.91,1.73,0.66-0.81,1.77c-9.46-3.12-19.67-5.45-36.63-2.93-0.84-.59-2.36-1.75-2.36-1.75l1.36-.3L54,178.36,50.6,179l-1-1a74.3,74.3,0,0,1,17.87-2.15h0Zm31.1,0.41c0.89,0,1.44,1,.79,1.43a1.86,1.86,0,0,1-1.67.14A1.1,1.1,0,0,1,98.58,176.19Zm-32.41,1.17,0,2,2.8-.09L69,177.37H66.16Zm4.89,0v1.93l2.72,0.09,0.13-1.89Zm-7.1.13-2.75.18,0.08,1.8,2.72-.12Zm12.28,0.3-0.07,1.86L78.91,180l0.2-1.89Zm-17.39.09-2.76.35,0.24,1.85,2.68-.3Zm22.72,0.6-0.27,1.94,2.58,0.38L84.2,179Zm5.11,1.08-0.25,2L89,182.12l0.35-1.82Zm-18.53,2.25a65.45,65.45,0,0,1,23.29,4A11.25,11.25,0,0,1,90.25,188a61.74,61.74,0,0,0-18.46-3.8,9.64,9.64,0,0,1-3.21-.39c-4.2-1.39-7.91-2-11.33.06l-1.4-1a78.6,78.6,0,0,1,12.29-1h0ZM31.41,193c2,0,2.93,3.08.83,4.37a2.15,2.15,0,0,1-1.9,0A2.32,2.32,0,0,1,31.41,193h0Zm65,0.1c0.71,0.44,3.34,1.6,3.34,1.6L81.27,228.23l-4.47,0Zm-59.55.08a2.27,2.27,0,1,1-.08,4.53c-2.24-.13-3.24-4.16.08-4.53h0Zm63.5,1.74c0.5,0.27,2.29.57,2.44,0.92a3.86,3.86,0,0,1-.11,1,5,5,0,0,0,.81,3.19c1.05,1.47-.09.79-1.14,0.78-2.37-.61-5.4,2.64-4.25,6,0.27,0.74.21,0.8-1.06,1.19a4.63,4.63,0,0,0-2.76,6.7c0.72,1.43.74,1.36-.53,1.46-3.53.29-5.58,3.44-4.1,6.65,0.23,0.5.08,0.63-.69,0.78-2.41.44-3.49,2.47-3.8,4.69l-3.19,0Zm3.06,1.18,6.13,1.68c-2.55,8.68-2.9,18.76.17,30.43H95.6c2-1.76,1.18-4.2-1.1-4.73,2.22-1.28,2.22-4.68-.44-5.09-2.34-.36-3.55,1.87-2.51,4.11l-1,.27A4.45,4.45,0,0,1,90,222c-0.88-2.58,1-5.14,4.11-5.13,1.94,0,2.34-.55,1.27-1.74a3.91,3.91,0,0,1,1.19-6.33,2.14,2.14,0,0,1,1.83-.18L98.46,210s-0.47,0-.83.1c-2.77.44-2.25,4.87,0.56,4.83a2.69,2.69,0,0,0,2.65-2.89v-1.18c1.42,2.44,3.86,2.61,4.9.63,1.22-2.34-1-3.8-3.22-3.56,0,0,.47-0.3.76-0.46A2.48,2.48,0,1,0,100,206.2a7.94,7.94,0,0,0,.31.74l-1.07.27a1.81,1.81,0,0,1-.35-0.36c-1.84-2.88,1.11-6,4.83-5.33,1.36,0.43,1.32-.52.55-1.37-0.82-1.23-1.43-2.62-.83-4h0ZM34.13,197.4l3.22,5.69-3.6,6.55-3.57-6.14Zm-0.32,3-2.23,3.08L33.77,207l2.07-3.58Zm-0.1,1.16,1.45,2-1.46,2.4-1.43-2.25Zm66.48,6.14A1.23,1.23,0,1,1,99,208.89,1.23,1.23,0,0,1,100.2,207.66Zm-8.66,15.42a1.27,1.27,0,1,1-1.27,1.27A1.27,1.27,0,0,1,91.54,223.08Zm-1.92.87a2.72,2.72,0,0,0,.28,1.61c-1.83.11-2.31,1.52-2.49,2.7H85.77c0.27-4,3.73-4.1,3.85-4.31h0Z" transform="translate(0.1 0.1)"/><path id="path153-6-3-1-9-55-1-6" d="M48.06,26.47C40.71,37,32.85,43,32.72,51.19c0,2.65,1.39,7.16,5.87,8,2.91,0.56,6.91-1.8,7-6.59,0-1,1-.93,1,0.38a27.2,27.2,0,0,1-3.34,11.75h9.63A27.2,27.2,0,0,1,49.54,53c0-1.31,1-1.33,1-.38,0.08,4.79,4.09,7.15,7,6.59,4.48-.86,5.91-5.37,5.87-8C63.27,43,55.41,37,48.06,26.47h0Z" transform="translate(0.1 0.1)"/><path id="path153-6-3-1-8-6-8-8-0" d="M130.52,223c-7.35-10.49-15.21-16.53-15.34-24.72,0-2.65,1.39-7.16,5.87-8,2.91-.56,6.91,1.8,7,6.59,0,1,1,.93,1-0.38a27.2,27.2,0,0,0-3.34-11.75h9.63A27.2,27.2,0,0,0,132,196.46c0,1.31,1,1.33,1,.38,0.08-4.79,4.09-7.15,7-6.59,4.48,0.86,5.91,5.37,5.87,8-0.13,8.19-8,14.22-15.34,24.72h0Z" transform="translate(0.1 0.1)"/></g></svg>