<svg id="Layer_1" data-name="Layer 1" xmlns="http://www.w3.org/2000/svg" viewBox="0 0 178.78 249.65"><defs><style>.cls-1{fill:#fff;stroke:#000;stroke-width:1px;}.cls-2{fill:#e2cf00;}.cls-3{fill:#d40000;}.cls-4{fill:#131f67;}</style></defs><title>13_C</title><g id="g4922"><rect id="rect6355-6-85-3-64-3-5" class="cls-1" x="0.5" y="0.5" width="177.79" height="248.65" rx="8.5" ry="8.5"/><path id="path147-6-9-8-7-0-5-6-9-6-3" d="M164.87,209.6c3.13-.07,4.53-3.74,2.21-6.59-0.34-.42-0.37-0.65.24-0.25,1.56,1.09,4.55.37,4.7-2.95,0.19-4.09-5.3-5.27-6.33-.92-0.05.46-.41,0.45-0.33-0.2a14,14,0,0,1,1.35-5H163a14,14,0,0,1,1.35,5c0.09,0.65-.27.66-0.33,0.2-1-4.35-6.52-3.17-6.33.92,0.15,3.32,3.14,4,4.7,2.95,0.62-.4.58-0.16,0.24,0.25-2.32,2.85-.91,6.52,2.21,6.59h0Z" transform="translate(-0.3 -0.3)"/><path id="path147-6-9-8-7-4-5-62-08-0-2" d="M14.51,40.65c-3.13.07-4.53,3.74-2.21,6.59,0.34,0.42.37,0.65-.24,0.25-1.56-1.09-4.55-.37-4.7,2.95-0.19,4.09,5.3,5.27,6.33.92,0.05-.46.41-0.45,0.33,0.2a14,14,0,0,1-1.35,5h3.72a14,14,0,0,1-1.35-5c-0.09-.65.27-0.66,0.33-0.2,1,4.35,6.52,3.17,6.33-.92-0.15-3.32-3.14-4-4.7-2.95-0.62.4-.58,0.16-0.24-0.25,2.32-2.85.91-6.52-2.21-6.59h0Z" transform="translate(-0.3 -0.3)"/><path id="path39-7-2-1" d="M15.14,35.25h2.64L13.9,25.53l-3,4.1,0,5.61H13v2.89H5.69V35.25H8.11V14.35H5.69V11.83h7.45v2.62H11.09l0,10.18,6.5-10.27h-2.3V11.83h7.93v2.53H21.09l-5.36,8.39L21,35.25h2.33v2.89H15.17l0-2.9h0Z" transform="translate(-0.3 -0.3)"/><path id="path39-3-8-1-1" d="M164.23,215h-2.64l3.88,9.72,3-4.1,0-5.61h-2.08V212.1h7.34V215h-2.42v20.9h2.42v2.53h-7.45V235.8h2.06l0-10.18-6.5,10.27h2.3v2.53h-7.93v-2.53h2.09l5.36-8.39L158.4,215h-2.33V212.1h8.15l0,2.9h0Z" transform="translate(-0.3 -0.3)"/><g id="g5429-3-1-8"><g id="layer1-6-4-4-1"><g id="KC-7-1-9"><g id="g3440-6-4-8"><g id="g3454-7-1-1"><path id="path3450-5-0-3" class="cls-2" d="M129,21.49l-65.36.32,8.3,15.87c17-1.54,31.88-.17,47.39.34ZM84.35,77.29c-0.07.09-2.72,0.78-2.45,1.39,6.92,15,10,27.13,12.9,42.5A6.71,6.71,0,0,1,98.63,120c-1.17-5.71,6-6.42,6-.45,1.37,0.32,2.78.33,4,1.72a96,96,0,0,1,14.24-46.22c-8.79,3.51-21.69,12.26-21.69,12.26S90.47,82.87,84.35,77.29h0Zm53.43,1.79c-11.7,11.21-16.28,42.32-15.44,42.75-15.08-.51-19.65,16.27-6.58,25.31-0.52,1.75-1.79,3.18-2.78,4.73a10.56,10.56,0,0,0,4.29,1.11c1.12,1.33,2.21,2.87,3.43,3a22.39,22.39,0,0,0,3.34-3.12,23.38,23.38,0,0,0,4-1.34c-1.15-1.62-2.51-3.25-2.54-4.77,11.36-8.08,9.81-19.08-.44-24.71,3.05-18.51,7.5-30.34,12.67-38.75ZM57.21,93.39c-1.49.73-2.3,2.28-3.38,3.49a12,12,0,0,0-4.32,1.21s3.39,4.72,3.18,5c-11,7.26-10.9,17.88-.35,24.88,1.79,15.11-10.94,39-11.58,38.33l0,4.94c9.06-10,14.23-28,14.75-42.6,18.09-1.21,18.73-18.85,6.28-25.48-1-.89,3.13-5,3.13-5-1-1-2.77-1.15-4.29-1.27A18.17,18.17,0,0,0,57.21,93.39Zm76.5,12.2c2.56,5.74,11.9-1.25,13.52,1.8,1.32,1.73,4.18,1.91,4-1-0.54-2.89-2.42-3.53-9.9-2.27-2.84.48-4,.76-4-0.54C135.4,101.17,133.72,104.43,133.71,105.59Zm8.68,8.38c-2.1,0-2.45,8.27-2.42,10.76-6.07,9.68,12.46,8.58,4.44-2,0.28-1.38-1-3.62-1-4.62C142.76,118.06,142.47,114.32,142.38,114ZM33.93,126.44c-0.19,2.5,1.63,10.1,2.3,9.84,2.37-3.86,2.09-7.16,1.85-10.93C43.74,114.38,24.42,118.88,33.93,126.44Zm35.25,1.77c-0.84,16.16-4.77,32-13.66,45.77,7.65-3.6,15.08-8.24,22.27-12.22l16.8,10.49A6.62,6.62,0,0,0,96.89,171c-7.74-11.42-10.14-27.87-13.51-42.74a11.64,11.64,0,0,1-3.7,1.38c-0.17,5.16-5.54,6.83-6.63.1ZM28.64,140.82c-1.79.11-3.14,4.59,1.94,5.25,3.58,0.51,8.17-1.27,10.44-.44,2.65,4.26,5-2,1.48-3-3.8-1.1-11.53,1.77-12.39-.67A1.65,1.65,0,0,0,28.64,140.82Zm30.47,70L49,228.88l64.79-.39-8.47-17.23C105.44,211.07,77,214.67,59.11,210.82Z" transform="translate(-0.3 -0.3)"/><path id="path3446-6-3-4" class="cls-3" d="M72.94,39.41l1.28,2.35c15.18-2.52,27.13-2.92,42.83.14l1.43-2.45C104.15,36.85,89.54,35.77,72.94,39.41Zm14.31,35.4,13.24,8.65,9-6.44-1.64-2.43c-5.6,12.46-15.45,2.61-19.14-3.26C88.76,71.33,87.76,73.6,87.25,74.81ZM122.82,79a1.84,1.84,0,0,1,1.89,1.28c0.52,1.06.72,0.8,0.38-.53-0.53-2.09,1.67-3.46,3.75-2.06,1.5,1,1.43,3.45-.2,3.9-1.32.37-1.36,0.72-.2,0.66,2.08-.1,2.64,2.7,1.16,4.08a2.36,2.36,0,0,1-4.08-1.52c-0.09-.56-0.21-0.55-0.39-0.23a5.44,5.44,0,0,0-.47,3.17l-3.08-1.93a7.87,7.87,0,0,0,2.56-1.71,0.6,0.6,0,0,0,.18-0.24,2.73,2.73,0,0,0-1,.09c-1.86.2-3.29-1-2.91-2.79A2.33,2.33,0,0,1,122.82,79h0Zm-13.58,48.77c3.35-3.87,7.51-6.35,13.29-6,0.73-16.21,6.3-30.61,15.22-43.6l-9.81-6L124,74.61C114.94,88.22,108.75,105.36,109.24,127.77ZM35.72,89.9s-6.64,5-9.73,7.44L26.14,142l0.86,0.3a1.8,1.8,0,0,1,.32-1,4.44,4.44,0,0,1,1.13-.72c0.85-.31.89-0.89,0.09-1.38a1.88,1.88,0,0,1-.78-2,1.68,1.68,0,0,0-.27-1.33,2.33,2.33,0,0,1-.08-2.11,0.86,0.86,0,0,0-.12-0.94,2.47,2.47,0,0,1-.12-2,5,5,0,0,0,.15-1.33c0-1.78,1.42-3,4.11-3.33,1.05-.15,1.08-0.19.6-1.08-2.72-5,3.39-7.64,3.85-6.83Zm83.78,2.49a4.54,4.54,0,1,1-4.43,4.6A4.52,4.52,0,0,1,119.5,92.39Zm0,0.81a3.64,3.64,0,1,0,3.66,3.58A3.62,3.62,0,0,0,119.54,93.21Zm0.09,1.15a2.47,2.47,0,1,1-2.41,2.5A2.45,2.45,0,0,1,119.63,94.36ZM30.31,96.22a1.78,1.78,0,0,1,.58.09,1.46,1.46,0,0,1,.91,2.3c-0.48.74-.42,0.81,0.41,0.49a1.18,1.18,0,0,1,1.51.35c1.55,1.55-.76,4.16-2.28,2.58-0.75-.78-0.82-0.55-0.3.79,0.17,0.44.45,1.11,0.45,1.11l-2.23,0,0.51-1.32c0.39-1,.4-1.17-0.41-0.53a1.72,1.72,0,1,1-2.2-2.64,1.48,1.48,0,0,1,1.64,0q0.83,0.33.2-.46A1.64,1.64,0,0,1,30.31,96.22Zm46.18,4c-0.91,6-.12,14.39-0.13,18.88,2.42,0.46,2.44,2.13,2.81,4.19,1.17-.41,3.74,1.34,4.09,1.18C83.53,118.41,80.4,100.77,76.49,100.23Zm40.09,6c3.43,0.28,2.77,3,1.75,4-0.48.56-.39,0.82,0.14,0.49,1.45-.88,2.6-0.25,3.06,1.28,0.8,2.6-2.59,4.84-4.1,2.51-0.51-.79-0.82-0.61-0.7.22a11.33,11.33,0,0,0,.85,2.45l-3.37-.3s1-1.73,1.21-2.19c0.37-1,.18-1.22-0.54-0.44-2.1,1.94-5-.54-3.66-3.12a2,2,0,0,1,3.24-.67c0.9,0.59,1.09.34,0.29-.38-1.5-1.34-.19-4,1.83-3.87h0Zm-86.1,2.12h0.11a1.87,1.87,0,0,1,.89.26,1.51,1.51,0,0,1,.54,2.23c-0.3.47-.21,0.76,0.14,0.46a1.45,1.45,0,0,1,1.91.5c1,1.64-1,3.79-2.28,2.42-0.57-.6-0.79-0.63-0.72-0.23,0.19,0.74.67,2,.67,2l-2.33,0a15.23,15.23,0,0,0,.61-2c0.09-.54-0.13-0.46-0.68.18a1.13,1.13,0,0,1-1.72.22c-1.7-1.14-.34-4.05,1.43-3.07,0.61,0.34.7,0.14,0.22-.49a1.54,1.54,0,0,1,1.21-2.5h0Zm121-1c-3.77,3.93-2.59,1.61-.84,4.61,0,2,1.15,3.53.24,6.65a1.81,1.81,0,0,0-.16,1.51c-0.28,3.45-3,3.4-5.67,3.94,0.44,0,4.22,7-2.83,7.56l0.08,28.61,11-8.22,0-44.66h-1.82ZM68.62,122.42c-3.13,2-7.53,7.12-13.06,6A78.74,78.74,0,0,1,40.81,172,93.9,93.9,0,0,0,49.73,177,28.11,28.11,0,0,0,56,173.21C66,157.69,69.13,140.73,68.62,122.42Zm26,3.26c0.56,9.17,2,17.85,6.76,24.82L101.69,131c-1.68-.41-3.06-1.51-3.55-4.62Zm-34.15,5.41,3.16,0.08s-0.72,1.44-1,2.25c-0.38,1-.2,1.18.52,0.5a2.38,2.38,0,0,1,3.22-.18c2.09,2.11-.1,5.55-2.56,4-1.06-.65-1.23-0.43-0.39.48,1.63,1.53-.07,3.73-2,3.74A2.44,2.44,0,0,1,59,139.65a2.06,2.06,0,0,1,1-1.92c0.69-.39.2-0.65-0.55-0.24-2.45,1.33-4.09-2.09-2.24-4,1.07-1.12,2.19-1,3.28.05q1.14,1.12.81-.2a11.14,11.14,0,0,0-.84-2.22h0Zm85.23,2.68h2.26c-0.22.56-.51,1.14-0.69,1.7s-0.05.69,0.55,0.1c1.56-1.06,3.22,0,2.88,1.67a1.56,1.56,0,0,1-2.3,1.22c-1-.44-0.66-0.25-0.11.42a1.52,1.52,0,0,1-.38,2.36,1.77,1.77,0,0,1-2.56-2.31c0.6-.94.33-0.84-0.22-0.39-0.82.61-2.07-.25-2.09-1.45-0.09-1.72,1.62-2.68,2.83-1.47,0.58,0.49.72,0.43,0.46-.28A12.61,12.61,0,0,0,145.69,133.77Zm0.12,12.48,2.37,0a4.27,4.27,0,0,1-.4.88c-0.43.81-.36,1.66,0.08,1.08a1.73,1.73,0,0,1,2.89.48c0.61,1.37-.58,2.89-1.82,2.31-0.81-.37-0.86-0.29-0.33.49a1.55,1.55,0,0,1-.56,2.24c-1.66,1.07-3.66-1.07-2.27-2.44,0.37-.37.25-0.55-0.2-0.3-1.84,1-3.19-1.5-1.6-3,0.68-.63,1.19-0.58,2.31.19,0.35,0.24.41,0,.16-0.62A7.16,7.16,0,0,0,145.81,146.25Zm-88,1.5a4.82,4.82,0,1,1-4.71,4.89A4.8,4.8,0,0,1,57.8,147.75Zm0.05,0.86a4,4,0,1,0,4,3.9A3.94,3.94,0,0,0,57.85,148.61Zm0,1.52a2.44,2.44,0,1,1-2.38,2.47A2.42,2.42,0,0,1,57.9,150.13Zm-6,11.68,2.76,1.36s-1.3,1.07-1.82,1.62c-0.66.71-.62,1,0.28,0.7a2.4,2.4,0,0,1,3.45,2.11c0,2.39-2.76,3.54-4.1,1.73-0.4-.54-0.88-0.76-0.69-0.32a2.55,2.55,0,0,1-.62,3,2.72,2.72,0,0,1-2.38.27c-2-1.05-2.12-3.4-.19-4.32,1-.47,1-0.9,0-0.66-2,.5-3.14-1.92-1.71-3.59s4-1.4,4.27,1.21c0,0.46.36,0.13,0.5-.58A16.48,16.48,0,0,0,51.89,161.82Zm25.71,3.93s-10.1,5.8-9.79,6c0.06,0,2.24,3.13,2.24,3.13,5-11.46,17-2,18.93,3.88a5.43,5.43,0,0,0,.94.39c0-.41.88-4.48,0.88-4.48ZM61,208.06l-1.63,2.34c-0.56.24,25.18,4.64,45.48,0.17l-1.4-2.69c-16.54,4.26-42.71.48-42.45,0.18h0Z" transform="translate(-0.3 -0.3)"/><path id="path3444-9-5-7" class="cls-4" d="M24.38,19.86V230.39H155V19.86H24.38Zm39.16,1.63,65.58-.26L117,42.18c0.12-1.1-23.57-4.49-42.92-.36ZM26.23,22H61.89l12,21.73a4.12,4.12,0,0,1,.28,2.78,14,14,0,0,1-1.27,3c0-.45-3.47-0.9-3.17,2.13a2.79,2.79,0,0,0,4.69,1.62c0.31,0,.3.26,0.24,0.76-0.18,1.18-1.41,4.9-2.26,5.15-4.32-3.57-5.86,3-2.95,4.25A4.54,4.54,0,0,0,75,61.52c0.93-1.56.82-1.31,1.12,0.59,0.11,0.71.26,1.52,0.34,1.89,0.25,1.15,0,1.37-1.92,1.9a30.17,30.17,0,0,1-4.7,1.29,5.22,5.22,0,0,0-4.47,5.39,2.14,2.14,0,0,1-.12,1,136.51,136.51,0,0,0-39,22.58V22Zm81.86,51.68a42.31,42.31,0,0,1-2.37-6.42c-1.07-8.08-1.27-17.68-2.41-25.2l1.5,0.17A63.48,63.48,0,0,1,106,50.27c0.3,2.92.62,9,.87,11.77,0.38,4.14,2.23,10.77,3.38,12.44,1.87,2.73,5.64,1,4.38-2.28-0.65-1.68-3.18-1.41-2.83.34,0,0.31.24-.22,0.61-0.55a1.44,1.44,0,0,1,1.68,2.11c-0.8,1.77-3.16,1-3.94-1.27-0.94-2.66,2.22-4.65,4.57-3,2.63,1.81,2.63,6.39.52,7.83-3.56,1.31-6-1.31-7.14-4h0Zm8.8,3.37c-0.14-.09,0-0.36.18-1a6.23,6.23,0,0,0-1.34-6.22c-0.88-1-1.22-1.19-.75-1.37,1-.39,3.15,1.2,3.74,2.76a5.82,5.82,0,0,1-.09,4.85C118,76.39,117.15,77.13,116.89,77Zm2.68-1.65c0-.29.19-1.2,0.23-1.65a6.05,6.05,0,0,0-2-4.85c-1.19-1.15-1.3-1.27-.17-1.29,2.9,0,4.74,4.68,3.41,7C120.65,75,119.6,75.73,119.57,75.38Zm2.45-1.6c0.85-4-3-6.72-3.09-6.59,0.19-.9,1.73-0.38,2.25,0,2,1.32,3.07,4.78,1.88,6.75a1.28,1.28,0,0,1-.5.51c-0.4.26-.64,0.46-0.72,0.28a4,4,0,0,1,.18-0.91h0Zm-34-13.07c0.4-.4.52-0.41,1.3-0.12,2.43,0.93,4.37-.83,3.8-2.68a2.5,2.5,0,0,0-1.68-1.46c-0.92-.1-0.93.39,0.05,0.76a1.24,1.24,0,0,1,.27,2.34c-1.25.85-3.31-1.31-4.81-1.13a1.17,1.17,0,0,0-.77,1.73A1.46,1.46,0,0,0,88.05,60.71Zm-2.69-.26c-0.84-.39-1.16-0.39-1-1.32,0.11-.61,1-4.72,1.38-6.31,1.23-4.76.07-7.39-3.4-8.46a8.25,8.25,0,0,0-6.79.93L75.11,44c10.07-2.66,27.25-2.07,27.19-2a28.1,28.1,0,0,1,.6,4.1A49.24,49.24,0,0,0,98,44c-2.59-.8-6.68.08-7.4,1.58-0.41.85-.2,1.42,1.54,0.47,2.85-1.55,8.66-.37,10.71,1.27a0.85,0.85,0,0,1,.46.9c0,0.68.05,0.72-.88,0.21-4.88-2.52-9.06-2.23-10.5,1.08-0.33-.1-1.6-0.32-1.6-0.32l1.36,2,0.26,2.12s2.22,1.24,3.45,1.77,0.51,0-1-1.07c-1.09-.76-0.22-1,0.49-0.72a7.31,7.31,0,0,0,6.12-.82,2.93,2.93,0,0,1,2.58.16s0.24,1.86.47,5.73c0.11,1.83.33,4.23,0.46,5.21,0.38,3,.49,3.14-1.05,1.72a17.79,17.79,0,0,0-1.4-1.22c-0.2.92,2.09,2.54,2.62,3.09,0.81,0.84,1.46,3,1.13,3.13s-2.38-1.78-4.08-3.45a17,17,0,0,0-1.62-1.44c-0.35.24,1.08,1.87,2.43,3.09,1.57,1.43,1.75,1.55,1.22,1.77-1,.4-1.85-0.1-4.21-2.07a7,7,0,0,0-1.17-.79c-0.22.29,2,2.37,2.46,2.55,0.92,0.33,1.18,1.23.46,1.58-0.48.23-2.29-.76-3.73-2a3.08,3.08,0,0,0-1-.56c-0.29.19,1.33,1.6,2.87,2.53s1.75,1.14,1.37,1.91-3.67-1-5.33-2.91c-0.35-.4-0.63-0.57-0.56-0.44,0.72,2,3.1,3.47,4.87,4a3.82,3.82,0,0,1,1,.4c0.5,0.4.39,0.82-.15,1.06-1.89.53-4.86-1.77-7-4.18-0.25-.1-0.1.21,0,0.32,1.77,2.86,5.17,5,7.22,4.63,1.2-.24,2.16.13,2.17,0.53s-0.65.86-1.94,1c-2.91.21-7.46-3-10.11-7.1-0.08-.13-0.18-0.17-0.19-0.1-0.07.87,1.58,3,2.85,4.21,3.77,3.61,7.33,4.84,10.11,2.8,1.57-1.23,3.08-3.9.75-4.8-1.24-.47-2,1.24-1,0.75,1.39-.17,1.7.57,1.52,1.27a1.63,1.63,0,0,1-2.49.89c-1.67-.91-1.31-4,0.84-4.58a3.32,3.32,0,0,1,3.86,2.77c0.35,2.45-2.39,5.11-4.59,5.77-7.5,2.25-13.35-8.26-13.38-8.5-0.38-.73-0.83-1.12-1.11-0.27-0.31,1.23-2,4.85-2.9,4.83,0.28-1.28,1.47-3.42,1.18-5.3C85.91,72,84.86,75.29,82.84,77c-0.52.48-2.06,1-1-.19,1.28-1.81,2.94-4.29,2.6-6.61-0.34.52-.52,1.84-0.91,2.72-1,2.19-3.09,4.78-4.48,5.2-1,.31-0.94,0,0.12-1.16s3.14-4.74,3-6.26c-0.06-.67-2.08,5.82-5.88,7.6a1.67,1.67,0,0,1-1.61-.1c1.5-.87,5.63-5,5.24-9.65l-0.55,1.73C78,74.77,75,77.7,72.61,77.94c-1.87.19-3.18-.57-2.71-0.91a6.54,6.54,0,0,0,6-3.22c1.58-2.43,2.17-6.33,1.21-10.45a71.1,71.1,0,0,1-1.36-10.65c2.66,0.92,5.33,1.53,7.92.51-0.26,1.07-.69,1.2-1.38,2-0.5.59-.33,0.73,1.61-0.65,0.56-.4.77-0.72,0.87-0.62s-0.09,1.27-.65,3.46c-0.84,3.27-.62,3.51,2.49,4.74a2.15,2.15,0,0,1,1,.7c0.1,0.11.61,1,.65,1.08a2.58,2.58,0,0,0,0-1.21,2.38,2.38,0,0,0-.86-1.41,6.35,6.35,0,0,0-2.06-.88h0Zm58.78,42.67,0-3.4,3.27,2.34,0,1.12Zm-5.59.74L138.43,41l3.76-2.52c0.78,2.49.78,7.83,0.48,10.21-0.49,1.55-.71,8.44-0.15,12a35.8,35.8,0,0,1-.06,9.63,61.7,61.7,0,0,0,.27,8.67,26,26,0,0,1-.18,7,28.72,28.72,0,0,0,.13,7,59.88,59.88,0,0,1,.33,10.42C142.49,104,138.27,104.06,138.55,103.85Zm5-65.75s2.53,1.68,3.75,2.53l0,2.71-3.65-2.41ZM105.8,42.48l1.56,0.1A92,92,0,0,1,108.5,53.3c0.08,5.75.78,11.81,2.12,15.79l-1.15,1.22c-2-4.55-2.11-11.74-2.55-16.6a92.87,92.87,0,0,0-1.13-11.22h0Zm38-.57,3.4,2.32,0,2.94-3.42-2.29v-3Zm-35.77.79,1.37,0.15c0.42,3.88,1.06,6.52,1.3,10.8C111,59.18,112,63.72,112.59,68l-1,.34c-0.69.32-1.83-4.79-2.34-15.14-0.15-3.13-.68-6.66-1.17-10.55h0Zm2.08,0.15,1.64,0.3a190,190,0,0,0,3.07,24.36l-1.43.1c-1.77-7.56-1.88-16.31-3.28-24.75h0Zm2.37,0.35L114,43.45c1.81,22.49,2.93,22.2,3.28,23.08l-1.63.67c-1.76-6.46-2.12-15.57-3.16-24h0Zm6.84,22.09c-0.26.76-.87,0.69-1.53,0.76a33.93,33.93,0,0,1-1.5-6.94c-0.69-5.3-.94-10.26-1.65-15.49l1.8,0.19c-0.06,0,1.28,18.44,2.88,21.48h0ZM80.68,45.51C83,45.63,85,46.7,85.2,48.27c0,0.35-.24.18-0.56-0.07a7,7,0,0,0-7.15-1.05,5.26,5.26,0,0,1-1.38.52A0.64,0.64,0,0,1,76,46.82C76.63,45.72,79.5,45.45,80.68,45.51Zm-5.49,3.15c0.05,2.48-.55,3.84-1.83,4.41-1.55.69-3.55-.79-2.58-2.44,0.73-1.25,2-.87,2.23.44l2-4.44s0.2,1.41.21,2h0Zm72.11-.4,0,2.55-3.64-2.46,0.24-2.45Zm-64.63-.33c1.79,0.72,2.45,1.59,2.52,2-0.1.29-.28,0.09-1.59-0.62a6.23,6.23,0,0,0-7,.13c-0.58.11-.64-0.21-0.06-0.84A6.21,6.21,0,0,1,82.67,47.94Zm13.63-.48a10.94,10.94,0,0,1,5.06,1.16,8.49,8.49,0,0,1,1.8,1c0.37,0.19.4,1,.13,1.1a2.21,2.21,0,0,1-1.22-.57c-3.79-2.48-6.51-2.18-8.71-.65a1.51,1.51,0,0,1-.65.16c-0.42,0-.44-0.2-0.26-0.43a5.46,5.46,0,0,1,3.85-1.76h0Zm47.34,1.79,3.65,2.57v2.53l-3.88-2.72Zm-65.9,1,0.53,0c1.24,3,2.8,1.47,3.45.26l0.65,0.11c-1,4.07-5.15,1.94-4.63-.38h0Zm-0.91.41c0.6,0.07.58,0.76,0.77,1.26,0.42,1.12-1.18.17-1.45-.1C75.68,51.35,76.34,50.73,76.83,50.68Zm18.07-.12c1.57,2.42,2.48,1,3.38-.07l0.43,0.14c-0.11,1.74-3,3.59-4.38,0Zm4.84,0.27a3.11,3.11,0,0,1,.82.25c0.86,0.35.82,0.61-.14,1-1.52.68-2.05,0.77-1.6-.19a1.73,1.73,0,0,1,.92-1.09h0Zm-6,.37a1.46,1.46,0,0,1,.68,1.11c0,0.36-1.16-.05-1.16-0.63C93.32,51.32,93.52,51,93.76,51.2Zm-10.55.14c0.78,0.29.69,0.67,0.14,1-1,.55-1.4.44-0.76-0.42A0.91,0.91,0,0,1,83.21,51.34Zm60.18,1.27,4,2.8,0,2.58-4-2.72a10.29,10.29,0,0,1,0-2.66h0Zm-68.33,4c0.19,0,.26.63,0.31,1.54,0.07,1.52-1.46,3.64-3,4.37-1.87.88-3.87-.35-3.53-2.18s2.68-1.75,2.77-.2a0.46,0.46,0,0,0,.22.72,5.83,5.83,0,0,0,2.63-2.93A5.79,5.79,0,0,1,75,56.64,0.13,0.13,0,0,1,75.07,56.6Zm68.22-.47,4,2.91,0,2.56-3.92-2.72a13.5,13.5,0,0,1-.05-2.75h0ZM95.35,60.18c-0.3.51-.05,1.41,0.56,0.64a1.63,1.63,0,0,1,2.63,1.94c-1.11,1.33-2.47.9-5.35-.2-2.1-.81-2.43-0.53-2.94.05S90,64,90.59,64c1.7,0.39,3.17.77,4.93,1.14,3.72,0.77,6-4.06,2.59-5.84A2.46,2.46,0,0,0,95.35,60.18Zm-16.4.56c-1.45,1.31-.26,4.76,1.87,5.07a4.58,4.58,0,0,0,1.87-.17c1.49-.43,3.14-1.33,3.2-1.84,0.31-2.36-3.17-.24-3.63,0a2.07,2.07,0,0,1-2.84-.21c-1.32-1.8,1-3.86,2.48-1.66,0.36,0.56.23-.39-0.16-1A1.94,1.94,0,0,0,78.95,60.73Zm64.6-.74,3.71,2.65,0,2.46-3.6-2.62Zm0.28,3.61,3.52,2.55,0.06,2.56-3.69-2.45c0.07-.92.09-1.79,0.11-2.66h0Zm-19.72,1.47c3.09,0.05,4.84,4.66,3.21,6.58-0.49.57-.87,0.72-1.09,0.51a7.72,7.72,0,0,1,.06-1.14,5.42,5.42,0,0,0-1.64-4.54C123.64,65.41,123.25,65.09,124.11,65.07ZM86,65.8a3.88,3.88,0,0,1-1.68.53,0.72,0.72,0,0,0-.88.51c-0.71,1.43-.49,1.89.91,1.08,0.67-.39.9-0.25,2.68,0.09a6.67,6.67,0,0,0,3.26-.07c1.39-.36,2.22-0.39,2.93,0s1.19,0.92,1.2.49-0.52-1.82-.62-2.25c0-.21-0.4,0-0.72,0-1.15.08-2.53-1-3.42-.41-0.71.44-.81,0.56-1.79,0A1.88,1.88,0,0,0,86,65.8Zm37.24,0.32c2.09,1.76,2.63,3.33,2.43,4.62-0.1.93-.17,2-1.08,2.53a2.46,2.46,0,0,1-.65.16c0.7-2.65-.13-5-3.09-7.57A2.12,2.12,0,0,1,123.28,66.12Zm-47.22,0a1,1,0,0,1,.3,0,1.09,1.09,0,0,1,.13,1.38c-0.29.3-.52,0.05-0.85-0.71A0.44,0.44,0,0,1,76.05,66.12Zm-1.93.75a1.32,1.32,0,0,1,1.19,1.25c0.11,0.48,0,1.91-.44,1.41A4.51,4.51,0,0,0,74,68C73.29,67.43,73.36,66.88,74.12,66.87ZM72,67.58a2.3,2.3,0,0,1,.43,0c1.19,0.2,2.11,2.12,1.83,3.21-0.63,1.17-.87.38-1.07-0.68a6.5,6.5,0,0,0-1-1.48C71.58,67.92,71.48,67.59,72,67.58ZM143.72,67l3.63,2.63v2.81l-3.8-2.58c0.08-1,.13-1.93.16-2.86h0ZM69.61,68.16c1.78,0,3.3,2.09,2.74,4.11s-4.16,1.65-3.58-.44a1,1,0,0,1,1.41-.67c0.88,0.54.78-.34,0.22-0.66a1.55,1.55,0,0,0-2.31.79c-0.92,3.43,3.44,4.59,5.82,1.05,0.87-1.29,1.81-2.68,2.33-3.27s0.57-.47.49,0.21c-0.3,3.18-2.5,7.16-6.62,6.94-4-.38-5.26-4.68-2.23-7.35A3,3,0,0,1,69.61,68.16Zm21.23,0.17a4.74,4.74,0,0,1-4.24.35c-1.07-.47-1.05,0-0.59.46,1.34,1.15,3.78.63,4.82,0,0.34-.21.45-0.82,0-0.79h0Zm56.53,5.09V76l-4.06-2.74a11.67,11.67,0,0,1,.14-2.5Zm-3.91.85,3.86,2.57,0.1,2.54L143.67,77Zm0.27,3.56,3.69,2.58,0.05,2.77-3.66-2.43Zm-90,2.91-2.26,6.89L53,87.72l1,1.82,1-1.86,1.56-.12Zm90.14,0.92,3.56,2.47,0.05,2.56-3.69-2.58Zm-0.14,3.13,3.65,2.66,0.07,2.72-4.13-2.78ZM62.16,86.33L59.93,93.7l1.26-.17,1.18,2,1.19-1.77,1.13,0.06Zm-16.83.55L43.2,94.21h1.43l1.21,1.85,1.06-1.78,1.62,0Zm97.93,1.35,4.28,3,0,2.88-4.15-2.8Zm4.23,6.85,0,2.53L143.94,95l-0.39-2.81Zm-76.38.43L68.5,103l1.75,0,1.06,1.79,0.85-1.8h1.41Zm73.07,0.74,3.34,2.31,0,2.59-3.29-2.22ZM80.87,126.4L79,124.55a2.73,2.73,0,0,1,2.53-.43,2.46,2.46,0,1,1-2.42,4.26Zm-1.69-3a3.9,3.9,0,0,0-2.68-4.16s-0.21-18.07-.18-18.61c0,0.08-.32-2-0.35-2.08h0l-0.3-.08c0.05,1.83.17,20.61,0.14,20.73-2.3.27-2.95,1.84-3.15,4a3.47,3.47,0,0,0-3,1.14C69,123.33,69.49,122,69,121c-1.59,5.62,1.5,9,4.21,8.67,0.43,5.39,6.32,6.37,6.12-.17C86.41,129.09,84,122.48,79.18,123.35ZM45.72,100.67L43.14,108l1.81-.21,0.66,1.35c2.9-2.57,4.36,1.4,2.88-2Zm98,13a0.91,0.91,0,0,1,.86.69c0.06,1.23-1.58,1-1.63.18A0.84,0.84,0,0,1,143.73,113.65Zm1.07,8a1.09,1.09,0,0,1,1.85.63c0,0.78-.87,1-1.57.6a0.81,0.81,0,0,1-.28-1.23h0Zm0.1,2.17c3.88,0.3,6.76-2.36,5.53-4.27,1-1.32.19-2.08,0.48-2.84a2.39,2.39,0,0,0-.07-2.69c-0.17-2.46-.88-2.77-1.93-4.08-0.32-.38.74-0.75,1.14-1.4-1.24.33-1.9-.3-2.57-1.14-7.18.34-13.63,0.84-13.38,10.67-1,4.17.72,7.89,5.73,6.74,1.1-1,.37-2.42.24-3.11a8.57,8.57,0,0,1,.2-4c0.43-2.75,2.42-5.3,2.64-1a1.2,1.2,0,0,1,.76-0.84c1.38-.5,1.37.9,1.09,1.47a0.65,0.65,0,0,1-.73.23,1.39,1.39,0,0,1-.93-0.35c-0.11.45,0.73,1.28,0.64,1.7s-0.18.37,0.18,0.1c1.73-1.25,2.81,1.54.31,1.22C145.45,120.89,143.63,122.84,144.91,123.83Zm-2.56-15c1.36-.07,1.69-0.08,1.62.64,0.26,1.33.59,1.95,2.31,1.81s2.28-.34.54,0.72a3.4,3.4,0,0,1-2.21.37c-1.05-.1-1-0.2-1.57.16a3.72,3.72,0,0,1-1,.5l-1.12.23a7.91,7.91,0,0,1-1.87,4.09c-1.2,1.38-1.81,1.62-.34,1.51,0.54,0,.26-0.24.5,2a11.82,11.82,0,0,0,.34,2c0.38,1,.43,1.52-1,1.59-3.63.28-4.48-3.29-4-5.11,0-.29.21-1.24,0.24-2,0-.41-0.06-0.76-0.05-1.18,0.08-3.4.88-4.29,3.87-6.5A7,7,0,0,1,142.35,108.83Zm3.19,0.18c1.68,0,3.3.78,2.49,1.31a4.15,4.15,0,0,1-2.93-.18C144.42,109.66,144.67,109,145.54,109ZM70.8,111.9l-0.66,1.19a12.39,12.39,0,0,1-.57,6.65l1.37,1.81L72,119.68l1.71,0Zm78.37-.55a1.23,1.23,0,0,1,.85,1.83c-0.61,1.35-4.67,2-4.67,2a3.12,3.12,0,0,0-.37-1.8,13.84,13.84,0,0,0,3.28-1.24,2.44,2.44,0,0,1,.91-0.81h0Zm0.8,3.08a0.82,0.82,0,0,1,.71.88,1.19,1.19,0,0,1-.32.92,7,7,0,0,1-5,1.63,10.13,10.13,0,0,1,.18-1.82C147,116.08,149.3,114.84,150,114.43Zm-41.31,7c-1.38-2-4.46-1.72-4.13-1.58,0-1.73-.27-4.1-2.87-4.35s-4,3.29-3,4.76c-1.62-.68-4,1-4,1.18-0.21,0-2.06,4.95,3.55,5.2a5.69,5.69,0,0,0,3.18,4.42l0,19,0.63,0.86L102.11,131c2.87-.13,3.22-3.44,3-4.2a5,5,0,0,0,3.41-1l0.34,3.25a3.43,3.43,0,0,0,.52-1.76c-1.25-18.69,5.45-38.91,14.25-52a5.67,5.67,0,0,1,.85-1.21c2.14-1.17,3.5-2,3.5-2,3.54,1.72,9.85,5.86,9.85,5.86l0.1,26.64c-0.1-.26,11.77-1.34,11.59-1a1.66,1.66,0,0,1-1.06-1.11l-0.31-62.33L143,36.74s-4.27,2.82-5.46,3.78l0.13,36.7-9.2-5.44s0.15-1.3.16-1.72c-0.15-5-2.58-6.69-7.22-5.2A1.48,1.48,0,0,1,120,65c-2-5.76-2.83-20.9-2.83-20.9L130.28,21.7l22.2-.12,0.38,85.5,0.8,44.81-11.33,8.33-0.17-28.71a14.35,14.35,0,0,0-2-.84,0.29,0.29,0,0,0-.08.53,10.5,10.5,0,0,0,1.44.64l0.24,28.45s-4.4,3-6.37,4.24c-3.68,2-7.31,4-11.11,5.67s-12,5.09-12,5.09c-0.72-2.39-7.8-8-15.77-4a10.47,10.47,0,0,0-2.24.94c-3,.56-4,3.83-4.49,7,0,0.13.24,0.1,0.25,0.11s0.72-3.06,1-3.64a4.2,4.2,0,0,1,1.71-2.12c0.18,0,.33.25,0.09,0.69a13.56,13.56,0,0,0-1,3.58,2.29,2.29,0,0,0,0,1.43s0.71-2.35,1-3.19c0.8-2.19,1.3-3.09,2.07-3.56s1-.41.82,0.1a16.33,16.33,0,0,0-1.89,6.51c0,0.49.21,0.5,0.4-.31,0.64-2.58,1.52-6.07,3.6-7.11,0.89-.41,1.28-0.39,1.19-0.1a14.13,14.13,0,0,0-3.07,7.8c0,0.38.16,0.3,0.48-.52,0.84-3.12,2.08-5.76,3.56-7.06a3.29,3.29,0,0,1,1.84-.71c1.75-.22,1.81.44,0.29,1.33-1.74,1-3.74,4.73-4,7.52-0.08,1,.26,1.07.5-0.22,1-5.54,5.73-9.2,9.51-7.51,1.7,0.76,2,1.82.53,1.35-3-1-6.31,1.18-7.68,4.17-1.24,2.7-1.21,4.11-.34,7.73,0.59,3.34,1.75,7.6,1.37,10.87-0.41.64-1.71-.26-3.24-0.45a5.7,5.7,0,0,0-3,.15c-0.84.33-1.32,0.41-1.48-.05a5.94,5.94,0,0,1,1-1.26c0.5-.64.21-0.74-0.49,0a8,8,0,0,1-1.28,1.17c-0.44.09-.46-0.41-0.1-1.7,1.26-5,.92-5.07-1.23-6.08-2.13-.82-1.46-1.23-2.4-2-0.67.53,0.87,2.93,2.61,3.46,1.42,0.43,1.25,1.16.63,3.14-0.63,2.76-1.71,6.42-1.09,8.87,1.31,5.15,6.49,5,10.46,3l0.48,1.31c-3.36,1.37-21.05,2.54-27,1.85a16.87,16.87,0,0,1-.69-4,31.6,31.6,0,0,0,5.52,2c2.3,0.36,5.83.38,6.74-1.75,0.28-.63,0-1.15-0.8-0.79a13,13,0,0,1-11.09-.39,1.18,1.18,0,0,1-.52-1.63,2,2,0,0,1,1.06.44c3,1.55,4.72,1.85,6.7,1.26,1.51-.45,3.54-2.09,3-2.56-0.51.18-2.2,1.61-3.36,1.92-2.4.64-5-.34-7.44-2-0.77-.67-0.42-1.16.52-0.63,3.73,1.89,5.28,3.15,8.85.49a1.21,1.21,0,0,1,1.71-.16c1.85,1.67,1.85.73,0.49-1a5,5,0,0,1-.77-1.54,3.28,3.28,0,0,0-.41-1.16,5.93,5.93,0,0,0-2-1.11c-1.25-.56-1.67-0.29-0.74.17,1.62,0.8,2.4,1.65.4,1.19a7.63,7.63,0,0,0-6.58.84c-1.35.66-1.95,1.38-2.27-.13-0.67-3.14,0-7.4-.91-12.88-0.17-1-.38-1.71-0.16-1.85s1,0.49,1.83,1.71a5.1,5.1,0,0,0,1.17,1.4c0-1.16-1.76-3.34-3.23-4.2-0.81-.47-1.36-2.65-0.43-2.17A27.42,27.42,0,0,1,77.54,184c0.33,0.55.61,0.2,0.26-.45a14.38,14.38,0,0,0-1.94-2.36c-1.51-1.49-1.68-1.42-1.39-1.72,0.57-.6,1.8.17,4,2.17,0.56,0.71,1.3,1.36,1.21,1,0.22-.56-2-2.93-3.27-3.57a0.54,0.54,0,0,1-.25-0.61c0.12-1.12,2.64.53,4.72,2.45,0.78,0.72.13-.64-0.77-1.56a9.58,9.58,0,0,0-2.64-1.93c-0.77-.32-0.82-1-0.21-1.29,2.09-.09,4.25,2.07,5.54,3.76,0.36,0.47.68,0.82,0.31-.06a7.9,7.9,0,0,0-5.39-4.45c-1.4-.25-1.36-1.52-0.05-1.37s3.8,1.47,5.81,3.51c0.58,0.59,1.56,1.93,1.36,1.15a7,7,0,0,0-1.33-1.87,12,12,0,0,0-5.56-3.52c-0.94-.27-3.74.28-3.76-0.21s0.29-.58,1.19-0.88c3.46-1.16,8.53,1.84,11.3,6.46a0.67,0.67,0,0,0,.6.4c-1.34-3.77-5.5-7.19-8.8-7.78-2.25-.36-4.52.22-5.6,1.75-1.21,1.72-.74,4,1.08,3.84,1-.09.88-0.64,0.86-0.65a7.44,7.44,0,0,1-1,.13,1.2,1.2,0,0,1,.71-2.3c2.1,0.26,2.39,3.6,0,4.3-2.16.65-3-.35-3.55-1.53-0.87-1.73.06-4.53,1.59-5.6,4.28-3,9.69-.49,12.74,2.49a13.7,13.7,0,0,1,3.31,5.11c0.18,0.44.56,0.39,0.38-.06-4.3-11.09-17.15-12.38-19-3.77-3.11-4.92-5.83-5.27-10-3.12-4.25,1.77-6.34,3.22-10.28,5.08l-8.92-4.83c-0.53-8.94-.23-17.91-0.19-26.86,0-.21-1.93.14-5.19,0.66-8.67,1.75-7.92-2.94-9.06-3.18-0.61-.12-0.56.14-0.73-16.36,0-4.79-.14-13.22-0.21-18.73s-0.09-10.09,0-10.19a6.45,6.45,0,0,1,1.1-.92c2.11-1.51,3.3-2.42,7.92-6a12.53,12.53,0,0,1,1.31-.94c0.53,9.91.05,20.33,0.32,28.85h0.39L36.32,89.86C35.52,89.65,54.54,78.42,65,74.77a1.47,1.47,0,0,1,.68.15c6,7.4,21.73,5.16,23-3.85,2.61,5.49,14.07,16.17,19.3,3.3,0,0,1.9,3.7,3.53,3.94,3.66,0.49,4.07-.09,12.12-4a88.71,88.71,0,0,0-14.94,47.12h0Zm-4.89-3.52a3.87,3.87,0,0,1,.1,2.06,0.71,0.71,0,0,1-.59.49l-1.78-1.54-1.74,1.63A2.44,2.44,0,1,1,103.77,117.88Zm46.08-.25c1.14-.07.55,1.25-1.14,2.15a3,3,0,0,1-2.32.52,1.93,1.93,0,0,1,.1-1.44,30,30,0,0,1,3.36-1.23h0Zm-73.71,2.5a2.35,2.35,0,0,1,2.41,2.49,3.14,3.14,0,0,1-.32,1.31l-2.12-1.58-1.62,1.74c-0.28.1-1.27-1.15-.59-2.51A2.53,2.53,0,0,1,76.14,120.13Zm30.63,0.74a2.42,2.42,0,0,1,.36,4.3c-0.82.46-2.12,0.72-2.73-.21l1.75-1.93-2-1.71a3,3,0,0,1,2.63-.45h0Zm42.77-.66a0.43,0.43,0,0,1,.47.41,1.63,1.63,0,0,1-1.48,1.91c-1,.24-0.92.36-1.4-0.55-0.38-.72-0.48-0.69.11-0.91S148.72,120.55,149.54,120.21Zm-50.68,1.23s-1.26,1.3-1.82,1.84l1.9,2c0.09,0.24-2.19,1.29-3.4-.29a2.76,2.76,0,0,1,.77-3.64C97.44,120.68,99.07,121.24,98.86,121.44Zm2.73-.23a2.05,2.05,0,1,1-2,2.08A2,2,0,0,1,101.58,121.21Zm-27.8,3.45L72,126.6l2,2.17a10,10,0,0,1-2.12.15c-2.69-.51-2.42-3.69-0.35-4.53A2.41,2.41,0,0,1,73.78,124.67ZM38,125.32s0.36,4.08.69,5.48c-0.22,1.59-1.24,2.68-1.69,4.31-0.24.73-1.16,1.7-1.34,0.68-0.66-1.27,0-2.83-.58-3.73a7.12,7.12,0,0,1-.38-2.21,2.19,2.19,0,0,1-.68-1.71c-0.11-2.89-.82-2.31-2.09-2.08C27,126.5,27,129.36,27.28,133c-0.7,3.41.59,2.6,0.55,3.21-0.07,1,.09,2.33.38,2.48,1.76,2,1.84,3.44,4.13,3.09,3.87,0.3,10-.28,11.34-5C44.5,130,44.76,123.66,38,125.32Zm38.44-.66a2,2,0,1,1-1.93,2A2,2,0,0,1,76.41,124.67Zm-36.75,1a3.13,3.13,0,0,1,2.3.83c1.52,1.47,1.58,2.8.91,8.45a5.44,5.44,0,0,1-1.48,3.5,13.3,13.3,0,0,1-4.78,2.36,7.72,7.72,0,0,1-2,.2,0.83,0.83,0,0,1-1-.76c0.13-1.32-1.2-1.44-2-1.37-1.37.06-1.51,0.2-.66-0.47s3.23-.78,3.66-0.33A4.26,4.26,0,0,1,37.61,137a2.49,2.49,0,0,1-.3-1.87c0.58-1,1.56-2.85,2.59-3.53,1-1.34.15-.73-0.48-0.71-0.36,0-.33-0.11-0.39-0.35a22.5,22.5,0,0,1-.61-4.16C38.41,125.82,38.93,125.72,39.66,125.71Zm-6.47,1.45a0.77,0.77,0,0,1,0,1.22,0.87,0.87,0,0,1-1.45-.61A0.9,0.9,0,0,1,33.19,127.15ZM101.72,130a2.57,2.57,0,0,1-2.38-3.47c0.34-.48.49-0.41,0.49-0.41l1.88,1.69,1.8-1.9A2.44,2.44,0,0,1,101.72,130Zm-70.53-2.75a3.21,3.21,0,0,0,.06,1.29c-0.33.23-1.72,0.65-2.46,1a0.65,0.65,0,0,1-.82-0.76c0.2-.84,1.41-1.38,2.3-1.64A1.13,1.13,0,0,1,31.19,127.23Zm0.31,2.39c0.5-.06.35,1,0.17,1.61a1.33,1.33,0,0,1-1.24.42c-0.88.05-2,1.07-2.46,0.91a1.12,1.12,0,0,1-.29-0.76c0.1-1.47,2.53-2,3.82-2.17h0Zm2.65,1.53a1.17,1.17,0,0,1-1.16.24,0.91,0.91,0,0,1-.2-1.64A1,1,0,0,1,34.14,131.15ZM107,128.72l-1,1.54-1.52,0,2.46,7.61,1.14-3c0.15-1.37.33-2.73,0.47-4.1Zm-32.33.64,1.94,1.6,1.67-1.72c1.24,2.79-.19,4.07-1.71,4C74.86,133.24,73.08,131.64,74.64,129.36ZM32,132.25c0.62-.12.35,1.56,0.27,1.61a8.85,8.85,0,0,0-2.8,1c-1.52,1.2-2.17.47-1.46-1C28.65,133,31.1,132.26,32,132.25Zm1.93,0.08a0.88,0.88,0,0,1,.74,1.41,0.92,0.92,0,0,1-1.54-.61A0.82,0.82,0,0,1,33.91,132.33Zm-1,4.26c0.09,0.39,0,.27-0.75.48a11.15,11.15,0,0,0-1.65.71c-0.94.48-1.21,0.74-1.54,0.68a0.8,0.8,0,0,1-.65-0.45c-0.33-1.09.55-2.19,2.59-3a7.93,7.93,0,0,1,1.44-.31C33,134.75,32.3,135.82,32.92,136.59ZM34.12,135a0.82,0.82,0,0,1,.43,1.54C32.83,136.94,33,135,34.12,135Zm-1.22,4.87a0.61,0.61,0,0,1,0,.94c-0.57.28-2.76,0-2.77-.58,0-.41.72-0.55,1.4-0.56A2.11,2.11,0,0,1,32.9,139.82Zm98.75,0.68-1.8,2.43,2.42,6.11,2.21-7.4-1.74.69Zm-102,6.28C30.1,165.6,30,208.72,30,208.72l5.31,3.64,5.59-4.05c-0.06-13.57-.11-22.94-0.16-35.51l8.19,4.54a4.34,4.34,0,0,1,.21,2.06c-0.57,4.69,3.93,7.73,6.91,5.88,1.15-.49,1.24-0.57,1.49-0.21,0.67,1,1.43,5.33,1.55,8.09,0.19,4.15,1.27,12.62,1.53,12.68L47.32,228.52H26.23V144a7.22,7.22,0,0,0,3.46,2.79h0ZM107,145l-1,1.54H104.8l2.12,7.88,2.56-7.7-1.41-.18ZM40.29,207.78s-2.59,1.88-3.42,2.42c-0.44.16-.65,0.2-0.75-0.22a14,14,0,0,1,.26-3.11,11.36,11.36,0,0,0-.08-3.71,19.21,19.21,0,0,1-.08-5.25,48.08,48.08,0,0,0,0-8.42,55.69,55.69,0,0,1-.05-8.52,30.43,30.43,0,0,0-.22-7.59c-0.67-3.77-.79-5.07-0.08-7.91a9.94,9.94,0,0,0,.34-3.41,42.43,42.43,0,0,0-.8-7c-0.4-2.52-.43-2.87-0.06-6.86a2.5,2.5,0,0,1,.41-1.6c0.35-.3,4.05-0.52,4.05-0.52Zm-9.73-60.93,4,0a14.59,14.59,0,0,0-.41,3.16l-3.58-2.37Zm0.06,1.63,3.54,2.33a20.5,20.5,0,0,0,.07,2.91l-3.59-2.4Zm0,3.7,3.79,2.62c0.15,1,.46,2,0.58,3l-4.3-2.94Zm122.59,1,0.2,75.31H115.68l-12-23.19a21.44,21.44,0,0,1,.42-3.22c0.36-1.32.45-1.6,1-1.67a2.51,2.51,0,0,0,3.3-1.26c0.56-1.26-.58-3.18-2.33-3.59a3,3,0,0,0-2.47.82c-0.5.42-.61,0.46-0.71,0.1-0.22-.82.5-3,1.79-5,0.72-1.06.91-1.37,1.14-1a2.3,2.3,0,0,0,3.71.37,2.85,2.85,0,0,0-1.36-4.34c-4.09-1.32-6,2.82-5.92,2.81l-0.88-5c4.92-1.22,7.77-1.65,9.33-3.15a6.53,6.53,0,0,0,1.67-5.06s13.68-5.61,20.08-9.09a153.81,153.81,0,0,0,20.78-14h0Zm-20.83.54-1,1.8h-1.44l2.9,7.58,2.22-7.92-1.38.12ZM30.8,155.93l4.34,3a12.86,12.86,0,0,1,.09,3l-4.57-3.05Zm84.75-.93-1.08,1.45-1.25-.13,2.44,7.51c0.74-2.17,1.42-5.12,2.15-7.29l-1.16.06Zm-84.82,4.79,4.49,3a5.63,5.63,0,0,1-.26,2.46l-4.24-2.75v-2.72ZM124,160.22l-1.09,2.12-1.45-.2,2.6,7.2,2.84-7.13-1.76.1Zm-93.24,3.07,3.9,2.89c0.06,0-.22,1.32-0.16,2l-3.71-2.31Zm0.1,3.57,3.63,2.52A15.65,15.65,0,0,0,34.7,172l-3.94-2.58Zm-0.06,3.64,4.2,3,0.22,2.43-4.45-2.82Zm34.58,1c4,1.52,7.81,9.26,7.7,19.27-0.08,7,2,16.88,2,16.77a3.11,3.11,0,0,1-1.5-.1,65.49,65.49,0,0,1-2.26-15,81.32,81.32,0,0,0-.64-8.2c-0.66-3-1.38-6.49-3.28-8.76-1.48-1.72-3.16-2-4.17-.09-0.82,1.58.91,4.19,2.35,3.32,0.35-.2.56-0.53,0.1-0.52a1.81,1.81,0,0,1-1.55-2.86c1.67-1.75,4.58,2.15,3.23,4.3-0.6.93-2.15,1.09-3.4,0.75a5.43,5.43,0,0,1-2.54-6.85,3.2,3.2,0,0,1,4-2.07h0Zm-4.88,1c0.33,0,.1.63-0.2,1.58-0.71,2.28.62,5.82,2.48,6.53,0.56,0.38.53,0.53,0.15,0.74-1.21.69-3.4-1.37-4-3.66-0.42-1.66-.32-3.62.47-4.45a2.19,2.19,0,0,1,1-.73h0.07Zm-29.75,1.34,4.49,3a8.12,8.12,0,0,1,0,2.9l-4.49-3.16Zm27.07,0c0.33,0,.21.55,0.12,1.58a6,6,0,0,0,2.18,5.54c0.7,0.61.89,0.8,0.59,1.11s-1.66-.15-2.62-1.17c-1.77-1.86-2.35-5.36-1-6.64a1.34,1.34,0,0,1,.71-0.43h0Zm49.9,0.41c1.92-.08,3.53.68,3.71,3,0.26,3.46-2.94,5.35-5.16,3.37-2-2,0-5.12,2.34-3.66a1,1,0,1,1-1.17,1.56c-0.42-.39-0.61-0.15-0.31.31,0.91,1.37,2.71.23,2.58-1-0.25-2.38-3.15-2.35-4.24-1.42a25.69,25.69,0,0,0-3.79,4.52c-0.8,1.19-1,1.16-.86-0.31a7.32,7.32,0,0,1,6.89-6.43h0ZM55.5,175c0.31,0,.18.43,0.21,1.57a6.82,6.82,0,0,0,2.89,5.76c0.52,0.58-.15,1-1.12.71-2.23-.69-4.5-5.52-2.61-7.59A1.14,1.14,0,0,1,55.5,175Zm-2.16,1c0.31,0,.13.63,0.16,1.85a6.2,6.2,0,0,0,2.74,5.37c0.62,0.51.69,0.45,0.45,0.74-0.65.75-2.84-.31-3.78-1.85-1.11-1.83-1.28-4.59-.24-5.63a1.35,1.35,0,0,1,.67-0.47h0Zm-2.15,1.24c0.26,0,.11.47,0.15,1.57,0.1,2.69.7,4,2.39,5.26,1.06,0.78,1.32.55,1,.86-0.57.54-2.12,0.08-3.29-.92-1.75-1.49-2.24-5.17-.82-6.43A1.1,1.1,0,0,1,51.18,177.18Zm-20.37.38,4.31,3L35,183.12l-4.29-2.93Zm75.37,4.77a2.57,2.57,0,0,1-2.21-3.09c0.07-.48.35-0.76,0.65-0.13,0.26,1,.92,2.4,1.83,2.67,0.37,0.11.06,0.62-.28,0.55h0Zm-37.74-3c2,5,1.94,10.52,2.27,15.71,0.44,6.9,1.65,11.55,2,12.33,0,0-1.93,0-2-.26,0,0-1.82-9.15-1.55-13.68a42.7,42.7,0,0,0-1.55-11.52c-0.63-1.77-.66-0.6.82-2.59h0Zm-37.66,2L34.93,184c-0.06.94-.07,1.87-0.06,2.81l-4.07-2.9Zm55.77-.23c0,0.15.6,0.28,1.53,0.05a5.84,5.84,0,0,1,2.87,0c0.85,0.24.94,0,.17-0.38a3.9,3.9,0,0,0-1.86-.52C88.38,180.24,86.55,180.73,86.55,181.06Zm16.8-.11a7.46,7.46,0,0,0,.7.94c0.53,0.62.68,0.63,0.44,0.88-0.56.59-1.73-.26-1.86-1.35C102.52,180.63,102.91,180.13,103.35,181Zm-37.13.21c1.94,2.79,2.22,9.32,2.26,14A70.58,70.58,0,0,0,70,206.94a1.68,1.68,0,0,1-1.44,0c-0.5-.65-0.8-2.49-1.38-7.46-0.15-1.28-.44-5.36-0.51-8.65-0.06-2.9-1.66-9.17-1.66-9.17a2.57,2.57,0,0,1,1.18-.46h0Zm-2.16.7c1.77,4,2.05,7.92,2.13,12.71a88.4,88.4,0,0,0,1.45,12.18,2,2,0,0,1-1.47-.16,2.5,2.5,0,0,1-.36-1,87.2,87.2,0,0,1-1.23-11.78c-0.35-5.59-.43-7-1.22-9.75-0.45-1.58-.6-1.55-0.27-1.85a1.69,1.69,0,0,1,1-.34h0Zm19.85,0.91c0,1.85.28,1.1,0.93,0.8a4.85,4.85,0,0,1,1.79.56c1.15,0.43,1,.57,1.86.17a1.11,1.11,0,0,1,1.14-.14,2.2,2.2,0,0,0,2.86-.29,2.66,2.66,0,0,1,1.58-.09c0.66,0.06.49-.36,0.57-1.2s-0.21-.81-1-0.56a3.68,3.68,0,0,1-2.23.08,7.44,7.44,0,0,0-3.85-.05c-2,.32-2.13.12-2.59-0.18a4,4,0,0,0-1.1-.61c-0.2,0-.13.68,0,1.49h0Zm18-.85c0.19-.1.28,0.16,0.55,0.52,0.45,0.59.58,0.87,0.2,0.92-1,.15-1.24,0-1.21-0.58a0.83,0.83,0,0,1,.45-0.86h0ZM62,182.81c1.46,1.48,1.83,9.81,2,11.6,0.53,9.71,1.44,11.11,1,11.84-0.55,0-.75.2-1.11-0.29-1.25-3.56-1.18-7.21-1.38-10.93A44.12,44.12,0,0,0,61,185c-0.46-1.62-.45-1.65.37-2.09a1.59,1.59,0,0,1,.6-0.12h0ZM60,184a45.9,45.9,0,0,1,1.69,11.17A87.87,87.87,0,0,0,62.84,206a1.54,1.54,0,0,1-1.43-.47c-1.59-7.09-1.08-14-2.93-21.08A1.08,1.08,0,0,1,60,184h0Zm-29.17.87,4.3,3.11,0.09,2.66-4.39-3.14v-2.63Zm63.92-.34c-2.43,1-3.06,1.73-2.67,2.42s1.29,0.37,3.87-.71c1.93-.81,2.54-0.46,2.93.77,0,1.82-1.76,2-2.75,1.78-0.42,0-.36,0,0.09.59,2,1.59,4.46-1.51,3.23-3.48C98.52,184.08,96.86,183.57,94.77,184.52Zm-15.24.74c-2,1.59-1.29,4.45.38,4.87a1.66,1.66,0,0,0,1.43-.06c0.25-.17.25-0.44-0.26-0.53-1.55-.26-2.43-1.41-1.68-2.57s2.07-.91,4.66.21c2.24,1,3.22.67,3.48-.5,0.12-.52,0-1-1.1-1C83.45,185.55,81.47,183.71,79.53,185.25Zm26.81,4.38c-0.13-.82-1.46,0-2.34,1.48s-1,1.64-1.13.15c-0.26-2.22,2-4,3.45-4,1.72-.2,2.84.77,2.89,1.89a1.46,1.46,0,1,1-2.87.5h0Zm-75.59-1.31,4.55,3.16a17.92,17.92,0,0,1,.06,2.6l-4.57-3Zm54.69,1.06a2.29,2.29,0,0,0,.57,4.11c1.46,0.29,1.56-.74.11-1a1.15,1.15,0,0,1-.67-1.63c0.69-1.14,2-.4,2.72,0,1.65,0.79,2.51,1.08,3,.54,0.93-1,.1-2.71-1.12-2.1a1.48,1.48,0,0,1-1.28.15,5.35,5.35,0,0,0-3.35,0h0Zm-54.65,2.69,4.48,3.1-0.14,2.74-4.21-3.11Zm0.09,3.76,4.21,3a16.49,16.49,0,0,0,0,2.35l-4.26-2.78Zm74.52,0.58c3.38,0.33,2.26,4.25-.1,3.19-0.63-.48-0.82-0.44-1.52,1.28-0.89,2.2-1.11,2-1-.52S104,196.44,105.4,196.42Zm-26.62.6a0.31,0.31,0,0,1,.18,0c0.23,0.26-.46,1.28-1,1.88-0.43.28-1.47-.48-1.22-0.86A4.74,4.74,0,0,1,78.78,197h0Zm4.51,2-0.6.09c-0.91-2.05-2.81-1.58-3.39.32l-0.83-.1c0.84-2.33,3.84-3.77,4.83-.32h0Zm17,0.47-1,.06c-0.92-2.22-2.22-2.56-3.32-.36L95.17,199c1.36-2.81,3.64-3,5.13.53h0ZM95.19,197c0.52,0,.46.21-0.09,1s-0.59.76-1.06,0.4C93.26,197.74,94.55,197,95.19,197ZM100,197a1.86,1.86,0,0,1,.35,0c1.05,0.26,1.54.77,1,1.41-0.32.4-.64,0.56-0.85,0.29-0.71-1.18-1.1-1.79-.52-1.75h0Zm-15.92.7c0.11,0.44-.24.75-0.62,0.39a0.84,0.84,0,0,1-.27-0.59,0.66,0.66,0,0,1,.89.2h0Zm-53.28,1.51,4.33,3.14a19,19,0,0,1,.16,2.7l-4.46-3Zm63.15,1c2.5,1.73,5.42,1.7,7.25.19,0.41-.34.77-0.35,0.77,0-0.26,1.21-3.44,2.76-5.93,1.88A6.09,6.09,0,0,1,92.71,200C92.17,199.14,93.27,199.69,94,200.19Zm-1.06.84c3.65,3.18,6.55,2.29,8.75.69,0.32-.08.33,0.21,0.4,0.76,0.09,0.7-.49,1-2.07,1.53-3.06.92-6.64-.09-7.29-2.16-0.08-.41-0.23-0.93.2-0.82h0Zm-62.11,1.9,4.39,3-0.14,2.32-4.28-2.92Zm0.07,3.56L35,209.33v1.92l-4-2.9ZM61,207.4c17.69,4,30.23,2.12,42.53-.07l10.9,21.58L48.76,229C53,222,56.62,214.32,61,207.4Z" transform="translate(-0.3 -0.3)"/><path id="path3442-2-7-0" d="M62.67,20.77c1.89,3.28,3.39,6.67,5.09,10L68,31l0.41,0.78,0,0.38,1,1.63v0.35l4.29,8c3.53-1.33,32.57-3.73,43.32.19l1.57-2.68H119l2.76-4.89,0-.41,0.93-1.07,0.13-.49,3-4.81V27.23l3.81-6.41Zm65.74,0.92s-2,3.86-3,5.42c-0.83-.66-3.23-0.21-3.09,2.34-3.92-1.5-4.86,3.22-1.83,4.28-1.55,1.37-3-.18-4.22-1.23-1.15.29-3.55,1.14-4.9-1.37,0,0,.57.31,1.13,0.64,3.2,1,3.46-3.38,1.08-4.09a5.84,5.84,0,0,0-.86-0.11c0.8-3.36-4.34-4.53-4.44-.49a3.78,3.78,0,0,0-1.08,0c-2.73.5-2.1,4.56,0.69,4.36a3.06,3.06,0,0,1,.73,0c0,0.65-3.42,1.89-5.85-.34-1.15.89-3,2-5.35-.21,1.56-.06,3.06-0.51,3-2.3a2.46,2.46,0,0,0-2.54-2.26,2.75,2.75,0,0,0-2.29-2.64,2.48,2.48,0,0,0-2.31,2.64A2.36,2.36,0,0,0,91.07,29c0.38,1.8,1.76,2,3.33,1.68-1.91,3.1-5,1.48-6,.49-1.14,1.07-3.13,2.53-5.58.54,1.31-.23,2.76-1,2.51-2.84A2.34,2.34,0,0,0,82.84,27a2.28,2.28,0,0,0-2.41-2.38c-1.85.18-1.74,2.53-1.71,2.55A2.28,2.28,0,0,0,76.52,30c0.53,1.41,1.64,1.84,3.67,1.46-2.38,2.25-3.88,1.38-5.18.9a3.07,3.07,0,0,1-4.25.53c3.51,0.17,3-6.1-1.21-3.83-3-3.52-2.91-2-5.57-7.13ZM95.65,27.88a1.05,1.05,0,0,1,.53.12,1,1,0,0,1,.32,1.5,1.75,1.75,0,0,0-.26.82c3.87,7.2,12.4,4,13.21.64a1.06,1.06,0,0,0-.16-0.67,1,1,0,0,1,.14-1.38,1.06,1.06,0,0,1,1.68,1.23,1.33,1.33,0,0,0-.18,1c2.19,5,6.55,5.4,10.21,3.41-1.69,3-8.22,4.92-11-2.42-4.38,6-11.33,5.86-14.49-.88-2.84,6.9-11.4,7.07-14.52,1.33-2.84,6.56-9.41,5.07-11.28,1C76,38,80,33.32,80.76,31.33a2.57,2.57,0,0,0-.34-0.42c-0.78-.77-0.76-1.69,0-2a1.11,1.11,0,0,1,1.48,1.53c-0.15.28-.28,0.34-0.18,0.58,1.9,4.47,11.27,5.77,13.16-.5a1.38,1.38,0,0,0-.13-1A1.07,1.07,0,0,1,95.65,27.88ZM68.31,30.41c1.48,0.08,1.07,1.37.77,1.46Zm54.86,0.8s-0.91,1.66-.91,1.66C121.77,32.09,121.9,31.11,123.17,31.21Zm-5,8.27a12,12,0,0,1-1.26,2.28c-17.5-4.52-41.91-.59-42.51-0.15l-1.08-2C88.67,36.47,104,37.13,118.18,39.48ZM88.62,70.78c-1.69,6.58-5.78,7.25-10.72,8-6.12,1-10.11-1.26-12-4.7,0,0-8.75,3.34-11.94,5.28,6.64,3.07,15.41,9.87,20.4,17.59,1.78,2.35,1.69,1.82,1.68,7,0,11.2,0,15.36,0,15.36,2.74,0.41,2.89,2.32,2.74,4.45,2.2-1,4.31.22,4.3,2.31,0,3.85-3.76,2.8-4.54,2.38,1.22,3.39-.21,4.8-1.67,5-1.8.21-3.87-.67-3.26-4.55a3.68,3.68,0,0,1-4.79-3l-0.1-4c4.85-9.22-1.24-16.71-7-19.18,0,0,1.62-3.38,3.71-4.33,0.21-.06-1.27-2.26-3.76-1.78-1.15,0-.88,0-2-1.4-2.13-2.8-3.14-3-5.22,0-0.91,1.32-1.13,1.35-2.22,1.38a4.87,4.87,0,0,0-3.41,1.66c-0.09.18,0.38,0.36,1,1.09,0.89,1.05,2.27,2.5,2.06,4-4.71,1.93-12.53,10.43-4.31,21.3l-5.94.08-0.28-38.7-4.13,2.32,0.18,30.31-1.18-.39c0.09-9.67-.05-19.33-0.36-29l-10.9,8,0.49,45.45L26.73,143c0.86,6.19,13,1.86,13.72,2.4l0.15,25.25-0.53,1.25,9.67,5.33,8.87-4.64a8.43,8.43,0,0,0,1.65-.46c3.68-2,6.42-1.52,8.42,1.35,1.23,1.77,1.44,2,1.44,2,0.75-5.11,5.23-7,9.59-5.66,3.2,1,7.57,4.2,8.91,8.13a3.85,3.85,0,0,0,.48.86L89.27,179c0-.1-0.21-0.59-0.29-0.83-4.49-10.4-17.14-12-19.09-3.5l-1.79-2.53,9.42-5.83,12.87,8.55s-0.6,3-.67,4.3l0.22,0.1a11.62,11.62,0,0,1,1.29-4.7,4.7,4.7,0,0,1,1.05-1.33c0.77-.45,1.48-0.4,2.26-1.14l-1.88-1.42,0-4.55,3.78,5.34c1.19-.28,5.81-1.67,8.56-0.13,0.31,0.1,4.33-1.06,6.84,4.6l12.06-5.06a3.39,3.39,0,0,0,.78-0.55c-12-4.48-24.17-20.34-23-20.6,0,0,0-1.63.06-5.62,0.1-4.45,0-9,.12-13.46-4.09-1.32-3.08-4.65-3.08-4.65-2.46.54-2.85,0.06-3.48-.37l-0.42-4.21a3.93,3.93,0,0,1,4.19-1,4.12,4.12,0,0,1-.08-3.34,3,3,0,0,1,3.92-1.1c1.86,1.28,1.27,4,1,4.34a3.58,3.58,0,0,1,4.88,2,107,107,0,0,1,1.92-17.09,97.49,97.49,0,0,1,9.82-25.82c0.7-1.24,1.6-2.48,2.32-3.63a16.65,16.65,0,0,0,1-1.7,10.12,10.12,0,0,1-1.89.78,11.47,11.47,0,0,0-2.61.91,14.32,14.32,0,0,1-3.46,2c-3.86,1.52-6.46-.75-8.06-4.2-0.89,4.39-4.88,8.1-10.76,5.8-3.32-1.78-4.36-2.92-7.47-7.56a4.6,4.6,0,0,0-.93-1h0Zm0.13,0.72c2.2,4.39,5.49,7.49,8.69,8.73A8,8,0,0,0,108,75l1.1,1.88-8.65,6.2-13-8.37a22.93,22.93,0,0,0,1.36-3.25h0ZM128,71.8l-3.87,2.3s-2.57,4.19-3.44,5.77A89.22,89.22,0,0,0,111,105.38a118.14,118.14,0,0,0-1.73,11.79,70.55,70.55,0,0,0-.27,10.38l0.3,0.33s-0.47.84-.82,1.55a9.54,9.54,0,0,0-1.09,5.25A13.85,13.85,0,0,0,115,146.73l0.57,0.26a11.66,11.66,0,0,1-2.11,3.48c-0.91,1-1.1,1-.78,1.48,0.45,0.66,1.89,1.23,3.67,1.2,0.63,0,.63,0,1.8,1.27,2.28,2.51,3,2.46,5-.39a2,2,0,0,1,1.87-1.07c1.33,0,3.75-1.11,3.74-1.62-1.63-.73-3.53-4.5-3.23-4.53,8.94-4.77,10.83-14.66,4.3-21.94l6.23-.1,0.23,39.46c1.22-.82,4-2.58,4-2.58L140.25,131a15.09,15.09,0,0,0,1.7.53l0.24,29.24s8-5.7,11.82-8.67l-0.23-44.74h-0.91L153,152l-10.58,7.8L142.36,132l1.15-.17c3.1-.44,4.53-4.42,2.48-7-0.73-.92-0.21-0.86,1.34-1.16,2.75-.24,4.27-2.34,3.47-3.84-0.34-.64.1-0.57,0.39-1.18a3,3,0,0,0,.07-1.55,1.94,1.94,0,0,1,.3-1.29,2.07,2.07,0,0,0-.4-1.9,2.6,2.6,0,0,1-.31-1.68c0-.91-0.34-1-1.3-1.92-0.72-.66-0.14-0.81.92-1.36,1.67-.87,1.78-3.94-0.44-5.24-1.19-.7-3.35-0.64-8,0.1-1.77.28-3.86,0.47-3.86,0.47s0-17.49-.14-26.51Zm0,0.62s9.5,5.61,9.43,5.77c-3.19,4.41-15.09,22-15.18,43.24-8.73-1.11-12.3,5.78-12.72,5.76A87.14,87.14,0,0,1,124.2,74.65Zm-6,3.42,0,0.64-1.88,2.84,0-2.84Zm-2.91,1,0.07,4.57-3.86,3-0.23-4.77Zm-35.76,1,2,1.38L85.26,83.8l-3-5.48Zm54.27,1.53,0,3.28c-7.61,10.83-11.6,23.2-12.82,38.86l-1.85-.06A74.55,74.55,0,0,1,137.61,79.4Zm-51.51.34,4.69,3.09L90.59,88l-4.26-2.76-0.4-1.06ZM114.51,80l0,4.81-3.62,2.72-0.17-4.78ZM70.58,81.22a1.14,1.14,0,0,1,1.07,1.15c0.4,3.2,2.81,2.28,3.38,3.24,0.22,0.33-.3.61-1.95,0.48-3-.23-5.23-2.7-3.69-4.33A1.77,1.77,0,0,1,70.58,81.22Zm20.91,2.06,4,2.58v5.32l-3.93-2.42Zm18.28,0,0.31,4.7-4.39,2.94-0.16-4.67Zm8.35,0-2.52,5.41L100.91,99.4l-12.19-8-2.26-5.22,14.22,9.37ZM78.5,85.46c3.9,0,6.9,4.13,7.93,7.8,0.75,2.42.86,3.3,0.94,7.14s0.2,4.6.93,5.15c0.45,0.34.58,0.25,0.64-.44,0.13-1.54,2-.59,2,1,0,1.8-1.93,2.38-3.38,1-0.77-.74-0.78-0.73-1,0.72-0.16,1-1.28,7,1.58,8.56,0.54,0.05.67-.38,0.27-0.89-0.8-1,.8-2.19,2.11-1.55,1.58,0.78,1.42,3.35-.27,4.27-1.93,1-4.43-.14-5.59-2.66-0.86-1.85-.85-4.41,0-8.22a25,25,0,0,0,.67-4.22,10.5,10.5,0,0,1,.11-1.07c0.09-.41-0.11-0.43-0.8-0.08-1.89,1-4,.28-4.46-1.48-0.61-2.1,1.71-4.27,3.15-2.94a0.72,0.72,0,0,1-.17,1.33c-1.13.56-.74,2,0.46,1.74,3.95-1.19.34-12.37-4.11-13.15-2.94-.51-5.25,2.87-3.12,4.67,0.83,0.71,1.68.33,1.5-.67-0.25-1.4,1.58-1.24,2.26.19,1.11,2.33-1.75,4.22-4.41,2.93C70.9,91.75,74.17,85.55,78.5,85.46Zm17.7,0.89L100.14,89l0,5.19-3.91-2.34Zm8.68,0.45,0,4.76-3.8,2.79V89.28Zm10.24,3.12-1.94,5.47-12.27,8.47-10.12-6.4L89,92.39l11.92,7.8Zm-79.6.4V118c-4,.17-6.26,4.14-3.28,7.89L31.1,126c-2.69.37-4.49,1.81-4.13,3.55a2.12,2.12,0,0,1-.15,1.34,2.2,2.2,0,0,0,.15,1.88,1,1,0,0,1,.07,1,2,2,0,0,0,.13,2,1.51,1.51,0,0,1,.26,1.49,1.56,1.56,0,0,0,.72,1.77c0.8,0.5,1.09,1.31.19,1.24-0.45,0-2,1.51-2,1.51l-0.15-44.4Zm21.55,3.55c0.71,0,1.44.9,2.5,2.42,0.64,1.09.65,0.94,2.1,0.88a4.13,4.13,0,0,1,2.78,1c0.15,0.17-.24.22-1.18,1.18a9.37,9.37,0,0,0-1.76,2.51,0.56,0.56,0,0,1-1,.07c-0.19-.3.3-1.26,1.22-2.4,1.3-1.27,1-1.4-.86-1.2-1.33.14-1.47,0.07-2-.74-1.51-3-2.31-2.92-3.75.09-0.39.84-.24,0.79-1.94,0.66-1.34-.1-1.68.24-0.92,1a6,6,0,0,1,1.58,3.27l-0.91.08a9.11,9.11,0,0,1-.4-0.85,8.86,8.86,0,0,0-1.64-2.45c-1-1.12-.46-1.73,1.83-2,1.27-.14,1.3-0.16,1.89-1C55.66,94.78,56.35,93.87,57.06,93.87Zm55.64,2.75-1.32,4.72-10.46,7.4L92.4,103l-1.13-4.44,9.78,6.25Zm-36.07,3.74a72.06,72.06,0,0,1,4.12,9.8c1,3.35,2.28,13.06,1.93,13.65-0.74-1-3.2-.8-3.23-0.79a3.75,3.75,0,0,0-2.8-3.88ZM111,102.54l-1,4.65-8.91,6.5-7.35-5.07-1-4.49,8.14,5.49Zm-51.79.26,1.16,0.41,0.22,8.39,8.91,1.49,0.2,1.44-10.32-1.68C59.31,109.27,59.25,102.8,59.25,102.8Zm-4.52.25L55,112.81c-0.1,0-7.43,1-10.24,1.77l0.16-1.34s5.1-1.12,8.79-1.55c0-2.73,0-5.6,0-8.38Zm82.92,1.8a16.08,16.08,0,0,0,3.81-.35c6.69-1.18,8.5-.7,9.36,1.38,0.93,3.23-2.57,3.31-3.2,1.26-0.4-1.33-1.83-1-6.63.11-4.1,1-6.7.2-6.65-2.15S137.11,102.47,137.65,104.84Zm-55-1.77a1.51,1.51,0,1,1-1.47,1.54A1.51,1.51,0,0,1,82.67,103.08Zm-21.73.27L62,103.67s0.16,6.37.19,6.38c2.27,0.51,7,1.41,7,1.41l0.25,1.26c-2-.47-8.37-1.53-8.37-1.53C60.92,108.42,60.94,103.34,60.94,103.34Zm-7.71.12s0,5.08-.08,7.81c0,0-5.4.87-8.17,1.45l0.21-1c2.18-.5,4.56-1,7-1.51,0-2,0-6.38,0-6.38Zm3.88,1.09a1.21,1.21,0,0,1,0,2.43A1.22,1.22,0,0,1,57.11,104.56Zm90.51,3.17a1.78,1.78,0,0,0,2.09,1,2.24,2.24,0,0,0-1,.74c0,0.08-.36,1.48.23,1.54,2.22,0.22,1.1,2.54,1.36,2.9,0.6,0.69,1,1.13.63,2s-0.89.74-.48,1.39c0.88,1.34-.34,1.62-0.23,2.53a3.74,3.74,0,0,1,.07,1.73c-0.61,1.29-2.75,2-5.14,2.13-0.34,0-.08-0.55-0.24-0.9a1,1,0,0,1-.07-1.43c0.2-.55.2-0.55-0.17-0.83-1-.64-1-0.93-0.88-1.39,0.22-1.36,0-1.5-.39-1.7s-0.45-.83-0.22-1.57a1.1,1.1,0,0,0-.2-1.1,1.23,1.23,0,0,1-.19-0.59c0.07-.7-0.55-0.7-1.43,0a33.2,33.2,0,0,0-1.46,4.06c-0.36.82-.42,1.68,0,3.58,0.82,2.9.21,3.38-3,2.76-2.43-.6-3.15-3.22-2.47-6.42a4.37,4.37,0,0,0,0-1.43,6.67,6.67,0,0,1,1.83-5.77c2.55-2.42,3.8-2.78,9.07-2.45a7.88,7.88,0,0,1,2.22.28,5.42,5.42,0,0,1,.07-1h0Zm-37.9.66-0.61,4.49-4.94,3.52c-2.33-1.85-4.12-1.24-5.76.75-1.3-.66-3.89-2.47-3.89-2.47l-0.66-5.1,7.18,5Zm-52.51,1.07A1.21,1.21,0,1,1,56,110.7,1.21,1.21,0,0,1,57.22,109.46Zm51.68,4.6-0.27,4.33-1.76,1.33-1.77-.18-0.42-2.68Zm-51.71,0a1.21,1.21,0,0,1,0,2.43A1.22,1.22,0,0,1,57.19,114.09ZM62,114.23a1.21,1.21,0,1,1-1.19,1.23A1.2,1.2,0,0,1,62,114.23Zm-9.63.23a1.22,1.22,0,1,1-1.19,1.23A1.21,1.21,0,0,1,52.4,114.46Zm89.47,0.2a0.86,0.86,0,0,1,.6,1.24,1.55,1.55,0,0,0,.45,1.87,0.94,0.94,0,0,1,.31,1.06c-0.11,2.5,1.49,1.42.8,3.23a3.23,3.23,0,0,0,.12,1.43c-0.16-.43-3.09-0.39-3.34,0-0.42-.06-0.95-2.84-0.52-3.21a3.76,3.76,0,0,1,.52.75c0.39,0.67.48,0.65,0.36-.13C140.67,117.83,141,114.68,141.87,114.66Zm-75,.22a1.21,1.21,0,1,1-1.18,1.23A1.21,1.21,0,0,1,66.89,114.88Zm-19.49.22a1.21,1.21,0,1,1-1.19,1.23A1.21,1.21,0,0,1,47.4,115.1Zm47.18,0.35,3.6,2.36a7.2,7.2,0,0,0,.21,2.17,4.27,4.27,0,0,0-3.54,1.13ZM68.9,119.22l-0.28,1.28a44.81,44.81,0,0,0-22.63.08l-0.59-1.35A39.57,39.57,0,0,1,68.9,119.22Zm-33.63-.08a3.48,3.48,0,0,1,1.58,6.66,3.57,3.57,0,0,1-4.78-4.66A3.46,3.46,0,0,1,35.27,119.14Zm73.21,0.37,0,1.29-0.9-.76Zm-18.82.06A2.39,2.39,0,1,1,87.33,122,2.37,2.37,0,0,1,89.66,119.58Zm-54.32.08a1.92,1.92,0,0,0-1.09.36c-0.63.59,0,.6,0.83,0.76,1.48,0.27,1.88,1.56,1.75,2.94s0.3,1.24.64,0.77A3,3,0,0,0,35.34,119.65Zm68.53,0.63-0.07,0S103.84,120.32,103.87,120.29ZM57.2,121c1.77,0,2,2.9.39,6.17-0.47,1-.71.86-1.22-0.63C55.1,122.91,55.37,121.07,57.2,121Zm4.09,0.08a1.14,1.14,0,0,1,.94.42c0.95,1.09.22,2.86-2.31,5.59a2.39,2.39,0,0,1-1.16.92c-0.63,0-.63-0.09.09-2.46,0.32-1,.63-2.19.7-2.54A2.17,2.17,0,0,1,61.29,121.12Zm-6.39,2.62c0.17,0.81.48,1.94,0.67,2.51a4.32,4.32,0,0,1,.29,1.2c-0.16.44-1.28-.16-2.09-1.1-1.62-1.9-2.27-3.55-1.93-4.44a1.65,1.65,0,0,1,2.33-.4A4.6,4.6,0,0,1,54.89,123.74Zm11.18-1.89c1.71,1-.26,3.34-4.09,5.27-1.64.82-1.52,0.45-.28-1.17a17.3,17.3,0,0,0,1.42-2.26C63.81,122.32,64.5,121,66.07,121.85Zm-17.07,0c0.54,0,1.1.58,2.13,2.09a23.52,23.52,0,0,0,1.66,2.12,3.59,3.59,0,0,1,.79,1.1c-0.18,1.05-5.51-2.29-5.89-3.69A1.38,1.38,0,0,1,49,121.86Zm76.33,3.06c1,2,1,3.24.25,3.69a1.86,1.86,0,0,1-2.61-1.76,14.82,14.82,0,0,0-.94-3.23c-0.37-.89-0.42-1.44-0.12-1.48A6.6,6.6,0,0,1,125.34,124.92ZM119,123.4a17.41,17.41,0,0,0-.76,3.44,2.7,2.7,0,0,1-.27.93c-1,2-3.29.37-2.44-1.75,0.77-1.91,2.72-3.9,3.49-4C119.5,122,119,123.24,119,123.4Zm1.56-1.1c0.39,0,.71.81,1.21,2.24,0.67,1.93.64,3.44-.08,4.08-1.55,1.38-3.18-.62-2.56-3.13C119.58,123.49,120.07,122.35,120.51,122.31Zm-52.13.35c1.93,28.73-12.66,50.84-13.7,51.44l-5,2.74L41,172.06a75.75,75.75,0,0,0,14.83-43.44A13.48,13.48,0,0,0,68.38,122.66Zm47.85,0.09c0.61-.17.18,0.37-0.42,1.25s-1.48,3.49-2.15,3.9c-1.49.72-3.17-.65-2.27-1.85A12,12,0,0,1,116.23,122.75Zm8.86,0.19a3.76,3.76,0,0,1,1.3.47c3.1,1.53,4.63,3.54,3.3,4.51-0.93.68-1.93,0.15-2.86-1.63a16.17,16.17,0,0,0-1.28-2C124.86,123.39,124.7,122.95,125.09,122.95Zm17.43,1a3.64,3.64,0,1,1-3.56,3.69A3.62,3.62,0,0,1,142.52,124Zm-1.1.95c-2.34,1-1.64,4.76.38,5.3,0.85,0.24,1.89-.12,1.46-0.53-2.67-.85-2.69-2.83-1.61-4.29C141.83,125.17,141.6,124.84,141.42,124.92ZM43.76,130c-0.09,2.1.36,4.54-.63,6.81-1.51,3.5-6.34,5.1-8.93,4.79a2.26,2.26,0,0,0-1.7-.21,1.32,1.32,0,0,1-1.06,0,8.32,8.32,0,0,0-1-.07,1.83,1.83,0,0,1-.91-1.27,0.89,0.89,0,0,0-.64-1.26c-1-.28-1.18-0.81-0.89-2.37,0.06-.34.14-0.49-0.08-0.64a1.74,1.74,0,0,1-.52-2.34c0.31-.55.55-0.93,0-1.37a1.06,1.06,0,0,1,.29-1.33c0.5-.61.59-0.68,0.27-1.19-0.72-1.16.1-2,1.07-2.5a13.55,13.55,0,0,1,3.83-1c0.51,0,.49.48,0.8,0.92,0.45,0.71-.19,1.74.18,2.11a1.2,1.2,0,0,1,.73,1.17,2.69,2.69,0,0,0,.31,1.74,2.15,2.15,0,0,1,.13,1.87c-0.24.51-.22,0.48,0.1,0.78a3,3,0,0,1,.36,1.76l1.34-.12a13.15,13.15,0,0,1,2-5.06c-0.08-1.78-.76-3.42-0.7-5.77,3.31-1.2,5.71,1.65,5.58,4.55h0Zm51.45-4a10.2,10.2,0,0,0,2.94,1,4.21,4.21,0,0,0,3.09,4.12c0,3.2,0,18,0,18-3.45-5.83-5.58-13.36-6-23.06h0Zm-57.66.52a9.29,9.29,0,0,1,.25,1.25c0.21,1.68,0,1.91-.46.76-0.52-1.34-.55-0.3,0,2.78a2.07,2.07,0,0,1,0,1.42c-0.11.32-.32,1-0.47,1.62-0.47,1.69-.74,2.18-1.22.83a1.67,1.67,0,0,1-.27-1.33,1.87,1.87,0,0,0-.27-1.83,1.84,1.84,0,0,1-.26-1c0.13-1.56-.55-1.58-0.69-2,0-.61-0.26-2.09.16-2.05a6.75,6.75,0,0,0,2.17-.15c0.26-.1,1.07-0.28,1.07-0.28h0Zm51.38,0.19a2.34,2.34,0,1,1-2.29,2.38A2.33,2.33,0,0,1,88.93,126.74Zm-35.79,1.43,1.76,0.34c0.39,0.13.11,24.58-14,42.22l-0.12-4.09C47.52,156.86,52.33,144.88,53.14,128.17Zm29.79,0.51,0.32,5.84c-1-.85-3.5-2.44-3.48-2.47v-2.16s2.16,0.17,3.15-1.21h0Zm-13.54.08a5.45,5.45,0,0,1,1.16.89l-1.15.78v-1.67Zm40.24,0.29a43.51,43.51,0,0,0,22.44.54l0.51,1.43a41,41,0,0,1-23.89-.48ZM72.9,130.15l0.41,2.52L69,135.46l0.21-3.82,2.23-1.46Zm37.89,2.1a1.27,1.27,0,1,1-1.23,1.28A1.26,1.26,0,0,1,110.79,132.25Zm19.49,0.1a1.27,1.27,0,1,1-1.23,1.28A1.26,1.26,0,0,1,130.28,132.35Zm-36.5,3.93c0.56,2,.44,6.5-0.28,9.56a40.82,40.82,0,0,0-.35,4.18c-0.13.17,4.3-3.7,5.72,1.38,0.49,1.75-1.5,3.4-2.83,2.92-0.26-.09-0.18-1,0.07-1.47,0.74-1.52-1.37-2.31-2.57-1-2.77,3.11.08,11,4.43,11.74,3.61,0.63,6.5-3,4.09-5.15a1.27,1.27,0,0,0-2,1.56c0.82,1.29-.69,1.8-1.84.61-2-2.08.25-5.2,3.27-4.48,4.83,1.11,3.84,8.73-1.23,9.16a7.84,7.84,0,0,1-8.12-4.4c-1.54-2.9-1.65-5.22-.95-10.31,0.42-3,.07-5.57-0.76-5.55a0.83,0.83,0,0,0-.88.77c-0.15,1.11-.27,1.31-1,0.91a2,2,0,0,1,.07-3.27c1.46-1.14,3.36.64,3.28,0.95a5.43,5.43,0,0,0,.38-1.64c0.64-4.22-.78-8.67-2.53-8-0.38.16-.34,0.33,0.16,0.62,1.17,0.66.14,2.36-1.33,2.19-2.08-.24-2.55-3.17-0.72-4.46,2.88-1.57,5.23.89,5.85,3.1h0ZM79.6,132.77s3.68,2.27,3.88,2.85c0.13,0.37.28,3.63,0.28,3.63l-6.39-4-9.17,5.72c0.15-1.26.81-4.49,0.81-4.49l4.88-3.11C73.91,133.51,77.26,135.74,79.6,132.77ZM125.39,133a1.27,1.27,0,1,1-1.23,1.29A1.26,1.26,0,0,1,125.39,133Zm-9.76,0a1.27,1.27,0,1,1-1.23,1.28A1.26,1.26,0,0,1,115.63,133Zm4.91,0.29a1.27,1.27,0,1,1-1.23,1.28A1.26,1.26,0,0,1,120.53,133.29Zm-12.28,1.79c3.32,0.7,6.65,1.41,9.83,1.77l0.13,9.86-0.93-.05-0.13-8.81a48,48,0,0,1-8.7-1.6Zm24.69,0.32-0.17,1.16s-5.74,1-8.74,1.39c0,2,0,8.62,0,8.62l-1.15.21v-10c3.41-.37,6.81-0.76,10.11-1.34h0ZM77.35,136l6.76,4.51,0.8,4.78L77,140s-7.15,4.86-9.82,6.66L68,142.11Zm31.22,0.89a67.33,67.33,0,0,0,8.17,1.42l0.11,7.93-1.25-.34-0.1-6.44a54.21,54.21,0,0,1-6.51-1.07Zm24.08,0.24-0.23,1.08s-4.36.66-6.61,1.07c-0.2,0-.13,7-0.13,7l-1.08.17-0.13-8.1Zm-12.2.89a1.27,1.27,0,1,1-1.24,1.29A1.26,1.26,0,0,1,120.45,138Zm-43.2,2.86,8,5.45a32.81,32.81,0,0,1,1.13,4.41l-9.2-6-11.51,7.7L67,147.64ZM28.79,141A1.33,1.33,0,0,1,30,142.07c0.35,1,1,1.34,2.7,1.31,3.34-.18,6.85-1.77,10-0.58,1.53,0.57,2.08,2.85.8,3.45s-2,.24-2.47-0.87c-0.45-.47-1-0.4-4,0.12-1.32.22-2.88,0.41-4.18,0.52-3.34.27-5.19-.79-5.6-2.8A1.82,1.82,0,0,1,28.79,141Zm91.59,1.84a1.27,1.27,0,1,1-1.24,1.28A1.26,1.26,0,0,1,120.38,142.85Zm-24.49,1.54a1.65,1.65,0,1,1-1.6,1.67A1.64,1.64,0,0,1,95.89,144.39Zm-18.63,1.15L86.89,152l1.68,4.88-11.21-7.35-13.71,9,1.64-5Zm47.5,1.53a12.71,12.71,0,0,0,2.82,4.11s-0.64,1.22-2.91,1.15c-1.24,0-1.31.16-1.73,1a9.14,9.14,0,0,1-1.71,2.13c-0.8.62-2.29-.31-3.52-2.19-0.45-.69-0.63-0.85-2-0.82-2.08,0-2.83-.54-1.75-1.48,0.94-1.16,1.62-2.43,2.46-3.64l0.93,0.11a7.83,7.83,0,0,1-1.8,3.42c-0.55.62,0.22,0.85,1.55,0.56,0.85-.26,1.06-0.16,1.69,1.15,1.31,2.49,2,2.37,3.54-.15,0.54-1.13.52-1.24,2-.92,1.6,0.16,2.08,0,1.42-.6a9.32,9.32,0,0,1-2.06-3.82Zm-47.44,3.34s11.9,7.87,11.87,7.69l2.38,5.67-14-9.38-17.06,11.2L63.1,160Zm0.46,5.16,4.15,2.75v5l-4.24-2.87Zm-1.06.14,0.08,4.89-3.72,2.24-0.21-4.59ZM72,158.86l0,0.19,0.09,0h0l0.13,4.41-4.28,3,0-5Zm11,0.05,3.9,2.63L87,166.79,82.78,164Zm4.81,3.2,3.91,2.74,0.14,5.24-4-2.72Zm-20.7,0L67,167l-3.89,2.74L63,164.78Zm41.16,6.25c-0.77.81-1.06,0.71-1.72-.63a3.24,3.24,0,0,0-3.21-2c-1.88,0-.65-1.21,1.34-1.36C108.1,164.23,109.85,166.56,108.23,168.39ZM62.1,165.55l0.1,4.86-3.87,2-0.12-2.3,2-3.52Zm-5,6.49,0.13,0.88-0.72.28Zm46.61,35c-16.3,3.52-31.92,2.28-43.14.18l-5.12,8.84-0.35,0-1.32,2.29,0.14,0.26s-4.26,8.25-6.05,10.85c20.95-.2,66.92-0.31,66.92-0.31l-2.8-5.69,0.15-.15-2.77-5.94-0.9-1a21.26,21.26,0,0,1-1-2.22c-0.38-1.06-2-4-2-4l-0.23,0Zm-42.55,1.24c0.22,0.17,20.88,4.1,42.29.07l1.17,2c-18.74,4.35-45.86.19-44.79-.21Zm0.36,3.89a6.29,6.29,0,0,1,5.09,2.67A15.18,15.18,0,0,1,67.69,217a11.22,11.22,0,0,1,1.79-2.27,7.8,7.8,0,0,1,5.6-2c2.32,0.08,4.87,1.35,7.17,5,0.58-2.11,8.2-9.29,14.47-.34,0.72-2.38,4.07-7.13,9.51-3.81,0.37,0.8.75,1.68,0.75,1.68-3.21-2.27-8.5-.75-9.75,2.79a1.49,1.49,0,0,0,.2,1.07c1.65,2.38-2.65,2.33-1.37.4a1.16,1.16,0,0,0-.12-1.38,9,9,0,0,0-6.27-3.38,8.62,8.62,0,0,0-6.38,3.35,1.53,1.53,0,0,0-.12,1.66,1,1,0,0,1-.23,1.25,1,1,0,0,1-1.57-1.2,1.65,1.65,0,0,0-.34-1.88,8.4,8.4,0,0,0-6.18-3.31c-3.35.08-6.74,2.51-6.52,4.52,0.09,0.88-.14,1.21-0.86,1.11-0.87-.12-1-0.95-0.35-1.62a1.2,1.2,0,0,0,0-1.12c-3.54-4.83-8.84-3.42-10-2.34a5.41,5.41,0,0,1,4.49-3h0Zm-3.15,3.35a4.27,4.27,0,0,1,3.21,1.82c0.33-.34,3.33-1.79,4.79.28-3.82-.29-3.87,3.8-1,4.2-1.29,4,4.49,4.19,4.12.48,4.32,0.64,3.78-4.88-.28-4.3,2.13-1.56,3.58-1.06,6.13.73,0.86-1.13,4.37-2.19,5.23-.21-4-.25-3.33,4.45-0.33,4.49-0.89,3.26,5,4.45,4.1-.41,3.75,0.27,3.21-4.85-.39-4.42,0.27-.93,3.91-1.33,5.52.44,1.48-1.36,3.11-2.3,6.07-.35-4-.68-4.07,4.6-0.34,4.28-0.35,3.49,4.94,3.55,4.05-.48,4-1.1,1.81-5.44-1.14-4.25,1.32-1.58,3.55-.83,4.44-0.51,2.74-3.16,5.12-.52,5.12-0.52-4.77-.5-3.73,6.35.91,3.87a2.54,2.54,0,0,0,2.49,2.83l2.25,4.71-63.87.42,3.52-6.26a2.32,2.32,0,0,0,2.83-2.11c4.2,1.34,4.48-3.59,1.34-4.37a2.11,2.11,0,0,1,1.25-.37h0Zm-2.49,1.78c0.42,0.68.07,1.12-.65,1.14A8.14,8.14,0,0,0,55.88,217.3Zm52.55,0.87,0.41,0.88A0.62,0.62,0,0,1,108.42,218.18Z" transform="translate(-0.3 -0.3)"/></g></g></g></g></g><path id="path147-0-8-1-3-6-2-4-7" d="M130.92,223.38c7.82-.17,11.33-9,5.53-15.81-0.84-1-.93-1.57.61-0.61,3.9,2.61,11.38.89,11.76-7.08,0.47-9.82-13.25-12.65-15.83-2.21-0.14,1.1-1,1.08-.82-0.49a32.5,32.5,0,0,1,3.38-12.08h-9.3a32.5,32.5,0,0,1,3.38,12.08c0.22,1.56-.68,1.59-0.82.49-2.58-10.44-16.3-7.61-15.83,2.21,0.38,8,7.86,9.69,11.76,7.08,1.54-1,1.45-.39.61,0.61-5.79,6.84-2.28,15.64,5.53,15.81h0Z" transform="translate(-0.3 -0.3)"/><path id="path147-0-8-1-0-3-83-7-5-7" d="M48.46,26.87c7.82,0.17,11.33,9,5.53,15.81-0.84,1-.93,1.57.61,0.61,3.9-2.61,11.38-.89,11.76,7.08C66.84,60.19,53.12,63,50.54,52.58c-0.14-1.1-1-1.08-.82.49a32.5,32.5,0,0,0,3.38,12.08h-9.3a32.5,32.5,0,0,0,3.38-12.08c0.22-1.56-.68-1.59-0.82-0.49C43.8,63,30.08,60.19,30.55,50.37c0.38-8,7.86-9.69,11.76-7.08,1.54,1,1.45.39,0.61-.61C37.13,35.84,40.64,27,48.46,26.87h0Z" transform="translate(-0.3 -0.3)"/></g></svg>