<svg id="Layer_1" data-name="Layer 1" xmlns="http://www.w3.org/2000/svg" viewBox="0 0 178.79 249.65"><defs><style>.cls-1{fill:#fff;stroke:#000;stroke-width:1px;}.cls-2{fill:#131f67;}.cls-3{fill:#e2cf00;}.cls-4{fill:#d40000;}.cls-5{fill:#100f08;}</style></defs><title>13_D</title><g id="g7120"><rect id="rect7234-2" class="cls-1" x="0.5" y="0.5" width="177.79" height="248.65" rx="8.5" ry="8.5"/><path id="path6351-0" class="cls-2" d="M24.29,19.8c0.07,63.3,0,140.91,0,209.85h130V19.8h-130ZM62.34,21c22.44,0.61,45,0,67.62.13,0,0-8.21,14.41-10.7,18.94-0.55,1-.6,1.7-0.31,2.12a2.09,2.09,0,0,1-.09,2.35,1.24,1.24,0,0,0-.33.6,1.91,1.91,0,0,0,.24.63c0.4,1.38-.64,2.34-1.72,2.78a10.4,10.4,0,0,1-3.55.44c-7.5-.36-22.21-6.74-28.28-7.24C81,40.54,75.58,41,71.1,41.21c-0.85.05-.7-1.93-0.7-1.93C69.7,32.72,65.09,27,62.34,21Zm68.84,0.72h21.46v3.35l-9.08,9.21c-0.84.86-1.5,1.58-1.5,1.58L142,44.15c-6.08-3.29-7.29-7.22-8.41-11.55-10.17,7.55-10.64,24.08.46,32.59,0.09-3.7,2.89-11,7.85-11.5L142,82.49l-6.1-6-13.26.17c2.19-3.57,2.23-6.41.82-9.75C121.05,61.45,117.38,49,117.66,49a0.6,0.6,0,0,1,.41-0.34,2,2,0,0,0,1.48-2.6,0.9,0.9,0,0,1,.22-0.85,4,4,0,0,0-.21-3.87Zm-70.33,0,8,14.53a5.29,5.29,0,0,0-.06,1.05,3.76,3.76,0,0,0,.57,1.58,3.21,3.21,0,0,1,.41,1.25c0.08,0.72.08,0.72,1.12,1.67a0.41,0.41,0,0,1,.18.53c-0.35.88-.14,2.68,0.54,4.83,0.86,2.71,1.09,2.68-.52,6.31-0.34.76-.74,1.77-1.18,2.7-2,4.11-2.29,5.22,1.12,7.41A1.9,1.9,0,0,1,72,66a2.31,2.31,0,0,0,.23,2.13c0.3,0.35.57,0.41,0.49,0.68a4.93,4.93,0,0,0-.2,1.66c0.2,1.82-1.89,4.5-3.79,5.44-0.38.27-.49-0.06-0.71-0.44-2-3.48-6.89-2.07-7.21,2.08-0.09,1.1-.05,1.57-0.33,1.81a4.19,4.19,0,0,1-.38.24s-7.35,4.81-12,7.29a5.07,5.07,0,0,1-.79.47,0.59,0.59,0,0,1-.59-0.15C45,83.86,45.91,80,46.06,78.58,46,78.09,45.61,78,45,78a3.66,3.66,0,0,0-2.93,2.09c-0.28.86-.46,1.42-0.72,1.41s-0.38-.35-1-1.59a17.7,17.7,0,0,0-2.78-4.41c-1-1.2-1.84-1.35-2.81-.46-0.68.62-.65,0.08-1.23-0.23-1-.68-2.49-0.07-2.53.89,0,0.81,0,1.41-.85,1.46s-1.29,1.23-1,2.9c0.13,0.88.16,1-.11,1.34a2.83,2.83,0,0,0-.51,3.25c1.37,4.19,3.35,7,5.21,10.81,0,0-4.6,2.7-7.4,4.27v-78H60.85Zm91.93,4.19,0.11,67.66L142.74,83.51s-0.2-13-.19-18.27,0.09-10.6.07-11.59,0.05-5.18.08-9.49c0.07-9-.75-7.91.91-9.64ZM132.94,34l0.56,1.63c-4.26,2.46-9.46,16.14.1,26.18l-0.19,2.07C123.39,54.75,125.24,41.63,132.94,34Zm0.73,1.93c1.46,3,3.12,5.72,5.39,7.37a11.9,11.9,0,0,0,.32,10.53c-1.45.8-3.46,2.93-5.55,7.28C126.29,53.45,128,42.33,133.67,35.94Zm-56.1,5.73a44.19,44.19,0,0,1,12.54,1.91c2.52,12.84,7,21.47,6.93,26.5a3.16,3.16,0,0,1-1.09-.6,4,4,0,0,0-5.5,1.1c-1.21,1.6,0,3.82-.61,4.75-1.18,1.74-4.21,5-4.72,4.85s-0.31-.24,1-2.25,2.39-4,1.94-4.45c-0.19-.2-0.29.22-1.3,2-2.37,4.15-4.45,6.71-5.28,6.37-0.39-.16-0.19-0.5,1.57-2.83,2-2.64,2.53-4.29,2.34-5-0.15-.56-0.46.35-1.28,2a54.93,54.93,0,0,1-3.74,5.46,3.36,3.36,0,0,1-1.6,1.35,4.37,4.37,0,0,1-1.74.51c-0.24,0-.07-0.17.25-0.49a30.27,30.27,0,0,0,5.94-8.35c0.19-.37-0.08-0.89-0.39-0.51-1.89,3.35-4.53,7.53-7.39,9.38a4.07,4.07,0,0,1-2.37.66c-1.41,0-.91-0.36.37-1.19C76.17,81,80,75.91,80.65,74.11c0.15-.43,0-0.67-0.29-0.64-2.26,3.64-5.24,7.64-8.71,9.31-1.87.9-4.22,1.08-5.38,0.51-0.85-.42-0.64-0.56.87-0.66,3.63-.36,7.87-3.79,10-7.41,1.23-2,.37-1.55-1,0.39-2.4,3.31-7.17,6.47-10.12,6.22s-4.71-2.51-4.33-4.51a3.45,3.45,0,0,1,2.76-2.8c2.86-.61,4.74,4,2.12,4.82-0.89.29-1.23,0.07-.91-0.29A1.8,1.8,0,0,0,65,75.61a2,2,0,0,0-2.28,2.16c0,1.2,1,2.37,3,2.4,2.33,0,5.91-1.66,8.09-4.77,1.54-2.38.12-1.58-1,0a13.67,13.67,0,0,1-4.54,3.29l0.11-1.61c0.05,0.28,5-3.16,4.75-5.73-0.19-1.86.08-2.43,2-2.41,1.44,0,3.27.53,3.8,1.19s1.16,0.86.89-.24c-0.44-1.8.09-2.09-.95-1.75-0.71.24-1.35-.34-2.06-0.85a4.68,4.68,0,0,0-3-.76c-0.89,0-1.29,0-1.15-.86a2.94,2.94,0,0,0,0-1.53c-0.28-.63-1.39-1.29-2.65-2.22-1.48-1.1-1.21-1.16,2-8.5,1.33-3.08,1.33-3.71.54-6-1.26-3.59-1.45-5,.9-5.53a35.31,35.31,0,0,1,4.1-.23h0Zm13.38,2.08,1.22,0.35s3.82,13.13,6,19.54a27.72,27.72,0,0,1,1.3,7.08c-0.06,3.42-2,5.87-4.3,6.14a4.15,4.15,0,0,1-4.26-2.52,3.32,3.32,0,0,1,1.82-4.55c3.45-1.24,6,3.19,2.59,4.56-1.75.71-3.41-.57-2.62-2a1.36,1.36,0,0,1,2.47.15c0.3,1.14.79,0.6,0.58-.17a2,2,0,0,0-4,.39c0,2.81,3.06,3.47,4.88,1.89C98,73.31,98.16,71,97.81,69.05c-0.48-4.11-2.79-9.43-4.43-15.51a83.81,83.81,0,0,1-2.43-9.78h0Zm48.67,0.15,2.3,0.92-0.05,7.62-1.95.68c-2.55-3.92-.43-9.21-0.3-9.21h0Zm-46.56.49,1.68,0.65c0.92,5.38,5.27,15.66,6.8,23.34,0.43,4.61.5,6-2.61,8.43v0H97.26A2,2,0,0,1,98,76.13c4.06-3.06,1.64-9.81.1-15-2.67-8.28-5.06-16.75-5-16.74h0Zm-15.73.54-0.65,0c-2.54.14-3,.3-3,0.86,0,1,.41,1.51,2.77,1.25a15.58,15.58,0,0,1,7,1c2.33,1,2.88,1.25,3.72,1.68,2.1,1.09,1.73,0-.16-1.25-3.88-2.57-6.56-3.58-9.76-3.54h0Zm18.32,0.37,1.58,0.61s0.42,1.24.57,1.95c1.54,6.87,5.72,14.59,6.21,22.63,0.11,2.63-.34,5.09-2.25,6.27H100.3c1.55-1.55,2.58-2,2.14-7.37C101.76,62.48,97.24,53.85,95.65,45.31Zm2.8,1.12L99.91,47c1.68,9.27,10,23.13,4.7,29.82h-1.32a8.87,8.87,0,0,0,1.49-6c-0.51-8.43-4.78-16.61-6.33-24.37h0Zm2.44,0.85,1.57,0.48c2.13,9.4,10.31,24.8,4.48,29.06l-1.15,0C110.18,68.51,103.52,60,100.89,47.28Zm2.73,0.88a8.56,8.56,0,0,0,1.69.55c1.65,7.11,4.67,14.09,6,20.71,0.46,3.62-.33,6.34-2.59,7.37h-0.48c2-3.08,1.65-7,.56-11.18C107.4,60,104.57,53.73,103.63,48.15Zm-24.71.12a7.24,7.24,0,0,0-2.3.36c-0.83.31-.72,1,0,0.83l1-.18c1.88-.33,4.2.35,7,2.07,0.68,0.41,1.42.81,1.6,0.95,0.52,0.39,1.07.39,0.88-.11a8.6,8.6,0,0,0-2.12-1.58c-2-1.25-4-2.32-6.14-2.34h0Zm27.38,0.62,1.58,0.24c3,13.75,9.49,22.3,3.92,27.4h-1.4a7.8,7.8,0,0,0,1.71-6.93c-0.52-3-2-7.67-3.3-11.82-1.46-4.8-2.64-8.86-2.51-8.89h0Zm2.27,0.39,1.34,0.25c1.57,5.59,4.23,12.52,5.83,18.29,1,3.55.59,7.92-1.61,8.73l-1.13,0c1.87-2.51,2.13-5.13,1.28-8.51C112.52,61.11,109.87,55,108.56,49.28Zm8.26,0A169.6,169.6,0,0,0,122.58,67c1.55,3.12,1.09,7.73-1.25,9.56l-1.1,0A6.7,6.7,0,0,0,121.81,71c-0.6-6.2-5-14.79-6.53-21.39Zm-5.87.27,1.38,0.13c1.38,6.06,4.07,12,5.82,18a14.73,14.73,0,0,1,.49,4.27c-0.24,2.58-1.3,4.61-2.23,4.61h-1c1.94-2.33,1.85-5.51,1-8.92C115.1,62,111.78,55.22,110.95,49.56ZM75,49.59c-0.58,0-.59.53,0.33,1.34,0.56,0.5.52,0.33,0.49,0.64-0.14,1.34.07,2.57,0.62,1.19A0.94,0.94,0,0,1,77,52c0.41,0.13.2,0.88,0.39,1.25,0.33,0.67,0,.83-0.82.63-0.58-.15-0.61.17-1,0.57-0.63.7-.53,1.12,0.44,0.9a0.88,0.88,0,0,1,.42,0,3.85,3.85,0,0,1,1.3.81A9.46,9.46,0,0,0,80.86,58c1.36,0.23,1.06-.42-0.06-0.85a4.55,4.55,0,0,1-2.13-1.67c0-.22.3-0.09,2-0.56a17.46,17.46,0,0,0,2.24-.87,2.9,2.9,0,0,1,1.91-.3c1.94,0.06,2.24,0,.88-1-2.76-2.06-6.43-3.4-8.38-2.54-0.59.26-.58,0.1-1-0.15A2.9,2.9,0,0,0,75,49.59h0Zm39.44,0.19c1.91,7.41,5.6,14,6.5,21.07a6.65,6.65,0,0,1-1.79,5.67l-1.12,0c-0.16,0,1.56-2.69,1.41-5a13.16,13.16,0,0,0-.44-3.85c-2.17-6.25-4.31-11.91-6-17.87ZM80.08,52.23c0.43,0.08.44,0.29,0.3,0.55S79.75,54,79.75,54a1,1,0,0,1-.64,0,2.33,2.33,0,0,1,.78-1.69,0.26,0.26,0,0,1,.18,0h0Zm1.2,0.22a0.74,0.74,0,0,1,.24.07c0.5,0.2,1.37.61,1,.92a3.44,3.44,0,0,1-2.08.39L81,52.76A0.42,0.42,0,0,1,81.28,52.45ZM76,58.93L75.9,59a1.46,1.46,0,0,0,.46.92c1.52,2.07-.59,2.68-2.08,1.58s-3.61-1-3.29.16c0.11,0.41,0,.61.79,0.62a2.06,2.06,0,0,1,1.52.49c2.42,1.67,5.56-.57,4-3A2,2,0,0,0,76,58.93h0Zm6,3.23c-0.88,0-1.44.66-.33,0.86,3.94,0.71,1.3,4.82-1.48,2.7-2.5-2.27-5.85-2.26-5.89-.64,0,0.41,0,.42.61,0.53a21.51,21.51,0,0,1,4.28,1.31,9.31,9.31,0,0,0,1.1.49c1.67,0.61,3.81-.18,4.23-1.6s0.07-3.66-2.5-3.66h0ZM32.59,75.39a2,2,0,0,1,1.49,1.15c0.92,1.57,2,4.21,2.76,5.67a1.71,1.71,0,0,1,.18.87c0.06,0.85.34,1.18,0.84,0.79s1.18-1,.38-1.11c-0.81-.61-1.26-1.52-0.76-2.07S37.71,80,37.41,80c-1.13,0-2.83-3.41-2-4.15,1.08-1,2.27.24,4.8,5.29,1.12,2.23,1.17,4.68.21,3.47-0.33-.31-0.26-0.15-0.64.81a5.25,5.25,0,0,1-1.61,2.12A10.87,10.87,0,0,0,36,90.09c-0.06.43,0.72,0,1.28-.71,1.26-1.24,1.31-1.57,1.3.07,0,1.49-.09,1.76.18,1.75s0.64-1.2.83-2.62a3.72,3.72,0,0,1,2-2.64c0.3-.2.31-0.33,0.25-0.9-0.2-1.81.82-5.19,1.28-4.35,0.07,0.19.27,0.63,0.38,0.93a1.17,1.17,0,0,0,.84,1.05c0.57,0.43.56,0.66,0.76,2.22a8.64,8.64,0,0,0,.44,1.68c0.29,0.76.55,1.2,0.39,1.42l-0.32.32-9.22,5.5s-0.72.4-1,.51a1.08,1.08,0,0,1-1.53-.46,63.32,63.32,0,0,1-4.67-9.26c-0.82-1.8,0-3,1-1.54,0.41,0.56.2,0.92,0,2,0,0.2.14,0.12,0.49,0.18,0.54-.06.8,0.43,0.78,1.25-0.34,1.18.13,0.54,0.35,0.48,0.43,0,.52.26,0.76,0.75,0.15,0.69.45,0.49,0.89,0s0.36-.37-0.37-1.25a18.58,18.58,0,0,1-3.47-6.39,2.22,2.22,0,0,1,0-1.22c0.57-1.3,1.37-1.3,2.24.51a10,10,0,0,0,.64,1.1,2.54,2.54,0,0,1,.53,1.68c-0.26.65-.3,0.66-0.08,0.75a3,3,0,0,1,1.57,2.12c0,0.91.2,1.39,0.91,0.85s0.47-.86-0.33-1.65c-0.84-1-.89-1.87-0.39-2.6,0.08-.24,0-0.31-0.26-0.28a1.38,1.38,0,0,1-1.24-2.09c0.31-.55.27-0.7-0.16-0.71a2.11,2.11,0,0,1-.79-0.07,5,5,0,0,1-.88-1.92,1.39,1.39,0,0,1,1.19-1.22h0Zm57.78,0a18.78,18.78,0,0,0,5,2.48A27.47,27.47,0,0,1,78.89,91.09a3.35,3.35,0,0,0,1.25,2.52,10.93,10.93,0,0,1-.35-2.21c7.72-2,14.51-9.59,16.24-13.52l33.91-.37c-25.14,24.28-26.14,58.45-5.63,87.09L122,166c-15.8-23.83-15.64-46.8-10.9-62.18a61.77,61.77,0,0,1,14-24s-18.38-.25-27.53.08a39.29,39.29,0,0,1-4.35,5.65s4.65-4.52,4.53-5.31c8.48,0,17.22-.5,25.69.1-9.91,11.94-14.79,24.27-15.64,35.87,0,1.51-.12.67-0.62,1.22l-1.56,2.44-1.25-2.54c-0.85-.28-2.53.17-3.24-0.09-3.49,15.66,0,34.56,4.62,46.9a5,5,0,0,1-2.57.54c-1.55-.35-1.93.08-3.27,0.36-1.55.3-2.08,0.29-2.43,0.69a3.62,3.62,0,0,1-.92.74c-3.76,1.38-8.18,6.54-8.18,6.47l-4.15-1.87c3.82-7.55,8.3-10.27,16.18-13.62l-0.73-3.37C91.2,157.21,85.86,161,81.65,168.3c-5.11-.07-25.81-0.22-25.83-0.15,8.44-9.67,15.1-24.25,15.83-35.62,0.18-2.21-.13-1.15.84-1.81L74,128.88l1.2,1.81s0.87,1.11,1.42.19C78.18,115,76.55,96.94,69,84.33a6.48,6.48,0,0,1,4,.64,80.94,80.94,0,0,1,5.48,21.39,103.23,103.23,0,0,1-.15,24.48l0.51,0.07a102.85,102.85,0,0,0-.38-29.55A75.79,75.79,0,0,0,73.9,85.63c-0.43-1-.76-1.2-0.35-1.34,9.25-.78,13.5-3.89,16.82-8.85h0Zm-25.64.83a1.29,1.29,0,1,1-1.28,1.29A1.29,1.29,0,0,1,64.73,76.27Zm69.5,0.66a76.64,76.64,0,0,0-7.17,7.75c6.76,9.36,14.28,19.51,20.6,27.62a16.47,16.47,0,0,0,2.18-1.47,0.66,0.66,0,0,0-.21-0.42,11,11,0,0,1-1.77,1.17l-20-26.43,1.42-1.72c1.55-.51,5.88-5.91,6.09-5.8,3.39,2.61,13.6,13.69,17.54,17.09L153,125.47c-0.41,1.23-11.3,6-19,23.66-3.87,2.18-8.15,3.36-12.14,5.26a15.1,15.1,0,0,0,1.51,2c-0.61-1.32-.72-1.58.66-2.14l28.79-11.82-0.05,2.39c-2.89,2.25-22,16.15-27.85,19.44-27.54-38.67-10-71.73,6.07-87.19ZM44.54,79c0.75,0,.56,1.77.28,2.37-0.56.44-1.11,0-1.1-.77a1,1,0,0,0-.12-0.56C43.19,79.78,43.89,79,44.54,79Zm16.82,1.1a3.5,3.5,0,0,1,1.1,1.77c-0.85-.14-3.14-0.79-2.07-1.31ZM57.2,82.39c19.87,30.25,19,62.38-3.19,86.74l28.05,0C85.62,162,91.57,157.67,99.18,155l0.66,2.23c-8.75,2.83-13.17,7.51-16.69,14H49.7c12.85-13.92,18.74-25.69,19.67-41.6,0.88-15.15-2.95-29-14.58-45.65Zm5.6,0.35L67.48,85l-0.69,4.84-4.91-2.28ZM54.35,84.1c25.05,38.16,14.31,65-5.69,87.35l-3.69.06-8.59-8,0.16,48.82s-8.37,8.26-9.34,9.25-1.66-.49-1.66-0.49l0-64.72,0.37-2.54L26,139.84,31.38,137l20,26.42a7.3,7.3,0,0,1-1.18,1.41c0.43,1,1.85-1.44,2-1.82-7.26-9.06-20.76-26.79-20.76-26.79l-5.62,3s0.16-11.58.06-16c0.22-1,1-.77,1.52-1.24,7.31-4.78,13.34-11.65,18.46-23.37,3.89-1.28,8-3.09,11.89-4.72l-5.63-8.51ZM39,84.58a3,3,0,0,0-1.48.91c-1.34,1.23-3.11,3.24-3.12,3.63a0.92,0.92,0,0,0,1-.37c1.12-1.67,2.86-2.32,3.88-3.78,0.16-.27,0-0.38-0.25-0.38h0Zm12.62,1.77s3.89,5.7,4.88,7.22c-10.24,4.08-21,9.48-30.45,13v-2.29S43.87,90.79,51.61,86.36Zm15.24,3.77,3.83,2L69.6,96.47l-3.87-2.18ZM70,97.36l3.15,2.31-1.44,3.69-3.17-2.2Zm-25.69,2.71a18.89,18.89,0,0,1-1.3,3.24c-3.9,6.82-7.71,12.87-15.58,18.13a14.08,14.08,0,0,1-1.16-1.78l-0.08-2c4.18-3.38,7.78-5.86,13.31-15.77l1.6-.66,1.37,0.59,0.92-1.66Zm16.39,0c-3.63,7.75-7.2,15.75-13,21.79l15.83,22.24C68.76,128.42,66.83,113.7,60.71,100.09ZM40.8,101.78L40,103.1l1.32,0.76,0.76-1.32Zm-2.15.14a33.27,33.27,0,0,1-12.82,15l-0.22-9.47Zm1,1.93-0.76,1.32,1.32,0.76L41,104.61ZM72,104.12l2.85,2.73-1.69,3-2.93-2.44Zm43.71,1.34h0c-5,15.69-3.51,30.68,3.37,43.73a91.19,91.19,0,0,1,12.73-23.12c-4.06-5.35-15.69-20.78-16.1-20.61h0Zm-77.17.25-0.8,1.3,1.29,0.8,0.8-1.3Zm21.88,1.83a43.16,43.16,0,0,1,1.72,29.19L50.84,122.38A104,104,0,0,0,60.42,107.55Zm-23,0-0.86,1.26,1.25,0.86,0.86-1.27Zm-1.26,1.81-0.94,1.21,1.2,0.94,0.94-1.21Zm37.19,1.29,2.56,2.44-1.61,3.17-2.6-2.39Zm-38.67.59-1,1.16,1.15,1,1-1.16Zm82.46,0.34,11.39,14.8a77.54,77.54,0,0,0-9.81,15.74C115.5,132.14,114.07,122.3,117.09,111.62ZM33,113.11L32,114.22l1.1,1.06,1.05-1.1Zm26.6,1.48-5.21,7.59,6,7.68A37.32,37.32,0,0,0,59.64,114.59Zm-28.3.25-1.12,1,1,1.13,1.12-1Zm-1.64,1.48-1.18,1,1,1.19,1.18-1ZM74.2,117.1l2.14,2.52-2.17,2.59-2-2.3Zm27.2,0.45,1.45,0.05c-2.38,23.67,2.3,35.65,6.45,46.07a1,1,0,0,1-.15.54,3.14,3.14,0,0,1-3.14-.48c-5.58-14.43-6.79-32.21-4.61-46.18h0Zm-73.62.31-1.23.9L27.44,120l1.23-.9Zm91.09,0.84c-0.37,0-.69,9.74.7,14.49l5.24-7.15Zm-13.55,1.61,1.75,2.37-1.86,2.55-1.9-2.42Zm-79,.64a3.63,3.63,0,0,1,.51.43c0.26,0.28.22,0.26-.07,0.49-0.46.37-.6,0.31-0.59-0.27a0.92,0.92,0,0,1,.14-0.65h0Zm47.95,1.78,1.94,2.79L74.1,128.3l-1.83-2.92Zm30.86,3.54,2,2.5-1.75,2.75-2.23-2.62Zm47.23,0.53,0.18,2.88-0.71-1.05-1.3,1,0.9,1.21,1.13-.89,0.07,1.16c-7.18,5.23-10.28,11.23-13.2,15.74l-1.3.55-1.48-.47L136,148.22l-1.25.3a59.71,59.71,0,0,1,6.89-11.13A78,78,0,0,1,152.4,126.8h0Zm0.83,4.51,0.06,10.26-12.86,5C143.77,140.84,147.7,135.53,153.23,131.31ZM150,130.06l-1.17,1,1,1.17,1.17-1Zm-1.81,1.54-1.13,1,1.05,1.13,1.13-1Zm-42.94.57,2.42,2.6-1.78,3.07-2.52-2.44Zm41.11,1.09-1.06,1.09,1.16,1.12,1.06-1.09ZM144.73,135l-1,1.14,1.23,1.08,1-1.14Zm-1.68,1.93-0.95,1.2,1.28,1,0.95-1.2Zm-36.93,1.84,3,2-1.48,3.63-3-2.32Zm35.46,0L140.7,140l1.37,0.94,0.9-1.29Zm-1.37,2L139.39,142l1.38,0.9,0.82-1.33ZM139,142.69L138.23,144l1.43,0.82,0.76-1.34Zm-1.1,2L137.13,146l1.59,0.69,0.63-1.26Zm-30.12.82,3.1,2.12-1.37,3.8-3.27-2.33Zm44.88,3.74v78.39h-33.9s-1.6-2.84-4.94-9.38c-1.41-2.77-2.61-3.94-2.73-6.14a3.54,3.54,0,0,0-1.51-3.34c-0.35-.2-0.94,0-0.74-0.51a2.3,2.3,0,0,0-.63-1.74c-0.21-.35-0.08-0.44-0.1-1.74a9,9,0,0,0-.36-2.74c-0.68-2.41-.83-3.61-0.44-4.86a69.66,69.66,0,0,1,3.42-8.54c0.79-1.73.67-2.4-1.76-3.66-1.82-.94-2.06-0.93-1.83-2.3a2.7,2.7,0,0,0,.07-1.36,2.4,2.4,0,0,0-.56-0.61,0.71,0.71,0,0,1,.08-0.94,1.55,1.55,0,0,0,0-1.48c-0.5-1.54.63-3.58,2.75-5,0.94-.62.91-0.49,1.89,0.54,2.86,3,7.11,1.12,7.12-3.14,0-1.33-.45-1.25.8-1.88,4.23-2.71,12.91-7.64,12.86-7.51a19,19,0,0,1,1.11,3.4c0.31,1.07.27,1.15,0.15,3.24-0.1,1.89-.16,2.32.28,2.44,2.51,0.28,3.08-.61,3.56-2.24,0.21-.72.61-0.57,0.86-0.27,1,1.75,2.16,3.56,3,4.81,1,1.59,2.66,2.37,3.53,1.63,0.18-.62.34-0.64,1.44-0.38a1.67,1.67,0,0,0,2.24-1.44c0.05-.4-0.24-0.38.48-0.77,1.78-1.33,1.1-3.14.84-4.24a1.62,1.62,0,0,0,.78-1.47c0.09-5.31-4.49-13-4.38-12.76Zm-43,3.06,3.63,1.76-0.86,4.36-3.73-1.69Zm35.3,1.62c2.09,2.44,3.6,6.51,4.38,9.15,0.38,1.32.43,2.83,0.09,3s-0.5,0-.43-0.8,0.07-1.17-.21-1.16c-0.81.21-.84-1-0.76-1.32a2.88,2.88,0,0,1,.2-0.44c0.2-.48-0.32-0.41-0.86-0.42s-0.6-.28-0.58-0.74-0.68-.41-1.06,0a0.62,0.62,0,0,0,.2,1.05c0.67,0.42,1.31,1.44,2.88,5,0.91,2,.64,3.49-0.44,3.48-0.75,0-1.63-2.1-2.34-3.63a1.18,1.18,0,0,1,.44-1.05c0.42-.55.35-0.72-0.26-0.73a1,1,0,0,1-1.17-.68,1.82,1.82,0,0,1-.18-0.95c0.3-.79-0.31-1-0.91-0.68-0.75.31-.74,1,0.4,2.09,0.74,1.22.54,1.13-.15,1.95-0.15.29-.06,0.47,0.25,0.47,0.88-.27,1.85,1.33,1.58,1.88-0.27.24-1,1.09-.3,0.93,1.46-.4,2.34,1.75,1.48,2.47-1.28.65-1.58,0.44-3.55-3.52-0.61-1.23-1.35-2.55-1.44-2.69a1.81,1.81,0,0,1-.13-0.79c0.09-.72-0.22-0.88-0.84-0.59-0.46.11-.88,0.5-0.3,0.86,0.69,1.19.93,1.38,0.55,1.69-0.86.69-.49,0.66,0.48,0.85a1.22,1.22,0,0,1,.84.68c0.5,1.12,1.38,2.71,1.46,3,0.29,0.82-.23,1.19-1,1.16a1.82,1.82,0,0,1-1.46-1.09c-1.37-1.92-2.36-3.82-3.75-6l0.19-2a1.11,1.11,0,0,0,.57,0,2.61,2.61,0,0,0,.87-1.68c0.37-.73,2.54-2.41,3.37-3.31a0.61,0.61,0,0,0,.28-0.37c0-.33-0.94-0.11-1.56.6-0.9.81-1.29,0.53-1.26-.5-0.09-1.28-.86-0.64-0.9.61a2.83,2.83,0,0,1-1.12,2.14c-1.29,1-1.08.78-1,2.22,0.1,2.52-.86,4.59-1.49,3.22a1.42,1.42,0,0,0-1.05-1.07c-0.4,0-.6-0.41-0.82-1.39-0.33-1.58-.78-2.59-1.2-4Zm-32.15,5.42,4.18,1.68-0.78,4.4L112,163.84Zm31.87,0.41-0.1,0a40.18,40.18,0,0,1-3.55,2.67,2.8,2.8,0,0,0-1,1.22,1,1,0,0,0,1.13-.06,20.87,20.87,0,0,0,3.57-3.36c0.21-.23.19-0.51,0-0.5h0Zm-38.38,5.34c1,0,.41.29-1.74,1.8s-5.58,6.12-6,7.85c-0.18.78,0.31,0.84,0.87-.23,2.56-4.95,7.39-9.47,11.82-9.27,2.17,0.1,3.34.69,1.55,0.95-4.92.61-8.6,3.43-11.82,9.07,0,0.13.29,0.12,0.63-.1,2.95-3.63,6.27-8.43,12.1-8,4.21,0.26,5.4,5.29,1.91,7-3,1.5-5.85-2.15-3.33-4.32,0.82-.7,1.33-0.39.54,0.32-1.69,1.54.38,4.29,2.44,3.25a2.36,2.36,0,0,0,.66-3.7c-2.45-3-7.74-.73-11.43,4.17-0.39.52-.72,1.63-0.39,1.51a2.86,2.86,0,0,0,1.25-1.2,11.11,11.11,0,0,1,4.11-3.75c1.38-.76,1.46-0.62.95,0.7a1.87,1.87,0,0,1-.92,1.09c-2.24,1.54-3.64,3.61-3.69,4.93,0,1,.66,2.22-0.1,2.47-1.29.61-4.79,0.11-5.74-1.1-0.68-.88-0.94-0.37-0.43,1.05,0.34,0.94.32,1.47,0.83,1.37,0.64-.34,1.09-0.26,2.34.42a10.79,10.79,0,0,0,2.32.79c1.19,0.28,1.43.16,1.41,0.68,0,0.16,0,.6,0,0.88-0.19,1.56,1.1,2.09,2.86,3.11,1,0.6.62,1.21-.57,4.17-0.62,1.34-1.15,3.14-1.91,4.5a7.52,7.52,0,0,0-.31,5.11c0.85,3.54,1.47,5.34-.05,5.66-3.91.6-12.56,0.57-17.28-1.25-1.21-9.12-7.6-22.66-6.78-26.16,1.64,2.49,8.5,1.83,6.43-5.12a15.25,15.25,0,0,1,1.68-2c2.88-2.94,3.59-3.43,2.22-.84a35.4,35.4,0,0,0-2.42,5.1c0,0.4.29,0.49,0.53,0.17a8.06,8.06,0,0,0,.58-1.25c1.72-4,4.65-7.7,6.68-8.58,0.52-.23.49,0,0.13,0.46a31.52,31.52,0,0,0-5.49,9.34,0.33,0.33,0,0,0,.63.17c2.23-4.71,2.9-5.78,5.64-9.1,1.08-1.3,2.08-2,2.88-1.89s0.49,0.18-.15.86A36.09,36.09,0,0,0,99.31,169c-2.07,2.62-4.14,6.88-3.38,6.65,0.13,0.35.78-.78,1.33-1.86,1.51-2.55,3.11-5.92,6.7-8.14a6.33,6.33,0,0,1,2.29-.5h0Zm-69.34.82,6.38,6.42,12.84-.17c-2.12,3.31-1,8.45.18,11.45,2.29,5.88,5.64,15.6,5.4,15.74,0,0-1.87.48-2,1.68-0.25,1.77.51,1.64-.59,3.23a1.79,1.79,0,0,0,.18,1.58,1.5,1.5,0,0,1,0,1.45L48,227.64H26.26V223.7l11-11-0.13-8.07C43,206.41,45,212.51,45.49,217c10.6-9.74,10.34-24.42.32-33.62-2,9.73-8.95,11.75-8.8,11.56Zm79.86,1.15a6,6,0,0,1,2.24.5,4.39,4.39,0,0,0-1,.88A6.23,6.23,0,0,0,116.78,167.08Zm17.8,0.07c0.57,0,1.27,1.68.87,2.08a1.37,1.37,0,0,1-1.23.14C133.89,169.12,134.06,167.16,134.58,167.15Zm-20.25,2.92a1.34,1.34,0,1,1-1.33,1.34A1.34,1.34,0,0,1,114.33,170.08ZM57.85,172l1,0c-1.75,2.36-2,4.38-1.37,7.32,0.7,3.31,6,15.73,6.36,19.16,0,0.15,0,.59,0,0.59l-1.31.09-0.14-.49c-1.83-6.2-3.65-10.92-4.92-14.53-1.27-3.89-3.21-9.67.38-12.15h0Zm7,0h0.95a16.32,16.32,0,0,0-1.48,4.69,18.76,18.76,0,0,0,1,6.32c1.55,4.65,3.83,9.82,5.09,15.68l0.15,0.64-1.37-.19s-0.13-.6-0.15-0.68C68.16,193.33,65.52,188,64,182.9a17.34,17.34,0,0,1-1.08-7.31,6.74,6.74,0,0,1,2-3.57h0Zm11.18,0A11.24,11.24,0,0,0,74.13,177a22.26,22.26,0,0,0,1.56,7.61,141.28,141.28,0,0,1,4.93,17.68l-1.32-.57s-0.05-.34-0.08-0.44c-0.7-3.81-.75-3.48-4.89-16.3-1-3.08-1.89-5.77-1.71-8.34,0-1.46,1.31-4.35,2.64-4.58h0.81Zm1.58,0h1.23s-0.68.72-.87,1c-2.15,3-1.53,6.22-.46,10.07,1.47,5.29,4.19,11.2,5.61,19.25,0,0.15,0,.93,0,0.93l-1.46-.59c-1.33-7.39-4.61-15-6.2-21.69-0.93-3.9-.67-6.37,1.48-8.49a3.38,3.38,0,0,1,.67-0.46h0Zm-15,0h0.92s-1.54,2.54-1.54,4c-0.26,2.68.71,5.64,1.81,8.75,1.7,4.77,3.95,10.54,4.64,13.58,0,0.12.12,0.66,0.12,0.66L67,199a9.61,9.61,0,0,0-.18-1.07c-1.85-6.53-3.66-10.76-5.79-16.72a15.56,15.56,0,0,1-.23-6.78,3.53,3.53,0,0,1,1.85-2.37h0Zm-2.47,0,1,0s-0.15.27-.53,0.93c-1.81,3.3-1,6.32.12,9.68,1.5,4.48,3.85,10,5.32,15.14,0.08,0.29.2,1.17,0.2,1.17l-1.43,0s-0.29-1.06-.31-1.17c-0.81-4.8-5.17-12.81-6.3-18.9-0.62-3.27-.09-5.29,1.94-6.86h0Zm13.3,0a15.31,15.31,0,0,0-1.71,4.26c-0.28,3,.66,5.46,1.74,8.83C75.34,191,78,197.8,78.2,200.92c0,0.1,0,.48,0,0.48l-1.61-.58s-0.07-.33-0.1-0.44c-1.41-5.64-3.07-11.26-5.31-17.6-0.55-2.14-1.28-4.29-1.21-6.12a6.17,6.17,0,0,1,2.19-4.57Zm7.1,0,1.3,0a6.69,6.69,0,0,0-1.32,1.2c-5.13,4.72,3.19,18,5.11,30.17,0,0.13.08,0.59,0.08,0.59l-1.43-.52c-0.14-.6-0.24-1.34-0.4-2-1.55-6.2-3.63-12.58-5.53-18.36-1.07-4.21-1.46-7.93.46-10a4.6,4.6,0,0,1,1.73-1.11h0Zm-13.37,0,1.38,0a8.91,8.91,0,0,0-1.64,5,19,19,0,0,0,1.17,6.21c1.39,4.37,3.37,9.11,4.73,15,0.08,0.39.14,0.64,0.18,0.81a6.84,6.84,0,0,0,.21.7l-1.46-.29s-0.15-.38-0.25-0.58a6.25,6.25,0,0,1-.4-1.15c-0.71-3.07-3.31-10.05-4.9-14.94-1.26-3.08-1.6-8.47,1-10.78h0Zm17.28,0.05A4,4,0,0,1,88.22,175a3.47,3.47,0,0,1-1.75,4.05c-2.67,1.36-5.55-2.26-3.44-4.26,1.6-1.51,4-.39,3.45,1.54a1.33,1.33,0,0,1-2.55.07c-0.09-.42-0.3-0.85-0.45-0.61-1,2.33,2.32,3.42,3.7,1.25a2.62,2.62,0,0,0-3-3.54c-3.13.58-3.49,4.58-2.19,9.24,1.81,7.37,6.14,17.28,6.13,21.83,0,0.06,0,.25,0,0.25l-1.37-.41,0-.14c-0.82-6.36-5.51-16.88-6.86-25-0.58-3.69.84-6.36,4.05-7.1a3,3,0,0,1,.55-0.07h0Zm-13.57.06a9,9,0,0,0-1.62,4.63,22,22,0,0,0,1.3,6.14c1.52,5.24,5.06,14.9,4.93,16.71,0,0.19.13,0.8,0.13,0.8l-1.37-.41a2.65,2.65,0,0,1-.16-0.34c-0.46-1.8-2.63-9.5-5.06-16.16A18.42,18.42,0,0,1,67.73,177a7.64,7.64,0,0,1,2-4.83H70.9ZM97,180.88c-3.55.2-3.21,4.56-1,5.3a1.34,1.34,0,0,0,1.37-.14c0.14-.2,0-0.5-0.53-0.57-1.49-.49-2-2.26-0.68-3,0.74-.39,1.91-0.14,3.33.92,2.53,1.89,5.64,2,5.23.1-0.1-.46-0.3-0.53-2.15-0.78a6.89,6.89,0,0,1-2.84-1A5.45,5.45,0,0,0,97,180.88Zm-50.8,4.05c9.17,9,7.81,23.14,0,30.22-0.16-.57-0.5-2-0.54-1.93,5.89-6.17,8.66-16.29.14-26.65a16.37,16.37,0,0,0,.43-1.63h0Zm57.45,0.24a0.74,0.74,0,0,0-.23,0c-2.37.65-2.87,3-1.33,4,0.94,0.6,1.67.23,0.49-.49a1.22,1.22,0,0,1,.71-2.22c0.53,0,.9.24,2.25,1.25,1.12,0.83,2.17.89,2.4-.23,0.14-.67-0.08-1-0.79-0.79a1.16,1.16,0,0,1-.92-0.41,5.47,5.47,0,0,0-2.59-1.13h0Zm-58.4,1.77c8.26,9.66,5.61,19.73,0,25.63A17.14,17.14,0,0,0,40,205.18c1.41-3.16,2.26-6.45-.39-10.62A20.51,20.51,0,0,0,45.22,186.94Zm53.69,3.53c-0.39,0-.26.37,0.65,1,2.18,1.49,2.36,1.76.25,1.73a6.15,6.15,0,0,0-1.85.51c-2.76.93-2.89,0.85-4.21,0.54a1.54,1.54,0,0,0-1.08-.11c-0.3.27-.63,0.45-0.26,0.86a6.72,6.72,0,0,0,1.4.88c3.2,1.85,3.49,2.29,7.25,2.39A5.15,5.15,0,0,0,102,198a2,2,0,0,1,1.56.71c1.14,1,1.19.29,0.51-1.08-0.35-.72-0.66-0.89-0.49-1.44,0.4-1.25-.17-1.49-0.91-0.39-0.55.86-.62,0.84-1.14-0.27-0.7-1.39-.37-2,0.69-1.12,0.8,0.68,1,.18,1.32-0.37,0.41-.71.35-1.35-0.38-1.3a1.4,1.4,0,0,1-1.14-.53A6.13,6.13,0,0,0,98.91,190.46Zm0.9,3.75a0.18,0.18,0,0,1,.18.13,5.32,5.32,0,0,1-.56,1.88,0.44,0.44,0,0,1-.42.29c-0.66.12-.71-0.08-0.59-0.49a2.43,2.43,0,0,1,1.29-1.8h0.1Zm-1.68.32c0.27,0,.28.09,0.17,0.34a6.3,6.3,0,0,1-.77,1.12c-0.53.34-1.39-.71-1-1a4.62,4.62,0,0,1,1.48-.46l0.13,0h0Zm-59.19.69a1.1,1.1,0,0,1,.44.09,8.54,8.54,0,0,1,.31,9.14,0.32,0.32,0,0,1-.43.14,11.9,11.9,0,0,0-2.15-.78v-8a10.38,10.38,0,0,1,1.83-.64h0Zm52.7,0.65c-0.15,0-.22.11,0,0.31,2.92,2.12,6.93,4.59,10.63,3.63a0.55,0.55,0,0,0,.55-0.61,0.66,0.66,0,0,0-.82-0.3,10.21,10.21,0,0,1-3.14.15c-2.55-.42-4.79-2.06-6.75-3a0.72,0.72,0,0,0-.44-0.16h0Zm-0.85,2c-0.13,0-.12.12,0,0.37,0.41,1.23,4.54,4.1,7.8,5,2.8,0.81,6.82,0,6.58-1.32-0.12-.7-0.63-0.86-2.42-0.64-3.93.77-7.72-.85-10.59-2.65a7,7,0,0,0-1.34-.81h0ZM65,199.58a29.23,29.23,0,0,1,5.26.43,46.15,46.15,0,0,1,11.25,3.37c6,2.26,13.47,4,19.84,3.76a28.24,28.24,0,0,0,4.91-.27c1.42-.32,1.81,0,2.15,1.76a1.08,1.08,0,0,0,.67.83c0.75,0.51.63,1,.54,2.16-0.08,1,.5,1.49,2.8,5.76,2.62,4.86,5.17,10.51,5.17,10.51-22.94,0-44.82-.87-68.29-0.14,2.11-5,7.87-14.13,11.47-21.42-0.87-2.24.2-2.63-.25-3.16a2.28,2.28,0,0,1,1.34-3.39A30.34,30.34,0,0,1,65,199.58Z" transform="translate(0.1 0.1)"/><path id="path6353-8" class="cls-3" d="M49.6,227.91s7.52-15.3,10.68-19.89c4.56-5.82,25.12,2.53,35.35,4.61,4.16,0.81,13.79.43,13.79,0.43l8.06,14.62ZM34,210.53l-0.32-47.63L36,164.37l0.54,47.85L26.4,222l-0.06-2.87Zm6.16-5.44c2.42-4.91-.28-10.91-0.28-10.9,1.41,0.35,5.32-7.13,5.67-6.92,6,7.4,7,18.43-.29,25.26a19.4,19.4,0,0,0-5.1-7.44h0Zm4.47-33.69c4.55-4.69,8.17-8.34,11.77-13.58,0.3-.43-19.21-25.38-18.91-25.81,3-3.35,7-5.81,10.18-9.85,0,0,16,21.09,16.37,20.9,1.62-6.6,2.81-12.57,2.5-19.47-1-17.65-8.48-28.45-8.54-28.24-2.53,16.22-27.43,40.78-32.33,39l0-11.33c0.3,0.57,15.77-10,19.85-24,0.29-1,12.3-4.87,12.22-5C57.2,92.68,52,85.2,52,85.2a23,23,0,0,1,2.36-1A68.52,68.52,0,0,1,68,114.65c2.12,11.52,3.49,33.17-19.45,56.82Zm68.76-29.8a64,64,0,0,1-1.84-30.94c2.52-14.69,11.74-25.21,19.14-33.24h3.21l-5.23,5.45a81.73,81.73,0,0,0-5.87,8.54l19.14,25.19,10.91-2.37s-0.33,11.27,0,11.27c-8.48,7.07-14.57,13.46-18.95,23.76-2.68,1-11.57,4.86-11.57,4.86-4.23-1,12.57-27.56,9.38-28-1.32-1.09-15.89-20.89-16.17-20.85-6.72,20.71-.16,42.46,11.65,57.64a8.3,8.3,0,0,1-2.44,1.35c-5.06-7.07-9.5-15.51-11.37-22.66h0Zm-35-10.38c0.76,1.18,4.16-25.27-4.79-46.45,0.85-.65,8.24-2.07,8.24-2.07l2,6.34-5,2.15,0.93,3c3.91-1.91,12.38-4.73,17.59-13.44,0,0,25.31-.22,25.85-0.17S118,86.08,112.63,97.19a50.56,50.56,0,0,0-4.83,19.34c-0.08,1.52-5.79-7.16-5.79-7.16,1.42-7.33,5.23-14.55,9-21.77,0,0-5.82-.33-9.89-0.21-6.32,7-10.29,10.63-19.82,13.95,3.48,11.21,24.75,16.61,20,15.58-1-.23-2.19,10.31-1.17,22.19,0.2,9.5,5.27,25.32,5.45,25.2,0,0-3.38.77-3.65,0.22l-5,1.29-2-5.9,5.42-2.51-0.88-3.33s-12,3.64-17.81,14.13l-26.16,0c10.09-11,14.2-21.92,16.39-36.34,2.14,0.39,6.52-.67,6.52-0.67h0Zm64.33-95.16c3.29-2.77,9.89-10,9.89-10l0.09,3.7-7.49,7.85,0.08,48.44-2.53-2.45Zm-3.46,17.73c-1.35.65-4,3.83-5.32,7.41-8.68-7.81-5.11-22.16-.35-25.15,1.38,3.13,5.37,7.29,5.28,7.2C138,46.53,137.27,49.86,139.29,53.79ZM62.44,21.27l66.94,0.12C125.56,29,122.06,35.08,118,42.53c-2.11,2.57-47.83-8.28-48-7.2Z" transform="translate(0.1 0.1)"/><path id="path6355-9" class="cls-4" d="M26.25,218.27l-0.45-63.6,7.61,7.44L33.87,211Zm34.92-12.32c-1.57.24-.68-1.23-0.4-2.62,0.16-.78-0.59-1.51-0.58-1.75,0-1.38,1-2,5.7-1.91,11,0.77,16.65,4.3,22.94,5.95,6,1.57,12,1.54,18.66,1.39,0.49,0.28,2.27,4.91,1.94,5.37-15,3-34.25-8.14-48.26-6.43h0ZM88.29,173a9.65,9.65,0,0,0-4.54-1.62c2.58-4.57,5.71-8.74,10.93-11.34l2.43,6.05A25.38,25.38,0,0,0,88.29,173h0ZM56.59,157.3a28,28,0,0,1-4.38,5.51c-6.32-8.53-20.45-26.7-20.45-26.7l-6,3.06a36.74,36.74,0,0,1,.11-3.76c16.2-8.4,27.31-24.29,32.2-39.16,0,0,2.61,2.68,2.26,3.81a75,75,0,0,1-22.88,32.32ZM76.79,140l20.45,0,0.91,7.16c-7.83,2.64-14.29,8-20.33,14.28l-9.7-.17c3.18-7,7.6-14.13,8.68-21.3h0Zm75.7-30.15c0.66,2,0,4.19.25,4.1-24.49,12.2-31.49,39-31.49,39s-2.33-3.71-2.22-4.28c12.68-28.37,21.16-29.21,22.79-32.29L122.53,91.21l4.36-6,20.68,27.1C149.63,111.38,150.8,110.58,152.49,109.84Zm-12.08,36.7c4.15-7.52,8.44-11.89,12.71-14.9l-0.21,9.93ZM25.91,117L26,107.39l12.62-5.47C35.14,109.58,30.41,113.69,25.91,117Zm56.2-8.66-0.75-6.77a56.27,56.27,0,0,0,19.89-14c5.87-.28,9.88.12,9.84,0a81,81,0,0,0-9.28,21.25Zm63.45-71.14,7-7.09,0.22,63.41-7-6.83ZM84.3,88.76l-2.21-6.28c3.48-1.31,6.11-4.17,8.57-7a12.73,12.73,0,0,0,4.56,2.32C96.23,78,88.16,87.8,84.3,88.76ZM71.23,41.24A1.48,1.48,0,0,1,70.46,40c0.29-.93-0.93-3-0.93-3,14.84-4.53,36.46,8.23,49.29,5.54a10.4,10.4,0,0,1-.32,2.83c0.4,1.81.69,1.87-1.06,3-9,2.57-18.51-2.91-27.32-5.53-7.18-2.28-13-1.7-18.88-1.57h0Z" transform="translate(0.1 0.1)"/><path id="path6357-5" class="cls-5" d="M61.67,20.38l2.71,5.14-0.47.32c0.74,1.24,1.37,2.63,2.12,3.86l0.54-.06C67.47,31.36,67.83,32,69,34H68.47c0.27,0.9,1,1.51,1,2.16,0,0.81-.2,1.63.29,2.18s0.65,0.83.53,1.21a1.59,1.59,0,0,0,1.51,2A46.23,46.23,0,0,1,91.5,43.47c4.75,1.51,9,3.2,13,4.39a31.8,31.8,0,0,0,6,1.14c6.08,0.45,9.49-.8,8.47-3.34-0.08-.2-0.26-0.35-0.28-0.46A0.69,0.69,0,0,1,119,44.5c1-1,.44-1.77-0.17-2.91,0,0,7.81-14,11.71-21Zm67.59,1.26-5.7,9.9a3,3,0,0,0-3.81,2.39c-4-1-3.35,4.14-1.36,4.49,0.13,0.75-3.25,1.68-5-.08,2.74,0.37,3.71-3.28.36-4.09,4.41-3.3-3.86-8.24-4-1.41-3.89-.69-3.38,4.48-0.92,4.89-1.26,1.4-5,1.44-6.91-1.51,3.3,1.72,5.08-2.73,1.66-4,4.23-3.73-4.05-7.18-3.86-1.14-3.12-1.86-5.27,2.89-1.1,3.61-0.24.85-5.69,0.86-7.08-1.35,3.87,0.89,4-3.85.63-4.24,3.43-4.38-5.27-6.59-3.81-.62C85,27.18,83.75,31.4,87,32.75c0.18,0.67-5.3,1.24-7.22-1.18,4.21-.64,2.74-4.75,0-4.42,0,0,0-.12.19-0.52,1.29-4.13-5.64-4.47-4.68-.1,0.15,0.4.32,0.94,0.32,0.94-1.91-.39-3.08.39-2.94,2.2,0.48,2.4,1.73,2.22,3.34,1.74,0.67,0.71-3.88,3.08-6.74,1,3.5-1,1.73-5.14-1.2-4.59-0.12-1.32-1.54-3.17-3.4-2.27l-2-3.89h66.51Zm5.73,55-4.11.06c-2.89,3-23.81,22.37-20.28,51.68,1.51,12.53,5,23.38,14.28,36.19l2.48-1.47,0.38,0.26,25.76-14.92v-4.53l-29.9,12.63a13.78,13.78,0,0,1-1.44-2.13l12-5.13s0.29-.73.38-1.07c3.94-10,11.94-17.3,18.91-22.91,0-9.88-.08-30.56-0.08-30.56l-18-18.06a79.72,79.72,0,0,0-6.41,6.69l20.68,27.41-1.83,1.2L127.31,84.73A105.44,105.44,0,0,1,135,76.67h0Zm18.37,17.82s-0.1-47.06-.24-69.79h0L142.4,35.79l0,47.7Zm-0.91-65.31-7.58,7.88L145,85.55,143,83.62V36.43l9.47-10ZM78.65,28a1.3,1.3,0,0,1-.24,1.42c-1.55,1.94,3.32,5.3,6.83,4.72,2.67-.45,4.94-2.06,4-3.29-0.8-1-.28-2,0.68-2s1.78,0.8.92,1.88c-1.9,2.41,1,5.24,5.44,5.29,3.14,0,4.18-.74,4-3-0.08-1.05.13-1.35,0.86-1.51,1.16-.26,1.75,1.09.79,2.11-2.08,2.21.28,5.47,4.23,5.68,1.44,0.08,1.73,0,3.34-.92,1.26-.71,1.7-1.79,1.09-2.63a1.21,1.21,0,0,1,1.51-1.84c0.88,0.38,1.32,1.06.34,2.22-1.28,1.52-.67,2.77,1.79,3.61,1.92,0.66,3.26.58,4.16-.25a2,2,0,0,1,.89-0.63c-0.61,1.05-1.14,2-1.14,2a6,6,0,0,1-7.07-1.7c-4.15,2.41-7.83,1.9-10.94-2.15A10.51,10.51,0,0,1,89.31,34c-4.22,2.13-8.14,1.24-11.62-1.15-2.57,2.45-5.29,2.83-8.11,1.66l-0.84-1.69c0.21-.08,1.12,1.7,5.53.87,1.48-.28,4-2.79,2.6-4-0.65-.93-0.67-1.35-0.1-1.92a1.26,1.26,0,0,1,1.87.29h0ZM67.84,30.23c0.25,0.48.28,1.28,0,.8C67.7,30.78,67,29.65,67,29.62a1.07,1.07,0,0,1,.85.62h0Zm84.62,0.39,0,62.57L146,86.74l-0.31-49Zm-74.79,3,2,1.29-3.64,0ZM89.1,34.73l1.71,1.67-3.59-.76Zm32,0.87-0.76,1.58A0.9,0.9,0,0,1,121.09,35.59Zm12.9,26c1.3-2.93,3-6.66,5.84-7.85-2.09-4.18-1.82-8.36-.34-10.65a21.27,21.27,0,0,1-5.65-7.79C127.15,41.27,126.07,53.5,134,61.61Zm-0.2-25.15,0.46,1.14c-6,7.35-4.12,17,.2,22.15l-0.62,1.3C128.55,55.44,126.24,43.59,133.79,36.46ZM98.13,40.62c6.91,2,12.45,5.23,20.44,2.39l0,1.57c-5.09,3.29-15.22-.19-22.07-2.73a57,57,0,0,0-25.69-3.38c-0.54-.11-1-1.52-0.1-1.53C82.19,36.8,80.34,35.36,98.13,40.62Zm1.56-2.77L102,40.27a36.87,36.87,0,0,1-4.9-1.88Zm34.65,0.6,0.44,0.62c0.19,0.27-1.26.41-1,.09Zm-39,4.44c8.25,3.12,17.34,6.23,23.3,3.44a1.82,1.82,0,0,1-.64,1.53,6.09,6.09,0,0,1-2.73.8c-9.65.8-15.91-3.22-23.7-5.6A52.94,52.94,0,0,0,79,40.86a66.62,66.62,0,0,0-7.32.29,1,1,0,0,1-1-1.22A48.22,48.22,0,0,1,95.33,42.88Zm39.9-3a1.62,1.62,0,0,1,.32,0L136.4,41l-1,1.6A8.08,8.08,0,0,1,134.07,41C133.82,40.46,134.49,39.93,135.23,39.89Zm-24.31.31,2.61,2a14.66,14.66,0,0,1-6.36-.7Zm22.13,1a1,1,0,0,1,.67.65c0.49,0.84.42,1-.52,1.3-1.24.4-1.34,0.31-.94-0.81C132.55,41.59,132.79,41.22,133.06,41.21Zm4,0.51,1.77,1.49a13,13,0,0,0,.35,10.46c-0.22,0-1.49,1.28-1.89,1.49-1.12-.47-3.58-9.7-0.23-13.44h0Zm-2,2-0.45,2.83c0,0.23-2-1.34-1.78-2.12,0.34-.93,1.51-0.73,2.22-0.7h0Zm-3.17,1a2.93,2.93,0,0,1,1,1.31c0.35,0.58.28,0.79-.49,1.49-1.14,1.16-1.36.78-1.11-1.19,0.12-1,.3-1.61.56-1.61h0Zm2.35,2.56a0.63,0.63,0,0,1,.39.12l0.13,2.75c0,0.25-2.13-.1-2.42-1.15-0.36-.67,1.07-1.74,1.9-1.73h0Zm-2.83,2.33a4,4,0,0,1,1.09.57c0.79,0.47.81,0.68,0.13,1.56-0.8,1-1.2.87-1.32-.93C131.22,50.1,131.17,49.59,131.36,49.56Zm3.15,1.05a0.27,0.27,0,0,1,.18.07,6.69,6.69,0,0,1,.72,3.37c-0.35.41-2.18-.14-2.59-0.78S133.84,50.61,134.51,50.61Zm-2.24,3.25a3.06,3.06,0,0,1,1.16.41,2.67,2.67,0,0,1,1,.75,1.93,1.93,0,0,1-.63,1.75c-0.32.38-.62,0.1-1.23-1.19C132.12,54.54,131.92,53.88,132.27,53.86Zm3.7,1.23a0.22,0.22,0,0,1,.11,0c0.62,0.35.52,1.38-.22,2.15-0.89.92-1.65,0.23-1-.94A2.14,2.14,0,0,1,136,55.09h0ZM84.51,80.76a2.91,2.91,0,0,0-1.75,1,1.25,1.25,0,0,1-1.38.48,6.59,6.59,0,0,0-2.81.71,4.52,4.52,0,0,1-2.09.46,6.3,6.3,0,0,0-1.52.21,8.66,8.66,0,0,1-1.09.39c-0.92.27-.59,0.53-0.06,1.72a89.3,89.3,0,0,1,5.29,21.49,101.2,101.2,0,0,1-.5,23.58c-2.56,0-4.17-.11-6.86-0.07-1.84,15-6.83,27-16.79,37.74l26.95,0.07c3.09-8.29,17.18-14.61,17.64-14.15l0.74,3s-10.13,1.46-17,14.41c0.7-.43,3.24-0.13,4.92,1.62a27.91,27.91,0,0,1,8.89-7l0.18-.52a16.53,16.53,0,0,1,1.89-.51,9.94,9.94,0,0,0,1.25-.3,3.32,3.32,0,0,1,1.82-.36,10.76,10.76,0,0,0,3.81-.39c-5.72-15.88-7.07-30.22-4.84-46.88,2.11,0,6.73.1,6.73,0.1a66,66,0,0,1,2.48-13.78A53.44,53.44,0,0,1,118,88c2-3,3.76-5.18,5.84-8l-26.38.06C94,86,87.29,90.9,81.88,93c-1.84.7-2.1,0.59-2.4-.28-0.54-1.56-.52-1.49.92-1.9,0.48-.14,2-1,4.42-2.09,5.09-2.6,8.59-7.37,10.65-10.58,0.82-1.27.27-1-1.13-1a4.32,4.32,0,0,1-3-1.58,1.84,1.84,0,0,0-.8-0.66c-1.51,2.18-4,5-6,5.9h0Zm6.19-5A7,7,0,0,0,95.14,78,29.62,29.62,0,0,1,84.41,88.56l-2.11-6C87.48,80.15,88.86,77.72,90.7,75.74Zm43,1.9c-27.9,26-26.25,58.71-6.72,85.3l-2,1.24c-18.35-24.76-21.67-61.38,6.37-86.65Zm-17.59,3.17h6.84l-4.66,6.08-6.25,0Zm-1.07.05-3.8,6L101,87A43.13,43.13,0,0,1,81.53,100.9l-1.31-6.51A31.5,31.5,0,0,0,97.73,80.77Zm-10.42.5L102.23,84l2.47,2.53L107,84Zm5.38-.06-2.41,2.52,1.88,2.54,2.5-2.46Zm-11.88.46-0.41,4,3.1,1,0.45-3.39ZM117,81.9l-2.25,3.54,3.39,0.05L120.47,82Zm-35.4.9,2.19,6.12-1.93.94-2-6.4Zm-2.6,1,2.26,6.34-1.89.63-2.08-6.59Zm2.71,25c0.25,8.81.38,14.12-1.09,21.87-0.08.4-1.65,0-1.65,0,0.2,0.07.89-8.75,0.83-14.29a87.07,87.07,0,0,0-6-31.44,9.52,9.52,0,0,1,2.72-.73c2.6,7.93,4.9,16.46,5.18,24.55h0ZM54.29,84.37c9,12,15.44,28.35,14.37,44.46-1,18.73-8.08,29.52-20.47,42.49l-3.19.07c14.66-14.15,21.14-26.26,21.66-42.24,0.59-18.38-5-30.6-14.37-43.63ZM25.49,100.91l0,4.38L56.2,92l-4.43-6.56ZM97.4,86.56l-3.34.17,0.11,3.39L97.65,90Zm29.77-.64,19.88,26.25-4.92,3.68-19-24.67ZM111.58,87.7l6,0.09-2.3,3.84-5.75,0Zm-1.1.09c-2.74,5.12-6.51,11-8.63,20.41l-19.59,0a50.11,50.11,0,0,0-.63-6.47c8.44-3.11,15-7.76,19.79-13.91Zm3.62,0.27-2.55,1.48,1.56,1.81,2.81-1.08ZM90.79,90L89.95,93.3l3.18,1.23,0.59-4Zm18.27,2.5,5.71,0-2.4,4.83-5.66-.08Zm13.59-.63,18.81,24.56-1.76,1.41-18.39-24Zm-11.43,1L108.65,95l1.94,2.25L113,95.35C113,95.31,111.22,92.85,111.22,92.85Zm-25,.18-0.79,3.25,3.3,0.88,0.59-3.49Zm-4.57,2.16L81,98.39l3.11,0.85,0.66-3.09ZM56,94.86c0.16,0-.52,3.81-1.52,4.5a0.72,0.72,0,0,1-1.14-.19c-0.29-.31-1.58-2.44-1.58-2.44l1.11-.56c1.34,2.16,1.34,1.11,1.85-.73Zm-5.16,2.21c0.44,0,1,.54,1.57,1.61,0.87,1.54.84,1.64-.59,2.08-2.57.68-3.52,0.85-2.73-.86s1.19-2.82,1.75-2.83h0Zm7.64-.3,1.76,3q-10.56,27.07-34,38.83l0-3C44.61,125.07,52.17,112.59,58.49,96.77Zm47.86,1.3,5.54,0.1-1.48,4.27-5.89,0Zm-57.17-.19c-4.51,10.82-10.67,20.26-23,28.24l0-2.87C40,114.86,46,99.13,46,99.12Zm70,0c3.28,0.09,6.73,3.69,6.38,6.66-0.25,2.09.15,3.64,0.72,2.79,1.25-1.89,4.93-.63,4.9,1.64,0,1.21-.82,1.41-1.28.32-0.68-1.61-2.59-1.65-2.87,0s1.07,2.75,4.64,4c4.18,1,6.69,4.76,5.21,6.93-0.52.57-.83,0.71-0.92,0.42,0-.09-0.13-0.53-0.23-1-0.47-2.27-1.56-3.23-2.87-2.45-0.66.39-.57,0.91-0.19,1.59,0.51,0.91.19,1.26-.72,0.8-1.45-.73-1.92-2.47-0.52-3.26,1.67-.67,1.1-0.82-1-1.54-4.53-1.56-6.48-4.42-6.72-9.87,0.09-2.49-.25-3.37-1.41-3.71s-2.27,1-1.5,1.76c0.41,0.39.75,0.74,0.53,1-0.7.69-2.47-.43-2.45-1.63,0-.78.31-0.95,1.47-1.87,0.32-.26,0-0.74-0.43-0.75C118.14,100.32,118.26,98,119.22,97.87ZM109,98.5l-2.77,1.6,1.44,2,3.07-1.45Zm-53.9,1.58a0.58,0.58,0,1,1-.58.58A0.58,0.58,0,0,1,55.06,100.08Zm5.68,0.25a61.47,61.47,0,0,1,3.17,42.22L48.11,121.87a68.5,68.5,0,0,0,12.62-21.54h0Zm-21.35.94-14.09,6-0.08,10.64C33.09,112.46,36.43,106.92,39.38,101.27Zm13.54-.09c1.39,0,.7,3.73-1.1,5-0.66.51-1.11,0.45-1.32-.57a8.08,8.08,0,0,0-1.37-2.55c-0.81-1.05-.8-1.08.38-1.15s2.38-.61,3.41-0.74h0Zm-1.37,1.6c-1,0-1.33.47-.72,1.13s0.92,0.44,1.27-.37C52.31,103.06,52.12,102.8,51.55,102.79Zm-25.41,13.8,0-9,12-5.11a36.86,36.86,0,0,1-12.08,14.14h0Zm107,7.29-1.61,1.62L116,105.09l1-2.58ZM47.93,103.23c0.52,0,1.7,1.83,2,3.14,0.25,1,0,1.17-1.84,1.45-0.76.21-2.8,0-2.63-.54a23.44,23.44,0,0,1,2.44-4h0Zm56.34,0.21L110,103.5l-1.3,4.69-5.94-.09Zm2.51,0.29-2.64,1.84,2.09,2.07,2.8-1.74Zm8.9,2,15.73,20.56c-4.69,6-9.38,12.92-12.45,22C113.36,135.15,111.31,122.31,115.69,105.74Zm-63.9,1.75a0.58,0.58,0,1,1-.58.58A0.58,0.58,0,0,1,51.79,107.49Zm-1.81.78c1,0.07.06,3.22-1.42,4.37-1.17.91-1.67,0.49-1.94-1.17A8.12,8.12,0,0,0,45.34,109c-0.61-.9-0.36-1,1.2-0.68A14.9,14.9,0,0,0,50,108.27ZM102.56,109l6,0-0.92,7.12Zm-58,.33c0.94,0.88,2.12,4,1.51,4.19a9.33,9.33,0,0,1-4.26-.49c-0.25-.26-0.25-0.26.28-1,0.29-.39.84-1.16,1.22-1.72C43.67,110,44.06,108.88,44.58,109.37Zm3.31,0.11c-0.91,0-1,.16-0.54,1.14,0.35,0.8.59,0.87,1.2,0.35C49.39,110.23,49,109.44,47.89,109.48Zm104.44,0.62,0.21,3.51C129.68,125,121.11,152,121,152l-1.66-3.11c10.5-26,24.45-33.58,33-38.79h0ZM44.56,114.24c1.36,0,1.76-.12,1.75.39a5.18,5.18,0,0,1-2.8,4c-1,.49-1.07.5-1.18-0.73a9.53,9.53,0,0,0-.89-3.15c-0.15-.36-0.75-1.19,0-1a12.53,12.53,0,0,0,3.13.42h0Zm3.06-.32a0.58,0.58,0,1,1-.58.58A0.58,0.58,0,0,1,47.61,113.93Zm-7.29.8c0.25,0,.48.5,0.76,1.25,0.61,1.63.8,2.52,0.62,2.9-0.28.59-4,.21-4.67-0.45A39,39,0,0,1,40.32,114.73Zm2.7,0.41c-0.54,0-.25.36,0.15,1.31,0.28,0.65.65,0.76,1.08,0.3,0.57-.61.65-1.1,0.29-1.36A3.62,3.62,0,0,0,43,115.13Zm109.47,3.55,0,1.18c-0.89-.27-1.44-0.65-2.46-1-0.62-.21-1-0.36-0.44-1a10.64,10.64,0,0,1,2.84-2.32v1.33c-1.68.75-1.52,1.44,0,1.82h0Zm-66.12-1.2H92.7v4.2h4.94l-0.38,4.79H92.7v4.2H86.38v-4.2H81.87l0.36-4.79h4.15v-4.2Zm14.27,0c-3.2,16-.26,32.92,4.67,46.73l-2.49.28c-3.85-11-6.91-26.77-3.8-47,0,0,1.11,0,1.61,0h0Zm46.91,0.31a0.58,0.58,0,1,1-.58.58A0.58,0.58,0,0,1,147.56,117.81ZM36.39,119.15a13.16,13.16,0,0,1,1.42.43,8.72,8.72,0,0,0,2.32.36c1.57,0,1.78,0,1.1,1.32a7,7,0,0,1-2.35,2.55c-1.09.58-1.5,0.5-1.44-.57a8.23,8.23,0,0,0-.72-2.9C36.4,119.63,36,119.16,36.39,119.15ZM43,119.66a0.58,0.58,0,1,1-.58.58A0.58,0.58,0,0,1,43,119.66Zm106.33-.08a5.13,5.13,0,0,1,1.91.61c1.85,0.9,1.8,1.11-.71,2.9-1.82,1.39-2.25,1.54-2.31-.64-0.07-1.84.13-2.84,1.11-2.86h0Zm-113.92.53c0.73,0,1.54,3.85.89,4.2-1,.53-4.2-0.51-4.19-1.38a14.68,14.68,0,0,1,3.31-2.81h0ZM147.15,120c0.44,0,.5.33,0.46,1.55a21.33,21.33,0,0,0,.13,2.2c0.09,1,0,1.1-.8.64a7,7,0,0,0-2.69-.87c-0.93-.08-1-0.46-0.71-1.08A5.07,5.07,0,0,1,147.15,120Zm-109,.58c-0.64,0-.48.34-0.08,1.3,0.28,0.68.77,0.75,1.27,0.17,0.7-.81.56-1.25-0.46-1.4a6.92,6.92,0,0,0-.73-0.07h0Zm108.14,0.92a2.19,2.19,0,0,0-.81.35c-0.6.38-.85,0.65,0,1s1.19,0.38,1.13-.29c0-.41,0-1-0.35-1h0ZM87,122v4.19h5V122H87Zm54.82,0.36a0.58,0.58,0,1,1-.58.58A0.58,0.58,0,0,1,141.81,122.31ZM47.63,123l15.87,20.51-1.05,2.67L46.1,124.5Zm105-.1,0,2.68c-1.79,1.32-13.18,9.63-19.07,23.61l-3.08,1.32a57.1,57.1,0,0,1,22.12-27.62h0ZM31.86,124a22.63,22.63,0,0,0,3,1.17c1.12,0.14,1.51.07,1.2,0.65a6.56,6.56,0,0,1-3.32,3.12c-1,.32-1.43.2-1.27-0.41a10.36,10.36,0,0,0,.3-3.1c0.15-.56-0.32-1.35.1-1.44h0Zm-1.21.24c0.66,0.57.53,4.15-.21,4.92-0.38.4-1.5,0-3.17-.92-1.09-.62-1.3-1-0.75-1.39,0.92-.57,3.63-2.75,4.13-2.62h0ZM144,124.32a5.4,5.4,0,0,1,1.28.17c2,0.45,2.42.9,0.73,2.25a13.07,13.07,0,0,0-1.48,1.36c-0.91,1.12-1.54.31-1.74-1.73-0.14-1.42.07-2.23,1.2-2.05h0Zm-2.48.19a0.48,0.48,0,0,1,.52.57,19.92,19.92,0,0,0,.56,3.35c0.36,1,.1,1.28-0.76.82a7.75,7.75,0,0,0-3.17-.53c-1,.08-1-0.19-0.69-1.05,0.53-1.52,2.57-3.17,3.54-3.17h0Zm-108.73.74c-0.39,0-.4.52-0.14,1.73,0.08,0.38.41,0.36,1-.08s0.7-.84-0.12-1.34a1.75,1.75,0,0,0-.77-0.31h0Zm4.5,0.13a0.58,0.58,0,1,1-.58.58A0.58,0.58,0,0,1,37.33,125.39Zm102.36,2.25a1.77,1.77,0,0,0,1.47.1,1.7,1.7,0,0,0-.08-1.55C140.5,126,139.34,127.21,139.68,127.64Zm-95.26,2.21c0.35,1.66,2.66,1.57,2.4-.16-0.15-1-.19-1,0.31-1,2.39,0.12,2,3.91-.78,3.62-0.57.07-.65,0.31-0.16,0.51a16.53,16.53,0,0,0,2.62.68c3,0,7.32,4.63,7.21,8.75-0.07,2.69.84,4.63,1.76,4.85a1.45,1.45,0,0,0,1.71-1.32c-0.13-1.14.79-.78,1.32,0,0.81,1.13-.23,2.76-2.15,2.63-0.82.16,0.6,0.68,1.65,1,1,0.05.15,1.24,0,1.45-0.54.63-2.3,0.15-3.69-1-1.7-1.38-2.43-3.23-2.63-6.87-0.13-2.34-.3-2.81-1-1.85-1.21,2.15-4.12,1.1-4.49-1.17-0.2-1.2.85-2.07,1.19-1,0.9,2.27,3.11,1.72,2.75-.53-0.24-1.49-1.71-2.3-4.63-3.13-3.51-1-4.55-2.2-5.23-5.1-0.3-1.28-.25-2,0.42-2.62,0.33-.33.76-0.67,0.76-0.67s0.47,1.95.66,2.85h0ZM136.11,128a0.58,0.58,0,1,1-.58.58A0.58,0.58,0,0,1,136.11,128Zm-110,.55c1,0.38,1.94.94,3,1.31,0.7,0.24.51,0.8-.22,1.6a7.22,7.22,0,0,1-2.72,2v-1.62c1.36-.48,2.22-1.62-0.06-2Zm112.73,0.9a8.06,8.06,0,0,1,1.61.15c1.66,0.35,1.86.49,0.86,1.67l-1.22,1.46c-1,1.38-1.51.91-2-.88S137.41,129.31,138.83,129.47Zm-107.52.66a0.58,0.58,0,1,1-.58.58A0.58,0.58,0,0,1,31.31,130.13Zm105.84,1.26c0.16,0.59.4,1.34,0.58,1.87,0.9,2,.33,1.23-1.29,1.05-1.09-.12-2.82.06-3.25-0.24a2.07,2.07,0,0,1,.33-1.61,5.8,5.8,0,0,1,2-2.29c1.69-.78,1.29.21,1.57,1.22h0ZM40,130.68l18.13,24.13-1.42,2L38,132Zm113.61,0.09A46.42,46.42,0,0,0,139.82,147l13.82-5.37Zm-18,.79c-0.52.14-1.26,1.11-.94,1.49a1.74,1.74,0,0,0,1.32.09c0.56-.21.18-1.58-0.38-1.58h0Zm-79.45,26.1-3.86,4.9L32.17,136.35l5.08-3.69Zm96.43-25.47,0.14,9-11.82,5A48.72,48.72,0,0,1,152.59,132.19Zm-80.8.76,4.73,6.2L70.74,139Zm59.85,0.51a0.58,0.58,0,1,1-.58.58A0.58,0.58,0,0,1,131.63,133.46Zm3.47,1.47c2.16,0,2.89.15,2.26,1.22-0.84,1-1.34,2-2.25,3-0.53.54-1.19-.58-1.74-2.36-0.45-1.44-.22-1.81.63-1.82S135,134.93,135.1,134.93Zm-2.5,2a12.49,12.49,0,0,0,.92,2.08,6.53,6.53,0,0,1,.68,1.32c-0.06.27-.31,0.29-0.88,0.07-1.23-.56-4.13,0-4.21-0.24-0.43-.62.22-2.3,1.43-3.47a3,3,0,0,1,1.45-.95c0.31,0,.37.43,0.61,1.19h0Zm-101.12-.44L52,163.21l-1.42,1.74-20.7-27.29s-3.27,1.61-4.23,2.15l0.13,13.85-0.56,0,0.08,70.13,11.42-11.47L36.53,164.7c2.42,2.3,4.5,4.75,7.27,7l4.75,0c12.4-12.7,19.2-23.57,20.69-43,1-13-3.3-29.4-14.7-45.27l-2.78,1.7,5.5,8.34L45.61,98.6c-4.64,9.85-10.14,18.94-20.2,24.14l-0.06,12.75-0.18.26,0.13,4Zm100.1,0.91c-0.54,0-1.39,1.22-1,1.63a1.27,1.27,0,0,0,1.46-.19A1.07,1.07,0,0,0,131.58,137.35ZM70.5,140.11l6,0-1.57,5.19-5.86-.11Zm57.11,0a0.58,0.58,0,1,1-.58.58A0.58,0.58,0,0,1,127.62,140.09ZM97,140.25L97.76,147a45.31,45.31,0,0,0-19.81,14c-1.06-.07-9.49.07-9.49,0.07,0.21,0,7.81-14.41,8.69-20.68Zm-23.81.63-2.76,1.91,2.15,2.31,2.85-1.95Zm57.38,0a12.16,12.16,0,0,1,2,.18c1,0.2,1.17.22,0.82,1.06a16.37,16.37,0,0,1-1.75,3.3c-0.93.58-3-3.59-2.3-4.31a2.16,2.16,0,0,1,1.22-.24h0Zm-2.64,1.28a1.19,1.19,0,0,1,.73.95,9.53,9.53,0,0,0,1.66,2.58c0.74,0.83.7,0.95-.36,1a13.63,13.63,0,0,0-3.22.61c-1.11.41-1.26,0.32-1.12-1,0.21-2,1.52-4.12,2.31-4.19h0Zm-1,4.06c0.14,0.38,1.86-.32,2-0.77a2.79,2.79,0,0,0-1.1-1.44c-0.69.11-1,1.68-.86,2.22h0Zm-58-.27L74.61,146l-1.86,4.71-5.62,0Zm2.54,0.63-2.72,1.73,2.12,2.07,2.61-1.81Zm57.79,0.85a1.63,1.63,0,0,1,1.1.22c0.3,0.5-.93,3.3-0.93,3.3l-2,.8a12.35,12.35,0,0,1-1.35-2.79c-0.07-.42.14-0.58,0.6-0.84a6,6,0,0,1,2.57-.69h0Zm-5.37.23a0.58,0.58,0,1,1-.58.58A0.58,0.58,0,0,1,123.9,147.69ZM98,147.77s1.23,7,1.29,6.22c-9.48,3.59-15,8.9-17.65,14.07H63.85l4-6.2,10.53-.05a43.08,43.08,0,0,1,19.64-14h0Zm-2.28,1.64-0.88,2.82,2.66,1.71,1-3Zm29.13,0.05c0.23,0,.45.36,0.9,1.18,0.34,0.6.78,1.48,0.78,1.48l-0.8.3c-0.64-2.21-1.23-1.39-1.3.56l-1.09.44a8.5,8.5,0,0,1,.74-3,1.87,1.87,0,0,1,.76-1h0Zm-58,1.93,5.51,0.07-2.3,4.81-5.6-.15Zm24,0.39-0.44,3.57,3,0.63,0.41-3.39Zm-21.69,0-2.72,1.77L68.28,156l2.62-1.77ZM86.65,155l-0.56,3.29,2.78,0.64,0.63-3.31Zm-60.5.19,7,7,0.38,48.52-6.93,7Zm37.91,1.78s5.56,0.16,5.56.16l-2.23,4.06-1.91-.09L68,159.33l-1.61-2.07L63.79,159l1.44,2.1L61.46,161Zm35.94,1.2,1.89,6.29-2.27.4-1.71-5.92a13,13,0,0,1,2.09-.77h0Zm-17.87.39,0,3.78,3,0.26L85.32,159Zm15.1,0.6,1.73,6-1.44.41-2.07-5.68A5.87,5.87,0,0,1,97.22,159.12Zm-2.64,1.23,2.22,5.86a26,26,0,0,0-8.66,6.62,9.25,9.25,0,0,0-3.92-1.75,24.76,24.76,0,0,1,10.35-10.72h0ZM61,161.82L66.86,162l-4.06,6.11H56.18ZM78.41,162L78,165.62l3.13,1.86,0.48-3.67Zm-3.77.5-2.22,2.37,2.36,2.71,2.17-2.83Zm-5,.12L67,165.12l2.1,2.76,2.42-2.78ZM36,165l0.26,47.4-9.71,9.47-0.07-2.55,7.72-8.11q0-24-.1-48.1Zm25.83-1.53-2.68,3.68h3.18l2.3-3.56ZM45.3,186.36c-1.06,3.83-5.93,8-6,7.91,2.41,3.48,2.33,8.45.2,10.89,0-.05,3.88,3.18,4.42,4.86a22.6,22.6,0,0,0,.82,2.15c0.1,0.18.43,0.61,0.43,0.61C54.61,203.13,50.11,191.82,45.3,186.36Zm0.14,1c9.17,11.46,3.13,22-.07,24.88l-0.61-1c6.82-8,3.93-17.78,0-22.42Zm-1,2.23c0.06,0.19.42,0.73,0.15,0.69l-0.46-.09Zm-0.07,1.28a0.52,0.52,0,0,1,.46.2c0.19,0.31-.76,2.95-1.35,2.33-0.18-.35-0.38-0.65-0.55-1s-0.07-.64.37-1.07a1.64,1.64,0,0,1,1.07-.46h0Zm1.32,0.71c0.46,0,1.12,1.51,1.18,2.56a3.61,3.61,0,0,1-2-.74A4,4,0,0,1,45.7,191.58Zm-3.59,1.2c2.76,5.59,2.59,10,.16,14l-1.91-1.64a11.28,11.28,0,0,0-.24-10.46Zm1.86,1.4a4.62,4.62,0,0,1,1.3.24c1.85,0.59,1.92,1.81.14,2.71-0.74.37-1,.21-1.39-1.66-0.21-.92-0.37-1.26-0.05-1.29h0Zm3.57,2.14c0.36,0,.52.68,0.56,1.85s-0.19,1.2-1.08.41-1.13-1.06-.25-1.76a2.21,2.21,0,0,1,.76-0.49h0ZM45,198.15a3.3,3.3,0,0,1,1.18.7c1.26,1,1,1.64-.45,2.1-1,.32-0.95.37-0.92-1.37C44.85,198.73,44.8,198.17,45,198.15Zm16.73,1.58a2.22,2.22,0,0,0-1.68,3c0.23,0.57.59,0.57,0.17,0.92-0.46.54-.71,1.78-0.2,2.24s0.76-.25.12,0.92l-11.62,21.5,69.76-.13-8.38-15.81s0.67-2.61-.67-2.92a1.11,1.11,0,0,1-.76-0.89,2.65,2.65,0,0,0-.8-2.14,47.18,47.18,0,0,1-17.15-.6c-6.85-1.55-11.75-4.24-14.94-5.08a36.2,36.2,0,0,0-13.84-1h0Zm3.76,0.15a41.6,41.6,0,0,1,15.69,3.48A58.41,58.41,0,0,0,95,207.25a55.67,55.67,0,0,0,11.46-.05,1.22,1.22,0,0,1,1.13.32c0.77,0.86.25,1.4-1.68,1.58a47,47,0,0,1-10.32-.37,61.3,61.3,0,0,1-16-4.32c-6.15-2.32-11.8-3.1-16.27-2.42-2.45.38-2.81,0.44-2.8-.23,0-1.29,1.08-1.89,5.05-1.88h0Zm-17.71,3.75c-0.24.55-1.92-1.25-1.9-1.75a10,10,0,0,1,1.94-1.48c0.26-.2.24-0.1,0.25,0.14A13,13,0,0,1,47.81,203.63Zm-2.59-1.32c0.78,0.11,2.05,2.21.93,2.54s-1.9.48-2-.2c0.51-1.65.7-2.3,1-2.34h0.09Zm45.11,7.2a72,72,0,0,0,15.7,1c2.44-.25,2.95-0.17,2.93.85,0,0.64.06,0.62-3.08,0.62a60.6,60.6,0,0,1-7.49-.24A50.94,50.94,0,0,1,84,209.09c-4.87-1.27-9.1-3.72-13.87-4.22-4.37-.43-8.31.35-9.13,0.81a0.68,0.68,0,0,1-.4-0.79,1.13,1.13,0,0,1,.46-0.9c12.54-3.18,19.25,3.64,29.26,5.53h0Zm-43.48-4.22c0.42,0,.29.63-0.4,1.95-0.58,1.12-.81,1.12-1.14,0s-0.32-1.36.38-1.54a11.58,11.58,0,0,1,1.16-.37h0Zm-2.93.63c0.49,0,1.18,2.24.83,2.66a1.37,1.37,0,0,1-1.6-.29C42.68,207.66,43.29,205.91,43.93,205.92Zm21.92,0.6a31.64,31.64,0,0,1,5.66.5,19,19,0,0,0-3.11,1.35A18.69,18.69,0,0,0,65.85,206.52Zm2.53,2.71c6.87-3.86,9.77,1.47,10.77,2.33,6-1.34,7.18-.68,10.54,3,6-3,8.93-.44,11.44,1.15,2.95-2.77,6.68-2.85,8.63-1.46a11.69,11.69,0,0,1,.91,1.62c0,0.18-.24,0-0.92-0.52-3.53-2.55-9.4.62-7.83,4,0.42,0.9.35,1.29-.28,1.66a1,1,0,0,1-1.37-1.44c1-1.73.26-3.17-2.28-4.51-3.57-1.88-9.41.23-8.21,3,0.77,0.89.06,1.51-1,1.48s-1.54-.81-0.8-1.64c0.92-1.06.68-2.13-.39-3.35-3.21-4.6-9.7-2.78-8.84,1.26,0.38,1-.7,1.41-1.81,1a1,1,0,0,1,.17-1.78c0.89-.09,1-1.39.91-2.23-0.15-1.22-1.94-2.41-3.7-3a8,8,0,0,0-3.39-.47,2.84,2.84,0,0,0-2.75,3.55c0.19,1.19-.14,2.43-1.53,1.77-0.76-.36-0.57-1.23.21-2,2.73-2.69-2.77-6-6.09-3.7a2.48,2.48,0,0,1-1,.55c2.08-5.22,8.6-.33,8.54-0.12h0Zm9.05-.7,4.15,1.57a12.12,12.12,0,0,0-2.31.73Zm-10.84,1.7c-3.83-.73-4,3.58-1.54,4.28-3.43,4.75,5.56,6.59,3.91.73,4.56,0.83,3.73-4.39.34-4.35,0.79-1.94,7-.47,6.78,1-4.23.45-2.54,4.33-.71,4.33-4.42,4.21,4.43,8.1,4.19,1.75,3.55,0.75,4-4,.56-4.31,1.25-1.77,5.71-.65,7,1.37-3.52.47-3.3,3.59-.55,4.09-3.49,4.48,5.1,6.13,4.21.93,3.08,1.07,4.77-3.07.78-4.26,4.09-2.45,8.53,1.2,8,1.28-4.67-.28-3.74,4.43-0.36,4.17-2.15,4.89,6.36,5.16,4.21.09,3.83,0.07,3.49-4.4-.18-4.7,2.31-1.7,4.91-1.84,6.59-.26-3.49.92-2,5,1.47,3.88,0.32,3.42,3.09,2.69,3.15,2.59l2.47,4.64L50,227.58,55.68,217a2.72,2.72,0,0,0,3.11-3.18c2.25,1.61,4.66-2.4,1.38-3.55,2.68-2.83,6.66-.22,6.43,0h0Zm-21.79-.3c-0.14.14-.18,0.23-0.41,0C43.81,209.27,45.39,209.22,44.8,209.93Zm13.84,1.78a0.92,0.92,0,0,1-.15,1.14c-0.6.65-.81,0.6-0.28-0.52a1.06,1.06,0,0,1,.42-0.61h0ZM88,212l3.48,0.85-1.65.94A21,21,0,0,0,88,212Zm10.88,1.41,3.78,0.24A9.34,9.34,0,0,0,101,215,12.6,12.6,0,0,0,98.84,213.42Zm12.61,3.89a18.63,18.63,0,0,1,1,2C111.19,219.54,110.87,217.71,111.45,217.31Z" transform="translate(0.1 0.1)"/><path id="path12536" class="cls-4" d="M48.25,64.75c-4.13-6.83-8.48-13.47-13.91-19.14,5.43-5.67,9.78-12.31,13.91-19.14,4.13,6.83,8.48,13.47,13.91,19.14C56.72,51.28,52.38,57.92,48.25,64.75Z" transform="translate(0.1 0.1)"/><path id="path12538" class="cls-4" d="M14.45,56.2a45,45,0,0,0-5.79-8,45,45,0,0,0,5.79-8,45,45,0,0,0,5.79,8A45,45,0,0,0,14.45,56.2Z" transform="translate(0.1 0.1)"/><path id="path12540" class="cls-4" d="M130.33,184.71c-4.13,6.83-8.48,13.47-13.91,19.14,5.43,5.67,9.78,12.31,13.91,19.14,4.13-6.83,8.48-13.47,13.91-19.14C138.81,198.18,134.46,191.54,130.33,184.71Z" transform="translate(0.1 0.1)"/><path id="path12542" class="cls-4" d="M164.14,193.25a45,45,0,0,1-5.79,8,45,45,0,0,1,5.79,8,45,45,0,0,1,5.79-8A45,45,0,0,1,164.14,193.25Z" transform="translate(0.1 0.1)"/><path id="path12544" class="cls-4" d="M15.08,34.85h2.64l-3.88-9.72-3,4.1,0,5.61H13v2.89H5.63V34.85H8.05V14H5.63V11.43h7.45V14H11l0,10.18L17.49,14h-2.3V11.43h7.93V14H21l-5.36,8.39,5.24,12.5h2.33v2.89H15.1l0-2.9h0Z" transform="translate(0.1 0.1)"/><path id="path12546" class="cls-4" d="M163.5,214.6h-2.64l3.88,9.72,3-4.1,0-5.61H165.6V211.7h7.34v2.89h-2.42v20.9h2.42V238H165.5V235.4h2.06l0-10.18-6.5,10.27h2.3V238h-7.93v-2.53h2.09l5.36-8.39-5.24-12.5h-2.33V211.7h8.15l0,2.9h0Z" transform="translate(0.1 0.1)"/></g></svg>