<svg id="Layer_1" data-name="Layer 1" xmlns="http://www.w3.org/2000/svg" viewBox="0 0 178.78 249.65"><defs><style>.cls-1{fill:#fff;stroke:#000;stroke-width:1px;}.cls-2{fill:#d40000;}.cls-3{fill:#e2cf00;}.cls-4{fill:#131f67;}</style></defs><title>13_H</title><g id="g6155"><rect id="rect6355-6-85-90-3-5" class="cls-1" x="0.5" y="0.5" width="177.79" height="248.65" rx="8.5" ry="8.5"/><path id="path163-0-2-7-7-1-8-7-00-1-2" class="cls-2" d="M14.11,56.2s-1.77-2.54-4.16-5.53c-1.6-2-2.88-4.17-3-6-0.14-2.13,1.15-4.27,3.49-4.38s3.28,1.64,3.67,3.08c0.39-1.44,1.33-3.19,3.67-3.08s3.63,2.24,3.49,4.38c-0.12,1.87-1.4,4-3,6C15.88,53.66,14.11,56.2,14.11,56.2Z" transform="translate(0.1 0.1)"/><path id="path163-0-2-7-7-1-8-1-9-4-6-8" class="cls-2" d="M164.47,193.25s-1.77,2.54-4.16,5.53c-1.6,2-2.88,4.17-3,6-0.14,2.13,1.15,4.27,3.49,4.38s3.28-1.64,3.67-3.08c0.39,1.44,1.33,3.19,3.67,3.08s3.63-2.24,3.49-4.38c-0.12-1.87-1.4-4-3-6-2.39-3-4.16-5.53-4.16-5.53h0Z" transform="translate(0.1 0.1)"/><path id="path39-51-8-0-0" class="cls-2" d="M16,35.86h2.64L14.8,26.14l-3,4.1,0,5.61h2.08v2.89H6.59V35.86H9V15H6.59V12.44H14v2.62H12l0,10.18L18.45,15h-2.3V12.44h7.93V15H22l-5.36,8.39,5.24,12.5H24.2v2.89H16.06l0-2.9h0Z" transform="translate(0.1 0.1)"/><path id="path39-3-9-6-0-8" class="cls-2" d="M163.83,214.6h-2.64l3.88,9.72,3-4.1,0-5.61h-2.08V211.7h7.34v2.89h-2.42v20.9h2.42V238h-7.45V235.4h2.06l0-10.18-6.5,10.27h2.3V238h-7.93v-2.53h2.09l5.36-8.39L158,214.59h-2.33V211.7h8.15l0,2.9h0Z" transform="translate(0.1 0.1)"/><path id="path3876-2-1-7" class="cls-3" d="M64.94,211.34a227.71,227.71,0,0,0,43,.93c3.81,5.3,11.45,16.12,11.45,16.12L50.11,229ZM47,215c1.86-3.78,2.22-7.42,1.86-12.67-0.28-4,2.22-7.16,4.8-6,2,0.93,1.07,4.74-1,3.93-0.79-.31-1.48,0-1.37,1.78,0.18,4.46,1.36,9.48.35,13.76C50.89,220,45.23,218.12,47,215Zm-17.4-5.83a3.32,3.32,0,0,1,4.19-4.89c1.16,0.55,1,1.74-.47,1.11-2-.89-4.25,2.26-2.47,3.52,0.82,0.58,1.13.5,0.51-.22-1.66-1.95,2.59-2.81,2.46-1.53a23.19,23.19,0,0,1-.47,2.53c-0.87,1.36-2.53.67-3.75-.52h0Zm6.1-13.92A3.66,3.66,0,0,1,36,190c0.7-.77-5.63-12.67-4.83-12.75,8-.86,16.08-0.21,24.09,0,0,0-4.27,7.75-6,11.59-0.69,1.55.92,3.37,0.25,4.51-2.06,2.27-.78,4.79-2.07,4.91a26.22,26.22,0,0,0-11.07,0c-0.32,0-.27-2-0.72-3h0Zm34.61-82.74c4,20.77-1.92,42.78-15.58,57.3-1.93-1.87-3.41-5.42-5.33-7.74-5.34-1.62-9.18.29-12.93,2.15a21.1,21.1,0,0,0-10.73-3L25.58,158c3.7-.08,7.6.26,10.89,2.32l5.15-2.11L25.56,141.42l0.22-2.87,19.49,19.84,2.51,0.09c-5.52-14.79-.69-38.29,22.49-45.94h0Zm27.17,26,2.82,13.56S84.46,168,76.16,176l-6.94-.64c3.47-5.2,5.44-10.46,7.74-15.71Zm56,18.6c-6.61,7.47-14.52,12.23-23.3,17.46-3.51-4-7.77-8.31-10.23-12.21,7.66-4.13,15-7.33,22.45-14.56-0.41.47-9.56,3.6-9.53,3.24-0.33,1.54-.13,2.49-1.62,2.9-1.76-2.49-3.47-4.5-6.25-5.61a6.29,6.29,0,0,1-2.71-.67c0.78-.16.44-9.7,0-9.81,0.85-.28,1.72-0.94,2.89.37,0.54,0.37,5.82-5,7.62-6.83,7.05-.59,13.3.12,20.25-0.07-0.05,8.49.43,17.29,0.43,25.78h0Zm-44.78-21.5c-0.18-.36-2-14.43-0.27-23.25,4.64-14.84,3.46-19,15.46-33.58,0.79-.78,3.55,1.73,5.61,6.08,6,3.81,13.67-1.11,13.67-1.11s3,2.46,9.72,3.8l-0.12,2.64c0,0.77-7.58-.82-9.2-2.35,0,0-5.65,1.9-5.65,2.25,0,1.48,15.05,15.52,15.05,15.52L152.84,109c0.1,0-20.64-21.71-20.91-19.44,5.87,25.5-4.12,38.42-23.28,46.14h0Zm-24.94-4.48-0.33-13.49,12.7,0.15L96.6,131.5ZM25.6,116.63c0.34-.48-0.49-25.14-0.44-25.14,8.08-8.12,16-12.66,23.92-17.6,3.58,3.59,6.63,6.61,9.27,11l-10.94,6.8c0.42,1.66-.66,2.26,6.39,8.71,0.12-.44,2.44-1.76,2.85.21-1,4.15.42,7.68,0.61,9.91-1,1.31-3.11-.1-3.11-0.1-1.39-1.47-6.85,5.77-8.41,6.58-6.8-.26-20.51.21-20.13-0.33h0ZM102,72.77c0,0.08,7,0,6.93.17-1.26,3.13-4.14,9.35-7,16.24-2.41,4-19.66,20.71-19.66,20.71-0.82-4.84-2-9.57-3.33-14.28Zm30-23.25c2.5,1.08,9.52.51,10.64,0,1.43,1,.54,2.29.36,3,1.47,1.88,2.27,2.54.6,5.56-0.38,0,5.12,12.51,5.27,12.52S143,67.85,141,66l-4,5.39-4.66-6.08c0,0.55-9,6.55-9.08,6.26-0.28-.29,8.18-9.49,6.5-14.89-0.4-1.3.52-2.63,1.15-3.77,0.43-.79-0.15-2.31,1.09-3.36h0Zm-4.65-1.12c0.38-.44-2.17-11.75.59-16.32,1.17-1.66,3.29-1.75,4.18-.39,0.68,1.89-1.34,4.52-1.74,5.81-1.31,3.58.64,8.3-.31,11.69-2.85,7.39-7.89-.73-2.71-0.79h0Zm18.95-5c-1.5.07-.45-4.47-0.21-5.76,0-.26,2.75-0.91,3.74.88,1.6,2.66-.32,6-3.53,4.89h0ZM128.38,20.53L114.25,37.9C100,36.24,85.61,35.18,71,37.44L59.25,20.87Z" transform="translate(0.1 0.1)"/><path id="path3874-3-1-4" class="cls-4" d="M154.6,19.46H24V230H154.6V19.46Zm-26.35,1.09L112.59,40l-0.39.13a91.3,91.3,0,0,0,4,9.86c2.26,4.73,8,13.41,4.41,20.36a1.35,1.35,0,0,1-1.11.88c-0.6,0-.59-0.36-0.23-1.06a15.1,15.1,0,0,0,1-7.1,27.8,27.8,0,0,0-2.16-6c-5.95-11.1-7.81-17-7.47-17a1.37,1.37,0,0,0-.43-0.17l-0.58-.2c2.06,7,5.41,12.92,8.06,18.39,2.17,5.08,2.41,7,1.27,10.75-0.44,1.43-1.24,2.35-2,2.34-0.59,0-.55-0.12-0.15-0.85,2.08-3.78,1.6-7.91-1-12.71-3.76-7.93-6-12.95-7.36-18,0,0-.69-0.22-0.92-0.28,1.12,5.3,4.23,11.4,7.14,17.65,2.4,4.81,3.09,8.32,2.23,11.09-0.28,1.2-1.19,3-2.33,3-0.45,0-.52-0.24-0.1-0.86,1.78-3.08,2.09-5.92-1.09-12.4-2.93-6-5.86-12.61-6.86-18.43-0.06-.48-1.34-1-1.06-0.25,1.57,6.87,4.7,13.91,8,20.77,1.87,4.26,2.06,7,.66,9.37-0.78,1.33-1,1.64-1.57,1.65s-0.68,0-.3-0.77c1.7-3.58,1.42-6.74-.85-11.91-3.11-7.1-5.73-13-6.85-19.22-0.2-.06-1.25-0.47-1.1-0.16A102.12,102.12,0,0,0,109.52,56a57.26,57.26,0,0,1,2.81,7.6c0.89,3.6-1.11,8.53-3.73,8.78-1,.09-0.85-0.4.23-1.42,1.87-1.76,2.23-4.57,1.6-7.83A41.27,41.27,0,0,0,108,55.14c-2.28-5.53-4.77-11.33-5.55-16.43,0-.46-1-0.46-0.73,0a58.65,58.65,0,0,0,3.39,11.48c1.62,4.16,4,8.81,4.81,13.92,0.64,4.17-1.93,8.11-5.05,8.35-3.76.28-4.5-3.48-3.6-5.25,1.48-2.64,5.76-1.13,4.49,1.57a1.48,1.48,0,0,1-2.88-.56c0-.15.21-0.62,0.17-0.65a1,1,0,0,0-.51.45c-0.76,1.38,1.53,3.23,3.12,2.12,5.33-2.92,1.73-11.82-.59-17.26a56.43,56.43,0,0,1-4.61-14.34,1.33,1.33,0,0,0-1-.2c0.64,2.5.94,4.62,1.58,6.72,1,3.3,2.81,7,4.28,10.69s2.68,6.73,2.07,10.53a2.09,2.09,0,0,1-.44,1c-0.24.25-.44,0.21-0.51-0.75,0-.13-0.19-0.31-0.22-0.47a11.83,11.83,0,0,0-.33-4.18,20.37,20.37,0,0,0-2.16-4.45c-0.49-.81-1.79-3.3-1.33-1.58a23.63,23.63,0,0,0,2.07,4.69,9.67,9.67,0,0,1,1,4.13,0.54,0.54,0,0,1-.83.36,3.15,3.15,0,0,1-.23-1.3,13.68,13.68,0,0,0-3.28-6.17c-0.91-1,2.14,4.36,2.36,5.79a2.3,2.3,0,0,1,.08,1.4,0.6,0.6,0,0,1-.68.13c-0.26-.07-0.25-0.25-0.52-1.17a9.28,9.28,0,0,0-2.24-3.8c-0.41-.49-0.68.12,0,0.91A9.16,9.16,0,0,1,102,65.07c-0.59.84-.87,0.68-2.1-1.45-0.81-1.41-1.3-1.77-1.51-1.76-0.54,0,0,.7,1.48,3.1,0.78,1.28.8,2.08-.09,2.08a9.54,9.54,0,0,1-2.41-2.69C97,63.67,96.57,63.15,96.57,64a10.77,10.77,0,0,0,1.76,2.89c1.13,1.32,1.45,1.59,1.6,2.17,0.07,0.28.2,0.77,0.3,1.09,0.29,1,.14,1.22-0.44.72a2.44,2.44,0,0,0-1.21-1.32,12.09,12.09,0,0,1-2-2.48c-0.21-.32-0.39-0.72-0.61-1-0.55-1-1.27-1.12-.75-0.08a15.61,15.61,0,0,0,1.07,1.87c0.71,1,.56,1.55-0.28,1.55-0.36,0-1.37-1.34-2-2.38-0.41-.68-1.05-1.16-1-0.49a7.92,7.92,0,0,0,1.26,2.3c0.81,1,.91,1.56.13,1.55-0.54,0-1-.52-1.68-1.57s-1.05-1.35-1.24-1.24,0.93,2.13,1.89,3.21,0.24,1.61-.8.7a11.63,11.63,0,0,1-2-2.67c-0.57-1.25-.93-0.91-0.57.08a9.08,9.08,0,0,0,1.79,3.07c0.4,0.41,1.22.73,1.62,1.08a5.32,5.32,0,0,1,1.76,2.07c-3.23.18-5.89-3.31-6.62-5.42C88.05,68.25,87.47,68,88,70c1.58,4.88,6.49,7.41,9.89,5.22,2.05-1.32.24-4.75-1.44-3.65-0.46.3-.48,1.15,0.1,0.7,1.09-.86,2.19,1.26,1,1.88-1.67.88-3.53-.84-2.39-2.93s5.63-.92,4.75,2.55a6.17,6.17,0,0,1-4.88,3.53c-3.73.07-6.3-2.82-7.73-5.67-0.18-.37-0.51-1.09-0.79-1.68a7.48,7.48,0,0,0-.44-0.88c0.41,3.47,3.69,7.75,6.62,8.46,4.87,1.16,6.2-1.78,9.39-4.81,0,0,2.33.31,2.41,0.26a28.79,28.79,0,0,1,4.66-.21,106.38,106.38,0,0,0-1.11,98.74c1,2.11,1.16,1.71-.48,1.28s-3.23.24-4.61-.08c-2.85-.59-3.46,1.38-5.65,2.43-2.73,1-2.11,3-2.76,4.82-0.21.29-.35,0.52-0.24,0.48a1.73,1.73,0,0,0,.81-1.09,4.48,4.48,0,0,1,1-2.69c0.47-.47.8-0.7,0.91-0.5a1.7,1.7,0,0,1-.21,1.15c-0.66,1.27.22,5.5,0.27,2.49a7.53,7.53,0,0,1,3.48-6.15c1.61-.79,2.1-0.71.8,0.51A8.66,8.66,0,0,0,98.85,180c0,1,.35,1.77.49,0.9-0.06-4.42,4.31-9.34,9-6.9a0.76,0.76,0,0,1,.36.67c-4.53-.77-8.48,1.74-7.9,7.67a19.49,19.49,0,0,0,.64-2.32c0.71-3.63,4.78-5.22,7.63-4.23a1.63,1.63,0,0,1,.88,1.1c-3.48-1.11-7.31,2.23-7.53,5.84-0.07,1.17,0,2.18.55,0.06,2.25-8,9.19-4.39,8.34-3.73-5.37-.65-7.32,3-7.19,7.24a3.65,3.65,0,0,0,.44.88,13.21,13.21,0,0,1,1.1,5.85c-0.05.74,0.55,5.49-.06,5.29-2-.73-3.43-1.59-6.82-0.05-0.3,0-.4-0.15-0.3-0.42a10.23,10.23,0,0,1,1.59-2.12c2.08-2.24.88-1.64-.82-0.09-1.1,1-.86.32,0.18-3.11,0.42-1.39.16-1.56-1.65-2.49s-3.16-1.1-1.57-.1a13.39,13.39,0,0,0,2,1.07c0.83,0.46.73,0.65,0.12,2.65-1.18,3.89-1.6,5.31-1.53,7.93,0.15,6.36,6.14,5.73,9.56,4.3l0.14,4.19,12.85,18.31s-44.92,0-69,.35c1.37-3.33,15.9-17.45,16.77-20,0.08,0-1.61-5.16-2.5-7.41-4.2-10.63-9.73-15.1-6.53-22.08,0.69-1.38.81-1.85,1.33-1.85,0.71,0,.94.48,0.14,1.83-3.43,5.83,3.89,15.88,6.37,22.29A73.06,73.06,0,0,1,68.27,209c0,0.5,1.19.66,0.87,0.09-0.91-3.28-2.06-6.85-2.59-8.14-2-4.73-4-8-5.92-12.59-1.07-2.92-1.63-6.3,0-9.33,0.6-1.1.77-1.72,1.17-1.77a0.46,0.46,0,0,1,.57.4,3.35,3.35,0,0,1-.61,1.59c-2.89,5,2.24,13,4.79,18.73a45.5,45.5,0,0,1,3.65,11.2,0.58,0.58,0,0,0,1,.45c-1.1-6.62-4.33-13-7.16-19.21-2.42-4.83-3.33-9-.09-13,0.28-.27.88-0.23,0.93,0.18a5.23,5.23,0,0,1-.69,1.86c-2.85,6,1.56,10.92,3.63,16.66,2,4.8,3.9,8.84,4.65,14,0.57,0.22.85,0.49,0.91-.23-1.48-7.23-4.66-13.73-7.42-20-1.28-2.72-1.73-4-1.81-5.85-0.12-2.51,1.13-5.68,2.25-6.51a0.58,0.58,0,0,1,.74-0.11c0.36,0.2.29,0.33-.43,1.71a10,10,0,0,0-.22,8.68c2.19,4.78,4,8.71,5.35,12.23a42.25,42.25,0,0,1,2.56,10.21s1,0.44.83-.22a55.47,55.47,0,0,0-3.47-12.3c-1.4-3.5-3.16-6.86-4.59-10.33a8.85,8.85,0,0,1,3.25-11l1.63,0c-0.09,0-3.72,1.41-3.91,6.65-0.18,5,2.16,8.06,3.85,12.3,2.06,5.1,3.91,9.58,4.34,15a1.53,1.53,0,0,0,1,.15,53,53,0,0,0-3-11.44c-1.61-4.56-3.2-6.58-4.7-11.36-1-3.24-.87-7.62,1.37-9.62,3.36-3.44,8.06-1,6.88,2.95-0.91,2.77-4.66,2.22-4.64-.38a1.46,1.46,0,0,1,2.71-.86c0.16,0.25.26,1.32,0.33,1.36a3,3,0,0,0,.28-1,2.3,2.3,0,0,0-3.21-1.84c-1.88,1-3.11,3.16-3,6.1,0.13,3.13.69,5.16,3.23,10.07,3,5.72,3.93,11.92,4.56,16.1a2,2,0,0,1,.71,0,48,48,0,0,0-4.59-16.41c-2.79-5.89-3.58-9.49-2.64-12.13a1,1,0,0,1,.44-0.71c0.31,0,.41.46,0.7,1.52a3.44,3.44,0,0,1-.09,1.23c-0.24,2.42,1.43,7.44,3,9.67,0.46,0.64,1,.61.53-0.52a19.22,19.22,0,0,1-2.71-9.11c0-1,1.16-.57,1.19-0.05a12.18,12.18,0,0,0,1.05,5.11c1.62,2.81,2.53,2.93.87-.21-0.37-.73-1.43-3.81-1-4.87a0.43,0.43,0,0,1,.67,0,12.13,12.13,0,0,0,2.27,4.81c0.6,0.7.7,0.38,0.39-.49-0.53-1-2.19-4.38-1.42-5.14,0.25-.21.1-0.09,0.77,1a12.5,12.5,0,0,0,1.89,2.59c0.6,0.6.75,0.2,0.13-.86-1.24-2.1-2-3.85-1.51-4.29s0.54-.23,1.52,1.46c0.44,0.75,1.07,1.86,1.29,2.12s0.41,0.33.42,0.11a8.27,8.27,0,0,0-2.66-4.77,11.53,11.53,0,0,1-.06-1.8c2.6,1.36,2.71,2.89,4.44,5.24,0.18,0.18.43,0,.36-0.36a14.15,14.15,0,0,0-1.72-3.26c-0.5-.68-0.53-1.06-0.1-1.26,0.69-.32,1.65.72,2.68,2.57,0.48,0.86,1.11,1.36,1.11.91a10.28,10.28,0,0,0-1.5-3.1c-1-1.07-.52-1.81.66-0.83a5.33,5.33,0,0,1,2,2.41c0.44,1,.81,1.07.81,0.31a6.5,6.5,0,0,0-2.37-3.51c-0.74-.45-1.16-0.95-1-1.28,0.65-1,3.27,1.49,4.16,3.77,0.26,0.67.73,1,.84,0.72s-0.33-1.8-.87-2.56c-0.9-1.74-3-3.42-4.28-3.22a4.12,4.12,0,0,1-.91-1.39c3.21-.52,6.33,3.36,6.89,4.82,1.05,2.76,1.59,2.44.67,0-1.8-4.73-7.39-7.38-10.49-5.09-1.77,1.3-.71,4.42,1.11,3.89,0.72-.27,1.42-1,0.15-0.77a1.26,1.26,0,0,1-.42-2.47c2.32-.7,2.85,3,1,3.86a2.53,2.53,0,0,1-3.7-2.57c0.34-4.07,5.3-5.25,10.19-2,1.38,0.93,3.07,3.95,3.65,5.86a1,1,0,0,0,.92.77c0.19-.19-1.36-3.55-1.87-4.41-2.13-4.93-9.83-5.17-9.83-4.92a28.36,28.36,0,0,0-5.69,5.08l-6.88-.64c17.53-28.45,18.91-70.27.93-99.88,0.23,0.15,3.46,1,4.57.11a1.91,1.91,0,0,1,2-.21,3.08,3.08,0,0,0,3.21-1c0.84-.77.85-1,1.39-0.94,1.6,0.21,2.66-.73,3-3.06a3.86,3.86,0,0,0,.09-1.72,9.13,9.13,0,0,0-.38,1.37,3.71,3.71,0,0,1-1.15,2.31c-0.87.73-1.37,0.32-1-.79a4.89,4.89,0,0,0,.16-3.41,1.86,1.86,0,0,0-.22.88c-0.95,3.65-1.94,5.5-3.66,5.92-0.81.2-1.18,0.08-.92-0.39,3-3.26,2.83-6.88,2.6-6.57-0.64,2.09-1.84,5.21-3.81,6.49a5.5,5.5,0,0,1-5.57.28c-0.78-.53.4-0.68,2.18-0.71,3,0,5.79-4.08,5.33-7.48-0.11-.63-0.28,0-0.52,1.08-1.1,3.69-3,6.28-7.33,5.5a1.82,1.82,0,0,1-.75-0.41c-0.7-.49-0.44-0.83,1-0.65,3.13,0.41,5.85-2.55,5.84-6.13,0-1.72-.25-1.7-0.52-0.42-0.38,1.81-1.77,7.34-6.83,5.53-0.91-.5-1.41-1.14-1.08-1.23,3,0.6,5.66-.05,6.71-4a8.24,8.24,0,0,0-.12-4.73c-0.15-.94-0.46-1.66-0.57-2.61a53.52,53.52,0,0,1-.57-8.18c0.24-.24.28-0.19,1.13,0.38C76,51.93,77.28,51.67,79,51c2.18-.8,2-0.65-0.3,2a13.11,13.11,0,0,0-1,1.31c-0.58,1.1.51,0.29,1.32-.74,1.13-1.44,1.37-1.77,1.6-1.77a19,19,0,0,1-.77,4.72c-0.38,1.41-.37,1.74.52,2.1,0.39,0.16,1.13.47,1.55,0.67,1.87,0.9,1.69.17,0.21-.68-2-1.15-2-1.09-1.45-3A47.86,47.86,0,0,0,82,49.19c0.9-5.47-3.18-8.48-8.6-6.57-0.31.16-.67-2.88-0.62-3.68,0-.29-0.82-0.23-1.53-1.11,0.22-.2-8-10.6-11.82-16.9,23.81,0.06,47.27-.44,68.81-0.38h0ZM110.6,40.09l0.08,0.06A0.14,0.14,0,0,0,110.6,40.09ZM129.2,21h23.63v50.3l-2.34.05s-3.84-6.68-4.85-9.83c-0.25-.79-0.69-1.87-0.87-2.3-0.39-1-.66-1.08-0.15-1.67a4,4,0,0,0-.18-4.72,1.08,1.08,0,0,1-.46-1.15,3.83,3.83,0,0,0-.12-1.68c-0.34-.67-0.57-0.72-0.08-1.46a12.83,12.83,0,0,0,1.48-3c0.46-1.6.14-1.89,1.17-1.52a3.52,3.52,0,0,0,4.69-3.67,3.7,3.7,0,0,0-4.5-3.59c-0.55.14-.66,0.09-1.51-0.45a6.12,6.12,0,0,0-.93-0.6,1.48,1.48,0,0,1-.88-0.42,3,3,0,0,0-2.54-1.39,5.08,5.08,0,0,1-2-.37c-0.42-.22-1.62,0-3.13-0.27a5.51,5.51,0,0,0-1.54.17c-0.93,0-.55-0.11-0.73-0.82-1.17-3.73-4.58-3.29-6.15-.48a14.06,14.06,0,0,0-1.21,4.43l-9.19-.14Zm-71.14.11c3.43,4.42,6.72,9.36,10.18,13.87,4.26,5.46,4.4,6.09,3.26,11.58-0.64,3.11-.91,3.82-2.21,3.59a2.15,2.15,0,0,0-2.41,2c-0.31,2.3,1.88,3.72,4.08,2.57,1.16-.61,1.2-0.67.81,1.33-0.55,2.87-1.67,5.35-2.38,5.27-1.85-4-6.34-1.14-4.85,3-0.47.72,0.15,1.63,0.38,2.38a12.77,12.77,0,0,1-2.56.95c-12.6,3.77-28,13.62-36.51,22.86V21.34Zm72.32,9.44a2,2,0,0,1,1.46.54c1.1,1,.84,2.39-0.68,5-1.59,3.66-1.16,6.54-.79,10.38,0,2.23-.76,4.35-1.94,5.27a2.11,2.11,0,0,1-3.3-2.52c0.51-1,1.6-.42,1.85-1.36,0.35-3.49-.51-7.05-0.57-10.48a12.83,12.83,0,0,1,1.21-4.91,3.46,3.46,0,0,1,2.76-1.93h0Zm3,6c-0.44.37-1.16,0.38-1.25-.08a5.2,5.2,0,0,1,.63-2.18C134.36,33.92,133.86,36.16,133.4,36.56Zm2.36-2.39c1.3-.05,2.16,3.32,1,5.29-0.21,0-1.79,0-1.8.06a9.2,9.2,0,0,1,.19-1.73,3.32,3.32,0,0,0,0-1.63c-0.43-1.54-.71-1.83.59-2h0Zm2.48,0h0.15c1.32,0,2.08,2.59,1.66,5.41a1.82,1.82,0,0,1-.24.93,6.24,6.24,0,0,0-2.11.4,3,3,0,0,1,.11-1.68,5.68,5.68,0,0,0,0-3.62c-0.31-1.2-.32-1.43.39-1.45h0ZM141.53,35c1.45,0.25,1.55,4.32,1,5.64a2.14,2.14,0,0,1-.89.22c-1.24.36-1,.54-0.82-1.45a13.8,13.8,0,0,0-.08-3.55c-0.1-.49-0.14-0.84.22-0.87a1.5,1.5,0,0,1,.61,0h0Zm-7.25,1.59c0.58,0.8.11,2.66-.33,3.35s-0.71.82-.43,1.16a1.65,1.65,0,0,1,.21,1.16c-0.28.56,0.43,0.66,1.08,1,1,0.56,1.56,1.58,2.34,3.44,0.27,0.65.83,0.44,0.56-.25s-0.32-1.48-.48-2.07,0-.91.7-0.73a1.12,1.12,0,0,0,1.27-.12c0.83-.47,1.39.19,0.89,0.56a6.34,6.34,0,0,1-1.58.53c-0.58.16-.44,0.72,0.14,0.72a17.66,17.66,0,0,0,3.07-.75c2.87-.88,3-1.35,2.7.31a5,5,0,0,1-3.48,4.39,17.43,17.43,0,0,1-7.36-.17c-1.66-.76-1.77-1.29-2.27-2.77-0.69-2-1.09-5.45-.3-7.44,0.69-1.68.62-1.5,1.29-1.42a1.42,1.42,0,0,0,1.57-.39,1.09,1.09,0,0,1,.42-0.49h0Zm11,1.21a4.49,4.49,0,0,1-.13,2.52c-0.18.33-1.18,0.31-1.57,0.31-0.23.05-.21-3,0-3.38,0.58-.89,1.34-0.17,1.67.54h0Zm-29.14-.53,2.84,0V38l-3.36,0Zm10,0.12v0.91h-4.28V44l4.79,0,0,1.19-6.41,0,0-7.8h5.86Zm21.77-.18c4.39,1,2.43,5.9.79,6.2-2.05.37-3.79,0.14-3.22-1.69,0.57-1.24.17-2.79,0.34-3.91A2.86,2.86,0,0,1,147.87,37.16Zm-33.1,1.73,4.23,0v0.94h-4.83Zm9.39,0.87A1.24,1.24,0,1,1,122.93,41,1.23,1.23,0,0,1,124.15,39.76Zm11.92,0.49c0.79,0.09.85,1.31,0.53,1.66a0.88,0.88,0,0,1-1.42-.4A1,1,0,0,1,136.07,40.25Zm-22.49.53,5.41,0v0.76l-5.46,0-0.15-.49ZM144,41.11c0.75,0,1.21.62,0.74,1.17C144,43.07,142.61,41.86,144,41.11Zm-57.6,1.67c-1.21,1-.24,2.05,1.37,1.07,3.46-2.11,8.56-.44,11.88,1.32,0.65,0.34.74-.45,0.1-1-3.07-2.74-9.61-4.32-13.34-1.4h0Zm52.38-1.44c0.84,0,.83,1.07.29,1.45a0.94,0.94,0,0,1-1,0c-0.49-.2-0.12-1.48.71-1.48h0Zm3,0a0.78,0.78,0,1,1-.62,1.36A0.78,0.78,0,0,1,141.78,41.35Zm-27.94,1.05,5.25,0v0.87l-4.91-.05Zm-33.95,2c1.44,1.16,1,1.23-1.39.38a7.23,7.23,0,0,0-4.08.26c-1.15.46-1.42,0.33-.92-0.45,1.34-1.53,5-1.22,6.39-.19h0Zm6.9,1.91c-0.14.36-.64-0.29-1.3-0.16-1,.18-0.68.23,0.33,1.38s1.33,1.43,1.27,1.88c-0.09.66,0.09,1,.74,0.95a2.08,2.08,0,0,1,1.15.77,16.66,16.66,0,0,0,3,2.5c2.18,1,1.2-.12-0.19-1.1-2.32-1.62-3.12-2.71-1.48-2.13a8.18,8.18,0,0,0,5.91-.57c0.67-.41,1.1-1,2.05-0.74,1.34,0.43,1.85-.37,1.48-0.81-0.61-.39-2-0.87-3.31-1.76a8.16,8.16,0,0,0-7.74-.24c-1.16.69-1.57,0.2-.43-0.48,4.57-2.5,8.18-.11,11.11,1.69,0.51,0.31.86,0.29,0.86,0.07-0.08-.73-1.38-1.17-1.9-1.5-4.07-2.52-8.36-3.32-11.55.25h0Zm27.73-2.21h4.57v0.91l-4.23,0ZM77.38,45.32c1.26,0,4,1.15,4,2.1-0.05.36-.74,0-1.34-0.33a6.77,6.77,0,0,0-4.6-.59c-1.28.24-1.69,0.46-1.87,0.3C73.09,45.78,76.21,45.32,77.38,45.32ZM126.75,46v1.64c-2.48.18-3,3-1.4,4.54,1.3,1.28,3.46.77,4.54-1,0.19-.32.21-0.52,0.33-0.36a2.6,2.6,0,0,1,.19.7c0.17,0.86-.07,1.08-0.63,1.82a3.63,3.63,0,0,0-.46,3.81,2.38,2.38,0,0,1,.43.95c0.32,0-2.81,8.89-7.39,13.37-0.77.52-1.32-.09-0.93-0.92,3.73-8.64-3.4-16.67-6.17-24.4l11.48-.1h0ZM93.62,47.49l0.65,0.06c-0.53,4-4.33,3.34-4.48.1l0.55,0c0.74,3,3.29,1.78,3.28-.14h0Zm-21.5.08a1.93,1.93,0,0,1,.27.69c0,0.93,0,2.27,0,2.67-0.22,3.83-5,4.54-4.65,1.26a1.26,1.26,0,0,1,2.44-.29c0.62,1.58.73-.38,0.74-1a18,18,0,0,0,1.23-3.35h0ZM95.2,47.84a1.41,1.41,0,0,1,.82.48c0.32,0.34.2,0.51-.54,0.9s-1.16.38-.87-0.46A1.13,1.13,0,0,1,95.2,47.84ZM131,48a0.44,0.44,0,0,1,.32.57c-0.11.7-.7,1.09-0.86,0.93A3,3,0,0,1,131,48ZM89.48,49.39c-0.09.28-.26,0.16-0.68-0.2s-0.44-.65,0-0.94c0.68-.42.72,0.88,0.64,1.14h0Zm-14.5-1c0.8,2.56,2.43,2.24,3.16.12h0.7c-0.15,3.3-4.27,3.24-4.31.05Zm-1.44.32c0.24,0,.07.82,0.07,0.82s-0.68-.35-0.28-0.73A0.54,0.54,0,0,1,73.54,48.67Zm6,0.22a0.85,0.85,0,0,1,.41.17c0.4,0.27.33,0.43-.13,0.81-0.7.6-1,.26-0.64-0.53A0.68,0.68,0,0,1,79.58,48.89Zm52.58,0.56a6.69,6.69,0,0,1,1.6.36,17,17,0,0,0,8.47-.14c0.88-.25,1.53,1.32,1.05,2.45-0.21.5-.17,0.56,0.47,1.24a3.43,3.43,0,0,1,.36,3.89c-0.5,1-.47.93,0.13,2.67a61.71,61.71,0,0,0,5.11,10.77l-2.62-1S134.88,80,126.52,80.41l3,4.79a14.18,14.18,0,0,0,13.67-1.33c-0.11.4,5.3,3.08,9.74,3.38l0,3.22c-3.29-.37-6.63-0.45-9.69-2.41,0,0-2.81,1.19-5.63,2.09l15.78,16.57v2.77s-6.74-6.38-13.67-13.58l0.15,35.38,13.66,0.27c-0.43,9.21-.26,15.06-0.16,25.61a90.2,90.2,0,0,1-23.53,17.48A68.5,68.5,0,0,1,120,162.38c-0.06-.09.28-0.27,0.22-0.36s-0.57-.19-0.66-0.32c-1.71-2.58-5.67-9.73-5-9.9,1.21,0.09,6.84-.62,8-4a5.63,5.63,0,0,1,0-1.54,13.24,13.24,0,0,0-.07-6.46c-1.21-3.23,2.43-2.19,2.55-2V125.59c-4.73,3.85-9.5,7.64-15.83,9.22-3.93-20.13,2.3-45.15,20.09-62.13l-1-.08c-18.27,19.19-23.06,40.29-19.94,62.52,0,0,.12.69,0.13,0.93a1.14,1.14,0,0,1-.57,1.16,1.39,1.39,0,0,0-.84,1c0.08,0.71-.6.74-1.48,0.73-0.41-.36-1,0.09-1.28.26s-0.69-1.83-1.27-.44c-0.22.88-.65,0.94-1.62,0.51-0.61-.18-0.63.13,0,0.85,0.82,0.89,1.5,2.22,1.37,2.62a1.67,1.67,0,0,0,1.08,2.31c-0.07,0-.75,2.73,1.18,2.65a18.17,18.17,0,0,1,2.17.33,1,1,0,0,1-.31,1l-1.34-.68L105.16,150l-1.79-.13,4.36,5.46,0.51-4.26,5.09,0.65c0.82,2.15,6,14.09,15.8,23-0.11.29-6.77,3.08-6.77,3.08l-1.05-3.31-0.84,1.23-1.5-.39-0.18,1.4-1.34.44,2.41,1.59-6.12,1.77c-17.15-28.09-24.88-66.82-3.51-108.08l5.4,0.07-1.05,1.83,1.53-.25,0.43,1.33,1.13-.54,1.13,1.44,1.29-3.85s3.82,0.09,4.3,0,8.08-6.61,7.92-6.86-8.4,6-8.67,5.72c0,0-.83.2-0.18-0.59a29.7,29.7,0,0,0,3.16-4.51,21.59,21.59,0,0,0,3.28-8.2,1.61,1.61,0,0,0-.08-0.78c-0.74-1.5-.58-2.47.76-4.24a1,1,0,0,0,.36-1.15,1.94,1.94,0,0,1,.6-2.17,1,1,0,0,1,.63-0.35h0Zm-45.48,6c3.39,1.41.67,4.54-1.85,1.81-1.32-1.43-2.36-1.34-3.08-.29-0.32.47,0.15,1.3,0.57,1a0.93,0.93,0,0,1,1.35,0c4.28,4,7.36-1.6,3.67-3-0.46-.21-1.11.26-0.66,0.45h0Zm-14-.14a0.22,0.22,0,0,1,.12,0,4.51,4.51,0,0,1,0,2.11c-0.54,3-2.65,10-7,6.59-1.73-1.36-.16-4.78,1.91-3.62,1.61,0.91.52,3.07-1.22,1.83-0.85-.6-0.58.64,0.14,1,1.21,0.64,3.41-.46,4.44-2.43a18.85,18.85,0,0,0,1.23-4.17c0.22-1,.24-1.36.37-1.36h0Zm0.37,5.22c0.36,2.18-1.28,6-3.6,6.56-1.78.43-4-.75-3.83-1.84,0-.32.17,0.1,1.79,0.37,2.25,0.38,3.69-.86,5-3.7a9.25,9.25,0,0,1,.66-1.4h0Zm5.61,1a8.52,8.52,0,0,1-.22,1.33c-0.24,1-.39,1.41.71,0.9a3,3,0,0,1,2.89-.06,4,4,0,0,0,3.81-.06c1.24-.42,1.85-0.42,2.54,0,1.27,0.74.83,0.27,0.67-1.6-0.11-1.31-.47-1.14-0.92-0.64a1.28,1.28,0,0,1-1.57,0,2.41,2.41,0,0,0-2.29.08,1.29,1.29,0,0,1-1.65-.15,1.14,1.14,0,0,0-1.36.11,1.48,1.48,0,0,1-1.89-.21c-0.48-.36-0.71-0.25-0.72.29h0Zm-4.88,1.57c0.13,0,.14.5,0.05,1.52-0.41,3.74-3.29,5.82-6.69,4-1.49-.86-1.28-1.47.18-0.93,2.33,0.86,4.69-.34,5.84-3.41A2.44,2.44,0,0,1,73.82,63.11Zm8.28,2.67c1.68,0.7,3.54.48,4-.14s-0.28-.59-0.71-0.48a4.84,4.84,0,0,1-3.07,0C80.59,64.43,80.7,65.17,82.1,65.78Zm-17.51,2.1a42.69,42.69,0,0,1,4.34,6.3C82.63,97.79,87,127.63,78,154.71a97.63,97.63,0,0,1-9.87,21.21l-4.69.05,1.61-1.86-2.18.16L62.75,173l-1.66.54-0.8-1.86L58.79,176l-8.7,0c20.37-20.09,24.38-44.44,20.58-64a6.89,6.89,0,0,0,1.94-1.71,4.07,4.07,0,0,1,.3-0.9c0.76-.5,1.26-1,1.63-0.9a0.76,0.76,0,0,1,.48.39c0.72,1.07.87,1.23,1.26,0.16,0.28-.77.16-1.05,1.08-0.9a1.39,1.39,0,0,0,1.19.17c0-.08-0.82-1-1.18-1.52-0.86-1.23-1.11-1.45-1-2a2.2,2.2,0,0,0-.92-1.93c0.12-2.21-.72-2.43-3.08-2.92a2.07,2.07,0,0,1,.22-1L74,100.07,74.47,98l1.89,0.1-5.47-5.37a41.28,41.28,0,0,1,0,4.51c-2.56-.14-5.09-1-5.13-0.82A69.57,69.57,0,0,0,50.17,73.87l6-2.95,1.71,3.32,0.42-1.88,1.5,0.27,0.25-1.21,1.66-.24-1.83-1.76Zm36,3.88a4.18,4.18,0,0,0,.73.59l-0.62.45a2.76,2.76,0,0,0-.11-1h0ZM60.37,72.86a0.94,0.94,0,1,0,.93.95A0.94,0.94,0,0,0,60.37,72.86Zm5,0.15a0.95,0.95,0,1,0,.93.95A0.94,0.94,0,0,0,65.42,73Zm-16.25.69c3,2.53,5.75,5.82,9.09,11l-0.07.69,1,0.38s5.55,7.42,5.26,10.72c-1.91.4-3.65-.12-7.06,3.12-1.61-.88-2.56-0.6-4.23-0.1a1.18,1.18,0,0,0,.6,1,2.15,2.15,0,0,1,3-.38c-0.24.1-.84,7.47,0.33,9,0.88,2.5-1.43,2-3,1.41l0.46,11.71c5.28-6.12,16.44-10.2,15.65-9.75,5.6,30-7.71,50.06-21.65,64.74l7.3,0s-6.3,10.25-6.76,13.09c0.36,0.94,1.35,2.89-.32,4.26-0.57.63-.63,3.49-0.63,3.49-3.84.13-7.17-1.22-11.6,0.36-0.46.16-.56-2.45-0.58-2.92-2.47-2.23-.21-6.05.13-5.77a91.34,91.34,0,0,0-6-13.06l-3.89-.22c-0.31-.26-0.51-7.2-0.19-7.37C36.88,170,54,169,54,169l-4.6-6.52c-5.66-2.24-13.44,1.59-13.07,1.79,0,0-6.22-3.45-10.54-3l0.14-3.4a19.85,19.85,0,0,1,10.48,2.56l5.26-2L25.57,141.31l0.19-2.83C31,143.42,39.63,153,39.63,153v-36l-13.86,0-0.37-7.27L25.05,109l-0.16-5.22,0.39-.53L25.14,101,25,100.68l-0.18-5.33,0.3-.45,0-3.36c6.7-6.65,24-17.84,24-17.84h0Zm11.84,1,1.61,7.18,1.08-1.36,1.66,0.53,0.11-1.65L67,78.88Zm55.07,1.19a0.95,0.95,0,1,0,.93.95A0.94,0.94,0,0,0,116.07,75.91Zm-4.36.59a0.95,0.95,0,1,0,.93.95A0.94,0.94,0,0,0,111.71,76.5Zm-53.4.84a0.95,0.95,0,1,0,.93.95A0.94,0.94,0,0,0,58.31,77.34Zm56.74,0.57-6.48,6.19,1.82-.08,0.33,1.81,1.63-.76,1.32,1.23ZM117.81,80a0.95,0.95,0,1,0,.93.95A0.94,0.94,0,0,0,117.81,80ZM66.26,81.2a0.95,0.95,0,1,0,.93.95A0.94,0.94,0,0,0,66.26,81.2Zm4,0.79a0.95,0.95,0,1,0,.93.95A0.94,0.94,0,0,0,70.29,82ZM66.64,83.4c0.18,2.53.47,5.53,0.53,8.06l1.23-1.23,1.42,0.59,0.5-1.55,1.55-.08Zm39.91,2.11a0.95,0.95,0,1,0,.93.95A0.94,0.94,0,0,0,106.55,85.51ZM64,85.68a0.95,0.95,0,1,0,.93.95A0.94,0.94,0,0,0,64,85.68Zm46.28,0.23a0.94,0.94,0,0,0-.93.95,0.93,0.93,0,1,0,1.86,0A0.94,0.94,0,0,0,110.24,85.91Zm-0.55,2-5.37,5.61,1.76,0.17,0.55,1.59,1.13-1,1.37,1Zm3,1.2a0.95,0.95,0,1,0,.93.95A0.94,0.94,0,0,0,112.64,89.15ZM70.27,90.9a0.95,0.95,0,0,0,0,1.89A0.95,0.95,0,0,0,70.27,90.9Zm-23,.77L46,92.72a4.12,4.12,0,0,1,1.75,1.39,22.34,22.34,0,0,1-.39-2.45h0ZM74.67,92.3a0.95,0.95,0,1,0,.93.95A0.94,0.94,0,0,0,74.67,92.3ZM68,93.65a0.95,0.95,0,1,0,.93.95A0.94,0.94,0,0,0,68,93.65Zm38.48,1.91a0.95,0.95,0,1,0,.93.95A0.94,0.94,0,0,0,106.48,95.56Zm-3.68,1.39a0.95,0.95,0,1,0,.93.95A0.94,0.94,0,0,0,102.81,96.94Zm37.53,0.23,1.94,2.14v31.24l-1.89,0ZM65,97.4c1.58,0,3.33.23,3.89,1.21,0.87,1.09-1,.67-2.54.91s-0.6.48,1.43,0.6c2.8,0.17,3.9.24,4.32,0.9a5,5,0,0,1,.11,1.68L69,102.53a18.58,18.58,0,0,0-3.11.1,0.31,0.31,0,0,0-.15.55,23.77,23.77,0,0,0,2.81.13c4,0.11,4.86.24,5.14,1.54s-0.74,1-4.83.56a5.77,5.77,0,0,0-3.06.41c-0.45.22,1.3,0.44,1.87,0.35a29.5,29.5,0,0,1,3.95.41c0.81,0.12.1,0.1-.31,0.6a2.51,2.51,0,0,1-.61,1.13c-0.52.28-1.55,0.27-3.41,0.28-2.12,0-3.11.52-.2,0.65,1.88,0.08,2,.05,2.15.6,0.42,1.36-.48,1.6-2.4,1.91a15.58,15.58,0,0,1-3.3,0c-4.06-.29-5.46-1.27-6-3.09-2-6.77.48-10.9,6.39-11.23,0.33,0,.68,0,1,0h0Zm41,0.3-4.58,6.76,1.76-.7L104,105.6l1.41-1,1.41,0.88Zm-34.26.82c0.24,0.29.13,0.52-.26,0.73a1.65,1.65,0,0,1-1.27-.12C69.69,98.92,69.64,98,70,97.93a1.87,1.87,0,0,1,1.67.59h0Zm-33.17-.34-2.1,2.33s1.93-.7,3-1.12Zm70.29,1a0.95,0.95,0,1,0,.93.95A0.94,0.94,0,0,0,108.83,99.22Zm34.1,0.82s2.33,2.34,3.29,3.32h-0.87l0,1.84,2.76,0,1.52,1.51-4.21,0v1.88h5.22l0-.81,2.06,1.89,0.24,20.95-9.94,0c0-10.32,0-20.26-.06-30.57h0ZM74.71,102.3c-0.14.45-.46,0.45-1,0.23-0.81-.33-0.69-1.24-0.08-1.33,1.15-.13,1.37.41,1.09,1.1h0Zm3.13,0.4a0.95,0.95,0,1,0,.93.95A0.94,0.94,0,0,0,77.84,102.7Zm-3.28.72a1.54,1.54,0,0,1,.93.42,0.74,0.74,0,0,1-.24,1.31c-0.64.34-1.09-.12-1.27-0.89A0.61,0.61,0,0,1,74.56,103.42Zm29.24,2.48a0.95,0.95,0,1,0,.94.95A0.94,0.94,0,0,0,103.8,105.9ZM73,107.05a0.78,0.78,0,0,1,.63,1.31,1,1,0,0,1-1.67-.23A1,1,0,0,1,73,107.05Zm27.44,0.38a0.95,0.95,0,1,0,.93.95A0.94,0.94,0,0,0,100.46,107.44Zm3.31,0.63-4.17,7.1,1.69-.68,1,1.37,1.05-.93,1.59,0.79Zm-32.71,1.19c0.75,0,1,.6.41,1.14a0.82,0.82,0,0,1-1.21,0C69.61,109.91,70.11,109.25,71.06,109.25Zm35.63,0.09a0.95,0.95,0,1,0,.93.95A0.94,0.94,0,0,0,106.69,109.34Zm-30.35.75a0.91,0.91,0,0,0-.89.95,0.93,0.93,0,1,0,1.86,0,1,1,0,0,0-1-.95h0Zm69.06,0.21v2h5.25v-2H145.4Zm-69,1.78-2,7.46,1.68-1,1,1.09,1-1.22,1.76,0.46ZM80,112.89a0.95,0.95,0,1,0,.93.95A0.94,0.94,0,0,0,80,112.89Zm-6.56.38a0.95,0.95,0,1,0,.93.95A0.94,0.94,0,0,0,73.43,113.27Zm72,0.59v1.8h5.25v-1.79H145.4Zm-43.23,2.36a0.95,0.95,0,1,0,.93.95A0.94,0.94,0,0,0,102.17,116.21Zm43.23,1v1.94h5.25v-1.94H145.4Zm-108.31.24,1.85,0,0,33.84-1.8-1.93Zm-0.77.07-0.09,30.93-3.5-3.74h0.93V142.6l-3,0-1.29-1.28h4.32v-2.07l-5.13,0v1.25L26,137.73l0-20.2Zm66,0.95-2.8,7.36,1.76-1,0.91,0.91,0.94-.86,1.6,0.79Zm-73.77.35,0,2h5.18v-2H28.54Zm76.94,0.4a0.95,0.95,0,1,0,.93.95A0.94,0.94,0,0,0,105.48,119.22Zm-6.34.11a0.95,0.95,0,1,0,.93.95A0.94,0.94,0,0,0,99.14,119.32Zm-21.92.35a0.95,0.95,0,1,0,.93.95A0.94,0.94,0,0,0,77.22,119.68Zm68.18,0.76v2.08h5.25v-2.08H145.4Zm-68.29,1.17-0.78,1.22-1.78-.62L77,129.68,80,121.9l-1.75,1Zm-48.57.54v2h5.15v-2H28.54Zm116.86,1.77V126h5.25v-2.06H145.4ZM28.54,125.65v2h5.15v-2H28.54Zm73.7,0.37a0.95,0.95,0,1,0,.94.95A0.94,0.94,0,0,0,102.24,126Zm-28,1a0.95,0.95,0,1,0,.94.95A0.94,0.94,0,0,0,74.2,127Zm6,0.18a0.95,0.95,0,1,0,.94.95A0.94,0.94,0,0,0,80.18,127.19Zm65.23,0.13v1.86h5.25v-1.86H145.4Zm-43.17.87-1.11,1.19-1.6-.46,3.63,6.87L105,128.4l-1.6,1Zm-73.69.7v2.25h5.15v-2.25H28.54Zm48.6,1a0.95,0.95,0,1,0,.94.95A0.94,0.94,0,0,0,77.14,129.91Zm-0.06,2c-0.4.29-.57,0.79-1,1.05l-1.7-.74,1,9.35,4.73-8.84-2.16.37Zm-48.54.31v2.34h5.15v-2.34H28.54Zm77.35,1.08a0.95,0.95,0,1,0,.94.95A0.94,0.94,0,0,0,105.89,133.25Zm-6,.11a0.95,0.95,0,1,0,.94.95A0.94,0.94,0,0,0,99.84,133.36Zm-71.3,2.2v2.34h5.15v-2.34H28.54Zm74.67,0.52a0.95,0.95,0,1,0,.94.95A0.94,0.94,0,0,0,103.21,136.08Zm13.2,0.07c5,0.16,5.74,1.8,5.77,7.44,0,4.51-1.3,6.27-4.53,7.14a21.87,21.87,0,0,1-6.83-.38c0-.39-0.64-1.28-0.78-2a18.86,18.86,0,0,1,3.23.23c1.54,0.15,1.94-.1,1.45-0.41-2.91-.7-4.88-0.51-7.68-1.05a4.38,4.38,0,0,0-.71-1.83c0.15-.06,4.3.39,6.49,0.32,1,0,.38-0.5,0-0.59-2.56-.37-4.21-0.31-6.92-0.66a2.61,2.61,0,0,0-.71-1.88s1.37,0,4.18,0c1.48,0,2.77.09,3.42,0.06,1.09,0,1-.52,0-0.59-1.15-.13-5.68-0.16-5.68-0.16a4,4,0,0,0,.6-2.24s1.17,0,1.92,0c3.63-.14,4.26-0.08,4.33-0.22,0.48-.44-0.81-0.62-2.15-0.61-0.58,0-1.42.13-1.42-.19a3.36,3.36,0,0,0-.3-1.52,15.2,15.2,0,0,1,6.28-.94h0Zm-43.18,1.16a0.95,0.95,0,1,0,.94.95A0.94,0.94,0,0,0,73.24,137.31Zm35.73,0.2a0.71,0.71,0,0,1,.23,1.31c-0.89.27-1.38,0.06-1.34-.48a1.44,1.44,0,0,1,1.11-.83h0Zm-29.62,1a0.95,0.95,0,1,0,.94.95A0.94,0.94,0,0,0,79.34,138.49ZM106,139.56c2.12,0,1,2.9-.61,1.85A1.05,1.05,0,0,1,106,139.56ZM72.51,141.9s-0.07,0-.06.15l0.49,8.88,5.09-8.3-2,.76-0.87-1.34-1.09.87c-0.45.36-1.3-1-1.53-1h0ZM104,142.8c0.95,0.13,1.58,1.1.92,1.56C103.46,145,102.66,142.87,104,142.8Zm-2.28,1.95a0.95,0.95,0,1,0,.94.95A0.94,0.94,0,0,0,101.74,144.75Zm3.6,0.8a0.83,0.83,0,0,1,.39,1.55,1.14,1.14,0,0,1-.9,0c-0.94-.71-0.45-1.45.51-1.52h0Zm-35,1.46a0.95,0.95,0,1,0,.94.95A0.94,0.94,0,0,0,70.31,147Zm71.44,1.19-3.47,1.18v1.66c1.51-.49,2.38-1.74,3.47-2.85h0Zm-32.48.8a0.78,0.78,0,0,1,.25,1.36,1.92,1.92,0,0,1-1.78-.18c-0.7-1.14.81-1.46,1.53-1.18h0Zm-32.68.33a0.95,0.95,0,1,0,.94.95A0.94,0.94,0,0,0,76.6,149.34ZM72.76,151a0.84,0.84,0,1,0,.82.84A0.83,0.83,0,0,0,72.76,151Zm38.88,1.41a0.95,0.95,0,1,0,.94.95A0.94,0.94,0,0,0,111.64,152.4Zm-41.89.05,0,8.39L75.22,154l-1.91.42-0.82-1.7-1.18.78Zm35,1.93a0.95,0.95,0,1,0,.94.95A0.94,0.94,0,0,0,104.74,154.38Zm27.59,0-0.9,1.57,2.57-1.45Zm-23.85,1.11a0.95,0.95,0,1,0,.94.95A0.94,0.94,0,0,0,108.47,155.53Zm3.15,1-1.12,1.62-1.47-.48-0.44,1.54-1.77-.07,5.75,5.08Zm-44.78.65a0.95,0.95,0,1,0,.94.95A0.94,0.94,0,0,0,66.84,157.2Zm86,2.28v69h-32l-13.45-18.91a25.1,25.1,0,0,1,1.14-10.23c1.32,0.92,4.2.42,4.1-3.16-0.06-2.35-3.63-3.55-5.4-1.78,0.09-2.27,1-5.68,2.31-6.68,0.9,0.83,1.1,2.05,3.13,1.71a2.8,2.8,0,0,0,2-3.78,5.09,5.09,0,0,1-.24-1.46,9.66,9.66,0,0,0,0-1.48,10.18,10.18,0,0,1-.14-1.08c15-3.46,28-12.66,38.68-22.12h0Zm-79.44.28a0.95,0.95,0,1,0,.94.95A0.94,0.94,0,0,0,73.39,159.76Zm-4.41.93a0.95,0.95,0,1,0,.94.95A0.94,0.94,0,0,0,69,160.68Zm46.28,0.46a0.95,0.95,0,1,0,.94.95A0.94,0.94,0,0,0,115.26,161.14Zm-49.63,1L64.17,171l6.37-6.61-1.73,0-0.34-1.51-1.62.53ZM108.92,164a0.95,0.95,0,1,0,.94.95A0.94,0.94,0,0,0,108.92,164Zm4.13,1a0.95,0.95,0,1,0,.94.95A0.94,0.94,0,0,0,113,165.07Zm-51.39,1.15a0.95,0.95,0,1,0,.94.95A0.94,0.94,0,0,0,61.66,166.22Zm55.11,0.72-1.52,1.17-1.4-.87-0.33,1.88-1.19.64,5,3.57Zm3.7,2.53a0.95,0.95,0,1,0,.94.95A0.94,0.94,0,0,0,120.47,169.47Zm-52.89.32a0.95,0.95,0,1,0,.94.95A0.94,0.94,0,0,0,67.59,169.79ZM63.43,171a0.95,0.95,0,1,0,.94.95A0.94,0.94,0,0,0,63.43,171Zm54.65,2.51a0.95,0.95,0,1,0,.94.95A0.94,0.94,0,0,0,118.08,173.54Zm-3.92.85a0.95,0.95,0,1,0,.94.95A0.94,0.94,0,0,0,114.16,174.39Zm-36.21,1.35h0a1.64,1.64,0,0,1,.14,1.42c-0.15-.07-0.82-0.71-0.65-0.92a2.2,2.2,0,0,1,.49-0.5h0Zm-21.22,1.49a6.4,6.4,0,0,1,1.1.14,5.28,5.28,0,0,1-.46,1.32,11.87,11.87,0,0,0-.17,9.18c1.95,4.21,7.44,14.16,7,15.07L52.09,203l0.05-1.87c3.41-.14,3.95-2.25,3.1-4a2.94,2.94,0,0,0-3.75-1.27c-2.18.92-2.32,2-3.1,3.71L48,199.1a3.9,3.9,0,0,0,.82-2.7,1.15,1.15,0,0,1,.25-1.21,4.59,4.59,0,0,0,.66-4.77c-0.23-1.66,5.69-12.23,7-13.2h0ZM29,177.5c3.45,2.79,6.44,12.18,6.26,12.33a4.11,4.11,0,0,0,0,6,5.52,5.52,0,0,0,.37,2.67c-1.25,2.63-1.47,2.83-1.57,5a13.74,13.74,0,0,0-1.37,0c-5.72,0-6,7.36-.27,7.76,0.78,0.06,1.05-.12,1.52.35s0.91,1.21,1.73.9a1.57,1.57,0,0,1,.84.5A2.4,2.4,0,0,0,39,214a5.12,5.12,0,0,1,1.25.32,2.15,2.15,0,0,0,2,.4,1.22,1.22,0,0,1,.91,0,2.08,2.08,0,0,0,2-.1c0.77-.4.94,0.24,0.9,0.84a2.65,2.65,0,0,0,1.77,3.15c2.75,0.86,4.13-.85,4.72-4.25,0.15-.75.27-1.63,0.27-1.63L62,213l-13.2,15.48h-23v-51c1-.06,2.13,0,3.12,0h0Zm82.69,2.77c1.68,0.66,1.81,1.86.14,1.34a5,5,0,0,0-6.24,3.24,3.32,3.32,0,0,1-.3.86c-0.38.47-.36,0-0.25-1.29a4.66,4.66,0,0,1,4.38-4.55,7.19,7.19,0,0,1,2.27.4h0Zm-0.83,1.83a3,3,0,0,1,2,.7c0.63,0.7.44,1.17,0,1.14-2.27-1-5.16.2-6.29,3.11-0.69,1.79-.82.83-0.51-0.55a5.25,5.25,0,0,1,4.85-4.4h0Zm-15.8.69a3.69,3.69,0,0,0-2.41.66c-0.91.87-.15,0.89,1.5,0.31a6.12,6.12,0,0,1,3.33.19c0.83,0.29,1.12.41,1.07,0.15,0-.79-1.84-1.32-3.49-1.31h0Zm18.53,2.92c0.42,1,.15,2.68-1.31,2.86-1.72.2-2.61-2.73,0.53-2.21-0.41-1.17-1.82-.85-2.51-0.55-1.42.63-2.39,2-3.26,4.65-0.26.77-.45,1.17-0.55,1.1a4.78,4.78,0,0,1,.14-2.77c0.68-2.6,2.35-4.17,4.12-4.22a2.75,2.75,0,0,1,2.84,1.16h0ZM88.9,184.59c-0.15,0,.12.58,0.53,1.43a4.47,4.47,0,0,1,.39,1.2c0,0.46.35,0.57,0.86,0.28a1.19,1.19,0,0,1,1.52-.22,2.27,2.27,0,0,0,2.29.26,1.53,1.53,0,0,1,1.4,0,1.89,1.89,0,0,0,1.69,0,2.3,2.3,0,0,1,2.1.13c0.21,0.23.09-.09,0.55-1.19a3.4,3.4,0,0,0,.44-1.3c-0.12-.24-0.9,0-1.75.25a3.15,3.15,0,0,1-1.79-.17,5.4,5.4,0,0,0-4.21.18c-0.65.31-2.29-.12-3.94-0.8l-0.1,0h0Zm3.67,5.07a2.18,2.18,0,0,0-2,1.26c-0.41,1,.28,2.88,1.34,3s0.9-.44.43-0.6a1.62,1.62,0,0,1-1-2.17c0.37-.62,1.5-0.62,2.28.15,1.58,1.54,3.39,1.64,3.73.3a0.82,0.82,0,0,0-.91-1.05,3.14,3.14,0,0,1-2.5-.44,2.54,2.54,0,0,0-1.4-.49h0Zm16.67,4.88c4-.25,2.3,5.34,0,3.91-0.83-.51-0.46-2.39,1.75-2.36-2.17-1.71-3.64.37-3.11,2.71a19,19,0,0,0-.94,3c-0.49.94-.88-1.52-0.38-3.9s1.29-3.31,2.72-3.4h0Zm-22.79.19c-0.83,0,0,.92.15,1,2.51,2,3.74,3.24,1.72,2.58-3.28-.79-4.13.15-6.62,1.27a1.21,1.21,0,0,1-1.14-.08c-2.19-.66-2,0.74.26,2,3.46,1.9,6.32,2.33,9,.91,1.73-.92,1.82-0.32.21,0.7-2.75,1.63-5.65,1.38-10.1-1.43-1.44-.91-1.64-0.3-0.17.65,3.36,2.06,7.88,3.93,11.58.89,0.73-.66.87-1,1.43-0.71,1.48,0.75,1-.55,0-1.78a1.9,1.9,0,0,1-.6-1.08c0.08-1.07-.5-1.06-1-1s-0.56-.18-1.34-1.05c-1.13-1.26-2.52-2.62-3.35-2.84h0ZM52.92,200.4c-1.39.11-1.71,0.18-1.37,3.08,0.06,0.55.3,2.18,0.37,2.79,0.83,7.6.16,11-1.93,11.89a2.57,2.57,0,0,1-2,0c-1.32-.54-1.86-2.16-0.9-4.1a11.84,11.84,0,0,0,.69-1.79c0.12-.47.41-1.49,0.62-2.27a21.6,21.6,0,0,0,.5-7.57,5.13,5.13,0,0,1,.3-3.31c1-1.87,1.67-2.83,3.8-2.86,2.39,0.25,3.05,3.92,0,4.15h0Zm51.28-.17-0.65,0c-0.79-2.66-2.43-1.8-2.7.07h-0.55c0.1-3.55,4.47-2.58,3.91-.09h0Zm-61.3-2c4.45,0.45,5.27,1.57,5.62,7,0,2.64-.14,4.24-0.54,4.84-0.67.33-1.31-.28-2.26,0.33-0.52.32-.42,0.36-0.65,0a5.93,5.93,0,0,1,.38-2.84c0.33-1.06-.23-1.68-1.71-3A5.32,5.32,0,0,1,42.64,203c-0.77-2.09-1.16-1.17-.52.63,0.32,0.78.39,1.16-.57,0.83a1.79,1.79,0,0,0-1.49.27c-1.22.32-2.28-.36-1.22-0.77a10.2,10.2,0,0,1,2.16-.61c0.26,0,.39-0.06.39-0.18,0-.52-2.36-0.47-4.15.16-2.21,1-2.34.85-2.13-.76,0.52-4.07,4.25-4.57,7.8-4.29h0Zm43.56,0.36a2.14,2.14,0,0,1,2,2.4l-0.54,0c-0.25-2.12-2.23-2.21-2.75.16l-0.78,0c0.5-1.83,1.32-2.51,2.1-2.55h0Zm13.24,0c0.45,0.27.14,1-.34,1.15-0.18,0-.75-0.36-0.62-0.61a2,2,0,0,1,1-.54h0Zm5.11,0.36a0.73,0.73,0,0,1,.77.59,0.4,0.4,0,0,1-.61.44c-0.31-.29-0.43-1-0.17-1h0Zm-15.62.5c0.83,0.1,1.14,1.16.19,1.23C89,200.83,88.95,199.77,89.2,199.51Zm-5.08.12a1.37,1.37,0,0,1-.26,1,0.6,0.6,0,0,1-.92-0.29,1,1,0,0,1,1.18-.72h0Zm14.57,2.12a8.19,8.19,0,0,0,5.6.52c0.71-.27,1.28-0.6,1.28-0.29s-0.56.81-1.58,1.1a5.22,5.22,0,0,1-5.05-.73c-0.41-.31-0.55-0.59-0.25-0.59h0Zm-0.66.91c2.58,1.53,4.91,1.68,7,.57,0.85-.3.88,0,0.87,0.53-3.78,3.37-8.5-.13-7.88-1.09h0ZM34.7,205c-0.64,1.31-1,4.54-2,5.49C25.54,210.07,30.13,200.52,34.7,205Zm44.18-1.07c-0.4.21,0,1.24,0.59,1.52,5.45,2.38,8.25,2.66,11.35,1.57a3.12,3.12,0,0,0,2-2c0.08-.62-0.75-0.68-2.21,0-4.42,1.76-7.19.39-10.76-1a1.45,1.45,0,0,0-1-.05h0ZM58,204l0,8.07L52.79,212l0.06-1.19,3.89,0.12-0.06-5.76-4.51,0V204L58,204h0Zm1.21,0h5.18l0.26,0.82H59.2V204h0Zm-20.9,2.56a1,1,0,0,1-1.18.13,1,1,0,0,1,.88-1.59c0.88,0,1,.87.3,1.46h0Zm2.39-1.31c0.78,0,1,.75.45,1.34-0.4.37-.61,0.4-1,0.12A0.88,0.88,0,0,1,40.69,205.26Zm-5.11.2a0.51,0.51,0,0,1,.52.22c0.48,1-1.09,1.67-1.41.94A0.92,0.92,0,0,1,35.58,205.46Zm29.3,0.11,0.3,1-6,0v-1Zm-21.37.3c0.89,0.11.75,1,.34,1.42-0.71.67-1.4,0.45-1.22-.45a1.08,1.08,0,0,1,.88-1h0Zm-4.8,3c-0.31,1.14.36,3.43,0.16,3.68a1.13,1.13,0,0,1-1.45.08c-1.08-.7-1.15-4.83-0.1-5.07a1.5,1.5,0,0,0,1.43-.36c0.31-.09.1,0.47,0,1.68h0Zm15.78-1.69a1.08,1.08,0,1,1-1.07,1.08A1.07,1.07,0,0,1,54.48,207.15Zm4.72,0.14h6.11a1.25,1.25,0,0,1,.23,1.22H59.2v-1.23h0Zm-17.94.14c0.28,0,.42.6,0.23,1.29a8.18,8.18,0,0,0-.09,3.69,2,2,0,0,1,.22,1c-0.32.51-1.28,0.16-1.69-.51-1-1.89-.84-5.41.35-5.14A0.84,0.84,0,0,0,41.27,207.43Zm-5.38.48c-0.3.48-.08,3.16-0.11,3.38s-0.79.14-1.21-.06c-1-.49-0.76-1.75-0.55-2.76a1.24,1.24,0,0,1,1.34-.93c0.34,0,.79,0,0.54.36h0Zm8.31,0.15c0.33,0,.38.23,0.3,1.23a8.55,8.55,0,0,0,0,2.17c0.27,1.56.3,2-.09,2.29a1.19,1.19,0,0,1-1.55-.17c-1-.79-1-4.66-0.27-5a2.42,2.42,0,0,0,1.58-.52h0Zm21.09,1.17-0.88,1.22H59.2v-1.22h6.08Zm-18.57,1.64c0.81,0,.68,1.47.24,2.38-0.37.55-.64,0.61-1.2,0.09S45.88,210.86,46.72,210.86Zm17,0.41L63,212H59.21v-0.68h4.55Z" transform="translate(0.1 0.1)"/><path id="path3872-3-7-5" class="cls-2" d="M38.21,182.16l-6.33-5c7.53-.17,15.05,0,22.58.14l-7.52,5.44c-1.54-1.71-2.45-4-4.63-5.11C40.68,178.27,39.57,180.62,38.21,182.16Zm55.21-1.83a1.63,1.63,0,0,1-.41-1.17c-1.88-8.89-11.11-8.26-11.05-8-0.07-.35,11.48-10.93,18.27-19.24,2.05,6.35,8.27,20.84,8,20.79,0,0-1.8,0-6.46-.1-4.25,1.95-7.2,3.84-7.06,6.58,0,1-.25,1.37-0.57,1.28A7,7,0,0,1,93.42,180.33Zm21-28.55c6-.1,7.14-3.07,7.82-3.43,3.95-.66,6.38,1.95,8.11,4.74,2.21,1.35,1.93.1,2.39-2l5.5-1.64v1.78a28.1,28.1,0,0,0-4.22,3.31l-1.67-.1-1,1.3c-3.82,2.1-7.56,4.6-11.59,6.22,0,0-4.83-6.33-5.38-10.17h0Zm-74.85.56-0.06-35.16C42,117,46.61,117,46.61,117c1.91-3.43,4.52-5,7.21-7a118.33,118.33,0,0,1,.44,12.81c-7.12,8.82-11.07,19.68-6.68,35.9l-2.63-.3Zm39.34,2a123.34,123.34,0,0,0,4.25-22.46l13.55-.2L97,136.35Zm46.15-16-0.25-13.16c9.89-12,10.48-22.46,6.81-35.68,3.27,0.76,4.95,3.35,8.06,6.91v34.31c-2.16.33-7.53,0.65-7.53,0.65-0.16,1.61-4.69,5.45-7.09,7h0ZM83.22,117.56l-0.6-5.8,17.61-17.07c-1.45,7.4-3.21,15-3.72,22.87H83.22ZM54,99.44c-1.26.84-5.89-4.05-6.65-7.34,1.16-1.59,11.36-6.66,11.36-6.66s6,7.76,5.72,11c-2.65.71-4.94,0.92-7,3.11C56.32,99.65,55.92,98.34,54,99.44Zm-8-6.56c1.42,0.23.51,2.17,0.29,3.6l-7.49,2.25c2.58-2.23,4.4-4.13,7.2-5.85h0ZM70.36,75.7c1.54,0,3.15.6,4.33,0.11a4.25,4.25,0,0,1,2.3-.26c2.24,0.7,3-1.8,4.45-1.81,1.85,0,2.87-1.31,2.88-3.94,0-1.14.1-1.26,0.31-1.38a1,1,0,0,1,1.39.76C87.36,74,90.7,78.38,96,78c-4.2,4.35-17,17.71-17,17.71a130.21,130.21,0,0,0-8.64-20h0Zm54.38-4.17,7.7-5.67L137,71.56l4-5.42c2.34,1.7,7.67,5.5,7.67,5.5s-16,.24-24-0.1h0Z" transform="translate(0.1 0.1)"/><path id="path3870-4-7-1" d="M129.1,20.12l-70.78.46L72.08,39.23c14.61-3,27.33-1.06,40.53,1.28Zm-1.81.95L122.58,27c-1.3-1.2-4.21-.76-3.8,1.85-3.61-1.91-4.38,3.33-1.31,3.11-0.38,1-3.48,1.3-4.35-.57-3.18,1.81-4.15.05-5-1.09,4,2.78,6-2.94,1.56-3.26,1.75-3.59-4.48-5.21-4.12-.55-4.11-.95-3.17,4.92-0.15,3.72-2,3-5.17,1-5.83.4-1.65,1.26-4.78,1.3-5.65-.71,4.57,0.93,4.07-5.18,0-3.77,2.16-4.69-5-4.06-3.29-.22-4.1-.16-3.19,5,0.41,4.1-3.2,3.06-5.59.21-6.1,0.15-1.89,2.12-5.22,1-5.67-.29,3.26,1.31,4.33-4.25.22-3.92,1.05-3.58-4.86-4-3.56.05-3.26-.75-3.44,4.55.21,3.72,0.23,1.45-2.65,2.84-4.41,1.44-1.3.72-2.71,1.84-4.4,0.18,2.57-.42,3-4.83-1.16-3.88,0.2-2.71-1.33-2.85-3.22-2.17l-3-4.17ZM78.47,27.71a2.45,2.45,0,0,0-.52,1.23,4.76,4.76,0,0,0,.84,1.35C82.33,35,89.51,34.81,91.67,30a1.38,1.38,0,0,0-.18-1.86,1.12,1.12,0,1,1,1.68.07c-1.22,1.56,2.13,5.09,5.49,5.65,4.3,0.71,8.37-2.36,7.8-5.1,0-.16-0.11-0.3-0.14-0.47-0.46-2.3,3.14-1.2,1.84.27a1.44,1.44,0,0,0-.68,1.27c1,4.87,6.88,5.38,9.65,3.88-3.58,5.93-9.26,1.36-10.26-2.79-5,7.38-11.08,5.84-14.45-.64,0.4,0.4-6.64,11.62-14.62.12-3.38,9.26-9.55,3-9.12,2.62,2.83,1.6,8,1,8.47-3.93,0.07-.61-0.39-0.65-0.65-1.13-1.34-2.45,3-2.46,2-.23h0Zm-13.31.61c0.64,0.06.75,0.33,0.64,1Zm54.92,1.74-0.93,1.18C118.93,30.66,118.92,30.13,120.08,30.06Zm10.09,0.39c-2.2.09-3.9,3.18-3.79,7.3,0.05,2,.4,7,0.53,7.75,0.19,1,0,2.45-.38,2.6A2.67,2.67,0,0,0,125,49.22a2.21,2.21,0,0,0,1.29,3.16c1,0.43,2.28-.17,3.15-1.47a7,7,0,0,0,1-2.88,10,10,0,0,0,0-3.51c-0.51-2.91-.13-6.53.86-8.23,1.77-3.05,1.73-5.05-.09-5.68a2.61,2.61,0,0,0-1-.15h0Zm-0.11.46a1.81,1.81,0,0,1,1.07,3.4,1.88,1.88,0,0,1-1.9-.14c-0.76-.44-0.65.06,0.13,0.64s1.31,0.64.82,2.22a19.36,19.36,0,0,0-.45,6.49c0.69,5,.11,7.45-2,8.31a1.83,1.83,0,0,1-2.39-1c-0.44-1.3.34-2.41,2.28-2.1,0,0,.14-0.41-0.37-4.73-0.7-6-.43-10.19.66-11.66A3,3,0,0,1,130.05,30.91Zm17.38,6.19a3.88,3.88,0,0,0-1.9.55s-0.07,2.7-.15,3.11c-0.44,2.28-.31,2.56.74,2.88,2.54,0.79,4.63-.93,4.54-3.61A3.17,3.17,0,0,0,147.44,37.1Zm0.34,0.36c1.39,0,2.65,1.61,2.52,3.16a2.77,2.77,0,0,1-3.4,2.55,1.31,1.31,0,0,1-1.1-.52C145.49,42.17,146,42,147,42s1.37-.16,1.76-0.81c0.76-1.3-.21-3-1.45-2.65-0.42.11-.49,0.3,0,0.44,1.52,0.7,1,1.67.43,2.06a1.48,1.48,0,0,1-1.84-.56L146.05,38a2.62,2.62,0,0,1,1.73-.49h0ZM132.1,49.13a4.43,4.43,0,0,0-.86.54A2.11,2.11,0,0,0,130.8,52c0.13,0.38.11,0.44-.36,1.06-1.33,1.76-1.5,2.64-.82,4.23a1.64,1.64,0,0,1,0,1.67,37.52,37.52,0,0,1-6.38,11.93,3.42,3.42,0,0,0-.57,1,3.05,3.05,0,0,0,1-.21c2.73-1.38,5.62-4.05,8.3-5.8-4.24,3.49-8.76,6.62-8.76,6.62L129,72.8c-1.45,1.51-26.76,23.28-20,62.32,7.9-2,11.58-5.3,15.79-9.13,0,3.15.11,11.61,0.13,11.61s-3.66-1.43-2.77,1.69a16.75,16.75,0,0,1-.14,8.49c0,0.1.4,0.27,0.36,0.36a1.25,1.25,0,0,1-.6.11c-1.43,2.72-5.13,3.31-7,3.23-0.67-.06-0.4.87-0.31,1.21,0.34,1.4,1.93,4.39,4.89,9.2l0.78,0.1-0.45.42a20.27,20.27,0,0,0,1.29,1.87l0,0.41s1.63,2.3,2.5,3.38c0.06,0.07.2-.1,0.26,0,0.48,0.59,1.07,1.25,1.56,1.84,0,0-.08.21,0,0.26,0.93,1,2.75,3.1,2.75,3.1l0.36-.09,1.43,1.64c11.89-5.49,24.32-17.63,24.19-17.6l0.1-26.13L140,131,140,96.42,154,110.53l-0.09-4c-3.19-3.08-16-16.21-16-16.21a15.73,15.73,0,0,0,5.42-1.84,15.79,15.79,0,0,0,10.07,2.23l0-3.84a12.35,12.35,0,0,1-8.8-3.17L142,83.56c-4.85,3.74-8.28,2-12,1.27l-2.55-3.73L153.58,81l-0.19-9-4,.09-2.58-1.93,3,1.28a3.83,3.83,0,0,0-.65-1.45,61.26,61.26,0,0,1-4.88-10c-0.59-1.74-.59-1.67-0.09-2.69a3.69,3.69,0,0,0-.37-4.05c-0.64-.67-0.62-0.82-0.41-1.32a1.77,1.77,0,0,0-1.21-2.59c-4.38,1.71-10.24-.05-10.14-0.1h0Zm10.18,0.72c0.87,0,1,.38,1,1-0.07,1.21-1.63,1.65-2.33,1.82-3.36.78-9.21,0.32-9.59-1.27-0.28-1.17.44-1.82,2.82-1.24C138,51,140.35,50.14,142.28,49.85Zm-10.83,3.37a1.07,1.07,0,0,1,.89.95,3.76,3.76,0,0,1-.84,2.32c-1.07.84-2-.47-1.32-1.89,0.41-.82.83-1.37,1.27-1.37h0Zm11.45,0.17a1.22,1.22,0,0,1,.63.17c0.85,0.61.92,2.71,0.13,3s-1.55-.54-1.55-1.88c0-.82.3-1.31,0.78-1.3h0Zm-2.68.43a1.14,1.14,0,0,1,.54.12c0.7,0.33,1,2.53.35,3.24a1.22,1.22,0,0,1-2-.62c-0.41-1.35.23-2.69,1.16-2.74h0Zm-6,.06c1,0,1.27,2.34.26,3.29-0.84.8-2.13,0-1.73-1.58A2,2,0,0,1,134.27,53.89Zm2.93,0.37c1.51,0.26,1.38,4-.6,3.64C135.48,57.1,135.51,54.32,137.2,54.26Zm-6.6,4,2.13,0.2c-0.06,0-3.4,7.17-6.38,9.07a57.5,57.5,0,0,0,4.25-9.27h0Zm12.79,0a104.69,104.69,0,0,0,4.23,10.25c-2.58-2.53-4.87-6.42-7-10.07Zm-10,.33,1.41,0A10.84,10.84,0,0,0,137,63.43a21.62,21.62,0,0,0,1.86-4.64l1.12,0c0.43,0.26-1.32,6.84-3,7.65C135.14,64.92,133.61,60.88,133.36,58.64Zm-0.6,1.56c-0.12.16,2.19,5.8,4.15,7.61a15.36,15.36,0,0,0,3.81-7.06l6.07,8.64-5.91-4.11a30.26,30.26,0,0,1-3.94,5.47,71.38,71.38,0,0,1-4.5-5.91c-2.28,1.72-3.88,3.55-6.84,5.15C125.6,70.06,131.39,63.66,132.76,60.2Zm-0.57,6.14,4.13,5.12-11-.16Zm8.94,0.08,6.93,4.84-10.33.11ZM85.89,68.81a4,4,0,0,0,.13.49c1.23,5.09,4.62,9.33,9.73,8.83L79,95.16a99.37,99.37,0,0,0-8.39-19.33L72.4,76.2a4.37,4.37,0,0,0,1.88-.07c0.43-.06.76-0.35,1.14-0.43a3.86,3.86,0,0,1,1.89.25c1.15,0.22,1.94-.43,3.38-1.73a1.08,1.08,0,0,1,1-.26c1.81,0,3-1.57,2.76-4l-0.09-1.09-0.23,1.22c-0.43,2.3-.73,3.29-3,3.39-0.54,0-.75.39-1.61,1.14-1.2,1-2.05,1.14-2.91.73s-1-.17-1.77.22a5.26,5.26,0,0,1-3.54,0c-1.72-.5-1.51-0.33-1.51-0.33,10,18,13.48,35.31,13.26,50.66a99.29,99.29,0,0,1-14.47,50.18s1.13-.12,2.15-0.27a2,2,0,0,1,1.34.17,2.45,2.45,0,0,0,1.23.1,9.09,9.09,0,0,1,1.73.09c1.23,0.18,1.31,0,2.65-1.3,3.79-3.74,3.55-3.6,6.3-3.51,4.12,0.14,7.42,2.9,8.8,7.37,0.17,0.57.4,1.36,0.43,1.36L93,178.93c-1.21-6-6.26-8.2-10.49-8.12l17.82-18.14c-0.09,0,4.13,13.8,7.81,19.94a7.08,7.08,0,0,0-3.17-.22,10.93,10.93,0,0,1-3.06-.12c-0.9,0-1.45.25-2.57,1.19a6,6,0,0,1-1.8,1.24c-2.17.93-3,1.89-3,4.3,0,0.44-.07,1-0.06,1.22a0.54,0.54,0,0,0,0,.16,0.37,0.37,0,0,0,.13-0.15,4.27,4.27,0,0,0,.49-1.61c0.3-1.8.67-2.43,2.36-3.23a14,14,0,0,0,2-1.28c1.55-1.26,2.07-1.54,3.33-1.25a5.82,5.82,0,0,0,2.29.14,4.42,4.42,0,0,1,2.43.12c0.83,0.22,1.86.43,1.86,0.43-17.27-35.21-16.7-67.84.35-101,0,0-5,.06-5.26.19a4.78,4.78,0,0,1-1.36-.13c-1.37-.25-1.07-0.08-4.31,3.22-4,4.09-10.42.83-12.35-6A3.08,3.08,0,0,0,86.07,69a1.87,1.87,0,0,0-.18-0.22h0Zm16.33,4c0.74,0.08,1.29.28,1.2,1L79.64,97.46l-0.37-1.52Zm5,0.14c-0.29.59-1.09,1.32-1.44,1.88l1.29,1.64-0.72,1.32-2-1.7L100.6,79.9l3.16,3.6-3,3.06-1-1.14,1.58-1.68L98.9,81.41l-4.33,4.27,3.52,3.63-2.58,2.51-1-1,1.36-1.52-2.3-2.41-4,4.17,3.19,3.6-2.46,2.48L89.15,96l1.18-1.25-2.28-2.42-4.1,4.11,3.33,3.67-2.45,2.22L84,101.42l1.18-1.29L82.91,97.7,80.37,100l-0.42-1.61L105.13,73Zm1.45,0.38-1.06,2.16-0.82-.91,1.07-1.12Zm-59.41.14c-0.65.16-15.65,8.64-24.19,17.95l0,3.47-0.32.41,0.15,5.37L25.12,101l0.07,2.19-0.34.58v6l0.45,0.08,0.07,7.35,14,0,0,35.14s-8.24-9.19-14.17-14.61l0,4.11,15.69,16.45a12.12,12.12,0,0,0-4.6,1.6,17.26,17.26,0,0,0-11-2.24l0,4.19a15.4,15.4,0,0,1,11.05,2.84c3.24-2.23,7.14-3.58,13-1.81a39.46,39.46,0,0,0,3.84,5.56l-27.78.21,0,8.47c1.23,0,4.31,0,4.31,0,1.56,3.11,4.63,7.35,5.91,12.69-1.75,2.13-1.61,3.85.09,6,0,1-.3,2,0.77,3.12,3.53-1.75,7.52-1,10.49-.08,1,0.3,1.39-.86,1.35-2.32a1.6,1.6,0,0,1,.55-1.76c1.51-1.33.57-4.06,0.34-4.12-0.09-2.4,7.48-14.4,7.48-14.18l-1.51.55-6.47,0c17-16.65,24.12-35.64,22.63-57.08a34.3,34.3,0,0,0-1.16-7.88c-6,2.7-10.91,4.67-15.7,9.87L54.26,110.8a2.38,2.38,0,0,0,2.84.34c0.54-.36.6-0.75,0.1-2.1-0.73-2-.9-6.19-0.36-7.63a6.14,6.14,0,0,0,.16-1.05c0.06-.59-0.06-0.62-0.12-0.61,0.14,0,.72.09,0.79,0a10.86,10.86,0,0,1,6.92-3.08l0.07-1.33c-2-5.11-3.68-7.12-5.49-10a2.05,2.05,0,0,0-.84-0.1l0.42-.45c-2.53-4.08-6.14-7.8-9.46-11.32,0,0,0,0,0,0h0Zm-0.11.69L51,75.87A95.48,95.48,0,0,0,25.59,94.51l0.11-3.06A108,108,0,0,1,49.17,74.19h0Zm55.1,3.06,1.08,1.09-1.5,1.76,1,1-0.54,1.34-2.49-2.62Zm-53.57.14a1,1,0,1,1-1,1A1,1,0,0,1,50.71,77.38Zm73.42,1.43c17.49,19.76,8.51,48.48-14.84,55.38L109,132.57c23.56-8.05,29.08-35,13.8-51.94Zm-70.39.13,1.11,1.31c-10,4.83-19.7,12.08-29.1,22.53l-0.09-2.64a100,100,0,0,1,28.08-21.2h0Zm-6.43.4a1,1,0,1,1-1,1A1,1,0,0,1,47.31,79.35Zm-3.12,2a1,1,0,1,1-1,1A1,1,0,0,1,44.19,81.3ZM54.56,82a1,1,0,1,1-1,1A1,1,0,0,1,54.56,82ZM99,82.7l1,1.1L98.4,85.45l2.31,2.45,2.22-2.17L101.81,89,82.23,108.83l-0.41-2.08,1.54-1.57L81,102.78l-0.42-1.6L82.91,99l1,1-1.36,1.59,2.19,2.19,4-3.71L85.4,96.4l2.71-2.66L89,94.67,87.75,96,90,98.53l4.08-4L90.76,91l2.69-2.69,1,1-1.36,1.65,2.32,2.27,4-4-3.28-3.5Zm-57.86.7a1,1,0,1,1-1,1A1,1,0,0,1,41.14,83.4Zm16.13,0.2L58,84.92C46.18,91,38,97.1,25.82,111.11v-1.76A95,95,0,0,1,57.27,83.6h0Zm-6,.15a1,1,0,1,1-1,1A1,1,0,0,1,51.31,83.76Zm91.85,0.4c2.09,1.89,6.49,3.78,9.33,3.58L152.56,90c-4.94.48-9.26-2.74-9.26-2.74a14.46,14.46,0,0,1-11.72,1.63L130,85.52c6,2.82,11.61.13,13.14-1.37h0Zm-23.66.62a3.52,3.52,0,0,0,1,.89c4.61-1.22,6,3.61,3.9,6.36L125,94a5.38,5.38,0,0,1,2.13.86,3.91,3.91,0,0,1,1.6,3.59c0.16,1.56-2.14,3-2.26,2.89l0,2.22a8.87,8.87,0,0,1,1.92,1.84,3.51,3.51,0,0,1-1,5,3.57,3.57,0,0,1-2.15.71l-1.07,2.53a3,3,0,0,1,1.35,2.1,4,4,0,0,1-1.89,3.94,5.1,5.1,0,0,1-3.66.1l-1.51,1.53a5.25,5.25,0,0,1,.29,2.9,3.76,3.76,0,0,1-4.1,2.54,4,4,0,0,1-2.2-1l-1.68.65s0,2.15-.82,2.81a11.16,11.16,0,0,1-1.21.9l-0.22-1.48a2.91,2.91,0,0,0,.94-2.52l3.62-1.8a3.56,3.56,0,0,0,1.67,1.25,2.38,2.38,0,0,0,2.84-2.11,8.1,8.1,0,0,0-.55-1.88l3.07-3.23c1.27,0.44,2.16.52,2.73,0.19a2.55,2.55,0,0,0,1.16-2.71,3.69,3.69,0,0,0-1.11-1.61l1.71-4.4a3.09,3.09,0,0,0,1.92-.54A2.4,2.4,0,0,0,127,106a2.47,2.47,0,0,0-1.69-1.1l0.13-4.57s1.73-.85,1.92-1.86c0.27-1.5-.35-2.45-2.16-2.88-1-.24-1,0-1,0l-1.44-4.13c2.27-1.41,1.55-3.65.4-4.4a3.54,3.54,0,0,0-2.93-.06s-0.78-.79-1.37-1.42Zm-60.87.84a48.56,48.56,0,0,1,5.44,9.78,5.47,5.47,0,0,1,0,1c-4,.36-5.42,2-6.86,3.09-1.11-.58-1.58-1.26-3.59,0,0,0.06-5.13-3.14-6.11-7.49a114.77,114.77,0,0,1,11.09-6.37h0Zm-20.49,0a1,1,0,1,1-1,1A1,1,0,0,1,38.14,85.64Zm9.7,0.21a1,1,0,1,1-1,1A1,1,0,0,1,47.84,85.84Zm70,1.27c1.76,2.36,4.42,6.81,5.05,10.76,0.89,5.55.3,11.37-2.21,15.44-4.55,8.7-12.44,10.55-12.44,10.85l-0.08-1.78c0.07,0.4,6-2.15,10.08-7.89a23,23,0,0,0,3.44-13.81c-0.3-6.26-4.68-12-4.71-12.06ZM35,88a1,1,0,1,1-1,1A1,1,0,0,1,35,88Zm9.69,0a1,1,0,1,1-1,1A1,1,0,0,1,44.64,88ZM132,89.73c2.27,0.25,5,4.43,7.57,6.81l0,34.06-7.55.16c-1,2.4-3.26,4.76-6.89,7.1V125.1c12.38-13.47,9-28.21,6.84-35.37h0Zm-99.82.39a1,1,0,1,1-1,1A1,1,0,0,1,32.17,90.12Zm9.33,0.19a1,1,0,1,1-1,1A1,1,0,0,1,41.5,90.31Zm95.81,0.08,15.43,15.79-0.05,2.32L135.3,90.56ZM47.16,91.87l0.41,2c-0.5-.8-0.52-1.09-1.38-1.23Zm-8.35.58a1,1,0,1,1-1,1A1,1,0,0,1,38.8,92.45Zm-9.24.29a1,1,0,1,1-1,1A1,1,0,0,1,29.56,92.74Zm86.81,0,3,2.19-1,3.95L115.31,96ZM46,93.06l0.54,0.33-0.63,2.7-7,2.57a52.81,52.81,0,0,1,7.1-5.6h0Zm1.15,1.26A36.35,36.35,0,0,0,50,101.79c-0.9.47-4.14,2.33-4.13,3.2,0.46,1.57,3.87,3,3.87,3a39.61,39.61,0,0,0-3.53,7.54c-0.58-1-.65-5,0.61-6.65a16,16,0,0,1-4.23-2.81c0.83-3,4.38-4.77,4.54-4.8-0.06.15-1-6.24,0-7h0Zm-11.38.5a1,1,0,1,1-1,1A1,1,0,0,1,35.74,94.82Zm78.11,0.09c4.55,8.61,1.84,16.09-5.42,21.44l0.17-2c5-3.69,8.25-11,4.6-17.88Zm-86.75.25a1,1,0,1,1-1,1A1,1,0,0,1,27.1,95.15Zm72.82,0.05a105.23,105.23,0,0,0-3.65,21.86l-13,.11-0.5-4.56Zm-51.81.35s2.81,2.65,5.34,5l-0.3.6-2.45.33A48.71,48.71,0,0,1,48.11,95.56Zm-2.33,1.39h0L46,98.83c-0.84,0-10,3.83-17,10a22,22,0,0,1,4.51-5.18c3.62-3.61,12.28-6.71,12.28-6.71h0Zm-13,.43a1,1,0,1,1-1,1A1,1,0,0,1,32.82,97.37Zm5.74,1.18,0.52,0.54-2.42,1.27Zm16.87,0.55h0.1a1.26,1.26,0,0,1,.74.41,5.34,5.34,0,0,0-1.38-.13,0.76,0.76,0,0,1,.53-0.28h0Zm-9.26.39,0.22,1.41c-5.25,3-11.49,5.89-20.57,14.61v-2.9A65.34,65.34,0,0,1,46.17,99.5h0Zm7.06,0.13a1.83,1.83,0,0,0,.92,0,0.73,0.73,0,0,1-.42.39,0.87,0.87,0,0,1-.5-0.4h0Zm2.23,0.08a1,1,0,0,1,1,1.36,16.77,16.77,0,0,0,.06,7.27c0.42,1.47.53,2,.18,2.24-3.09,2.17-4.79-7.6-2.21-10.37a1.63,1.63,0,0,1,1-.51h0Zm-25.26.34a1,1,0,1,1-1,1A1,1,0,0,1,30.19,100.06Zm88.9,0.24,1.92,3.27-2.68,3-1.63-3.54Zm-66.21,1.78-0.1,1.13a9.86,9.86,0,0,0-3.62,1.92c-0.2.17,3.2,1.73,3.56,1.37v1.21c0,0.4-5.62-1.4-6-2.74,0.63-.89,4.16-3,6.17-2.89h0Zm-25.38.6a1,1,0,1,1-1,1A1,1,0,0,1,27.5,102.68Zm15.21,1.19a8.25,8.25,0,0,0-1.09,2.89c-3.83,2.36-7.75,4.55-12.52,10l-2.57,0L26.46,116a70.54,70.54,0,0,1,16.25-12.14h0Zm9.86,0.33,0,1.42a3.83,3.83,0,0,1-2-.62,3.71,3.71,0,0,1,2-.8h0Zm28.79,0.15,0.72,0.76-0.45.43Zm-38.76,3L44,108.2a39.34,39.34,0,0,0-10.81,8.51H30.4c3.54-3.9,7.36-7.4,12.2-9.41h0Zm75.56,1,0.28,3.87-3.56,2,0.07-4.08Zm-67.66,0,2.45,0.27,0.25,1.05a38.58,38.58,0,0,0-5.55,4.5,22.08,22.08,0,0,1,2.85-5.82h0Zm-5.87.41,1,0.49-0.42,1.82a27.49,27.49,0,0,0-7.94,5.64H34.43a41.08,41.08,0,0,1,10.19-8h0Zm9.1,1.71h0l0.38,11.92c-10.57,12.56-10,24.71-6.91,35.72l-2-.09a71.8,71.8,0,0,0-5.46-6V117.38l7.29,0c1.72-4,6.44-6.91,6.71-6.94h0Zm-8.6,1.67,0.09,1.59a21.15,21.15,0,0,0-3.89,3H38.58C40.48,114.92,42.36,113.12,45.12,112.14ZM70,112.92l0.4,1.88c-24.53,9-29,35.19-14.49,53.17l-1,1.12C38.27,151,45.57,121.36,70,112.92ZM45.32,114.8s0.13,1.44.18,1.91H42.74A4.81,4.81,0,0,1,45.32,114.8Zm69,0.6-1.58,3.74-4.22.07,1.92-3.74ZM87.65,118h3.84v3.73H87.65V118ZM71,118.33L71.08,120c-1.71.88-1.28,2.29-1.71,2.26A29.24,29.24,0,0,0,65.55,124a2.41,2.41,0,0,0-2.92-.24,2.9,2.9,0,0,0-.8,3l-2.94,3.48c-1.42-.61-2.8-0.58-3.49.38s-0.48,2.43.8,3.93l-1.6,4.17c-0.18-.25-2.86.55-2.9,2.16s2.21,2.82,2.21,3l-0.11,4.6c-0.1-.22-2.3.69-2,2.89,0.27,2,3,1.78,3.05,1.95l1.48,4.4c-0.1-.13-2,1.76-0.84,3.55,1,1.49,3.8.53,3.77,0.43l0.78,1.12-0.87,1a1.11,1.11,0,0,0-.58-0.41,4.2,4.2,0,0,1-4.36-1.4c-1.2-1.88.14-4.81,0.57-4.79l-1-2.53a3.74,3.74,0,0,1-3.5-3.12,4.38,4.38,0,0,1,2.21-4.15l0.07-2.74a4,4,0,0,1-2.3-3.25,4.48,4.48,0,0,1,2.5-3.53l1-.48,0.92-2.25a6,6,0,0,1-1-3.84c0.63-2.92,4.37-2.72,5-2.43l1.74-2.21A3.59,3.59,0,0,1,63,121.85a13.84,13.84,0,0,1,3.26.44l2.23-1.17c0-1.23,1.29-2,2.52-2.79h0Zm12.65,4.08H87v3.73H83.67v-3.73Zm8.78,0h3.71v3.73H92.44v-3.73Zm-21.16.93,0,1.43C50,135.24,58.67,156.91,61.7,159.43L61,161c-3.73-2.3-13.35-27.31,10.26-37.62h0Zm16.37,3.77h4l0,3.83h-4ZM70.35,129l-1.27,3.49-3.91.33,1.44-3.48Zm79.8,2.55,2.67,0c-5,5.93-10.39,10-15.71,12.19a2.76,2.76,0,0,1,.15-0.95,2.9,2.9,0,0,0-.08-1.17,38,38,0,0,0,13-10.09h0Zm-13.69.05a8.65,8.65,0,0,1-2.45,2.13l-0.39-2.16C134.45,131.54,136.46,131.58,136.46,131.58Zm4.7,0c0.27,0.69-7,4.68-7,4.34l0-1.33,3.93-3Zm1.57,0h2.07c-1.85,3-11.64,8.35-11.24,7.59L134,137a44.3,44.3,0,0,0,8.78-5.43h0Zm3.45,0h2.7c-4.06,5.23-8.17,7.14-12.12,9.39a1.84,1.84,0,0,0-.87-0.1l-1.35-1.07C134.8,140,143.62,134.75,146.19,131.54Zm-75.47.19-0.09,1.58c-5.68,5-8,11.29-5,18.64l-0.7,1.57c-3.18-7.84-2.24-15.46,5.79-21.79h0ZM96.57,132l0.3,4.27L79.24,153.65A128.88,128.88,0,0,0,83.39,132ZM153,133v2.37c-6.95,7.77-14,11.25-20,12.66l-0.14-.91,2.8-1.75c9-4,13-8,17.33-12.37h0Zm-21.09.06c0.12,1.71-1.38,4.94-3.09,6.76h-2.94l-0.32-1.29a18.93,18.93,0,0,0,6.36-5.46h0Zm0.89,0.51c1.08,1.76-.54,6.33-0.61,6.15-0.13.31,9.23,2.32-.39,7,0.21,1.38,1.11,4.33.42,6.15-0.22-.7-1.89-5.43-3.18-6.64,3-.87,5.17-2.73,4.93-3.35-0.49-.87-1.83-1.95-4.1-2.74a16.84,16.84,0,0,0,2.92-6.6h0ZM64,134.41l0.3,3.6-3.42,2.09-0.26-3.95Zm59.51,3.34a0.91,0.91,0,0,1,.64.21c1.69,0.69,1.81,9.06.28,9.91a1.21,1.21,0,0,1-1.86-.64,25.22,25.22,0,0,0,0-8.92,0.86,0.86,0,0,1,1-.57h0ZM153,137.88v3c-9.93,10.45-20.64,18.69-31.56,23.32l-1-1.72A99.28,99.28,0,0,0,153,137.88Zm-1.74.27c-4.6,6.5-10.21,10.74-17.88,12.67L133.23,149C142.8,146.77,151.51,138.15,151.26,138.15ZM26.05,139.2c6,6.22,12.13,12.38,18.23,18.76l-2.42.13L26,141.37Zm71.33,0.31L97.6,141,95.85,143l2.76,3,0.14,0.71-2.37,2.51-1.07-1.07,1.31-1.49-2.22-2.37-4.12,4L93.68,152l-2.56,2.47-1-1.06,1.31-1.53-2.28-2.44-4.2,4.24,3.18,3.56L86,159.66l-1-1.07,1.09-1.27-2.3-2.41-4,3.94,3.32,3.73-2.7,2.73-1-1,1.52-1.67-2.49-2.41-2,1.91s0.75-1.9.86-2.22c0.16-.47.82-0.85,5-5,5-5.06,10.15-9.81,15.15-15.34h0Zm28.74,1a14.12,14.12,0,0,1,5.17,1c2.24,1.2,1.54,2.15.08,2.85a11.66,11.66,0,0,1-5.14,1.31l0.06-1a13.25,13.25,0,0,0,3.34-1.13,2.34,2.34,0,0,0,.87-0.71,5.14,5.14,0,0,0-1.76-1.1,13.73,13.73,0,0,0-2.53-.39Zm-65.54,1.29,1.84,2.81-2.18,3.72-2.1-3.2Zm37.19,0.3c0.06,0.53.72,2.58,0.38,2.19l-1.23-1.4Zm28.46,0.28a8.62,8.62,0,0,1,2.84.48,5.83,5.83,0,0,1-2.82,1Zm25.58,1.4a1.13,1.13,0,1,1-1.11,1.13A1.12,1.12,0,0,1,151.82,143.81Zm-57.53,2,1,0.93L94,148.16l2.23,2.38L99,147.92l0.37,1.67L73.51,175.41l-1.44-.1,1.65-2-1.87-1.94,0.77-1.4,2.21,2,4-3.93-3.28-3.5,2.8-2.92,1.06,0.93-1.61,1.77,2.34,2.43,4.23-4.22-3.31-3.65,2.64-2.56,1,0.93-1.23,1.32,2.41,2.55,3.57-3.77-3.24-3.63,2.88-2.85,0.89,0.9-1.33,1.5,2.42,2.55L95,151.78l-3.2-3.53Zm54.94,0.67a1.13,1.13,0,1,1-1.11,1.13A1.12,1.12,0,0,1,149.23,146.44Zm-21,.05a12.33,12.33,0,0,1,3,6.93,21,21,0,0,0-5.53-5.74l0.4-1.05Zm24.8,0.17v2.53a85,85,0,0,1-27.11,20.53l-1.66-2C135.79,162.44,144.15,155.94,153,146.67Zm-11.52,1.76-3.18,2.5v-1.09l3.18-1.42h0Zm-16.37.19a12.92,12.92,0,0,1,6.32,7,119.52,119.52,0,0,1-11.61,6.15,54.26,54.26,0,0,1-5.18-9.77c6,0,7.59-3.35,7.63-3.37,1.44,0.55,1.74.62,2.84,0h0Zm21.4,0.49a1.14,1.14,0,0,1,1.13,1.09,1.11,1.11,0,1,1-2.23,0,1.11,1.11,0,0,1,1.1-1.09h0Zm-8.24.74v1.09c-1.52,1.35-4.47,3.54-4.47,3.54l-1.22-.07,0.4-3.1a47.6,47.6,0,0,0,5.29-1.47h0ZM60.48,150l2.92,2.43-0.89,3.77L59.63,154Zm39.17,0.71,0.27,1.09-24,24-1.36-.22Zm44.21,0.93a1.13,1.13,0,1,1-1.11,1.13A1.12,1.12,0,0,1,143.85,151.62Zm8.85,0c0.13,0,.29,0,0.29.12v2.08a1.1,1.1,0,0,1-.37.07,1.05,1.05,0,0,1-1-1.13A1.12,1.12,0,0,1,152.7,151.61Zm-2.7,2.52a1.13,1.13,0,1,1-1.11,1.13A1.12,1.12,0,0,1,150,154.14Zm-9.37,0a1.13,1.13,0,1,1-1.11,1.13A1.12,1.12,0,0,1,140.63,154.15Zm-8.06.35,1.15,0-2.13,1.29a9,9,0,0,0,1-1.33h0ZM153,155l0,2.33a89.29,89.29,0,0,1-23,16.89l-1.35-1.39A86.31,86.31,0,0,0,153,155h0Zm-15.56,1.27a1.13,1.13,0,1,1-1.11,1.13A1.12,1.12,0,0,1,137.44,156.3Zm9.91,0.09a1.13,1.13,0,1,1-1.11,1.13A1.12,1.12,0,0,1,147.35,156.38Zm-111,4.54c3.78-2.23,6.82-2.49,11.15-1.82l1.29,2.59c-4.22-.76-8.66-0.69-12.46,2.29-3.94-2.53-6.93-3.26-10.16-2.84l-0.06-2.73a14.34,14.34,0,0,1,10.24,2.52h0Zm98-2.46a1.13,1.13,0,1,1-1.11,1.13A1.12,1.12,0,0,1,134.37,158.46Zm10.19,0.46a1.13,1.13,0,1,1-1.11,1.13A1.12,1.12,0,0,1,144.56,158.92ZM131,160.61a1.13,1.13,0,1,1-1.11,1.13A1.12,1.12,0,0,1,131,160.61Zm10.39,0.66a1.13,1.13,0,1,1-1.11,1.13A1.12,1.12,0,0,1,141.41,161.27Zm-13.83,1.34a1.15,1.15,0,1,1-1.13,1.15A1.14,1.14,0,0,1,127.58,162.61Zm10.85,0.95a1.13,1.13,0,1,1-1.11,1.13A1.12,1.12,0,0,1,138.43,163.56Zm-14.15.78a1.13,1.13,0,1,1-1.11,1.13A1.12,1.12,0,0,1,124.28,164.34Zm-49.28,1,2.77,2.58-2.87,2.92-1-1,1.6-1.69-1.08-1.48Zm60.36,0.25a1.13,1.13,0,1,1-1.11,1.13A1.12,1.12,0,0,1,135.35,165.62Zm-3.21,1.92a1.13,1.13,0,1,1-1.11,1.13A1.12,1.12,0,0,1,132.14,167.53Zm-3.49,1.92a1.13,1.13,0,1,1-1.11,1.13A1.12,1.12,0,0,1,128.66,169.45Zm-57.33,3.2,0.9,0.75-1.42,1.74-1.08,0Zm-17.51,4.68A27.37,27.37,0,0,0,47,181.87l-3.16-4.44Zm-21.5,0,8.41,0.12-2.8,4A17,17,0,0,0,32.32,177.37Zm10,0.44c0.91,0.29,3.3,3.75,4.42,5.63,2.39-1.93,4.74-4.09,7.29-5.25a57.38,57.38,0,0,0-7.6,9.89c-0.54-1.47-2-5.67-3.93-7.5a17.52,17.52,0,0,0-4.17,6.25,54.31,54.31,0,0,0-5.79-8.18c-0.37-.51,2.73,1.45,5.79,4.48,0.86-2.21,3.18-5.23,4-5.32h0ZM32.24,180c1.44,1.16,5.37,6.28,5.83,9.36l-1.88.12c-1-3.16-2.68-6.32-3.94-9.48h0Zm20.92,0.52c-1.42,3-3.19,6-4.45,9.27l-1.86-.08C48.89,185.17,49.63,184.34,53.16,180.5ZM42.5,181.82h0a17.8,17.8,0,0,1,3.13,7.72l-1.37-.05a26.55,26.55,0,0,0-1.61-3.93c-0.42-.63-0.76-0.55-1.06,0a17.12,17.12,0,0,0-1.31,3.8l-1.57-.12c-0.29-2.19,3.19-7.34,3.74-7.4h0Zm-0.25,8.44c0.64,0,1.31.71,1.3,1.95,0,0.58-.39,1.86-0.87,1.93-0.89.48-1.95-1-1.68-2.26,0.23-1.06.69-1.63,1.25-1.62h0Zm-3.09.23c1.26,0.11,1.53,3,1,3.58a1.5,1.5,0,0,1-2.29-.85c-0.51-1.3.42-2.71,1.27-2.72h0Zm6.23,0c1.38,0.2,1,3.35.32,3.82-1.11.59-1.95-.4-1.58-1.88C44.43,191.21,44.87,190.5,45.38,190.47ZM48.56,191c1.58,0.18.67,3,0,3.52-1,.79-2-0.39-1.48-1.8,0.37-1.09,1-1.73,1.51-1.72h0Zm-12.71.09c1.15,0.19,1.81,2.82,1.13,3.57-0.36.43-1.39-.2-1.87-0.92S35.07,191.07,35.85,191.08ZM48,196.81c0.14,1.38-.89,1.38-3.85.71a17.11,17.11,0,0,0-5.5.12c-2.28.42-2.6,0.26-2.6-.68,0-1.09,1.28-1.71,4.24-1.8C42.45,195.09,47.72,195.07,48,196.81Zm4.6-.81c-3.52.34-4.46,4.82-4.07,6.48a22,22,0,0,1-.35,7.57,23.59,23.59,0,0,1-1.32,4.06c-0.93,1.87-.69,3.26.69,4a2.78,2.78,0,0,0,3.39-.55c1.57-1.72,1.76-5.36.8-13.63-0.34-2.92-.16-3.5,1.24-3.34,2.93,0,2.81-4.6-.37-4.61h0Zm-0.42,3.77c-0.79-.31-1.32.42-1.22,2.23a24.32,24.32,0,0,0,.27,2.43c1.14,7.93.71,13.25-1.69,13.51-2.09.34-3.5-1.22-2.49-2.84,0.58-.91,1.08-1,2.2-0.56,1.54,1,1.16-.44-0.23-1.49-0.89-.64-1-0.64-0.48-2.64a23.3,23.3,0,0,0,.63-8c-0.33-2.42.46-5.62,3.49-5.81a1.69,1.69,0,1,1-.48,3.22h0ZM30.59,210.22a3.37,3.37,0,0,0,2.92,0A18.64,18.64,0,0,1,35,204.84a3.7,3.7,0,0,0-5.88.83,3.34,3.34,0,0,0,1.45,4.54h0Zm3-5.86c1.13,0.24,1,1.45-.1,1.06-2.53-1.21-4.6,2.43-2.55,3.81,1,0.59,1.5.25,0.47-.56a0.83,0.83,0,0,1-.06-1.19c0.53-1,2.46-.84,2.32-0.11-0.44,2.31-.73,3-1.41,3-3.93.21-4.68-7.27,1.34-6h0ZM67,208.51S55.28,222,49.64,228.85l70.76-.33-13.46-18.86C95.38,212.37,81.81,211.59,67,208.51Zm-0.35,4.3c1.77,0,3.78,1.32,5.52,5.67,0.09,0,7.78-11.85,14.44.46,1.09-2.76,7.36-10,14.6-.72,2.57-6.19,8.51-4.1,9.07-1.94-0.12-.46-5.66-1.8-8.05,2.31a1.82,1.82,0,0,0,0,2.18,1.19,1.19,0,1,1-1.66.18c1.2-.91-1.26-3.74-3.29-4.76-2.78-1.4-6.66-.78-8.52,1.23A6.48,6.48,0,0,0,87,220.23a0.76,0.76,0,0,0,.18.79c0.81,1,.28,2.35-0.82,2.18-1.43-.22-1.24-1.58-0.28-2.32,0.29-.15.18-0.32,0.09-0.58-2.62-7.48-12.37-6.06-13.43-.88a1.42,1.42,0,0,0-.08.58,3.12,3.12,0,0,1,.29,1.3,1.26,1.26,0,0,1-2.5-.18c0-.6.6-0.78,0.91-1.33a1.26,1.26,0,0,0,.09-1.14c-2.64-5.62-7.18-4.45-9.43-3.17,0,0,2-2.7,4.6-2.67h0Zm-2.93,3.26a3.35,3.35,0,0,1,2.67,1.41c2.77-1.49,4.74,1.09,4.41,1.34-3.92-2.58-5.2,3.44-1.33,3.21-1.7,3.57,4.37,5.09,3.69.54,3.74,1.33,4.36-3.89.57-3.81,1.23-2.15,4.41-1.56,5.75-.21,1.58-2,5.47-.09,5.85,1.58-4.36-2.27-4.8,4.66-.58,3.19-1.25,4.41,5.46,3.78,3.6,0,4.18,1.39,3.61-4.94-.5-3.66-0.25-.33,3.25-4,5.79-0.55,0.34-.61,4.31-2.59,6.48.53-4.7-1.61-3.81,4.81-.44,3.53-0.9,4.26,5.18,3.57,3.63-.06,4.71,1.21,2.63-6.08-.69-3.39,0.54-2.93,4.5-1.71,4.46-1.26,0,0,2.1-2.31,4.46-.62-3.68.31-2.43,5.35,1,3.92a2.31,2.31,0,0,0,3.26,2.26l3,4.22L51,228.65l5.42-6.56c1.81,1.52,3.69.8,3.92-1.58,3.94,2.46,5-3.38,1.27-3.63a4,4,0,0,1,2.12-.81h0ZM59.93,218c0.23,0.17-.08,1-0.6.74Zm52.89,1.69,0.55,0.78C113.46,220.69,112.3,220.29,112.81,219.66Z" transform="translate(0.1 0.1)"/><path id="path163-0-2-5-8-7-5-6-5-5" class="cls-2" d="M48.06,64.75s-3.72-6.1-8.73-13.28C36,46.66,33.3,41.46,33,37c-0.29-5.12,2.42-10.25,7.32-10.5s6.88,3.95,7.69,7.4c0.81-3.46,2.8-7.65,7.69-7.4s7.61,5.38,7.32,10.5c-0.25,4.48-2.93,9.68-6.28,14.48-5,7.18-8.73,13.28-8.73,13.28h0Z" transform="translate(0.1 0.1)"/><path id="path163-0-2-5-8-7-7-8-9-1-8" class="cls-2" d="M130.52,184.7s-3.72,6.1-8.73,13.28c-3.35,4.8-6,10-6.28,14.48-0.29,5.12,2.42,10.25,7.32,10.5s6.88-3.95,7.69-7.4c0.81,3.46,2.8,7.65,7.69,7.4s7.61-5.38,7.32-10.5c-0.25-4.48-2.93-9.68-6.28-14.48-5-7.18-8.73-13.28-8.73-13.28h0Z" transform="translate(0.1 0.1)"/></g></svg>