<svg id="Layer_1" data-name="Layer 1" xmlns="http://www.w3.org/2000/svg" viewBox="0 0 178.78 249.65"><defs><style>.cls-1{fill:#fff;stroke:#000;stroke-width:1px;}.cls-2{fill:#131f67;}.cls-3{fill:#e2cf00;}.cls-4{fill:#d40000;}</style></defs><title>13_S</title><g id="g6583"><rect id="rect7467-2-2" class="cls-1" x="0.5" y="0.5" width="177.79" height="248.65" rx="8.5" ry="8.5"/><path id="path7499-2-5" d="M14.11,40.25C10.68,44.62,7,47.14,6.94,50.55a3.31,3.31,0,0,0,2.74,3.34A2.85,2.85,0,0,0,13,51.14c0-.4.47-0.39,0.47,0.16a10.42,10.42,0,0,1-1.56,4.9h4.5a10.43,10.43,0,0,1-1.56-4.9c0-.54.47-0.55,0.47-0.16a2.85,2.85,0,0,0,3.27,2.75,3.31,3.31,0,0,0,2.74-3.34c-0.06-3.41-3.73-5.93-7.17-10.3h0Z" transform="translate(0.1 0.1)"/><path id="path7503-7-0" d="M164.47,209.2c-3.43-4.37-7.11-6.89-7.17-10.3a3.31,3.31,0,0,1,2.74-3.34,2.85,2.85,0,0,1,3.27,2.75c0,0.4.47,0.39,0.47-.16a10.43,10.43,0,0,0-1.56-4.9h4.5a10.43,10.43,0,0,0-1.56,4.9c0,0.54.47,0.55,0.47,0.16a2.85,2.85,0,0,1,3.27-2.75,3.31,3.31,0,0,1,2.74,3.34c-0.06,3.41-3.73,5.93-7.17,10.3h0Z" transform="translate(0.1 0.1)"/><path id="path39-5-1-0" d="M14.74,34.85h2.64L13.5,25.13l-3,4.1,0,5.61h2.08v2.89H5.3V34.85H7.72V14H5.3V11.43h7.45V14H10.69l0,10.18L17.15,14h-2.3V11.43h7.93V14H20.69l-5.36,8.39,5.24,12.5h2.33v2.89H14.77l0-2.9h0Z" transform="translate(0.1 0.1)"/><path id="path39-5-7-0-0" d="M163.83,214.6h-2.64l3.88,9.72,3-4.1,0-5.61h-2.08V211.7h7.34v2.89h-2.42v20.9h2.42V238h-7.45V235.4h2.06l0-10.18-6.5,10.27h2.3V238h-7.93v-2.53h2.09l5.36-8.39L158,214.59h-2.33V211.7h8.15l0,2.9h0Z" transform="translate(0.1 0.1)"/><path id="path4096-2-4-0" class="cls-2" d="M24,19.46H154.6V230H24V19.46Zm92.71,209.18c-4.86-8.86-12.53-23.28-12.76-23.4-2.84,1.52-31.78,5.42-45.71,1.64-4.76,7.19-9.44,14.32-13.58,21.45ZM72.24,202.16c-0.73,0-1.54.46-1.39,0.07,0.09-.22.29-2.5,0.38-3.31,0.22-.36.52,0.59,0.49,1.47,0,0.5.22,0.14,1.87,0.23a23.16,23.16,0,0,1,3.85.56c2.11,0.46,6.19.13,7.94-1.15,0.95-.69,1.3.06,0.33,0.8-4.41,3.35-7.9,2.08-11.73,1.51a10.34,10.34,0,0,0-1.74-.19h0ZM74.11,199a0.69,0.69,0,0,0-.8,0c-1.35.63-1-.28,0-1.19a0.64,0.64,0,0,0,.09-1.07c-0.17-.22-0.46-0.25-0.39-0.58,0.29-1.44,2.3-3.61,4.55-4.58,0.93-.4,1.08,0-0.1.74-1.82,1.07-2.4,2-1.38,1.62,2-.72,3.81-0.21,6.36,1.06a2.54,2.54,0,0,0,1.68.37c0.46-.38.87,0.08,1.15,0.32a0.39,0.39,0,0,0,.42.17c1.45-.34.58,0.59-1.4,2-3.55,2.52-7.42,3.71-10.16,1.16h0Zm5.46,0.62a12.77,12.77,0,0,0,4.31-2.31c1.32-1.16.57-1-.94-0.25a11.84,11.84,0,0,1-6.2,1.31c-2.07,0-2-.13-2.08.13-0.26.91,2.58,1.83,4.91,1.13h0Zm-4-3.54a1.94,1.94,0,0,0,.1-1.08c-0.19-.31-0.6-0.08-1.12.58-0.32.41-.28,0.47,0,0.79L75,196.59c0.44,0.19.51-.22,0.61-0.54h0Zm0.9,0.54c0.64-2.17,2.06-2.13,3.07-.05h0.72c-1.47-4-4.32-2-4.42,0a1.18,1.18,0,0,0,.63,0h0Zm5.31-.37c0.67-.38.57-0.63-0.28-1.07-0.61-.31-0.93-0.38-1-0.18a2.79,2.79,0,0,0,.28,1.44A1.17,1.17,0,0,0,81.78,196.22ZM72.37,190a0.56,0.56,0,0,1,.37-0.79c2.88-1.34.78-4.16-1.44-2a2.62,2.62,0,0,1-2.56.5c-0.76-.33-0.78-1.27.24-1.47a5.43,5.43,0,0,0,1.5-.47c3.87-2.08,5.92,2.44,3.18,3.94a1.41,1.41,0,0,1-1.27.33h0Zm-10.83-4.1a2.47,2.47,0,0,1-.31-4.16c0.94-.64,1.89-0.82,4.47.46,1.82,0.9,2.86-.07,2.82,1a1.2,1.2,0,0,1-1.13,1.44c-1.72.25-2.9-2.09-5.11-1.87a1.26,1.26,0,0,0-.24,2.46c1.54,0.52.6,1.13-.5,0.68h0Zm28.85,0.36c-0.29.14-.42-0.5-0.3-0.83,0.78-1.87,1.51-3.35,2.22-5.1,0.57-1.39.95-2,1.2-2s0.38,0.21-.05,1.06c-0.66,1.73-3.06,7-3.07,6.86h0Zm-12.88-.48c-0.69-.5-0.58-1.23.21-0.67,1,0.72,2.68-.59,2.34-1.83-0.41-1.49-2.39-1.86-4-.52-2.61,2.11-5.48,2.22-5.48.57,0-.47-0.06-0.58,1-0.65a8.5,8.5,0,0,0,3.4-1.1c3.18-1.94,6.56-.6,5.86,2.64A2.33,2.33,0,0,1,77.5,185.81ZM65.85,181a3.6,3.6,0,0,1-.86.15,4,4,0,0,1-.44-1.39c-0.39-1.09,0-.75.67-0.46a3.63,3.63,0,0,0,2.58,0,8.19,8.19,0,0,1,3.54,0,7.08,7.08,0,0,0,3.35-.23c1.34-.42,1-0.27.76,0.56a5.31,5.31,0,0,1-.5,1.45,2,2,0,0,0-2.23,0,3.34,3.34,0,0,1-2.52.27,1.53,1.53,0,0,0-1.84,0c-1.06.52-1.54-.34-2.5-0.39h0Zm19.93-2.27c0.19-.33.46-0.78,0.72-1.29,2.06-4.12,2.21-5.26.75-6.65-2-1.86-3.63-1.06-5.5,2.67-0.46.9-.73,1.58-0.91,1.86s-0.46.07-.58-0.05,1.85-4.19,2.67-5.05a3.44,3.44,0,0,1,5.85,2.62c-0.13,1.55-.42,2.39-1.83,5.23-0.35.7-.65,1.3-0.84,1.58-0.66.44-.51-0.58-0.32-0.91h0Zm-19.46-.16c0.33-1.47,5-2.14,6.24-.22,0.12,0.19,0,.18-0.48,0-2.38-.79-2.85-0.75-5.13.16-0.34.13-.59,0.19-0.63,0h0Zm17.87-.28a4.41,4.41,0,0,1,.44-1.2c1.56-3.1,2-3.84,1.52-4.42-0.93-1.13-2.17-.15-3.32,3.09-0.43,1.21-.72,1-0.93.76-0.4-.37,1.37-4.13,2.22-4.69,1.94-1.24,3.46.19,2.6,2.72-0.67,1.14-1.22,2.9-1.84,3.82-0.3.41-.69,0.29-0.69-0.07h0Zm-7-5c-0.09-.16.09-0.37,0.76-1.81,0.92-2,1.21-2.72.83-3.85a2.93,2.93,0,0,0-4.71-1.19A4.34,4.34,0,0,0,73,168a26.23,26.23,0,0,1-1.34,3.15c-0.29.29-.69,0.35-0.66-0.16a16.75,16.75,0,0,1,1.39-3.47c2.14-4.67,8.32-2.51,6.87,2.41a12.87,12.87,0,0,1-1.52,3.58A0.32,0.32,0,0,1,77.18,173.28Zm-1.43-.86a8.54,8.54,0,0,1,.48-1.2c1-2.59,1.05-3.39-.47-3.42-0.91.12-1,.49-1.84,2.54a8.29,8.29,0,0,1-.56,1.34,0.41,0.41,0,0,1-.6,0c-0.33-.33,1.1-3.69,1.85-4.32,1.73-1.51,4,.64,2.93,2.57a13.87,13.87,0,0,1-1.21,2.68c-0.26.37-.58,0.32-0.57-0.14h0ZM38.87,142.19l-5.26-.36a47.48,47.48,0,0,1,0,16.29,32,32,0,0,0-.57,9.82c0.28,3.81,1.88,7,2.29,11.08a31,31,0,0,1-.93,8.89c-1,4.86-.76,5.37-0.62,11.08,0.13,5.29-.36,5.1-0.66,4.79a13.41,13.41,0,0,1-.08-2.1c0-1.11-.06-3.84-0.12-5.72a38.85,38.85,0,0,1,.59-8.48c0.62-2.79,1.31-5.66.88-8.75-0.87-3.9-2.09-7.8-2.52-11.56-0.53-4.64.77-9.29,1.2-12.66s0-8.88-.87-11.22a6.11,6.11,0,0,0-.84-1.8,16.64,16.64,0,0,0-2.7-.22c-0.06,22.34,0,44.69,0,67l4.91,4.58,5-4.82Zm0.35,25.63s7.49,4.33,15.74,8.59c-0.79-4.87,1.71-5.61,4-6.17-0.56-9.41,8-7.48,9.33.7h0.85c1.49-4.08,3-6.89,6.34-7.56,2.62-.52,5.21,1.15,5.86,5.08-0.12-.28,8.7-5.2,8.94,5.2,4-2.5,6.86-.34,8,2.83,1.69-2.59,5.92-2.7,7.27-2.89,0.47-.55,1.3-0.86,2.81-0.85,1.29-.07,3-1,3.93.15,1.36,0.22,2.4,0,3.56.87,0.93,0.71,2,2.28,3.5,1.2,2.94-1.42,6.24-2.06,8.86-3.78a2.69,2.69,0,0,1-.49-0.77,3,3,0,0,0,.89.67,9.38,9.38,0,0,0,1.79-.9c-10.94-12.68-19.94-37.42-14-60.31,0.16-.39-0.5-0.54-0.82-0.68a1,1,0,0,1,1,1.52c-0.69,4.39-1.46,9.14-1.64,12.78,0,0.44,0,.84,0,0.84,24.53,11.38,21.52,36,15.22,44.6l1,1.33c0.44,0.3,19.3-10.76,18.67-11.22l3.57-1.79-0.58-48.33-14.11-1.09a1.27,1.27,0,0,1,.33-0.51c0.13-3-.13-7.31,0-11,0.06-10.44.16-14,0-14.28-4.35-2.88-10.84-7.1-16.3-9.14a18.43,18.43,0,0,1-.26,4.57c-5.11,1.64-2.74,3.74-4.63,6a4.05,4.05,0,0,1-5.67,0c-1.71-1.67-2.52-5.49-2.52-5.49-2.7,2.91-2.15,6.42-5.77,7.74-5.82,2.9-7.67-5.78-7.33-5.57-2.23,2.16-8.49,3.92-9.16-5.21-2.81,2.6-6,1.31-7.3-1.89-1.72.06-3.64,1.41-5.38,2.15a13.3,13.3,0,0,1-5.21,1.11A12.13,12.13,0,0,1,64.45,76a3.44,3.44,0,0,1-3.2-1.66,2.19,2.19,0,0,0-2.44-.9C56,74.94,53,75.3,49.72,76.85c-0.21.14,0.29,0.42,0.12,0.36S48.11,78,48.11,78c16.71,22.1,17.62,44.42,14.12,60.23a1.35,1.35,0,0,0,.15,1.38c-0.53-.09-0.54.06-0.64-0.28l1.74-13.28c0.05-1.6.25-1.48-1.15-2.08a27.06,27.06,0,0,1-3.59-1.75c-4.08-3-8.68-6.78-10.93-11.44-6.4-10-4.29-22,.51-31.47L47.12,78.1A106.49,106.49,0,0,0,24.84,92.78L24.9,140.2l14.4,1.67Zm-6.95-31.67a1.86,1.86,0,0,0-2.13-.21,5,5,0,0,1-.43.58,1.22,1.22,0,0,1-1.19-.86l0.69-1.05c0.55-.83,1.34-1.13,2.67-1.44,0.47-.11,1.19-0.21,1.44-0.32,1-.43,1.35-1.38.34-1-0.74.2-1.77,0.14-1.91-.54a0.92,0.92,0,0,0-1.11-.71,10.08,10.08,0,0,0-2.73,1.26c-0.38.23-1.11,0.76-1.11,0.76a1.42,1.42,0,0,1-.14-1.52,2.63,2.63,0,0,0,1.39-.13c1.19-.48,2.34-1.05,3.54-1.51,0.77-.3.84-0.28,0.63-0.82a2.13,2.13,0,0,1-.06-1.22c0.14-.37.12-0.56-0.11-0.72-0.54-.36-1.84,0-3.66.86a6.28,6.28,0,0,0-1.27.66,2.45,2.45,0,0,0,.09-1.3,3.39,3.39,0,0,0,2-.52,6.16,6.16,0,0,1,2.39-.69c0.37,0,.2-1.4-0.22-1.79a2.46,2.46,0,0,0-2.24-.08,3.82,3.82,0,0,0-2.64,1.39c-0.78.74,0-1.23,1.44-2a17.24,17.24,0,0,0,2.32-.38c0.55-.12.64-1.42-0.16-2-0.5-.44,1.82-0.45,1.77-0.32a1.08,1.08,0,0,0,.13.77,1.54,1.54,0,0,1,1.08,1.47c1.15,1.89,1.71.7,2.5,0.05-0.17,4.12,1.27,4.59,1.46,4.85-2,3.69-.48,3.78,1.36,4.63a3.44,3.44,0,0,1-1.17.26,5.72,5.72,0,0,0-2.75,1.35c-0.34.28-.35,0-1.7,0a3.12,3.12,0,0,0-2,.32c-1.15.51-1.14,1,0,.8a2.11,2.11,0,0,1,2.5,1.52,0.7,0.7,0,0,1,0,.51,2.17,2.17,0,0,1-.8-0.07,1.56,1.56,0,0,0-.22-0.89h0Zm1.74-5a0.71,0.71,0,0,0,.1-1,2,2,0,0,0-1.66.18c-0.7.55,0.58,1.47,1.56,0.86h0Zm0.7-2.48a1.15,1.15,0,0,0,.1-1.51,1.33,1.33,0,0,0-2.21.64,1.27,1.27,0,0,0,2.11.87h0Zm-0.5-3.4a1,1,0,0,0-1.48-1c-0.93.49-.36,1.51,0.8,1.45,0.64,0,.64,0,0.68-0.5h0Zm-2.71-3.33a0.6,0.6,0,0,0,0,1.06C33.09,123.9,32.6,121.48,31.51,121.94ZM145,126.85c-0.71-2.64-2.68,0-2.68,0-0.07-2.71.44-3.92-1.58-4.84,2-3.09,1.6-3.52-.54-4.7,0.2,0,2.85-.58,3.31-2.11,0.1,0.07,4.17,1.08,4.67-1.15-1.23.56-3.64,0.65-3.67-1.75a1,1,0,0,1,.75.13c-0.32,1.54,2.47,1.92,2.92.7a6.85,6.85,0,0,0,1.35.73,5.42,5.42,0,0,1-2.47,2.14c-2.16.72-2.91,0.91-2.91,1.35,0,0.17.35,0.19,1,.33,1.34,0.09,1.31.38,1.49,0.83a0.58,0.58,0,0,0,.75.43,7,7,0,0,0,3.37-1.86,7.76,7.76,0,0,1,.36,1.17c0-.18-1.08.14-2.77,1.13-1.37.81-1.91,0.93-2.09,1.15a5.66,5.66,0,0,0,.24,1.23c0,0.47-.28.69-0.05,0.84a1.61,1.61,0,0,0,1.21,0,10.13,10.13,0,0,0,3.13-1.42,2.86,2.86,0,0,0,.15,1.53,1.13,1.13,0,0,0-1-.18,24.51,24.51,0,0,1-2.55,1,1.42,1.42,0,0,0-.64.25,1.53,1.53,0,0,0-.14,1,0.86,0.86,0,0,0,.12.8,4.57,4.57,0,0,0,2.53-.25c0.44-.19,1.37-0.7,1.37-0.7l-0.29,1.52c-0.39-.44-1.51-0.12-2.25.18a0.84,0.84,0,0,0-.59.69,0.93,0.93,0,0,0,.6,1.14,1.59,1.59,0,0,0,.7.07c-1.94.74-1.55,1-2.68,0.45a4.49,4.49,0,0,1-1.15-1.78h0Zm2,0a1.2,1.2,0,0,0-1.21-.44,0.53,0.53,0,0,0-.09.73c0.25,0.69,1.95.46,1.3-.29h0ZM145.9,125a0.92,0.92,0,0,0-.88-1.41,0.8,0.8,0,0,0-.89.82,1.09,1.09,0,0,0,1.77.59h0ZM145,122.68a1,1,0,0,0,.52-1.65,1.91,1.91,0,0,0-2.06-.09c-0.89,1,.11,2.13,1.54,1.74h0Zm0.7-3a0.66,0.66,0,0,0,.15-1.16c-0.79-.68-2.17-0.15-1.73.84a1.16,1.16,0,0,0,1.58.32h0ZM44.41,96.88a15.74,15.74,0,0,0,2.06-1.3c0.53-.29.37-0.24-0.31-0.64-0.53-.25-1.59-1.33-1.69-1.07A8,8,0,0,0,44.41,96.88Zm18.78,26.46c0-.52.09-1.29,0.08-1.86,0.1-1.09-.09-0.77-0.68-0.41-0.43.28-1.12,0.71-1.4,0.84-1.07.54-.94,0.57,0.56,1.3,1.27,0.57,1.41.51,1.43,0.14h0Zm-1.47-2.54c1-.65,1.36-1,1.41-1.71s-0.09-1.14-.82-0.56c-2.49,2-5.06-1.9-2.78-4.06a4.77,4.77,0,0,0,1.06-1.3c0-1.25-1.36,0-2.51,1.68-1.27,1.56-2.06,3.52-.94,5.4,0.89,1.37,2.87,1.65,4.57.56h0Zm-5.66-2.53a4.16,4.16,0,0,1,.21-1.5c0.28-.72.27-0.81-1-0.21a5.86,5.86,0,0,1-1.34.3c-1,0-.78.32,0.71,1.57s1.54,1.37,1.43-.16h0Zm3.53-6c0.16-.38-0.17-0.52-0.49-0.45,0,0-.57.41-1.21,0.92-1.94,1.53-3.36,1.71-4.32.54s-0.57-2.59,1.61-4.2c1-.71,1.19-0.76.73-1.07s-0.37-.2-1.75.74c-2.78,1.9-3.62,3.19-3.34,5.08a1.93,1.93,0,0,0,.85,1.48c2.65,2.36,6.33-.9,7.91-3h0Zm2.81,1.12-0.17-2.61a22.69,22.69,0,0,1-6.44-10.12c-0.95-3.09-.19-9.53,0-9l-1.53-2.91a19.06,19.06,0,0,0-.46,12.61c1.23,4.08,3.69,9,8.65,12.08h0Zm-11.91-1.52c0.9-1.74.93-1.55-.81-1.56-2,0-1.76-.26-0.64,1.44C49.93,113.12,49.78,113.24,50.49,111.87Zm1.19-2.38a6.44,6.44,0,0,0,2.4-1.28c1.74-1.14,1.81-1.76.07-.88-2.24,1.13-4.21.84-4.94-.63-0.65-1.31.71-2.94,2.95-3.58,0.76-.22,1.17-0.4,1.17-0.74,0-1-3.8.34-5.37,1.89-3,3-.38,6.54,3.74,5.22h0Zm-4.9-4.66c0.1-.16.37-0.53,0.63-0.92,1.07-1.25.17-.88-0.78-1.22a3.46,3.46,0,0,0-1.31-.33c-0.57.09,0.19,1.19,0.38,1.91C46.2,105.87,46.14,105.82,46.78,104.83ZM50.84,102c1.92-.19,2.12-0.38,2.12-0.78s-0.23-.32-1.2-0.19c-2.55.36-4.24-.3-4.61-1.67s1.35-2.75,3.66-2.67c1.25,0,2.08-.39,1.32-0.81a16.12,16.12,0,0,0-4.61.06c-2.28.67-3.22,1.95-3,3.72,0.32,2.18,1.5,2.81,4.39,2.66,0.55,0,1.26-.25,1.94-0.32h0Zm1.49-7.12c0-.34-0.55-0.39-2.36-0.66-2.41-.36-3.49-2.61-2-4a3.66,3.66,0,0,1,2.6-.6c1.59,0.29,2.56.62,2.58,0.08s-0.46-.52-3.45-1.15c-4.51-1-7,3.5-3.38,5.68,1.37,0.83,6,1.3,6,.62h0Zm1.12-6.38A0.57,0.57,0,0,0,53,88a6.72,6.72,0,0,1-2-1c-1.49-1-1.94-3-.95-4.08s-0.77-2.23-2.15-1.08-1.32,3.09.34,4.58S53.44,89.27,53.44,88.47Zm-7.31-.27c1.57-.74,2.7-0.31,1.5-1.34-0.67-.63-1.25-2.41-1.72-0.9a14.2,14.2,0,0,0-.63,2.65C45.38,88.73,45.36,88.54,46.13,88.2Zm55.49-3.84a3.83,3.83,0,0,1-2.55-4.54,19.54,19.54,0,0,1,1.53-4c0.79-.63.68,0.21,0,1.66s-1.17,2.68-1,3.56a2.88,2.88,0,0,0,2.1,2.54A2.93,2.93,0,0,0,104,83c0.77-.55,1.5-2,2.37-3.9,0.28-.55.65-2.23,1.12-1.2,0.22,0.53-1.64,4.06-2.33,5A3.67,3.67,0,0,1,101.62,84.36Zm10.77-1.18a3.72,3.72,0,0,0,3.3,1c2.36-.84,3.43-3.08,2.54-6.68-0.45-2-.84-3.27-1.23-3.52-0.19-.12-0.4.1-0.58,0.39s0.09,0.6.35,1.55c1.13,4,.83,5.81-0.54,6.57-2,1.11-3.7-.17-4.28-3-0.09-.44-0.37-1.34-0.37-1.34-0.15-.4-1.39-0.31-0.94,1A9.93,9.93,0,0,0,112.39,83.18ZM122.5,72.7c0-1.41-3-7.52-3.17-6.87a14.61,14.61,0,0,0,.1,2,2.54,2.54,0,0,0,.32.63c2.56,4.59,2.16,7.82-.06,8.53-0.76.34-.92,0.68-0.58,1,0.68,0.75,2.4-.73,2.73-1.27C122.68,75.56,122.56,73.36,122.5,72.7Zm-42.83-1a28.69,28.69,0,0,0,3.73-6.78c2-5.84,4.11-12.55,4.7-18.75,0.06-.78.11-2,0.14-2.08a2.27,2.27,0,0,0-1.49.09,3.86,3.86,0,0,0-.11,1.28,85.28,85.28,0,0,1-5,19.8,31.41,31.41,0,0,1-3.37,6.61c-0.23.34-.51,0.69-0.63,0.89-0.33.48-.09,0.79,0.29,0.58a8.14,8.14,0,0,0,1.74-1.65h0Zm-3.29,1.7a48.24,48.24,0,0,0,7-15.4,94.65,94.65,0,0,0,2.59-11.88,3.36,3.36,0,0,0,0-1.69,2.2,2.2,0,0,0-1.46.17,9.76,9.76,0,0,0-.21,1.91,84.05,84.05,0,0,1-2,9.94c-2.62,8.72-5,13.6-8.2,17.87a1.87,1.87,0,0,0-.46.75c0,0.22.34,0.21,0.84-.11a12.11,12.11,0,0,0,1.87-1.55h0Zm-4.68,2.26c1.5-.86,4.15-4.6,6-8.62a93.79,93.79,0,0,0,5-14.77,53.45,53.45,0,0,0,1.11-7.46c-0.12-.4-1.59-0.07-1.39.21a109.31,109.31,0,0,1-3,12.69C76.5,66,74,71.71,71.26,74.44L70.2,75.5a0.39,0.39,0,0,0,.24.36,1.78,1.78,0,0,0,1.25-.24h0Zm-2.3-.33C72.79,73.38,76.76,64.45,80,53.23c0.56-1.92,1.57-8.34,1.57-8.34a4,4,0,0,0-1.61.34c-0.26.39-.22,1.38-0.6,3.72a75.74,75.74,0,0,1-7,20c-1.43,2.83-3.81,5.5-5.31,6.26-0.84.42-1.08,0.89-.47,0.93,1,0,1.13.26,1.88-.15Zm46.51,99.87c-2.55,0-4.71,2.45-6.63,5.54-4.1,6.34-6.85,16.93-7.52,22.55l1.55-.29c-0.23.11,2.89-15,7.65-21.44,2.57-4.08,2.46-4.14,3.91-4.51,1.82-.47,3.29,1.52,2.38,2.72-0.33.41-.69,0.11-0.59-0.47,0.32-1.84-2.35-2.2-3.09-.39-0.86,2.09,1.42,3.94,3.65,3.12,2-.71,2.83-3.52,1.43-5.59a3.84,3.84,0,0,0-2.73-1.25h0Zm-13.4-.26c-3,3.86-4.56,7.82-6.43,13.23a70.49,70.49,0,0,0-3.8,16.77l1.64-.21c-0.06-3.9,4.18-22.48,10.14-29.44a2.85,2.85,0,0,0,.58-0.91C104.31,173.4,102.9,174.53,102.5,174.9Zm6.73-1.44c-4,3.26-7.11,10.39-9.19,17-2.25,7.12-3.26,13.65-3.09,13.65l1.57-.23c-0.12-.41,4.41-25.5,12.81-30.07,0.73-.37.88-0.74,0.27-0.9a3.5,3.5,0,0,0-2.37.58h0Zm4.42,0c-8.63,1.14-14.26,27.82-14.45,30,0,0,0,.21,0,0.21l1.72-.36,0-.13a70,70,0,0,1,5-17.75c2.1-4.56,5-10.4,9.31-11,0.35,0,.68.1,0.56-0.32-0.26-.65-1.55-0.74-2.15-0.72h0Zm-51.41-8.4c-3.12.81-3.22,4.58-1.14,9.39a2.14,2.14,0,0,0,.29.7c0.35,0.31.63-.12,0.67-0.41a4.34,4.34,0,0,0-.46-1.88c-1.28-3.33-1-5.25.3-6.1,3.26-1.69,4.14,1.78,4.63,3.38a1.58,1.58,0,0,0,.37,1,1.3,1.3,0,0,0,1-.14,43.25,43.25,0,0,0-1.39-4.12,3.5,3.5,0,0,0-4.23-1.77h0Zm-22.62,3.56,0,39.71-6,5.65c-2.56-2.21-5.93-5.68-5.93-5.68l0.11-67.13L25.89,141c-0.47,28.84,0,58.26,0,87.16H43.38l14.61-23a3.33,3.33,0,0,0,.24-0.42c0.18-.44.16-1.11,0.07-3.55a9,9,0,0,0-.07-2c-0.15-.24-0.46-0.07-0.75.06s-0.47.09-.31-0.27c0.09-.2.38-0.64,0.64-1.06,0.82-1.36,1-1.79.74-3.3a3.71,3.71,0,0,0-.7-1.12c-2.46-3.66-3.46-9.09-2.24-13.06A3.49,3.49,0,0,0,55,177Zm77.25-42.69c-1.6-.83-1.57-0.81-1.58.76,0,1.18,0,1.46.47,1.3,0.63-.32,1.41-0.62,2-0.87,1.11-.39-0.3-0.88-0.88-1.19h0Zm6.35,4.09c-1.25-1-.79-0.89-1.14,1.37-0.21,1.37-.49,1.4.91,0.95,0.8-.28,2.43-0.1,1.7-1Zm-50,34.72c-1.91,1.17-3.86,6.82-3.86,6.82-6.68.8-9.47,7.43-9.77,13-0.24,4.36-.53,9.45-0.09,9.9,4.38-2,6.06.31,6.48-.31,0.19-.27-1-1.16-2.43-2a9,9,0,0,1-1.06-.69c-0.53-.44,1.06-0.06,2.07.63,1.28,0.88,1.5.7,0.94-1.88-0.61-2.8-.7-3.14,1.43-4.26a6,6,0,0,0,1.95-1.51c0.49-.55.61-0.69,0.43,0.13-0.31,1.41-1.55,2-2.67,2.59a1.52,1.52,0,0,0-.79,1.36,31.19,31.19,0,0,0,.84,4.12c0.25,0.83.34,1.66,0.53,2.51a8.41,8.41,0,0,1,.28,4.23,8.13,8.13,0,0,0-.17,2c0,0.51.12,1.21,0.12,1.21s-1.19-1.24-3.81-.2a5,5,0,0,1-4.43-.59,9.43,9.43,0,0,0-.16,2.8,95.38,95.38,0,0,0,28,.91,91.15,91.15,0,0,1,3.26-16.44,43.55,43.55,0,0,1,2.93-7.67A8.4,8.4,0,0,1,95,179c0.08-.05.09-0.08,0.09-0.11v-0.21a2.08,2.08,0,0,0-.5-1.4c-0.9-.73-2.34.21-2.81,1.83a52.87,52.87,0,0,1-2.44,5.1c-0.11-.07-0.37-0.08-0.28-0.4,0.72-1.7,1.72-3.5,2.28-5,0.77-2.2,2.46-3.36,3.71-2,0.43,0.48.6,0.91,0.8,1.06a0.33,0.33,0,0,0,.47-0.15c0.47-.72-0.62-2.36-1.8-2.69-1.7-.47-3,0.78-4.9,4.84-1.11,2.35-1.31,2.94-1.49,2.76,0,0-.33,0-0.23-0.44a33.19,33.19,0,0,1,2.78-5.62c1.59-2.67,4.53-2.88,5.77-.57,0.19,0.32.2,0.73,0.41,1,0.38,0.5,1,.4,1.16-0.42-0.17-.54-1.2-2.49-1.92-2.83a4.14,4.14,0,0,0-5.36.6c-0.38.35-.78,1-1.91,3.35-1.65,3.69-1.7,3.7-2.15,3.11,0.66-1.79,2.41-4.71,3.12-6.5a1.67,1.67,0,0,0,.15-0.83c0-1.3.17-3.6-2.55-5.23a4.77,4.77,0,0,0-6.43,2.55c-0.8,1.9-1.38,3.21-1.79,3.48-0.57.38-.46-0.15-0.4-0.34,0.8-1.72,1.94-3.47,2.12-5.2a4.69,4.69,0,0,0-7.66-4.06h0Zm-24.33-88a63,63,0,0,1,9.94-3.71c0.51-.22.59-0.28,0-1.35C56.49,67,63,63.18,65.22,67.84c0.3,0.62.36,1,.65,0.67a29.72,29.72,0,0,0,1.86-2.91c2.49-3.9,3.62-8.35,4.95-12.28a50,50,0,0,0,1.54-7.19c-4.94-8.69-13.63-24.62-13.63-24.62H25.86V91.19c9.68-8.15,16.26-11.1,23-14.41h0Zm39-2.57c0.42-.45.78-1.19,2.29-4.31,0.27-.56.7-1.42,0.87-1.82,0.23-.73,1.07-1.19.66,0.12a9.1,9.1,0,0,1-.51,1.18c-0.5.91-1,2-1.33,2.75C87.88,76,88,78.29,90.12,80a4.6,4.6,0,0,0,6.77-.78,7.35,7.35,0,0,0,.59-1.11A16.9,16.9,0,0,1,99,75c0.8-1,.93.24-0.27,2.2a5.8,5.8,0,0,0-.21,6.37,4.63,4.63,0,0,0,7.17.57h0a14.89,14.89,0,0,0,2.64-5c0.15-.46.31-0.81,0.43-1.08a1.16,1.16,0,0,1,1.07-.7c4.44-.86,8.17-5.47,8.7-10.5,0.07-.68.26-1.88,0.33-2.6,0.14-1.43.14-8.81,0-9.25a0.45,0.45,0,0,0-.5-0.36,3.32,3.32,0,0,0-1,.24,4.28,4.28,0,0,1-3.56.15,2.58,2.58,0,0,0-1-.21c-0.62.05,0.2,1,2,1.95,0.78,0.43,1.39,1,.76,1a28.91,28.91,0,0,1-2.67-1.34c-1-.62-0.74.16-0.22,2.2,0.69,2.74.29,3.51-1.85,4.59a5.61,5.61,0,0,0-1.2.89c-1.14,1.7-.84.45-0.27-0.46,1-1,.38-1.39-1.63-0.67-2.29.82-3.32,0.22-4-1.06-0.72-1.45.64-3.32,1.77-3.28,0.37,0,.3.15-0.24,0.52a2,2,0,0,0-1,1.66c-0.14,1.57,1,2.24,2.53,1.18a6,6,0,0,1,1.87-1c0.55-.13,1.38.08,1.38,0.53a4.38,4.38,0,0,0,0,.73c0.15,0.5.93-.21,1.28-0.46,1.17-.88,1.13-1.06.81-2.49-0.52-2-.79-3.84-1.28-5.87a8.85,8.85,0,0,1-.15-3.36c0.08-.54.29-1.66,0.33-2.43s0-1.86,0-1.86c1.16,0.9,1.63,1.06,2.77.62a4.61,4.61,0,0,1,4.34.06c0.55,0.26,1,.45,1,0.45l0.07-2.3s-1.37-.28-3.9-0.62c-7.62-1-23.24-1.22-23.82-.3-0.15.24-.3,1.88-0.71,4.17-0.92,4.75-2,9.49-3.34,14.13-0.28.94-.55,1.33-0.41,1.35a2.62,2.62,0,0,0,.47-0.51c0.74-.86.17,1.19-0.95,3.66a2.2,2.2,0,0,0-.18.54A27.8,27.8,0,0,1,85.3,70c-0.3.65-.55,0.84-0.55,0.43C85.09,69,86,67.15,86.12,65.88c-0.79,1.15-1.93,3-2.8,4.18a0.78,0.78,0,0,0,.15.78c0.52,1.41,1.78,1.53,2.51.26,0.41-.71,1.67-3.38,2.11-4.56A5.92,5.92,0,0,1,89,64.61c0.3-.16.36,0.53-0.18,1.67-1.63,3.46-2.32,5.39-3.12,6.11a1.47,1.47,0,0,1-2.28-.47c-1-1.67-1.87-1.12-.94.6a2.45,2.45,0,0,0,4.28.34,51.47,51.47,0,0,0,2.7-5.33,4.61,4.61,0,0,1,.75-1.42c0.59-.23-0.08,1.54-1.79,5.08C87.88,72.56,87,74,85.79,74.44c-2.92.65-3.32-.91-4.33-2.69-0.49-.44-0.94.27-0.75,1a3.68,3.68,0,0,0,1.77,2.4,4.19,4.19,0,0,0,5.35-1h0Zm13,7.41a2.66,2.66,0,0,1-.09-1.76,14.48,14.48,0,0,1,1.41-3.56c1-.46.23,1.37,0.11,1.64-1.16,2.44-1.27,3.38-.19,3.66,0.93,0.24,1.42-.33,2.3-2.52a5.08,5.08,0,0,1,.79-1.68c0.34-.14.5,0,0.48,0.34a16,16,0,0,1-2,4.14c-0.93.79-2.33,0.79-2.82-.26h0Zm-8.68-1.87a4.57,4.57,0,0,1-1.57-1c-1.64-1.51-1.37-3.6.66-7.53,0.16-.31.75-1.49,0.94-1.88,0.34-.7.67-0.43,0.67,0a18.16,18.16,0,0,1-1,2.22c-2.24,4.42-2.16,6.22,0,7.28s3.08,0.44,4.77-2.94c1-2.53,1.46-2.58,1.41-1.61a18.2,18.2,0,0,1-2,3.92C95,79.82,94,80.11,92.18,79.75h0Zm0.16-2.13a2.32,2.32,0,0,1-.68-2.88c0.45-.88,1.6-4.23,2.14-4.42,0.87,0,.4.7-0.67,2.77-1.27,2.73-1.23,3.46-.24,3.88s1.34-.41,2.68-3.6c0.21-.5.5-1,0.68-0.91s0.58,0.15-.12,1.59c-0.17.35-.45,1.07-0.76,1.75-0.92,2-2,2.48-3,1.82h0Zm15.05-5.8c-0.37-.19-2.09-0.87-1.83-1.44,0-.05.13,0,0.18,0a4.56,4.56,0,0,0,5.58-.14c0.34-.31.6-0.1,0.41,0.28C111.11,71.78,108.36,72.31,107.4,71.81ZM102.34,70a8.1,8.1,0,0,0,.31-0.95c0.19-.72.14-1.24,0.31-1.15a3.09,3.09,0,0,0,2.61,0,3.16,3.16,0,0,1,2.58-.22,1.13,1.13,0,0,0,1.6-.14c0.57-.45.58-0.26,1.62,0.1a3.34,3.34,0,0,0,1.39.39c0.12,0,.38-0.31.46-0.29,0.25,0,.28.76,0.5,1.57s0.09,0.89-.55.46a4.54,4.54,0,0,0-3.25,0,3.22,3.22,0,0,1-2.06.06c-1.92-.33-3.31-0.58-4.74.26-0.76.45-1,.68-0.78-0.07h0Zm-4.78-3.55c-0.93-1.88,1.21-4.38,3.09-3.5,0.62,0.29,1.18,1.4.26,0.89C96.63,63,97.7,69.32,102.29,66c3.05-2,5.21-2.36,5.39-.38-0.09.73-.73,0.61-1.21,0.68a10.08,10.08,0,0,0-3.2,1c-2.23.71-4.41,1.29-5.71-.82h0Zm16.74,0.87c-1-.27-2-0.69-3-0.89s-1.56-.76-1.37-1.52,1.28-.88,2.9.12c1.8,1.11,3.1,1.38,3.76,1,1.33-.85.61-2.22-0.66-2.57-1-.27-0.25-0.64.77-0.33,1.65,0.63,1.69,3.65,0,4.27a4.69,4.69,0,0,1-2.36,0h0Zm-14.57-10a19.25,19.25,0,0,0,2.81-1.89c0.22-.24.83-1,0.36-0.79-2.48,1.5-5.35.25-7.43-.77a1.68,1.68,0,0,0-1.52-.21c-0.52,0-.94.15-1-0.23,0-.17-0.33-0.1-0.52-0.12-0.77-.08-0.28-1.11,1.33-2.24a14.82,14.82,0,0,1,5.22-2.57,5,5,0,0,1,4.75,1.08c0.49,0.48.45,0.8,0.9,0.5,1-.67,1,0.22.17,1-0.6.57-.38,0.72,0.35,1.26,0.35,0.26.06,0.5-.13,0.88a4.1,4.1,0,0,0-.05.65c-0.16.8-3.79,3.65-5.11,4.14-0.9.17-.43-0.52-0.08-0.74h0Zm2.52-5.23h-0.6c-0.69,2.11-2,2.84-3,.3l-0.48,0C98.14,54.64,101.8,56,102.25,52.13Zm-4,2c-0.25-.42-0.53-1.39-0.79-1.4-0.71,0-1.69.1-1.45,0.54C96.41,54,98.58,54.6,98.29,54.12Zm4.85-.38c0.65-.4.79-0.67,0.37-1.11s-0.84-.28-1,0.62S102.46,54.16,103.14,53.74Zm-8.85-1.49c4.37-2,6-2.25,7.81-1.76a5.65,5.65,0,0,0,1,.33c0.85-.05.31-1-1.22-1.56-1.74-.63-2.85-0.34-6.2,1.42-2,1-3.56,2.56-1.39,1.57h0ZM107,49.83a12.68,12.68,0,0,1-.4-1.2,1.13,1.13,0,0,0-.22-0.59,11.44,11.44,0,0,1-4.29-.17,14.05,14.05,0,0,0-8.24.29,8.84,8.84,0,0,0-1.27.62,0.27,0.27,0,0,1-.43-0.23,6.68,6.68,0,0,1,2.22-1.75,11.34,11.34,0,0,1,8.37-.7,5.33,5.33,0,0,0,4.49.08c0.62-.27.18,0.4,0,1.3a4.45,4.45,0,0,0,0,1.5c0.08,0.85,0,1.27-.23.87h0Zm45.68,178.36V158.33c-17.43,12.11-25,14.52-33.24,17.49,2.74,5.63-3.3,10.45-6.76,4.73-3.56,4-8.47,18.17-8.64,22.86,0,0,9.47,16.54,14.1,24.78h34.54Zm-63.33-22.9a71.71,71.71,0,0,1,3.38-16.41,55.2,55.2,0,0,1,3.81-9.24c0.66-1,.71-1.45,0-1.07a16.33,16.33,0,0,0-2.75,3.13c-3.11,6.62-4.55,14.57-5.69,20.65a25.89,25.89,0,0,0-.33,3.06Zm2.27-.29c0.74-8.54,3.85-20.07,8.53-27.58a7.11,7.11,0,0,0,1-1.59c-0.06-.73-1.86.53-3.26,2.69a72.85,72.85,0,0,0-4.32,10.14,65.7,65.7,0,0,0-3.4,16.54Zm4.5-.71c0.47-4.92,2-9.44,3.25-14a45.54,45.54,0,0,1,6-13.27c0.77-1.18,1.69-2.28,2.56-3.4a0.8,0.8,0,0,0,.2-0.48,2.05,2.05,0,0,0-1.43.32,8.28,8.28,0,0,0-1.94,1.84c-3.44,4.42-5.29,9.59-7,14.81a56.11,56.11,0,0,0-3.07,14.37ZM65.2,200.51a3.31,3.31,0,0,0,1.34-.11,2.79,2.79,0,0,0,.2-1.31c0.13-1.35,0-1.28-.84-0.41-1.39,1.45-3.92,2-5.43,1.13-0.76-.44-1.29-0.75-1.36-0.38a0.89,0.89,0,0,0,.36,1C61.29,201.26,63,200.69,65.2,200.51Zm-1.63-1a4.89,4.89,0,0,0,2.49-1.63c0.52-.75.52-0.86,0.12-0.72-2,1-3.24,1.46-5,1.19-2.37-.36-2.46-0.06-0.9.93A3.44,3.44,0,0,0,63.57,199.48Zm-3.47-3c0.37-.27.46-1.38,0.17-1.45a1.16,1.16,0,0,0-.84.94c-0.12.6,0.32,0.75,0.68,0.51h0Zm3.66,0,0.63-.06c-0.32-2.78-3.32-2.9-3.87.28L61,196.69c0.62-2.54,2.43-2.47,2.77-.29h0Zm2-.45c0.92-.52.6-1.15-0.64-1.4-0.81-.19-0.77.48-0.35,1.38,0.21,0.45.36,0.37,1,0h0Zm-7.06-3.41a3.25,3.25,0,0,0-.28-1.11,16.45,16.45,0,0,1-1.52-8c0.09-2.3.11-3-.36-3-0.66.32-1.05,4.59-.21,8.15C56.91,191.12,58.72,194.23,58.68,192.54Zm0-3.48c-0.06-1.2.2-3.89,0.07-4.48a3.29,3.29,0,0,0-.88-1.65c-0.4-.29-0.5.26-0.36,1.71,0.32,3.38.86,5.94,1.17,4.42h0ZM59,182.91c0.26-.47.16-1-0.42-2.11-2.26-4.46-2.56-7.5-.19-8.61,0.26-.12.43-0.15,0.61-0.25,0.75-.42.46-1.17-0.65-0.86-3.08.86-3.69,3.77-1.09,9.16,1.32,2.69,1.53,3.06,1.75,2.67h0Zm0.56-2.53c0-.19.12-0.92,0.15-1.06a12.2,12.2,0,0,0-.61-1.44c-0.87-2.24-.89-3.17.06-3.82a1.28,1.28,0,0,0,.67-0.4,1.26,1.26,0,0,0-.12-1,2.17,2.17,0,0,0-2.23,1.57c-0.36,1.2,0,3,1.08,5.15,0.52,0.68.79,1.93,1,1h0Zm1-2.9c0.73-1.48,0-3.4-1-2.74-0.65.42-.68,0.87-0.28,2.1,0.48,1.5.77,1.6,1.25,0.64h0Zm2.55-4c0.29-.29,0-0.71-0.51-2.34-0.46-1.4-.25-2.36.63-2.63,1.26-.31,1.7,1.76,2,2.64,0.14,0.68.58,0.86,1,.39,0.11-.13.14-0.24,0-1-0.81-3.22-1.87-4.24-3.59-3.44s-1.38,2.4-.23,5.9a2.14,2.14,0,0,0,.37.86A1.11,1.11,0,0,0,63.14,173.52Zm1.4-1.09c0.38-.37.35-0.21-0.08-1.55-0.49-1.53-.75-1.85-1.28-1.32-0.32.32-.16,0.68,0.21,1.93,0.43,1.45.54,1.54,1.14,0.94h0Zm65.74-5.24c2.5-1.74,1.47-4.86-1.82-6-0.39-.14-0.82-0.3-1-0.37-1.51-.73-2.69-1-2.69-0.39,0,0.34.45,0.51,1.9,1.22,2.15,1.05,2.63,2.27,1.57,3.81-0.76,1.11.67,2.37,2,1.75h0Zm2.27-3.8c0.22-.89.54-1.66,0.69-2.18,0.21-.81-0.06-0.63-0.6-0.5-1.38.72-2.37,0.33-1.7,1.32C131.7,163.35,132.31,164.37,132.55,163.38Zm-0.17-3.12a3.18,3.18,0,0,0,.5-5,5.78,5.78,0,0,0-1.85-1,11.42,11.42,0,0,0-4.84-.46,0.47,0.47,0,0,0,0,.67,6.29,6.29,0,0,0,1.3.21c2.39,0.24,3.57,1,3.46,2.67s-1.52,2.44-4,1.88c-1.36-.3-2-0.16-1.45.17a12.76,12.76,0,0,0,3.41,1.15,5.27,5.27,0,0,0,3.51-.3h0Zm-8.25-.45c1.93-4.38,3-15.86-8.1-24.15l0.37,2.3a20.19,20.19,0,0,1,6.73,19.8ZM134,152a14.49,14.49,0,0,1-2.16,1.32c-0.53.24-.55,0.3,0.18,0.7a5.74,5.74,0,0,1,1.15.79,0.92,0.92,0,0,0,1,.42C134.15,154.55,134.37,152.39,134,152Zm-3.27.83c2.24-.71,3.44-1.8,3.18-3.62-0.37-2.66-2.59-3.23-6.73-2.19-2,.5-2.17,1.44-0.28,1,2.39-.61,4.26.31,4,2.08-0.15,1.52-1.36,2.41-3.49,2.41-1.12,0-1.47.1-1.32,0.51S129.81,153.09,130.73,152.8Zm-3.7-6.33c3.66-1.26,5.36-3.23,4.53-5.43-1-2.59-4.18-2.62-7.39-.21-1.5,1.11-1.27,1.52.18,1,1.88-.87,3.1-1,3.87-0.31,1.39,1.25.45,3.44-1.66,4.22-1,.43-1.35.66-1.35,1,0,0.49.18,0.37,1.83-.2h0Zm6.18,0c0.09-.77-0.77-3.43-1.14-2.82a5.3,5.3,0,0,1-.87,1.3c-1.26,1.14-1,.71.23,1.05C132.12,146.17,133.1,146.66,133.21,146.43Zm-9.68-5.69c3.7-2.16,5.11-5.25,3.2-7.3-1.72-1.84-4.58-.77-7.24,2.58-1.22,1.54-.3,1.34,1.34-0.12,1.91-1.7,4.34-.88,4.33,1.24,0,0.91-1.28,2.43-2.49,3.14a0.57,0.57,0,0,0-.3.78c0.14,0.24.44,0.08,1.16-.33h0Zm6.49-2.25c-0.19-.58-1.59-3.07-1.88-3-0.32.64-.34,1.48-0.72,2.16-0.52,1-.45.86,1.19,0.85,1.22,0,1.37.17,1.41,0h0Zm-10.88-2.82c3.11-3.25,3.38-7.06.47-7.93-1.61-.49-4.19.69-4.2,1.9,0,0.76.14,0.89,0.79,0.62,2.75-1,4.93,1.63,2.4,4.69-0.61.89-.7,1.11-0.52,1.29s0.38,0.13,1.06-.57h0Zm33.51-27.8V21.51H134.43L120,44.45l0,5.63c0,0.19.33,0.32,0.54,0.07,0.82-.64.5,0-0.44,1.48s-0.66,2.67.38,4.24c2.21,3.31,3.37,9.4,2.43,12.62a3.52,3.52,0,0,0-.2,2.38,2.62,2.62,0,0,0,1.2,1.69,130.89,130.89,0,0,1,15,8.37l0-40.48,5.58-5.39,5.89,5.68,0.21,66.83c0,0.71,2.13,1.34,2.13.3h0Zm-3.21-66.94L144.5,36.3l-4.88,4.56c0,21.77.12,66.45,0.12,66.45l4.85,0.35a8.33,8.33,0,0,0-.1-3.65c-0.68-4-.64-8.78.46-16.13a30.48,30.48,0,0,0-1-12.53,19.75,19.75,0,0,1-.77-7.73c0.34-3.91,1.41-6.86,1.54-12.49,0.07-3.21-.08-6.35,0-10.3,0-.53.27-0.46,0.31,0.08,0.15,3.58.29,7,.32,10.48-0.11,4.55-1.21,9.23-1.33,13.39a15.67,15.67,0,0,0,1.07,7.39c1.9,5.52.65,14,.63,14.14-0.8,5.43-1.39,12.38,1.33,17.57l2.63,0.24ZM115.48,82c1.46-.67,1.74-1.86,1-4.73-0.14-.51-0.3-1.12-0.35-1.35-0.17-.71-0.48-0.79-0.9-0.22-0.25.34,0,.41,0.37,2,0.58,2.38.24,3.17-.63,3.16s-1.39-.65-1.61-2.2a3.13,3.13,0,0,0-.31-1.1c-0.21-.35-0.47-0.29-0.67.1s0.23,2.59.9,3.6,1.22,1.23,2.26.74h0Zm-0.4-2.14c0.31-.59-0.07-2-0.27-3-0.18-.53-0.4-0.66-0.74-0.57-0.52.13-.49,0.7-0.3,1.63C114.14,79.85,114.35,80.09,115.08,79.86Zm4.43-3.44c1.67-1,1.82-2.61.71-5.61-0.46-1.23-1-2.1-1.35-2.11a3.16,3.16,0,0,0-.1,1.51c0.13,0.29.35,0.72,0.51,1.09,0.95,2.21.69,3.49-.22,4.18s-0.31,1.19.46,0.94h0ZM65,75.26c3.91-.84,7.43-7.17,9.65-12.81,2-5.68,4.17-11.93,4.51-17.14a3.72,3.72,0,0,0-1.66.38,8.41,8.41,0,0,0-.4,1.89,74.56,74.56,0,0,1-3.61,12.93,48.4,48.4,0,0,1-5.92,11.42,6.1,6.1,0,0,1-3.93,2.37,6.18,6.18,0,0,0-1.25.1c-0.3.21,0,.7,0.74,0.89a4.27,4.27,0,0,0,1.86,0h0Zm53.84-.74c0.6-.64.66-1.4,0-3-0.19-.45-0.27-0.7-0.5-0.64-0.47.13-1,1.38-.7,2.44,0.42,1.38.67,1.78,1.21,1.21h0Zm-55.2-1A6,6,0,0,0,67.26,71,42,42,0,0,0,72,62.44c0.88-2,2.48-6.39,2.91-8a80.63,80.63,0,0,0,1.84-7.93,1.54,1.54,0,0,0,0-.69,2.41,2.41,0,0,0-1.75.26A80.26,80.26,0,0,1,72.25,57c-1.57,5.47-6.05,14.22-8.5,14.63-1.31.22-2.82-.93-2.58-2.11a1.39,1.39,0,0,1,.6-1.18c0.85-.3,1.35.28,0.41,0.66-1.08.95,0.87,2.4,2.06,1.38,2-1.72-1-5-3.39-3.49-2.7,1.67-2,4.57-.31,6a3.74,3.74,0,0,0,3.07.63h0Zm19.14-3.93a17.13,17.13,0,0,0,3.84-6.76,105.26,105.26,0,0,0,4.21-19.1,3.7,3.7,0,0,0-1.74.16c-0.22.21,0,.42-0.62,4.54a80.26,80.26,0,0,1-4.65,17.13A21,21,0,0,1,82,69c-0.87,1.53-.55,1.92.72,0.61h0Zm37-13.08c-0.15-.08-0.14,0-0.21,0-0.23.16-.08,1,0.44,2.2,1.36,2.21,1.52,6.51,1.43,8.12a2.75,2.75,0,0,0,.07,1.19c0.14,0.42.4,0.91,0.81,0.09a17.13,17.13,0,0,0-1.11-9.21,7.46,7.46,0,0,0-1.42-2.42h0Zm1,9.38a13.83,13.83,0,0,0-.75-5.44c-0.22-.48-0.62-0.52-0.57,0,0,1.18-.12,3.41,0,4.07,0.59,1.38,1.06,2.26,1.32,1.34h0Zm-3.08-13.71h-0.64c0,2.22-1.93,2.84-2.65.17l-0.58.13c0.77,3.76,4.24,2,3.87-.31h0Zm-3.91,1.67c-0.33-1-.2-1.34-1-0.9-0.65.34-1,.7-0.12,1.14s1.38,0.38,1.17-.24h0Zm4.89-.57c0.27-.55.24-1-0.17-1s-0.4.25-.49,0.78c-0.16.95,0.23,1.12,0.65,0.26h0Zm0.34-3.69c0.25-.08.18-0.43,0.11-0.88-1.06-1.48-3.68-1-4.62-.73a2.17,2.17,0,0,1-2.1-.12c-0.61-.11-0.7,0-0.85.33a5.09,5.09,0,0,0-.2,1.61c0,0.72,0,1.06.24,0.83a6,6,0,0,1,3.73-2,7.46,7.46,0,0,1,3.68,1h0Zm-7.21,2c0,0.3.25,0.11,0.9-.3a5.77,5.77,0,0,1,5.72-.54c0.45,0.15.73-.32,0.24-0.73C116.36,48.07,113.42,49.33,111.89,51.61Zm8.52-9.11,12.75-21.25-71-.05L74.18,43.75a107.36,107.36,0,0,1,46.23-1.26h0Z" transform="translate(0.1 0.1)"/><path id="path4098-7-2-7" class="cls-3" d="M57.4,208.71c1.51-2.26,9,1.77,9.35,3.36,4.41-3.5,9.77-3.75,14.08.63,4.43-4.88,9.18-4.55,14.11-1.72-0.55-1.1,6.31-6,10.48-2.88l11.28,20.24-72.25.23C48.71,222.12,52.49,214.41,57.4,208.71ZM25.84,103.14c-0.39-1.1-2-12.34,2-12.62,6.5,2.9,14.8,13.29,18.65,19.64,4.77,7.87,9.58,26,6.92,25.17-0.38-.11,8.21,8.55,8.8,9.4,1,1.39-14.48,27.33-17,26.4-0.77-.28-5.92-3.38-5.92-3.38l0.15-8.65,0.12-17.46L25.4,140.39l0.5-3.8c4.75,0.39,9.62,1.29,14,.26,2.89-5.34,1.79-13.31-1.69-16.52-1.84-1.13-3.58-.77-5.45-0.53C25.2,118.53,29.13,105.65,25.84,103.14Zm126.82,5.78,0,3.19c-5,1.1-13.82-3.16-16.49,3.7,0.33,7.41,2,10.74,3.13,13,0.87,2,6.94-.28,9.07,1.75,6.13,7.61,4.69,17.74,4.74,26.87l-2.66,1.35C132.11,147.83,118,113.87,116,104.2,115.9,98,132.9,78,132.9,78s6.19,3.78,6.19,3.78S139,108,139,107.88C143.82,108.13,148.54,108.61,152.66,108.92ZM116.19,85c-21.45,37.82-12.68,65.8,3.11,89.95a5.12,5.12,0,0,1-1.52.18c-3.46-3.1-5.87-2.56-7.64-2.58-3.38-.05-4.31,1-6.25,1.16-5,.49-4.55.62-8.75-1a56.53,56.53,0,0,0-18-9.45c-4.53.41-11.43,2.57-14,.82,18.16-33.78,15.44-55.41-3.36-90.82,1.56,0.46,1.8,1.93,3,2.29,3.86,1.5,9.19.93,12.38-.47,5.07-2.33,10.49,3.93,26.07,10.81,1.27,0.66,2.88-.38,4.28-0.67,2.87-.59,5.34-1.83,7.48-1.1,0.69,0.23,3.32.86,3.32,0.86h0ZM72.89,40.84C72,39.1,62.51,21,62.51,21l70.34,0.43L122.3,38.89c-1,.95-6,3.6-11-2.4-0.09.86-7.5,6.19-13.87-.23-3.83,3.51-7.74,5.54-14.19,1.59-0.14,1.1-5.17,6-10.34,3h0Z" transform="translate(0.1 0.1)"/><path id="path4094-0-9-9" class="cls-4" d="M80.59,212.29c-6.82-6.44-13.91-.63-13.75-0.26-2.7-2.76-5.34-5-8.89-3.92,0,0,0-1,0-1,10.6,2,26.84,2.46,45.82-1.54l1,2.06c-5.09-1.82-7.71.64-10,3.51C86.63,206,84.63,210.52,80.59,212.29Zm15.9-74.91,4.82-.1c0.91,14.15,12.62,35.81,12.91,35.81-0.82-1.14-8.55-.24-8.49-0.1C101.46,161.55,96.79,150.11,96.48,137.38ZM68.36,171s-1.55-4.06-2.48-5.79c5.06-8.73,9.21-17.76,11.35-27.8l3.45,0C79.65,151.26,68.66,172.32,68.36,171Zm62-1.86c7.59-13.83,6.28-33.77-15.26-44.79,0,0,.56-14.61,2.16-14.65,0.36,0.11,9.75-.12,9.75-0.12,2.46-6.09,6.42-13.46,12-18.44l0.14,16.34c-4.09.41-6.59,1.73-7.83,5l-5.67,1.27c0.42,16.41,6.53,31.57,24.68,45.19-4.34,3.76-19.15,11.4-19.1,11.26ZM39.48,158.79l0.16-17c2.75-.6,4.92.21,7.19-4.77,0,0,3.81,1.83,5.08,2.5C48.35,145.95,45.27,152.82,39.48,158.79ZM75.6,128.68L75.79,120l8.12,0.24a16.27,16.27,0,0,0,0,8.78Zm18.53-.1c0.55-2.83,1-5.67-.2-8.67l8.8,0.15-0.21,8.6ZM77.41,111.69c-1.46-16.94-13-36.11-13.12-35.7,1.35,0.22,3.74.9,5.05,0.27a6.07,6.07,0,0,0,3-.06c0.11-.59,10.69,24.59,9.28,35.46-0.17.37-3.9,0.39-4.25,0h0Zm20.33,0.15c1.24-7.82,4.45-22.14,12-33.75a43.21,43.21,0,0,0,2.76,6.11c-5.71,8.38-9.22,18-11.35,27.73Zm-52.59-4.22C41.68,100.49,27.28,89.26,28,90.4c6-5.4,12.61-8.82,19.25-12.28,0,0,1.18,1.13,1,1.42-4.08,6.49-6.06,20.25-2.11,28.13,3.8,8.42,10.53,13.4,17.4,17.31a93.24,93.24,0,0,1-2.07,14.3s-4.31-2.29-7.85-3.77c-0.56-9.94-2.6-18.83-8.49-27.89h0ZM83.29,37.75c5.08,3.12,9.62,2.79,14-1.44a10.23,10.23,0,0,0,14,.42A9.63,9.63,0,0,0,121.21,40l-1.1,2.34c0.26-1.24-30.75-3.27-45.75,1a13.2,13.2,0,0,1-.78-1.78c1.31-.08,5.65,1.55,9.71-3.76h0Z" transform="translate(0.1 0.1)"/><path id="path4092-7-7-9" d="M61.48,20.41L74,44l0.55-.1c17.37-3.43,31.13-3.9,45.91-1.27l13.14-21.95C109.7,20.38,61.48,20.41,61.48,20.41Zm1.4,1,69.71,0.08L128.66,28c-2.35-.73-3.66.36-4,2.63a3.14,3.14,0,0,0-.83-0.19,2.4,2.4,0,1,0-.66,4.75,1.2,1.2,0,0,0,1,0c-2.86,2.43-4.49.79-5.83,0a3.39,3.39,0,0,1-4.95-.09c3.41,0.34,3.94-3.11,2.31-4.42A7.89,7.89,0,0,0,115,30a2.12,2.12,0,0,0,.46-2.72c-1-2.16-4.28-2-4.77.33a10.18,10.18,0,0,0-.2,1.08,2.63,2.63,0,0,0-2.25,4.06,2.93,2.93,0,0,0,2.68.91c-1.4,2-4.61,1.32-6-.33-2.27,2.69-4.85,2.36-6.15.92a2.8,2.8,0,0,0,2.29-.77,2.53,2.53,0,0,0-1.24-4.2,3.22,3.22,0,0,0-.67-0.15,4.14,4.14,0,0,0,.13-0.83c0.48-4-5.41-3.58-4.84.33a2.52,2.52,0,0,0,.19.7,2.59,2.59,0,0,0-1,.13c-3.27,1.52-1,5.72,1.51,4.64a9.14,9.14,0,0,1,1-.42c-3.13,3.92-5.77,1.14-6.46.72-2.12,3.17-5.79,1-5.87.79a3,3,0,0,0,1.57-.42,2.52,2.52,0,0,0-.13-4.51,4.36,4.36,0,0,0-1.77-.14,4.7,4.7,0,0,0,0-1,2.4,2.4,0,1,0-4.57,1.32,2,2,0,0,0,.38.57,8.38,8.38,0,0,0-.92.65,2.41,2.41,0,0,0,2.66,4c0.34-.18.67-0.56,0.76-0.54-1.23,2.28-3.11,3.07-5.78,1.19a2.92,2.92,0,0,1-5.1.22c2.51,0.23,4.14-4.63-.69-4.79-0.38-1.32-.36-3.33-3.42-3Zm34,8.35a1,1,0,1,1-1,1A1,1,0,0,1,96.91,29.76Zm15.58,0.12A1.07,1.07,0,1,1,111.43,31,1.07,1.07,0,0,1,112.49,29.88ZM82,31a1,1,0,1,1-1,1A1,1,0,0,1,82,31Zm43.74,1.27-0.89,1.59C123.83,33,124.5,31.91,125.69,32.32Zm-55.93,2.2-0.88-1.65A1,1,0,0,1,69.76,34.52Zm27-.9c6,6.89,11.35,4.85,14.86.27,1.5,3.9,4.86,6.6,10.63,4A18.23,18.23,0,0,1,121,39.6c-5.1,1.39-7.63-1-9.6-3.35-5.19,4.35-10.07,3.3-14.11-.54-3.44,4.38-9,5.32-14.17,1.75-2.36,3.52-5.74,4.94-10,3.18,0,0-.9-1.43-1-1.52,0.62,0.52,8.45,3.81,10.36-4.09,2.73,4.68,11.67,4.92,14.23-1.39h0Zm0.6,2.83c6.73,6.36,13.79.86,14,.47,0.11,0.35,3.95,5,9.48,3.25l-0.9,1.56c-10.42-1.78-20-2.93-42,.34a10.46,10.46,0,0,0,5.28-3.87C84.25,38.84,91.86,43.14,97.38,36.45ZM73.8,41.72s2.93,0.35,3.16.41-2.47,1-2.48.9Zm5.94,30.34a1.64,1.64,0,0,0-.77.57,2.42,2.42,0,0,1-1.75,1,6.62,6.62,0,0,0-2.55,1.49,2.18,2.18,0,0,1-1,.42l-1.22.21a2.59,2.59,0,0,0-.66.19,2.39,2.39,0,0,1-1.74.1,2.1,2.1,0,0,0-1.56.07,2.78,2.78,0,0,1-2.37,0,2.61,2.61,0,0,0-2-.29c-0.81.26-2.91-1-2.91-1.76A3.66,3.66,0,0,0,59.72,73c-1.06-.16-10.42,3.57-10.37,3.79C60.83,91.13,70.5,113,63.22,139.69l-1.29-.62a97.09,97.09,0,0,0,1.84-14.71c-21.55-9.4-23.41-31.27-15-45.08l-1.42-1.53C42.24,80.48,37.09,82,24.56,92.66l0,17.2c0,15.55,0,30.69,0,30.69,4.53,0.51,9.53.92,14.45,1.35,0,0-.06,15.37-0.18,21.39-0.1,5.09.09,4.77,0.09,4.77l16.31,8.69c-1.15-4.58,1.68-6.4,4.05-6.21-1-4.41,1.55-6.43,4.52-5.87,2,0.38,2.71,1.5,3.85,5.19l0.44,1.4,1.14,0c1.43-3.11,2.39-7.06,5.75-7.57,4.41-.67,6,2.39,6,5.45,4.27-3.8,9.38-.86,9.05,4.82,2.15-1.4,5.79-2.66,8.08,2.72,0.86-.18,1.3-1.15,2.51-1.46a8.77,8.77,0,0,0,1.48-.65v-0.19a14.82,14.82,0,0,1,2.23-.54c1.1,0.41.78,0.4,1.37-.34a5.19,5.19,0,0,1,2.55-.49,3.23,3.23,0,0,0,1.75-.08,1.65,1.65,0,0,1,2,.09,1.52,1.52,0,0,0,1.34.17,3.1,3.1,0,0,1,2.86,1.34,9,9,0,0,0,2,1.32l1.13-.26,0.13-.42,9.24-3.56c-18.84-20.85-18.35-48.5-13.91-62.5l1.7,0.83a56.13,56.13,0,0,0-1.8,14.6c17,7.64,25.4,27.4,15.12,44.65l1.09,1.42c4.28-1.82,15-7.92,18.76-11.24l0.79,0.07s2.26-1.48,3.25-2.26L154,111.34l-0.79.21-0.14-2.67-14-1.12a0.62,0.62,0,0,0,.35-0.46L139.36,82c-0.52-.8-12.23-7.74-16.59-9.36-0.17,0-.05.3,0,1,0.21,2.49-1.45,4.7-3.37,4.7-0.69,0-.81.3-0.78,1.73a3.82,3.82,0,0,1-2.79,4.16c-2.51.91-4.2-.41-5.6-5.62-0.37-1.37-1.08-1-1.77.84a44.92,44.92,0,0,1-2.1,4.37,4.46,4.46,0,0,1-2.4,1.8,5.08,5.08,0,0,1-3.75-.19c-1.92-1-2.67-2.17-3.22-5.11-0.07-.38-0.32-0.35-0.95.12-3.4,2.59-8.17-.09-8.14-4.56,0-1.31,0-1.36-.81-0.74-2.3,1.9-5.43.94-6.68-2.06-0.29-.7-0.45-1-0.68-1h0ZM60.22,73.65a3.69,3.69,0,0,1,1,1,10.19,10.19,0,0,0,2.58,1.73c0.09-.14,11.24,15,13.14,35.85l5.19,0c-1-20.27-6.5-30-9-36.26l1.86-.6c4.17,8.08,9.26,24.48,9.09,38.83H75.46A79.2,79.2,0,0,0,61,75.2c-0.54-.82-1-1.39-0.8-1.53l0,0h0Zm-3.28,2.14,0.87,2.76a1.92,1.92,0,0,1,.37-0.89c1.69-1.54,3.31.49,2.55,3.24l-0.51,2.52a25.48,25.48,0,0,0-2.56-1.16c-2.36-1-3.15-3-1.34-3.24,0.3,0,.92-0.07.92-0.07-0.75-.6-2.4-2-2.4-2Zm7.93,0.31a5.36,5.36,0,0,0,3.61.45,4.83,4.83,0,0,1,2.39-.07,7.12,7.12,0,0,0,1.52-.18,97.59,97.59,0,0,1,9.14,35.29l-4,0A85,85,0,0,0,65.24,77.18c-0.27-.41-0.62-1.06-0.37-1.08h0Zm16.67,0.19c1.54,0,3.16,1.57,4,4.12,0.49,1.42.68,1.33,1.34,1.1,1.69-.58,3.48,1.29,1.22,1.6s-1,4.75-1.14,5.14c-0.9.16-2.59-3.57-2.54-4.67,0.11-2.72-2.42-5-4-3.85-0.74.54-.66,0.92-0.89,0.73a2.49,2.49,0,0,1,0-3.19,2.59,2.59,0,0,1,2-1h0Zm45.89,0.94s0.09,3.57,0,4.36c-0.26,2.38-3.34,2.63-3.46.73a8.18,8.18,0,0,0-1,2.56l-2.18-1.52a11.46,11.46,0,0,0,2.23-1.87c-1.62.12-2.52-1.29-1.44-2.5,1.2-1.38,4.53-1.53,5.95-1.76h0ZM47.18,78.35l1,1.1c-8.6,15.41-5.57,35.1,15.19,45.44a65.52,65.52,0,0,1-1.85,13.94l-7.66-3.75c0.05-17.42-9.71-34-25.28-44.94A91.59,91.59,0,0,1,47.18,78.35h0Zm62.7,0.13c0.37,2,2.27,5.72,2.41,5.51,0-.12-7.93,10.24-11.37,27.57H98a97.48,97.48,0,0,1,11.9-33.08h0ZM134.26,79l1.56,1c-8.2,6.94-13.59,15.73-17.56,25.21l-2.07-1c6.15-13.75,12.22-19.86,18.07-25.18h0Zm2.19,1.54a7.56,7.56,0,0,1,1.73,1c0.77,0.43.58,0.65-.87,1.78-1.72,1.33-1.88,1.27-1.86-.63,0-1.26.32-2.1,0.93-2.16h0.08Zm-1.89,2a0.22,0.22,0,0,1,.21.1,8.29,8.29,0,0,1-.09,2.79c-0.16.75-2.37,2.63-3.15,3.37-0.31.21-.46,0.13-0.52-0.24,0-.59.08-1.38,0.09-2.17a0.79,0.79,0,0,1,.17-0.69c1.08-1.29,2.65-3.12,3.28-3.15h0Zm4.09,0.61h0a8,8,0,0,1,0,2.88,6.3,6.3,0,0,1-2.8-.34c-0.1-.3,2.33-2.56,2.74-2.54h0Zm-76.78.84,0.6,2.53s0.17-.34.21-0.41c1.19-1.83,2.63-.76,2.61,1.79a40.07,40.07,0,0,1-.73,4s-4.45-2.16-4.81-3.11a1.26,1.26,0,0,1,1-1.83,3.35,3.35,0,0,1,1,0l-1.91-2Zm51,0.34,2,0.75c-4.22,6.93-8.57,13.78-11.74,29.39H94.69a91.94,91.94,0,0,1,7.87-28.05s1.66-.52,2.6-0.82c0,0-7,16.19-7.82,26.61l4.09,0.09C103.62,102.07,107.71,91.55,112.88,84.25Zm-16,.25a1.86,1.86,0,0,1,1.91,2.2c0,1.31-.13,1.5-1.05,1a2.66,2.66,0,0,0-3.24.08c-0.6.43-1.18,0.79-1.18,0.79a7.79,7.79,0,0,1,1.32-3A3.67,3.67,0,0,1,96.83,84.5Zm-4.35,3.37A7.87,7.87,0,0,1,92,89.66s0.66-.26,1-0.41A2.21,2.21,0,0,1,96,91.39a2.41,2.41,0,0,1-2.35,2.27,2.29,2.29,0,0,1-1.41-.5c0.34,1.88.41,2.75-1,3.7a2.35,2.35,0,0,1-3.4-2.21L88,93.35l-1.15.15a2.28,2.28,0,0,1-.68-4.5,3,3,0,0,1,2.16.61,3.63,3.63,0,0,1,.16-3.45c1.63-1.92,4.22-.17,4,1.71h0Zm28.11-2.5c0.18,1.5.77,3.13,0.6,4.53-0.25,1.79-1.75,2.85-2.94,1.69-0.15-.14-0.41-0.44-0.41-0.44a8.3,8.3,0,0,0-.87,2.61l-2.09-1.3a10.81,10.81,0,0,0,1.85-1.61,1.49,1.49,0,0,0,.16-0.47,1.51,1.51,0,0,1-1.83-1.89c0.63-1.73,3.75-2.38,5.52-3.11h0Zm14.58,1.08a26.78,26.78,0,0,1,2.94.3c0.73,0.13.33,0.55-1.32,2.17s-1.46,1.35-2.63,1.33c-2.72,0-3.19,0-1.61-1.71a10.3,10.3,0,0,1,2.15-2,1.91,1.91,0,0,1,.46-0.06h0Zm-4.9.31a0.13,0.13,0,0,1,.09,0,5.29,5.29,0,0,1,.1,2.09c0,1.22,0,1.22-.51,1.86-0.64.81-1.18,1.65-1.85,2.43s-0.56.57-.91-1-0.15-1.95,1.75-4.11A3.48,3.48,0,0,1,130.28,86.77Zm8.49,0.85,0,3a51,51,0,0,0-12,18.65l-2-.79a57.11,57.11,0,0,1,13.94-20.88h0ZM90.15,89.44a1.7,1.7,0,1,0,1.68,1.69A1.68,1.68,0,0,0,90.15,89.44Zm0,0.53A1.17,1.17,0,1,1,89,91.15,1.17,1.17,0,0,1,90.14,90Zm-62.31.72c17.49,11.34,25.34,28.93,25.3,44l-1-.45c-1-21.35-12.5-34.47-24.91-43ZM131.4,90.85c0.4,0,.93.06,1.72,0.15,1.45,0.08,1.63.17,0.63,1.33-0.27.32-.8,1-1.17,1.48a4.16,4.16,0,0,1-1,1.09,21.88,21.88,0,0,1-3.57-.12c-0.24,0,.07-0.28,1.31-2.07,0.95-1.37,1.05-1.82,1.95-1.87h0.16Zm7.29,0.58s0.35,9.73.1,15.93c-4-.15-6.33,1.38-7.31,4.28l-4.19-2.1A55.12,55.12,0,0,1,138.69,91.43Zm-12.35.22c0.23,0,.36.48,0.42,1.41,0.26,1.67.23,1.87-.46,2.94-0.34.53-.82,1.29-1,1.68-0.4.68-.68,0.88-0.78,0.55-0.55-1.8-.72-2.92-0.52-3.29,0.32-.6,1.81-2.74,2-3a0.57,0.57,0,0,1,.37-0.29h0Zm-99.8.18c14.06,8.8,24.35,23.83,24.78,42,0,0-3-1.42-4.85-2.46l-0.1-1.76,1,0,0.31,2,2.15-.07-0.57-5-3.36.32L45.2,124l1-.22,0.56,1.81L49,125l-1.16-4.42-3.38.93-1.08-3,1.12-.41,0.91,1.79,2.06-.72-1.94-4.43-3.11,1.48-1.58-2.89,1.21-.65,1,1.72,1.92-1-2.38-4.08L39.6,111l-1.48-2.24,0.92-.65,1,1.18,1.69-1.21-2.59-3.52-2.82,2.23-2.09-2.44,1-.82,1.44,1.3,1.6-1.42L35.16,100l-2.69,2.48-2-1.76,1-1.1,1.25,1L34,99l-3.35-2.79-2.51,2.51-2.4-1.61V96A21.8,21.8,0,0,1,28.12,97l1.24-1.9-3.59-2.45Zm39.16,0.75,0.53,3.1c0.5-.84.91-1.43,2-1.1,1.31,0.54,1.33,2.54.22,5.59a10.11,10.11,0,0,1-.46,1.06,6.27,6.27,0,0,1-1-.51,9,9,0,0,1-2.84-2.28c-0.72-1.15-.74-2.77.59-2.63a4.86,4.86,0,0,1,.78.13l-2-2.57Zm-39.94.92L28.2,95.1,27.7,96l-1.93-.88V93.51Zm61,0.73c0.71,1-1.78,3.93,1.47,5.11a1.18,1.18,0,0,1-.6,1.09c-1.59,1.17-3.87-1-3.16-3.16C85,95.88,86.29,94.25,86.82,94.25Zm6.74,0.09s1,0.72,1.18.91c1.81,1.75,1.83,4.26.19,5.14a2,2,0,0,1-2.75-.74,0.56,0.56,0,0,1,.54-0.8c0.78,0,1.38-1.51,1.14-3.1C93.77,95.13,93.56,94.34,93.56,94.34Zm21.33,0.58a21.33,21.33,0,0,0,.52,3.1c0.95,2.67-.26,4.3-2,3.4a3.53,3.53,0,0,1-.7-0.71l-0.18,3.07L110,103c0.55-.89,1.33-1.52,1.92-2.52l-0.71,0c-1.51.05-2.06-1.64-.48-3a29.14,29.14,0,0,1,4.18-2.56h0Zm13.19,0.71,1.21,0c1.6,0,2-.22,1.31.79-0.28.39-.95,1.49-1.14,1.86-0.4.76-.48,1-1.16,1.14a23,23,0,0,1-3.19.11c-0.24,0,.26-0.85.53-1.37,0.68-1.28,1.09-2.15,1.68-2.42a1.77,1.77,0,0,1,.77-0.14h0Zm-4.95,1c0.19,0,.34.34,0.52,1.06,0.43,1.69.54,1.73-.15,3.12l-1.19,2.38c-0.63,1.26-.66,1.25-1.06.12-0.76-2.16-.83-1.94.43-4.36C122.46,97.42,122.85,96.64,123.13,96.62Zm-92.28.59L33.12,99l-0.64.63-1.25-.93-1.85,2,3,2.8L35,101l2.21,2.33-0.67.58-1.29-1.26-1.94,1.67,2.89,3.45,2.91-2.24,1.83,2.42-0.75.47L39,107.23l-1.9,1.33,2.36,3.36,3-1.72L44.1,113l-0.94.46-1-1.54-2.13,1.24,2,3.93,3.21-1.35,1.29,3-1,.4-0.82-1.8-2.16.86,1.45,4.12,3.25-.94,0.79,3.06-1,.28L46.62,123l-2.07.5,0.87,4.14,3.31-.21,0.39,3.35-1,0-0.26-2-2.11,0c0,0.7.09,2.14,0.09,2.14l-1.27-.6A46,46,0,0,0,25.82,99.7l-0.05-1.52,2.45,1.57s2.25-2,2.63-2.54h0Zm96.67,3c0.7,0,.39.54-0.46,2.19-1,1.84-1.12,1.87-2.91,2.31-2.17.54-2.11,0.66-.93-1.88a7,7,0,0,1,1.2-2.16c0.54-.43,1.6-0.26,2.75-0.44l0.36,0h0Zm-101.64.54c10.45,6.82,17.06,20.91,17.88,29.46a6.69,6.69,0,0,0-.85-0.46c-0.79-.37-1-0.61-1.22-1.77a43.58,43.58,0,0,0-15.76-25.58Zm94.26,1.75c0.44-.09,1.25,3.12,1,3.79-0.17.48-1.73-.66-2.29-0.9-0.28-.12,1-2.82,1.29-2.89h0Zm-50.41.15,0,3.33a5.56,5.56,0,0,1,.6-0.63,1.39,1.39,0,0,1,2,1.2c0.06,1.36-.14,1.92-1.22,3.81-0.33.59-.84,1.33-0.84,1.33a24,24,0,0,1-2.67-2.32c-1.51-1.52-1.22-3.54.1-3.55a3.42,3.42,0,0,1,1.09.24,20.4,20.4,0,0,0-1.34-2.88Zm40.86,2.49a12.53,12.53,0,0,1,1.47,3.3c0.75,2.28-.4,4-2,3.14a2.69,2.69,0,0,1-.57-0.49,17.28,17.28,0,0,0,.11,3.11l-2.52-.45a18.93,18.93,0,0,0,1.49-2.77,1.61,1.61,0,0,1-.85.12c-2.54,0-2-3,.92-4.74,0.44-.25,1.93-1.22,1.93-1.22h0Zm14.53,0c0.55,0,.29.51-0.32,1.76s-0.5,1.27-1.92.53c-2-1-1.87-1.13.65-1.82A6.89,6.89,0,0,1,125.13,105.15Zm-36,.41c2,0,3.45,2,3.16,4.81-0.5,4.83-.21,4.54.31,5,0.95,0.88-.34,1.41-1.47.57-0.79-.58-1-1.16-1-3.83,0-3.07-.12-3.85-1.21-3.58-0.68.17-.89,0.75-0.82,2.82,0.11,2.9-.08,3.63-1.18,4.56s-2.44.1-1.37-.51c0.49-.56.58-1.27,0.39-3-0.21-1.49-1.07-6.87,3.18-6.84h0ZM139,108c3.82,0.15,13.49.94,13.49,0.94l0.08,2.89c-0.43.27-7.65-.84-13-0.74-1.24,0-2.12.58-3,.11,0.86,0.36.78,4.72-3,3.66-3.22-1.17-1.65-5.57,2.47-6.68A18.54,18.54,0,0,1,139,108h0Zm-22,1.93,8.26,4.12c1.16,15.68,6.51,32.24,24.75,44.79a100.91,100.91,0,0,1-18.84,11l-0.69-.75c10.06-17.29,2.46-36.31-15.15-44.93A69.23,69.23,0,0,1,117,109.93Zm29.06,2.63c1.58-.06,2,0.12,2.13.85a0.81,0.81,0,0,0,1.23.63c1.45-.54,2.34,2.07,1.14,3.23-0.75.72-.62,1,0,1,1.52,0,1.47,2-.07,3.16-0.64.47-.63,0.69,0,1,1.12,0.56.9,1.67-.53,2.58-0.77.5-.8,0.62-0.16,0.79,1.61,0.44,0,2.76-1.8,2.35a2.6,2.6,0,0,0-2.1.44c-1.89.79-2.2,1-4.24,0.7-1.79-.33-2.59-0.93-3.05-2.52-1-3.23-2.18-6.81-2.19-10.33-0.16-2.16,3.43-4.12,5.13-4.21,1.38-.21,3,0.3,4.48.31h0Zm-113,.05a3.48,3.48,0,1,1-3.44,3.47A3.46,3.46,0,0,1,33.05,112.61Zm38.21,1-0.31,3,0.62-.5a1.24,1.24,0,0,1,2,1.27A13.83,13.83,0,0,1,71,122.2s-2.84-3.13-3.14-3.74c-0.67-1.36.25-2.78,1.47-2.17a7.91,7.91,0,0,1,.68.46l-0.9-2.88Zm-38,.24c-1.22,0-2.37.8-2.21,1.8,0.1,0.43.75-.19,1.39-0.6a1.71,1.71,0,0,1,1.63-.12,2.45,2.45,0,0,1,1,1c0.24,0.3.51,0.55,0.66,0.4a0.63,0.63,0,0,0,0-.54,2.35,2.35,0,0,0-2.5-1.94h0Zm92.59,0.47L127.1,115c1.65,22.15,12.74,35.18,24.39,42.94l-0.93.56a54.81,54.81,0,0,1-24.69-44.14h0Zm1.86,0.91s3.09,1.6,4.7,2.33l0.06,2-1.08,0L131,117.75l-2.24.16,0.7,4.64,3.62-.45,0.51,2.8-1.23.26-0.63-1.72-2.08.51,1.34,4.5,3.26-1.06,1,2.94-1.09.4-0.7-1.73-2.15.76,1.66,4.4,3.4-1.1,1.37,2.75-1,.46-1-1.71-2,1.05,2.39,4.11,3.07-1.63,1.43,2.19-1.13.76-1-1.34-1.65,1.1,2.64,3.65,2.64-2,2,2.3-0.87.78-1.35-1.38-1.6,1.44,3.15,3.49,2.73-2.4,1.94,1.83-0.57.61-1.31-.82-1.73,1.86,3.3,2.91,2.62-2.91,2.22,1.66V153l-2-1-1.33,2,3.32,2.54,0,1c-18.95-11.43-23.94-29.15-24.9-42.33h0Zm-38.8.22c0.82,0,1.68.75,3.11,2.43,4,4.68,2.93,11.91-2.29,15.68-0.76.55-1.07,0.5-2-.31-5.35-4.65-5.66-10.87-.9-16.33,0.82-.94,1.43-1.45,2.07-1.47h0Zm19.14,0.64c1,1.53,2.23,3.1,2.37,4.95-0.07,1.83-1.29,2.17-2.56,1.1a9,9,0,0,0,.38,2.84l-2.29-.25a7.76,7.76,0,0,0,.93-2.58,1.58,1.58,0,0,1-2.59-1.52c0.45-2,2.08-3.35,3.75-4.55h0ZM89,117.31a1.41,1.41,0,0,0-.68.39,10,10,0,0,0-3.06,4,8.51,8.51,0,0,0,2.29,9.25c1.37,1.37,1.86,1.28,4-1.56a8.28,8.28,0,0,0,1-8.1,8.92,8.92,0,0,0-2.65-3.48,1.53,1.53,0,0,0-.92-0.5h0Zm44,0.57,1.78,0.88c2.27,15.11,9.61,24.33,17.85,30.68l0,1.4-2.21-1.73-2.65,2.8-2.14-1.78,0.8-.79,1.22,0.79,1.56-1.77-3.07-2.77-2.68,2.35-2.23-2.32,0.68-.57,1.54,1.36,1.73-1.55-3-3.39-2.67,2-1.86-2.5,0.81-.49,1,1.35,2.06-1.3-2.18-3.39-3.11,1.61-1.59-2.89,0.9-.44,1,1.63,1.93-.94-1.95-4-3.17,1.06-1.17-3.14,0.91-.34,0.8,1.86,2.15-.7-1.46-4.3-3.28.94-0.81-3.16,1-.22,0.53,1.71,2.26-.46-0.83-4.09-3.36.43a30.5,30.5,0,0,1-.6-3.28l1-.09,0.33,1.8,2.26-.08Zm-43.93.33c1.23,0.17,2.73,2.57,3.07,3.44a7.68,7.68,0,0,1,.11,5.26A11.86,11.86,0,0,1,89.46,131c-0.74.41-1.36,0.11-2.42-1.35-2.09-2.88-2.5-6.34-.85-8.71,1.26-1.81,2.2-2.78,2.94-2.77h0ZM135.43,119l0.89,0.43c1.1,8.75,6.23,20.77,16.33,28v1.1c-7.86-5.7-15.07-15.53-17.23-29.48h0Zm-46.47.6c-3.52,2.68-3,6.88-.29,9.7C91.55,127.34,92.56,122.15,89,119.55Zm-53.7.18c2,0,3.24.65,3.85,2a12.93,12.93,0,0,1,1.26,3.7c0.11,0.65.28,1.63,0.38,2.17,1,5.87.27,8.08-3.25,9a8.14,8.14,0,0,1-3.55.11c-0.27-.07-1.25-0.07-2-0.1a3.68,3.68,0,0,1-2.78-.85,1.86,1.86,0,0,0-.88-0.46c-1.76-.28-2.28-1.91-0.95-3.11,0.76-.69.84-0.78,0.77-0.89a1.42,1.42,0,0,0-.72-0.12c-1.77,0-1.76-1.86,0-3.17,0.85-.63,1.23-1.22.67-1.07-1.62.39-2.19-2-.5-2.74,0.9-.51,1.55-0.93.68-1a0.92,0.92,0,0,1-1.1-1.12,2.54,2.54,0,0,1,2.6-1.22,2.1,2.1,0,0,0,1.73.09,4.73,4.73,0,0,1,2.34-1.18,10.85,10.85,0,0,1,1.46-.08h0Zm59,0.45,8.16,0.16-0.24,8.08-7.68-.15a10.55,10.55,0,0,0-.23-8.1h0ZM76,120.37l7.81,0.1a12.48,12.48,0,0,0-.33,7.94l-7.65-.12Zm13,0c2.1,1.24,2.68,5.74-.24,8C86,125.54,86.57,122,89,120.38Zm-19.27,3.51,2.09,0.2-0.75,3a2.5,2.5,0,0,1,.45-0.39c2.69-1.28,2.88,1.62.15,4.23-0.61.58-1.58,1.37-1.58,1.37s-0.76-1.16-1.37-2.22a4.93,4.93,0,0,1-1-2.79,1.25,1.25,0,0,1,1.87-.92,8.71,8.71,0,0,1,.7.66Zm37.39,2.22s0.88,0.91,1.41,1.5c1.85,2,2.17,4,1.23,4.54a1.62,1.62,0,0,1-2-.41,12.68,12.68,0,0,0,1.11,3.14l-2.76.45a18,18,0,0,0,.62-3.5,6.22,6.22,0,0,1-.82.55c-1.8.67-2.7-1.4-1.21-3.47a21.45,21.45,0,0,1,2.37-2.8h0Zm37.71,3.83a3.39,3.39,0,1,1-3.35,3.39A3.37,3.37,0,0,1,144.86,129.94Zm1.65,1.55a1.28,1.28,0,0,0-.28,1.11,1.77,1.77,0,0,1-2.79,1.43c-0.55-.28-1-0.71-1-0.38a3.92,3.92,0,0,0,.76,1.39c1.16,1.05,4,.8,3.92-1.65,0-1.16-.34-1.95-0.59-1.89h0Zm-60.9,1.27a1.5,1.5,0,0,1,1.12.44c0.92,0.63,1.09,1.44,1.15,4.49,0.05,2.69,0,2.76.44,3.08,1.08,0.8,1.72-.42,1.42-3.15s0.64-4.53,2.21-4.52c0.77,0,.92.46,0.33,1s-0.77,1.37-.57,2.89c0.5,3.89.07,5.8-1.55,6.59a3,3,0,0,1-4.24-2.28,18.15,18.15,0,0,1-.07-4.74c0-1.69,0-1.88-.59-2.85-0.41-.65-0.1-1,0.36-1h0ZM43.18,134a2.78,2.78,0,0,1,2.48,1.75c1.4,2.92-1.63,5.31-4.41,5.5A110.6,110.6,0,0,1,25.86,140l0.08-2.76c4.44,0.26,9.45.62,14.84,0.88-0.61-2.56.84-4.09,2.4-4.1h0Zm25.35,0.56,2.68,0.6L69.51,138a1.64,1.64,0,0,1,1.36-.19c1.09,0.4,1.11,1.8.31,3.11a12.65,12.65,0,0,1-3.63,2.78c-0.68-1.48-2.19-4.08-1.59-5.5a1.45,1.45,0,0,1,2-.71c0.27,0.16.79,0.43,0.79,0.43Zm6.34,0.08,8.18,0.1c-1.19,8.36-3.51,19.52-8.1,28.61l-1.93.5a95,95,0,0,0,8-27H76.93c-2.35,10.17-5.83,19.6-11.18,27.78l-2.38-.78c5.72-9.16,10.25-19.39,11.51-29.22h0Zm18.65,0.15h9.12c1.68,17,7.37,28.63,15.83,40.12a1.73,1.73,0,0,1-.85,0,5.28,5.28,0,0,0-3-2.12c-7.12-10.35-11.89-24.83-13-35.9H96.17c0.62,13.91,4.43,25.31,9.5,36.35l-2.75.51c-4.07-9.88-8.54-18.48-9.39-38.94h0Zm14.19,2.1c0.75,0.59,1.56,1.16,2.32,1.72,2.05,1.46,2,4.21,0,4.19l-0.7,0s0.82,1.8,1.33,2.72c-0.83.22-2.57,0.55-2.57,0.55a22.32,22.32,0,0,0,.2-3.24,2.56,2.56,0,0,1-.61.51,1.71,1.71,0,0,1-2.28-2c0.22-1.86,2.28-4.43,2.28-4.43h0Zm-60.9.33,4.49,2.25c-3.06,7-6.56,13.62-11.62,18.63l0.13-16.26C42.57,141.8,45.41,141.77,46.81,137.25Zm30.68,0.26h2.76C79,150.49,70.55,168,69,170.16l-0.52.4s-1.09-4-2.36-5.41C70.86,158.63,75.87,146.09,77.5,137.51Zm19.41,0h4.17c1.3,10.34,4.46,21.51,12.48,35.08a2.61,2.61,0,0,1-1.42-.29c-1.37-.86-2.32.28-3.13,0.23a7,7,0,0,0-2.8.17A96.14,96.14,0,0,1,96.91,137.51Zm-45,2.32,1.49,0.71C50.16,148,47.29,154,39.7,161.27l0-2.17C45,153.88,48.6,147,51.87,139.83h0Zm2.17,1a19.12,19.12,0,0,1,2.17,1.07c0.22,0.09.16,0.29,0.16,0.5-0.28.71-1.52,1-2,1.16s-1.13.28-1.23,0.3c-0.65.15-.44-0.5,0.26-1.94a2.33,2.33,0,0,1,.63-1.1h0Zm3,1.59a7.81,7.81,0,0,1,2.63,1.34c0.14,0.43-.25,1.1-0.82,2.34-0.87,1.91-1,2-1.31.38,0-.27-0.31-1.16-0.46-1.76-0.37-1.38-.4-2.17,0-2.31h0ZM60.27,144s1,0.51,1.39.74c-4.67,14.14-17.11,25.83-17,25.56l-1.94-1.15A66.91,66.91,0,0,0,60.27,144h0Zm-4.94.2c0.45,0,.06.57-0.55,1.93s-0.77,1.8-1.31,2a20.05,20.05,0,0,1-2.88.47c-0.42.07-.25-0.25,0.41-1.59,0.76-1.57.81-1.9,2-2.22a17,17,0,0,1,2.33-.6h0ZM57,147c0.48,1.75.47,2.1,0.15,2.7-0.6,1.14-1.39,2.47-1.61,2.83-0.54.9-.7,0.71-1-1.48a7.52,7.52,0,0,1-.23-2.56c0.27-.67,1.08-2.25,1.54-3.17C56.45,143.37,56.8,146.84,57,147Zm8.6-1.53L68,146.3l-1.92,2.34a5.54,5.54,0,0,1,.9-0.11c1.93,0.13,1.61,2.07.11,3.24a26.83,26.83,0,0,1-3.67,2c-0.33-1.73-1-2.84-.84-4.62,0.11-1,.2-1.82,1.36-1.85,0.61,0,.86.6,1.26,1.11Zm44.42,2.1a21.34,21.34,0,0,1,2.84,1.83c1.78,1.39,2.09,3,.31,3.65a3.28,3.28,0,0,1-.79,0,16.49,16.49,0,0,0,1.66,2.15,8.68,8.68,0,0,1-2.32,1s-0.23-2.15-.44-3a2,2,0,0,1-.53.65c-1.72,1.08-3.07-1-2.14-3.53a14.34,14.34,0,0,1,1.42-2.84h0Zm-18.89.36c4.29-.11,1.78,7-0.37,6.54,0-.06,1.77-4.2-0.66-4.86-1.12-.3-0.15-1.69,1-1.68h0Zm-7,.5c1.33,0,2.3.94,1,1.54-2,.94-0.81,3.2-0.77,4.47,0,0.78-1.79-.68-2.17-2.27-0.5-2.05-.27-3.57,1.91-3.75h0Zm-31.74.75a1.26,1.26,0,0,1,.59.08c0.13,0.33-.47,1.38-1.35,2.72a2.91,2.91,0,0,1-.95,1.08,5.89,5.89,0,0,1-2.42.34c-1.18,0-1,0,.33-2.06a9.1,9.1,0,0,1,1.3-1.91,15.52,15.52,0,0,1,2.49-.26h0Zm1.55,1.48c0,2.57.86,3.41,0.23,4.22A35.64,35.64,0,0,1,52,158c-0.61.74-.54,0.6-0.7-1.33a8.75,8.75,0,0,1-.06-2.76c0.52-1.26,1.13-1.86,1.78-3.2,0.5-1.08.88-.9,0.88,0h0ZM87.74,152c1.25,0,2,1.36,2,2.58l-0.05,1.18c1.61-.62,3.61,0,3.7,1.58,0.15,2.71-1.82,2.39-3.49,2.28,0.17,0.06.41,2.45-.58,3.36-1.56,1.76-4.46,0-3.73-2.62a5.51,5.51,0,0,0,.18-0.87,6.4,6.4,0,0,1-1.41.36c-3.16-.14-2.92-4.65.26-4.12a6.85,6.85,0,0,1,1.09.27s-0.07-.29-0.18-0.69c-0.46-1.74.51-3.32,2.26-3.3h0Zm63.22,0.8,1.7,1v1.92l-2.42-1.81ZM48.82,154.06c0.67,0,1.2,0,1.1.21a14.68,14.68,0,0,1-2.34,3.35c-0.74.8-.85,0.69-2.66,0.6-0.71,0-1.18,0-1.16-.23,0.83-1.11,2-2.53,2.78-3.72A12.29,12.29,0,0,1,48.82,154.06Zm1.66,0.9c0.13,0,.16.27,0.16,0.87s0.06,1.85.13,2.45c0.12,1.1.12,1.1-.35,1.76s-1.15,1.53-1.88,2.24c-1.1,1.23-1,1.3-1-1.33,0-2.06-.14-2.06.27-2.55,0.23-.27.93-1.13,1.39-1.81A5.42,5.42,0,0,1,50.48,155h0ZM61,155.32l2.27,1.22L61,158.87a6.52,6.52,0,0,1,.76,0c1.46,0.29,1.35,1.85-.12,3a35.16,35.16,0,0,1-4,1.71,31.35,31.35,0,0,1-.33-3.93,2.89,2.89,0,0,1,.57-1.92,1.21,1.21,0,0,1,1.71-.08,3.15,3.15,0,0,1,.64.8Zm26.75,0.79a1.63,1.63,0,1,0,1.61,1.63A1.62,1.62,0,0,0,87.73,156.12Zm25.34,0.38a17,17,0,0,1,4.3,2.36c1.25,1.05.66,2.79-.58,2.82-0.09,0-.62-0.08-0.62-0.08,0.42,0.65,1.83,2.23,1.83,2.23l-2.29.94s-0.37-1.78-.65-2.79c-0.8,1.87-2.77.65-2.9-.51-0.32-1.7.4-3.37,0.91-5h0Zm-25.34.14a1.13,1.13,0,1,1-1.12,1.13A1.12,1.12,0,0,1,87.73,156.64ZM43.95,159c0.8,0,1.8,0,2.24.06,0.34,0.26-.37,1.08-1.75,2.54-1.1,1.17-1.26,1-2.6,1-2.24,0-2.3,0-1.27-1.15a12.62,12.62,0,0,1,2.3-2.4,5.94,5.94,0,0,1,1.06-.07h0Zm2.73,1.14c0.24,0,.17.56,0.13,1.95l-0.06,2.34L45,166.08c-2,1.82-1.78,1.94-1.76.23a8,8,0,0,1,.29-2.91c0.88-1.07,1.8-2,2.8-3a0.92,0.92,0,0,1,.35-0.26h0ZM91,160.67c0.49,0,1.72,2.1,2,3.89,0.71,4.1,3.13,6,4.84,4.39,0.69-1,.77.09,0.74,0.59-0.36,5.19-6.18,3-6.84-2.12-2,1.34-3.95-1.37-2.73-1.32,2.88-.92,2.09-3.6,2-5.43h0Zm-6.74,0c0.28,1.79-2.92,4.87-4.72,2.71-0.92-1.1-.08-3.36,1.08-2,1.29,1,2.54-.15,3.63-0.75h0Zm-44,2.46c0.66,0,1.61.11,2,.05,0.59,0.06.17,0.35-1.1,1.52-1.09,1-1.41,1.46-1.53,1-0.06-.68,0-1.49,0-2.45a1.1,1.1,0,0,1,.64-0.14h0Zm14.92,1.19,2,1.44-1.94,1.8c1.74-.09,1.89,1.56,1.23,2.48-0.43.64-2.07,1.32-3.72,1.59l-1.8.28s0-.77-0.06-2.05c-0.06-2.62.12-3.66,1.12-4.17a1.91,1.91,0,0,1,2.22.88,5.69,5.69,0,0,0,.36.61Zm-12.57.14h0c0.11,0.15-.29,4.42-0.29,4.42l-2.83-1.61s2.86-2.76,3.1-2.81h0Zm74.88,0.5c2,1,3.53.77,4.88,2a1.59,1.59,0,0,1,0,2.73,3.31,3.31,0,0,1-1,.05,14.69,14.69,0,0,0,2.27,2l-2.48,1s-0.34-1.69-.65-2.61a1.78,1.78,0,0,1-2.85.69c-0.62-.48-0.87-2.08-0.58-3.47,0.08-.37.47-2.42,0.47-2.42h0Zm-13.25,39.74c-24.46,5.86-44.34,2.24-46.31,1.54l-1.56,2.35c-0.19.4-.31,1.59-1.36,1.92l-1.59,2.39,0.31,0.33-1.41,1.24,0.34,0.41-1,1.5-0.4,0L48.87,220l0.36,0.41L43.8,229l73.5,0c-4.27-8.14-8.84-16.13-13.07-24.3h0Zm-0.44,1.06,0.44,1.23c-1.22-.15-2.63-0.23-4.08-0.29C101.41,206.48,102.68,206.15,103.79,205.81Zm-4.27,1.07a12.42,12.42,0,0,0-4.81,3.76,12.71,12.71,0,0,0-5.07-2.26Zm-41.3.6,1,0.12a0.94,0.94,0,0,1-.6.22A1.23,1.23,0,0,1,58.21,207.47ZM105,208.08l0.66,1.32c-1.59-.85-8.4-2.81-10.33,4-2-2.78-10.42-6.8-14.67,1.76-1.21-2.32-8.25-9-14.67-.49-2.53-5.29-4.64-5.73-9.29-5,3.3-3.21,7.94.13,9.91,2.86,5.54-4.64,10.17-3.25,14.22.53,5.22-5.75,10.43-4.36,14.09-1.48,2.57-3.83,5.09-5,10.08-3.53h0Zm-42.76,0c3.29,0.45,6.58.65,9.87,0.82a15.52,15.52,0,0,0-5.41,2.74,12.65,12.65,0,0,0-4.46-3.55h0ZM86,208.65a24.48,24.48,0,0,0-5.28,3.49A16.48,16.48,0,0,0,75.46,209,72.44,72.44,0,0,0,86,208.65h0Zm21.07,2.72s-0.66.11-.88,0.17a2.5,2.5,0,0,0,.72,4.92,9.94,9.94,0,0,0,1-.11c-0.06,2.8.79,3.49,3.62,3.33l4.8,8.68-71-.31,4.51-7.29c2.27,0.27,3.69-1,3.19-3a12.29,12.29,0,0,0,1.79.43c2.57,0,3.23-4,.77-4.66-0.27-.08-1-0.15-1-0.18,1.13-2.84,4.22-1.16,5.1,0a3.1,3.1,0,0,1,5.14,1.23s-0.37-.21-0.49-0.29c-2.33-1.73-4.51,1.85-2.22,3.5a3,3,0,0,0,.7.3,2.69,2.69,0,0,0-.53.66,2.64,2.64,0,0,0,3,3.84c1.77-.7,1.8-2,1.8-3.53,0,0,.61,0,1.16.05,2.13,0,2.74-2.73,1.43-4a3.34,3.34,0,0,0-2.08-.73c2.45-2.43,4.11-.75,5.84.37,0.26,0,3-3.33,6.26-.07A2.49,2.49,0,0,0,76.46,217c0,1.07.79,2,2.43,2.09a4.66,4.66,0,0,0-.3,1.46,2.46,2.46,0,0,0,3,2.57,2.5,2.5,0,0,0,2-3.2A1.86,1.86,0,0,0,83,219.1a2.4,2.4,0,1,0,.79-4.73,2.45,2.45,0,0,0-2,.9c1.76-3.63,5-2.9,6.17-1.42,1.65-1.21,3.92-2.86,6.64.08A3.71,3.71,0,0,0,93,214a2.25,2.25,0,0,0-.46,4.19,3.57,3.57,0,0,0,1.7.35,2.59,2.59,0,0,0,3.79,2.87c1.3-.8,1.63-2.68.23-4.4,2.36-.11,2.59-3.08,1.23-4.12-1.07-.82-2.33-0.43-3.24.65-0.29-.85,2-3.82,5.33-1.68,1.74-1.48,3.48-1.93,5.46-.46h0Zm1,2.32,0.92,1.69A1.07,1.07,0,0,1,108.12,213.68Zm-11.91,1.72a1.06,1.06,0,1,1-1,1.06A1.05,1.05,0,0,1,96.21,215.41Zm-43.11.06c0.14,0.57.2,1.13-.82,1.24Zm12,1a1,1,0,1,1-1,1A1,1,0,0,1,65.11,216.49ZM81,216.79a1,1,0,1,1-1,1A1,1,0,0,1,81,216.79Z" transform="translate(0.1 0.1)"/><path id="path153-6-3-1-9-0-4-7" d="M48.06,26.47C40.71,37,32.85,43,32.72,51.19c0,2.65,1.39,7.16,5.87,8,2.91,0.56,6.91-1.8,7-6.59,0-1,1-.93,1,0.38a27.2,27.2,0,0,1-3.34,11.75h9.63A27.2,27.2,0,0,1,49.54,53c0-1.31,1-1.33,1-.38,0.08,4.79,4.09,7.15,7,6.59,4.48-.86,5.91-5.37,5.87-8C63.27,43,55.41,37,48.06,26.47h0Z" transform="translate(0.1 0.1)"/><path id="path153-6-3-1-8-6-4-8-4" d="M130.52,223c-7.35-10.49-15.21-16.53-15.34-24.72,0-2.65,1.39-7.16,5.87-8,2.91-.56,6.91,1.8,7,6.59,0,1,1,.93,1-0.38a27.2,27.2,0,0,0-3.34-11.75h9.63A27.2,27.2,0,0,0,132,196.46c0,1.31,1,1.33,1,.38,0.08-4.79,4.09-7.15,7-6.59,4.48,0.86,5.91,5.37,5.87,8-0.13,8.19-8,14.22-15.34,24.72h0Z" transform="translate(0.1 0.1)"/></g></svg>