<svg id="Layer_1" data-name="Layer 1" xmlns="http://www.w3.org/2000/svg" viewBox="0 0 178.78 249.65"><defs><style>.cls-1{fill:#fff;}</style></defs><title>14_C</title><g id="g5120"><g id="rect6355-6-85-9-3-2"><rect class="cls-1" x="0.5" y="0.5" width="177.79" height="248.65" rx="8.5" ry="8.5"/><path d="M169.68,249.55H8.9a9,9,0,0,1-9-9V8.9a9,9,0,0,1,9-9H169.68a9,9,0,0,1,9,9V240.55A9,9,0,0,1,169.68,249.55ZM8.9,0.9a8,8,0,0,0-8,8V240.55a8,8,0,0,0,8,8H169.68a8,8,0,0,0,8-8V8.9a8,8,0,0,0-8-8H8.9Z" transform="translate(0.1 0.1)"/></g><g id="path147-0-8-1-6-1-1-0-9-1-8"><path d="M89.29,105.92c-7.82.17-11.33,9-5.53,15.81,0.84,1,.93,1.57-0.61.61-3.9-2.61-11.38-.89-11.76,7.08-0.47,9.82,13.25,12.65,15.83,2.21,0.14-1.1,1-1.08.82,0.49a32.5,32.5,0,0,1-3.38,12.08h9.3a32.5,32.5,0,0,1-3.38-12.08c-0.22-1.56.68-1.59,0.82-.49,2.58,10.44,16.3,7.61,15.83-2.21-0.38-8-7.86-9.69-11.76-7.08-1.54,1-1.45.39-.61-0.61,5.79-6.84,2.28-15.64-5.53-15.81h0Z" transform="translate(0.1 0.1)"/></g><g id="path147-6-9-8-7-0-5-0-8-3"><path d="M164.47,209.2c3.13-.07,4.53-3.74,2.21-6.59-0.34-.42-0.37-0.65.24-0.25,1.56,1.09,4.55.37,4.7-2.95,0.19-4.09-5.3-5.27-6.33-.92-0.05.46-.41,0.45-0.33-0.2a14,14,0,0,1,1.35-5h-3.72a14,14,0,0,1,1.35,5c0.09,0.65-.27.66-0.33,0.2-1-4.35-6.52-3.17-6.33.92,0.15,3.32,3.14,4,4.7,2.95,0.62-.4.58-0.16,0.24,0.25-2.32,2.85-.91,6.52,2.21,6.59h0Z" transform="translate(0.1 0.1)"/></g><g id="path41-6-3-5-1"><path d="M6.07,37.75V35.5H8.22l4.57-24.07h2.6l5,24.07h1.73v2.25h-5.9V35.5h1.59L17.2,31.81h-6L10.79,35.5h1.59v2.25H6.07Zm10.62-8.57L14.11,16.3,11.68,29.18h5Z" transform="translate(0.1 0.1)"/></g><g id="path41-6-4-0-2-8"><path d="M156.43,211.7V214h2.14L163.14,238h2.6l5-24.07h1.73V211.7h-5.9V214h1.59l-0.64,3.69h-6L161.15,214h1.59V211.7h-6.31Zm10.62,8.57-2.59,12.88L162,220.27h5Z" transform="translate(0.1 0.1)"/></g><g id="path147-6-9-8-7-4-5-6-8-9"><path d="M14.11,40.25C11,40.32,9.58,44,11.89,46.84c0.34,0.42.37,0.65-.24,0.25C10.09,46,7.1,46.72,6.95,50c-0.19,4.09,5.3,5.27,6.33.92,0.05-.46.41-0.45,0.33,0.2a14,14,0,0,1-1.35,5H16a14,14,0,0,1-1.35-5c-0.09-.65.27-0.66,0.33-0.2,1,4.35,6.52,3.17,6.33-.92-0.15-3.32-3.14-4-4.7-2.95-0.62.4-.58,0.16-0.24-0.25,2.32-2.85.91-6.52-2.21-6.59h0Z" transform="translate(0.1 0.1)"/></g></g></svg>