<svg id="Layer_1" data-name="Layer 1" xmlns="http://www.w3.org/2000/svg" viewBox="0 0 178.79 249.65"><defs><style>.cls-1{fill:#fff;stroke:#000;stroke-width:1px;}.cls-2{fill:#d40000;}</style></defs><title>14_D</title><g id="g6708"><rect id="rect6367-6" class="cls-1" x="0.5" y="0.5" width="177.79" height="248.65" rx="8.5" ry="8.5"/><path id="path6399-9" class="cls-2" d="M14.11,56.2a45,45,0,0,0-5.79-8,45,45,0,0,0,5.79-8,45,45,0,0,0,5.79,8A45,45,0,0,0,14.11,56.2Z" transform="translate(0.1 0.1)"/><path id="path6403-1" class="cls-2" d="M164.47,209.2a45,45,0,0,0-5.79-8,45,45,0,0,0,5.79-8,45,45,0,0,0,5.79,8A45,45,0,0,0,164.47,209.2Z" transform="translate(0.1 0.1)"/><path id="path6413-1" class="cls-2" d="M89.29,143.86c-4.13-6.83-8.48-13.47-13.91-19.14,5.43-5.67,9.78-12.31,13.91-19.14,4.13,6.83,8.48,13.47,13.91,19.14C97.77,130.4,93.42,137,89.29,143.86Z" transform="translate(0.1 0.1)"/><path id="path41-87-9-4-8" class="cls-2" d="M6.07,37.75V35.5H8.22l4.57-24.07h2.6l5,24.07h1.73v2.25h-5.9V35.5h1.59L17.2,31.81h-6L10.79,35.5h1.59v2.25H6.07Zm10.62-8.57L14.11,16.3,11.68,29.18h5Z" transform="translate(0.1 0.1)"/><path id="path41-8-5-6-1" class="cls-2" d="M156.43,211.7V214h2.14L163.14,238h2.6l5-24.07h1.73V211.7h-5.9V214h1.59l-0.64,3.69h-6L161.15,214h1.59V211.7h-6.31Zm10.62,8.57-2.59,12.88L162,220.27h5Z" transform="translate(0.1 0.1)"/></g></svg>