<svg id="Layer_1" data-name="Layer 1" xmlns="http://www.w3.org/2000/svg" viewBox="0 0 178.79 249.65"><defs><style>.cls-1{fill:#fff;stroke:#000;stroke-width:1px;}.cls-2{fill:#d40000;}</style></defs><title>14_H</title><g id="g11425-5-5"><g id="g9664-0-2"><rect id="rect9666-2-2" class="cls-1" x="0.5" y="0.5" width="177.79" height="248.65" rx="8.5" ry="8.5"/></g><path id="path9698-0-0" class="cls-2" d="M14.51,56.6s-1.77-2.54-4.16-5.53c-1.6-2-2.88-4.17-3-6-0.14-2.13,1.15-4.27,3.49-4.38s3.28,1.64,3.67,3.08c0.39-1.44,1.33-3.19,3.67-3.08S21.8,42.89,21.67,45c-0.12,1.87-1.4,4-3,6C16.28,54.05,14.51,56.6,14.51,56.6Z" transform="translate(-0.3 -0.3)"/><path id="path9700-3-2" class="cls-2" d="M164.87,193.65s-1.77,2.54-4.16,5.53c-1.6,2-2.88,4.17-3,6-0.14,2.13,1.15,4.27,3.49,4.38s3.28-1.64,3.67-3.08c0.39,1.44,1.33,3.19,3.67,3.08s3.63-2.24,3.49-4.38c-0.12-1.87-1.4-4-3-6C166.64,196.19,164.87,193.65,164.87,193.65Z" transform="translate(-0.3 -0.3)"/><path id="path9714-6-6" class="cls-2" d="M89.69,144.26S86,138.16,81,131c-3.35-4.8-6-10-6.28-14.48C74.39,111.38,77.1,106.24,82,106s6.88,3.95,7.69,7.4c0.81-3.46,2.8-7.65,7.69-7.4s7.61,5.38,7.32,10.5c-0.25,4.48-2.93,9.68-6.28,14.48C93.41,138.16,89.69,144.26,89.69,144.26Z" transform="translate(-0.3 -0.3)"/><path id="path41-87-8-3-9" class="cls-2" d="M6.47,38.15V35.9H8.62l4.57-24.07h2.6l5,24.07h1.73v2.25h-5.9V35.9h1.59L17.6,32.21h-6L11.19,35.9h1.59v2.25H6.47Zm10.62-8.57L14.51,16.7,12.08,29.58h5Z" transform="translate(-0.3 -0.3)"/><path id="path41-8-5-1-8-7" class="cls-2" d="M156.83,212.1v2.25H159l4.57,24.07h2.6l5-24.07h1.73V212.1H167v2.25h1.59L168,218h-6l-0.46-3.69h1.59V212.1h-6.31Zm10.62,8.57-2.59,12.88-2.42-12.88h5Z" transform="translate(-0.3 -0.3)"/></g></svg>