<svg id="Layer_1" data-name="Layer 1" xmlns="http://www.w3.org/2000/svg" viewBox="0 0 178.79 249.65"><defs><style>.cls-1{fill:#fff;stroke:#000;stroke-width:1px;}</style></defs><title>14_S</title><g id="g8409-3-3"><rect id="rect6355-6-85-62-9-7" class="cls-1" x="0.5" y="0.5" width="177.79" height="248.65" rx="8.5" ry="8.5"/><path id="path153-0-1-2-5-5-5-3-4" d="M14.11,40.25C10.68,44.62,7,47.14,6.94,50.55a3.31,3.31,0,0,0,2.74,3.34A2.85,2.85,0,0,0,13,51.14c0-.4.47-0.39,0.47,0.16a10.42,10.42,0,0,1-1.56,4.9h4.5a10.42,10.42,0,0,1-1.56-4.9c0-.54.47-0.55,0.47-0.16a2.85,2.85,0,0,0,3.27,2.75,3.31,3.31,0,0,0,2.74-3.34C21.22,47.14,17.54,44.62,14.11,40.25Z" transform="translate(0.1 0.1)"/><path id="path153-0-1-2-5-6-5-9-1-9" d="M164.47,209.2c-3.43-4.37-7.11-6.89-7.17-10.3a3.31,3.31,0,0,1,2.74-3.34,2.85,2.85,0,0,1,3.27,2.75c0,0.4.47,0.39,0.47-.16a10.42,10.42,0,0,0-1.56-4.9h4.5a10.42,10.42,0,0,0-1.56,4.9c0,0.54.47,0.55,0.47,0.16a2.85,2.85,0,0,1,3.27-2.75,3.31,3.31,0,0,1,2.74,3.34c-0.06,3.41-3.73,5.93-7.17,10.3h0Z" transform="translate(0.1 0.1)"/><path id="path153-6-3-1-6-92-7-2-9-8" d="M89.29,105.59c-7.35,10.49-15.21,16.53-15.34,24.72,0,2.65,1.39,7.16,5.87,8,2.91,0.56,6.91-1.8,7-6.59,0-1,1-.93,1,0.38a27.2,27.2,0,0,1-3.34,11.75H94.1a27.2,27.2,0,0,1-3.34-11.75c0-1.31,1-1.33,1-.38,0.08,4.79,4.09,7.15,7,6.59,4.48-.86,5.91-5.37,5.87-8C104.5,122.12,96.64,116.08,89.29,105.59Z" transform="translate(0.1 0.1)"/><path id="path41-4-9-2" d="M6.07,37.75V35.5H8.21l4.57-24.07h2.6l5,24.07h1.73v2.25h-5.9V35.5h1.59L17.2,31.81h-6L10.79,35.5h1.59v2.25H6.07Zm10.62-8.57L14.11,16.3,11.68,29.18h5Z" transform="translate(0.1 0.1)"/><path id="path41-4-2-4-0" d="M156.43,211.7V214h2.14L163.14,238h2.6l5-24.07h1.73V211.7h-5.9V214h1.59l-0.64,3.69h-6L161.15,214h1.59V211.7h-6.31Zm10.62,8.57-2.59,12.88L162,220.27h5Z" transform="translate(0.1 0.1)"/></g></svg>