<svg id="Layer_1" data-name="Layer 1" xmlns="http://www.w3.org/2000/svg" viewBox="0 0 178.79 249.65"><defs><style>.cls-1{fill:#fff;stroke:#000;stroke-width:1px;}.cls-2{fill:#d40000;}</style></defs><title>2_D</title><g id="g6716"><rect id="rect6486-8" class="cls-1" x="0.5" y="0.5" width="177.79" height="248.65" rx="8.5" ry="8.5"/><path id="path6516-8" class="cls-2" d="M89.29,64.75c-4.13-6.83-8.48-13.47-13.91-19.14,5.43-5.67,9.78-12.31,13.91-19.14,4.13,6.83,8.48,13.47,13.91,19.14C97.77,51.28,93.42,57.92,89.29,64.75Z" transform="translate(0.1 0.1)"/><path id="path6518-2" class="cls-2" d="M14.11,56.2a45,45,0,0,0-5.79-8,45,45,0,0,0,5.79-8,45,45,0,0,0,5.79,8A45,45,0,0,0,14.11,56.2Z" transform="translate(0.1 0.1)"/><path id="path6522-0" class="cls-2" d="M164.47,209.2a45,45,0,0,0-5.79-8,45,45,0,0,0,5.79-8,45,45,0,0,0,5.79,8A45,45,0,0,0,164.47,209.2Z" transform="translate(0.1 0.1)"/><path id="path6538-6" class="cls-2" d="M89.29,223c-4.13-6.83-8.48-13.47-13.91-19.14,5.43-5.67,9.78-12.31,13.91-19.14,4.13,6.83,8.48,13.47,13.91,19.14C97.77,209.51,93.42,216.15,89.29,223Z" transform="translate(0.1 0.1)"/><path id="path15-34-1-4-2" class="cls-2" d="M6.63,37.69l0.13-1.62c0.4-5,1.48-6.71,7.58-11.94,3-2.54,3.94-3.79,4.07-5.24,0.39-3.43-2.64-4.5-4.61-4.51-2.56,0-5.45,1.53-4.07,5.15l-2.87.86c-0.58-3.38,0-6.54,2.7-7.95,3.58-1.83,8.18-1.11,10.5,1.77a6.89,6.89,0,0,1,1.08,6.72C18.7,26.29,10.41,28.65,9.72,34.85h9.16V31.39h2.7v6.36l-15-.06h0Z" transform="translate(0.1 0.1)"/><path id="path15-5-4-6-4" class="cls-2" d="M171.95,211.76l-0.13,1.62c-0.4,5-1.48,6.71-7.58,11.94-3,2.54-3.94,3.79-4.07,5.24-0.39,3.43,2.64,4.5,4.61,4.51,2.56,0,5.45-1.53,4.07-5.15l2.87-.86c0.58,3.38,0,6.54-2.7,7.95-3.58,1.83-8.18,1.11-10.5-1.77a6.89,6.89,0,0,1-1.08-6.72c2.44-5.36,10.74-7.72,11.42-13.92h-9.16v3.45H157V211.7l15,0.06h0Z" transform="translate(0.1 0.1)"/></g></svg>