<svg id="Layer_1" data-name="Layer 1" xmlns="http://www.w3.org/2000/svg" viewBox="0 0 178.79 249.65"><defs><style>.cls-1{fill:#fff;stroke:#000;stroke-width:1px;}.cls-2{fill:#d40000;}</style></defs><title>2_H</title><g id="g11398-8-7"><g id="g9732-9-3"><rect id="rect9734-4-5" class="cls-1" x="0.5" y="0.5" width="177.79" height="248.65" rx="8.5" ry="8.5"/></g><path id="path9766-0-8" class="cls-2" d="M14.51,56.59S12.74,54,10.35,51.06c-1.6-2-2.88-4.17-3-6-0.14-2.13,1.15-4.27,3.49-4.38s3.28,1.64,3.67,3.08c0.39-1.44,1.33-3.19,3.67-3.08S21.8,42.89,21.67,45c-0.12,1.87-1.4,4-3,6C16.28,54,14.51,56.59,14.51,56.59Z" transform="translate(-0.3 -0.29)"/><path id="path9768-3-3" class="cls-2" d="M164.87,193.64s-1.77,2.54-4.16,5.53c-1.6,2-2.88,4.17-3,6-0.14,2.13,1.15,4.27,3.49,4.38s3.28-1.64,3.67-3.08c0.39,1.44,1.33,3.19,3.67,3.08s3.63-2.24,3.49-4.38c-0.12-1.87-1.4-4-3-6C166.64,196.19,164.87,193.64,164.87,193.64Z" transform="translate(-0.3 -0.29)"/><path id="path9772-1-7" class="cls-2" d="M89.69,65.14S86,59,81,51.86c-3.35-4.8-6-10-6.28-14.48C74.39,32.26,77.1,27.12,82,26.88s6.88,3.95,7.69,7.4c0.81-3.46,2.8-7.65,7.69-7.4s7.61,5.38,7.32,10.5c-0.25,4.48-2.93,9.68-6.28,14.48C93.41,59,89.69,65.14,89.69,65.14Z" transform="translate(-0.3 -0.29)"/><path id="path9786-2-1" class="cls-2" d="M89.69,185.09S86,191.2,81,198.38c-3.35,4.8-6,10-6.28,14.48C74.39,218,77.1,223.11,82,223.36s6.88-3.95,7.69-7.4c0.81,3.46,2.8,7.65,7.69,7.4s7.61-5.38,7.32-10.5c-0.25-4.48-2.93-9.68-6.28-14.48C93.41,191.2,89.69,185.09,89.69,185.09Z" transform="translate(-0.3 -0.29)"/><path id="path15-34-0-0-4" class="cls-2" d="M7,38.09l0.13-1.62c0.4-5,1.48-6.71,7.58-11.94,3-2.54,3.94-3.79,4.07-5.24,0.39-3.43-2.64-4.5-4.61-4.51-2.56,0-5.45,1.53-4.07,5.15l-2.87.86c-0.58-3.38,0-6.54,2.7-7.95,3.58-1.83,8.18-1.11,10.5,1.77a6.89,6.89,0,0,1,1.08,6.72C19.1,26.68,10.81,29,10.13,35.24h9.16V31.79H22v6.36L7,38.09H7Z" transform="translate(-0.3 -0.29)"/><path id="path15-5-4-5-2-7" class="cls-2" d="M172.35,212.15l-0.13,1.62c-0.4,5-1.48,6.71-7.58,11.94-3,2.54-3.94,3.79-4.07,5.24-0.39,3.43,2.64,4.5,4.61,4.51,2.56,0,5.45-1.53,4.07-5.15l2.87-.86c0.58,3.38,0,6.54-2.7,7.95-3.58,1.83-8.18,1.11-10.5-1.77a6.89,6.89,0,0,1-1.08-6.72c2.44-5.36,10.74-7.72,11.42-13.92h-9.16v3.45h-2.7v-6.36l15,0.06h0Z" transform="translate(-0.3 -0.29)"/></g></svg>