<svg id="Layer_1" data-name="Layer 1" xmlns="http://www.w3.org/2000/svg" viewBox="0 0 178.79 249.65"><defs><style>.cls-1{fill:#fff;stroke:#000;stroke-width:1px;}</style></defs><title>2_S</title><g id="g8417-9-8"><rect id="rect6716-2-0" class="cls-1" x="0.5" y="0.5" width="177.79" height="248.65" rx="8.5" ry="8.5"/><path id="path6748-4-0" d="M14.11,40.25C10.68,44.62,7,47.14,6.94,50.55a3.31,3.31,0,0,0,2.74,3.34A2.85,2.85,0,0,0,13,51.14c0-.4.47-0.39,0.47,0.16a10.42,10.42,0,0,1-1.56,4.9h4.5a10.42,10.42,0,0,1-1.56-4.9c0-.54.47-0.55,0.47-0.16a2.85,2.85,0,0,0,3.27,2.75,3.31,3.31,0,0,0,2.74-3.34c-0.06-3.41-3.73-5.93-7.17-10.3h0Z" transform="translate(0.1 0.1)"/><path id="path6752-9-1" d="M164.47,209.2c-3.43-4.37-7.11-6.89-7.17-10.3a3.31,3.31,0,0,1,2.74-3.34,2.85,2.85,0,0,1,3.27,2.75c0,0.4.47,0.39,0.47-.16a10.42,10.42,0,0,0-1.56-4.9h4.5a10.42,10.42,0,0,0-1.56,4.9c0,0.54.47,0.55,0.47,0.16a2.85,2.85,0,0,1,3.27-2.75,3.31,3.31,0,0,1,2.74,3.34c-0.06,3.41-3.73,5.93-7.17,10.3h0Z" transform="translate(0.1 0.1)"/><path id="path6760-2-4" d="M89.29,26.47C81.94,37,74.08,43,73.95,51.19c0,2.65,1.39,7.16,5.87,8,2.91,0.56,6.91-1.8,7-6.59,0-1,1-.93,1,0.38a27.2,27.2,0,0,1-3.34,11.75H94.1A27.2,27.2,0,0,1,90.76,53c0-1.31,1-1.33,1-.38,0.08,4.79,4.09,7.15,7,6.59,4.48-.86,5.91-5.37,5.87-8C104.5,43,96.64,37,89.29,26.47h0Z" transform="translate(0.1 0.1)"/><path id="path6774-6-2" d="M89.29,223c-7.35-10.49-15.21-16.53-15.34-24.72,0-2.65,1.39-7.16,5.87-8,2.91-.56,6.91,1.8,7,6.59,0,1,1,.93,1-0.38a27.2,27.2,0,0,0-3.34-11.75H94.1a27.2,27.2,0,0,0-3.34,11.75c0,1.31,1,1.33,1,.38,0.08-4.79,4.09-7.15,7-6.59,4.48,0.86,5.91,5.37,5.87,8-0.13,8.19-8,14.22-15.34,24.72h0Z" transform="translate(0.1 0.1)"/><path id="path15-3-8-9" d="M6.63,37.69l0.13-1.62c0.4-5,1.48-6.71,7.58-11.94,3-2.54,3.94-3.79,4.07-5.24,0.39-3.43-2.64-4.5-4.61-4.51-2.56,0-5.45,1.53-4.07,5.15l-2.87.86c-0.58-3.38,0-6.54,2.7-7.95,3.58-1.83,8.18-1.11,10.5,1.77a6.89,6.89,0,0,1,1.08,6.72C18.7,26.29,10.41,28.65,9.72,34.85h9.16V31.39h2.7v6.36l-15-.06h0Z" transform="translate(0.1 0.1)"/><path id="path15-3-5-1-4" d="M171.95,211.76l-0.13,1.62c-0.4,5-1.48,6.71-7.58,11.94-3,2.54-3.94,3.79-4.07,5.24-0.39,3.43,2.64,4.5,4.61,4.51,2.56,0,5.45-1.53,4.07-5.15l2.87-.86c0.58,3.38,0,6.54-2.7,7.95-3.58,1.83-8.18,1.11-10.5-1.77a6.89,6.89,0,0,1-1.08-6.72c2.44-5.36,10.74-7.72,11.42-13.92h-9.16v3.45H157V211.7l15,0.06h0Z" transform="translate(0.1 0.1)"/></g></svg>