<svg id="Layer_1" data-name="Layer 1" xmlns="http://www.w3.org/2000/svg" viewBox="0 0 178.79 249.65"><defs><style>.cls-1{fill:#fff;stroke:#000;stroke-width:1px;}</style></defs><title>3_C</title><g id="g5431"><g id="layer1-33-1-4-5-7"><rect id="rect6355-6-85-2-7-5" class="cls-1" x="0.5" y="0.5" width="177.79" height="248.65" rx="8.5" ry="8.5"/></g><path id="path147-0-8-1-6-7-2-5-9-2" d="M89.29,26.8c-7.82.17-11.33,9-5.53,15.81,0.84,1,.93,1.57-0.61.61-3.9-2.61-11.38-.89-11.76,7.08C70.91,60.12,84.63,63,87.21,52.51c0.14-1.1,1-1.08.82,0.49a32.5,32.5,0,0,1-3.38,12.08h9.3A32.5,32.5,0,0,1,90.55,53c-0.22-1.56.68-1.59,0.82-.49,2.58,10.44,16.3,7.61,15.83-2.21-0.38-8-7.86-9.69-11.76-7.08-1.54,1-1.45.39-.61-0.61,5.79-6.84,2.28-15.64-5.53-15.81h0Z" transform="translate(0.1 0.1)"/><path id="path147-0-8-1-6-1-4-3-4-3" d="M89.29,223.31c-7.82-.17-11.33-9-5.53-15.81,0.84-1,.93-1.57-0.61-0.61-3.9,2.61-11.38.89-11.76-7.08-0.47-9.82,13.25-12.65,15.83-2.21,0.14,1.1,1,1.08.82-.49A32.5,32.5,0,0,0,84.64,185h9.3a32.5,32.5,0,0,0-3.38,12.08c-0.22,1.56.68,1.59,0.82,0.49,2.58-10.44,16.3-7.61,15.83,2.21-0.38,8-7.86,9.69-11.76,7.08-1.54-1-1.45-.39-0.61.61,5.79,6.84,2.28,15.64-5.53,15.81h0Z" transform="translate(0.1 0.1)"/><path id="path147-0-8-1-6-1-1-0-4-8-8" d="M89.29,105.92c-7.82.17-11.33,9-5.53,15.81,0.84,1,.93,1.57-0.61.61-3.9-2.61-11.38-.89-11.76,7.08-0.47,9.82,13.25,12.65,15.83,2.21,0.14-1.1,1-1.08.82,0.49a32.5,32.5,0,0,1-3.38,12.08h9.3a32.5,32.5,0,0,1-3.38-12.08c-0.22-1.56.68-1.59,0.82-.49,2.58,10.44,16.3,7.61,15.83-2.21-0.38-8-7.86-9.69-11.76-7.08-1.54,1-1.45.39-.61-0.61,5.79-6.84,2.28-15.64-5.53-15.81h0Z" transform="translate(0.1 0.1)"/><path id="path147-6-9-8-7-0-5-5-1-4" d="M164.47,209.2c3.13-.07,4.53-3.74,2.21-6.59-0.34-.42-0.37-0.65.24-0.25,1.56,1.09,4.55.37,4.7-2.95,0.19-4.09-5.3-5.27-6.33-.92-0.05.46-.41,0.45-0.33-0.2a14,14,0,0,1,1.35-5h-3.72a14,14,0,0,1,1.35,5c0.09,0.65-.27.66-0.33,0.2-1-4.35-6.52-3.17-6.33.92,0.15,3.32,3.14,4,4.7,2.95,0.62-.4.58-0.16,0.24,0.25-2.32,2.85-.91,6.52,2.21,6.59h0Z" transform="translate(0.1 0.1)"/><path id="path147-6-9-8-7-4-5-8-2-3" d="M14.11,40.25C11,40.32,9.58,44,11.89,46.84c0.34,0.42.37,0.65-.24,0.25C10.09,46,7.1,46.72,6.95,50c-0.19,4.09,5.3,5.27,6.33.92,0.05-.46.41-0.45,0.33,0.2a14,14,0,0,1-1.35,5H16a14,14,0,0,1-1.35-5c-0.09-.65.27-0.66,0.33-0.2,1,4.35,6.52,3.17,6.33-.92-0.15-3.32-3.14-4-4.7-2.95-0.62.4-.58,0.16-0.24-0.25,2.32-2.85.91-6.52-2.21-6.59h0Z" transform="translate(0.1 0.1)"/><path id="path17-9-7-6-4" d="M5.58,32l2-1.49c1.76,2.86,3.72,4.75,6.72,4.43,4.51-.31,6.38-5,5.43-8.61a5.21,5.21,0,0,0-7.61-3.05,7.43,7.43,0,0,1-1.51.73,2.61,2.61,0,0,1-.92-1.83,93,93,0,0,1,6.83-8H9v3.42H6.09V11.43H20.86v2.08a50.3,50.3,0,0,0-5.26,6.36,7.17,7.17,0,0,1,6.75,5.39,14.31,14.31,0,0,1-.41,7.27,9.11,9.11,0,0,1-7.4,5.19c-5,.34-7.63-3.16-8.95-5.75h0Z" transform="translate(0.1 0.1)"/><path id="path17-5-0-1-5-7" d="M173,217.47L171,219c-1.76-2.86-3.72-4.75-6.72-4.43-4.51.31-6.38,5-5.43,8.61a5.21,5.21,0,0,0,7.61,3.05,7.43,7.43,0,0,1,1.51-.73,2.61,2.61,0,0,1,.92,1.83,93,93,0,0,1-6.83,8h7.56v-3.42h2.9V238H157.72v-2.08a50.31,50.31,0,0,0,5.26-6.36,7.17,7.17,0,0,1-6.75-5.39,14.31,14.31,0,0,1,.41-7.27,9.11,9.11,0,0,1,7.4-5.19c5-.34,7.63,3.16,8.95,5.75h0Z" transform="translate(0.1 0.1)"/></g></svg>