<svg id="Layer_1" data-name="Layer 1" xmlns="http://www.w3.org/2000/svg" viewBox="0 0 178.79 249.65"><defs><style>.cls-1{fill:#fff;stroke:#000;stroke-width:1px;}.cls-2{fill:#d40000;}</style></defs><title>3_H</title><g id="g11369-4-9"><g id="g9800-8-2"><rect id="rect9802-4-3" class="cls-1" x="0.5" y="0.5" width="177.79" height="248.65" rx="8.5" ry="8.5"/></g><path id="path9834-5-2" class="cls-2" d="M14.51,56.5S12.74,54,10.35,51c-1.6-2-2.88-4.17-3-6-0.14-2.13,1.15-4.27,3.49-4.38s3.28,1.64,3.67,3.08c0.39-1.44,1.33-3.19,3.67-3.08s3.63,2.24,3.49,4.38c-0.12,1.87-1.4,4-3,6C16.28,54,14.51,56.5,14.51,56.5Z" transform="translate(-0.3 -0.2)"/><path id="path9836-5-8" class="cls-2" d="M164.87,193.55s-1.77,2.54-4.16,5.53c-1.6,2-2.88,4.17-3,6-0.14,2.13,1.15,4.27,3.49,4.38s3.28-1.64,3.67-3.08c0.39,1.44,1.33,3.19,3.67,3.08s3.63-2.24,3.49-4.38c-0.12-1.87-1.4-4-3-6C166.64,196.09,164.87,193.55,164.87,193.55Z" transform="translate(-0.3 -0.2)"/><path id="path9840-3-6" class="cls-2" d="M89.69,65S86,58.94,81,51.77c-3.35-4.8-6-10-6.28-14.48C74.39,32.16,77.1,27,82,26.78s6.88,3.95,7.69,7.4c0.81-3.46,2.8-7.65,7.69-7.4s7.61,5.38,7.32,10.5c-0.25,4.48-2.93,9.68-6.28,14.48C93.41,58.94,89.69,65,89.69,65Z" transform="translate(-0.3 -0.2)"/><path id="path9850-2-3" class="cls-2" d="M89.69,144.16S86,138.06,81,130.88c-3.35-4.8-6-10-6.28-14.48-0.29-5.12,2.42-10.25,7.32-10.5s6.88,3.95,7.69,7.4c0.81-3.46,2.8-7.65,7.69-7.4s7.61,5.38,7.32,10.5c-0.25,4.48-2.93,9.68-6.28,14.48C93.41,138.06,89.69,144.16,89.69,144.16Z" transform="translate(-0.3 -0.2)"/><path id="path9854-8-0" class="cls-2" d="M89.69,185S86,191.11,81,198.28c-3.35,4.8-6,10-6.28,14.48C74.39,217.88,77.1,223,82,223.27s6.88-3.95,7.69-7.4c0.81,3.46,2.8,7.65,7.69,7.4s7.61-5.38,7.32-10.5c-0.25-4.48-2.93-9.68-6.28-14.48C93.41,191.11,89.69,185,89.69,185Z" transform="translate(-0.3 -0.2)"/><path id="path17-2-9-8-4" class="cls-2" d="M6,32.28l2-1.49c1.76,2.86,3.72,4.75,6.72,4.43,4.51-.31,6.38-5,5.43-8.61a5.21,5.21,0,0,0-7.61-3.05,7.43,7.43,0,0,1-1.51.73,2.61,2.61,0,0,1-.92-1.83,93,93,0,0,1,6.83-8H9.39v3.42H6.49V11.73H21.26v2.08A50.32,50.32,0,0,0,16,20.17a7.17,7.17,0,0,1,6.75,5.39,14.31,14.31,0,0,1-.41,7.27A9.11,9.11,0,0,1,14.92,38c-5,.34-7.63-3.16-8.95-5.75H6Z" transform="translate(-0.3 -0.2)"/><path id="path17-5-3-9-1-3" class="cls-2" d="M173.4,217.77l-2,1.49c-1.76-2.86-3.72-4.75-6.72-4.43-4.51.31-6.38,5-5.43,8.61a5.21,5.21,0,0,0,7.61,3.05,7.43,7.43,0,0,1,1.51-.73,2.61,2.61,0,0,1,.92,1.83,93,93,0,0,1-6.83,8H170v-3.42h2.9v6.13H158.12v-2.08a50.32,50.32,0,0,0,5.26-6.36,7.17,7.17,0,0,1-6.75-5.39,14.31,14.31,0,0,1,.41-7.27,9.11,9.11,0,0,1,7.4-5.19c5-.34,7.63,3.16,8.95,5.75h0Z" transform="translate(-0.3 -0.2)"/></g></svg>