<svg id="Layer_1" data-name="Layer 1" xmlns="http://www.w3.org/2000/svg" viewBox="0 0 178.79 249.65"><defs><style>.cls-1{fill:#fff;stroke:#000;stroke-width:1px;}.cls-2{fill:#d40000;}</style></defs><title>4_H</title><g id="g11338-3-7"><g id="g9868-8-1"><rect id="rect9870-7-0" class="cls-1" x="0.5" y="0.5" width="177.79" height="248.65" rx="8.5" ry="8.5"/></g><path id="path9902-6-7" class="cls-2" d="M14.53,56.6s-1.77-2.54-4.16-5.53c-1.6-2-2.88-4.17-3-6-0.14-2.13,1.15-4.27,3.49-4.38s3.28,1.64,3.67,3.08c0.39-1.44,1.33-3.19,3.67-3.08S21.83,42.9,21.69,45c-0.12,1.87-1.4,4-3,6C16.31,54.05,14.53,56.6,14.53,56.6Z" transform="translate(-0.32 -0.3)"/><path id="path9904-6-0" class="cls-2" d="M164.9,193.65s-1.77,2.54-4.16,5.53c-1.6,2-2.88,4.17-3,6-0.14,2.13,1.15,4.27,3.49,4.38s3.28-1.64,3.67-3.08c0.39,1.44,1.33,3.19,3.67,3.08s3.63-2.24,3.49-4.38c-0.12-1.87-1.4-4-3-6C166.67,196.19,164.9,193.65,164.9,193.65Z" transform="translate(-0.32 -0.3)"/><path id="path9910-2-6" class="cls-2" d="M48.49,65.15S44.77,59,39.76,51.87c-3.35-4.8-6-10-6.28-14.48-0.29-5.12,2.42-10.25,7.32-10.5s6.88,3.95,7.69,7.4c0.81-3.46,2.8-7.65,7.69-7.4s7.61,5.38,7.32,10.5c-0.25,4.48-2.93,9.68-6.28,14.48C52.2,59,48.49,65.14,48.49,65.15Z" transform="translate(-0.32 -0.3)"/><path id="path9916-8-0" class="cls-2" d="M130.94,65.15s-3.72-6.1-8.73-13.28c-3.35-4.8-6-10-6.28-14.48-0.29-5.12,2.42-10.25,7.32-10.5s6.88,3.95,7.69,7.4c0.81-3.46,2.8-7.65,7.69-7.4s7.61,5.38,7.32,10.5c-0.25,4.48-2.93,9.68-6.28,14.48C134.66,59,130.95,65.14,130.94,65.15Z" transform="translate(-0.32 -0.3)"/><path id="path9930-7-9" class="cls-2" d="M130.94,185.1s-3.72,6.1-8.73,13.28c-3.35,4.8-6,10-6.28,14.48-0.29,5.12,2.42,10.25,7.32,10.5s6.88-3.95,7.69-7.4c0.81,3.46,2.8,7.65,7.69,7.4s7.61-5.38,7.32-10.5c-0.25-4.48-2.93-9.68-6.28-14.48C134.66,191.2,130.95,185.1,130.94,185.1Z" transform="translate(-0.32 -0.3)"/><path id="path9932-9-8" class="cls-2" d="M48.49,185.1s-3.72,6.1-8.73,13.28c-3.35,4.8-6,10-6.28,14.48-0.29,5.12,2.42,10.25,7.32,10.5s6.88-3.95,7.69-7.4c0.81,3.46,2.8,7.65,7.69,7.4s7.61-5.38,7.32-10.5c-0.25-4.48-2.93-9.68-6.28-14.48C52.2,191.2,48.49,185.1,48.49,185.1Z" transform="translate(-0.32 -0.3)"/><path id="path19-3-8-2-9" class="cls-2" d="M14.72,38.15V35.82h2.1V32H6.33V29.28L17.67,11.83h1.85V29.28h3.21V32H19.52l-0.06,3.83h1.76v2.33h-6.5Zm2.1-19.92L9.61,29.28h7.2V18.22Z" transform="translate(-0.32 -0.3)"/><path id="path19-4-46-0-1-9" class="cls-2" d="M164.71,212.1v2.32h-2.1v3.83h10.48V221l-11.34,17.45H159.9V221h-3.21v-2.71h3.21l0.06-3.83h-1.76V212.1h6.5ZM162.61,232l7.2-11.06h-7.2V232Z" transform="translate(-0.32 -0.3)"/></g></svg>