<svg id="Layer_1" data-name="Layer 1" xmlns="http://www.w3.org/2000/svg" viewBox="0 0 178.79 249.65"><defs><style>.cls-1{fill:#fff;stroke:#000;stroke-width:1px;}</style></defs><title>4_S</title><g id="g8436-8-0"><g id="g8473-4-9"><rect id="rect6852-0-4" class="cls-1" x="0.5" y="0.5" width="177.79" height="248.65" rx="8.5" ry="8.5"/><path id="path6882-1-0" d="M48.06,26.47C40.71,37,32.85,43,32.72,51.19c0,2.65,1.39,7.16,5.87,8,2.91,0.56,6.91-1.8,7-6.59,0-1,1-.93,1,0.38a27.2,27.2,0,0,1-3.34,11.75h9.63A27.2,27.2,0,0,1,49.54,53c0-1.31,1-1.33,1-.38,0.08,4.79,4.09,7.15,7,6.59,4.48-.86,5.91-5.37,5.87-8C63.27,43,55.41,37,48.06,26.47h0Z" transform="translate(0.1 0.1)"/><path id="path6884-6-5" d="M14.11,40.25C10.68,44.62,7,47.14,6.94,50.55a3.31,3.31,0,0,0,2.74,3.34A2.85,2.85,0,0,0,13,51.14c0-.4.47-0.39,0.47,0.16a10.42,10.42,0,0,1-1.56,4.9h4.5a10.42,10.42,0,0,1-1.56-4.9c0-.54.47-0.55,0.47-0.16a2.85,2.85,0,0,0,3.27,2.75,3.31,3.31,0,0,0,2.74-3.34c-0.06-3.41-3.73-5.93-7.17-10.3h0Z" transform="translate(0.1 0.1)"/><path id="path6888-1-5" d="M164.47,209.2c-3.43-4.37-7.11-6.89-7.17-10.3a3.31,3.31,0,0,1,2.74-3.34,2.85,2.85,0,0,1,3.27,2.75c0,0.4.47,0.39,0.47-.16a10.42,10.42,0,0,0-1.56-4.9h4.5a10.42,10.42,0,0,0-1.56,4.9c0,0.54.47,0.55,0.47,0.16a2.85,2.85,0,0,1,3.27-2.75,3.31,3.31,0,0,1,2.74,3.34c-0.06,3.41-3.73,5.93-7.17,10.3h0Z" transform="translate(0.1 0.1)"/><path id="path6890-4-9" d="M130.52,26.47C123.17,37,115.31,43,115.18,51.19c0,2.65,1.39,7.16,5.87,8,2.91,0.56,6.91-1.8,7-6.59,0-1,1-.93,1,0.38a27.2,27.2,0,0,1-3.34,11.75h9.63A27.2,27.2,0,0,1,132,53c0-1.31,1-1.33,1-.38,0.08,4.79,4.09,7.15,7,6.59,4.48-.86,5.91-5.37,5.87-8-0.13-8.19-8-14.22-15.34-24.72h0Z" transform="translate(0.1 0.1)"/><path id="path6902-7-5" d="M48.06,223c-7.35-10.49-15.21-16.53-15.34-24.72,0-2.65,1.39-7.16,5.87-8,2.91-.56,6.91,1.8,7,6.59,0,1,1,.93,1-0.38a27.2,27.2,0,0,0-3.34-11.75h9.63a27.2,27.2,0,0,0-3.34,11.75c0,1.31,1,1.33,1,.38,0.08-4.79,4.09-7.15,7-6.59,4.48,0.86,5.91,5.37,5.87,8-0.13,8.19-8,14.22-15.34,24.72h0Z" transform="translate(0.1 0.1)"/><path id="path6904-9-7" d="M130.52,223c-7.35-10.49-15.21-16.53-15.34-24.72,0-2.65,1.39-7.16,5.87-8,2.91-.56,6.91,1.8,7,6.59,0,1,1,.93,1-0.38a27.2,27.2,0,0,0-3.34-11.75h9.63A27.2,27.2,0,0,0,132,196.46c0,1.31,1,1.33,1,.38,0.08-4.79,4.09-7.15,7-6.59,4.48,0.86,5.91,5.37,5.87,8-0.13,8.19-8,14.22-15.34,24.72h0Z" transform="translate(0.1 0.1)"/><path id="path19-08-0-9" d="M14.29,37.75V35.42h2.1V31.59H5.91V28.88L17.25,11.43H19.1V28.88h3.21v2.71H19.1L19,35.42H20.8v2.33h-6.5Zm2.1-19.92L9.19,28.88h7.2V17.82Z" transform="translate(0.1 0.1)"/><path id="path19-08-1-1-4" d="M164.29,211.7V214h-2.1v3.83h10.48v2.71L161.33,238h-1.85V220.57h-3.21v-2.71h3.21l0.06-3.83h-1.76V211.7h6.5Zm-2.1,19.92,7.2-11.06h-7.2v11.06Z" transform="translate(0.1 0.1)"/></g></g></svg>