<svg id="Layer_1" data-name="Layer 1" xmlns="http://www.w3.org/2000/svg" viewBox="0 0 178.79 249.65"><defs><style>.cls-1{fill:#fff;stroke:#000;stroke-width:1px;}</style></defs><title>5_C</title><g id="g5455"><g id="layer1-33-1-41-1-2-6"><rect id="rect6355-6-85-3-7-9-4" class="cls-1" x="0.5" y="0.5" width="177.79" height="248.65" rx="8.5" ry="8.5"/></g><path id="path147-0-8-1-6-13-2-8-2-5" d="M130.52,26.8c-7.82.17-11.33,9-5.53,15.81,0.84,1,.93,1.57-0.61.61-3.9-2.61-11.38-.89-11.76,7.08-0.47,9.82,13.25,12.65,15.83,2.21,0.14-1.1,1-1.08.82,0.49a32.5,32.5,0,0,1-3.38,12.08h9.3A32.5,32.5,0,0,1,131.78,53c-0.22-1.56.68-1.59,0.82-.49,2.58,10.44,16.3,7.61,15.83-2.21-0.38-8-7.86-9.69-11.76-7.08-1.54,1-1.45.39-.61-0.61,5.79-6.84,2.28-15.64-5.53-15.81h0Z" transform="translate(0.1 0.1)"/><path id="path147-0-8-1-6-75-2-83-7-6-4" d="M48.06,26.8c-7.82.17-11.33,9-5.53,15.81,0.84,1,.93,1.57-0.61.61-3.9-2.61-11.38-.89-11.76,7.08C29.68,60.13,43.4,63,46,52.51c0.14-1.1,1-1.08.82,0.49a32.5,32.5,0,0,1-3.38,12.08h9.3A32.5,32.5,0,0,1,49.33,53c-0.22-1.56.68-1.59,0.82-.49C52.72,63,66.44,60.13,66,50.3c-0.38-8-7.86-9.69-11.76-7.08-1.54,1-1.45.39-.61-0.61C59.39,35.78,55.88,27,48.06,26.8h0Z" transform="translate(0.1 0.1)"/><path id="path147-0-8-1-6-7-5-5-7-6-8-5" d="M130.52,223.31c-7.82-.17-11.33-9-5.53-15.81,0.84-1,.93-1.57-0.61-0.61-3.9,2.61-11.38.89-11.76-7.08-0.47-9.82,13.25-12.65,15.83-2.21,0.14,1.1,1,1.08.82-.49A32.5,32.5,0,0,0,125.87,185h9.3a32.5,32.5,0,0,0-3.38,12.08c-0.22,1.56.68,1.59,0.82,0.49,2.58-10.44,16.3-7.61,15.83,2.21-0.38,8-7.86,9.69-11.76,7.08-1.54-1-1.45-.39-0.61.61,5.79,6.84,2.28,15.64-5.53,15.81h0Z" transform="translate(0.1 0.1)"/><path id="path147-0-8-1-6-75-6-1-2-4-9-5" d="M48.06,223.31c-7.82-.17-11.33-9-5.53-15.81,0.84-1,.93-1.57-0.61-0.61-3.9,2.61-11.38.89-11.76-7.08C29.68,190,43.4,187.16,46,197.6c0.14,1.1,1,1.08.82-.49A32.5,32.5,0,0,0,43.41,185h9.3a32.5,32.5,0,0,0-3.38,12.08c-0.22,1.56.68,1.59,0.82,0.49,2.58-10.44,16.3-7.61,15.83,2.21-0.38,8-7.86,9.69-11.76,7.08-1.54-1-1.45-.39-0.61.61,5.79,6.84,2.28,15.64-5.53,15.81h0Z" transform="translate(0.1 0.1)"/><path id="path147-0-8-1-6-1-1-0-5-6-4-0" d="M89.29,105.92c-7.82.17-11.33,9-5.53,15.81,0.84,1,.93,1.57-0.61.61-3.9-2.61-11.38-.89-11.76,7.08-0.47,9.82,13.25,12.65,15.83,2.21,0.14-1.1,1-1.08.82,0.49a32.5,32.5,0,0,1-3.38,12.08h9.3a32.5,32.5,0,0,1-3.38-12.08c-0.22-1.56.68-1.59,0.82-.49,2.58,10.44,16.3,7.61,15.83-2.21-0.38-8-7.86-9.69-11.76-7.08-1.54,1-1.45.39-.61-0.61,5.79-6.84,2.28-15.64-5.53-15.81h0Z" transform="translate(0.1 0.1)"/><path id="path147-6-9-8-7-0-5-6-7-4-6" d="M164.47,209.2c3.13-.07,4.53-3.74,2.21-6.59-0.34-.42-0.37-0.65.24-0.25,1.56,1.09,4.55.37,4.7-2.95,0.19-4.09-5.3-5.27-6.33-.92-0.05.46-.41,0.45-0.33-0.2a14,14,0,0,1,1.35-5h-3.72a14,14,0,0,1,1.35,5c0.09,0.65-.27.66-0.33,0.2-1-4.35-6.52-3.17-6.33.92,0.15,3.32,3.14,4,4.7,2.95,0.62-.4.58-0.16,0.24,0.25-2.32,2.85-.91,6.52,2.21,6.59h0Z" transform="translate(0.1 0.1)"/><path id="path147-6-9-8-7-4-5-62-2-3-8" d="M14.11,40.25C11,40.32,9.58,44,11.89,46.84c0.34,0.42.37,0.65-.24,0.25C10.09,46,7.1,46.72,6.95,50c-0.19,4.09,5.3,5.27,6.33.92,0.05-.46.41-0.45,0.33,0.2a14,14,0,0,1-1.35,5H16a14,14,0,0,1-1.35-5c-0.09-.65.27-0.66,0.33-0.2,1,4.35,6.52,3.17,6.33-.92-0.15-3.32-3.14-4-4.7-2.95-0.62.4-.58,0.16-0.24-0.25,2.32-2.85.91-6.52-2.21-6.59h0Z" transform="translate(0.1 0.1)"/><path id="path21-39-8-1" d="M5.82,30.94l2.58,0c0.49,1.59,1.58,3.2,3.06,3.65a6.16,6.16,0,0,0,7.74-4.12c1.07-3.33,0-8-2.9-9.65-2.38-1.37-5.92-.22-7.54,2.72L7,22.39l1-11H19.71V14H10.16L10,18.59a7.54,7.54,0,0,1,7.27-.42c3.89,1.89,5.7,6.2,4.94,11.27-1,5-3.36,7.91-8.58,8.31-5.8.05-7.85-4-7.82-6.81h0Z" transform="translate(0.1 0.1)"/><path id="path21-3-4-1-8" d="M172.75,218.51l-2.58,0c-0.49-1.59-1.58-3.2-3.06-3.65a6.16,6.16,0,0,0-7.74,4.12c-1.07,3.33,0,8,2.9,9.65,2.38,1.37,5.92.22,7.54-2.72l1.8,1.13-1,11H158.87v-2.59h9.55l0.15-4.56a7.54,7.54,0,0,1-7.27.42c-3.89-1.89-5.7-6.2-4.94-11.27,1-5,3.36-7.91,8.58-8.31,5.8-.05,7.85,4,7.82,6.81h0Z" transform="translate(0.1 0.1)"/></g></svg>