<svg id="Layer_1" data-name="Layer 1" xmlns="http://www.w3.org/2000/svg" viewBox="0 0 178.79 249.65"><defs><style>.cls-1{fill:#fff;stroke:#000;stroke-width:1px;}.cls-2{fill:#d40000;}</style></defs><title>5_H</title><g id="g11305-8-4"><g id="g9936-1-0"><rect id="rect9938-9-5" class="cls-1" x="0.5" y="0.5" width="177.79" height="248.65" rx="8.5" ry="8.5"/></g><path id="path9970-5-6" class="cls-2" d="M14.51,56.6s-1.77-2.54-4.16-5.53c-1.6-2-2.88-4.17-3-6-0.14-2.13,1.15-4.27,3.49-4.38s3.28,1.64,3.67,3.08c0.39-1.44,1.33-3.19,3.67-3.08S21.8,42.9,21.66,45c-0.12,1.87-1.4,4-3,6C16.28,54.05,14.51,56.6,14.51,56.6Z" transform="translate(-0.29 -0.3)"/><path id="path9972-9-9" class="cls-2" d="M164.87,193.65s-1.77,2.54-4.16,5.53c-1.6,2-2.88,4.17-3,6-0.14,2.13,1.15,4.27,3.49,4.38s3.28-1.64,3.67-3.08c0.39,1.44,1.33,3.19,3.67,3.08s3.63-2.24,3.49-4.38c-0.12-1.87-1.4-4-3-6C166.64,196.19,164.87,193.65,164.87,193.65Z" transform="translate(-0.29 -0.3)"/><path id="path9978-0-4" class="cls-2" d="M48.46,65.15S44.74,59,39.73,51.87c-3.35-4.8-6-10-6.28-14.48-0.29-5.12,2.42-10.25,7.32-10.5s6.88,3.95,7.69,7.4c0.81-3.46,2.8-7.65,7.69-7.4s7.61,5.38,7.32,10.5c-0.25,4.48-2.93,9.68-6.28,14.48C52.18,59,48.46,65.15,48.46,65.15Z" transform="translate(-0.29 -0.3)"/><path id="path9984-9-5" class="cls-2" d="M130.92,65.15s-3.72-6.1-8.73-13.28c-3.35-4.8-6-10-6.28-14.48-0.29-5.12,2.42-10.25,7.32-10.5s6.88,3.95,7.69,7.4c0.81-3.46,2.8-7.65,7.69-7.4s7.61,5.38,7.32,10.5c-0.25,4.48-2.93,9.68-6.28,14.48C134.63,59,130.92,65.15,130.92,65.15Z" transform="translate(-0.29 -0.3)"/><path id="path9986-7-3" class="cls-2" d="M89.69,144.26S86,138.16,81,131c-3.35-4.8-6-10-6.28-14.48-0.29-5.12,2.42-10.25,7.32-10.5s6.88,3.95,7.69,7.4c0.81-3.46,2.8-7.65,7.69-7.4s7.61,5.38,7.32,10.5c-0.25,4.48-2.93,9.68-6.28,14.48C93.4,138.16,89.69,144.26,89.69,144.26Z" transform="translate(-0.29 -0.3)"/><path id="path9998-0-9" class="cls-2" d="M130.92,185.1s-3.72,6.1-8.73,13.28c-3.35,4.8-6,10-6.28,14.48-0.29,5.12,2.42,10.25,7.32,10.5s6.88-3.95,7.69-7.4c0.81,3.46,2.8,7.65,7.69,7.4s7.61-5.38,7.32-10.5c-0.25-4.48-2.93-9.68-6.28-14.48C134.63,191.2,130.92,185.1,130.92,185.1Z" transform="translate(-0.29 -0.3)"/><path id="path10000-8-2" class="cls-2" d="M48.46,185.1s-3.72,6.1-8.73,13.28c-3.35,4.8-6,10-6.28,14.48-0.29,5.12,2.42,10.25,7.32,10.5s6.88-3.95,7.69-7.4c0.81,3.46,2.8,7.65,7.69,7.4s7.61-5.38,7.32-10.5c-0.25-4.48-2.93-9.68-6.28-14.48C52.18,191.2,48.46,185.1,48.46,185.1Z" transform="translate(-0.29 -0.3)"/><path id="path21-9-5-1-8" class="cls-2" d="M6.22,31.34l2.58,0c0.49,1.59,1.58,3.2,3.06,3.65a6.16,6.16,0,0,0,7.74-4.12c1.07-3.33,0-8-2.9-9.65-2.38-1.37-5.92-.22-7.54,2.72l-1.8-1.13,1-11H20.11v2.59H10.56L10.41,19a7.54,7.54,0,0,1,7.27-.42c3.89,1.89,5.7,6.2,4.94,11.27-1,5-3.36,7.91-8.58,8.31-5.8.05-7.85-4-7.82-6.81h0Z" transform="translate(-0.29 -0.3)"/><path id="path21-3-0-6-3-8" class="cls-2" d="M173.15,218.91l-2.58,0c-0.49-1.59-1.58-3.2-3.06-3.65a6.16,6.16,0,0,0-7.74,4.12c-1.07,3.33,0,8,2.9,9.65,2.38,1.37,5.92.22,7.54-2.72l1.8,1.13-1,11H159.26v-2.59h9.55l0.15-4.56a7.54,7.54,0,0,1-7.27.42c-3.89-1.89-5.7-6.2-4.94-11.27,1-5,3.36-7.91,8.58-8.31,5.8-.05,7.85,4,7.82,6.81h0Z" transform="translate(-0.29 -0.3)"/></g></svg>