<svg id="Layer_1" data-name="Layer 1" xmlns="http://www.w3.org/2000/svg" viewBox="0 0 178.79 249.65"><defs><style>.cls-1{fill:#fff;stroke:#000;stroke-width:1px;}</style></defs><title>5_S</title><g id="g8447-5-9"><g id="g8459-0-4"><rect id="rect6920-5-5" class="cls-1" x="0.5" y="0.5" width="177.79" height="248.65" rx="8.5" ry="8.5"/><path id="path6950-9-9" d="M130.52,223c7.35-10.49,15.21-16.53,15.34-24.72,0-2.65-1.39-7.16-5.87-8-2.91-.56-6.91,1.8-7,6.59,0,1-1,.93-1-0.38a27.2,27.2,0,0,1,3.34-11.75h-9.63A27.2,27.2,0,0,1,129,196.46c0,1.31-1,1.33-1,.38-0.08-4.79-4.09-7.15-7-6.59-4.48.86-5.91,5.37-5.87,8,0.13,8.19,8,14.22,15.34,24.72h0Z" transform="translate(0.1 0.1)"/><path id="path6952-6-0" d="M164.47,209.2c3.43-4.37,7.11-6.89,7.17-10.3a3.31,3.31,0,0,0-2.74-3.34,2.85,2.85,0,0,0-3.27,2.75c0,0.4-.47.39-0.47-0.16a10.42,10.42,0,0,1,1.56-4.9h-4.5a10.42,10.42,0,0,1,1.56,4.9c0,0.54-.47.55-0.47,0.16a2.85,2.85,0,0,0-3.27-2.75,3.31,3.31,0,0,0-2.74,3.34c0.06,3.41,3.73,5.93,7.17,10.3h0Z" transform="translate(0.1 0.1)"/><path id="path6956-5-0" d="M14.11,40.25c3.43,4.37,7.11,6.89,7.17,10.3a3.31,3.31,0,0,1-2.74,3.34,2.85,2.85,0,0,1-3.27-2.75c0-.4-0.47-0.39-0.47.16a10.42,10.42,0,0,0,1.56,4.9h-4.5a10.42,10.42,0,0,0,1.56-4.9c0-.54-0.47-0.55-0.47-0.16a2.85,2.85,0,0,1-3.27,2.75,3.31,3.31,0,0,1-2.74-3.34c0.06-3.41,3.73-5.93,7.17-10.3h0Z" transform="translate(0.1 0.1)"/><path id="path6958-4-1" d="M48.06,223c7.35-10.49,15.21-16.53,15.34-24.72,0-2.65-1.39-7.16-5.87-8-2.91-.56-6.91,1.8-7,6.59,0,1-1,.93-1-0.38a27.2,27.2,0,0,1,3.34-11.75H43.25a27.2,27.2,0,0,1,3.34,11.75c0,1.31-1,1.33-1,.38-0.08-4.79-4.09-7.15-7-6.59-4.48.86-5.91,5.37-5.87,8,0.13,8.19,8,14.22,15.34,24.72h0Z" transform="translate(0.1 0.1)"/><path id="path6970-5-5" d="M130.52,26.47C137.87,37,145.73,43,145.86,51.19c0,2.65-1.39,7.16-5.87,8-2.91.56-6.91-1.8-7-6.59,0-1-1-.93-1,0.38a27.2,27.2,0,0,0,3.34,11.75h-9.63A27.2,27.2,0,0,0,129,53c0-1.31-1-1.33-1-.38-0.08,4.79-4.09,7.15-7,6.59-4.48-.86-5.91-5.37-5.87-8,0.13-8.19,8-14.22,15.34-24.72h0Z" transform="translate(0.1 0.1)"/><path id="path6972-5-8" d="M48.06,26.47C55.41,37,63.27,43,63.4,51.19c0,2.65-1.39,7.16-5.87,8-2.91.56-6.91-1.8-7-6.59,0-1-1-.93-1,0.38a27.2,27.2,0,0,0,3.34,11.75H43.25A27.2,27.2,0,0,0,46.59,53c0-1.31-1-1.33-1-.38-0.08,4.79-4.09,7.15-7,6.59-4.48-.86-5.91-5.37-5.87-8C32.85,43,40.71,37,48.06,26.47h0Z" transform="translate(0.1 0.1)"/><path id="path6980-6-3" d="M89.29,143.86c7.35-10.49,15.21-16.53,15.34-24.72,0-2.65-1.39-7.16-5.87-8-2.91-.56-6.91,1.8-7,6.59,0,1-1,.93-1-0.38a27.2,27.2,0,0,1,3.34-11.75H84.48a27.2,27.2,0,0,1,3.34,11.75c0,1.31-1,1.33-1,.38-0.08-4.79-4.09-7.15-7-6.59-4.48.86-5.91,5.37-5.87,8,0.13,8.19,8,14.22,15.34,24.72h0Z" transform="translate(0.1 0.1)"/><path id="path21-4-5-5" d="M172.76,218.51l-2.58,0c-0.49-1.59-1.58-3.2-3.06-3.65a6.16,6.16,0,0,0-7.74,4.12c-1.07,3.32,0,8,2.9,9.65,2.38,1.37,5.92.22,7.54-2.72l1.8,1.13-1,11H158.87v-2.59h9.55l0.15-4.56a7.54,7.54,0,0,1-7.27.42c-3.89-1.89-5.7-6.2-4.94-11.27,1-5,3.36-7.91,8.58-8.31,5.8-.05,7.85,4,7.82,6.81h0Z" transform="translate(0.1 0.1)"/><path id="path21-4-9-2-8" d="M5.83,30.94l2.58,0c0.49,1.59,1.58,3.2,3.06,3.65a6.16,6.16,0,0,0,7.74-4.12c1.07-3.33,0-8-2.9-9.65-2.38-1.37-5.92-.22-7.54,2.72L7,22.39l1-11H19.71V14H10.16L10,18.59a7.54,7.54,0,0,1,7.27-.42c3.89,1.89,5.7,6.2,4.94,11.27-1,5-3.36,7.91-8.58,8.31-5.8.05-7.85-4-7.82-6.81h0Z" transform="translate(0.1 0.1)"/></g></g></svg>