<svg id="Layer_1" data-name="Layer 1" xmlns="http://www.w3.org/2000/svg" viewBox="0 0 178.79 249.65"><defs><style>.cls-1{fill:#fff;stroke:#000;stroke-width:1px;}.cls-2{fill:#d40000;}</style></defs><title>6_H</title><g id="g11270-7-7"><g id="g10004-9-9"><rect id="rect10006-6-1" class="cls-1" x="0.5" y="0.5" width="177.79" height="248.65" rx="8.5" ry="8.5"/></g><path id="path10038-5-0" class="cls-2" d="M14.51,56.6s-1.77-2.54-4.16-5.53c-1.6-2-2.88-4.17-3-6-0.14-2.13,1.15-4.27,3.49-4.38s3.28,1.64,3.67,3.08c0.39-1.44,1.33-3.19,3.67-3.08S21.8,42.9,21.67,45c-0.12,1.87-1.4,4-3,6C16.28,54.05,14.51,56.6,14.51,56.6Z" transform="translate(-0.29 -0.3)"/><path id="path10040-7-6" class="cls-2" d="M164.87,193.65s-1.77,2.54-4.16,5.53c-1.6,2-2.88,4.17-3,6-0.14,2.13,1.15,4.27,3.49,4.38s3.28-1.64,3.67-3.08c0.39,1.44,1.33,3.19,3.67,3.08s3.63-2.24,3.49-4.38c-0.12-1.87-1.4-4-3-6C166.64,196.19,164.87,193.65,164.87,193.65Z" transform="translate(-0.29 -0.3)"/><path id="path10046-1-1" class="cls-2" d="M48.46,65.15S44.74,59,39.73,51.86c-3.35-4.8-6-10-6.28-14.48-0.29-5.12,2.42-10.25,7.32-10.5s6.88,3.95,7.69,7.4c0.81-3.46,2.8-7.65,7.69-7.4s7.61,5.38,7.32,10.5c-0.25,4.48-2.93,9.68-6.28,14.48C52.18,59,48.46,65.15,48.46,65.15Z" transform="translate(-0.29 -0.3)"/><path id="path10048-2-0" class="cls-2" d="M130.92,144.26s-3.72-6.1-8.73-13.28c-3.35-4.8-6-10-6.28-14.48-0.29-5.12,2.42-10.25,7.32-10.5s6.88,3.95,7.69,7.4c0.81-3.46,2.8-7.65,7.69-7.4s7.61,5.38,7.32,10.5c-0.25,4.48-2.93,9.68-6.28,14.48C134.63,138.16,130.92,144.26,130.92,144.26Z" transform="translate(-0.29 -0.3)"/><path id="path10052-3-1" class="cls-2" d="M130.92,65.15s-3.72-6.1-8.73-13.28c-3.35-4.8-6-10-6.28-14.48-0.29-5.12,2.42-10.25,7.32-10.5s6.88,3.95,7.69,7.4c0.81-3.46,2.8-7.65,7.69-7.4s7.61,5.38,7.32,10.5c-0.25,4.48-2.93,9.68-6.28,14.48C134.63,59,130.92,65.15,130.92,65.15Z" transform="translate(-0.29 -0.3)"/><path id="path10056-4-2" class="cls-2" d="M48.46,144.26s-3.72-6.1-8.73-13.28c-3.35-4.8-6-10-6.28-14.48-0.29-5.12,2.42-10.25,7.32-10.5s6.88,3.95,7.69,7.4c0.81-3.46,2.8-7.65,7.69-7.4s7.61,5.38,7.32,10.5c-0.25,4.48-2.93,9.68-6.28,14.48C52.18,138.16,48.46,144.26,48.46,144.26Z" transform="translate(-0.29 -0.3)"/><path id="path10066-9-2" class="cls-2" d="M130.92,185.1s-3.72,6.1-8.73,13.28c-3.35,4.8-6,10-6.28,14.48-0.29,5.12,2.42,10.25,7.32,10.5s6.88-3.95,7.69-7.4c0.81,3.46,2.8,7.65,7.69,7.4s7.61-5.38,7.32-10.5c-0.25-4.48-2.93-9.68-6.28-14.48C134.63,191.2,130.92,185.1,130.92,185.1Z" transform="translate(-0.29 -0.3)"/><path id="path10068-1-2" class="cls-2" d="M48.46,185.1s-3.72,6.1-8.73,13.28c-3.35,4.8-6,10-6.28,14.48-0.29,5.12,2.42,10.25,7.32,10.5s6.88-3.95,7.69-7.4c0.81,3.46,2.8,7.65,7.69,7.4s7.61-5.38,7.32-10.5c-0.25-4.48-2.93-9.68-6.28-14.48C52.18,191.2,48.46,185.1,48.46,185.1Z" transform="translate(-0.29 -0.3)"/><path id="path23-5-2-7-3" class="cls-2" d="M6.79,30.05a52.89,52.89,0,0,1-.05-9.63c0.82-5.19,2.8-7.56,6.11-8.34s7.74,0.09,8.74,4.42l-2.69.05c-1.46-2.93-5.14-2.15-7.22-.87-1.66,1-2.4,5.26-2.08,5.52,0,0,3.13-2.32,5.6-2.15,5.28,0.55,7.45,5.13,7.27,9.46-0.17,5.2-1.82,9.36-7.41,9.64C9.74,37.94,7.3,35,6.79,30.05h0ZM19.9,28.68c0-3.61-1.61-6.32-4.71-6.61s-6.22,2.73-6,6.41,1.64,6.8,5.4,6.79c4,0,5.29-4,5.31-6.58h0Z" transform="translate(-0.29 -0.3)"/><path id="path23-6-5-1-7-1" class="cls-2" d="M172.59,220.19a52.89,52.89,0,0,1,.05,9.63c-0.82,5.19-2.8,7.56-6.11,8.34s-7.74-.09-8.74-4.42l2.69-.05c1.46,2.93,5.14,2.15,7.22.87,1.66-1,2.4-5.26,2.08-5.52,0,0-3.13,2.32-5.6,2.15-5.28-.55-7.45-5.13-7.27-9.46,0.17-5.2,1.82-9.36,7.41-9.64,5.32,0.21,7.75,3.11,8.26,8.1h0Zm-13.11,1.37c0,3.61,1.61,6.32,4.71,6.61s6.22-2.73,6-6.41-1.64-6.8-5.4-6.79c-4,0-5.29,4-5.31,6.58h0Z" transform="translate(-0.29 -0.3)"/></g></svg>