<svg id="Layer_1" data-name="Layer 1" xmlns="http://www.w3.org/2000/svg" viewBox="0 0 178.79 249.65"><defs><style>.cls-1{fill:#fff;stroke:#000;stroke-width:1px;}.cls-2{fill:#d40000;}</style></defs><title>7_H</title><g id="g11234-8-5"><rect id="rect10074-2-8" class="cls-1" x="0.5" y="0.5" width="177.79" height="248.65" rx="8.5" ry="8.5"/><path id="path10106-2-3" class="cls-2" d="M14.51,56.59S12.74,54,10.35,51.06c-1.6-2-2.88-4.17-3-6-0.14-2.13,1.15-4.27,3.49-4.38s3.28,1.64,3.67,3.08c0.39-1.44,1.33-3.19,3.67-3.08S21.8,42.89,21.67,45c-0.12,1.87-1.4,4-3,6C16.28,54,14.51,56.59,14.51,56.59Z" transform="translate(-0.29 -0.29)"/><path id="path10108-3-1" class="cls-2" d="M164.87,193.64s-1.77,2.54-4.16,5.53c-1.6,2-2.88,4.17-3,6-0.14,2.13,1.15,4.27,3.49,4.38s3.28-1.64,3.67-3.08c0.39,1.44,1.33,3.19,3.67,3.08s3.63-2.24,3.49-4.38c-0.12-1.87-1.4-4-3-6C166.64,196.19,164.87,193.64,164.87,193.64Z" transform="translate(-0.29 -0.29)"/><path id="path10110-3-5" class="cls-2" d="M89.69,104.7S86,98.59,81,91.42c-3.35-4.8-6-10-6.28-14.48-0.29-5.12,2.42-10.25,7.32-10.5s6.88,3.95,7.69,7.4c0.81-3.46,2.8-7.65,7.69-7.4s7.61,5.38,7.32,10.5c-0.25,4.48-2.93,9.68-6.28,14.48C93.4,98.59,89.69,104.7,89.69,104.7Z" transform="translate(-0.29 -0.29)"/><path id="path10114-8-3" class="cls-2" d="M48.46,65.14S44.74,59,39.73,51.86c-3.35-4.8-6-10-6.28-14.48-0.29-5.12,2.42-10.25,7.32-10.5s6.88,3.95,7.69,7.4c0.81-3.46,2.8-7.65,7.69-7.4s7.61,5.38,7.32,10.5c-0.25,4.48-2.93,9.68-6.28,14.48C52.18,59,48.46,65.14,48.46,65.14Z" transform="translate(-0.29 -0.29)"/><path id="path10116-2-5" class="cls-2" d="M130.92,144.26s-3.72-6.1-8.73-13.28c-3.35-4.8-6-10-6.28-14.48-0.29-5.12,2.42-10.25,7.32-10.5s6.88,3.95,7.69,7.4c0.81-3.46,2.8-7.65,7.69-7.4s7.61,5.38,7.32,10.5c-0.25,4.48-2.93,9.68-6.28,14.48C134.63,138.15,130.92,144.26,130.92,144.26Z" transform="translate(-0.29 -0.29)"/><path id="path10120-6-5" class="cls-2" d="M130.92,65.14s-3.72-6.1-8.73-13.28c-3.35-4.8-6-10-6.28-14.48-0.29-5.12,2.42-10.25,7.32-10.5s6.88,3.95,7.69,7.4c0.81-3.46,2.8-7.65,7.69-7.4s7.61,5.38,7.32,10.5c-0.25,4.48-2.93,9.68-6.28,14.48C134.63,59,130.92,65.14,130.92,65.14Z" transform="translate(-0.29 -0.29)"/><path id="path10124-1-1" class="cls-2" d="M48.46,144.26s-3.72-6.1-8.73-13.28c-3.35-4.8-6-10-6.28-14.48-0.29-5.12,2.42-10.25,7.32-10.5s6.88,3.95,7.69,7.4c0.81-3.46,2.8-7.65,7.69-7.4s7.61,5.38,7.32,10.5c-0.25,4.48-2.93,9.68-6.28,14.48C52.18,138.15,48.46,144.26,48.46,144.26Z" transform="translate(-0.29 -0.29)"/><path id="path10134-7-3" class="cls-2" d="M130.92,185.09s-3.72,6.1-8.73,13.28c-3.35,4.8-6,10-6.28,14.48-0.29,5.12,2.42,10.25,7.32,10.5s6.88-3.95,7.69-7.4c0.81,3.46,2.8,7.65,7.69,7.4s7.61-5.38,7.32-10.5c-0.25-4.48-2.93-9.68-6.28-14.48C134.63,191.2,130.92,185.09,130.92,185.09Z" transform="translate(-0.29 -0.29)"/><path id="path10136-5-7" class="cls-2" d="M48.46,185.09s-3.72,6.1-8.73,13.28c-3.35,4.8-6,10-6.28,14.48-0.29,5.12,2.42,10.25,7.32,10.5s6.88-3.95,7.69-7.4c0.81,3.46,2.8,7.65,7.69,7.4s7.61-5.38,7.32-10.5c-0.25-4.48-2.93-9.68-6.28-14.48C52.18,191.2,48.46,185.09,48.46,185.09Z" transform="translate(-0.29 -0.29)"/><path id="path25-43-2-3-9" class="cls-2" d="M10.47,38.14c1.73-9.15,3.57-16,8.4-23.47H9v3.21H6.44v-6H20.8l1.77,2.84c-5.13,5.61-9.83,23.74-9,23.47H10.47Z" transform="translate(-0.29 -0.29)"/><path id="path25-7-0-2-8-2" class="cls-2" d="M168.91,212.1c-1.73,9.15-3.57,16-8.4,23.47h9.82v-3.21h2.61v6H158.57l-1.77-2.84c5.13-5.61,9.83-23.74,9-23.47h3.11Z" transform="translate(-0.29 -0.29)"/></g></svg>