<svg id="Layer_1" data-name="Layer 1" xmlns="http://www.w3.org/2000/svg" viewBox="0 0 178.79 249.65"><defs><style>.cls-1{fill:#fff;stroke:#000;stroke-width:1px;}</style></defs><title>7_S</title><g id="g8497-6-8"><rect id="rect7056-4-2" class="cls-1" x="0.5" y="0.5" width="177.79" height="248.65" rx="8.5" ry="8.5"/><path id="path7086-8-0" d="M48.06,26.47C40.71,37,32.85,43,32.72,51.19c0,2.65,1.39,7.16,5.87,8,2.91,0.56,6.91-1.8,7-6.59,0-1,1-.93,1,0.38a27.2,27.2,0,0,1-3.34,11.75h9.63A27.2,27.2,0,0,1,49.54,53c0-1.31,1-1.33,1-.38,0.08,4.79,4.09,7.15,7,6.59,4.48-.86,5.91-5.37,5.87-8C63.27,43,55.41,37,48.06,26.47Z" transform="translate(0.1 0.1)"/><path id="path7088-9-3" d="M14.11,40.25C10.68,44.62,7,47.14,6.94,50.55a3.31,3.31,0,0,0,2.74,3.34A2.85,2.85,0,0,0,13,51.14c0-.4.47-0.39,0.47,0.16a10.42,10.42,0,0,1-1.56,4.9h4.5a10.42,10.42,0,0,1-1.56-4.9c0-.54.47-0.55,0.47-0.16a2.85,2.85,0,0,0,3.27,2.75,3.31,3.31,0,0,0,2.74-3.34c-0.06-3.41-3.73-5.93-7.17-10.3h0Z" transform="translate(0.1 0.1)"/><path id="path7092-7-0" d="M164.47,209.2c-3.43-4.37-7.11-6.89-7.17-10.3a3.31,3.31,0,0,1,2.74-3.34,2.85,2.85,0,0,1,3.27,2.75c0,0.4.47,0.39,0.47-.16a10.42,10.42,0,0,0-1.56-4.9h4.5a10.42,10.42,0,0,0-1.56,4.9c0,0.54.47,0.55,0.47,0.16a2.85,2.85,0,0,1,3.27-2.75,3.31,3.31,0,0,1,2.74,3.34c-0.06,3.41-3.73,5.93-7.17,10.3h0Z" transform="translate(0.1 0.1)"/><path id="path7094-3-5" d="M130.52,26.47C123.17,37,115.31,43,115.18,51.19c0,2.65,1.39,7.16,5.87,8,2.91,0.56,6.91-1.8,7-6.59,0-1,1-.93,1,0.38a27.2,27.2,0,0,1-3.34,11.75h9.63A27.2,27.2,0,0,1,132,53c0-1.31,1-1.33,1-.38,0.08,4.79,4.09,7.15,7,6.59,4.48-.86,5.91-5.37,5.87-8C145.73,43,137.87,37,130.52,26.47Z" transform="translate(0.1 0.1)"/><path id="path7098-7-3" d="M89.29,66C81.94,76.52,74.08,82.56,73.95,90.74c0,2.65,1.39,7.16,5.87,8,2.91,0.56,6.91-1.8,7-6.59,0-1,1-.93,1,0.38a27.2,27.2,0,0,1-3.34,11.75H94.1a27.2,27.2,0,0,1-3.34-11.75c0-1.31,1-1.33,1-.38,0.08,4.79,4.09,7.15,7,6.59,4.48-.86,5.91-5.37,5.87-8C104.5,82.56,96.64,76.52,89.29,66Z" transform="translate(0.1 0.1)"/><path id="path7105-0-7" d="M48.06,105.59c-7.35,10.49-15.21,16.53-15.34,24.72,0,2.65,1.39,7.16,5.87,8,2.91,0.56,6.91-1.8,7-6.59,0-1,1-.93,1,0.38a27.2,27.2,0,0,1-3.34,11.75h9.63a27.2,27.2,0,0,1-3.34-11.75c0-1.31,1-1.33,1-.38,0.08,4.79,4.09,7.15,7,6.59,4.48-.86,5.91-5.37,5.87-8C63.27,122.12,55.41,116.08,48.06,105.59Z" transform="translate(0.1 0.1)"/><path id="path7107-6-3" d="M48.06,223c-7.35-10.49-15.21-16.53-15.34-24.72,0-2.65,1.39-7.16,5.87-8,2.91-.56,6.91,1.8,7,6.59,0,1,1,.93,1-0.38a27.2,27.2,0,0,0-3.34-11.75h9.63a27.2,27.2,0,0,0-3.34,11.75c0,1.31,1,1.33,1,.38,0.08-4.79,4.09-7.15,7-6.59,4.48,0.86,5.91,5.37,5.87,8-0.13,8.19-8,14.22-15.34,24.72h0Z" transform="translate(0.1 0.1)"/><path id="path7109-5-0" d="M130.52,223c-7.35-10.49-15.21-16.53-15.34-24.72,0-2.65,1.39-7.16,5.87-8,2.91-.56,6.91,1.8,7,6.59,0,1,1,.93,1-0.38a27.2,27.2,0,0,0-3.34-11.75h9.63A27.2,27.2,0,0,0,132,196.46c0,1.31,1,1.33,1,.38,0.08-4.79,4.09-7.15,7-6.59,4.48,0.86,5.91,5.37,5.87,8-0.13,8.19-8,14.22-15.34,24.72h0Z" transform="translate(0.1 0.1)"/><path id="path7119-1-9" d="M130.52,105.59c-7.35,10.49-15.21,16.53-15.34,24.72,0,2.65,1.39,7.16,5.87,8,2.91,0.56,6.91-1.8,7-6.59,0-1,1-.93,1,0.38a27.2,27.2,0,0,1-3.34,11.75h9.63A27.2,27.2,0,0,1,132,132.11c0-1.31,1-1.33,1-.38,0.08,4.79,4.09,7.15,7,6.59,4.48-.86,5.91-5.37,5.87-8C145.73,122.12,137.87,116.08,130.52,105.59Z" transform="translate(0.1 0.1)"/><path id="path25-4-6-4" d="M10.07,37.75c1.73-9.15,3.57-16,8.4-23.47H8.65v3.21H6v-6H20.4l1.77,2.84C17,19.88,12.35,38,13.18,37.75H10.07Z" transform="translate(0.1 0.1)"/><path id="path25-4-1-9-1" d="M168.51,211.7c-1.73,9.15-3.57,16-8.4,23.47h9.82V232h2.61v6H158.17l-1.77-2.84c5.13-5.61,9.83-23.74,9-23.47h3.11Z" transform="translate(0.1 0.1)"/></g></svg>