<svg id="Layer_1" data-name="Layer 1" xmlns="http://www.w3.org/2000/svg" viewBox="0 0 178.78 249.65"><defs><style>.cls-1{fill:#fff;stroke:#000;stroke-width:1px;}</style></defs><title>8_C</title><g id="g5495"><rect id="rect6355-6-85-3-3-4-3" class="cls-1" x="0.5" y="0.5" width="177.79" height="248.65" rx="8.5" ry="8.5"/><path id="path147-0-8-1-6-13-2-2-3-8" d="M130.51,26.8c-7.82.17-11.33,9-5.53,15.81,0.84,1,.93,1.57-0.61.61-3.9-2.61-11.38-.89-11.76,7.08-0.47,9.82,13.25,12.65,15.83,2.21,0.14-1.1,1-1.08.82,0.49a32.5,32.5,0,0,1-3.38,12.08h9.3A32.5,32.5,0,0,1,131.78,53c-0.22-1.56.68-1.59,0.82-.49,2.58,10.44,16.3,7.61,15.83-2.21-0.38-8-7.86-9.69-11.76-7.08-1.54,1-1.45.39-.61-0.61,5.79-6.84,2.28-15.64-5.53-15.81h0Z" transform="translate(0.1 0.1)"/><path id="path147-0-8-1-6-75-2-83-9-8-9" d="M48.06,26.8c-7.82.17-11.33,9-5.53,15.81,0.84,1,.93,1.57-0.61.61-3.9-2.61-11.38-.89-11.76,7.08C29.68,60.12,43.4,63,46,52.51c0.14-1.1,1-1.08.82,0.49a32.5,32.5,0,0,1-3.38,12.08h9.3A32.5,32.5,0,0,1,49.33,53c-0.22-1.56.68-1.59,0.82-.49C52.72,63,66.44,60.12,66,50.3c-0.38-8-7.86-9.69-11.76-7.08-1.54,1-1.45.39-.61-0.61C59.39,35.78,55.88,27,48.06,26.8h0Z" transform="translate(0.1 0.1)"/><path id="path147-0-8-1-6-7-5-5-7-62-3-0" d="M130.51,223.31c-7.82-.17-11.33-9-5.53-15.81,0.84-1,.93-1.57-0.61-0.61-3.9,2.61-11.38.89-11.76-7.08-0.47-9.82,13.25-12.65,15.83-2.21,0.14,1.1,1,1.08.82-.49A32.5,32.5,0,0,0,125.87,185h9.3a32.5,32.5,0,0,0-3.38,12.08c-0.22,1.56.68,1.59,0.82,0.49,2.58-10.44,16.3-7.61,15.83,2.21-0.38,8-7.86,9.69-11.76,7.08-1.54-1-1.45-.39-0.61.61,5.79,6.84,2.28,15.64-5.53,15.81h0Z" transform="translate(0.1 0.1)"/><path id="path147-0-8-1-6-75-6-1-2-41-4-5" d="M48.06,223.31c-7.82-.17-11.33-9-5.53-15.81,0.84-1,.93-1.57-0.61-0.61-3.9,2.61-11.38.89-11.76-7.08C29.68,190,43.4,187.16,46,197.6c0.14,1.1,1,1.08.82-.49A32.5,32.5,0,0,0,43.41,185h9.3a32.5,32.5,0,0,0-3.38,12.08c-0.22,1.56.68,1.59,0.82,0.49,2.58-10.44,16.3-7.61,15.83,2.21-0.38,8-7.86,9.69-11.76,7.08-1.54-1-1.45-.39-0.61.61,5.79,6.84,2.28,15.64-5.53,15.81h0Z" transform="translate(0.1 0.1)"/><path id="path147-0-8-1-6-2-00-7-5-5-3" d="M89.29,66.36c-7.82.17-11.33,9-5.53,15.81,0.84,1,.93,1.57-0.61.61-3.9-2.61-11.38-.89-11.76,7.08-0.47,9.82,13.25,12.65,15.83,2.21,0.14-1.1,1-1.08.82,0.49a32.5,32.5,0,0,1-3.38,12.08h9.3a32.5,32.5,0,0,1-3.38-12.08c-0.22-1.56.68-1.59,0.82-.49,2.58,10.44,16.3,7.61,15.83-2.21-0.38-8-7.86-9.69-11.76-7.08-1.54,1-1.45.39-.61-0.61,5.79-6.84,2.28-15.64-5.53-15.81h0Z" transform="translate(0.1 0.1)"/><path id="path147-0-8-1-6-7-5-7-3-0-4-4-6" d="M130.51,105.92c-7.82.17-11.33,9-5.53,15.81,0.84,1,.93,1.57-0.61.61-3.9-2.61-11.38-.89-11.76,7.08-0.47,9.82,13.25,12.65,15.83,2.21,0.14-1.1,1-1.08.82,0.49a32.5,32.5,0,0,1-3.38,12.08h9.3a32.5,32.5,0,0,1-3.38-12.08c-0.22-1.56.68-1.59,0.82-.49,2.58,10.44,16.3,7.61,15.83-2.21-0.38-8-7.86-9.69-11.76-7.08-1.54,1-1.45.39-.61-0.61,5.79-6.84,2.28-15.64-5.53-15.81h0Z" transform="translate(0.1 0.1)"/><path id="path147-0-8-1-6-75-6-6-5-3-2-4-8" d="M48.06,105.92c-7.82.17-11.33,9-5.53,15.81,0.84,1,.93,1.57-0.61.61-3.9-2.61-11.38-.89-11.76,7.08-0.47,9.82,13.25,12.65,15.83,2.21,0.14-1.1,1-1.08.82,0.49a32.5,32.5,0,0,1-3.38,12.08h9.3a32.5,32.5,0,0,1-3.38-12.08c-0.22-1.56.68-1.59,0.82-.49,2.58,10.44,16.3,7.61,15.83-2.21-0.38-8-7.86-9.69-11.76-7.08-1.54,1-1.45.39-.61-0.61,5.79-6.84,2.28-15.64-5.53-15.81h0Z" transform="translate(0.1 0.1)"/><path id="path147-0-8-1-6-2-0-8-6-42-9-6" d="M89.29,183.75c-7.82-.17-11.33-9-5.53-15.81,0.84-1,.93-1.57-0.61-0.61-3.9,2.61-11.38.89-11.76-7.08-0.47-9.82,13.25-12.65,15.83-2.21,0.14,1.1,1,1.08.82-.49a32.5,32.5,0,0,0-3.38-12.08h9.3a32.5,32.5,0,0,0-3.38,12.08c-0.22,1.56.68,1.59,0.82,0.49,2.58-10.44,16.3-7.61,15.83,2.21-0.38,8-7.86,9.69-11.76,7.08-1.54-1-1.45-.39-0.61.61,5.79,6.84,2.28,15.64-5.53,15.81h0Z" transform="translate(0.1 0.1)"/><path id="path147-6-9-8-7-0-5-6-1-6-9" d="M164.47,209.2c3.13-.07,4.53-3.74,2.21-6.59-0.34-.42-0.37-0.65.24-0.25,1.56,1.09,4.55.37,4.7-2.95,0.19-4.09-5.3-5.27-6.33-.92-0.05.46-.41,0.45-0.33-0.2a14,14,0,0,1,1.35-5h-3.72a14,14,0,0,1,1.35,5c0.09,0.65-.27.66-0.33,0.2-1-4.35-6.52-3.17-6.33.92,0.15,3.32,3.14,4,4.7,2.95,0.62-.4.58-0.16,0.24,0.25-2.32,2.85-.91,6.52,2.21,6.59h0Z" transform="translate(0.1 0.1)"/><path id="path147-6-9-8-7-4-5-62-4-0-0" d="M14.11,40.25C11,40.32,9.58,44,11.89,46.84c0.34,0.42.37,0.65-.24,0.25C10.09,46,7.1,46.72,6.95,50c-0.19,4.09,5.3,5.27,6.33.92,0.05-.46.41-0.45,0.33,0.2a14,14,0,0,1-1.35,5H16a14,14,0,0,1-1.35-5c-0.09-.65.27-0.66,0.33-0.2,1,4.35,6.52,3.17,6.33-.92-0.15-3.32-3.14-4-4.7-2.95-0.62.4-.58,0.16-0.24-0.25,2.32-2.85.91-6.52-2.21-6.59h0Z" transform="translate(0.1 0.1)"/><path id="path27-3-3-2" d="M5.57,30C5.7,26.51,7,25.18,9.48,23.34a6.09,6.09,0,0,1-2.68-5.4c0.41-4.4,3.8-6.6,7.5-6.5s6.89,3,7.14,6.23a5.44,5.44,0,0,1-2.58,5.58c2.34,2,3.83,3.27,3.77,6.75a8.18,8.18,0,0,1-8.16,7.75c-5.15.13-9-4.17-8.91-7.71h0Zm14.38,0c0.22-3.2-2.6-5.36-5.79-5.39a5.88,5.88,0,0,0-5.88,5.49c0,3.08,3.61,4.76,5.94,4.77,2.84,0,5.54-2.12,5.73-4.87h0Zm-1-11.44a4.69,4.69,0,0,0-5-4.54c-2.28.07-4.68,1.81-4.69,4.06,0,2.82,2.74,4.23,5.08,4.28,2.12,0,4.54-1.76,4.59-3.79h0Z" transform="translate(0.1 0.1)"/><path id="path27-0-0-5-0" d="M155.93,219.41c0.12,3.53,1.4,4.86,3.91,6.71a6.09,6.09,0,0,0-2.68,5.4c0.41,4.4,3.8,6.6,7.5,6.5s6.89-3,7.14-6.23a5.44,5.44,0,0,0-2.58-5.58c2.34-2,3.83-3.27,3.77-6.75a8.18,8.18,0,0,0-8.16-7.75c-5.15-.13-9,4.17-8.91,7.71h0Zm14.38,0c0.22,3.2-2.6,5.36-5.79,5.39a5.88,5.88,0,0,1-5.88-5.49c0-3.08,3.61-4.76,5.94-4.77,2.84,0,5.54,2.12,5.73,4.87h0Zm-1,11.44a4.69,4.69,0,0,1-5,4.54c-2.28-.07-4.68-1.81-4.69-4.06,0-2.82,2.74-4.23,5.08-4.28,2.12,0,4.54,1.76,4.59,3.79h0Z" transform="translate(0.1 0.1)"/></g></svg>