<svg id="Layer_1" data-name="Layer 1" xmlns="http://www.w3.org/2000/svg" viewBox="0 0 178.79 249.65"><defs><style>.cls-1{fill:#fff;stroke:#000;stroke-width:1px;}.cls-2{fill:#d40000;}</style></defs><title>8_D</title><g id="g6785"><rect id="rect6894-2" class="cls-1" x="0.5" y="0.5" width="177.79" height="248.65" rx="8.5" ry="8.5"/><path id="path6926-2" class="cls-2" d="M14.11,56.2a45,45,0,0,0-5.79-8,45,45,0,0,0,5.79-8,45,45,0,0,0,5.79,8A45,45,0,0,0,14.11,56.2Z" transform="translate(0.1 0.1)"/><path id="path6928-9" class="cls-2" d="M130.52,64.75c-4.13-6.83-8.48-13.47-13.91-19.14,5.43-5.67,9.78-12.31,13.91-19.14,4.13,6.83,8.48,13.47,13.91,19.14C139,51.28,134.65,57.92,130.52,64.75Z" transform="translate(0.1 0.1)"/><path id="path6930-6" class="cls-2" d="M164.47,209.2a45,45,0,0,0-5.79-8,45,45,0,0,0,5.79-8,45,45,0,0,0,5.79,8A45,45,0,0,0,164.47,209.2Z" transform="translate(0.1 0.1)"/><path id="path6932-2" class="cls-2" d="M48.06,64.75c-4.13-6.83-8.48-13.47-13.91-19.14,5.43-5.67,9.78-12.31,13.91-19.14C52.19,33.3,56.54,39.94,62,45.61,56.54,51.28,52.19,57.92,48.06,64.75Z" transform="translate(0.1 0.1)"/><path id="path6938-4" class="cls-2" d="M89.29,104.29c-4.13-6.83-8.48-13.47-13.91-19.14C80.81,79.48,85.16,72.85,89.29,66c4.13,6.83,8.48,13.47,13.91,19.14C97.77,90.83,93.42,97.46,89.29,104.29Z" transform="translate(0.1 0.1)"/><path id="path6942-4" class="cls-2" d="M48.06,143.84c-4.13-6.83-8.48-13.47-13.91-19.14,5.43-5.67,9.78-12.31,13.91-19.14C52.19,112.39,56.54,119,62,124.7,56.54,130.37,52.19,137,48.06,143.84Z" transform="translate(0.1 0.1)"/><path id="path6944-9" class="cls-2" d="M130.52,143.85c-4.13-6.83-8.48-13.47-13.91-19.14,5.43-5.67,9.78-12.31,13.91-19.14,4.13,6.83,8.48,13.47,13.91,19.14C139,130.38,134.65,137,130.52,143.85Z" transform="translate(0.1 0.1)"/><path id="path6948-4" class="cls-2" d="M48.06,223c-4.13-6.83-8.48-13.47-13.91-19.14,5.43-5.67,9.78-12.31,13.91-19.14,4.13,6.83,8.48,13.47,13.91,19.14C56.54,209.51,52.19,216.15,48.06,223Z" transform="translate(0.1 0.1)"/><path id="path6950-4" class="cls-2" d="M130.52,223c-4.13-6.83-8.48-13.47-13.91-19.14,5.43-5.67,9.78-12.31,13.91-19.14,4.13,6.83,8.48,13.47,13.91,19.14C139,209.52,134.65,216.16,130.52,223Z" transform="translate(0.1 0.1)"/><path id="path6956-4" class="cls-2" d="M89.29,183.41c-4.13-6.83-8.48-13.47-13.91-19.14,5.43-5.67,9.78-12.31,13.91-19.14,4.13,6.83,8.48,13.47,13.91,19.14C97.77,169.94,93.42,176.58,89.29,183.41Z" transform="translate(0.1 0.1)"/><path id="path27-00-7-8-6" class="cls-2" d="M5.57,30C5.7,26.51,7,25.18,9.48,23.34a6.09,6.09,0,0,1-2.68-5.4c0.41-4.4,3.8-6.6,7.5-6.5s6.89,3,7.14,6.23a5.44,5.44,0,0,1-2.58,5.58c2.34,2,3.83,3.27,3.77,6.75a8.18,8.18,0,0,1-8.16,7.75c-5.15.13-9-4.17-8.91-7.71h0Zm14.38,0c0.22-3.2-2.6-5.36-5.79-5.39a5.88,5.88,0,0,0-5.88,5.49c0,3.08,3.61,4.76,5.94,4.77,2.84,0,5.54-2.12,5.73-4.87h0Zm-1-11.44a4.69,4.69,0,0,0-5-4.54c-2.28.07-4.68,1.81-4.69,4.06,0,2.82,2.74,4.23,5.08,4.28,2.12,0,4.54-1.76,4.59-3.79h0Z" transform="translate(0.1 0.1)"/><path id="path27-0-1-9-8" class="cls-2" d="M155.93,219.41c0.12,3.53,1.4,4.86,3.91,6.71a6.09,6.09,0,0,0-2.68,5.4c0.41,4.4,3.8,6.6,7.5,6.5s6.89-3,7.14-6.23a5.44,5.44,0,0,0-2.58-5.58c2.34-2,3.83-3.27,3.77-6.75a8.18,8.18,0,0,0-8.16-7.75c-5.15-.13-9,4.17-8.91,7.71h0Zm14.38,0c0.22,3.2-2.6,5.36-5.79,5.39a5.88,5.88,0,0,1-5.88-5.49c0-3.08,3.61-4.76,5.94-4.77,2.84,0,5.54,2.12,5.73,4.87h0Zm-1,11.44a4.69,4.69,0,0,1-5,4.54c-2.28-.07-4.68-1.81-4.69-4.06,0-2.82,2.74-4.23,5.08-4.28,2.12,0,4.54,1.76,4.59,3.79h0Z" transform="translate(0.1 0.1)"/></g></svg>