<svg id="Layer_1" data-name="Layer 1" xmlns="http://www.w3.org/2000/svg" viewBox="0 0 178.79 249.65"><defs><style>.cls-1{fill:#fff;stroke:#000;stroke-width:1px;}.cls-2{fill:#d40000;}</style></defs><title>8_H</title><g id="g11195-3-7"><g id="g10140-6-7"><rect id="rect10142-4-2" class="cls-1" x="0.5" y="0.5" width="177.79" height="248.65" rx="8.5" ry="8.5"/></g><path id="path10174-9-0" class="cls-2" d="M14.51,56.59S12.74,54,10.35,51.06c-1.6-2-2.88-4.17-3-6-0.14-2.13,1.15-4.27,3.49-4.38s3.28,1.64,3.67,3.08c0.39-1.44,1.33-3.19,3.67-3.08S21.8,42.89,21.67,45c-0.12,1.87-1.4,4-3,6C16.28,54,14.51,56.59,14.51,56.59Z" transform="translate(-0.3 -0.29)"/><path id="path10176-9-9" class="cls-2" d="M164.87,193.64s-1.77,2.54-4.16,5.53c-1.6,2-2.88,4.17-3,6-0.14,2.13,1.15,4.27,3.49,4.38s3.28-1.64,3.67-3.08c0.39,1.44,1.33,3.19,3.67,3.08s3.63-2.24,3.49-4.38c-0.12-1.87-1.4-4-3-6C166.64,196.19,164.87,193.65,164.87,193.64Z" transform="translate(-0.3 -0.29)"/><path id="path10178-8-4" class="cls-2" d="M89.69,104.7S86,98.59,81,91.42c-3.35-4.8-6-10-6.28-14.48C74.39,71.82,77.1,66.68,82,66.43s6.88,3.95,7.69,7.4c0.81-3.46,2.8-7.65,7.69-7.4s7.61,5.38,7.32,10.5c-0.25,4.48-2.93,9.68-6.28,14.48C93.41,98.59,89.69,104.7,89.69,104.7Z" transform="translate(-0.3 -0.29)"/><path id="path10182-1-9" class="cls-2" d="M48.46,65.14S44.74,59,39.73,51.86c-3.35-4.8-6-10-6.28-14.48-0.29-5.12,2.42-10.25,7.32-10.5s6.88,3.95,7.69,7.4c0.81-3.46,2.8-7.65,7.69-7.4s7.61,5.38,7.32,10.5c-0.25,4.48-2.93,9.68-6.28,14.48C52.18,59,48.46,65.14,48.46,65.14Z" transform="translate(-0.3 -0.29)"/><path id="path10184-9-1" class="cls-2" d="M130.92,144.26s-3.72-6.1-8.73-13.28c-3.35-4.8-6-10-6.28-14.48-0.29-5.12,2.42-10.25,7.32-10.5s6.88,3.95,7.69,7.4c0.81-3.46,2.8-7.65,7.69-7.4s7.61,5.38,7.32,10.5c-0.25,4.48-2.93,9.68-6.28,14.48C134.63,138.15,130.92,144.26,130.92,144.26Z" transform="translate(-0.3 -0.29)"/><path id="path10188-5-4" class="cls-2" d="M130.92,65.14s-3.72-6.1-8.73-13.28c-3.35-4.8-6-10-6.28-14.48-0.29-5.12,2.42-10.25,7.32-10.5s6.88,3.95,7.69,7.4c0.81-3.46,2.8-7.65,7.69-7.4s7.61,5.38,7.32,10.5c-0.25,4.48-2.93,9.68-6.28,14.48C134.63,59,130.92,65.14,130.92,65.14Z" transform="translate(-0.3 -0.29)"/><path id="path10192-3-6" class="cls-2" d="M48.46,144.26s-3.72-6.1-8.73-13.28c-3.35-4.8-6-10-6.28-14.48-0.29-5.12,2.42-10.25,7.32-10.5s6.88,3.95,7.69,7.4c0.81-3.46,2.8-7.65,7.69-7.4s7.61,5.38,7.32,10.5c-0.25,4.48-2.93,9.68-6.28,14.48C52.18,138.15,48.46,144.26,48.46,144.26Z" transform="translate(-0.3 -0.29)"/><path id="path10196-7-3" class="cls-2" d="M89.69,145.54S86,151.64,81,158.82c-3.35,4.8-6,10-6.28,14.48-0.29,5.12,2.42,10.25,7.32,10.5s6.88-3.95,7.69-7.4c0.81,3.46,2.8,7.65,7.69,7.4s7.61-5.38,7.32-10.5c-0.25-4.48-2.93-9.68-6.28-14.48-5-7.18-8.73-13.28-8.73-13.28h0Z" transform="translate(-0.3 -0.29)"/><path id="path10202-2-8" class="cls-2" d="M130.92,185.09s-3.72,6.1-8.73,13.28c-3.35,4.8-6,10-6.28,14.48-0.29,5.12,2.42,10.25,7.32,10.5s6.88-3.95,7.69-7.4c0.81,3.46,2.8,7.65,7.69,7.4s7.61-5.38,7.32-10.5c-0.25-4.48-2.93-9.68-6.28-14.48C134.63,191.2,130.92,185.09,130.92,185.09Z" transform="translate(-0.3 -0.29)"/><path id="path10204-9-4" class="cls-2" d="M48.46,185.09s-3.72,6.1-8.73,13.28c-3.35,4.8-6,10-6.28,14.48-0.29,5.12,2.42,10.25,7.32,10.5s6.88-3.95,7.69-7.4c0.81,3.46,2.8,7.65,7.69,7.4s7.61-5.38,7.32-10.5c-0.25-4.48-2.93-9.68-6.28-14.48C52.18,191.2,48.46,185.09,48.46,185.09Z" transform="translate(-0.3 -0.29)"/><path id="path27-00-0-7-4" class="cls-2" d="M6,30.44c0.12-3.53,1.4-4.86,3.91-6.71a6.09,6.09,0,0,1-2.68-5.4c0.41-4.4,3.8-6.6,7.5-6.5s6.89,3,7.14,6.23a5.44,5.44,0,0,1-2.58,5.58c2.34,2,3.83,3.27,3.77,6.75a8.18,8.18,0,0,1-8.16,7.75c-5.15.13-9-4.17-8.91-7.71H6Zm14.38,0c0.22-3.2-2.6-5.36-5.79-5.39a5.88,5.88,0,0,0-5.88,5.49c0,3.08,3.61,4.76,5.94,4.77,2.84,0,5.54-2.12,5.73-4.87h0ZM19.33,19a4.69,4.69,0,0,0-5-4.54c-2.28.07-4.68,1.81-4.69,4.06,0,2.82,2.74,4.23,5.08,4.28,2.12,0,4.54-1.76,4.59-3.79h0Z" transform="translate(-0.3 -0.29)"/><path id="path27-0-1-0-8-9" class="cls-2" d="M156.33,219.8c0.12,3.53,1.4,4.86,3.91,6.71a6.09,6.09,0,0,0-2.68,5.4c0.41,4.4,3.8,6.6,7.5,6.5s6.89-3,7.14-6.23a5.44,5.44,0,0,0-2.58-5.58c2.34-2,3.83-3.27,3.77-6.75a8.18,8.18,0,0,0-8.16-7.75c-5.15-.13-9,4.17-8.91,7.71h0Zm14.38,0c0.22,3.2-2.6,5.36-5.79,5.39a5.88,5.88,0,0,1-5.88-5.49c0-3.08,3.61-4.76,5.94-4.77,2.84,0,5.54,2.12,5.73,4.87h0Zm-1,11.44a4.69,4.69,0,0,1-5,4.54c-2.28-.07-4.68-1.81-4.69-4.06,0-2.82,2.74-4.23,5.08-4.28,2.12,0,4.54,1.76,4.59,3.79h0Z" transform="translate(-0.3 -0.29)"/></g></svg>