<svg id="Layer_1" data-name="Layer 1" xmlns="http://www.w3.org/2000/svg" viewBox="0 0 178.79 249.65"><defs><style>.cls-1{fill:#fff;stroke:#000;stroke-width:1px;}.cls-2{fill:#d40000;}</style></defs><title>9_D</title><g id="g6800"><rect id="rect6962-4" class="cls-1" x="0.5" y="0.5" width="177.79" height="248.65" rx="8.5" ry="8.5"/><path id="path6994-9" class="cls-2" d="M14.11,56.2a45,45,0,0,0-5.79-8,45,45,0,0,0,5.79-8,45,45,0,0,0,5.79,8A45,45,0,0,0,14.11,56.2Z" transform="translate(0.1 0.1)"/><path id="path6996-5" class="cls-2" d="M130.52,64.75c-4.13-6.83-8.48-13.47-13.91-19.14,5.43-5.67,9.78-12.31,13.91-19.14,4.13,6.83,8.48,13.47,13.91,19.14C139,51.28,134.65,57.92,130.52,64.75Z" transform="translate(0.1 0.1)"/><path id="path6998-7" class="cls-2" d="M164.47,209.2a45,45,0,0,0-5.79-8,45,45,0,0,0,5.79-8,45,45,0,0,0,5.79,8A45,45,0,0,0,164.47,209.2Z" transform="translate(0.1 0.1)"/><path id="path7000-7" class="cls-2" d="M48.06,64.75c-4.13-6.83-8.48-13.47-13.91-19.14,5.43-5.67,9.78-12.31,13.91-19.14C52.19,33.3,56.54,39.94,62,45.61,56.54,51.28,52.19,57.92,48.06,64.75Z" transform="translate(0.1 0.1)"/><path id="path7002-0" class="cls-2" d="M130.52,117.5c-4.13-6.83-8.48-13.47-13.91-19.14,5.43-5.67,9.78-12.31,13.91-19.14,4.13,6.83,8.48,13.47,13.91,19.14C139,104,134.65,110.67,130.52,117.5Z" transform="translate(0.1 0.1)"/><path id="path7004-0" class="cls-2" d="M48.06,117.5c-4.13-6.83-8.48-13.47-13.91-19.14,5.43-5.67,9.78-12.31,13.91-19.14C52.19,86.05,56.54,92.69,62,98.36,56.54,104,52.19,110.67,48.06,117.5Z" transform="translate(0.1 0.1)"/><path id="path7008-2" class="cls-2" d="M89.29,143.86c-4.13-6.83-8.48-13.47-13.91-19.14,5.43-5.67,9.78-12.31,13.91-19.14,4.13,6.83,8.48,13.47,13.91,19.14C97.77,130.4,93.42,137,89.29,143.86Z" transform="translate(0.1 0.1)"/><path id="path7016-2" class="cls-2" d="M48.06,223c-4.13-6.83-8.48-13.47-13.91-19.14,5.43-5.67,9.78-12.31,13.91-19.14,4.13,6.83,8.48,13.47,13.91,19.14C56.54,209.51,52.19,216.15,48.06,223Z" transform="translate(0.1 0.1)"/><path id="path7018-0" class="cls-2" d="M130.52,223c-4.13-6.83-8.48-13.47-13.91-19.14,5.43-5.67,9.78-12.31,13.91-19.14,4.13,6.83,8.48,13.47,13.91,19.14C139,209.52,134.65,216.16,130.52,223Z" transform="translate(0.1 0.1)"/><path id="path7020-7" class="cls-2" d="M130.52,170.23c-4.13-6.83-8.48-13.47-13.91-19.14,5.43-5.67,9.78-12.31,13.91-19.14,4.13,6.83,8.48,13.47,13.91,19.14C139,156.77,134.65,163.4,130.52,170.23Z" transform="translate(0.1 0.1)"/><path id="path7022-4" class="cls-2" d="M48.06,170.21c-4.13-6.83-8.48-13.47-13.91-19.14,5.43-5.67,9.78-12.31,13.91-19.14,4.13,6.83,8.48,13.47,13.91,19.14C56.54,156.74,52.19,163.38,48.06,170.21Z" transform="translate(0.1 0.1)"/><path id="path29-5-3-7-8" class="cls-2" d="M6.77,32.68l2.4-.76a4.26,4.26,0,0,0,4.68,3c3.48-.28,4.64-4.17,4.9-7.62a6.91,6.91,0,0,1-5.13,2.1c-5.55-.3-7-4.74-7-9.4-0.15-3.92,1.47-6.77,4.25-8.07a9.51,9.51,0,0,1,6.32.12c3.4,1.8,4.66,4.9,4.43,12.31,0,6.09-1.29,13.19-7.82,13.35a6.32,6.32,0,0,1-7-5h0ZM16.21,26a5.7,5.7,0,0,0,2.28-2.4,4.52,4.52,0,0,0,.44-3c-0.31-4.42-2.62-6.93-6-6.43-1.87.28-2.9,1.33-3.48,3.28-1.08,3.61.29,7.82,2.87,8.79A5,5,0,0,0,16.21,26h0Z" transform="translate(0.1 0.1)"/><path id="path29-6-2-9-2" class="cls-2" d="M171.81,216.77l-2.4.76a4.26,4.26,0,0,0-4.68-3c-3.48.28-4.64,4.17-4.9,7.62a6.91,6.91,0,0,1,5.13-2.1c5.55,0.3,7,4.74,7,9.4,0.15,3.92-1.47,6.77-4.25,8.07a9.51,9.51,0,0,1-6.32-.12c-3.4-1.8-4.66-4.9-4.43-12.31,0-6.09,1.29-13.19,7.82-13.35a6.32,6.32,0,0,1,7,5h0Zm-9.44,6.68a5.7,5.7,0,0,0-2.28,2.4,4.52,4.52,0,0,0-.44,3c0.31,4.42,2.62,6.93,6,6.43,1.87-.28,2.9-1.33,3.48-3.28,1.08-3.61-.29-7.82-2.87-8.79a5,5,0,0,0-3.87.27h0Z" transform="translate(0.1 0.1)"/></g></svg>