<svg id="Layer_1" data-name="Layer 1" xmlns="http://www.w3.org/2000/svg" viewBox="0 0 178.79 249.65"><defs><style>.cls-1{fill:#fff;stroke:#000;stroke-width:1px;}.cls-2{fill:#d40000;}</style></defs><title>9_H</title><g id="g11153-5-1"><g id="g10208-4-1"><rect id="rect10210-5-4" class="cls-1" x="0.5" y="0.5" width="177.79" height="248.65" rx="8.5" ry="8.5"/></g><path id="path10240-7-9" class="cls-2" d="M48.46,117.88s-3.72-6.1-8.73-13.28c-3.35-4.8-6-10-6.28-14.48-0.29-5.12,2.42-10.25,7.32-10.5s6.88,3.95,7.69,7.4c0.81-3.46,2.8-7.65,7.69-7.4s7.61,5.38,7.32,10.5c-0.25,4.48-2.93,9.68-6.28,14.48C52.18,111.77,48.46,117.88,48.46,117.88Z" transform="translate(-0.3 -0.29)"/><path id="path10242-3-8" class="cls-2" d="M14.51,56.59S12.74,54,10.35,51.05c-1.6-2-2.88-4.17-3-6-0.14-2.13,1.15-4.27,3.49-4.38s3.28,1.64,3.67,3.08c0.39-1.44,1.33-3.19,3.67-3.08S21.8,42.88,21.67,45c-0.12,1.87-1.4,4-3,6C16.28,54,14.51,56.58,14.51,56.59Z" transform="translate(-0.3 -0.29)"/><path id="path10244-4-5" class="cls-2" d="M164.87,193.64s-1.77,2.54-4.16,5.53c-1.6,2-2.88,4.17-3,6-0.14,2.13,1.15,4.27,3.49,4.38s3.28-1.64,3.67-3.08c0.39,1.44,1.33,3.19,3.67,3.08s3.63-2.24,3.49-4.38c-0.12-1.87-1.4-4-3-6C166.64,196.18,164.87,193.64,164.87,193.64Z" transform="translate(-0.3 -0.29)"/><path id="path10250-9-0" class="cls-2" d="M48.46,65.14S44.74,59,39.73,51.85c-3.35-4.8-6-10-6.28-14.48-0.29-5.12,2.42-10.25,7.32-10.5s6.88,3.95,7.69,7.4c0.81-3.46,2.8-7.65,7.69-7.4s7.61,5.38,7.32,10.5c-0.25,4.48-2.93,9.68-6.28,14.48C52.18,59,48.46,65.14,48.46,65.14Z" transform="translate(-0.3 -0.29)"/><path id="path10254-7-3" class="cls-2" d="M130.92,117.88s-3.72-6.1-8.73-13.28c-3.35-4.8-6-10-6.28-14.48-0.29-5.12,2.42-10.25,7.32-10.5s6.88,3.95,7.69,7.4c0.81-3.46,2.8-7.65,7.69-7.4s7.61,5.38,7.32,10.5c-0.25,4.48-2.93,9.68-6.28,14.48C134.63,111.77,130.92,117.88,130.92,117.88Z" transform="translate(-0.3 -0.29)"/><path id="path10256-4-7" class="cls-2" d="M130.92,65.14s-3.72-6.1-8.73-13.28c-3.35-4.8-6-10-6.28-14.48-0.29-5.12,2.42-10.25,7.32-10.5s6.88,3.95,7.69,7.4c0.81-3.46,2.8-7.65,7.69-7.4s7.61,5.38,7.32,10.5c-0.25,4.48-2.93,9.68-6.28,14.48C134.63,59,130.92,65.14,130.92,65.14Z" transform="translate(-0.3 -0.29)"/><path id="path10258-5-9" class="cls-2" d="M89.69,144.25S86,138.15,81,131c-3.35-4.8-6-10-6.28-14.48C74.39,111.37,77.1,106.23,82,106s6.88,3.95,7.69,7.4c0.81-3.46,2.8-7.65,7.69-7.4s7.61,5.38,7.32,10.5c-0.25,4.48-2.93,9.68-6.28,14.48C93.41,138.15,89.69,144.25,89.69,144.25Z" transform="translate(-0.3 -0.29)"/><path id="path10266-8-9" class="cls-2" d="M130.92,132.35s-3.72,6.1-8.73,13.28c-3.35,4.8-6,10-6.28,14.48-0.29,5.12,2.42,10.25,7.32,10.5s6.88-3.95,7.69-7.4c0.81,3.46,2.8,7.65,7.69,7.4s7.61-5.38,7.32-10.5c-0.25-4.48-2.93-9.68-6.28-14.48C134.63,138.45,130.92,132.35,130.92,132.35Z" transform="translate(-0.3 -0.29)"/><path id="path10268-2-7" class="cls-2" d="M48.46,132.35s-3.72,6.1-8.73,13.28c-3.35,4.8-6,10-6.28,14.48-0.29,5.12,2.42,10.25,7.32,10.5s6.88-3.95,7.69-7.4c0.81,3.46,2.8,7.65,7.69,7.4s7.61-5.38,7.32-10.5c-0.25-4.48-2.93-9.68-6.28-14.48C52.18,138.45,48.46,132.35,48.46,132.35Z" transform="translate(-0.3 -0.29)"/><path id="path10270-1-4" class="cls-2" d="M130.92,185.09s-3.72,6.1-8.73,13.28c-3.35,4.8-6,10-6.28,14.48-0.29,5.12,2.42,10.25,7.32,10.5s6.88-3.95,7.69-7.4c0.81,3.46,2.8,7.65,7.69,7.4s7.61-5.38,7.32-10.5c-0.25-4.48-2.93-9.68-6.28-14.48C134.63,191.19,130.92,185.09,130.92,185.09Z" transform="translate(-0.3 -0.29)"/><path id="path10272-0-7" class="cls-2" d="M48.46,185.09s-3.72,6.1-8.73,13.28c-3.35,4.8-6,10-6.28,14.48-0.29,5.12,2.42,10.25,7.32,10.5s6.88-3.95,7.69-7.4c0.81,3.46,2.8,7.65,7.69,7.4s7.61-5.38,7.32-10.5c-0.25-4.48-2.93-9.68-6.28-14.48C52.18,191.19,48.46,185.09,48.46,185.09Z" transform="translate(-0.3 -0.29)"/><path id="path29-5-8-5-4" class="cls-2" d="M7.17,33.06l2.4-.76a4.26,4.26,0,0,0,4.68,3c3.48-.28,4.64-4.17,4.9-7.62A6.91,6.91,0,0,1,14,29.77c-5.55-.3-7-4.74-7-9.4-0.15-3.92,1.47-6.77,4.25-8.07a9.51,9.51,0,0,1,6.32.12c3.4,1.8,4.66,4.9,4.43,12.31,0,6.09-1.29,13.19-7.82,13.35a6.32,6.32,0,0,1-7-5h0Zm9.44-6.68A5.7,5.7,0,0,0,18.89,24a4.52,4.52,0,0,0,.44-3c-0.31-4.42-2.62-6.93-6-6.43-1.87.28-2.9,1.33-3.48,3.28-1.08,3.61.29,7.82,2.87,8.79a5,5,0,0,0,3.87-.27h0Z" transform="translate(-0.3 -0.29)"/><path id="path29-6-2-3-6-6" class="cls-2" d="M172.21,217.16l-2.4.76a4.26,4.26,0,0,0-4.68-3c-3.48.28-4.64,4.17-4.9,7.62a6.91,6.91,0,0,1,5.13-2.1c5.55,0.3,7,4.74,7,9.4,0.15,3.92-1.47,6.77-4.25,8.07a9.51,9.51,0,0,1-6.32-.12c-3.4-1.8-4.66-4.9-4.43-12.31,0-6.09,1.29-13.19,7.82-13.35a6.32,6.32,0,0,1,7,5h0Zm-9.44,6.68a5.7,5.7,0,0,0-2.28,2.4,4.52,4.52,0,0,0-.44,3c0.31,4.42,2.62,6.93,6,6.43,1.87-.28,2.9-1.33,3.48-3.28,1.08-3.61-.29-7.82-2.87-8.79a5,5,0,0,0-3.87.27h0Z" transform="translate(-0.3 -0.29)"/></g></svg>