<svg id="Layer_1" data-name="Layer 1" xmlns="http://www.w3.org/2000/svg" viewBox="0 0 178.79 249.65"><defs><style>.cls-1{fill:#fff;stroke:#000;stroke-width:1px;}</style></defs><title>9_S</title><g id="g8526-6-2"><rect id="rect7195-8-7" class="cls-1" x="0.5" y="0.5" width="177.79" height="248.65" rx="8.5" ry="8.5"/><path id="path7225-5-2" d="M48.06,26.47C40.71,37,32.85,43,32.72,51.19c0,2.65,1.39,7.16,5.87,8,2.91,0.56,6.91-1.8,7-6.59,0-1,1-.93,1,0.38a27.2,27.2,0,0,1-3.34,11.75h9.63A27.2,27.2,0,0,1,49.54,53c0-1.31,1-1.33,1-.38,0.08,4.79,4.09,7.15,7,6.59,4.48-.86,5.91-5.37,5.87-8C63.27,43,55.41,37,48.06,26.47Z" transform="translate(0.1 0.1)"/><path id="path7227-2-8" d="M14.11,40.25C10.68,44.62,7,47.14,6.94,50.55a3.31,3.31,0,0,0,2.74,3.34A2.85,2.85,0,0,0,13,51.14c0-.4.47-0.39,0.47,0.16a10.42,10.42,0,0,1-1.56,4.9h4.5a10.42,10.42,0,0,1-1.56-4.9c0-.54.47-0.55,0.47-0.16a2.85,2.85,0,0,0,3.27,2.75,3.31,3.31,0,0,0,2.74-3.34c-0.06-3.41-3.73-5.93-7.17-10.3h0Z" transform="translate(0.1 0.1)"/><path id="path7229-4-8" d="M48.06,170.24c-7.35-10.49-15.21-16.53-15.34-24.72,0-2.65,1.39-7.16,5.87-8,2.91-.56,6.91,1.8,7,6.59,0,1,1,.93,1-0.38A27.2,27.2,0,0,0,43.25,132h9.63a27.2,27.2,0,0,0-3.34,11.75c0,1.31,1,1.33,1,.38,0.08-4.79,4.09-7.15,7-6.59,4.48,0.86,5.91,5.37,5.87,8C63.27,153.71,55.41,159.74,48.06,170.24Z" transform="translate(0.1 0.1)"/><path id="path7231-7-8" d="M164.47,209.2c-3.43-4.37-7.11-6.89-7.17-10.3a3.31,3.31,0,0,1,2.74-3.34,2.85,2.85,0,0,1,3.27,2.75c0,0.4.47,0.39,0.47-.16a10.42,10.42,0,0,0-1.56-4.9h4.5a10.42,10.42,0,0,0-1.56,4.9c0,0.54.47,0.55,0.47,0.16a2.85,2.85,0,0,1,3.27-2.75,3.31,3.31,0,0,1,2.74,3.34c-0.06,3.41-3.73,5.93-7.17,10.3h0Z" transform="translate(0.1 0.1)"/><path id="path7233-8-9" d="M130.52,26.47C123.17,37,115.31,43,115.18,51.19c0,2.65,1.39,7.16,5.87,8,2.91,0.56,6.91-1.8,7-6.59,0-1,1-.93,1,0.38a27.2,27.2,0,0,1-3.34,11.75h9.63A27.2,27.2,0,0,1,132,53c0-1.31,1-1.33,1-.38,0.08,4.79,4.09,7.15,7,6.59,4.48-.86,5.91-5.37,5.87-8C145.73,43,137.87,37,130.52,26.47Z" transform="translate(0.1 0.1)"/><path id="path7235-9-4" d="M48.06,79.21c-7.35,10.49-15.21,16.53-15.34,24.72,0,2.65,1.39,7.16,5.87,8,2.91,0.56,6.91-1.8,7-6.59,0-1,1-.93,1,0.38a27.2,27.2,0,0,1-3.34,11.75h9.63a27.2,27.2,0,0,1-3.34-11.75c0-1.31,1-1.33,1-.38,0.08,4.79,4.09,7.15,7,6.59,4.48-.86,5.91-5.37,5.87-8C63.27,95.74,55.41,89.71,48.06,79.21Z" transform="translate(0.1 0.1)"/><path id="path7241-7-2" d="M130.52,79.21c-7.35,10.49-15.21,16.53-15.34,24.72,0,2.65,1.39,7.16,5.87,8,2.91,0.56,6.91-1.8,7-6.59,0-1,1-.93,1,0.38a27.2,27.2,0,0,1-3.34,11.75h9.63A27.2,27.2,0,0,1,132,105.74c0-1.31,1-1.33,1-.38,0.08,4.79,4.09,7.15,7,6.59,4.48-.86,5.91-5.37,5.87-8C145.73,95.74,137.87,89.71,130.52,79.21Z" transform="translate(0.1 0.1)"/><path id="path7245-1-6" d="M48.06,223c-7.35-10.49-15.21-16.53-15.34-24.72,0-2.65,1.39-7.16,5.87-8,2.91-.56,6.91,1.8,7,6.59,0,1,1,.93,1-0.38a27.2,27.2,0,0,0-3.34-11.75h9.63a27.2,27.2,0,0,0-3.34,11.75c0,1.31,1,1.33,1,.38,0.08-4.79,4.09-7.15,7-6.59,4.48,0.86,5.91,5.37,5.87,8-0.13,8.19-8,14.22-15.34,24.72h0Z" transform="translate(0.1 0.1)"/><path id="path7247-0-6" d="M130.52,223c-7.35-10.49-15.21-16.53-15.34-24.72,0-2.65,1.39-7.16,5.87-8,2.91-.56,6.91,1.8,7,6.59,0,1,1,.93,1-0.38a27.2,27.2,0,0,0-3.34-11.75h9.63A27.2,27.2,0,0,0,132,196.46c0,1.31,1,1.33,1,.38,0.08-4.79,4.09-7.15,7-6.59,4.48,0.86,5.91,5.37,5.87,8-0.13,8.19-8,14.22-15.34,24.72h0Z" transform="translate(0.1 0.1)"/><path id="path7251-3-6" d="M130.52,170.24c-7.35-10.49-15.21-16.53-15.34-24.72,0-2.65,1.39-7.16,5.87-8,2.91-.56,6.91,1.8,7,6.59,0,1,1,.93,1-0.38A27.2,27.2,0,0,0,125.71,132h9.63A27.2,27.2,0,0,0,132,143.71c0,1.31,1,1.33,1,.38,0.08-4.79,4.09-7.15,7-6.59,4.48,0.86,5.91,5.37,5.87,8C145.73,153.71,137.87,159.74,130.52,170.24Z" transform="translate(0.1 0.1)"/><path id="path7255-7-8" d="M89.29,105.59c-7.35,10.49-15.21,16.53-15.34,24.72,0,2.65,1.39,7.16,5.87,8,2.91,0.56,6.91-1.8,7-6.59,0-1,1-.93,1,0.38a27.2,27.2,0,0,1-3.34,11.75H94.1a27.2,27.2,0,0,1-3.34-11.75c0-1.31,1-1.33,1-.38,0.08,4.79,4.09,7.15,7,6.59,4.48-.86,5.91-5.37,5.87-8C104.5,122.12,96.64,116.08,89.29,105.59Z" transform="translate(0.1 0.1)"/><path id="path29-33-4-4" d="M6.77,32.68l2.4-.76a4.26,4.26,0,0,0,4.68,3c3.48-.28,4.64-4.17,4.9-7.62a6.91,6.91,0,0,1-5.13,2.1c-5.55-.3-7-4.74-7-9.4-0.15-3.92,1.47-6.77,4.25-8.07a9.51,9.51,0,0,1,6.32.12c3.4,1.8,4.66,4.9,4.43,12.31,0,6.09-1.29,13.19-7.82,13.35a6.32,6.32,0,0,1-7-5h0ZM16.21,26a5.7,5.7,0,0,0,2.28-2.4,4.52,4.52,0,0,0,.44-3c-0.31-4.42-2.62-6.93-6-6.43-1.87.28-2.9,1.33-3.48,3.28-1.08,3.61.29,7.82,2.87,8.79A5,5,0,0,0,16.21,26h0Z" transform="translate(0.1 0.1)"/><path id="path29-33-3-8-6" d="M171.81,216.77l-2.4.76a4.26,4.26,0,0,0-4.68-3c-3.48.28-4.64,4.17-4.9,7.62a6.91,6.91,0,0,1,5.13-2.1c5.55,0.3,7,4.74,7,9.4,0.15,3.92-1.47,6.77-4.25,8.07a9.51,9.51,0,0,1-6.32-.12c-3.4-1.8-4.66-4.9-4.43-12.31,0-6.09,1.29-13.19,7.82-13.35a6.32,6.32,0,0,1,7,5h0Zm-9.44,6.68a5.7,5.7,0,0,0-2.28,2.4,4.52,4.52,0,0,0-.44,3c0.31,4.42,2.62,6.93,6,6.43,1.87-.28,2.9-1.33,3.48-3.28,1.08-3.61-.29-7.82-2.87-8.79a5,5,0,0,0-3.87.27h0Z" transform="translate(0.1 0.1)"/></g></svg>