<svg id="Layer_1" data-name="Layer 1" xmlns="http://www.w3.org/2000/svg" viewBox="0 0 178.78 249.65"><defs><style>.cls-1{fill:#fff;}.cls-2,.cls-7{fill:#1d1d1d;}.cls-3,.cls-4{fill:#ffcb05;}.cls-4,.cls-6,.cls-7{fill-rule:evenodd;}.cls-5,.cls-6{fill:#ed1c24;}</style></defs><title>back</title><g id="rect6355-6-85-9-3-2"><rect class="cls-1" x="0.5" y="0.5" width="177.79" height="248.65" rx="8.5" ry="8.5"/><path d="M169.68,249.55H8.9a9,9,0,0,1-9-9V8.9a9,9,0,0,1,9-9H169.68a9,9,0,0,1,9,9V240.55A9,9,0,0,1,169.68,249.55ZM8.9,0.9a8,8,0,0,0-8,8V240.55a8,8,0,0,0,8,8H169.68a8,8,0,0,0,8-8V8.9a8,8,0,0,0-8-8H8.9Z" transform="translate(0.1 0.1)"/></g><rect class="cls-2" x="12.75" y="11.88" width="153.28" height="225.89"/><rect class="cls-3" x="13.49" y="12.57" width="151.8" height="224.5"/><rect class="cls-2" x="14.24" y="13.26" width="150.31" height="223.12"/><path class="cls-4" d="M23.52,161.24c0.48,7.58,8.12,26.6-.46,27.48-4.76.48-5.55-4.87-3.33-4.45a0.72,0.72,0,0,0,.9-0.14,0.68,0.68,0,0,0-.07-0.93c-3.53-2.52-5.7,6.72,1.73,6.88-4.82,6.86-7.78,20.85-1.65,23.38a3.48,3.48,0,0,0,2.19.18c2.74-.81,2.76-5.1.23-5.64-0.92-.12-2.1.15-1.84,1.08,0.44,0.86.79,0.15,1.6,0.23,1.43,0.27,1.09,4.09-1.84,2.87-4-1.85-2.45-10.78-.57-15.74,2.49,4.38,12.46,9.22,4.74,19.62-2.16-2.66-8.44-2.26-10,2.15-0.77,2.46.27,3,.89,2.21a3.66,3.66,0,0,0,.16-1c0.68-4.18,6.51-4.49,8-2.32-2.69,2.45-5.84,6.17-4.94,9.68-1.91-1.26-1.08-4.93-.05-7.13,2.06-4.29-6,1-3.64,7.81,1.89,5.18,8,7,13,2,8.4,4.74,15.24-1.63,23.74-.6-3.31,1.52-4.89,5.42-12.33,5.08-1.89-.15-4.28-0.63-4.28-0.63a0.67,0.67,0,0,0,0,1.29c12.67,2.8,14-4.12,18.3-4.89-0.87,4.78,6,7.51,12.31,4.94,1.17-.51,5-2.55,3.48-3.48-0.5-.17-0.69.12-1.12,0.51-5.36,4.47-13.84,2.82-13.42-1.59,3,1.77,6.61,1.39,9.68-.11h0c8.16-4.17,13.25.31,12.13,2.36-2,3-5.69-1.34-3.1-1.39a0.9,0.9,0,0,0,.91-0.18c1.36-1.89-4.65-1.61-2.69,2.13s8.83,0.65,5.38-3.48c2.7-2.23,5-2.48,7.64-1.34-4.85-.29-5.82,4.59-2.87,6.2,1.48,0.76,3,.25,4.14-1.11,0.69-.88-0.14-1.56-0.78-1.09-4,4.34-6.78-5.09,2.39-2,1.66,0.56.8,0.5,3-.16,8.35-2.46,5.8,5.82,2.4,2.78a2,2,0,0,0-.85-0.73c-2.06-.08.61,3.68,3.51,2.45,3.16-1.45,2.29-6.58-2.68-6.29,2.53-1.09,4.85-1,7.64,1.34-2,2.38-.64,4.77,1.89,5.11,2.88,0.39,4.45-2.23,3.6-3.91-0.7-1.22-2.65-1.26-2.94-.46a0.67,0.67,0,0,0,.46.81,1.93,1.93,0,0,1,1.29.2,1.24,1.24,0,0,1-.34,1.52c-1.36,1.32-4.89.15-3.1-2.25,1.61-2.06,6-3.42,11.78-.45h0c3.75,1.83,7.33,1.56,9.68.11,0.35,3.69-5.38,5.32-10.32,3.44-3.38-1.36-3.69-3.2-4.51-2.1a0.78,0.78,0,0,0,.35,1c6.54,5.8,16.77,2.93,15.73-2.77,4.36,0.78,5.53,7.71,18.3,4.89a0.66,0.66,0,0,0-.28-1.29c-11,2.42-12.5-2.7-16.37-4.45,8.73-1.06,15.3,5.36,23.74.6,8.62,8.79,18.8-3.8,10.11-11.12a0.64,0.64,0,0,0-1,0c-0.29.47,0.08,0.94,0.34,1.49,1.09,2.46,1.6,5.81-.14,7,0.63-3.86-2-7.06-4.94-9.68,1.48-2.12,7.13-1.87,8,2.07a6.49,6.49,0,0,1,.11,1.06c0.25,0.82,1.3.69,1.27-.33-0.27-5.84-7.77-6.83-10.27-3.8-7.71-10.41,2.24-15.22,4.74-19.62,1.53,4,3.09,11,.8,14.55-1.78,2.51-4.68,1.36-3.93-1a1,1,0,0,1,.58-0.66c0.76-.21,1,0.46,1.6,0,1.32-1.65-4.15-2.47-3.51,1.92,0.54,3,3.82,3.3,5.84,1.13,4.18-4.68.38-17.19-3.26-22.27,5.56-.12,6.46-7,2.87-7.16-1.45,0-1.63.8-1.12,1.31s0.83-.19,1.48.1,0.82,2.13-.6,3.47a4.47,4.47,0,0,1-5.69-.08c-4.85-4.85,1.85-20,1.85-27.37,9.84,15,2.65,19.51,1.7,15.89-0.4-2,2.06-1.34,1.52-2.69-0.85-1.33-4.56,1.73-1.94,4.5a2.31,2.31,0,0,0,3.21.18,4.59,4.59,0,0,0,1-1.16,8.68,8.68,0,0,0,.83-5.27c-0.62-5.08-4.09-10.61-7-14.77-2.17-6.32,3.81-10.55,6.41-7.64,1.33,1.6.07,4.38-2.24,3.11a0.82,0.82,0,0,0-.85-0.21c-1.68,1,2.38,3.26,4.29.64,3.1-4.51-4.79-9.13-8.42-2.35a8.25,8.25,0,0,0-.91,3.28c-5-12,7.38-19.8,7.24-12.25a3.32,3.32,0,0,1-2.53,3.39,0.77,0.77,0,0,0-.77.58c-0.21,2.06,5.87-.28,4.34-5.7,2.77,1,2.87-3.75,1.87-4.28a0.64,0.64,0,0,0-.83.37,6.25,6.25,0,0,0,.11,1.34c0.2,3.91-5.81-1.32-3.44-11.45,0.35-1.39.34-.78-0.1-2.66-1.84-8.74,2.14-12.77,3.22-12.36,0.52,0.27.29,1.74,0.17,2.31a0.64,0.64,0,0,0,1.25.28c0.7-3.38-.88-4.34-2.25-3.82,1-3.68-1.42-6.26-3.72-6.49a0.67,0.67,0,0,0,0,1.34,3.24,3.24,0,0,1,2.53,2.4c2.13,8.69-12.63,2-7.1-11.23,0,5,5.65,8.75,8.93,5.53,2-2.1.92-5.43-1.53-5.81-1.39-.15-3.55.86-2.46,1.78,0.5,0.28.65,0,1.19-.27,1.58-.7,2.54.48,2.55,1.78-0.07,2.52-3.78,3.56-6.15.44a7.09,7.09,0,0,1-.82-6.62c3.9-5.48,9.22-14.06,6.21-20h0a3.35,3.35,0,0,0-2.37-1.71,2.77,2.77,0,0,0-2.73,2.53c-0.32,2.8,3.22,3.94,2.86,2.2a1.13,1.13,0,0,0-.85-0.6c-2.55-1.46,1.74-5.68,2.65.42,0.53,4.51-2.59,10.11-5.07,13.89,0-6.93-7.88-26.22-.19-28.28,4.58-1.08,6.05,3.53,4.64,4.3-0.65.28-.92-0.28-1.48,0.1-1.51,1.5,3.76,2.53,3.23-1.76a4.89,4.89,0,0,0-5-4.1c5.71-7.95,7.81-24.32-.07-23.64A3.1,3.1,0,0,0,153.88,40c0.94,2.22,3.61,1.58,3.52.5a0.65,0.65,0,0,0-.75-0.53,2,2,0,0,1-.81.18c-1.48-.16-1.25-4,1.66-2.92,4.2,1.71,2.55,10.86.68,15.78-2.53-4.4-12.42-9.25-4.74-19.62,2.47,3,10,2.07,10.27-3.8,0-.89-0.65-1-1.1-0.66a1.62,1.62,0,0,0-.23,1c-0.58,4.33-6.53,4.62-8.05,2.45,3-2.69,5.57-5.86,4.94-9.68,1.41,0.93,1.69,4-.21,7.66a0.66,0.66,0,0,0,1,.8c8.75-7.39-1.59-19.91-10.11-11.12-8.39-4.75-15.11,1.64-23.74.6,1.47-.64,2.9-2.13,4.8-3.35,5.57-3.38,10.93-.84,11.93-1.13A0.67,0.67,0,0,0,143,15a25.29,25.29,0,0,0-4.39-.7c-8.83-.41-10.34,4.92-14,5.55,1-5.41-8.39-8.62-15.24-3.19a1.72,1.72,0,0,0-.92,1.23,0.65,0.65,0,0,0,.73.55,1.08,1.08,0,0,0,.55-0.37c5.47-4.84,14-3,13.64,1.4-2.34-1.53-6-1.69-9.68.11h0c-7.81,4-12.83,0-12.24-2.1a2.39,2.39,0,0,1,3-1c1,0.48,1.54,1.88.48,2.1-0.41.06-.59,0-0.87,0a0.67,0.67,0,0,0-.46.81,0.8,0.8,0,0,0,.92.52c3.69,0.06,2.65-5.41-1.61-4.89,0,0-.21,0-0.52.13-2.51.78-2.95,3-1.34,5-2.49,2.05-4.67,2.6-7.64,1.34,5.79,0.3,5.72-6.33,1.57-6.55-1.5,0-3.86,1.61-2.87,2.57,0.77,0.49,1.06-.58,2-1.05,3.36-1.53,4.8,6.27-4.36,2.78a0.9,0.9,0,0,0-.83,0c-10.21,3.88-7.06-5.93-3.5-2.11a0.81,0.81,0,0,0,.88.5c2.2-.84-3.79-5.25-5.48-0.54-0.61,2,.76,4.59,4.4,4.4-2.57,1.11-4.86,1-7.64-1.34,4-4.85-5.42-7.54-5.72-2.31-0.07,2.29,2.81,2.57,3.18,1.57a0.67,0.67,0,0,0-.46-0.81c-0.57-.09-1.11.24-1.39-0.35a0.85,0.85,0,0,1,0-.46c0.36-2.11,3.77-1.71,4.08-.16,0.31,2.19-4.68,5.85-12.27,2h0c-3.92-1.91-7.56-1.45-9.68-.11-0.41-4.38,8-6.1,13.42-1.59a3.93,3.93,0,0,0,.64.53,0.65,0.65,0,0,0,.85-0.77,5,5,0,0,0-1.41-1.36C62,11.5,53,14.4,54,19.81c-4.12-.71-5.62-7.38-17.5-5.06-0.68.15-1.23,0.16-1.28,0.83,0.15,1.29,1.25.18,5.39,0,7-.1,8.67,3.73,11.75,5.11-8.45,1-15.38-5.33-23.74-.6-7.78-8-18,2.13-11.31,10a12.7,12.7,0,0,0,1.39,1.33,0.66,0.66,0,0,0,.88-0.92c-0.7-1-2-4.56-1-6.75a2.25,2.25,0,0,1,.78-1c-0.9,3.53,2.24,7.22,4.94,9.68-1.56,2.21-7.48,1.81-8.05-2.45a1.61,1.61,0,0,0-.23-1,0.63,0.63,0,0,0-.92,0c-0.54.69,0.21,2.76,0.71,3.54,2.28,3.32,7.48,3.25,9.38.92C32.77,43.68,22.9,48.67,20.41,53a27.55,27.55,0,0,1-1.94-9.85c0.19-9.19,7.08-6,4.84-3.28-0.81.89-1.52-.61-2.09,0.5a0.7,0.7,0,0,0,.55.94,2.15,2.15,0,0,0,2.62-.72C28.22,35,14.58,31,17.62,47.86a30.52,30.52,0,0,0,4.67,11.52c-5.55.12-6.45,7-2.87,7.16a1.34,1.34,0,0,0,1.34-.6c0.1-.55-0.18-1-1-0.76-1.33.25-1.37-1.31-.9-2.39,1.4-3,10-4.88,7.92,9-1,6.39-3.24,12.53-3.25,17.3-10.92-16.75-1.09-19.6-1.68-15.27-0.21,1-.73.8-1.39,1.25A0.66,0.66,0,0,0,21,76.25c4.72-1.62.48-8.82-3-3.86h0a9.1,9.1,0,0,0-.86,5c0.53,5.18,4.06,10.81,7.08,15,2.33,6.72-4.47,10.85-6.65,7.31C16.58,98,18,95.86,20,97l0.36,0.22c0.77,0.22,1.34-.71.35-1.32-5.13-2.94-7.19,6.52-.67,6.45,3.26-.11,5.62-3.29,5.85-6.7,4.34,10.45-4.53,17.77-6.73,14.33-0.85-1.46-.93-4.71,2.16-5.51A0.68,0.68,0,0,0,22,104c0.7-2.32-5.92,0-4.3,5.57-1.07-.39-2.46.05-2.44,2.38,0,1.1.23,2.39,1.18,1.82a0.92,0.92,0,0,0,.18-1.09c-0.53-3.55,2.16-1.73,3.36,1.94,1.5,4.93-.19,8.87-0.24,10.13,0,1,1.49,4.32.52,9s-4.45,7-3.56,2.57a0.67,0.67,0,0,0-.16-0.58c-1.68-1.5-2.12,5.3,1.17,4.12-1.56,5.39,4.54,7.77,4.34,5.7a0.77,0.77,0,0,0-.77-0.58c-4-1.16-3.15-8.3,1.34-5.78,3.56,2.08,6.12,8,3.36,14.65-0.35-5.11-5-8.27-8.51-5.89a3.63,3.63,0,0,0-1.3,4c1.1,3.45,5,2.07,5.15,1a0.66,0.66,0,0,0-.63-0.67,2,2,0,0,0-.77.35c-1.82.86-2.89-.76-2.57-2.24,1.12-4.34,9.5-.79,6.9,6.68-3.9,5.5-9.22,14-6.23,20l0,0a4.61,4.61,0,0,0,1,1.16c1.89,1.41,3.88-.07,4.11-2.11,0.19-2.9-3.57-3.75-2.83-2a2,2,0,0,0,.91.55,1.39,1.39,0,0,1,.48,1.87c-1.45,2.93-7.52-1.91,1.83-16.25,0,0.48,0,.49,0,0.9h0ZM33,168.66c4.93-2.82,5.24-9.42,5.17-15.32a1,1,0,0,0-.39-1.15,0.77,0.77,0,0,0-.54,0,8.06,8.06,0,0,0-5.08,3.66,31.54,31.54,0,0,1,8.42-18.78l0.62-.65,0.34-.34h0l0,0,0,0a0.68,0.68,0,0,0,.11-0.22,0.72,0.72,0,0,0,0-.25,0.74,0.74,0,0,0-.08-0.24,0.66,0.66,0,0,0-.15-0.19l-0.24-.19-0.23-.17-0.24-.16-0.24-.15-0.24-.15-0.25-.14L39.85,134l-0.25-.12-0.26-.11-0.26-.1-0.27-.09-0.27-.08-0.27-.06-0.14,0-0.14,0-0.14,0-0.14,0-0.14,0H36.21l-0.14,0-0.14,0-0.14,0a8.85,8.85,0,0,0-2.55.92,9.39,9.39,0,0,0-.84-2.29L32.34,132l-0.06-.11-0.06-.11-0.06-.11-0.06-.11L32,131.43l-0.07-.1-0.12-.19-0.13-.19-0.13-.19-0.14-.19-0.14-.18-0.15-.18L31,130l-0.15-.18-0.16-.18-0.16-.18-0.17-.17-0.17-.17L30,129l-0.18-.17-0.18-.17-0.19-.16-0.19-.16-0.19-.16-0.2-.16-0.2-.15-0.21-.15-0.21-.15-0.21-.15-0.22-.15-0.22-.14L27.42,127l-0.23-.14L27,126.7l-0.23-.13-0.24-.13-0.24-.13L26,126.18l-0.14-.07L25.72,126,25.58,126l-0.14-.07-0.14-.07-0.15-.07L25,125.7l-0.15-.06-0.15-.06-0.15-.06-0.15-.06-0.15-.06-0.15-.06-0.15-.06-0.15-.06-0.16-.06-0.16-.06L23.33,125,23.17,125,23,124.93l-0.16-.05-0.16-.05-0.16-.05-0.16-.05h0l0.16-.05,0.16-.05,0.16-.05,0.16-.05,0.16-.05,0.16-.05,0.16-.06,0.16-.06,0.16-.06,0.15-.06,0.15-.06,0.15-.06L24.4,124l0.15-.06,0.15-.06,0.15-.06,0.15-.06,0.15-.07,0.15-.07,0.14-.07,0.14-.07,0.14-.07,0.14-.07,0.14-.07,0.24-.13,0.24-.13,0.24-.13,0.23-.13,0.23-.14,0.23-.14,0.22-.14,0.22-.14,0.22-.15,0.21-.15,0.21-.15,0.21-.15,0.2-.15,0.2-.16,0.19-.16,0.19-.16,0.19-.16,0.18-.17,0.18-.17,0.17-.17,0.17-.17,0.17-.17,0.16-.18,0.16-.18,0.15-.18,0.15-.18,0.15-.18,0.14-.18,0.14-.19,0.13-.19,0.13-.19,0.12-.19L32,118l0.06-.11,0.06-.11,0.06-.11,0.06-.11,0.06-.11,0.06-.11,0.05-.11,0.05-.11,0.05-.11,0.05-.11,0-.11,0-.11,0-.11,0-.11,0-.11,0-.11,0-.11,0-.11,0-.11,0-.11,0-.11,0-.11,0-.11,0-.11,0-.11,0-.12v-0.06h0l0.16,0.08,0.15,0.08,0.15,0.07,0.15,0.07L34,115.47l0.15,0.06,0.15,0.06,0.15,0.06,0.15,0.05,0.15,0,0.15,0,0.15,0,0.15,0,0.14,0,0.14,0,0.14,0,0.14,0,0.14,0,0.14,0,0.14,0h1.37l0.14,0,0.14,0L38,116l0.14,0,0.14,0,0.14,0,0.14,0,0.13,0,0.13,0,0.13,0,0.13,0,0.13,0,0.13-.05,0.13-.05,0.13-.06,0.13-.06,0.13-.06,0.13-.06,0.12-.06,0.12-.07,0.12-.07,0.12-.07,0.12-.07,0.12-.08,0.12-.08,0.12-.08,0.12-.08,0.12-.09,0.12-.09,0.11-.09,0.13-.1,0.08-.08,0.07-.11,0-.12,0-.12v-0.13l0-.13,0-.12-0.06-.1,0,0h0v0L41.25,113l-0.31-.32-0.31-.32-0.3-.33L40,111.73l-0.29-.33-0.28-.33-0.27-.33-0.27-.33-0.26-.33-0.26-.33a32.05,32.05,0,0,1-6.2-16.14c2.46,3.54,6,4.4,6,3,0-6,0-12.92-5.16-15.86a43.55,43.55,0,0,1,3-18.31c3.89,4.3,7.75-8.23-.08-7.79,2.29-6.76,3.05-13.19-.29-19.53,7,5.21,13.3,4.15,18.86-2,7,4.32,13.16,2.73,18.79-3,7.85,3,13.68-1.18,16-8.27,2.32,7.19,8.13,11.28,16,8.27,5.66,5.7,11.77,7.31,18.79,3,5.52,6.11,11.84,7.19,18.86,2-3.34,6.28-2.61,12.72-.29,19.53-7.79-.43-4,12.09-0.08,7.79a43.49,43.49,0,0,1,3,18.31c-4.79,2.71-5.2,8.95-5.17,14.79,0,1.07-.4,2.68,2.84,1a8.91,8.91,0,0,0,3.17-3,37,37,0,0,1-1.68,7.63c-4.47,12.84-11.31,11.63-5.83,14.26a7,7,0,0,0,6.49-.4c0.7,3.29,3.83,7.47,10.87,9.63h0c-1,.47-9.4,2.68-10.87,9.63a6.93,6.93,0,0,0-8.06.56c-0.46.35-.7,0.73-0.28,1.17,5.53,5.52,8.41,11.71,9.37,19.75a8.21,8.21,0,0,0-4.6-3.55c-1.23-.32-1.92-0.83-1.21,6.58,0.07,0.69.1,0.91,0.19,1.49,0.58,3.62,1.63,6.48,4.79,8.29a44.39,44.39,0,0,1-3,18.31c-3.86-4.22-7.8,8.23.08,7.79-2.31,6.75-3,13.25.29,19.53-6.8-5-13.13-4.33-18.86,2-6.92-4.28-13.19-2.72-18.79,3-8.33-3.19-13.85,1.76-16,8.27-2.4-7.38-8.29-11.2-16-8.27-5.62-5.72-11.88-7.23-18.79-3-5.71-6.31-12-7-18.86-2,3.35-6.36,2.61-12.7.29-19.53,7.84,0.43,4-12.12.08-7.79A44.22,44.22,0,0,1,33,168.66Z" transform="translate(0.1 0.1)"/><path class="cls-2" d="M20.07,124.6a0.28,0.28,0,0,0,0,.13,0.28,0.28,0,0,0,0,.13c2.68,9.52-1.79,14.86-3.39,14.13h0c-0.76-.35-0.57-1.91-0.39-2.73a0.27,0.27,0,1,0-.53-0.12c-0.25,1.15-.37,2.87.7,3.36h0a2,2,0,0,0,2-.53,5,5,0,0,0-.65,2.16h0A4.33,4.33,0,0,0,21.31,146a0.28,0.28,0,0,0,.11-0.55c-5-1-3.63-9.65,1.53-6.44,3.45,2.15,6.81,8.78,2.54,16.64,0.87-5.9-4.54-10-8-7.28h0a3.17,3.17,0,0,0,.24,5.14c1.44,0.79,3.37-.29,3.09-0.74a0.27,0.27,0,0,0-.37-0.08c-1.9,1.28-3.32.13-3.57-1.33-0.66-3.79,5.77-5,7.73.66a7.83,7.83,0,0,1-.11,5.21c-3.75,5.24-9.19,14-6.23,19.65h0a2.69,2.69,0,0,0,2.46,1.54,2.57,2.57,0,0,0,2-2.78c-0.16-1.59-2-2.37-2.16-1.84a0.28,0.28,0,0,0,.18.35,1.91,1.91,0,0,1-.07,3.72c-1.81.24-6.45-4.63,3.28-18.88-1.05,6.72,9.18,30.18-1.33,30.18-5.17.15-5.59-6.16-2.58-5.17a0.28,0.28,0,0,0,.16-0.53c-4-1.31-3.54,6.82,2.82,6.24-5.91,7.75-8.12,23-1.19,23.68a2.6,2.6,0,0,0,2.67-3.1,1.91,1.91,0,0,0-2.81-1.69,0.28,0.28,0,0,0,.2.52c2.7-1.13,2.89,3.85,0,3.72-3.58-.36-4-5.17-3.71-8.74a30.15,30.15,0,0,1,2.19-8.55c1.6,4.54,13.71,9.61,4.76,21.2-1.78-3.23-9.82-2.58-9.89,3.34a0.28,0.28,0,1,0,.55,0c0.06-5.43,7.62-5.8,8.93-2.91-2.9,2.58-6.44,6.73-4.79,10.24-2.42-.39-3-4.24-0.73-8.51a0.28,0.28,0,0,0-.14-0.45,0.27,0.27,0,0,0-.32.12c-8.41,6.91,1.37,19.23,9.76,10.4h0c8.83,5.2,16.11-2.42,25.4-.23-4.73.69-5.91,7.76-18,4.92a0.28,0.28,0,0,0-.12.54c12.73,3,13.85-4.69,18.66-5-1.52,6.24,9.38,8.38,15.25,2.71a0.29,0.29,0,0,0,0-.39,0.27,0.27,0,0,0-.38,0c-5.5,5.3-15.65,3.42-14.37-2.12,2.17,1.59,5.69,2.08,9.58.28h0c6.51-3.47,11.39-1.46,12.69.84,1.83,3.21-4.24,4.34-4.51,1.15h0c-0.08-.92.65-1.27,1.61-1.13a0.28,0.28,0,0,0,.08-0.55c-1.58-.24-2.31.67-2.22,1.73h0c0.39,4.63,9.07,1.89,4.81-2.4,3.67-3.17,6.6-2.92,10.42-.52-8.13-2.31-7.62,5.85-3.42,5.37a3.41,3.41,0,0,0,2.3-1.48,0.27,0.27,0,1,0-.43-0.34c-1.41,1.87-3.19,1.43-4,.32-1-1.49-.17-5.59,7.22-2.71a0.27,0.27,0,0,0,.15,0s1.62-.54,2.24-0.7c5.28-1.35,6.13,2,5.13,3.39-0.77,1.11-2.55,1.55-4-.32a0.27,0.27,0,0,0-.43.34c2.41,3.21,6.14.66,5.12-2.16-0.89-2.44-3.72-2.44-6.23-1.73,3.85-2.42,6.78-2.63,10.42.52-4.29,4.33,4.41,7,4.81,2.4h0c0.09-1.06-.64-2-2.22-1.73a0.28,0.28,0,0,0,.08.55c1-.14,1.69.2,1.61,1.13h0c-0.21,2.52-4.21,2.36-4.78.46-0.8-2.66,5.26-6.77,13-2.45h0c3.85,1.78,7.38,1.32,9.58-.28,1.29,5.56-8.89,7.4-14.37,2.12a0.28,0.28,0,0,0-.37.41c5.88,5.67,16.77,3.52,15.25-2.71,4.81,0.27,5.93,7.93,18.66,5a0.28,0.28,0,0,0,.2-0.33,0.27,0.27,0,0,0-.32-0.21c-12.14,2.84-13.32-4.24-18-4.92,9.29-2.19,16.57,5.43,25.4.23h0c8.39,8.84,18.17-3.48,9.76-10.4a0.28,0.28,0,1,0-.45.34c2.36,4.54,1.48,8.15-.73,8.51,1.66-3.51-1.89-7.67-4.79-10.24,1.31-2.88,8.87-2.51,8.93,2.91a0.28,0.28,0,1,0,.55,0c-0.06-5.92-8.11-6.57-9.89-3.34-9-11.59,3.16-16.67,4.76-21.2,2.59,6.2,3.32,13.91.42,16.46-1.21,1.07-3.17,1.24-3.84-.36-0.54-1.28,0-3.31,1.89-2.53a0.28,0.28,0,0,0,.2-0.52c-3.57-1.49-3.91,5.07-.14,4.79,6.92-.69,4.72-15.93-1.19-23.68,6.4,0.59,6.8-7.55,2.82-6.24a0.28,0.28,0,0,0,.16.53c3.21-1.06,2.43,6-3.3,5.1-9.34-1.48.44-23.38-.62-30.12,9.64,14.1,5.17,19.12,3.28,18.88a1.91,1.91,0,0,1-.07-3.72,0.28,0.28,0,0,0,.18-0.35c-0.15-.53-2,0.24-2.16,1.84-0.22,2.16,2.45,4.36,4.43,1.27v0h0c3-5.68-2.5-14.43-6.24-19.65-2.15-6,3.08-11,6.67-8.42,2.24,1.85.38,5.9-2.62,3.88a0.26,0.26,0,0,0-.37.08c-0.29.45,1.65,1.53,3.09,0.74a3.17,3.17,0,0,0,.24-5.14h0c-3.35-2.65-8.84,1.29-8,7.28-5.64-10.37,2-18.53,5.53-17.23a3,3,0,0,1,1.62,2.78,5.91,5.91,0,0,1,0,.85,3.67,3.67,0,0,1-3.07,3.4,0.28,0.28,0,0,0,.11.55c2.17-.45,3.52-1.94,3.52-4.84h0a4.87,4.87,0,0,0-.65-2.16,2,2,0,0,0,2,.53h0c1.07-.48.95-2.21,0.7-3.36a0.27,0.27,0,1,0-.53.12c0.18,0.81.36,2.37-.39,2.73h0c-1.56.7-6.09-4.54-3.39-14.13a0.29,0.29,0,0,0,0-.13,0.28,0.28,0,0,0,0-.13c-2.71-9.65,1.86-14.83,3.39-14.13h0c0.76,0.35.57,1.91,0.39,2.72a0.27,0.27,0,1,0,.53.12c0.25-1.15.36-2.87-.7-3.36h0a2,2,0,0,0-2,.53,4.87,4.87,0,0,0,.65-2.16h0c0-2.92-1.37-4.39-3.52-4.84a0.28,0.28,0,0,0-.11.55,3.8,3.8,0,0,1,3.09,4.25c0,7.94-14.38-1.16-7.15-14.45-0.89,6,4.61,9.92,8,7.28h0c2.77-2.29.33-7.18-3.25-4.78a0.28,0.28,0,0,0,.29.47c1.37-.92,2.55-0.61,3.19.35,2.54,3.84-5.05,7-7.34.32a7.83,7.83,0,0,1,.11-5.21c3.75-5.23,9.19-14,6.24-19.65h0a2.69,2.69,0,0,0-2.46-1.54,2.56,2.56,0,0,0-2,2.78c0.16,1.59,2,2.37,2.16,1.84a0.28,0.28,0,0,0-.18-0.35,1.91,1.91,0,0,1,.07-3.72c1.81-.23,6.45,4.63-3.28,18.88,1-6.42-5.88-20.73-2.61-27.61a4.57,4.57,0,0,1,8-.35c0.79,1.61.28,3.54-1.52,3a0.27,0.27,0,0,0-.34.18c-0.14.47,1.44,0.87,2.25-.09,1.42-1.69-.15-6.22-4.9-5.79,6-7.93,8-23.18,1.18-23.68h0c-2.68-.13-3.32,3.16-2,4.48,0.91,0.95,2.54.41,2.35-.06a0.27,0.27,0,0,0-.35-0.15c-2.7,1.13-2.9-3.85,0-3.71,5,0.51,4.59,9.91,1.51,17.29-1.6-4.54-13.71-9.61-4.76-21.2,1.22,2.22,5.45,2.62,8,.68,2-1.58,2.17-4.3,1.65-4.31a0.28,0.28,0,0,0-.28.28c-0.06,5.43-7.62,5.8-8.93,2.91,2.89-2.57,6.44-6.74,4.79-10.24,2.31,0.37,3,4.08.73,8.5a0.28,0.28,0,1,0,.45.33c8.41-6.92-1.38-19.23-9.76-10.4h0c-8.85-5.21-16.08,2.43-25.4.23,4.73-.69,5.91-7.76,18-4.92a0.28,0.28,0,0,0,.12-0.54c-12.73-3-13.85,4.69-18.66,5,1.52-6.25-9.38-8.37-15.25-2.71a0.28,0.28,0,0,0,.37.41c5.49-5.3,15.65-3.42,14.37,2.12-2.15-1.58-5.7-2.08-9.58-.28h0c-7.88,4.41-13.74.12-13-2.45,0.56-1.84,4.56-2.11,4.78.46h0c0.08,0.93-.66,1.27-1.61,1.13a0.28,0.28,0,0,0-.08.55c1.58,0.23,2.31-.67,2.22-1.73h0c-0.4-4.62-9.1-1.94-4.81,2.4-3.59,3.11-6.5,3-10.42.52,8.2,2.24,7.56-5.84,3.42-5.37a3.41,3.41,0,0,0-2.3,1.48,0.27,0.27,0,0,0,.43.34A2.48,2.48,0,0,1,95.8,16c2.27,1.1,1.74,5.67-4.26,4.14-0.62-.16-2.24-0.7-2.24-0.7a0.28,0.28,0,0,0-.15,0c-7.3,2.85-8.32-1.13-7.22-2.71,0.77-1.1,2.55-1.55,4,.32a0.27,0.27,0,0,0,.43-0.34,3,3,0,0,0-3.75-1.23c-2.89,1.4-2,7,4.86,5.12-3.84,2.41-6.77,2.64-10.42-.52,2-2,1.2-4.4-1.42-4.78a2.83,2.83,0,0,0-3.39,2.37h0c-0.09,1.06.64,2,2.22,1.73a0.28,0.28,0,0,0-.08-0.55c-0.95.14-1.69-.2-1.61-1.13h0c0.21-2.52,4.21-2.34,4.78-.46,0.75,2.48-4.76,6.83-13,2.45h0c-3.87-1.79-7.4-1.31-9.58.28-1.29-5.56,8.89-7.4,14.37-2.12a0.28,0.28,0,0,0,.37-0.41C63.84,11.87,52.92,14,54.45,20.24c-4.81-.27-5.93-7.93-18.66-5a0.28,0.28,0,0,0-.2.33,0.27,0.27,0,0,0,.32.21C48.05,13,49.23,20.07,54,20.75c-9.29,2.19-16.57-5.43-25.4-.23h0c-8.39-8.84-18.16,3.49-9.76,10.4a0.28,0.28,0,1,0,.45-0.33c-2.38-4.57-1.46-8.15.73-8.5-1.66,3.5,1.89,7.67,4.79,10.24-1.31,2.89-8.87,2.51-8.93-2.91a0.28,0.28,0,1,0-.55,0c0.06,5.92,8.11,6.57,9.89,3.34C34.09,44.34,22,49.42,20.38,54a30.15,30.15,0,0,1-2.19-8.55c-0.88-9.29,4.6-10,5.62-7.56,0.54,1.29,0,3.31-1.89,2.53a0.28,0.28,0,0,0-.2.52c3.54,1.48,3.94-5,.15-4.79h0C15,36.6,17,51.87,23,59.78c-4.71-.43-6.35,4.07-4.9,5.79,0.81,1,2.39.56,2.25,0.09a0.27,0.27,0,0,0-.34-0.18c-1.8.59-2.3-1.35-1.52-3,1.61-3.31,10.69-5,8.57,9.34-1,6.79-3.82,14.24-3.14,18.62a40.48,40.48,0,0,1-5.21-9.84c-2.38-7.29,1.4-10.68,3.05-8.29a1.84,1.84,0,0,1-1.05,3,0.28,0.28,0,0,0-.18.35c0.15,0.53,2-.24,2.16-1.84a2.57,2.57,0,0,0-2-2.78,2.69,2.69,0,0,0-2.46,1.54h0c-1.13,2.17-1.12,4.92,0,8.23a44.26,44.26,0,0,0,6.28,11.41c2.15,6-3.08,11-6.67,8.42-2.24-1.84-.39-5.9,2.62-3.88a0.28,0.28,0,0,0,.29-0.47c-3.58-2.4-6,2.5-3.25,4.78h0c3.34,2.62,8.84-1.27,8-7.28,4.28,7.86.92,14.49-2.54,16.64-5.17,3.23-6.5-5.4-1.53-6.44a0.28,0.28,0,0,0-.11-0.55,4.33,4.33,0,0,0-3.52,4.84h0a5,5,0,0,0,.65,2.16,2,2,0,0,0-2-.53h0c-1.06.49-.95,2.21-0.7,3.36a0.27,0.27,0,1,0,.53-0.12c-0.17-.81-0.36-2.38.39-2.72h0c1.58-.72,6.08,4.57,3.39,14.13h0ZM89.29,228.77c-2.17-7.9-8-12.3-16.06-9.09-6.3-6.46-12.38-6.92-18.77-2.91-6.13-6.94-12.9-7.22-20.19-.87,4.49-6.77,3.9-13.93,1.14-21.58,8.09,1.22,4.12-11.85.52-6.61a44.82,44.82,0,0,1-3.25-19.29,7.74,7.74,0,0,0,3.66-4c1.62-3.67,1.68-10.69,1.48-11.7a0.27,0.27,0,0,0-.31-0.22c-2.78.53-4.44,2.41-5.84,4.89,0.73-8.53,3.5-15.52,9.64-21.59h0a0.29,0.29,0,0,0,0-.42,7,7,0,0,0-3.89-1.67A7.64,7.64,0,0,0,33,134.94a9.13,9.13,0,0,0-1.31-3.41,14.45,14.45,0,0,0-5.83-5,23.36,23.36,0,0,0-4.89-1.8,23.37,23.37,0,0,0,4.89-1.8,14.45,14.45,0,0,0,5.83-5A9.14,9.14,0,0,0,33,114.51a7.64,7.64,0,0,0,4.44,1.21A7,7,0,0,0,41.3,114a0.29,0.29,0,0,0,0-.39l0,0h0c-6.13-6.05-8.91-13-9.64-21.59,1.39,2.48,3.06,4.36,5.84,4.89a0.27,0.27,0,0,0,.32-0.28C38,89.39,37.32,83.55,32.69,81a44.82,44.82,0,0,1,3.25-19.29c3.61,5.26,7.55-7.82-.52-6.61,2.77-7.66,3.35-14.83-1.14-21.58,7.19,6.27,14,6.15,20.19-.87,6.39,4,12.47,3.55,18.77-2.91,8,3.22,13.89-1.19,16.06-9.09,2.18,7.94,8,12.3,16.06,9.09,6.3,6.46,12.38,6.92,18.77,2.91,6.11,6.92,12.89,7.23,20.19.87-4.48,6.76-3.91,13.92-1.14,21.58-8.09-1.22-4.12,11.85-.52,6.61A44.81,44.81,0,0,1,145.9,81c-5.06,2.76-5.29,9.6-5.14,15.62a0.27,0.27,0,0,0,.32.28c2.78-.53,4.45-2.42,5.84-4.89-0.73,8.54-3.51,15.53-9.64,21.59h0a0.29,0.29,0,0,0,0,.42c2.54,2,5.22,2.28,8.33.46,0.88,5.44,6.58,8.85,12,10.21-5.59,1.4-11.17,4.87-12,10.21-3.13-1.83-5.81-1.56-8.33.47a0.29,0.29,0,0,0,0,.42h0c6.13,6.05,8.91,13,9.64,21.59-1.39-2.47-3.05-4.36-5.84-4.89a0.27,0.27,0,0,0-.32.28c-0.18,7.29.52,13.1,5.14,15.62a44.81,44.81,0,0,1-3.25,19.29c-3.59-5.23-7.56,7.83.52,6.61-2.76,7.64-3.35,14.81,1.14,21.58-7.31-6.37-14.09-6-20.19.87-6.39-4-12.47-3.55-18.77,2.91C97.17,216.42,91.41,221,89.29,228.77Z" transform="translate(0.1 0.1)"/><path class="cls-5" d="M31.91,219a9.72,9.72,0,0,0,9.24,10c2.85,0.11,6.68-2,12.15-1-5.62-4-15.45-2.09-17-5.06-1.83-2.82,1.39-6.38,4.89-2.21a0.27,0.27,0,0,1-.41.37c-3-3.62-5.5-.72-4,1.53,1.82,2.64,10.78,1,16.48,4.64-1.38-3.22,3.28-5.18,6.42-1.86a0.27,0.27,0,0,1-.39.39,4.33,4.33,0,0,0-4.13-1.45c-4.38,1.12.8,8.74,9.22,4.84,5.5-2.9,10-2.11,12.27-.23,3.85-3.36,7-3.19,11.12-.62-8.23-8-26.38-.65-27.66-7.34-8.93.76-13-1.16-15.85,0.3-1.24.63-.08,1.26,1.22,1.53a0.28,0.28,0,0,1-.11.55c-3.14-.66-3-2.79,1-3.15-6.84-1.63-8.12-4.62-4.56-6.31a0.28,0.28,0,0,1,.23.51c-5.95,2.83,5.38,7.09,18,6-0.11-2.81,2.87-4.75,5.25-1.62a0.27,0.27,0,1,1-.43.35c-2.05-2.7-4.37-1-4.29,1.25a0.28,0.28,0,0,1,.06.51c1,6,20.13-1.32,28.07,7.61-2.16-7.32-7.66-11.4-15.37-8.24a0.26,0.26,0,0,1-.3-0.06c-6.12-6.36-12-6.94-18.41-2.85a0.27,0.27,0,0,1-.36,0q-0.63-.73-1.27-1.35C45.85,209,38.69,211.67,31.91,219Z" transform="translate(0.1 0.1)"/><path class="cls-5" d="M146.67,219a9.92,9.92,0,0,1-3,7.36c-5.88,5.7-10.3.18-18.38,1.65,5.62-4,15-2,17-5,1.91-2.24-1.14-6.69-4.88-2.23a0.27,0.27,0,0,0,.41.37c3-3.63,5.49-.71,4,1.53-1.82,2.63-10.79,1-16.48,4.64,1.38-3.23-3.28-5.18-6.42-1.86a0.27,0.27,0,0,0,.39.39c3-3.12,8.22-1.17,4.24,2.93-1.25,1.16-4.77,2.58-9.33.46-5.49-2.9-10-2.12-12.27-.23-3.87-3.38-7.06-3.17-11.12-.62,8.24-8,26.47-.65,27.66-7.34,9.19,0.78,13-1.18,15.85.3,1.23,0.63.1,1.26-1.22,1.53a0.28,0.28,0,0,0-.21.33c0.12,0.61,2-.27,2.34-0.79,0.89-1.3-1.35-2-3-2.14,6.83-1.63,8.13-4.61,4.56-6.31a0.28,0.28,0,0,0-.23.51c5.53,2.64-4.1,7.2-18,6,0.11-2.83-2.88-4.74-5.25-1.62a0.27,0.27,0,0,0,.43.35c2-2.7,4.37-1,4.29,1.25a0.28,0.28,0,0,0-.06.51c-1,6-20.14-1.31-28.08,7.61,2.2-7.36,7.68-11.4,15.37-8.24a0.26,0.26,0,0,0,.3-0.06c6.13-6.37,12-6.93,18.41-2.85a0.27,0.27,0,0,0,.36,0C131.57,209,139.09,210.81,146.67,219Z" transform="translate(0.1 0.1)"/><path class="cls-5" d="M31.91,30.48a9.72,9.72,0,0,1,9.24-10c2.88-.12,6.67,2,12.15,1-5.63,4-15.25,2.05-17,5.06-1.83,2.82,1.39,6.38,4.89,2.21a0.27,0.27,0,0,0-.41-0.37c-3,3.62-5.5.72-4-1.53,1.82-2.64,10.78-1,16.48-4.64-1.38,3.22,3.27,5.19,6.42,1.86a0.27,0.27,0,0,0-.39-0.39,4.33,4.33,0,0,1-4.13,1.45c-4.38-1.13.82-8.73,9.22-4.84,5.48,2.89,10,2.13,12.27.23,3.85,3.36,7,3.19,11.12.62-8.25,8-26.35.64-27.66,7.34-8.4-.72-15.4,1.3-16.36-0.73-0.26-.54,1.14-1,1.73-1.1a0.28,0.28,0,0,0-.11-0.55c-3.14.66-3,2.79,1,3.15-11.09,2.65-4.65,7.18-4.2,6.18A0.28,0.28,0,0,0,42,35c-5.58-2.66,4.27-7.19,18-6-0.11,2.82,2.88,4.74,5.25,1.62a0.27,0.27,0,0,0-.43-0.35c-2,2.69-4.37,1-4.29-1.25a0.28,0.28,0,0,0,.06-0.51c1-6,20.14,1.31,28.07-7.61-2.19,7.42-7.72,11.38-15.37,8.24a0.26,0.26,0,0,0-.3.06c-6.28,6.52-12.19,6.82-18.41,2.85C53.57,31.37,46.14,45.8,31.91,30.48Z" transform="translate(0.1 0.1)"/><path class="cls-5" d="M146.67,30.48a9.7,9.7,0,0,0-10.93-10c-3.31.83-6.71,1.63-10.46,0.94,5.63,4,15.26,2.06,17,5.06,1.83,2.82-1.39,6.38-4.89,2.21a0.27,0.27,0,0,1,.41-0.37c3.08,3.67,5.52.62,4-1.55-1.72-2.6-10.79-1-16.47-4.63,1.39,3.24-3.29,5.17-6.42,1.86a0.27,0.27,0,0,1,.39-0.39,4.33,4.33,0,0,0,4.13,1.45c4.38-1.13-.81-8.74-9.22-4.84-5.47,2.89-10,2.14-12.27.23-3.86,3.37-7,3.18-11.12.62,8.22,7.93,26.45.67,27.66,7.34a49,49,0,0,1,10.36.16c5.8,0.57,7.8-1.25,4.27-2a0.28,0.28,0,0,1,.11-0.55c3.14,0.66,3.07,2.79-1,3.15,2.6,0.62,7.35,2.31,6.37,4.72-0.28.68-1.91,2-2.17,1.45a0.28,0.28,0,0,1,.13-0.37c5.62-2.68-4.36-7.18-18-6,0.11,2.82-2.88,4.74-5.25,1.62a0.27,0.27,0,0,1,.43-0.35c2,2.69,4.37,1,4.29-1.25a0.28,0.28,0,0,1-.06-0.51c-1-6-20.12,1.32-28.08-7.61,2.24,7.48,7.74,11.38,15.37,8.24a0.26,0.26,0,0,1,.3.06c6.28,6.52,12.19,6.82,18.41,2.85a0.27,0.27,0,0,1,.36,0q0.63,0.73,1.27,1.35C132.74,40.48,139.91,37.76,146.67,30.48Z" transform="translate(0.1 0.1)"/><path class="cls-5" d="M28.58,228.3c1.15,0.4,3.64,3.11,11.88,1.21-8-.84-9.93-9.85-9-10.85,6.77-7.44,6.76-15.3,3.29-24.61h0a0.28,0.28,0,0,1,.31-0.37c7.66,1.6,4.05-10.5,1.07-5.23h0a0.27,0.27,0,0,1-.48,0,45.47,45.47,0,0,1-3.48-20.18h0A0.28,0.28,0,0,1,32.3,168c4.87-2.59,5.11-9,5-14.86-2.87.68-4.4,3-5.75,5.66a0.27,0.27,0,0,1-.51-0.14c0.56-9,3.22-16.53,9.68-23a6.3,6.3,0,0,0-3.34-1.36A7.27,7.27,0,0,0,33,135.54a9.27,9.27,0,0,1-.94,4.82,0.27,0.27,0,1,1-.48-0.25,9.6,9.6,0,0,0,.72-2.1,8.16,8.16,0,0,0-1.14-6.18A13.91,13.91,0,0,0,25.6,127a22.63,22.63,0,0,0-4.56-1.7,11.89,11.89,0,0,1,2.23,9.35c15.59,8,3.29,23.63,4.21,28.49a2.91,2.91,0,0,0,2.34,2.1,2.22,2.22,0,0,0,1.13-4.17,0.28,0.28,0,0,1,.31-0.46c3.71,2.66-.71,7.23-3.4,4.2,1.88,7.53,7.64,23,2.69,28.73,3.68,8.19,5.53,20.63-1.11,24.63,1.82,2.44,2.16,4.48,1.71,5.87-0.85,2.64-2.88,1.18-2.88,3.25a1.86,1.86,0,0,0,.09.59A1,1,0,0,0,28.58,228.3Z" transform="translate(0.1 0.1)"/><path class="cls-5" d="M150,228.3c-1.15.4-3.64,3.11-11.88,1.21,8-.84,9.92-9.85,9-10.85-6.77-7-6.7-15.45-3.29-24.61h0a0.28,0.28,0,0,0-.3-0.37c-7.66,1.6-4.06-10.52-1.07-5.23h0a0.27,0.27,0,0,0,.48,0,45.49,45.49,0,0,0,3.48-20.18h0a0.28,0.28,0,0,0-.15-0.23c-4.87-2.59-5.11-9.06-5-14.86,2.88,0.69,4.4,3,5.75,5.66a0.27,0.27,0,0,0,.51-0.14c-0.56-9-3.21-16.51-9.68-23,2.26-1.7,4.69-1.93,7.67-.11a9.26,9.26,0,0,0,.93,4.82,0.27,0.27,0,1,0,.48-0.25c-3.16-6.65,2.23-12.62,10.59-14.79a11.89,11.89,0,0,0-2.23,9.35c-15.81,8.16-3,24.23-4.22,28.52-1.94,4.64-6.88.36-3.46-2.1a0.28,0.28,0,0,0-.31-0.46c-3.71,2.67.72,7.22,3.4,4.2-1.88,7.53-7.64,23-2.69,28.73-3.65,8.12-5.55,20.61,1.11,24.63-3.27,4.4-1.78,7.47.57,7.9A1.58,1.58,0,0,1,150,228.3Z" transform="translate(0.1 0.1)"/><path class="cls-5" d="M28.58,21.15c1.35-.51,3.76-3.09,11.88-1.21-8,.84-9.93,9.85-9,10.85,6.77,7.44,6.76,15.31,3.29,24.61h0a0.28,0.28,0,0,0,.31.37c7.65-1.59,4.07,10.53,1.07,5.23h0a0.27,0.27,0,0,0-.48,0,45.47,45.47,0,0,0-3.48,20.18h0a0.28,0.28,0,0,0,.15.23c4.87,2.59,5.11,9,5,14.86-2.87-.68-4.39-3-5.75-5.66a0.27,0.27,0,0,0-.51.14c0.56,9.05,3.22,16.53,9.68,23a6.3,6.3,0,0,1-3.34,1.36A7.27,7.27,0,0,1,33,113.91a8.66,8.66,0,0,0-.17-2.6c-0.11-.52-0.65-2.59-1.13-2.35a0.28,0.28,0,0,0-.12.37,9.58,9.58,0,0,1,.72,2.1,8.16,8.16,0,0,1-1.14,6.18,13.92,13.92,0,0,1-5.61,4.81,22.66,22.66,0,0,1-4.56,1.7,13.21,13.21,0,0,0,1.83-3.47,12.75,12.75,0,0,0,.4-5.88c15.79-8.15,3-24.13,4.22-28.52,1.94-4.66,6.87-.35,3.46,2.1a0.28,0.28,0,0,0,.31.46c3.71-2.67-.72-7.22-3.4-4.2,1.88-7.53,7.64-23,2.69-28.73,3.7-8.24,5.51-20.64-1.11-24.63,3.26-4.39,1.8-7.47-.57-7.9A1.58,1.58,0,0,1,28.58,21.15Z" transform="translate(0.1 0.1)"/><path class="cls-5" d="M150,21.15c-1.34-.51-3.76-3.09-11.88-1.21,4.77,0.5,9.08,4.46,9.08,10.66,0,1.15-9.87,7.33-3.37,24.79h0a0.28,0.28,0,0,1-.3.37c-7.66-1.6-4.06,10.52-1.07,5.23h0a0.27,0.27,0,0,1,.48,0,45.49,45.49,0,0,1,3.48,20.18h0a0.28,0.28,0,0,1-.15.23c-4.87,2.59-5.11,9.06-5,14.86,2.88-.69,4.4-3,5.75-5.66a0.27,0.27,0,0,1,.51.14c-0.56,9-3.21,16.51-9.68,23,2.27,1.71,4.7,1.92,7.67.11a9.26,9.26,0,0,1,.93-4.82,0.27,0.27,0,1,1,.48.24c-3.35,7.05,2.83,12.77,10.59,14.79a11.89,11.89,0,0,1-2.23-9.35c-15.59-8-3.31-23.61-4.21-28.49-0.48-1.62-2.28-2.83-3.81-1.58-1,.83-1.34,2.45.34,3.66a0.28,0.28,0,0,1-.31.46c-3.7-2.66.71-7.23,3.4-4.2-1.88-7.53-7.64-23-2.69-28.73-3.62-8-5.59-20.59,1.11-24.63-3.27-4.39-1.79-7.47.57-7.9A1.58,1.58,0,0,0,150,21.15Z" transform="translate(0.1 0.1)"/><path class="cls-3" d="M18.13,219.88c-6,6.49,2.46,16.51,10,8.71a2.38,2.38,0,0,1-.08-2.45c-2.28-.18-4.15-2.77-3.63-3.08a0.27,0.27,0,0,1,.37.1c1.18,2.06,3.07,2.71,4,2.39h0c2.05-.33,3.28-3,0.23-7.09-3.26,1.8-2.35,4.35-.27,2.87a0.26,0.26,0,0,1,.38.07c0.26,0.39-1.16,1.21-2.06.82a1.34,1.34,0,0,1-.7-1.55c0.25-1.4,1.59-2.19,2.59-2.81h0c7-4.31,4.35-16.88,1.24-23.89-5.48,4.95-7.4-4.61-2.7-2.64a0.28,0.28,0,0,1-.2.52c-3.57-1.5-1.94,6.07,2.8,1.46,5.64-6.18-2.82-26.13-3.16-30.53-0.49-5,11.11-20.05-4-27.7a0.28,0.28,0,0,1-.17-0.3,12.32,12.32,0,0,0-.35-5.81,11.86,11.86,0,0,0-1.4-2.8c1.21,5.6,0,9.79-1.69,11.94,4-2.62,13.66,7.39,5.74,19.36-2.86,5.22,5.78,21.51,2.07,29.33a4.68,4.68,0,0,1-3.23,2.73,23.48,23.48,0,0,0-3.09,5.11c0.28,4.44,14.79,9.8,4.62,22.65-1.06,1.27-7,5.53-4.71,10.24,1.71,2.67,4,.77,3-1.88a0.28,0.28,0,0,1,.15-0.36c0.64-.26.71,1.93,0.48,2.62a2,2,0,0,1-1.71,1.46,2.15,2.15,0,0,1-1.48-.55h0a4.65,4.65,0,0,1-.77-0.87C17.7,228,16.21,224.57,18.13,219.88Z" transform="translate(0.1 0.1)"/><path class="cls-3" d="M160.45,219.88c6,6.49-2.46,16.51-10,8.71a2.38,2.38,0,0,0,.08-2.45c2.28-.18,4.15-2.77,3.63-3.08a0.27,0.27,0,0,0-.37.1c-1.18,2-3.07,2.71-4,2.39h0c-2.06-.33-3.28-3-0.23-7.09,3.31,1.83,2.33,4.34.27,2.87a0.28,0.28,0,0,0-.31.46c2.81,2,4.33-2,.1-3.93h0c-7-4.34-4.41-16.73-1.24-23.89,5.48,4.94,7.4-4.61,2.69-2.64a0.28,0.28,0,0,0,.2.52c3.58-1.5,2,6.08-2.8,1.46-5.76-6.31,3.16-27,3.16-30.56,0.35-5.15-11-20.07,4-27.68a0.28,0.28,0,0,0,.17-0.3,11.32,11.32,0,0,1,1.75-8.62c-1.22,5.63,0,9.82,1.69,11.94-4-2.63-13.66,7.38-5.74,19.36,2.87,5.24-5.79,21.48-2.07,29.33a4.68,4.68,0,0,0,3.23,2.73,23.45,23.45,0,0,1,3.09,5.11c-0.28,4.44-14.79,9.8-4.62,22.65a27.2,27.2,0,0,1,2.9,2.93c1.9,2.3,3.42,5.39,1.54,7.68-1.74,2.13-3.62.2-2.69-2.25a0.27,0.27,0,1,0-.5-0.2c-0.82,2.16.24,3.85,1.58,3.93a2.15,2.15,0,0,0,1.48-.55h0a4.73,4.73,0,0,0,.78-0.87C160.79,228,162.43,224.7,160.45,219.88Z" transform="translate(0.1 0.1)"/><path class="cls-3" d="M18.13,29.57c-6-6.5,2.46-16.52,10-8.71A2.38,2.38,0,0,0,28,23.31c-2.29.18-4.15,2.77-3.63,3.08a0.27,0.27,0,0,0,.37-0.1c1.17-2,3.06-2.71,4-2.39h0c2,0.33,3.31,3,.23,7.09-3.31-1.83-2.34-4.35-.27-2.87A0.28,0.28,0,0,0,29,27.65c-2.54-1.82-4.58,1.43-.1,3.93h0c6.87,3.56,4.51,16.51,1.24,23.89-5.48-4.95-7.4,4.61-2.7,2.64a0.28,0.28,0,0,0-.2-0.52c-3.58,1.5-2-6.08,2.8-1.47,5.65,6.19-2.82,26.12-3.16,30.53-0.51,4.89,11.13,20-4,27.7a0.28,0.28,0,0,0-.17.3,12.32,12.32,0,0,1-.35,5.81,11.85,11.85,0,0,1-1.4,2.8c1.21-5.6,0-9.79-1.69-11.94a3.72,3.72,0,0,0,4-.39c3.92-2.44,7.61-10.16,1.78-19-2.3-4.21,2.75-15.14,3-23.64,0.1-3.59-.63-7.59-4.14-8.42a23.47,23.47,0,0,1-3.09-5.11C21,50.36,35.54,45,25.37,32.15l0,0c-12.05-10.53.74-14.75-1.7-8.32a0.27,0.27,0,1,0,.5.2c1.07-2.84-1.09-5-3.06-3.38h0a4.63,4.63,0,0,0-.77.87C17.71,21.49,16.2,24.87,18.13,29.57Z" transform="translate(0.1 0.1)"/><path class="cls-3" d="M160.45,29.57c6-6.49-2.46-16.52-10-8.71a2.38,2.38,0,0,1,.08,2.45c2.28,0.18,4.15,2.77,3.63,3.08a0.27,0.27,0,0,1-.37-0.1c-1.19-2.07-3.08-2.7-4-2.39h0c-1.87.31-3.44,2.83-.23,7.09,3.26-1.8,2.35-4.36.27-2.87a0.28,0.28,0,0,1-.31-0.46c2.92-2.09,4.22,2.2.1,3.93h0c-6.94,3.64-4.44,16.68-1.24,23.89,5.48-4.94,7.4,4.61,2.69,2.64a0.28,0.28,0,0,1,.2-0.52c3.57,1.5,1.94-6.07-2.8-1.47-5.76,6.31,3.16,27,3.16,30.56,0.35,5.15-11,20.07,4,27.68a0.28,0.28,0,0,1,.17.3,11.32,11.32,0,0,0,1.75,8.62c-1.22-5.63,0-9.81,1.69-11.94-4,2.63-13.66-7.38-5.74-19.36,2.86-5.23-5.79-21.48-2.07-29.33a4.68,4.68,0,0,1,3.23-2.73,23.45,23.45,0,0,0,3.09-5.11c-0.28-4.44-14.79-9.8-4.62-22.65a27.29,27.29,0,0,0,2.9-2.93c1.89-2.28,3.43-5.38,1.54-7.68-1.74-2.13-3.62-.2-2.69,2.25a0.27,0.27,0,1,1-.5.2c-1.07-2.84,1.1-5,3.06-3.38h0a4.7,4.7,0,0,1,.78.87C160.88,21.49,162.38,24.88,160.45,29.57Z" transform="translate(0.1 0.1)"/><path class="cls-6" d="M76.9,84.05C66.23,67.86,59.53,51.66,54.29,35.47c-4.26,3.84-8.16,6.15-16.07,2.7a18.06,18.06,0,0,1-.52,15.49c8.17,1.51,4.89,12.54-1.08,11.18a51.78,51.78,0,0,0-2.29,15c4.85,1.24,6.5,10.8,4.9,17.05,5.08-1.18,9.62-.07,14,2.11A45.69,45.69,0,0,1,76.9,84.05Z" transform="translate(0.1 0.1)"/><path class="cls-6" d="M101.69,84.05c10.67-16.2,17.37-32.39,22.61-48.59,4.26,3.84,8.16,6.15,16.07,2.7a18.06,18.06,0,0,0,.52,15.49C132.72,55.17,136,66.2,142,64.84a51.77,51.77,0,0,1,2.29,15c-4.85,1.24-6.5,10.8-4.9,17.05-5.08-1.18-9.62-.07-14,2.11A45.69,45.69,0,0,0,101.69,84.05Z" transform="translate(0.1 0.1)"/><path class="cls-6" d="M76.9,165.4C66.23,181.59,59.53,197.79,54.29,214c-4.26-3.84-8.16-6.15-16.07-2.7a18.06,18.06,0,0,0-.52-15.49c8.17-1.5,4.89-12.54-1.08-11.17a51.78,51.78,0,0,1-2.29-15c4.85-1.24,6.5-10.8,4.9-17.05,5.08,1.18,9.62.07,14-2.11A45.7,45.7,0,0,0,76.9,165.4Z" transform="translate(0.1 0.1)"/><path class="cls-6" d="M101.69,165.4c10.67,16.2,17.37,32.39,22.61,48.59,4.26-3.84,8.16-6.15,16.07-2.7a18.06,18.06,0,0,1,.52-15.49c-8.17-1.5-4.89-12.54,1.08-11.17a51.77,51.77,0,0,0,2.29-15c-4.85-1.24-6.5-10.8-4.9-17.05-5.08,1.18-9.62.07-14-2.11A45.69,45.69,0,0,1,101.69,165.4Z" transform="translate(0.1 0.1)"/><path class="cls-7" d="M54.07,36.23C49.21,40.48,45.36,41.42,39,39a18.41,18.41,0,0,1-.7,14.42c7.93,1.84,4.66,13-1.38,11.94a51.27,51.27,0,0,0-2.16,14.27c4.49,1.42,6.42,9.85,5,16.8,5-.94,9.17.11,13.71,2.32A45.69,45.69,0,0,1,76.45,84.17C66.54,69.24,59.57,53.09,54.07,36.23Z" transform="translate(0.1 0.1)"/><path class="cls-7" d="M124.51,36.23c4.33,3.76,8.05,5.44,15.06,2.72a18.39,18.39,0,0,0,.7,14.42c-8,1.84-4.62,12.95,1.38,11.94a52,52,0,0,1,2.16,14.27c-5.21,1.65-6.13,11.28-5,16.8-5.06-1-9.21.12-13.71,2.32a45.69,45.69,0,0,0-22.93-14.53C112,69.34,119,53.28,124.51,36.23Z" transform="translate(0.1 0.1)"/><path class="cls-7" d="M54.07,213.22c-4.35-3.8-8.19-5.39-15.06-2.72a18.43,18.43,0,0,0-.7-14.42c7.9-1.83,4.72-12.95-1.38-11.94a51.06,51.06,0,0,1-2.16-14.27c4.48-1.43,6.42-9.82,5-16.8,5,0.95,9.18-.11,13.71-2.32a45.69,45.69,0,0,0,22.93,14.53C66.58,180.17,59.69,196,54.07,213.22Z" transform="translate(0.1 0.1)"/><path class="cls-7" d="M124.51,213.22c4.46-3.88,8.29-5.35,15.06-2.72a18.38,18.38,0,0,1,.7-14.42c-7.94-1.83-4.67-12.94,1.38-11.94a51.12,51.12,0,0,0,2.16-14.27c-4.5-1.44-6.41-9.87-5-16.8-5.06,1-9.2-.12-13.71-2.32a45.7,45.7,0,0,1-22.93,14.53C112,180.1,119,196.41,124.51,213.22Z" transform="translate(0.1 0.1)"/><path class="cls-4" d="M89.29,25h0c-2.92,6.3-7.5,9.74-15.69,6.87Q65,40.62,54.87,34.6c12.91,11,21.49,28,24.85,48.8l0.58-.11c-2.57-17.35-9.64-34.1-22.23-46.55,6,2.13,11.2.23,15.69-4.19,6.87,2.27,12.19.41,15.53-6.19,3.44,6.56,8.52,8.51,15.53,6.19,4.53,4.48,9.71,6.3,15.69,4.19-12.56,12.41-19.52,29-22.24,46.55l0.58,0.11c3.36-20.84,11.94-37.79,24.85-48.8q-10.15,6-18.72-2.7c-8.2,2.87-12.77-.57-15.69-6.87h0Zm-15.4,8c6.56,2.16,11.79.4,15.4-5.76,3.39,5.76,8.3,8.08,15.4,5.76,3.93,3.86,8.91,6,14.31,4.6-11.93,12.48-18.38,28.16-21.17,45.58l-0.44-.08c2.42-16,8.91-32.85,20.38-44.84-3.91.66-8.62-.53-13.2-4.78-7,2-11.82.11-15.28-5.39C85.9,33.49,81.13,35.56,74,33.5c-3.83,3.55-8.25,5.58-13.2,4.79C72,50,78.78,67.28,81.18,83.13l-0.44.08c-2.61-17.09-9.27-33.13-21.17-45.58C65,38.92,69.87,37,73.89,33Z" transform="translate(0.1 0.1)"/><path class="cls-4" d="M63.5,211.43a14,14,0,0,0-3.93.39C71.41,199.44,78.3,183,80.74,166.24l0.44,0.08c-2.41,16.51-9.6,33.55-20.37,44.84,5-.81,9.44,1.29,13.2,4.78,6.63-1.92,11.59-.45,15.28,5.39,3.73-5.93,8.8-7.26,15.28-5.39,3.8-3.52,8.14-5.54,13.2-4.78-11.17-11.68-17.92-29.1-20.38-44.84l0.44-.08c2.78,17.24,9.1,33,21.17,45.58-4.23-1.22-9.56-.1-14.31,4.6-7.79-2.55-12.4.66-15.4,5.76-3.67-6.25-8.94-7.89-15.4-5.76a16.36,16.36,0,0,0-10.38-5h0Zm25.79,13h0c2.92-6.3,7.5-9.74,15.69-6.87q8.57-8.72,18.72-2.7c-12.91-11-21.49-28-24.85-48.8l-0.58.11c2.7,17.42,9.53,34,22.24,46.55-6-2.14-11.14-.3-15.69,4.19-6.76-2.23-12-.53-15.53,6.19-3.06-6.05-8.23-8.6-15.53-6.19-4.55-4.48-9.7-6.31-15.69-4.19,12.51-12.37,19.66-29.25,22.23-46.55L79.72,166c-3.36,20.84-11.94,37.79-24.85,48.8q10.15-6,18.72,2.7c8.2-2.87,12.77.57,15.69,6.87h0Z" transform="translate(0.1 0.1)"/><path class="cls-6" d="M53.85,37c-4.42,3.74-8.35,4.71-14.12,2.68a18.81,18.81,0,0,1-.81,13.44c7.52,2.47,4.8,12.93-1.65,12.65a50.43,50.43,0,0,0-2,13.53c5.11,2.24,6.07,10.86,5.14,16.56a21.56,21.56,0,0,1,13.43,2.51A45.7,45.7,0,0,1,76,84.3C66.27,69.59,59.25,53.49,53.85,37Z" transform="translate(0.1 0.1)"/><path class="cls-6" d="M124.73,37c4.08,3.45,8,4.82,14.12,2.68a18.8,18.8,0,0,0,.81,13.44C132,55.62,135,66,141.31,65.77a50.45,50.45,0,0,1,2,13.53c-5.16,2.26-6,11-5.14,16.56-4.77-.74-9.14.36-13.43,2.52a45.7,45.7,0,0,0-22.2-14.08c1.52-2.28,3-4.72,4.05-6.48l0.92-1.56A201,201,0,0,0,124.73,37Z" transform="translate(0.1 0.1)"/><path class="cls-6" d="M53.85,212.46c-4.39-3.72-8.42-4.68-14.12-2.68a18.84,18.84,0,0,0-.81-13.44c7.61-2.5,4.72-12.92-1.65-12.65a50.56,50.56,0,0,1-2-13.53c5-2.2,6.09-10.73,5.14-16.56a21.84,21.84,0,0,0,13.43-2.52A45.7,45.7,0,0,0,76,165.15C66.4,179.71,59.41,195.45,53.85,212.46Z" transform="translate(0.1 0.1)"/><path class="cls-6" d="M124.73,212.46c4.21-3.57,8.18-4.77,14.12-2.68a18.78,18.78,0,0,1,.81-13.44c-7.39-2.43-4.88-12.93,1.65-12.65a50.46,50.46,0,0,0,2-13.53c-5.17-2.25-6-11-5.14-16.56a21.72,21.72,0,0,1-13.43-2.52,45.71,45.71,0,0,1-22.2,14.07C112.13,179.58,119.4,196.07,124.73,212.46Z" transform="translate(0.1 0.1)"/><path class="cls-7" d="M37.73,66.2C43.49,78.68,51.07,87.09,60,92.44A44.14,44.14,0,0,0,54.09,98a22.3,22.3,0,0,0-13.18-2.68c0.86-5.29-.33-14.18-5.22-16.32A49.66,49.66,0,0,1,37.61,66.2h0.12Z" transform="translate(0.1 0.1)"/><path class="cls-7" d="M40.4,40.33c7,18.21,15.52,35.19,27.43,47.15a47,47,0,0,1,7.75-3.05C65.9,69.88,59,54,53.63,37.73,49.44,41.17,45.43,41.92,40.4,40.33Z" transform="translate(0.1 0.1)"/><path class="cls-7" d="M140.85,66.2c-5.75,12.48-13.34,20.89-22.27,26.24a44.09,44.09,0,0,1,5.91,5.6,22.48,22.48,0,0,1,13.18-2.68c-0.88-5.24.35-14.19,5.22-16.32A50.5,50.5,0,0,0,141,66.2h-0.12Z" transform="translate(0.1 0.1)"/><path class="cls-7" d="M138.19,40.33c-7,18.21-15.52,35.19-27.43,47.15A47,47,0,0,0,103,84.42c1.11-1.69,2.18-3.4,3.06-4.84L107,78l0.92-1.57c6.52-11.37,11.66-22.64,17-38.73C129.33,41.33,133.52,41.81,138.19,40.33Z" transform="translate(0.1 0.1)"/><path class="cls-7" d="M37.73,183.25C43.49,170.77,51.07,162.36,60,157a44.16,44.16,0,0,1-5.91-5.6,22.46,22.46,0,0,1-13.18,2.68c0.84,5.24-.35,14.19-5.22,16.32a49.83,49.83,0,0,0,1.93,12.84h0.12Z" transform="translate(0.1 0.1)"/><path class="cls-7" d="M40.4,209.12c7-18.21,15.52-35.19,27.43-47.15A47,47,0,0,0,75.57,165c-9.61,14.42-16.45,30.19-21.94,46.7C49.32,208.22,45.24,207.59,40.4,209.12Z" transform="translate(0.1 0.1)"/><path class="cls-7" d="M140.85,183.25c-5.76-12.48-13.34-20.89-22.27-26.24a44.22,44.22,0,0,0,5.91-5.6,22.49,22.49,0,0,0,13.18,2.68c-0.89,5.33.41,14.22,5.22,16.32A50,50,0,0,1,141,183.25h-0.12Z" transform="translate(0.1 0.1)"/><path class="cls-7" d="M138.19,209.12c-7-18.21-15.52-35.19-27.43-47.15A46.93,46.93,0,0,1,103,165c9.83,14.94,16.43,30.15,21.94,46.7C128.91,208.5,132.91,207.45,138.19,209.12Z" transform="translate(0.1 0.1)"/><path class="cls-4" d="M37.73,66.2l0.08,0.17-0.31.24,0.11-.41h0.12ZM39.08,69q0.67,1.31,1.36,2.56-2.37,1.89-4.56,4c0.12-1.34.31-2.91,0.59-4.37Q37.75,70,39.08,69h0Zm2.82,5a70.53,70.53,0,0,0-5.77,5.24,7,7,0,0,1,2.13,1.93,67.49,67.49,0,0,1,5.19-4.75Q42.66,75.28,41.9,74h0Zm3.21,4.76Q46,80,46.87,81a61.43,61.43,0,0,0-6.19,6,18.67,18.67,0,0,0-1-3.21,64.51,64.51,0,0,1,5.38-5h0Zm3.63,4.41A58.16,58.16,0,0,0,41.15,91a24,24,0,0,1-.24,4.4l0.59-.07a54.92,54.92,0,0,1,9.23-10q-1-1-2-2.06h0Zm4.1,4q1.1,1,2.24,1.85a49.63,49.63,0,0,0-6.71,6.77,21.33,21.33,0,0,0-3.25-.56,52.26,52.26,0,0,1,7.72-8.06h0Zm4.62,3.59a46.89,46.89,0,0,0-6.13,6c0.9,0.35,2,.84,2.75,1.24A44,44,0,0,1,60,92.44Q58.71,91.67,57.47,90.81Z" transform="translate(0.1 0.1)"/><path class="cls-4" d="M40.4,40.33a19.29,19.29,0,0,1-.88,12.54c6.73,2.22,5.37,12.77-1.78,13.34C43.49,78.68,51.07,87.09,60,92.44a45.78,45.78,0,0,1,7.83-5c-11.91-12-20.44-28.93-27.43-47.15h0ZM60,92.44C51.07,87.09,43.49,78.68,37.73,66.2,43.49,78.68,51.07,87.09,60,92.44Z" transform="translate(0.1 0.1)"/><path class="cls-4" d="M48,40.76a13.07,13.07,0,0,1-6.16,0l-1.07.52q0.51,1.32,1,2.63a102.18,102.18,0,0,1,12.15-5.24l-0.3-.91a14.49,14.49,0,0,1-5.66,3h0Zm-5.12,5.73a99,99,0,0,1,12-5.21c0.42,1.2.77,2.19,0.93,2.64A95.81,95.81,0,0,0,43.94,49.1q-0.55-1.3-1.09-2.61h0Zm2.21,5.2q0.57,1.29,1.16,2.58a89.7,89.7,0,0,1,11.49-5.1c-0.39-1-.78-2.06-1-2.62a92.93,92.93,0,0,0-11.66,5.14h0Zm2.35,5.13a86.59,86.59,0,0,1,11.32-5.05c0.61,1.52.37,0.92,1.05,2.59a83.49,83.49,0,0,0-11.14,5Q48,58.1,47.41,56.82h0Zm2.51,5.06q0.65,1.26,1.32,2.49A77.38,77.38,0,0,1,62,59.5c-0.25-.56-0.7-1.57-1.13-2.57a80.41,80.41,0,0,0-11,4.94h0Zm2.69,5a74.32,74.32,0,0,1,10.56-4.78c0.25,0.54.73,1.56,1.2,2.54A71.28,71.28,0,0,0,54,69.28q-0.72-1.21-1.42-2.44h0Zm2.89,4.85q0.76,1.2,1.53,2.38a65.13,65.13,0,0,1,9.87-4.43c-0.64-1.23-.37-0.7-1.29-2.51a68.25,68.25,0,0,0-10.11,4.56h0Zm3.13,4.72a62.09,62.09,0,0,1,9.6-4.28c0.8,1.47.49,0.9,1.37,2.48a59,59,0,0,0-9.3,4.1q-0.85-1.13-1.67-2.3h0ZM62,81q0.9,1.13,1.83,2.22a53,53,0,0,1,8.62-3.64c-1.1-1.83-.79-1.3-1.47-2.46A56.09,56.09,0,0,0,62,81h0Zm3.76,4.39A50,50,0,0,1,74,82c0.63,1,1.38,2.16,1.57,2.44a47.28,47.28,0,0,0-7.75,3.05Q66.79,86.44,65.79,85.35Z" transform="translate(0.1 0.1)"/><path class="cls-4" d="M140.85,66.2l-0.08.17,0.31,0.24L141,66.2h-0.12ZM139.5,69q-0.67,1.31-1.36,2.56,2.37,1.89,4.56,4c-0.15-1.69-.39-3.38-0.59-4.37Q140.84,70,139.5,69h0Zm-2.82,5a70.62,70.62,0,0,1,5.77,5.24,7,7,0,0,0-2.13,1.93,67.42,67.42,0,0,0-5.19-4.75q0.79-1.18,1.56-2.42h0Zm-3.21,4.76Q132.61,80,131.71,81a61.43,61.43,0,0,1,6.19,6,18.07,18.07,0,0,1,1-3.21,64.57,64.57,0,0,0-5.38-5h0Zm-3.63,4.41a58.15,58.15,0,0,1,7.6,7.76,23.86,23.86,0,0,0,.24,4.4l-0.59-.07a54.9,54.9,0,0,0-9.23-10q1-1,2-2.06h0Zm-4.1,4q-1.1,1-2.24,1.85a49.67,49.67,0,0,1,6.71,6.77,21.37,21.37,0,0,1,3.25-.56,52.24,52.24,0,0,0-7.72-8.06h0Zm-4.62,3.59a46.82,46.82,0,0,1,6.13,6c-0.89.35-1.93,0.82-2.75,1.24a44,44,0,0,0-5.91-5.6Q119.87,91.67,121.12,90.81Z" transform="translate(0.1 0.1)"/><path class="cls-4" d="M138.19,40.33c-1.39,4.86-.28,10.47.88,12.54-6.71,2.19-5.39,12.77,1.78,13.34-5.75,12.48-13.34,20.89-22.27,26.24a45.79,45.79,0,0,0-7.83-5c11.91-12,20.44-28.94,27.43-47.15h0Zm-19.6,52.11c8.93-5.35,16.51-13.76,22.27-26.24C135.1,78.68,127.51,87.09,118.58,92.44Z" transform="translate(0.1 0.1)"/><path class="cls-4" d="M132.28,41a14,14,0,0,0,4.49-.34l1.07,0.52q-0.51,1.32-1,2.63a102.11,102.11,0,0,0-12.15-5.24l0.3-.91a14.86,14.86,0,0,0,5.66,3A12,12,0,0,0,132.28,41Zm3.46,5.44a99,99,0,0,0-12-5.21c-0.46,1.34-.79,2.27-0.93,2.64a95.81,95.81,0,0,1,11.82,5.18q0.55-1.3,1.09-2.61h0Zm-2.21,5.2Q133,53,132.37,54.26a89.73,89.73,0,0,0-11.49-5.1c0.48-1.26.87-2.3,1-2.62a92.93,92.93,0,0,1,11.66,5.14h0Zm-2.35,5.13a86.55,86.55,0,0,0-11.32-5.05c-0.61,1.52-.37.92-1.05,2.59a83.47,83.47,0,0,1,11.14,5q0.63-1.26,1.23-2.54h0Zm-2.51,5.06q-0.65,1.26-1.32,2.49a77.38,77.38,0,0,0-10.76-4.87c0.23-.52.68-1.53,1.13-2.57a80.49,80.49,0,0,1,11,4.94h0Zm-2.69,5a74.26,74.26,0,0,0-10.56-4.78c-0.25.55-.73,1.56-1.2,2.54a71.27,71.27,0,0,1,10.34,4.68q0.72-1.21,1.42-2.44h0Zm-2.89,4.85q-0.76,1.2-1.53,2.38a65.13,65.13,0,0,0-9.87-4.43c0.64-1.23.37-.7,1.29-2.51a68.27,68.27,0,0,1,10.11,4.56h0ZM120,76.4a62.11,62.11,0,0,0-9.6-4.28c-0.8,1.47-.49.9-1.37,2.48a59,59,0,0,1,9.3,4.1q0.85-1.13,1.67-2.3h0ZM116.55,81q-0.9,1.13-1.83,2.22a53,53,0,0,0-8.62-3.64L107,78l0.55-.94a56.05,56.05,0,0,1,9,3.88h0Zm-3.76,4.39A50,50,0,0,0,104.58,82c-0.63,1-1.38,2.15-1.57,2.44l1,0.3L104.8,85,105,85.06l0.84,0.3L106,85.42l0.89,0.34,0.1,0,0.89,0.36L108,86.22l0.85,0.37L109,86.65,109.88,87,110,87.11l0.75,0.37Q111.79,86.44,112.79,85.35Z" transform="translate(0.1 0.1)"/><path class="cls-4" d="M37.73,183.25l0.08-.17-0.31-.24,0.11,0.41h0.12Zm1.35-2.79q0.67-1.31,1.36-2.56-2.37-1.89-4.56-4c0.15,1.66.37,3.19,0.59,4.37q1.28,1.1,2.62,2.14h0Zm2.82-5a70.48,70.48,0,0,1-5.77-5.24,7,7,0,0,0,2.13-1.93A67.59,67.59,0,0,0,43.46,173q-0.79,1.17-1.56,2.42h0Zm3.21-4.76q0.86-1.16,1.76-2.25a61.54,61.54,0,0,1-6.19-6,18,18,0,0,1-1,3.21,64.67,64.67,0,0,0,5.38,5h0Zm3.63-4.41a58.19,58.19,0,0,1-7.6-7.76,23.65,23.65,0,0,0-.24-4.4l0.59,0.07a54.91,54.91,0,0,0,9.23,10q-1,1-2,2.06h0Zm4.1-4q1.1-1,2.24-1.85a49.62,49.62,0,0,1-6.71-6.77,21,21,0,0,1-3.25.56,52.28,52.28,0,0,0,7.72,8.06h0Zm4.62-3.59a46.8,46.8,0,0,1-6.13-6c0.92-.36,2-0.83,2.75-1.23A43.84,43.84,0,0,0,60,157Q58.71,157.78,57.47,158.64Z" transform="translate(0.1 0.1)"/><path class="cls-4" d="M40.4,209.12a19.2,19.2,0,0,0-.88-12.54c6.76-2.23,5.37-12.77-1.78-13.34C43.49,170.77,51.07,162.36,60,157a45.84,45.84,0,0,0,7.83,5c-11.91,12-20.44,28.94-27.43,47.15h0ZM60,157c-8.93,5.35-16.51,13.76-22.27,26.24C43.49,170.77,51.07,162.36,60,157Z" transform="translate(0.1 0.1)"/><path class="cls-4" d="M48,208.69a13,13,0,0,0-6.16,0l-1.07-.52q0.51-1.32,1-2.64a102.1,102.1,0,0,0,12.15,5.23l-0.3.91a15,15,0,0,0-5.66-3h0ZM42.85,203a99.06,99.06,0,0,0,12,5.21c0.4-1.14.76-2.17,0.93-2.64a96,96,0,0,1-11.82-5.18q-0.55,1.3-1.09,2.61h0Zm2.21-5.2q0.57-1.29,1.16-2.57a89.55,89.55,0,0,0,11.49,5.1c-0.41,1.07-.83,2.18-1,2.62a92.8,92.8,0,0,1-11.66-5.14h0Zm2.35-5.13a86.58,86.58,0,0,0,11.32,5.05c0.61-1.52.37-.92,1.05-2.59a83.5,83.5,0,0,1-11.14-5q-0.63,1.26-1.23,2.54h0Zm2.51-5.06q0.65-1.26,1.32-2.49A77.32,77.32,0,0,0,62,189.95c-0.24.54-.69,1.55-1.13,2.57a80.5,80.5,0,0,1-11-4.94h0Zm2.69-5a74.31,74.31,0,0,0,10.56,4.78c0.25-.53.73-1.56,1.2-2.54A71.23,71.23,0,0,1,54,180.17q-0.72,1.21-1.42,2.44h0Zm2.89-4.85q0.76-1.2,1.53-2.38a65,65,0,0,0,9.87,4.43c-0.64,1.23-.37.7-1.29,2.51a68.15,68.15,0,0,1-10.11-4.57h0ZM58.62,173a62.09,62.09,0,0,0,9.6,4.27c0.8-1.47.49-.9,1.37-2.48a59.08,59.08,0,0,1-9.3-4.1q-0.85,1.13-1.67,2.3h0ZM62,168.49q0.9-1.13,1.83-2.22a53,53,0,0,0,8.62,3.64c-1.1,1.83-.79,1.3-1.47,2.46a56,56,0,0,1-9-3.88h0Zm3.76-4.39A50,50,0,0,0,74,167.47c0.67-1.06,1.4-2.19,1.57-2.44-1.5-.45-2.91-0.94-4-1.36h0c-1.29-.51-2.5-1-3.78-1.69Q66.79,163,65.79,164.1Z" transform="translate(0.1 0.1)"/><path class="cls-4" d="M140.85,183.25l-0.08-.17,0.31-.24-0.11.41h-0.12Zm-1.35-2.79q-0.67-1.31-1.36-2.56,2.37-1.89,4.56-4c-0.16,1.75-.4,3.43-0.59,4.37q-1.28,1.1-2.62,2.14h0Zm-2.82-5a70.57,70.57,0,0,0,5.77-5.24,7,7,0,0,1-2.13-1.93,67.51,67.51,0,0,1-5.19,4.75q0.79,1.17,1.56,2.42h0Zm-3.21-4.76q-0.86-1.16-1.76-2.25a61.54,61.54,0,0,0,6.19-6,18,18,0,0,0,1,3.21,64.73,64.73,0,0,1-5.38,5h0Zm-3.63-4.41a58.18,58.18,0,0,0,7.6-7.76,24,24,0,0,1,.24-4.4l-0.59.07a54.89,54.89,0,0,1-9.23,10q1,1,2,2.06h0Zm-4.1-4q-1.1-1-2.24-1.85a49.66,49.66,0,0,0,6.71-6.77,22,22,0,0,0,3.25.56,52.25,52.25,0,0,1-7.72,8.06h0Zm-4.62-3.59a46.73,46.73,0,0,0,6.13-6c-0.92-.36-1.91-0.81-2.75-1.23a43.79,43.79,0,0,1-5.91,5.6Q119.87,157.78,121.12,158.64Z" transform="translate(0.1 0.1)"/><path class="cls-4" d="M138.19,209.12a19.57,19.57,0,0,1,.88-12.54c-6.71-2.19-5.39-12.76,1.78-13.34-5.76-12.48-13.34-20.89-22.27-26.24a45.8,45.8,0,0,1-7.83,5c11.91,12,20.44,28.94,27.43,47.15h0ZM118.58,157c8.93,5.35,16.51,13.76,22.27,26.24C135.1,170.77,127.51,162.36,118.58,157Z" transform="translate(0.1 0.1)"/><path class="cls-4" d="M132.28,208.4a14.07,14.07,0,0,1,4.49.34l1.07-.52q-0.51-1.32-1-2.64a102,102,0,0,1-12.15,5.23l0.3,0.91a14.59,14.59,0,0,1,5.66-3A12.07,12.07,0,0,1,132.28,208.4Zm3.46-5.44a99.09,99.09,0,0,1-12,5.21c-0.24-.68-0.67-1.94-0.93-2.64a96,96,0,0,0,11.82-5.18q0.55,1.3,1.09,2.61h0Zm-2.21-5.2q-0.57-1.29-1.16-2.57a89.57,89.57,0,0,1-11.49,5.1c0.22,0.59.76,2,1,2.62a92.8,92.8,0,0,0,11.66-5.14h0Zm-2.35-5.13a86.54,86.54,0,0,1-11.32,5.05c-0.61-1.52-.37-0.92-1.05-2.59a83.48,83.48,0,0,0,11.14-5q0.63,1.26,1.23,2.54h0Zm-2.51-5.06q-0.65-1.26-1.32-2.49a77.32,77.32,0,0,1-10.76,4.87c0.22,0.48.67,1.51,1.13,2.57a80.57,80.57,0,0,0,11-4.94h0Zm-2.69-5a74.26,74.26,0,0,1-10.56,4.78c-0.25-.55-0.73-1.56-1.2-2.54a71.22,71.22,0,0,0,10.34-4.68q0.72,1.21,1.42,2.44h0Zm-2.89-4.85q-0.76-1.2-1.53-2.38a65,65,0,0,1-9.87,4.43c0.64,1.23.37,0.7,1.29,2.51a68.17,68.17,0,0,0,10.11-4.57h0ZM120,173a62.12,62.12,0,0,1-9.6,4.27c-0.8-1.47-.49-0.9-1.37-2.48a59.08,59.08,0,0,0,9.3-4.1q0.85,1.13,1.67,2.3h0Zm-3.41-4.56q-0.9-1.13-1.83-2.22a53,53,0,0,1-8.62,3.64c1.1,1.83.79,1.3,1.47,2.46a56,56,0,0,0,9-3.88h0Zm-3.76-4.39a50,50,0,0,1-8.21,3.37c-0.63-1-1.4-2.19-1.57-2.44,0.11,0,1.79-.54,1.88-0.6h0a47,47,0,0,0,5.86-2.45Q111.79,163,112.79,164.1Z" transform="translate(0.1 0.1)"/><path class="cls-4" d="M52.58,99.87c-11.42-5.29-13.77,1.38-18.9-3.54,1.09,5.87,5.63,13,11.09,18-3,2.41-7.47,3.5-10.73,2,0.16,3.89-3.58,7-9.16,8.42,5.59,1.42,9.32,4.53,9.16,8.42,3.26-1.48,7.72-.39,10.73,2-5.46,5-10,12.09-11.09,18,5.13-4.92,7.49,1.74,18.9-3.55l-0.27-.34c-11,5-12.64-.82-17.92,2.73,1.37-5.15,4.93-11.16,10.93-16.72L45.26,135a12.91,12.91,0,0,0-7.15-2.92l-0.37,0H37l-0.37,0-0.36,0-0.36,0-0.36.06-0.35.08-0.35.09-0.34.11h0v-0.13l-0.11-.75-0.2-.73-0.29-.7-0.37-.67L33,128.9l-0.53-.61-0.6-.58-0.66-.55-0.73-.51-0.79-.48-0.85-.44-0.9-.41-1-.37-0.67-.22L27,124.5l1-.37,0.9-.41,0.85-.44,0.79-.48,0.73-.51,0.66-.55,0.6-.58,0.53-.61,0.45-.64,0.37-.67,0.29-.7,0.2-.73,0.11-.75v-0.13h0l0.34,0.11,0.35,0.09,0.35,0.08,0.36,0.06,0.36,0,0.36,0,0.37,0h0.74l0.37,0,0.37,0,0.37,0,0.37-.06,0.37-.07,0.37-.08,0.37-.09,0.37-.1,0.36-.12,0.36-.13,0.36-.14,0.35-.15,0.35-.16,0.34-.17,0.34-.18,0.33-.19,0.33-.2a13.69,13.69,0,0,0,1.43-1l0.06-.24-0.74-.69-0.5-.48-0.49-.49-0.49-.5-0.48-.51L42.15,111l-0.46-.53L41.24,110a34.15,34.15,0,0,1-6.84-12.46c5.1,3.43,7.19-2.13,17.92,2.73Z" transform="translate(0.1 0.1)"/><path class="cls-4" d="M126,99.87c11.42-5.29,13.77,1.38,18.9-3.55-1.08,5.87-5.63,13-11.09,18,3,2.41,7.47,3.5,10.73,2-0.16,3.89,3.58,7,9.16,8.42-5.59,1.42-9.32,4.53-9.16,8.42-3.26-1.48-7.72-.39-10.73,2,5.46,5,10,12.09,11.09,18-5.13-4.92-7.49,1.74-18.9-3.55l0.27-.34c10.8,4.9,12.76-.74,17.92,2.73-1.68-6.29-6.1-12.25-10.93-16.72l0.06-.24c3-2.3,7.29-3.79,10.78-2.48,0.06-2.51,2.05-5.79,8.1-7.79-6.08-2-8-5.43-8.1-7.79-2.69,1-6.88.55-10.78-2.48l-0.06-.24c5-4.6,9.27-10.51,10.93-16.72-5.09,3.42-7.18-2.13-17.92,2.73Z" transform="translate(0.1 0.1)"/><path class="cls-3" d="M134.93,111.62a0.22,0.22,0,0,0,.43-0.1,7.75,7.75,0,0,0-3.17-4.57,24.63,24.63,0,0,0,2.42-1.64,5,5,0,0,1,2.55,3.64,0.22,0.22,0,0,0,.26.16c0.51-.1-0.3-2.77-2.45-4.08,0.66-.51,1.43-1.12,2.11-1.66a3.83,3.83,0,0,1,2,2.88,0.22,0.22,0,0,0,.44-0.08,4.25,4.25,0,0,0-2.11-3.08c0.57-.45,1.14-0.9,1.72-1.33a2.15,2.15,0,0,1,1.05.79h0a2.78,2.78,0,0,1,.44,1.28,0.22,0.22,0,0,0,.44,0,3.18,3.18,0,0,0-.51-1.46h0a2.52,2.52,0,0,0-1-.86,25.13,25.13,0,0,1,2.85-1.83c0.26-.12.05-0.51-0.23-0.36h0a26,26,0,0,0-2.77,1.77c-0.07-1.49-1.24-2.51-1.49-2.24a0.2,0.2,0,0,0,0,.29,2.63,2.63,0,0,1,1,2.27c-0.55.41-1.1,0.83-1.64,1.26a5.94,5.94,0,0,0-2-4.08c-0.21-.19-0.52.11-0.31,0.3a5.59,5.59,0,0,1,1.84,4.12c-1,.79-1.43,1.14-2.06,1.63a9.37,9.37,0,0,0-2.36-5.77c-0.2-.2-0.53.07-0.33,0.28a9,9,0,0,1,2.26,5.82,24.89,24.89,0,0,1-2.43,1.65,12.92,12.92,0,0,0-2.69-7.06c-0.18-.22-0.53,0-0.36.25a12.54,12.54,0,0,1,2.62,7.05l-0.57.29,0.18,0.38,0.62-.32a7.37,7.37,0,0,1,3.15,4.45h0Zm0,26.21a0.22,0.22,0,0,1,.43.1,7.75,7.75,0,0,1-3.17,4.57,24.54,24.54,0,0,1,2.42,1.64,5,5,0,0,0,2.55-3.64,0.22,0.22,0,0,1,.44.08,5.42,5.42,0,0,1-2.63,3.83c0.67,0.51,1.43,1.12,2.11,1.66a3.83,3.83,0,0,0,2-2.88,0.22,0.22,0,0,1,.44.08,4.26,4.26,0,0,1-2.11,3.08c0.57,0.45,1.14.89,1.72,1.33a2.15,2.15,0,0,0,1.05-.79h0a2.78,2.78,0,0,0,.44-1.28,0.22,0.22,0,0,1,.25-0.18c0.47,0,0,1.29-.31,1.68h0a2.52,2.52,0,0,1-1,.86,24.77,24.77,0,0,0,2.85,1.83,0.21,0.21,0,1,1-.23.36h0a26,26,0,0,1-2.77-1.77,3,3,0,0,1-1.18,2.26c-0.22.18-.52-0.13-0.3-0.31a2.64,2.64,0,0,0,1-2.27c-0.55-.41-1.1-0.83-1.64-1.26a5.94,5.94,0,0,1-2,4.08c-0.21.19-.52-0.11-0.31-0.3a5.61,5.61,0,0,0,1.84-4.12c-1-.79-1.44-1.15-2.06-1.63-0.22,3.63-2.35,6-2.67,5.79a0.2,0.2,0,0,1,0-.29,9,9,0,0,0,2.26-5.82,24.82,24.82,0,0,0-2.43-1.65,12.92,12.92,0,0,1-2.69,7.06c-0.18.22-.53,0-0.36-0.25a12.54,12.54,0,0,0,2.62-7.05l-0.57-.29,0.18-.38,0.62,0.32a7.37,7.37,0,0,0,3.15-4.45h0Zm2.75-13.31c0-3.23-1.22-5.91-3-8.57-0.16-.23-0.53,0-0.38.22,1.77,2.58,3,5.19,3,8.35h-2.18c0,0.3,0,.1,0,0.42h2.18c0,3.15-1.2,5.76-3,8.35-0.16.23,0.22,0.45,0.38,0.22,1.82-2.65,3.09-5.33,3-8.57h1a7.93,7.93,0,0,1-.05,6.32,0.2,0.2,0,0,0,.12.27c0.54,0.21,1.67-3.17.4-6.59h1.05a9.41,9.41,0,0,1,3.19,6.87,0.22,0.22,0,0,0,.44,0,10,10,0,0,0-3-6.84h1.74a6.84,6.84,0,0,1,1.74,1.26h0a3,3,0,0,1,.83,1.52,0.22,0.22,0,0,0,.44-0.07,3.44,3.44,0,0,0-.94-1.73h0a6.4,6.4,0,0,0-1.23-1h2.83l0.94,1.26,3.65-1.47-3.65-1.47-0.94,1.26h-2.83a6.39,6.39,0,0,0,1.23-1h0a3.44,3.44,0,0,0,.94-1.73,0.22,0.22,0,0,0-.44-0.07,3,3,0,0,1-.83,1.53h0a6.81,6.81,0,0,1-1.74,1.26h-1.74a10,10,0,0,0,3-6.84,0.22,0.22,0,0,0-.44,0,9.41,9.41,0,0,1-3.19,6.87h-1.05c1.33-3.61.06-6.77-.4-6.59a0.2,0.2,0,0,0-.12.27,7.93,7.93,0,0,1,.05,6.32h-1Zm-94-12.9a0.22,0.22,0,0,1-.27.15,0.21,0.21,0,0,1-.16-0.25,7.76,7.76,0,0,1,3.17-4.57A24.65,24.65,0,0,1,44,105.3a5,5,0,0,0-2.55,3.64,0.22,0.22,0,0,1-.26.16,0.21,0.21,0,0,1-.17-0.24A5.42,5.42,0,0,1,43.61,105c-0.7-.54-1.4-1.1-2.11-1.66a3.83,3.83,0,0,0-2,2.88,0.22,0.22,0,0,1-.44-0.08,4.25,4.25,0,0,1,2.11-3.08c-0.57-.45-1.14-0.9-1.72-1.33a2.15,2.15,0,0,0-1.05.79h0a2.79,2.79,0,0,0-.44,1.28,0.22,0.22,0,0,1-.44,0,3.18,3.18,0,0,1,.51-1.46h0a2.52,2.52,0,0,1,1-.86,25,25,0,0,0-2.85-1.83,0.21,0.21,0,1,1,.23-0.36,24.64,24.64,0,0,1,2.77,1.77,3,3,0,0,1,1.18-2.26c0.22-.18.52,0.13,0.3,0.31a2.63,2.63,0,0,0-1,2.27c0.55,0.41,1.1.83,1.64,1.26a5.94,5.94,0,0,1,2-4.08c0.21-.19.52,0.11,0.31,0.3A5.6,5.6,0,0,0,41.69,103c1,0.79,1.43,1.14,2.06,1.63a9.38,9.38,0,0,1,2.36-5.77c0.2-.2.53,0.07,0.33,0.28a9,9,0,0,0-2.26,5.82,24.8,24.8,0,0,0,2.43,1.65,12.91,12.91,0,0,1,2.69-7.06c0.18-.22.53,0,0.36,0.25a12.37,12.37,0,0,0-2.52,6c0,0.33-.08.67-0.1,1l0.57,0.29-0.18.38-0.62-.32a7.37,7.37,0,0,0-3.15,4.45h0Zm0,26.21a0.22,0.22,0,0,0-.27-0.15,0.21,0.21,0,0,0-.16.25,8.13,8.13,0,0,0,1.28,2.75,8.62,8.62,0,0,0,1.89,1.82A24.55,24.55,0,0,0,44,144.14a5,5,0,0,1-2.55-3.64,0.22,0.22,0,0,0-.26-0.16,0.21,0.21,0,0,0-.17.24,5.42,5.42,0,0,0,2.63,3.83c-0.71.55-1.41,1.1-2.11,1.66a3.83,3.83,0,0,1-2-2.88,0.22,0.22,0,0,0-.26-0.16,0.21,0.21,0,0,0-.18.24,4.25,4.25,0,0,0,2.11,3.08c-0.57.45-1.14,0.89-1.72,1.33a2.15,2.15,0,0,1-1.05-.79h0a2.79,2.79,0,0,1-.44-1.28,0.22,0.22,0,0,0-.25-0.18c-0.47,0,0,1.29.31,1.68h0a2.52,2.52,0,0,0,1,.86,24.59,24.59,0,0,1-2.85,1.83,0.21,0.21,0,1,0,.23.36,25.9,25.9,0,0,0,2.77-1.77,3,3,0,0,0,1.18,2.26,0.23,0.23,0,0,0,.31,0,0.2,0.2,0,0,0,0-.29,2.63,2.63,0,0,1-1-2.27c0.55-.41,1.1-0.83,1.64-1.26,0,0.18,0,.35.06,0.52a5.85,5.85,0,0,0,1.9,3.56c0.21,0.19.52-.11,0.31-0.3a5.6,5.6,0,0,1-1.84-4.12c1-.79,1.44-1.15,2.06-1.63a9.37,9.37,0,0,0,2.36,5.77c0.19,0.21.53-.07,0.33-0.28a9,9,0,0,1-2.26-5.82,24.73,24.73,0,0,1,2.43-1.65,12.92,12.92,0,0,0,2.69,7.06c0.18,0.22.53,0,.36-0.25a12.37,12.37,0,0,1-2.52-6c0-.33-0.08-0.67-0.1-1l0.57-.29L47.43,142l-0.62.32a7.37,7.37,0,0,1-3.15-4.45h0Zm-2.75-13.31a12,12,0,0,1,.82-4.49A19.6,19.6,0,0,1,44,115.95a0.23,0.23,0,0,1,.31-0.06,0.2,0.2,0,0,1,.07.29,19.26,19.26,0,0,0-2.18,4,11.62,11.62,0,0,0-.8,4.36h2.18v0.42H41.35a11.62,11.62,0,0,0,.8,4.36,19.24,19.24,0,0,0,2.18,4,0.2,0.2,0,0,1-.07.29A0.23,0.23,0,0,1,44,133.5a19.61,19.61,0,0,1-2.23-4.07,12,12,0,0,1-.82-4.49h-1a8.91,8.91,0,0,0-.63,3.2,7.55,7.55,0,0,0,.68,3.13,0.2,0.2,0,0,1-.12.27,0.23,0.23,0,0,1-.29-0.11,7.93,7.93,0,0,1-.72-3.28,9.22,9.22,0,0,1,.6-3.2H38.37a8.19,8.19,0,0,0-2.29,3,12,12,0,0,0-.9,3.82,0.22,0.22,0,0,1-.24.19,0.21,0.21,0,0,1-.2-0.22,12.32,12.32,0,0,1,.93-3.94,8.6,8.6,0,0,1,2.06-2.89H36a6.83,6.83,0,0,0-1.74,1.26h0a3,3,0,0,0-.83,1.52,0.22,0.22,0,0,1-.26.17,0.21,0.21,0,0,1-.18-0.24,3.43,3.43,0,0,1,.94-1.73h0a6.4,6.4,0,0,1,1.23-1H32.31l-0.94,1.26-3.65-1.47,3.65-1.47,0.94,1.26h2.83a6.39,6.39,0,0,1-1.23-1h0a3.43,3.43,0,0,1-.94-1.73,0.21,0.21,0,0,1,.18-0.24,0.22,0.22,0,0,1,.26.17,3,3,0,0,0,.83,1.53h0A6.81,6.81,0,0,0,36,124.52h1.74a8.59,8.59,0,0,1-2.06-2.89,12.32,12.32,0,0,1-.93-3.94,0.21,0.21,0,0,1,.2-0.22,0.22,0.22,0,0,1,.24.19,12,12,0,0,0,.9,3.82,8.19,8.19,0,0,0,2.29,3h1.05a9.21,9.21,0,0,1-.6-3.2,7.93,7.93,0,0,1,.72-3.29,0.23,0.23,0,0,1,.29-0.11,0.2,0.2,0,0,1,.12.27,7.55,7.55,0,0,0-.68,3.13,8.91,8.91,0,0,0,.63,3.2h1Z" transform="translate(0.1 0.1)"/><path class="cls-4" d="M89.29,167c25,0,45.39-19,45.39-42.27S114.29,82.46,89.29,82.46s-45.39,19-45.39,42.27S64.29,167,89.29,167Z" transform="translate(0.1 0.1)"/><path class="cls-7" d="M89.29,166.3c24.59,0,44.65-18.68,44.65-41.57S113.88,83.15,89.29,83.15s-44.65,18.68-44.65,41.58S64.7,166.3,89.29,166.3Z" transform="translate(0.1 0.1)"/><path class="cls-4" d="M92.4,95.36c1.23-3.1,6.23-2.18,6.09,1.13,1.86-2.83,6.57-1,5.74,2.21,2.42-2.44,6.65.21,5.16,3.21,2.89-2,6.48,1.41,4.39,4.09,3.24-1.39,6.06,2.57,3.45,4.81,3.46-.77,5.41,3.61,2.38,5.34a2.91,2.91,0,0,1,1.21,5.67,2.9,2.9,0,0,1,0,5.78,2.91,2.91,0,0,1-1.21,5.67c3,1.73,1.09,6.12-2.38,5.34,2.61,2.25-.21,6.2-3.45,4.81,2.09,2.68-1.51,6-4.39,4.09,1.49,3-2.74,5.66-5.16,3.21,0.83,3.22-3.88,5-5.74,2.21,0.14,3.31-4.86,4.24-6.09,1.13-0.56,3.27-5.65,3.27-6.21,0C85,157.2,80,156.26,80.09,153c-1.87,2.84-6.57,1-5.74-2.21-2.42,2.44-6.65-.21-5.16-3.21-2.88,1.95-6.48-1.41-4.39-4.09-3.24,1.39-6.06-2.56-3.45-4.81-3.47.78-5.41-3.62-2.38-5.34a2.91,2.91,0,0,1-1.21-5.67,2.9,2.9,0,0,1,0-5.78A2.91,2.91,0,0,1,59,116.16c-3-1.73-1.09-6.12,2.38-5.34-2.61-2.25.21-6.2,3.45-4.81-2.09-2.68,1.52-6,4.39-4.09-1.49-3,2.75-5.65,5.16-3.21-0.83-3.22,3.88-5,5.74-2.21C80,93.18,85,92.25,86.19,95.36,86.74,92.07,91.84,92.07,92.4,95.36Zm-0.16,1.48a3.23,3.23,0,0,1-5.9,0c-0.46,2.67-4.26,3.38-5.79,1.07,0.11,2.7-3.47,4.09-5.45,2.1,0.67,2.63-2.54,4.65-4.9,3.05,1.21,2.45-1.52,5-4.17,3.88,1.7,2.19-.44,5.2-3.28,4.57a2.92,2.92,0,0,1-2.26,5.07A2.88,2.88,0,0,1,59.35,122a2.87,2.87,0,0,1,0,5.49,2.88,2.88,0,0,1,1.15,5.39,2.92,2.92,0,0,1,2.26,5.07c2.84-.63,5,2.38,3.28,4.57,2.64-1.13,5.38,1.42,4.17,3.88,2.36-1.59,5.58.42,4.9,3.05,2-2,5.56-.61,5.45,2.1,1.53-2.31,5.32-1.6,5.79,1.07a3.23,3.23,0,0,1,5.9,0c0.46-2.67,4.26-3.38,5.79-1.07-0.11-2.71,3.47-4.09,5.45-2.1-0.67-2.64,2.55-4.64,4.9-3.05-1.21-2.46,1.53-5,4.17-3.88-1.7-2.2.45-5.2,3.28-4.57a2.92,2.92,0,0,1,2.26-5.07,2.88,2.88,0,0,1,1.15-5.39,2.87,2.87,0,0,1,0-5.49,2.88,2.88,0,0,1-1.15-5.39,2.92,2.92,0,0,1-2.26-5.07c-2.84.63-5-2.38-3.28-4.57-2.65,1.13-5.38-1.42-4.17-3.88-2.37,1.6-5.58-.42-4.9-3.05-2,2-5.56.6-5.45-2.1-1.53,2.31-5.32,1.6-5.79-1.07h0Zm3.57-2.65a2.24,2.24,0,1,0-.93,4.37,2.39,2.39,0,0,0,2.81-1.75,2.24,2.24,0,0,0-1.88-2.62h0ZM102.08,96c-2.93-1.13-4.74,3-1.83,4.11a2.46,2.46,0,0,0,3.12-1.2A2.18,2.18,0,0,0,102.08,96h0Zm5.78,2.88c-2.63-1.64-5.28,2.07-2.66,3.7a2.5,2.5,0,0,0,3.32-.61,2.13,2.13,0,0,0-.66-3.09h0Zm5.07,3.87c-2.24-2.08-5.61,1.07-3.38,3.15a2.52,2.52,0,0,0,3.38,0,2.12,2.12,0,0,0,0-3.15h0Zm4.16,4.72c-1.75-2.45-5.73,0-4,2.47a2.5,2.5,0,0,0,3.32.61,2.13,2.13,0,0,0,.66-3.09h0Zm3.09,5.38c-1.21-2.72-5.62-1-4.42,1.7a2.46,2.46,0,0,0,3.12,1.2,2.17,2.17,0,0,0,1.29-2.91h0Zm1.9,5.84c-0.62-2.88-5.3-2-4.69.87a2.39,2.39,0,0,0,2.81,1.75,2.24,2.24,0,0,0,1.88-2.62h0Zm0.64,6.07c0-2.94-4.78-2.94-4.78,0s4.78,2.94,4.78,0h0Zm-0.64,6.07c0.62-2.88-4.07-3.76-4.69-.87s4.07,3.76,4.69.87h0Zm-1.9,5.84c1.21-2.72-3.21-4.43-4.42-1.7s3.21,4.42,4.42,1.7h0ZM117.08,142c1.76-2.44-2.22-4.92-4-2.47s2.22,4.92,4,2.47h0Zm-4.16,4.72c2.23-2.08-1.14-5.23-3.38-3.15a2.12,2.12,0,0,0,0,3.15,2.52,2.52,0,0,0,3.38,0h0Zm-5.07,3.87c2.62-1.63,0-5.34-2.66-3.7a2.13,2.13,0,0,0-.66,3.09,2.5,2.5,0,0,0,3.32.61h0Zm-5.78,2.88c2.92-1.12,1.1-5.24-1.83-4.11A2.18,2.18,0,0,0,99,152.28a2.45,2.45,0,0,0,3.12,1.2h0Zm-4.39-.85a2.39,2.39,0,0,0-2.81-1.75A2.24,2.24,0,1,0,97.69,152.64Zm-6,1c0-2.94-4.78-2.94-4.78,0S91.68,156.59,91.68,153.63Zm-8.91,1.63a2.24,2.24,0,1,0,.93-4.37,2.24,2.24,0,1,0-.93,4.37h0Zm-6.27-1.77c2.92,1.13,4.75-3,1.83-4.11a2.46,2.46,0,0,0-3.12,1.21,2.17,2.17,0,0,0,1.29,2.91h0Zm-5.78-2.88c2.63,1.64,5.28-2.07,2.66-3.7a2.5,2.5,0,0,0-3.32.61,2.13,2.13,0,0,0,.66,3.09h0Zm-5.07-3.87c2.24,2.08,5.61-1.07,3.38-3.15a2.52,2.52,0,0,0-3.38,0,2.12,2.12,0,0,0,0,3.15h0ZM61.5,142c1.76,2.45,5.73,0,4-2.47a2.5,2.5,0,0,0-3.31-.61A2.13,2.13,0,0,0,61.5,142h0Zm-3.09-5.38c1.21,2.72,5.62,1,4.42-1.7a2.46,2.46,0,0,0-3.12-1.21,2.17,2.17,0,0,0-1.29,2.91h0Zm-1.9-5.84c0.62,2.89,5.3,2,4.69-.87a2.39,2.39,0,0,0-2.81-1.75,2.24,2.24,0,0,0-1.88,2.62h0Zm-0.64-6.07c0,2.94,4.78,2.94,4.78,0a2.4,2.4,0,0,0-4.78,0h0Zm0.64-6.07c-0.62,2.88,4.07,3.76,4.69.87a2.24,2.24,0,0,0-1.88-2.62,2.39,2.39,0,0,0-2.81,1.75h0Zm1.9-5.84c-1.21,2.72,3.21,4.42,4.42,1.7a2.17,2.17,0,0,0-1.29-2.91,2.46,2.46,0,0,0-3.12,1.2h0Zm3.09-5.38c-1.75,2.44,2.22,4.92,4,2.47a2.13,2.13,0,0,0-.66-3.09,2.5,2.5,0,0,0-3.32.61h0Zm4.16-4.72c-2.23,2.08,1.14,5.23,3.38,3.15a2.12,2.12,0,0,0,0-3.15,2.52,2.52,0,0,0-3.38,0h0Zm5.07-3.87c-2.62,1.63,0,5.34,2.66,3.7A2.13,2.13,0,0,0,74,99.46a2.5,2.5,0,0,0-3.32-.61h0ZM76.5,96c-2.92,1.13-1.1,5.24,1.83,4.11a2.17,2.17,0,0,0,1.29-2.91A2.46,2.46,0,0,0,76.5,96h0Zm6.27-1.77a2.24,2.24,0,1,0,2.81,1.75,2.39,2.39,0,0,0-2.81-1.75h0Zm4.13,1.63a2.4,2.4,0,0,0,4.78,0C91.68,92.88,86.9,92.88,86.9,95.82Z" transform="translate(0.1 0.1)"/><path class="cls-6" d="M95.22,88.59a0.82,0.82,0,0,1-1.62-.2A0.82,0.82,0,0,1,95.22,88.59Z" transform="translate(0.1 0.1)"/><path class="cls-6" d="M104.62,90.25a0.74,0.74,0,0,1,.44,1,0.84,0.84,0,0,1-1.07.41,0.74,0.74,0,0,1-.44-1A0.84,0.84,0,0,1,104.62,90.25Z" transform="translate(0.1 0.1)"/><path class="cls-6" d="M113.83,96.19c-0.66.8-1.95-.13-1.29-0.92S114.49,95.39,113.83,96.19Z" transform="translate(0.1 0.1)"/><path class="cls-6" d="M120.93,103.08c-0.85.61-1.85-.59-1-1.21A0.78,0.78,0,1,1,120.93,103.08Z" transform="translate(0.1 0.1)"/><path class="cls-6" d="M125.87,111.44a0.77,0.77,0,1,1-.62-1.4A0.77,0.77,0,1,1,125.87,111.44Z" transform="translate(0.1 0.1)"/><path class="cls-6" d="M129,119.85a0.82,0.82,0,0,1-1.62.2A0.82,0.82,0,0,1,129,119.85Z" transform="translate(0.1 0.1)"/><path class="cls-6" d="M128.1,130.25a0.76,0.76,0,1,1,.21-1.51A0.76,0.76,0,1,1,128.1,130.25Z" transform="translate(0.1 0.1)"/><path class="cls-6" d="M126.31,139c-0.41.93-1.92,0.34-1.51-.58S126.72,138.07,126.31,139Z" transform="translate(0.1 0.1)"/><path class="cls-6" d="M119.94,147.58a0.78,0.78,0,1,1,1-1.21A0.78,0.78,0,1,1,119.94,147.58Z" transform="translate(0.1 0.1)"/><path class="cls-6" d="M112.54,154.18c-0.66-.79.64-1.72,1.29-0.92S113.2,155,112.54,154.18Z" transform="translate(0.1 0.1)"/><path class="cls-6" d="M103.56,158.78c-0.41-.93,1.09-1.51,1.51-0.58S104,159.71,103.56,158.78Z" transform="translate(0.1 0.1)"/><path class="cls-6" d="M93.61,161.06a0.82,0.82,0,0,1,1.62-.2A0.82,0.82,0,0,1,93.61,161.06Z" transform="translate(0.1 0.1)"/><path class="cls-6" d="M83.36,160.86a0.82,0.82,0,0,1,1.62.2A0.82,0.82,0,0,1,83.36,160.86Z" transform="translate(0.1 0.1)"/><path class="cls-6" d="M73.52,158.2c0.41-.93,1.92-0.34,1.51.58S73.1,159.13,73.52,158.2Z" transform="translate(0.1 0.1)"/><path class="cls-6" d="M64.75,153.26c0.66-.8,1.95.13,1.29,0.92S64.09,154.05,64.75,153.26Z" transform="translate(0.1 0.1)"/><path class="cls-6" d="M57.66,146.37a0.78,0.78,0,1,1,1,1.21A0.78,0.78,0,1,1,57.66,146.37Z" transform="translate(0.1 0.1)"/><path class="cls-6" d="M52.72,138a0.77,0.77,0,1,1,.62,1.4A0.77,0.77,0,1,1,52.72,138Z" transform="translate(0.1 0.1)"/><path class="cls-6" d="M50.27,128.74a0.76,0.76,0,1,1,.21,1.51A0.76,0.76,0,1,1,50.27,128.74Z" transform="translate(0.1 0.1)"/><path class="cls-6" d="M50.48,119.2a0.76,0.76,0,1,1-.21,1.51A0.76,0.76,0,1,1,50.48,119.2Z" transform="translate(0.1 0.1)"/><path class="cls-6" d="M53.34,110a0.77,0.77,0,1,1-.62,1.4A0.77,0.77,0,1,1,53.34,110Z" transform="translate(0.1 0.1)"/><path class="cls-6" d="M57.5,102c0.66-.8,2,0.13,1.29.92S56.85,102.81,57.5,102Z" transform="translate(0.1 0.1)"/><path class="cls-6" d="M66,95.26c0.66,0.8-.64,1.72-1.29.92S65.39,94.47,66,95.26Z" transform="translate(0.1 0.1)"/><path class="cls-6" d="M75,90.66c0.41,0.93-1.09,1.51-1.51.58S74.61,89.74,75,90.66Z" transform="translate(0.1 0.1)"/><path class="cls-6" d="M85,88.39a0.82,0.82,0,0,1-1.62.2A0.82,0.82,0,0,1,85,88.39Z" transform="translate(0.1 0.1)"/><path class="cls-6" d="M92.64,163.42l-1.24.07-0.16-2.32,1.24-.08,0.08,1.16a43.14,43.14,0,0,0,6.6-1l-1-3.36h0a38.65,38.65,0,0,0,6.78-2.25h0c0.57-.25.44-0.19,1.12-0.51l1.11,2.09-1.12.51-0.55-1a39.73,39.73,0,0,1-5.8,2l1,3.37-1.2.3h0a44.31,44.31,0,0,1-6.84,1h0Z" transform="translate(0.1 0.1)"/><path class="cls-6" d="M81.77,162.91l-1.22-.23L81,160.4l1.22,0.23L82,161.77a43.35,43.35,0,0,0,6.65.62V158.9h0a39.49,39.49,0,0,0,7.17-.54h0c0.65-.11.66-0.11,1.22-0.23l0.49,2.28-1.22.23-0.24-1.14a40.79,40.79,0,0,1-6.17.56v3.49H88.67a44.6,44.6,0,0,1-6.9-.64h0Z" transform="translate(0.1 0.1)"/><path class="cls-6" d="M71.41,159.8l-1.12-.52,1.11-2.09,1.12,0.51-0.55,1a42.29,42.29,0,0,0,6.26,2.2l1-3.36h0a39.33,39.33,0,0,0,7.08,1.21h0c0.77,0.06.59,0,1.24,0.08l-0.16,2.32-1.24-.08,0.08-1.16a40.55,40.55,0,0,1-6.11-.94l-1,3.37-1.2-.3h0a43.52,43.52,0,0,1-6.48-2.28h0Z" transform="translate(0.1 0.1)"/><path class="cls-6" d="M62.27,154.29l-0.94-.77L63,151.78l0.94,0.76-0.82.87A40.51,40.51,0,0,0,68.53,157l1.87-3a38.15,38.15,0,0,0,6.5,2.87h0c0.63,0.21.51,0.17,1.18,0.37l-0.8,2.2-1.18-.37,0.4-1.1a39.39,39.39,0,0,1-5.64-2.38l-1.87,3-1.08-.58h0a41.7,41.7,0,0,1-5.63-3.77h0Z" transform="translate(0.1 0.1)"/><path class="cls-6" d="M55,146.77q-0.35-.48-0.69-1l2.08-1.29q0.34,0.49.69,1l-1,.65a38.23,38.23,0,0,0,4.24,4.82l2.65-2.47a36.39,36.39,0,0,0,5.48,4.34h0c0.54,0.35.57,0.37,1,.64L68,155.39l-1-.64,0.69-1a37.58,37.58,0,0,1-4.79-3.66l-2.65,2.47-0.88-.82h0a39.56,39.56,0,0,1-4.39-5h0Z" transform="translate(0.1 0.1)"/><path class="cls-6" d="M50,137.75c-0.14-.36-0.27-0.73-0.4-1.1L52,135.9q0.19,0.55.4,1.1l-1.18.37A36.34,36.34,0,0,0,54,143.05l3.25-1.74a34.29,34.29,0,0,0,4.09,5.51h0c0.47,0.52.36,0.4,0.82,0.87l-1.88,1.53-0.82-.87,0.94-.77a35.6,35.6,0,0,1-3.61-4.69l-3.25,1.75c-0.21-.33-0.42-0.67-0.62-1h0A37.49,37.49,0,0,1,50,137.75h0Z" transform="translate(0.1 0.1)"/><path class="cls-6" d="M128.57,111.7q0.21,0.55.4,1.1l-2.37.75q-0.19-.55-0.4-1.1l1.18-.37a36.33,36.33,0,0,0-2.75-5.67l-3.24,1.74h0a34.44,34.44,0,0,0-4.09-5.51h0c-0.45-.49-0.39-0.43-0.82-0.87l1.88-1.53q0.42,0.43.82,0.87l-0.94.77a35.59,35.59,0,0,1,3.61,4.69l3.25-1.75c0.21,0.33.42,0.67,0.62,1h0a37.54,37.54,0,0,1,2.85,5.88h0Z" transform="translate(0.1 0.1)"/><path class="cls-6" d="M130.85,121.61q0,0.58.08,1.16l-2.49.15c0-.39,0-0.77-0.08-1.16l1.24-.08a35.15,35.15,0,0,0-1.08-6.14l-3.61.9h0a32.82,32.82,0,0,0-2.42-6.31h0c-0.3-.6-0.25-0.48-0.55-1l2.24-1c0.19,0.34.37,0.69,0.55,1l-1.12.52a34,34,0,0,1,2.18,5.4l3.62-.9c0.11,0.37.22,0.75,0.32,1.12h0a36.42,36.42,0,0,1,1.12,6.37h0Z" transform="translate(0.1 0.1)"/><path class="cls-6" d="M130.3,131.73c-0.07.38-.16,0.76-0.25,1.14l-2.45-.45c0.09-.38.17-0.76,0.24-1.14l1.22,0.23a35.06,35.06,0,0,0,.66-6.2H126a32,32,0,0,0-.58-6.68h0c-0.14-.69-0.11-0.54-0.24-1.14l2.45-.45q0.13,0.57.24,1.14l-1.23.23a33.1,33.1,0,0,1,.6,5.74H131c0,0.39,0,.77,0,1.16h0a36.1,36.1,0,0,1-.69,6.42h0Z" transform="translate(0.1 0.1)"/><path class="cls-6" d="M127,141.37c-0.18.35-.36,0.7-0.55,1l-2.24-1c0.19-.35.37-0.69,0.55-1l1.12,0.51a36.05,36.05,0,0,0,2.36-5.83l-3.61-.9h0a32.22,32.22,0,0,0,1.3-6.59h0c0.05-.61.05-0.6,0.08-1.16l2.49,0.15c0,0.39,0,.77-0.08,1.16l-1.25-.08a33.25,33.25,0,0,1-1,5.69l3.62,0.9c-0.1.37-.21,0.75-0.33,1.12h0a37.18,37.18,0,0,1-2.45,6h0Z" transform="translate(0.1 0.1)"/><path class="cls-6" d="M121,149.88l-0.82.87-1.88-1.53,0.82-.87,0.94,0.76a37.71,37.71,0,0,0,3.9-5.06l-3.24-1.74h0a33.27,33.27,0,0,0,3.08-6.05h0c0.21-.55.19-0.48,0.4-1.1l2.37,0.75c-0.13.37-.26,0.73-0.4,1.1l-1.18-.37a34.36,34.36,0,0,1-2.56,5.26l3.25,1.75c-0.2.34-.41,0.67-0.63,1h0a38.85,38.85,0,0,1-4,5.24h0Z" transform="translate(0.1 0.1)"/><path class="cls-6" d="M113,156.68l-1,.64-1.39-1.94,1-.64,0.69,1a40,40,0,0,0,5.17-3.95l-2.64-2.46h0a35.08,35.08,0,0,0,4.66-5.1h0c0.41-.55.27-0.36,0.69-1l2.08,1.29c-0.23.32-.45,0.65-0.69,1l-1-.65a36.11,36.11,0,0,1-3.93,4.46l2.65,2.47-0.88.82h0a41.14,41.14,0,0,1-5.36,4.09h0Z" transform="translate(0.1 0.1)"/><path class="cls-6" d="M103.28,161.3l-1.18.37-0.8-2.2,1.18-.37,0.4,1.1a41.89,41.89,0,0,0,6.09-2.56l-1.87-3h0A37.05,37.05,0,0,0,113,150.8h0c0.47-.37.45-0.35,0.94-0.76l1.65,1.75-0.94.76-0.82-.88a38.2,38.2,0,0,1-5,3.36l1.88,3-1.08.58h0a43.2,43.2,0,0,1-6.32,2.66h0Z" transform="translate(0.1 0.1)"/><path class="cls-6" d="M85.94,86L87.19,86l0.16,2.32-1.24.08L86,87.19a43.1,43.1,0,0,0-6.6,1l1,3.37a38.63,38.63,0,0,0-6.78,2.25h0c-0.54.24-.51,0.22-1.12,0.51L71.4,92.25l1.12-.51,0.55,1a39.86,39.86,0,0,1,5.8-2l-1-3.37,1.2-.3h0a44.38,44.38,0,0,1,6.84-1h0Z" transform="translate(0.1 0.1)"/><path class="cls-6" d="M96.81,86.54L98,86.77,97.55,89l-1.22-.23,0.24-1.14a43.29,43.29,0,0,0-6.65-.62v3.48h0a39.5,39.5,0,0,0-7.17.54h0c-0.6.1-.59,0.1-1.22,0.23L81,89l1.22-.23L82.5,90a40.9,40.9,0,0,1,6.17-.56V85.9h1.25a44.55,44.55,0,0,1,6.9.64h0Z" transform="translate(0.1 0.1)"/><path class="cls-6" d="M107.17,89.65l1.12,0.52-1.11,2.09-1.12-.51,0.55-1a42.2,42.2,0,0,0-6.26-2.2l-1,3.36h0l-0.6-.16-0.6-.14a39.33,39.33,0,0,0-5.87-.91h0c-0.65,0-.58,0-1.24-0.08l0.16-2.32,1.24,0.08-0.08,1.16a40.68,40.68,0,0,1,6.11.94l1-3.37,1.2,0.3h0a43.62,43.62,0,0,1,6.48,2.28h0Z" transform="translate(0.1 0.1)"/><path class="cls-6" d="M116.31,95.16l0.94,0.77-1.65,1.75-0.94-.76,0.82-.87a40.4,40.4,0,0,0-5.43-3.63l-1.87,3h0l-0.54-.3-0.54-.28a38.16,38.16,0,0,0-5.42-2.29h0l-0.59-.19-0.59-.18,0.8-2.2,1.18,0.37-0.4,1.1a39.47,39.47,0,0,1,5.64,2.38l1.88-3,1.08,0.58h0a41.66,41.66,0,0,1,5.63,3.77h0Z" transform="translate(0.1 0.1)"/><path class="cls-6" d="M123.61,102.67c0.24,0.32.46,0.64,0.69,1l-2.08,1.29q-0.34-.49-0.69-1l1-.64a38.23,38.23,0,0,0-4.24-4.82L115.68,101h0a36.39,36.39,0,0,0-5.48-4.34h0c-0.54-.35-0.52-0.34-1-0.65l1.39-1.94,1,0.64-0.7,1a37.63,37.63,0,0,1,4.79,3.66l2.65-2.47,0.88,0.82h0a39.47,39.47,0,0,1,4.39,5h0Z" transform="translate(0.1 0.1)"/><path class="cls-6" d="M47.73,127.84c0-.38-0.06-0.77-0.08-1.16l2.49-.15c0,0.39,0,.77.08,1.16l-1.24.08a35.19,35.19,0,0,0,1.08,6.14l3.62-.9a32.78,32.78,0,0,0,2.42,6.31h0c0.26,0.52.3,0.58,0.55,1l-2.24,1q-0.28-.52-0.55-1l1.12-.51a34,34,0,0,1-2.18-5.4l-3.62.9c-0.11-.37-0.22-0.75-0.32-1.12h0a36.28,36.28,0,0,1-1.12-6.37h0Z" transform="translate(0.1 0.1)"/><path class="cls-6" d="M48.28,117.72c0.07-.38.16-0.76,0.25-1.14L51,117q-0.13.57-.24,1.14l-1.22-.23a35.07,35.07,0,0,0-.66,6.2H52.6a32,32,0,0,0,.58,6.68h0c0.11,0.58.12,0.62,0.24,1.14l-2.45.45c-0.09-.38-0.17-0.76-0.24-1.14L52,131a33.14,33.14,0,0,1-.6-5.74H47.6c0-.39,0-0.77,0-1.16h0a36.1,36.1,0,0,1,.69-6.42h0Z" transform="translate(0.1 0.1)"/><path class="cls-6" d="M51.63,108.07c0.18-.35.36-0.69,0.55-1l2.24,1q-0.29.52-.55,1l-1.12-.51a36,36,0,0,0-2.36,5.83l3.62,0.9a32.22,32.22,0,0,0-1.3,6.59h0c-0.05.6-.05,0.65-0.08,1.16l-2.49-.15c0-.39,0-0.77.08-1.16l1.25,0.08a33.2,33.2,0,0,1,1-5.69l-3.62-.9c0.1-.37.21-0.75,0.33-1.12h0a37.12,37.12,0,0,1,2.45-6h0Z" transform="translate(0.1 0.1)"/><path class="cls-6" d="M57.54,99.56l0.82-.87,1.88,1.53-0.82.87-0.94-.77a37.72,37.72,0,0,0-3.9,5.06l3.25,1.74a33.29,33.29,0,0,0-3.08,6.05h0c-0.2.51-.2,0.51-0.4,1.1L52,113.54c0.13-.37.26-0.73,0.4-1.1l1.18,0.37a34.33,34.33,0,0,1,2.56-5.26l-3.25-1.75c0.2-.34.41-0.67,0.63-1h0a38.87,38.87,0,0,1,4-5.24h0Z" transform="translate(0.1 0.1)"/><path class="cls-6" d="M65.61,92.77l1-.64L68,94.06l-1,.64-0.69-1a39.86,39.86,0,0,0-5.17,3.95l2.65,2.47a35.08,35.08,0,0,0-4.66,5.1h0c-0.37.51-.33,0.44-0.69,1l-2.08-1.29c0.23-.32.45-0.65,0.69-1l1,0.65A36.13,36.13,0,0,1,62,100.15l-2.65-2.47,0.88-.82h0a41.09,41.09,0,0,1,5.36-4.09h0Z" transform="translate(0.1 0.1)"/><path class="cls-6" d="M75.3,88.15l1.18-.37,0.8,2.2-1.18.37-0.4-1.1a41.92,41.92,0,0,0-6.09,2.56l1.87,3a37,37,0,0,0-5.92,3.81h0c-0.55.43-.47,0.37-0.94,0.76L63,97.67l0.94-.77,0.82,0.88a38.2,38.2,0,0,1,5-3.36l-1.88-3L69,90.82h0a43.11,43.11,0,0,1,6.32-2.66h0Z" transform="translate(0.1 0.1)"/><path class="cls-4" d="M125.37,124.72c0,18.55-16.16,33.59-36.08,33.59s-36.08-15-36.08-33.59S69.37,91.13,89.29,91.13,125.37,106.18,125.37,124.72Zm-36.08-33c-19.58,0-35.45,14.78-35.45,33s15.88,33,35.45,33,35.45-14.78,35.45-33S108.87,91.71,89.29,91.71Z" transform="translate(0.1 0.1)"/><path class="cls-4" d="M132.22,124.72c0,22.07-19.22,40-42.93,40s-42.93-17.9-42.93-40,19.22-40,42.93-40S132.22,102.66,132.22,124.72ZM89.29,85.33C65.93,85.33,47,103,47,124.72s18.95,39.4,42.31,39.4,42.31-17.64,42.31-39.4S112.65,85.33,89.29,85.33Z" transform="translate(0.1 0.1)"/><path class="cls-6" d="M101.87,76.12a9.93,9.93,0,0,0,.53,3.69,7.82,7.82,0,0,0,.62-2.25h0c0-.2,0-0.39,0-0.57l0-.06h0a5.63,5.63,0,0,1,.11-0.88,10.94,10.94,0,0,1-.1-2.56c-1.21-1.3-.54-4.22,1.29-6.47-0.33,2.52,1.26,3.7.21,5.47a2.53,2.53,0,0,0,1.36-1A7.94,7.94,0,0,1,106,70.1a5.79,5.79,0,0,1-.59-2.27c-1.52-1.4-.7-5,1.49-7.76-0.43,2.92,1.25,4.27.11,6.32a4.28,4.28,0,0,0,2-1.67,7.34,7.34,0,0,1,.08-1.19,3.47,3.47,0,0,1-.66-2.15c-1.49-1.54-.69-5.06,1.52-7.78-0.35,2.71,1.14,4.12.55,5.92a4.58,4.58,0,0,0,1.31-1.06,6,6,0,0,1,.12-1.36,2.92,2.92,0,0,1-.48-2h0v0c-1.29-1.75.31-5.73,3.16-8.69-1.06,3.32.47,5-1.22,7.28a9.37,9.37,0,0,0,1.53-1.36,5.42,5.42,0,0,1,.43-2.14,10.16,10.16,0,0,1,.27-2.32c-0.86-1.66.7-4.68,3.22-6.73a8.23,8.23,0,0,0-.54,3.23,5.18,5.18,0,0,0,1.26-2c-0.63-1.52,1.18-4.2,3.61-5.8-1.52,2.54-.45,4.22-3.08,5.63a5.44,5.44,0,0,1-1.82,2.69c-0.08,1.13-.43,2.11-2.26,3.2-0.08.5-.16,0.78-0.21,1.35,0.93-1.09,2.46-1.36,3.88-3.12-0.59,3-2.42,5.75-4.22,6l0,0.05h0a6.5,6.5,0,0,1-2.66,2,10.29,10.29,0,0,1-.86.77,3.53,3.53,0,0,0,.2,1.41c0.77-2,2.94-1.79,4.8-3.93-0.51,3.18-2.55,6-4.66,6A4,4,0,0,1,110.26,60a6.06,6.06,0,0,1-1.38,1.62,4.26,4.26,0,0,0,.3,1.35c0.67-2.39,2.94-2.1,4.91-4.43-0.56,3.2-2.57,6.08-4.63,6.18a4.59,4.59,0,0,1-2.84,2.2,7.45,7.45,0,0,1-.79.87,9.48,9.48,0,0,0,.31,1.63c0.78-2.34,3-2.14,5-4.57-0.63,3.34-2.7,6.38-4.75,6.56a2.79,2.79,0,0,1-2.19,1.46,6.43,6.43,0,0,1-.78.8,11.56,11.56,0,0,0,0,1.4c0.76-1.33,2.35-1.46,3.88-3.23-0.47,2.9-2,5.59-3.86,5.7a8.71,8.71,0,0,1-1,3.18,3.84,3.84,0,0,1-1.5,2.22c-1.7-1.11-1.06-4.38,1-6.86h0Zm-25.16,0a9.88,9.88,0,0,1-.53,3.69,7.88,7.88,0,0,1-.62-2.25h0c0-.2,0-0.39,0-0.57l0-.06h0A5.38,5.38,0,0,0,75.5,76a10.9,10.9,0,0,0,.1-2.56c1.21-1.3.54-4.22-1.29-6.47,0.33,2.52-1.26,3.7-.21,5.47a2.52,2.52,0,0,1-1.36-1,8,8,0,0,0-.12-1.33,5.8,5.8,0,0,0,.59-2.27c1.52-1.4.7-5-1.49-7.76,0.43,2.92-1.25,4.27-.11,6.32a4.28,4.28,0,0,1-2-1.67,7.51,7.51,0,0,0-.08-1.19,3.47,3.47,0,0,0,.66-2.15c1.49-1.55.69-5.06-1.52-7.78,0.35,2.71-1.14,4.12-.54,5.91a4.55,4.55,0,0,1-1.31-1.06,6.14,6.14,0,0,0-.12-1.36,2.92,2.92,0,0,0,.48-2h0v0c1.29-1.75-.31-5.73-3.16-8.69,1.06,3.32-.47,5,1.22,7.28a9.42,9.42,0,0,1-1.53-1.36,5.42,5.42,0,0,0-.43-2.14A10.09,10.09,0,0,0,63,47.85c0.86-1.66-.7-4.68-3.22-6.73a8.24,8.24,0,0,1,.54,3.23,5.19,5.19,0,0,1-1.26-2c0.64-1.52-1.18-4.2-3.61-5.8,1.52,2.54.45,4.21,3.08,5.63a5.44,5.44,0,0,0,1.82,2.69c0.08,1.13.43,2.11,2.26,3.2,0.08,0.48.16,0.83,0.21,1.35-0.93-1.09-2.46-1.36-3.88-3.12,0.59,3,2.42,5.75,4.22,6l0,0.05h0a6.5,6.5,0,0,0,2.66,2,10,10,0,0,0,.86.76,3.52,3.52,0,0,1-.2,1.41c-0.77-2-2.94-1.79-4.8-3.93,0.51,3.18,2.55,6,4.66,6A4,4,0,0,0,68.32,60a6.06,6.06,0,0,0,1.38,1.62A4.21,4.21,0,0,1,69.4,63c-0.67-2.39-2.94-2.1-4.91-4.43,0.56,3.2,2.57,6.08,4.63,6.18A4.6,4.6,0,0,0,72,67a7.71,7.71,0,0,0,.79.88,9.37,9.37,0,0,1-.31,1.63c-0.78-2.34-3-2.14-5-4.57,0.62,3.34,2.7,6.37,4.75,6.56a2.79,2.79,0,0,0,2.19,1.46,6.51,6.51,0,0,0,.78.8,11.76,11.76,0,0,1,0,1.4c-0.76-1.33-2.35-1.46-3.88-3.23,0.47,2.9,2,5.59,3.86,5.7a8.7,8.7,0,0,0,1,3.18A3.85,3.85,0,0,0,77.66,83c1.7-1.11,1.07-4.38-1-6.86h0Zm25.16,97.21a9.93,9.93,0,0,1,.53-3.69,7.81,7.81,0,0,1,.62,2.25h0c0,0.2,0,.39,0,0.57l0,0.06h0a5.65,5.65,0,0,0,.11.88A10.92,10.92,0,0,0,103,176c-1.21,1.3-.54,4.22,1.29,6.47-0.33-2.52,1.26-3.7.21-5.47a2.53,2.53,0,0,1,1.36,1,7.93,7.93,0,0,0,.12,1.33,5.79,5.79,0,0,0-.59,2.27c-1.52,1.4-.7,5,1.49,7.76-0.43-2.92,1.25-4.27.11-6.32a4.27,4.27,0,0,1,2,1.67,7.33,7.33,0,0,0,.08,1.19,3.48,3.48,0,0,0-.66,2.15c-1.49,1.54-.69,5.06,1.52,7.78-0.35-2.71,1.14-4.12.55-5.92a4.57,4.57,0,0,1,1.31,1.06,6,6,0,0,0,.12,1.36,2.92,2.92,0,0,0-.48,2h0v0c-1.29,1.75.31,5.73,3.16,8.69-1.06-3.32.47-5-1.22-7.28a9.39,9.39,0,0,1,1.53,1.36,5.42,5.42,0,0,0,.43,2.14,10.14,10.14,0,0,0,.27,2.32c-0.86,1.66.7,4.68,3.22,6.73a8.23,8.23,0,0,1-.54-3.23,5.17,5.17,0,0,1,1.26,2c-0.63,1.52,1.18,4.2,3.61,5.8-1.52-2.54-.45-4.21-3.08-5.63a5.44,5.44,0,0,0-1.82-2.69c-0.08-1.13-.43-2.11-2.26-3.2-0.08-.49-0.16-0.79-0.21-1.35,0.93,1.09,2.46,1.36,3.88,3.12-0.59-3-2.42-5.75-4.22-6l0-.05h0a6.5,6.5,0,0,0-2.66-2,10.35,10.35,0,0,0-.86-0.77,3.52,3.52,0,0,1,.2-1.41c0.77,2,2.94,1.79,4.8,3.93-0.51-3.18-2.55-6-4.66-6a4,4,0,0,0-1.95-1.37,6.05,6.05,0,0,0-1.38-1.63,4.27,4.27,0,0,1,.3-1.35c0.67,2.39,2.94,2.1,4.91,4.43-0.56-3.2-2.57-6.08-4.63-6.18a4.6,4.6,0,0,0-2.84-2.2,7.45,7.45,0,0,0-.79-0.87,9.46,9.46,0,0,1,.31-1.63c0.78,2.34,3,2.14,5,4.57-0.63-3.34-2.7-6.38-4.75-6.56a2.78,2.78,0,0,0-2.19-1.46,6.4,6.4,0,0,0-.78-0.8,11.55,11.55,0,0,1,0-1.4c0.76,1.33,2.35,1.46,3.88,3.23-0.47-2.9-2-5.59-3.86-5.7a8.7,8.7,0,0,0-1-3.18,3.84,3.84,0,0,0-1.5-2.22c-1.7,1.11-1.06,4.38,1,6.86h0Zm-25.16,0a9.88,9.88,0,0,0-.53-3.69,7.88,7.88,0,0,0-.62,2.25h0c0,0.2,0,.39,0,0.57l0,0.06h0a5.4,5.4,0,0,1-.11.88,10.89,10.89,0,0,1,.1,2.56c1.21,1.3.54,4.22-1.29,6.47,0.33-2.52-1.26-3.7-.21-5.47a2.52,2.52,0,0,0-1.36,1,8,8,0,0,1-.12,1.33,5.79,5.79,0,0,1,.59,2.27c1.52,1.4.7,5-1.49,7.76,0.43-2.92-1.25-4.27-.11-6.32a4.26,4.26,0,0,0-2,1.67,7.49,7.49,0,0,1-.08,1.18,3.48,3.48,0,0,1,.66,2.15c1.49,1.55.69,5.06-1.52,7.78,0.35-2.71-1.14-4.13-.54-5.91A4.55,4.55,0,0,0,66.8,191a6.13,6.13,0,0,1-.12,1.36,2.92,2.92,0,0,1,.48,2h0v0c1.29,1.75-.31,5.73-3.16,8.69,1.06-3.32-.47-5,1.22-7.28a9.43,9.43,0,0,0-1.53,1.36,5.43,5.43,0,0,1-.43,2.14A10.09,10.09,0,0,1,63,201.6c0.86,1.66-.7,4.68-3.22,6.73a8.23,8.23,0,0,0,.54-3.23,5.18,5.18,0,0,0-1.26,2c0.64,1.52-1.18,4.2-3.61,5.8,1.52-2.54.45-4.21,3.08-5.63a5.44,5.44,0,0,1,1.82-2.69c0.08-1.13.43-2.11,2.26-3.2,0.08-.48.16-0.83,0.21-1.35-0.93,1.09-2.46,1.36-3.88,3.12,0.59-3,2.42-5.75,4.22-6l0-.05h0a6.51,6.51,0,0,1,2.66-2,9.94,9.94,0,0,1,.86-0.76,3.52,3.52,0,0,0-.2-1.41c-0.77,2-2.94,1.79-4.8,3.93,0.51-3.18,2.55-6,4.66-6a4,4,0,0,1,1.95-1.37,6,6,0,0,1,1.38-1.62,4.21,4.21,0,0,0-.3-1.35c-0.67,2.39-2.94,2.1-4.91,4.43,0.56-3.2,2.57-6.08,4.63-6.18A4.59,4.59,0,0,1,72,182.5a7.68,7.68,0,0,1,.79-0.88,9.37,9.37,0,0,0-.31-1.63c-0.78,2.34-3,2.14-5,4.57,0.62-3.34,2.7-6.37,4.75-6.56a2.78,2.78,0,0,1,2.19-1.46,6.48,6.48,0,0,1,.78-0.8,11.76,11.76,0,0,0,0-1.4c-0.76,1.33-2.35,1.46-3.88,3.23,0.47-2.9,2-5.59,3.86-5.7a8.69,8.69,0,0,1,1-3.18,3.85,3.85,0,0,1,1.5-2.23C79.36,167.58,78.73,170.85,76.71,173.33Z" transform="translate(0.1 0.1)"/><path class="cls-4" d="M78.73,39.85l-2.26-4.67-2.26,4.67h4.51Zm-3.26-.38,1-.94,1,0.94h-2Zm2.63,0L76.47,38l-1.62,1.48,1.62-3.36,1.62,3.36h0Zm26.27,0.38-2.26-4.67-2.26,4.67h4.51Zm-3.26-.38,1-.94,1,0.94h-2Zm2.63,0L102.11,38l-1.62,1.48,1.62-3.36,1.62,3.36h0Zm-25,170.14-2.26,4.67-2.26-4.67h4.51Zm-3.26.38,1,0.94,1-.94h-2Zm2.63,0-1.62,1.48L74.85,210l1.62,3.36L78.1,210h0Zm26.27-.38-2.26,4.67-2.26-4.67h4.51Zm-3.26.38,1,0.94,1-.94h-2Zm2.63,0-1.62,1.48L100.48,210l1.62,3.36Z" transform="translate(0.1 0.1)"/><path class="cls-4" d="M94.71,51.83a1.34,1.34,0,1,1,0-2.68A1.34,1.34,0,1,1,94.71,51.83Zm-10.85,0a1.34,1.34,0,1,1,0-2.68A1.34,1.34,0,1,1,83.87,51.83ZM96.15,199c0,1.77-2.87,1.77-2.87,0S96.15,197.19,96.15,199ZM85.3,199c0,1.77-2.87,1.77-2.87,0S85.3,197.19,85.3,199Z" transform="translate(0.1 0.1)"/><path class="cls-4" d="M75,47.33c-0.14-.15-5-7.72-5.05-8a0.67,0.67,0,0,1,1-.53L76.22,42H77.3A48.76,48.76,0,0,1,81,38.73a0.72,0.72,0,0,1,.5.09c0.14,0.1,3.35,3.1,3.47,3.22h0.78c-0.16-.38-1.22-2.62-1.06-3,3.89-8.15,4.2-9.43,5.13-8.43C90,30.82,94,39.05,93.93,39.39c0,0.14-1,2.52-1.1,2.65H93.6a48.88,48.88,0,0,1,3.71-3.31,0.72,0.72,0,0,1,.5.09c0.14,0.1,3.35,3.1,3.47,3.22h1.08c0.16-.1,5.24-3.27,5.4-3.34,2.23-.58-0.32,2.67-4,8.49C103.44,47.65,75.42,47.69,75,47.33Z" transform="translate(0.1 0.1)"/><path class="cls-7" d="M100.86,43.27a45,45,0,0,1-3.41-3c-4,3.73-2.54,3.06-5.63,3.06-1.21-.1-0.43-1.27.72-4l-3.25-6.8L86,39.3c1.11,2.63,1.86,3.7.86,4-0.17,0-2.25,0-2.42,0s-3.14-2.84-3.34-3c-0.32.3-3.11,3-3.55,3.06-2.22,0-1.3.3-4.91-2l3.14,4.92h27l3.14-4.92C103,43.12,103,43.6,100.86,43.27Z" transform="translate(0.1 0.1)"/><path class="cls-6" d="M101,43.7a1.16,1.16,0,0,1-.67-0.22c-0.1-.08-2.78-2.58-2.87-2.66C94.28,43.76,95,44,91.62,43.69c-1.62-.47-0.68-1.72.44-4.37l-2.76-5.78-2.76,5.78c1.22,2.87,1.82,3.48.82,4.23a1.24,1.24,0,0,1-.62.16c-2.95,0-2,.49-5.59-2.89-0.3.27-2.77,2.65-3.15,2.81a1.19,1.19,0,0,1-.39.07c-2.24,0-1.72.12-3.54-1l2,3.14h26.45l2-3.14C102.57,43.91,103.32,43.7,101,43.7Z" transform="translate(0.1 0.1)"/><path class="cls-7" d="M103.18,43.53a1,1,0,0,1-.2.1v1.48l1.19-1.87V42.91l-1,.62h0Zm-1.39.17a4.1,4.1,0,0,1-1.19-.07v2.21h1.19V43.7h0Zm-2.38-1.06-1.19-1.11v4.3h1.19V42.65h0ZM97,41.2l-1.19,1.11v3.53H97V41.2h0Zm-2.38,2.22a1.51,1.51,0,0,1-1.19.28v2.14h1.19V43.42h0Zm-2.38.28a1.51,1.51,0,0,1-1.19-.28v2.41h1.19V43.7h0Zm-1.19-2.08,1-2.31-1-2v4.36h0Zm-1.19-6.85-0.6-1.25-0.6,1.24V45.84h1.19V34.78h0Zm-2.38,2.49-1,2,1,2.32V37.27h0Zm0,6.16a1.53,1.53,0,0,1-1.19.28v2.14h1.19V43.43h0Zm-2.38.28a1.53,1.53,0,0,1-1.19-.28v2.42h1.19V43.7h0Zm-2.38-1.39L81.55,41.2v4.64h1.19V42.31h0Zm-2.38-.77-1.19,1.11v3.19h1.19v-4.3h0ZM78,43.63a4,4,0,0,1-1.19.07v2.14H78V43.63h0Zm-2.38,0c-0.18-.07-1-0.61-1.19-0.71v0.33l1.19,1.87V43.63Z" transform="translate(0.1 0.1)"/><path class="cls-2" d="M103,46.67L107.3,40c-0.1.06-4.63,2.9-4.73,2.9h0c-2.24,0-.86.74-5.12-3.23-0.11.1-3.41,3.23-3.56,3.23h-2a0.22,0.22,0,0,1-.22-0.21c0-.06,1.38-3.31,1.41-3.37l-3.73-7.81-3.73,7.81L87,42.59a0.21,0.21,0,0,1-.21.28c-2.61,0-1.49.6-5.61-3.23-0.11.1-3.41,3.23-3.56,3.23h0c-2.24,0-.56.66-6.29-2.9l4.28,6.7H103ZM75.24,47c-6.52-10.21-6.6-9.15.84-4.53h1.4L81,39.2a0.24,0.24,0,0,1,.32,0l3.5,3.26h1.62l-1.3-3.08c-0.09-.16,4-8.56,4.08-8.59a0.23,0.23,0,0,1,.29.1l4,8.31h0c0.06,0.13-1.25,3.12-1.3,3.25h1.62l3.5-3.26a0.24,0.24,0,0,1,.32,0l3.5,3.26h1.4c7.63-4.74,7.23-5.48.84,4.52C103.26,47.1,75.37,47.18,75.24,47Z" transform="translate(0.1 0.1)"/><path class="cls-4" d="M83.87,64.67c0.35,1,.56,3.27,3.37,4.47L87.13,66A8.36,8.36,0,0,1,81,56.82a0.68,0.68,0,0,1,1.32-.13A7.08,7.08,0,0,0,87,62.47l-0.19-5.53c-10.42-1.3-16.35-7.08-19.9-16.81-0.18-.52-0.32-0.82.14-1.15,1-.46,1.08.63,2.14,2.53,4.11,7.1,9.87,11.21,17.76,12.1,2.62-7.52,2.25-6.93,4.66,0,8.94-1.07,14.92-6.11,18.95-14.37a0.67,0.67,0,0,1,1.24.46c-3.53,10-9.56,15.93-20,17.24l-0.19,5.53c4.69-1.63,4-5.59,5-6.2,2.23-.86,1.43,8-5.16,9.68l-0.11,3.19a5.49,5.49,0,0,0,3.21-3.7,6,6,0,0,1,.2-0.83,0.67,0.67,0,0,1,1.25.22,6.77,6.77,0,0,1-4.76,7.39l-0.08,2.2a3.67,3.67,0,0,0,1.65-2.25c0.11-.54.13-0.84,0.69-0.94,1.48,0,1,4.58-2.43,5.83-0.07,2.11.27,2.32-1.27,4.34a0.69,0.69,0,0,1-1.08-.09c-1.43-2.38-1.09-1.2-1.2-4.24a5,5,0,0,1-2.88-2.87c-1.08-3.15.69-3.48,1-2.48a3.65,3.65,0,0,0,1.74,2.7l-0.08-2.2c-5-1.5-5.41-7.25-4.41-7.86a0.68,0.68,0,0,1,.93.32h0Zm0.91,7.79A4.52,4.52,0,0,0,88,76.78L88,79.28h0c0,0.1,1,1.73,1.06,1.82h0a0.22,0.22,0,0,0,.38,0l1-1.71h0c0.05-.08.12-2.51,0.12-2.61a4.52,4.52,0,0,0,3.18-4.31h0a4.87,4.87,0,0,0,0-.6h0v0h0a0.22,0.22,0,0,0-.44,0,4.07,4.07,0,0,1-2.64,3.27L90.8,71.9a6.33,6.33,0,0,0,4.81-6.13h0a6.4,6.4,0,0,0-.06-0.85h0v0h0a0.22,0.22,0,0,0-.44,0,5.88,5.88,0,0,1-4.24,4.86L91,65.64a7.93,7.93,0,0,0,6.2-7.73h0A8.06,8.06,0,0,0,97.16,57h0l0-.17h0a0.22,0.22,0,0,0-.44,0A7.49,7.49,0,0,1,91.1,63l0.23-6.47c10.45-1.22,16.56-6.91,20-17h0a0.22,0.22,0,0,0-.41-0.17c-4.37,9.11-11,13.7-19.66,14.64L89.5,48.87h0a0.22,0.22,0,0,0-.42,0l-1.81,5.19c-9.4-1-15.64-6.28-19.65-14.63a0.22,0.22,0,0,0-.42.16c3.49,10.06,9.59,15.77,20,17L87.48,63a7.49,7.49,0,0,1-5.59-6.22,0.22,0.22,0,0,0-.44,0,7.92,7.92,0,0,0-.07,1.06h0a7.93,7.93,0,0,0,6.2,7.76l0.14,4.11a5.88,5.88,0,0,1-4.24-4.84,0.22,0.22,0,0,0-.44,0c0,0.12,0,.24,0,0.35h0v0.07h0c0,3.76,2.22,6,4.8,6.59l0.11,3.21a4.08,4.08,0,0,1-2.24-2h0a4.07,4.07,0,0,1-.4-1.27c0-.29-0.47-0.37-0.47.23h0v0h0c0,0.09,0,.26,0,0.32h0Zm3.3,3.18a4.53,4.53,0,0,1-2.72-2.14,4.07,4.07,0,0,0,2.87,2.89,0.22,0.22,0,0,1,.17.21l0.09,2.61,0.81,1.34,0.8-1.34,0.09-2.59a0.22,0.22,0,0,1,.17-0.23,4.08,4.08,0,0,0,2.88-2.9,4.53,4.53,0,0,1-2.72,2.14h0a0.22,0.22,0,0,1-.28-0.22l0.13-3.68a0.22,0.22,0,0,1,.18-0.23,5.88,5.88,0,0,0,4.58-5,6.33,6.33,0,0,1-4.42,3.71h0A0.22,0.22,0,0,1,90.42,70l0.16-4.56a0.22,0.22,0,0,1,.18-0.23,7.48,7.48,0,0,0,6-6.77,7.93,7.93,0,0,1-5.83,5.08h0a0.22,0.22,0,0,1-.27-0.22l0.24-6.93a0.22,0.22,0,0,1,.2-0.23c9.14-1,14.92-5.49,18.49-13.27a23.41,23.41,0,0,1-18.4,11.64h0A0.22,0.22,0,0,1,91,54.38l-1.66-4.76-1.66,4.75c-0.14.5-7.15-.43-12.45-4.48a25.65,25.65,0,0,1-6.19-7c3.56,7.76,9.33,12.25,18.49,13.27a0.22,0.22,0,0,1,.2.22l0.24,6.93a0.22,0.22,0,0,1-.27.24,7.93,7.93,0,0,1-5.83-5.07,7.49,7.49,0,0,0,4.6,6.34c2,0.82,1.52-.89,1.73,5.19,0.12,0.92-3.5-.66-4.69-3.46a5.92,5.92,0,0,0,4.57,5,0.22,0.22,0,0,1,.18.21c0,0.06.14,3.71,0.12,3.76A0.22,0.22,0,0,1,88.07,75.63Z" transform="translate(0.1 0.1)"/><path class="cls-4" d="M83.87,184.78s0.13-.65.23-1a5.44,5.44,0,0,1,3.15-3.48l-0.11,3.18A8.39,8.39,0,0,0,81.34,189c-1.4,4.74.81,4.94,1,3.57A7.08,7.08,0,0,1,87,187l-0.19,5.53A23.59,23.59,0,0,0,75.27,197c-5.56,4.34-8.49,12-8.52,13a0.66,0.66,0,0,0,.71.6,1.54,1.54,0,0,0,1-1.15c4.39-8.49,10.83-12.71,18.55-13.58,0.05,0.15,1.68,4.84,1.75,5a0.67,0.67,0,0,0,.4.3c1,0.17.91-.69,2.51-5.28,14.06,1.58,18.15,13.56,19.09,14.56a0.7,0.7,0,0,0,1,0,1.48,1.48,0,0,0-.16-1.44C108,199.54,102,193.75,91.76,192.5L91.57,187a7.1,7.1,0,0,1,4.69,5.73,0.68,0.68,0,0,0,1.32,0,8.37,8.37,0,0,0-6.13-9.22l-0.11-3.19a5.47,5.47,0,0,1,3.33,4.33,0.67,0.67,0,0,0,1.32,0,6.74,6.74,0,0,0-4.76-7.39L91.16,175a3.71,3.71,0,0,1,1.54,1.88c0.3,1,.13,1.08.66,1.29,1.68,0.3,1.17-4.54-2.29-5.81-0.08-2.17.26-2.31-1.27-4.34a0.68,0.68,0,0,0-1.08.09c-1.43,2.38-1.09,1.2-1.2,4.24a5,5,0,0,0-3.18,4.95c0,1,1,1.15,1.32.51,0-.09.09-0.43,0.14-0.63A3.64,3.64,0,0,1,87.43,175l-0.08,2.2c-6.48,2-5.13,10.55-3.48,7.55h0ZM84.77,177A4.52,4.52,0,0,1,88,172.67l0.09-2.5h0c0-.1,1-1.73,1.06-1.82h0a0.22,0.22,0,0,1,.38,0l1,1.71h0c0.05,0.08.12,2.51,0.12,2.61A4.52,4.52,0,0,1,93.81,177h0a4.87,4.87,0,0,1,0,.6h0v0h0a0.22,0.22,0,0,1-.44,0,4.06,4.06,0,0,0-2.64-3.27l0.11,3.21a6.33,6.33,0,0,1,4.81,6.13h0a6.55,6.55,0,0,1-.06.85h0v0h0a0.22,0.22,0,0,1-.44,0,5.88,5.88,0,0,0-4.24-4.86L91,183.81a7.93,7.93,0,0,1,6.2,7.73h0a8.05,8.05,0,0,1-.05.92h0l0,0.17h0a0.22,0.22,0,0,1-.44,0,7.49,7.49,0,0,0-5.59-6.23l0.23,6.47c10.45,1.22,16.56,6.91,20,17h0a0.22,0.22,0,0,1-.41.17c-4.38-9.13-11-13.7-19.66-14.64l-1.81,5.19h0a0.22,0.22,0,0,1-.42,0l-1.81-5.19c-9.4,1-15.64,6.29-19.65,14.63a0.22,0.22,0,0,1-.42-0.16c3.48-10.06,9.59-15.76,20-17l0.22-6.47a7.48,7.48,0,0,0-5.59,6.22,0.22,0.22,0,0,1-.19.2c-0.37,0-.32-0.87-0.32-1.25h0a7.93,7.93,0,0,1,6.2-7.76l0.14-4.11a5.88,5.88,0,0,0-4.24,4.84,0.22,0.22,0,0,1-.44,0c0-.12,0-0.24,0-0.35h0v-0.07h0c0-3.61,2-5.91,4.8-6.59l0.11-3.21a4.09,4.09,0,0,0-2.24,2h0a4.07,4.07,0,0,0-.4,1.27c0,0.29-.47.36-0.47-0.23h0v0h0s0-.31,0-0.33h0Zm3.3-3.18A4.53,4.53,0,0,0,85.35,176a4.08,4.08,0,0,1,2.87-2.89,0.22,0.22,0,0,0,.17-0.21l0.09-2.61,0.81-1.34,0.8,1.34,0.09,2.59a0.22,0.22,0,0,0,.17.23,4.08,4.08,0,0,1,2.88,2.9,4.52,4.52,0,0,0-2.72-2.14h0a0.22,0.22,0,0,0-.28.22l0.13,3.68a0.22,0.22,0,0,0,.18.23,5.88,5.88,0,0,1,4.58,5,6.32,6.32,0,0,0-4.42-3.71h0a0.22,0.22,0,0,0-.27.22L90.58,184a0.22,0.22,0,0,0,.18.23,7.48,7.48,0,0,1,6,6.77,7.92,7.92,0,0,0-5.83-5.08h0a0.22,0.22,0,0,0-.27.22l0.24,6.94a0.22,0.22,0,0,0,.2.23c9.16,1,14.93,5.51,18.49,13.27a23.41,23.41,0,0,0-18.4-11.64h0a0.22,0.22,0,0,0-.23.15l-1.66,4.76-1.66-4.75a0.22,0.22,0,0,0-.24-0.16A23.4,23.4,0,0,0,69,206.56c3.56-7.74,9.31-12.25,18.49-13.27a0.22,0.22,0,0,0,.2-0.21l0.24-6.93a0.22,0.22,0,0,0-.27-0.24A7.93,7.93,0,0,0,81.84,191a7.48,7.48,0,0,1,6-6.76A0.22,0.22,0,0,0,88,184l0.16-4.56c0.1-.77-3.41.46-4.69,3.46a5.88,5.88,0,0,1,4.57-5h0a0.22,0.22,0,0,0,.18-0.21c0-.06.14-3.71,0.12-3.76A0.22,0.22,0,0,0,88.07,173.82Z" transform="translate(0.1 0.1)"/><path class="cls-4" d="M75,202.12c-0.14.14-5,7.76-5,8a0.66,0.66,0,0,0,.92.66c0.15-.07,5.23-3.24,5.38-3.33H77.3l3.38,3.15a0.71,0.71,0,0,0,.91,0L85,207.41h0.78c-0.08.18-1.1,2.54-1.11,2.74s3.92,8.34,4,8.57a0.69,0.69,0,0,0,1.22,0l4-8.35a0.58,0.58,0,0,0,0-.45l-1.07-2.54H93.6a48.88,48.88,0,0,0,3.71,3.31,0.72,0.72,0,0,0,.5-0.09c0.14-.1,3.35-3.1,3.47-3.22h1.08c5.22,3.25,5.42,3.67,6.08,3.21s0.19-.67-4.72-8.36a0.68,0.68,0,0,0-.57-0.31C102.73,201.95,75.31,201.85,75,202.12Z" transform="translate(0.1 0.1)"/><path class="cls-7" d="M97.44,209.22a31.38,31.38,0,0,0-3.5-3.06c-3.91-.22-3,0.25-1.41,4l-3.25,6.8L86,210.15c1.06-2.52,1.93-4,.69-4-3.07,0-1.69-.58-5.6,3.06a31.44,31.44,0,0,0-3.5-3.06c-2.32-.13-1.73-0.06-5,2l3.14-4.92h27l3.14,4.92C101,205.07,101.66,205.29,97.44,209.22Z" transform="translate(0.1 0.1)"/><path class="cls-6" d="M102.65,205.75c-0.22,0-1.64,0-1.89,0a1.14,1.14,0,0,0-.45.2c-0.1.08-2.77,2.58-2.87,2.66-0.22-.2-2.78-2.63-3-2.77a9.48,9.48,0,0,0-3,0c-1.3.65-.51,1.57,0.65,4.31l-2.76,5.78-2.76-5.78c1-2.36,2.12-3.91.48-4.36a17.85,17.85,0,0,0-2.68,0,36.45,36.45,0,0,0-3.19,2.83c-0.22-.2-2.78-2.63-3-2.77a1.16,1.16,0,0,0-.41-0.11c-2.24-.13-2.09,0-3.62,1l2-3.14h26.45l2,3.14A7.42,7.42,0,0,0,102.65,205.75Z" transform="translate(0.1 0.1)"/><path class="cls-7" d="M103.18,205.92a1,1,0,0,0-.2-0.1v-1.48l1.19,1.86v0.33l-1-.62h0Zm-1.39-.17a4.08,4.08,0,0,0-1.19.07v-2.21h1.19v2.14h0Zm-2.38,1.06-1.19,1.11v-4.3h1.19v3.19h0ZM97,208.25l-1.19-1.11v-3.53H97v4.64h0ZM94.65,206a1.51,1.51,0,0,0-1.19-.28v-2.14h1.19V206h0Zm-2.38-.28a1.51,1.51,0,0,0-1.19.28v-2.41h1.19v2.14h0Zm-1.19,2.08,1,2.31-1,2v-4.36h0Zm-1.19,6.85-0.6,1.25-0.6-1.25V203.61h1.19v11.06h0Zm-2.38-2.49-1-2,1-2.32v4.36h0Zm0-6.16a1.53,1.53,0,0,0-1.19-.28v-2.14h1.19V206h0Zm-2.38-.28a1.52,1.52,0,0,0-1.19.28v-2.42h1.19v2.14h0Zm-2.38,1.39-1.19,1.11v-4.64h1.19v3.53h0Zm-2.38.77-1.19-1.11v-3.19h1.19v4.3h0ZM78,205.82a4,4,0,0,0-1.19-.07v-2.14H78v2.21h0Zm-2.38,0c-0.19.07-1,.61-1.19,0.72v-0.33l1.19-1.86v1.48Z" transform="translate(0.1 0.1)"/><path class="cls-2" d="M103,202.78l4.28,6.7c-0.1-.06-4.63-2.9-4.73-2.9h0c-2.24,0-.86-0.74-5.12,3.23-0.11-.1-3.41-3.23-3.56-3.23h-2a0.22,0.22,0,0,0-.22.21c0,0.06,1.38,3.31,1.41,3.37L89.29,218l-3.73-7.81L87,206.86a0.2,0.2,0,0,0-.13-0.27,11.41,11.41,0,0,0-2.3.06l-3.39,3.16c-0.11-.1-3.41-3.23-3.56-3.23h0c-2.24,0-.56-0.66-6.29,2.9l4.28-6.7H103Zm-27.78-.31c-6.39,10-6.79,9.28.84,4.53h1.4L81,210.25a0.23,0.23,0,0,0,.32,0l3.5-3.26h1.62c-0.06.13-1.36,3.12-1.3,3.25,3.66,7.65,4,9,4.38,8.31l4-8.31h0c0.06-.13-1.25-3.12-1.3-3.25h1.62l3.5,3.26a0.24,0.24,0,0,0,.32,0l3.5-3.26h1.4l5.36,3.33a0.22,0.22,0,0,0,.33-0.27c-0.12-.18-4.84-7.69-5-7.69S75.35,202.3,75.24,202.46Z" transform="translate(0.1 0.1)"/><path class="cls-5" d="M85.69,131.36c-5.21,3.44-15.51.53-15.58,10.69a0.57,0.57,0,0,0,1.13,0C71.3,132.64,81.69,136,87,131.85a16.77,16.77,0,0,1-5.63,2.94c-4.51,1.69-8.93,3.35-7.7,10.09a0.56,0.56,0,0,0,.65.43,0.53,0.53,0,0,0,.46-0.61c-1.08-5.9,2.92-7.4,7-8.94,2.48-.93,5-1.87,6.59-3.67-3.63,4.89-14.38,5.44-10.71,15,0.25,0.66,1.32.3,1.06-.35-3.41-8.88,7.61-9,11-14.62a15.52,15.52,0,0,1-4.22,4.58c-3.61,3-7.16,6-3.53,11.93a0.58,0.58,0,0,0,.77.2,0.51,0.51,0,0,0,.21-0.72c-3.18-5.2,0-7.89,3.3-10.63,2-1.66,4-3.35,4.84-5.56-1.6,5.76-11.52,9.7-4.55,17.52,0.48,0.54,1.35-.14.87-0.67-6.47-7.26,3.85-10.92,5-17.26a14.53,14.53,0,0,1-2.29,5.66c-2.29,4-4.53,7.91,1.07,12.34a0.59,0.59,0,0,0,.8-0.06,0.5,0.5,0,0,0-.07-0.74c-4.9-3.87-2.87-7.42-.8-11,1.25-2.19,2.52-4.41,2.51-6.75,0.6,5.92-7.26,12.78,2.16,17.91a0.54,0.54,0,1,0,.57-0.91c-8.74-4.76-.41-11.48-1.63-17.8a14.16,14.16,0,0,1-.07,6c-0.68,4.48-1.35,8.88,5.54,11.25a0.57,0.57,0,0,0,.73-0.31,0.52,0.52,0,0,0-.33-0.68c-6-2.08-5.42-6.06-4.81-10.12,0.37-2.46.75-5-.12-7.15,2.74,5.37-2.13,14.32,8.61,16.14a0.53,0.53,0,1,0,.2-1c-10-1.69-4.61-10.65-8.07-16.2a14.55,14.55,0,0,1,2.14,5.69c1,4.43,2,8.77,9.34,8.81a0.53,0.53,0,1,0,0-1.05c-6.42,0-7.32-4-8.23-8-0.55-2.43-1.12-4.89-2.74-6.68,4.55,4.17,3.26,14.14,14,12.43a0.53,0.53,0,1,0-.19-1c-10,1.58-8.24-8.55-13.54-12.66a15.47,15.47,0,0,1,4.11,4.67c2.57,3.84,5.1,7.61,12,5.3a0.53,0.53,0,1,0-.38-1c-9.53,3.17-9.7-7.08-15.69-10.28a16.08,16.08,0,0,1,4.92,3.93c3.25,3.37,6.44,6.67,12.82,3.28a0.54,0.54,0,1,0-.56-0.91c-8.8,4.67-10.88-5.42-17.38-7.58a16.59,16.59,0,0,1,5.59,3.08c3.83,2.79,7.58,5.52,13.23,1.16,0.58-.44-0.15-1.26-0.72-0.81-7.8,6-11.73-3.58-18.54-4.66a17.05,17.05,0,0,1,6.08,2.13c4.29,2.13,8.5,4.21,13.25-1a0.5,0.5,0,0,0-.06-0.74,0.59,0.59,0,0,0-.8.06c-4.16,4.56-8,2.67-11.85.75-2.36-1.17-4.74-2.35-7.25-2.34,6.36-.56,13.72,6.76,19.23-2,0.38-.6-0.6-1.13-1-0.53-5.11,8.14-12.34.38-19.12,1.52a17.5,17.5,0,0,1,6.49.07c4.81,0.63,9.53,1.25,12.08-5.16a0.51,0.51,0,0,0-.33-0.68,0.58,0.58,0,0,0-.73.31c-2.23,5.61-6.51,5-10.87,4.48-2.65-.35-5.33-0.7-7.69.12,5.77-2.56,15.39,2,17.34-8a0.57,0.57,0,0,0-1.11-.19c-1.82,9.28-11.45,4.28-17.41,7.52a17.1,17.1,0,0,1,6.12-2c4.76-.94,9.42-1.86,9.46-8.69a0.57,0.57,0,0,0-1.13,0c0,6-4.26,6.82-8.57,7.67-2.61.52-5.25,1-7.17,2.55,4.48-4.23,15.18-3,13.35-13.05a0.57,0.57,0,0,0-1.11.18c1.7,9.3-9.19,7.67-13.6,12.61a16.13,16.13,0,0,1,5-3.83c4.13-2.4,8.17-4.75,5.7-11.18a0.57,0.57,0,0,0-.72-0.32,0.52,0.52,0,0,0-.34.67c2.16,5.63-1.5,7.76-5.24,9.93-2.27,1.32-4.56,2.65-5.8,4.69,2.65-5.4,13.15-7.68,7.75-16.52-0.37-.61-1.35-0.08-1,0.52,5,8.2-5.82,10.14-8.15,16.19a15,15,0,0,1,3.31-5.2c3-3.56,5.93-7.06,1.25-12.32a0.59,0.59,0,0,0-.79-0.07,0.5,0.5,0,0,0-.07.74c4.1,4.61,1.44,7.77-1.27,11-1.65,2-3.32,4-3.74,6.27,0.49-5.93,9.55-11.42,1.22-18-0.57-.45-1.3.35-0.73,0.8,7.71,6.1-1.73,11.37-1.71,17.79a14.3,14.3,0,0,1,1.2-5.93c1.51-4.3,3-8.52-3.36-12a0.59,0.59,0,0,0-.77.19,0.51,0.51,0,0,0,.2.72c5.54,3,4.21,6.84,2.85,10.74-0.83,2.36-1.66,4.75-1.21,7.05-1.69-5.74,4.76-13.75-5.46-17.28a0.53,0.53,0,1,0-.39,1c9.49,3.28,2.55,11.23,4.93,17.26a14.3,14.3,0,0,1-1.05-6c-0.17-4.52-.33-9-7.55-10.19a0.56,0.56,0,0,0-.66.42,0.53,0.53,0,0,0,.46.61c6.32,1.07,6.47,5.09,6.62,9.19,0.09,2.48.19,5,1.45,7-3.7-4.85-.57-14.44-11.48-14.51a0.53,0.53,0,1,0,0,1.05c10.12,0.06,6.52,9.75,11,14.65a15,15,0,0,1-3.17-5.26c-1.82-4.2-3.6-8.31-10.84-7.17a0.53,0.53,0,0,0-.46.61,0.56,0.56,0,0,0,.65.43c6.33-1,7.95,2.72,9.6,6.53,1,2.3,2,4.64,3.94,6.13-5.25-3.38-5.84-13.39-16.12-10a0.53,0.53,0,1,0,.38,1c9.53-3.17,9.71,7.08,15.69,10.27a16.09,16.09,0,0,1-4.91-3.93c-3.25-3.37-6.44-6.67-12.82-3.28a0.51,0.51,0,0,0-.21.72,0.59,0.59,0,0,0,.77.2c5.58-3,8.47,0,11.41,3.08,1.79,1.85,3.59,3.72,6,4.51-6.17-1.49-10.41-10.73-18.81-4.24-0.58.44,0.15,1.26,0.72,0.81,7.8-6,11.73,3.58,18.53,4.66a17.09,17.09,0,0,1-6.07-2.13c-4.29-2.13-8.5-4.21-13.25,1a0.5,0.5,0,0,0,.07.74,0.59,0.59,0,0,0,.8-0.06c4.16-4.56,8-2.67,11.86-.74,2.36,1.17,4.75,2.35,7.26,2.34-6.35.57-13.73-6.77-19.24,2-0.38.6,0.6,1.13,1,.53,5.11-8.13,12.33-.39,19.11-1.52a17.54,17.54,0,0,1-6.47-.07c-4.81-.63-9.53-1.25-12.09,5.16a0.52,0.52,0,0,0,.34.68,0.58,0.58,0,0,0,.73-0.31c2.23-5.61,6.51-5,10.87-4.48,2.65,0.35,5.32.7,7.68-.11-5.76,2.55-15.38-2-17.34,8a0.57,0.57,0,0,0,1.11.19c1.15-5.88,5.47-6,9.87-6.16,2.67-.09,5.37-0.17,7.54-1.35h0Zm2.47-.69h0a6.85,6.85,0,0,1-2.12-.72h0l-0.09,0h0l0,0h0a6.36,6.36,0,0,1-1.68-1.39h0a6,6,0,0,1-.59-0.83h0a5.67,5.67,0,0,1-.72-1.92h0a5.47,5.47,0,0,1,0-2.05h0v0h0a5.72,5.72,0,0,1,.29-1h0v-0.06h0v0h0a6,6,0,0,1,.43-0.83,6.06,6.06,0,0,1,.67-0.88h0l0,0h0l0,0h0a6.38,6.38,0,0,1,.71-0.64h0.05l0.05,0h0a6.53,6.53,0,0,1,.8-0.51l0.1-.05h0a6.75,6.75,0,0,1,.94-0.4h0.08l0.06,0h0a7,7,0,0,1,.94-0.22h0.12a6.91,6.91,0,0,1,1-.07h0.18a6.88,6.88,0,0,1,1,.09h0.07a6.78,6.78,0,0,1,1,.26h0.06a6.59,6.59,0,0,1,1.9,1h0a6.86,6.86,0,0,1,.79.75,6,6,0,0,1,.65.89l0,0h0a5.61,5.61,0,0,1,.45.93h0a5.8,5.8,0,0,1,.26.95v0h0v0.06h0a5.66,5.66,0,0,1,.08.91h0v0.07h0v0.07h0a5.72,5.72,0,0,1-.1.88h0a5.72,5.72,0,0,1-.34,1.12h0v0h0a5.78,5.78,0,0,1-.42.8h0l-0.05.08h0a6.12,6.12,0,0,1-.66.85h0a6.61,6.61,0,0,1-.79.71h0a6.45,6.45,0,0,1-.84.54h0a7.25,7.25,0,0,1-1.19.5h0a6.58,6.58,0,0,1-.93.22H90.23a6.83,6.83,0,0,1-1.13.06h0A7,7,0,0,1,88.16,130.67Z" transform="translate(0.1 0.1)"/><ellipse class="cls-5" cx="89.39" cy="124.82" rx="4.34" ry="4.04"/><path class="cls-7" d="M40.63,41.29a18.33,18.33,0,0,1,.4,3l0.75-.39q-0.52-1.31-1-2.64l-0.11.06h0Zm0.29,6.22a19.65,19.65,0,0,1-.8,3.69q1.88-1.09,3.82-2.1-0.55-1.3-1.09-2.61l-1.92,1h0Zm0.35,6.29A6,6,0,0,1,43.17,56q1.5-.88,3-1.7Q45.63,53,45.06,51.69q-1.92,1-3.79,2.11h0Zm2.64,5a7.66,7.66,0,0,1-.9,3.9q2.73-1.77,5.62-3.34Q48,58.1,47.41,56.82q-1.78,1-3.49,2h0Zm-5.85,7.38-0.33,0,0.08,0.16,0.25-.19h0Zm1,2.81a78.67,78.67,0,0,1,10.83-7.11q0.65,1.26,1.32,2.49a75.56,75.56,0,0,0-10.79,7.17Q39.75,70.3,39.08,69h0Zm2.82,5q0.76,1.24,1.56,2.42A69.47,69.47,0,0,1,54,69.28q-0.72-1.21-1.42-2.44A72.52,72.52,0,0,0,41.9,74h0Zm3.21,4.76a66.47,66.47,0,0,1,10.38-7.1q0.76,1.2,1.53,2.38a63.43,63.43,0,0,0-10.15,7Q46,80,45.11,78.79h0Zm3.63,4.41a60.43,60.43,0,0,1,9.88-6.8q0.82,1.17,1.67,2.3a57.47,57.47,0,0,0-9.56,6.56q-1-1-2-2.06h0Zm4.1,4q1.1,1,2.24,1.85a51.61,51.61,0,0,1,8.78-5.89Q62.94,82.09,62,81a54.54,54.54,0,0,0-9.19,6.26h0Zm4.62,3.59a48.68,48.68,0,0,1,8.33-5.46q1,1.09,2,2.12a46.23,46.23,0,0,0-7.83,5q-1.29-.77-2.53-1.63,1.25,0.86,2.53,1.63-1.29-.77-2.53-1.63h0Zm-2.38-1.74q-1.14-.89-2.24-1.85,1.1,1,2.24,1.85h0Zm-4.35-3.81q-1-1-2-2.06,1,1.07,2,2.06h0ZM46.87,81Q46,80,45.11,78.79,46,80,46.87,81h0Zm-3.42-4.59Q42.66,75.28,41.9,74q0.76,1.24,1.56,2.42h0Zm-3-4.91Q39.75,70.3,39.08,69q0.67,1.31,1.36,2.56h0Zm-2.64-5.18-0.08-.16Z" transform="translate(0.1 0.1)"/><path class="cls-7" d="M137.95,41.29a18.24,18.24,0,0,0-.4,3l-0.75-.39q0.52-1.31,1-2.64l0.11,0.06h0Zm-0.29,6.22a20,20,0,0,0,.8,3.69q-1.88-1.09-3.82-2.1,0.55-1.3,1.09-2.61l1.92,1h0Zm-0.35,6.29a6,6,0,0,0-1.9,2.17q-1.51-.88-3-1.7Q133,53,133.52,51.69q1.92,1,3.79,2.11h0Zm-2.64,5a7.65,7.65,0,0,0,.9,3.9q-2.73-1.77-5.62-3.34,0.62-1.26,1.23-2.54,1.78,1,3.49,2h0Zm6.18,7.4-0.08.16-0.25-.19ZM139.5,69a78.66,78.66,0,0,0-10.83-7.11q-0.65,1.26-1.32,2.49a75.57,75.57,0,0,1,10.79,7.17q0.7-1.25,1.36-2.56h0Zm-2.82,5q-0.76,1.24-1.56,2.42a69.47,69.47,0,0,0-10.56-7.18q0.72-1.21,1.42-2.44a72.51,72.51,0,0,1,10.7,7.2h0Zm-3.21,4.76a66.44,66.44,0,0,0-10.38-7.1q-0.76,1.2-1.53,2.38a63.39,63.39,0,0,1,10.15,7q0.9-1.09,1.76-2.25h0Zm-3.63,4.41A60.38,60.38,0,0,0,120,76.4q-0.82,1.17-1.67,2.3a57.5,57.5,0,0,1,9.56,6.56q1-1,2-2.06h0Zm-4.1,4q-1.1,1-2.24,1.85a51.65,51.65,0,0,0-8.78-5.89q0.93-1.09,1.83-2.22a54.53,54.53,0,0,1,9.19,6.26h0Zm-4.62,3.59a48.64,48.64,0,0,0-8.33-5.46q-1,1.09-2,2.12a46,46,0,0,1,7.83,5q1.28-.77,2.53-1.63h0Zm-2.53,1.63q1.28-.77,2.53-1.63-1.25.86-2.53,1.63h0Zm4.91-3.37q1.14-.89,2.24-1.85-1.1,1-2.24,1.85h0Zm4.35-3.81q1-1,2-2.06-1,1.07-2,2.06h0ZM131.71,81q0.9-1.09,1.76-2.25Q132.61,80,131.71,81h0Zm3.42-4.59q0.79-1.18,1.56-2.42-0.76,1.24-1.56,2.42h0Zm3-4.91q0.7-1.25,1.36-2.56-0.67,1.31-1.36,2.56h0Zm2.64-5.18,0.08-.16Z" transform="translate(0.1 0.1)"/><path class="cls-7" d="M40.63,208.16a18.32,18.32,0,0,0,.4-3l0.75,0.39q-0.52,1.31-1,2.64l-0.11-.06h0Zm0.29-6.22a20,20,0,0,0-.8-3.69q1.88,1.09,3.82,2.1-0.55,1.3-1.09,2.61l-1.92-1h0Zm0.35-6.29a6,6,0,0,0,1.9-2.17q1.5,0.88,3,1.7-0.58,1.28-1.16,2.57-1.92-1-3.79-2.11h0Zm2.64-5a7.66,7.66,0,0,0-.9-3.9q2.73,1.77,5.62,3.34-0.63,1.26-1.23,2.54-1.78-1-3.49-2h0Zm-5.85-7.38-0.33,0,0.08-.17,0.25,0.19h0Zm1-2.81a78.73,78.73,0,0,0,10.83,7.11q0.65-1.26,1.32-2.49a75.64,75.64,0,0,1-10.79-7.17q-0.7,1.25-1.36,2.56h0Zm2.82-5q0.76-1.24,1.56-2.42A69.4,69.4,0,0,0,54,180.17q-0.72,1.21-1.42,2.44a72.63,72.63,0,0,1-10.7-7.2h0Zm3.21-4.76a66.49,66.49,0,0,0,10.38,7.1q0.76-1.2,1.53-2.38a63.43,63.43,0,0,1-10.15-7q-0.9,1.09-1.76,2.25h0Zm3.63-4.41a60.47,60.47,0,0,0,9.88,6.8q0.82-1.17,1.67-2.3a57.38,57.38,0,0,1-9.56-6.56q-1,1-2,2.06h0Zm4.1-4q1.1-1,2.24-1.85a51.64,51.64,0,0,0,8.78,5.89q-0.93,1.09-1.83,2.22a54.47,54.47,0,0,1-9.19-6.26h0Zm4.62-3.59a48.74,48.74,0,0,0,8.33,5.46q1-1.09,2-2.12A45.54,45.54,0,0,1,60,157q-1.29.77-2.53,1.63h0ZM60,157q-1.29.77-2.53,1.63,1.25-.86,2.53-1.63h0Zm-4.91,3.37q-1.14.89-2.24,1.85,1.1-1,2.24-1.85h0Zm-4.35,3.81q-1,1-2,2.06,1-1.07,2-2.06h0Zm-3.86,4.22q-0.9,1.09-1.76,2.25,0.86-1.16,1.76-2.25h0ZM43.46,173q-0.79,1.18-1.56,2.42,0.76-1.24,1.56-2.42h0Zm-3,4.91q-0.7,1.25-1.36,2.56,0.67-1.31,1.36-2.56h0Zm-2.64,5.18-0.08.17Z" transform="translate(0.1 0.1)"/><path class="cls-7" d="M137.95,208.16a18.24,18.24,0,0,1-.4-3l-0.75.39q0.52,1.31,1,2.64l0.11-.06h0Zm-0.29-6.22a20,20,0,0,1,.8-3.69q-1.88,1.09-3.82,2.1,0.55,1.3,1.09,2.61l1.92-1h0Zm-0.35-6.29a6,6,0,0,1-1.9-2.17q-1.51.88-3,1.7,0.58,1.28,1.16,2.57,1.92-1,3.79-2.11h0Zm-2.64-5a7.61,7.61,0,0,1,.9-3.9q-2.73,1.77-5.62,3.34,0.62,1.26,1.23,2.54,1.78-1,3.49-2h0Zm6.18-7.4-0.08-.17-0.25.19Zm-1.35-2.79a78.72,78.72,0,0,1-10.83,7.11q-0.65-1.26-1.32-2.49a75.65,75.65,0,0,0,10.79-7.17q0.7,1.25,1.36,2.56h0Zm-2.82-5q-0.76-1.24-1.56-2.42a69.4,69.4,0,0,1-10.56,7.18q0.72,1.21,1.42,2.44a72.63,72.63,0,0,0,10.7-7.2h0Zm-3.21-4.76a66.46,66.46,0,0,1-10.38,7.1q-0.76-1.2-1.53-2.38a63.38,63.38,0,0,0,10.15-7q0.9,1.09,1.76,2.25h0Zm-3.63-4.41A60.42,60.42,0,0,1,120,173q-0.82-1.17-1.67-2.3a57.41,57.41,0,0,0,9.56-6.56q1,1,2,2.06h0Zm-4.1-4q-1.1-1-2.24-1.85a51.68,51.68,0,0,1-8.78,5.89q0.93,1.09,1.83,2.22a54.47,54.47,0,0,0,9.19-6.26h0Zm-4.62-3.59a48.69,48.69,0,0,1-8.33,5.46q-1-1.09-2-2.12a45.58,45.58,0,0,0,7.83-5q1.28,0.77,2.53,1.63h0ZM118.59,157q1.28,0.77,2.53,1.63-1.25-.86-2.53-1.63h0Zm4.91,3.37q1.14,0.89,2.24,1.85-1.1-1-2.24-1.85h0Zm4.35,3.81q1,1,2,2.06-1-1.07-2-2.06h0Zm3.86,4.22q0.9,1.09,1.76,2.25-0.86-1.16-1.76-2.25h0Zm3.42,4.59q0.79,1.18,1.56,2.42-0.76-1.24-1.56-2.42h0Zm3,4.91q0.7,1.25,1.36,2.56-0.67-1.31-1.36-2.56h0Zm2.64,5.18,0.08,0.17Z" transform="translate(0.1 0.1)"/></svg>